/* XPM */
static char *fb20a5d5d19a4024f9e08b99050e93a9tnAshszEHO9k5rC2[] = {
/* columns rows colors chars-per-pixel */
"64 64 219 2 ",
"   c black",
".  c #010101",
"X  c #020202",
"o  c gray1",
"O  c #040404",
"+  c gray2",
"@  c #060606",
"#  c #070707",
"$  c gray3",
"%  c #090909",
"&  c gray4",
"*  c #0B0B0B",
"=  c #0C0C0C",
"-  c gray5",
";  c #0E0E0E",
":  c gray6",
">  c #101010",
",  c #111111",
"<  c gray7",
"1  c #131313",
"2  c gray8",
"3  c #151515",
"4  c #161616",
"5  c gray9",
"6  c #181818",
"7  c #191919",
"8  c gray10",
"9  c #1B1B1B",
"0  c gray11",
"q  c #1D1D1D",
"w  c #1E1E1E",
"e  c gray12",
"r  c #202020",
"t  c gray13",
"y  c #222222",
"u  c #232323",
"i  c gray14",
"p  c #252525",
"a  c gray15",
"s  c #272727",
"d  c #282828",
"f  c gray16",
"g  c #2A2A2A",
"h  c gray17",
"j  c #2C2C2C",
"k  c #2D2D2D",
"l  c gray18",
"z  c #2F2F2F",
"x  c gray19",
"c  c #313131",
"v  c #323232",
"b  c gray20",
"n  c #343434",
"m  c #353535",
"M  c gray21",
"N  c #373737",
"B  c gray22",
"V  c #393939",
"C  c #3A3A3A",
"Z  c gray23",
"A  c #3C3C3C",
"S  c gray24",
"D  c #3E3E3E",
"F  c #3F3F3F",
"G  c gray25",
"H  c #414141",
"J  c gray26",
"K  c #434343",
"L  c #444444",
"P  c gray27",
"I  c #464646",
"U  c gray28",
"Y  c #484848",
"T  c #494949",
"R  c gray29",
"E  c #4B4B4B",
"W  c #4C4C4C",
"Q  c gray30",
"!  c #4E4E4E",
"~  c gray31",
"^  c #505050",
"/  c #515151",
"(  c gray32",
")  c #535353",
"_  c gray33",
"`  c #555555",
"'  c #565656",
"]  c gray34",
"[  c #585858",
"{  c gray35",
"}  c #5A5A5A",
"|  c #5B5B5B",
" . c gray36",
".. c #5D5D5D",
"X. c gray37",
"o. c #5F5F5F",
"O. c #606060",
"+. c gray38",
"@. c #626262",
"#. c gray39",
"$. c #646464",
"%. c #656565",
"&. c gray40",
"*. c #676767",
"=. c #686868",
"-. c DimGray",
";. c #6A6A6A",
":. c gray42",
">. c #6C6C6C",
",. c #6D6D6D",
"<. c gray43",
"1. c #6F6F6F",
"2. c gray44",
"3. c #717171",
"4. c #727272",
"5. c gray45",
"6. c #747474",
"7. c gray46",
"8. c #767676",
"9. c #777777",
"0. c gray47",
"q. c #797979",
"w. c gray48",
"e. c #7B7B7B",
"r. c #7C7C7C",
"t. c gray49",
"y. c #7E7E7E",
"u. c gray50",
"i. c #808080",
"p. c #818181",
"a. c gray51",
"s. c #838383",
"d. c #848484",
"f. c gray52",
"g. c #868686",
"h. c gray53",
"j. c #888888",
"k. c #898989",
"l. c gray54",
"z. c #8B8B8B",
"x. c gray55",
"c. c #8D8D8D",
"v. c #8E8E8E",
"b. c gray56",
"n. c #909090",
"m. c gray57",
"M. c #929292",
"N. c #939393",
"B. c gray58",
"V. c #959595",
"C. c gray59",
"Z. c #979797",
"A. c #989898",
"S. c gray60",
"D. c #9A9A9A",
"F. c #9B9B9B",
"G. c gray61",
"H. c #9D9D9D",
"J. c gray62",
"K. c #9F9F9F",
"L. c #A0A0A0",
"P. c gray63",
"I. c #A2A2A2",
"U. c gray64",
"Y. c #A4A4A4",
"T. c #A5A5A5",
"R. c gray65",
"E. c #A7A7A7",
"W. c gray66",
"Q. c #A9A9A9",
"!. c #AAAAAA",
"~. c gray67",
"^. c #ACACAC",
"/. c gray68",
"(. c #AEAEAE",
"). c #AFAFAF",
"_. c gray69",
"`. c #B1B1B1",
"'. c #B2B2B2",
"]. c gray70",
"[. c #B4B4B4",
"{. c gray71",
"}. c #B6B6B6",
"|. c #B7B7B7",
" X c gray72",
".X c #B9B9B9",
"XX c gray73",
"oX c #BBBBBB",
"OX c #BCBCBC",
"+X c gray74",
"@X c gray",
"#X c gray75",
"$X c #C0C0C0",
"%X c #C1C1C1",
"&X c gray76",
"*X c #C3C3C3",
"=X c gray77",
"-X c #C5C5C5",
";X c #C6C6C6",
":X c gray78",
">X c #C8C8C8",
",X c gray79",
"<X c #CACACA",
"1X c #CBCBCB",
"2X c gray80",
"3X c #CDCDCD",
"4X c #CECECE",
"5X c gray81",
"6X c #D0D0D0",
"7X c gray82",
"8X c #D2D2D2",
"9X c LightGray",
"0X c gray84",
"qX c #D7D7D7",
"wX c #D8D8D8",
"eX c #DADADA",
"rX c gray86",
"tX c #E1E1E1",
"yX c #E2E2E2",
/* pixels */
"              I   a &.  &.  D   w   3.      )   a   m       m ' I   u     ;.  +.H w >     +.  :     I [ z D @ : c   @ 4 I   m   ",
"z             >   4 m z   : @     : 4   4     g.Y   Z ) Z 8 H 4   m v.g   u 4 W     D D :         D c 8 Z I Z     ) J.4   c     ",
"I ;.@ & a.H :       g       : [ H 8   m : 4   @   a   >   D   a e.@   u w   ) ) I   c u   > 4 W c a       w   > '       w   I Z ",
"z I 8 ;.  &.m       z   : g.&     ..    : u &   ) ) 8 H   w     m   ) W   a H     <.>     Z   > ' > 4 ) H   3.  ) D     : : )   ",
"I w J.`.7.Z.3.Y.7.W v.F.F.g.J.Z.l.{.N.7.a.<.7.<.`.e.F.`.F.N.t.t.N.l.&.l.Y.v.{.N.N.N.N.7.N.I.e.N.I.Y.N.g.F.3.g.I.~.l.J.g.t.J.I Z.",
"4 > l.Z.+.J.l.F.N.N.v.oX+X[ N.Y.~.<.F.Z.7.I.oXI.`.v.e.Y.F.I.v.`.`.W `.N.`.l.N.F.l.~.F...a.F.+.Y.l.7.v.F.Z.v.a.J.Z.g.Z.<Xe.7.    ",
"    Y.Z.Z.~.t.Y.v.Z.g.N.F.F.e.N.3.).J.g.;.oX&.J.v.[ I.).g.v.t.<XJ.Z.v.t.F.N.g.~.F.v.v.;.F.e.v.Y.v.a...Z ~.v.{.F.~.t.).t.~.t.t.  ",
"t.Y t.Y.).Y.Z.Y.N.W I.<XJ.&.F.N.).<.t.Y.Y.N.3.;.l.e.Y.I.Z.Y.~.Y.<.e.`.8XZ.g.I.7.e.+XN.Z.F.g.+.t.&.Y.{.<.v.7.+Xg.N.t.a.F.~.t.z g ",
"& ) F.-Xe.J.l.$XF.l.I.v.J.+.[ a.Z.l.&.N.l.&.l.`.t.N.+XZ.a.Y.).F.`.a.t.I.;.J.~.Y.;.I.+.Z.Z.e.~.I.J.rXJ.I.`.7.oXl.J.{.F.l.).I.4 8 ",
"a [ Z.Z.`.F.).{.7.{.I.g.oXa.v.F.oXN.N.&.a.Y.J.+XF.v.F.Y.&.v.l.a.l.a.J.N.J.).`.7.).) ;.g.l.N.7.).7.Y.I.a.J.7.t.`.Z.a.J.g.7.<.;.  ",
"    N.3.v.+.t.`.g.F.a.Z.v.F.Z.v.Z.t.a.I.~.Y.7.v.7.I.N.e.l.Y.I.' 3.e.J.l.<.N.Z.e.`.7.a.a.`.J.t.oX~.`.g.<.~.g.&.t.v.J.) Y.t.Z.: g ",
") Y F.a.7.Z.<.g.N.F.N.).I.l.t.v.v.v.I.t.' g.Y.Y.J.Y.4Xl.`.N.g.F.N.l.J.g.7.g.t.;.l.7.e.F.v.l.F.N.{.N.).l.a.F.7.4Xt.Z.3.l.Z.v.@   ",
"  [ N.`.l.N.F.l.~.F.[ a.F.+.Y.l.7.v.F.Z.v.a.J.Z.g.Z.-Xe.7.e.<.l.J.a.v.N.`.Z ~.`.F.<Xg.{.{.J.[ ).t.&.J.[ +X3.v.<XZ.Y.-XY.Z.;.    ",
"    I.+.).).l.F.Y.Y l.+XN.g.+.Y.<.Z.).N.N.`.~.;.+X7.`.Y.&.a.N.N.).a.3.e.N.<.Z.J.a.Y.I.J.N.t.7.e.Z.&.{.[ Y.<.I.{.7.N.e.~.v.N.I   ",
"w @ ).7.oX<.' J.).).;.N.a.F.Y.F.) v.3.J.F.Z.oXt.v.N.N.g.Y.t.`.N.3.I.~.N.v.l.~.v.l.J.<.a.3.Z.J.N.3.`.~...Y.~.e.`.+Xe.N.7.l.l.Y W ",
"u   <.`.Y.l.`.{.;.{.).`.7.Y.Y.l.~.e.;.I.Y.;.N.Y.I.`.-XF.v.I.W ).I.g.+X<.F.~.$Xv...N.l.F.F.t.).F.I.Y.F.e.+X{.J.N.~.).g.I.7.F.    ",
"m   `.F.&...Y.N.v.7.;.g.Y.).g.J.).t.N.) N.a.~.7.7.g.Z.N.~.F.Z.v.3.v.g.Y.J.7.;.g.F.Y.4XZ.g.Z.N.l.Z.+.J.l.F.N.N.v.oX+X[ N.Y.~.  g ",
"Y   l.N.).I.F.+Xa.v.$XJ.J.e.t.l.;.I.t.{.8Xa.).4XJ.Z.`.<.J.I.a.<.a.Y.).g.l.3.a.$Xg.l.t.Y.Z.I.a.e.[ a.~.Y.N.N.F.<.F.&.g.N.N.l.g > ",
"c w I.F.J.Y.N.g.&.~.Z.v.7.).N.e.Y.l.N.g.N.t.J.Y.;.Y.a.+.&.<.-X<XY.I.g.t.g.`.~.F.a.7.Z.<.g.N.F.N.).I.l.a.v.v.v.I.t.' g.Y.Y.J.m Z.",
"  [ F.&...Y.N.v.7.;.g.Y.).g.F.).t.N.) N.a.~.7.7.a.Z.N.Y.F.Z.v.7.v.g.I.J.7.;.g.Z.Y.4XZ.g.Z.N.v.Z.+.J.l.F.N.N.v.oX+X[ Z.Y.~.;.g 8 ",
"z   F.t.+.F.g.3.Y.F.7.J.oXF.e.F.N.g.7.Y.J.3.N.l.I.) <.).Y.Y.`.I.l.Y.`.~.Z.`.a.g.~.I.~.Z.oXg.oXI...a.+.J.e.N.-Xv...a.{.l.[ N.u & ",
"c   7.l.v.v.~.t.F.I.N.Y.oX`.g.J.3.e.7.F.Y.l.g.v.v.`.v.J.Y.{.<.t.;.W v.Z.l.Z.3.7.`.J.Y.<.7.`.N.<.g.e.7.Y.J.l.7.Y.&.J.&.<.J.a.w 8 ",
"W m l.Y.).~.Z.).a.g.).I.~.Z.oXg.oXI...a.+.J.e.N.<Xv.[ g.`.l.m         N.`.Z.~.3.Z.+.<.I.+.`.).l.F.~.Y l.+XZ.g.+.Y.<.N.`.N.Z.) H ",
"  8 {.&.e.F.7.7.N.v.Z.I F.~.g.{.e.F.Z.N.F.;.`.F.v.).<.F.a.<.<.        ' {.).`.7.Y.Y.v.~.e.;.I.Y.;.N.Y.I.`.-XF.v.I.W ).I.g.$X  a ",
"  & F.I.N.l.N.g.l.<X).$Xt.7.~.~.-XI.a.tXl.oXN.3.e.~.m                 l.g.N.t.J.~.v.oXN.N.Y.e.F.v.l.e.F.v.N.I.).oXY.Z.Z.F.$X    ",
"  a &.g.N.N.l.J.N.v.oXl.g.3.[ `.Y.N.t.Z.7.F.7.a.3.Y.D                 3.a.7.Y.Y.~.N.~.v.l.F...N.l.<.;.e.g.t.g.l.Z.N.Z.N.t.).  > ",
"u   ).I.N.Z.~.).Y.l.g.;.<.N.v.e.3.g.Z.).I.v.F.v.a.Z.I t.[ W D         [ I.v.F.v.8X`.l.F.Y.Y.).F.l.l.~.t.N.Y.$XH 7.Z.Z.a.3.<.  @ ",
"  c e.a.e.4X<Xl.`.Y.t...l.Z.~.{.v.<Xe.+X{.oXl.Y.t.F.oX[ F.J.<.        t.3.Y.7.W v.F.F.g.J.Z.l.{.N.7.a.<.7.<.`.e.F.`.F.N.t.t.>   ",
"4   Z.N.' `.0XY...&.g.Z.I.Y.l.`.4Xg.Z.-Xe.e.t.+.Y.N.N.F.).N.Y         +.l.oXa.F.3.J.N.3.a.a.Z.v.`.F.-Xe.J.l.$XF.l.I.v.J.+.[   8 ",
"  w 3.+Xl.a.t.`.e.F.l.I.<.g.+.I.`.~.l.F.g.7.oX&.{.~.Z.N.7.g.3.        v.{.J.Y.v.N.I.+.v.Z.~.g.I.g.a.g.N.`.7.J.e.{.I...v.t.e.a a ",
"g   <.J.a.Z.Z.Z.;.;.;.).N.l.J.N.N.J.N.N.g.J.7.I.e.{.I.F.~.<.7.        v.J.v.~.Y.{.Y.g.Y.g.g.;.e.v.t.N.Z.).7.J.<.Y.+.t.`.7.`.c Z ",
"    v.Y.&.N.N.e.Z.<.Y.+Xe.F.4XN.I.`.v.F...J.v.I.a.F.Z.t.+X~.Y         3.a.<.N.Y.I.N.).N.N...g.8Xa.) v.J.t.<.J.t.a.Z.`.a.3.F.c   ",
"    l.e.Y.I.Z.Y.~.Y.<.e.`.8XZ.g.I.7.e.$XN.Z.F.g.+.t.&.I.{.<.[         &.a.F.~.t.J.J.F.;.J.N.g.&.Z.3.{.N.N.N.J.l.+X<.e.{.a.I.  H ",
"@ ' ;.N.l.Z.J.N.N.Z.Z.Y.Y.v.`.~.g.a.J.a.F.F.&.J.v.Y.{.7.$X7.+.        a.7.`.v.a.Z.&.W ).<.J.t.v.I.Z.<.oXJ.J.l.v.t.g.).I.l.Z.g z ",
"  8 v.' `.0XY...&.g.Z.I.Y.l.`.4Xl.Z.-Xe.e.t.+.Y.N.N.F.).v.e.'         3.oXa.F.3.J.N.3.a.a.Z.v.`.F.-Xt.J.l.$XF.l.I.v.J.+.[ a.8   ",
"@   I.N.e.l.Y.I.' 3.e.J.l.<.N.Z.e.`.7.a.t.`.I.t.oX~.`.g.<.~.)         I Y.e.F.N.J.Y.;.3.<.[ l.Y.Y.t.F.~.N...t.F.e.e.7.;.+X3.  & ",
"  H v.I.Z.I.~.D `.<.l.F.l.a.~.l.).Y.Y.N.I.).Y.N.N.N.v.a.{.~.W         +.v.<.3.I.v.Y.J.N.a.) F.v.7.v.t.a.{.Y.a.g.$XZ.Y.N.F.~.z 3.",
"  z I.`.J.F.I.Z.{.l.N.`.~.$Xv.oXa.g.v.).Y.a.Y.N.F.N.&.~.J.<.I         ' ).Z.Z.t.I.<.t.<XZ.-XN.g.{.oXJ.v.`.Z.J.~.Y.oXN.e.g.J.8 c ",
"    F.Y.l.g.N.v.`.v.I.Y.{.7.F.t...~.J.v.N.7.7.`.J.Y.<.7.{.N.H         a.l.7.Y.&.J.&.<.J.a.F.Z.Z.;.;.;.`.N.l.I.N.N.J.N.Z.g.J.  c ",
"c Z.v.Y.).7...7.g.v.g.{.) ..l.l.Y.a.Z.e.F.`.e.F.F.3.v.;.e.{.[         <.J.g.~.).7.e.J.`.J.N.N.g.7.N.g.;.4XoX).F.~.Z.).v.`.a.    ",
"z   N.~.J.F.v.v.~.~.N.`.t.a.I.7.[ J.a.g.a.;.v.`.{.+X3.7.3.Z.t.        &.v.Y.oXa.7.Z.e.v.`.g.e.Y.Y.N.t.Z.t.N.+.<.7.a.F.t.l.[ +.  ",
"  w v.&.~.J.a.Z.I.l.l.Z.a.v.t.+X;.e.3.l.I.;.I.g.J.{.l.a.e.v.[         a.F.e.3.N.l.<.~.I a.F.v.Y.7.t.N.J.J.N.F.e.Y.v.`.a.J.I.    ",
"&   -Xv.N.J.`.Z.N.`.F.).{.7.{.I.g.oXa.v.Z.oXv.N.&.a.Y.J.oXF.7.+.&.D [ t.a.l.a.J.N.J.).).3.`.) ;.g.l.N.3.).7.Y.I.a.J.7.t.).Z.  g ",
"    Z.`.a.3.F.I.7.F.Y.v.t.{.a.N.F.g.F.v.Y.J.N.).).F.a.7.4Xg.a.`.J.rXe.I.Y.g.I.Z.Z.-XF.Y.~.Z.Z.I.v.Y.l.t.g.g.v.4Xa.t.{.e.7.J.c > ",
"  g N.3.g.a.Z.v.`.F.-Xe.J.l.+XF.l.I.v.J.+.[ t.Z.l.&.N.l.&.g.`.t.N.+XZ.a.I.).F.`.a.t.I.;.J.~.Y.;.Y.+.Z.Z.e.~.I.J.rXF.I.`.e.{.  z ",
"    7.v.+Xv.7.J.' Y.3.~.+XY.3.`.N.Y.Y.t.[ 3.v.I.N.a.J.N.N.g.F.l.a.v.I.).v.N.+XN.+.<.7.Y.l.`.+Xv.+.-XN.N.~.N.Z.v.;.l.Y.Y.).I.    ",
"  +.t.N.a.t.~.{.J.Y.v.N.I.+.l.Z.~.g.I.g.a.g.N.`.7.J.e.{.I...v.t.e.F.F.g.) t.I.F.).F.Y.l.;.F.N...Y.<.F.+.3.a.).e.l.3.).) 7.t.m   ",
"& & a.v.N.Z.t.~.N.$XN.' g.g.J.N.-XZ.a.a.Y.I.N.e.~.I.v.g.e.Z.<.<Xg.).Y.3.a.I.J.l.v.J.a.l.Z...I.t.g.a.`.).g.Z.`.I.a.`.I.Y.g.l.    ",
"z   Z.e.)...8X`.<.N.I.N.l.I.-X~.N.`.t.Z.J.Y.{.N.a.I.l.t.).;.v.N.Y.).;.I.+XF.e.v.F.I.N.l.v.g.l.<X).$Xt.7.~.~.-XI.a.tXl.oXN.3.  H ",
"  ' t.N.oXZ.a.Y.).F.`.a.t.I.;.J.~.Y.<.Y.+.Z.Z.e.~.I.J.rXJ.I.`.e.oXl.J.`.F.l.).I.N.Z.~.).Y.l.g.;.<.N.v.e.3.g.Z.~.I.v.F.v.g.Z.  t.",
"    <.`.e.F.`.F.N.t.t.N.l.&.l.Y.v.{.N.N.N.N.7.N.I.e.N.I.~.Z.a.F.3.l.I.~.l.J.l.t.J.~.4XI 3.Y.W ~.J.7.).Z.;.Z.J.l.`.Z.l.v.&.J.  : ",
"4 8 3.l.`.t.3.Z.t.{.~.l.~.).N.`.l.a.<.7.F.`.v.~.3.J.Y.l.).v.I.v.<.l.`.e.8Xv.a.t.I.l.' a.g.N.<.+Xg.~.3.t.Y.v.l.e.l.7.e.+.~.g.Y : ",
"    v.`.{.$X3.7.3.Z.-XZ.l.N.+Xe.v.Y.oXa.7.Z.e.v.{.g.e.Y.Y.Z.t.Z.t.N...<.7.a.F.t.l.[ {.7.l.e.Z.).F.Y.v.F.3.Y.Y.g.e.F.e.g.g.a.c   ",
"  z <.g.g.g.Z.F.N.$X+.<X`.<.-XY.F.F.J.`.l.e.N.N.+.v.a.t.).Y.~.I...l.e.F.Z.J.`.Z.D I.v.g.F.v.Y.l.g.7.oXe.).a.{.a.F.+.l.&.Y.J.  a ",
"[   I.e.a.J.).J.Y g.I.e.t.<.a.I.).F.g.Y.N.~.N.3.v.J.l.Z...F.;.`.t.Z.N.g.F.e.Y.F.a.Y.N.J.Z.g.$XJ.J.).+XY.Y.Z.J.F.g.F.<XY.g.v.3.3.",
": m <.`.$X7.+XZ.~.~.`.a.v.g.W e.3.l.g.3.Z.e.a.Z.v.).Z.<X3.N.3.l.J.N.Z.{.+XY.g.).Z.t.F.W a.<.~.N.F.{.N.F.3.I.a.).Z.`.4XJ.<.e.m 8 ",
"  & a.<.Y.v.Y.J.N.g.a.Y.v.Z.l.J.~.e.g.N.l.I.).Z.+.7.F.3.g.F.a.Y.v.I.Z.I.~.D `.<.l.F.l.a.~.g.).Y.Y.N.I.).Y.N.N.v.N.a.{.~.t.).  u ",
"+.z J.l.N.t.g.).J.v.Z.J.J.a.e.&.I.v.).I.Y.Z.I.t.g.v.v.v.3.N.F.t.N.7.e.7.t.3.e.g.~.l.F.oXl.oX7.Y.7.Z.3.+Xl.a.t.`.e.F.l.Y.<.g.  m ",
"W 7.7.+XZ.~.).`.a.v.g.W e.3.l.g.3.N.e.a.F.v.).Z.<X3.Z.3.g.J.N.Z.{.+XY.a.).Z.t.J.W a.<.~.N.F.`.N.F.3.I.a.~.Z.).4XJ.;.e.I.Z.{.z ..",
"g @ [ I.).g.v.a.<XJ.Z.v.t.F.N.a.~.F.l.N.;.F.e.v.Y.v.g...Z ).v.oXF.~.t.).t.~.t.$Xe.a.Y.l.`.J.&...Y.N.v.7.;.g.Y.).g.F.).t.N.) :   ",
"  D & D z >     D @ 4   a H     >   Z Y 8     u     u   H @ c 8 m I   [     u     I   ) Z Z : c W H 4 > & :   ..Y   W   u     @ ",
"  4     ' g D     [ 4         D g     Z   z     z   w 8 8       ) >   z > > g > 4   z   c   ..m a I   &.c   > +.Y g @ Y Z ..Z   ",
"  w     H w   g ;.u   w 4     D g   >   m     ) D H ) m   D ) H 8 )     I c I 8 ;.  &.m       z   : a.&     ..    : u &   ) ) 8 ",
"c   a     W 8   a       +.    D 4 g     z         g ' D w @ w u @ a a a @ D 8   D : a g   & u :   '     u     z       g.g.  ) m "
};
