/* XPM */
static char *a82ed1eff1564c33e7f918c97ea78f5dal8vMsKaNvRNP8oV[] = {
/* columns rows colors chars-per-pixel */
"64 64 184 2 ",
"   c #000001",
".  c #140D1A",
"X  c #191917",
"o  c #17181A",
"O  c #1D1D1D",
"+  c #201C1B",
"@  c #1F211E",
"#  c #21211E",
"$  c #1F1E21",
"%  c #1E1528",
"&  c #211F20",
"*  c #26192F",
"=  c #22162A",
"-  c #2A1C35",
";  c #271D38",
":  c #291E35",
">  c #301D39",
",  c #1F2122",
"<  c #242424",
"1  c #292626",
"2  c #262825",
"3  c #292927",
"4  c #262628",
"5  c #29272A",
"6  c #272929",
"7  c #2B2B2B",
"8  c #302E2F",
"9  c #2E302F",
"0  c #31312F",
"q  c #2F2E30",
"w  c #2E203B",
"e  c #312F30",
"r  c #31213D",
"t  c #2F3132",
"y  c #333434",
"u  c #383636",
"i  c #363837",
"p  c #393936",
"a  c #363639",
"s  c #393738",
"d  c #373939",
"f  c #3C3C3C",
"g  c #403E3F",
"h  c #3E403F",
"j  c #41413E",
"k  c #342443",
"l  c #3A2946",
"z  c #3D2B4C",
"x  c #392649",
"c  c #3E3E41",
"v  c #3E2950",
"b  c #422E4E",
"n  c #413F41",
"m  c #422E52",
"M  c #443155",
"N  c #46335A",
"B  c #4B355C",
"V  c #4C395D",
"C  c #483256",
"Z  c #50375F",
"A  c #4D3661",
"S  c #4E3963",
"D  c #4E3869",
"F  c #453460",
"G  c #523666",
"H  c #523A65",
"J  c #553C6B",
"K  c #593E6D",
"L  c #4A3475",
"P  c #543C72",
"I  c #5A3E71",
"U  c #563C7D",
"Y  c #593D78",
"T  c #3F4140",
"R  c #434343",
"E  c #484646",
"W  c #474946",
"Q  c #494947",
"!  c #464648",
"~  c #494749",
"^  c #474949",
"/  c #4B4B4B",
"(  c #504F4E",
")  c #4E504E",
"_  c #50504E",
"`  c #4F4F51",
"'  c #514F51",
"]  c #535353",
"[  c #575853",
"{  c #595956",
"}  c #565658",
"|  c #5B5B5B",
" . c #59575A",
".. c #56406D",
"X. c #5A416E",
"o. c #574173",
"O. c #5C4273",
"+. c #5D437A",
"@. c #614576",
"#. c #62467B",
"$. c #68477E",
"%. c #65497D",
"&. c #694A7E",
"*. c #5F6160",
"=. c #593887",
"-. c #5C3D8A",
";. c #593688",
":. c #5D4384",
">. c #634682",
",. c #664A82",
"<. c #6A4C84",
"1. c #63448C",
"2. c #664B8B",
"3. c #6C4D8A",
"4. c #69458D",
"5. c #704E87",
"6. c #714F8C",
"7. c #6E5086",
"8. c #6E508B",
"9. c #72528D",
"0. c #674592",
"q. c #694694",
"w. c #674896",
"e. c #6D4C94",
"r. c #6A4698",
"t. c #6E4D98",
"y. c #714D95",
"u. c #724D9A",
"i. c #6F5095",
"p. c #745493",
"a. c #795695",
"s. c #775895",
"d. c #7A5996",
"f. c #75529B",
"g. c #7A559C",
"h. c #7D5A9B",
"j. c #7653A1",
"k. c #7B56A2",
"l. c #7D59A2",
"z. c #7E5CA8",
"x. c #825C9D",
"c. c #84609E",
"v. c #835DA4",
"b. c #885EA5",
"n. c #845EA9",
"m. c #885FAC",
"M. c #8057A3",
"N. c #8661A4",
"B. c #8A62A5",
"V. c #8762AB",
"C. c #8C64AB",
"Z. c #8E69AC",
"A. c #9166AD",
"S. c #9269AD",
"D. c #996FAE",
"F. c #8D66B0",
"G. c #8E68B2",
"H. c #9066B1",
"J. c #9269B2",
"K. c #946CB3",
"L. c #966DB6",
"P. c #946CB2",
"I. c #996EB4",
"U. c #946EB9",
"Y. c #9B6FBC",
"T. c #9772B7",
"R. c #9B71B6",
"E. c #9D73BA",
"W. c #9B77BB",
"Q. c #A174B7",
"!. c #A276BB",
"~. c #A279BE",
"^. c #A479BD",
"/. c #A97ABE",
"(. c #A876BD",
"). c #A57BC1",
"_. c #AB7DC3",
"`. c #A377C2",
"'. c #AC82C4",
"]. c #AE84CB",
"[. c #B182C5",
"{. c #B286C9",
"}. c #B489CB",
"|. c #BA8DD0",
/* pixels */
"] f / R ' p R y / } ] R / R f | u } ] Q Q f R } c Q j f ] } / _ E E / y E Q ] R ` R R R Q } f / n [ / y R R c / / R 8 g / / } Q ",
"] ( / Q / c E E E E f ^ Q R E f f f R f f R ] R / { R  .f ] f / f | R R c } f / R / p R y _ } ] E Q R f | y | ] / Q f R | f E T ",
"] R E Q c / p / s ] ] ] E u f R Q y p ( Q j Q Q E / } } R 0 / f R j Q 7 ] Q p / ! } R f p / / f E Q ] Q R R ] ] | ` Q y / R Q f ",
"/ Q y f d j E / | / / E } f E E R E } _ E a } { | R R R f R c / | / ] ` R | Q y W ] Q f E | R R { f f s ] Q Q c R / } R / ' c / ",
"E R R g R f c } } / E ` _ / ) Q / / } E R } ) c R j R n E E f Q ` / R Q R R y E Q R Q R R | ] g ( } ( / ] ~ 7 / *./ y / Q ] p f ",
"{ ` ] R c T.L.L.V.).~.0.~.A.`.n.C.J.m.E.J.t.v.J.u.E.V.k.V.K.S.F.n.L.J.n.A.].M.k.v.j.V.L.n.V.C.~.-.E.~.J.}.n.)./.L.r.] T a / 0 | ",
"d E f ] / J.R.E.R.f.l.~.|.C.n.L.k.M.].C.G.J.n.u.M.u.T.).g.C.k.'.n.C.M.v.S.E.l.U.K.U.f.K.C.n.f.F.k.^.C.F.C.L.n.'.j.l.} j ] y ] ] ",
"f ] ~ f ) V.C.n.F.l.U.R.u.E.n.u.u.g.'.{.R.L.n.l.n.~.E.J.v.k.G.g.n.C.J.C.~.L.V.v.V.V.C.L.v.0.m.E.R.K.L.}.n.W.C.n.J.C.E / R f j R ",
"R ] / t j G.u.E.V.k.V.J.H.V.v.L.H.n.C.{.k.k.k.f.N.L.v.V.C.E.=.E.^.J.{.n./.).L.q.!.v.u.P.w.).f.V.{.F.L.'.R.F.j.v.g.!.y ] R R E ] ",
"E / } T f A.k.V.).M.l.R.L.C.l.F.l.C.t.g.g.z.J.l.V.r.).k.n.k.G.!.J.R.V.J.j.L.R.n.l.G.l.n.n.n.L.k.n.L.n.S.).n.k.H.F.n.! R p R / p ",
"Q / E j E !.g.n.V.V.R.y.K.E.J.C.n.v.!.f.V.v.f.R.V.R.K.C.v.v.R.V.C.n.G.R.g.n.C.n.L.Q.C.y.g.S.j.n.S.v.I.V.U.A.L.E.=.!.p R Q R R ] ",
"| / ] / R '.C.w.V.R.F.k.C.[.n.n./.k.k.u.E.C.G.k.n.J.^.l.F.U.l.K.g.I.k./.E.n.F.n.H.J.K.C.I.j.P.V.R.L.E.P.C.H.C.v.C.f./ E R f R f ",
"c f R p ` l./.}.v.E.}.J.C.E.f.K.K.v.u.l.L.R.v.n.g.v.'.v.n.l.L.J.L.v.l.0.z.R.R.V.V.G.f.S.t.v.V.V.n.J.V.V./.n.v.f.q.!./ E f ^ p Q ",
"^ R E i y y.!.C.v.P.V.C.S.C.V.v.J.g.K.l.!.I.J.E.f.).L.l.C./.E.J.V.E.L./.L.v.L.n.n.u.g.V.k.V.A.E.k.P.f.L.t.l.E.g.!.L./ / / E y } ",
"R p / R R J.M./.f.g.K.E.J.R.R.E.1.M.C.S.C.V.M.K.t.u.q.^.l.f.C.B.0.g.-.t.J.n.n.S.~.F.n.C.V.J.~.-.C.v.g.w.v.L.k.y.U.!.y Q _ E } / ",
"R ) Q y f C.w.L.n.f.n.C.C.B.l.J.V.l.C.'.g.f.g.u.v.S.k.n.V.R.;.R.!.A.[.M.!.!.J.1.E.l.w.C.0./.f.N.[.C.K._.P.C.t.l.f.E.y / R R E ] ",
"Q Q R / E v.M._.N.e.E./.J.M.C.l.n.C.v.e.L.S.k.V.J.v.v.C.k.n.k./.e.g.f.v.J.t.J.v.Z.!.v.l.g.N.N.V._.{.C.A.Z.g.f.N.v.y.` 5 f ^ R / ",
"R E | Q T Z.h.e.!.t.t.V.f.n.e.g.E.l.A.g.B.B.C.V.n.V.g.h.K.I.K.p.n.f.P.b.g.l.K.J.1.f.g.C.v.y.N.B.g.E.f.k.k.E.J.k.^.R.] j u / R y ",
"| | R _ / g.1.M.B.I.E.n.[.f./.E.).v.P.g.C.^.1.C.A.R.C.A.R.u.C.u.S.f.-.N.C.C.l.S.V.v.E.N.f.h.y.f.u.E.f.C.E.C.n.k.g.N.R y R / R ] ",
"E t Q R f B.R.f.k.l.f.v.^.v.f.C.1.K.y.K.^.S.p.E.N.K.L.g.1.i.n.J.b.g.C.N.n.M.C.M.h.v.A.L.v.n.(.n.4.e.p.P.M.R./.v.3._.E R / R E T ",
"E g R Q R e.l.V.e.g.I.1.A.F.Q.K.4.-.N.V.C.p.V.:.L.g.E.g.C.e.Z.p.N.B.e.y.0.h.4.K.N.L.V.M.M.L.^.v.n._.K.n.l.l.g.C.f.g.f R ] / R y ",
"Q W R s p p.N.2.E.:.S.t.C.!.y.n.p.S.v.v.P.g.n.J.I.v.x.g.M.v.V.f.K.v./.v.:.g.h.C.v.).B.h.g.P.C.v.p.I.C.M.h.p.N.e._.g./ Q i f Q E ",
"] / f R f N.C.Z.n.A.p.C.h.P.J.K.C.N.N.n.l.n.t.C.M.h.p.l.3.<.N K %.e.e.I.C.<.A 9.9.a.v.C.J.x.s.d.J h.Z.h.p.V.R.n.C.B./ } R } E R ",
"R / Q ( Q g.A.g.s.3.p.l.p.                      x.C.S.S.O.        <.h.g.S.k         p.S.R.K         G J.p.g.g.3.x.:.} 8 f y ] E ",
"Q R E R E S.L L.3.h.N.h.s.                      <.M.s.R.O.        O.p.h.3.-         v.g.U 7.        N R.S.g.g./.n.Z.R E Q E ] 7 ",
"} R 8 f / g.:.M.N.h.3.K.I.        . m I z O.O.A h.S.U h.#.        K v.K.v.r         e.K.S.J         N e.p.v.2.N.V.s.~ E E R p y ",
"R E R ] y /.K.2./.C.v.v.B.        r :.h.p.p.S.C.S.B.:.g.C         <.L B.h.>         g.e.R.X.        H :.g.>.C.B.h.N.T 7 E f p R ",
"d p Q / R C.h.h.B.:.h.x.A.        - l.K.3.B.i.D.N.:.h.p.C         O.V.b.S.k         x.+.C.J         O.3.g.3.S.U 6.3.R s R E p d ",
"Q E R R E s.x.3.S.:._.K.2.        k !.A.h.P.p.x.N.C.D.h.C         H h.h.C.x         8.h.N.9.        A /.S.E.p.3.C.S.] E s | f / ",
"u T 3 Q s K.p.v.>.N.3.h.h.        * C.h.C.x.d.s.A.I.d.h.,.        O.v.3.8.-         2.B.h.,.        l h.3.C.p.x.E.s.e R R y Q Q ",
"Q / f } y I.S.K.p.B.8.x.S.        w N.Z.3.h.2.B.3.P d.x.G         d.h.3.9.*         x.J.x.%.        z p.B.h.K.h.h.h.f y f R y c ",
"R R p h y A.+./.A.>.h.N.h.        > S.3.h.v.N.S.d.3.v.p.M         3.C.#.B.v         N.g.p.#.        #.3.<.B.A.!.N.3.| f Q f y y ",
"f y R E 8 N.8.+.+.>.I.!.N.                  d.>.y.d.x.s.K         #.d.c.3.%         n.(.p.a.        N v.p.<.8.3.#.9.y y R f p R ",
"y p R 4 E 3.d.d.x.N.+.>.>.                  <.h.<.<.2.>.@.        @.<.9.+.-         3.x.x...        C 3.9.c.S.s.h.3.f y y E y d ",
"f Q y f f 3.9.A.N.p.+.C.S.        . m m G +.h.N.h.3.L.s.r         #.R.9.8.k         d.d.<.O.        H <.v.,.x.,.A.B.f f p f R R ",
"p f T E Q N.d.s.a.L.<.o.#.        - C.s.>.v.3.p.<.d.R.h.J         B P.9.B.w         C.+.3.S         C 8.p.B.+.p.6.s.R p p f f R ",
"y E y f y p.p.s.p.9.a.2.<.        - >.h.9.,.3.x.h.P #.,.I - .     H N.>.,.-         N.B.3.A     . - H h.D x.2.d.p.s.R 7 y 8 3 y ",
"s y f 7 4 c.#.s.%.8.h.p.+.        - %.3.N.h.8.p.g.s.,.%.o.h.C     <.a.h.%.:         9.d.,.O.    z 2.#.#.3.x.3.s.C.3.Q y R y p y ",
"p y h f 0 Y <.p.h.L.9.<.p.        w 3.p.6.6.6.C.C.J 9.x.h.o.B     J p.,.8.=         O.8.8.r     H 3.9.d.<.v.s.J 2.p.3 R y y p f ",
"f p p y p p.p.2.<.<.,.%.,.        w 6.h.h.d.s.9.p.a.v.3.<.B.s.#.O.        ; #.9.h.B         M 6.9.<.p.<.<.P.x.%.h.x.f p R p 4 f ",
"3 0 y f 3 I s.9.%.p.9.3.p.        r O.%.,.8.F d.p.O.d.<.N.<.@.o.%.        r 9.,.<.G         C p.<.p.O.9.<.O.O.a.x.g.y y d p f y ",
"y f p 4 f 6.I 9.<.A h.Y.a.                      s.O.#.@.J d.<.<.3.<.X.A K A a.O.@.O.6.H @.B 8.<.O.#.%.8.3.l.9.C.@.p.y E f y f u ",
"i c y y f V.g.,.%.9.I 6.x.                      H @.<.,.9.<.+.N.%.S K d.<.p.8.9.s.O.a.9.<.O.<.v.8.9.a.<.9.6.<.<.,.#.y y y y 3 y ",
"7 p f y j C.a.3.d.S 6.9.s.H k l A z l v C I z H X.#.h.h.9.#.d.K C a.<.%.9.<.d.<.@.p.p.K g.@.%.,.d.p.8.n.O.&.N.9.9.O.7 y 3 f 9 j ",
"t y p 7 y <.%.K 9.$.@.9.#.n.J O.9.d.9.d.s.h.N O.3.7.<.,.+.9.S J Z x.O...<.,.N X.m H 9.#.,.3.M.3.%.<.,.3.x.m 6.#.O.B y f 7 3 p f ",
"f y R y y 9.O.<.#.+.O.3.,.&.9.g.l.p.<.<.<.N.O.V K ,.J N #.#.h.<.K p.O.,.O.<.V.8.p.<.@.B.B H v.%.p.<.K h.K O.h.H @.J 7 Q f f y y ",
"9 < 7 7 y O.J ,.I O.&.%.p.,.m.J %.J +.3.,.<.g.x.9.O.s.,.O.<.M O.H 9.#.<.g.,.<.J 9.O.p.,.d.V.<.H K 8.&.h.<.h.,.J g.,.p 7 y o y y ",
"y 7 p y 0 9.O.%.6.9.#.#.O.@.%.,.K 9.%.M.%.M @.O.<.,.v.%.O.X.8.3.%.J p.<.#.O.J ,.H n.O.9.6.H O.3.<.O.#.<.O.@.,.N 3.I 7 7 f p 9 y ",
"y 7 y 7 4 p.S H #.H #.B K p.X.2.J %.#.&.#.@.#.J K <.8.3.H O.H <.#.J X.3.<.m H J ,.O.S #.%.J p.H K K p.<.K d.9.p.X.H y 7 4 7 y y ",
"q E 7 y 4 <.C <.O.&.2.H <.#.<.X.@.O.J I <.O.H 3.,.O.<.%.O.O.h.#.B 9.h.<.O.%.I O.%.O.B 8.&.K #.<.O.O.%.K O.K h.B H H y y 5 y 7 y ",
"3 p 4 p 8 O.O.8.O.J S I #.9.O.H <.K 9.X.2.<.O.O.O.<.O.z %.%.M 7.M H %.p.9.B p.V %.h.K <.O.#.#.8.s.O.a.5.K @.a.J H O.y 4 y y 7 y ",
"d 8 O y q K #.O.,.K K H 9.H 7.J 9.K #.M K C <.%.X.%.O.M %.O.J @.3.S J ..H O.p.O.H #.b <.B 3.p.<.S 8.O.<.<.K b S O.%.y 3 y 7 y 3 ",
"0 7 7 0 7 7.O.<.K J O.S h.H O.B K O.O.X.K X.J A 8.X.@.O.<.O.d.J O.s.@.K #.J N 9.B B O.B O.C H 7.J @.H O.O.#.@.O.O.H 3 y y y 4 7 ",
"4 e y 3 y #.O.I H A H O.M 3.z %.N %.8.B O.S &.X.K ,.H X.%.<.O.I H ..O.O.H ,.X.p.O.z J J #.O.p.O.J H %.#.O.S <.#.K J 3 7 4 f 3 y ",
"7 4 2 y 4 J H O.O.H I X.J <.O.M z J B H ..z N @.O.H #.O.K #.M O.O.C ,.O.A 6.S %.O.9.J J 3.%.X.H <.K S K K J H O.O.K u 4 4 f y 4 ",
"y 3 y 7 3 O.l Z C #.J O.,.K X.N @.S ,.X.,.s.O.C B #.K <.O.,.I B ,.O.%.A J w O.H C C X.<.A C C @.%.#.H S C O.C H 8.#.3 7 3 3 7 4 ",
"y 4 p 4 7 M J m K O.N %.H S K m l #.N O.A H O.K C <.O.O.H J B S #.+.H ..O.O.A B m O.J %.O.@.K O.B H J J J C K O.B J < < 4 4 < 4 ",
"4 y 7 7 y M ,.O.A J ,.@.O.H O.O.%.@.S O.V V m N H B J J +.N O.C O.b B #.N #.O.O.o.O.H m %.K J H B O.X.8.H O.,.B O.%.# 3 O 7 < 3 ",
"7 7 < $ 5 V J ..B s.z H O.o.K K X.S J N #.z 9.#.b H O.J H O.3.O.H +.B J K O.#.H B O.S B O.m H H O.+.m O.,.K N H K O.7 3 3 4 2 a ",
"3 4 7 < 4 y 4 7 3 < O 4 O 7 y < 2 < y < 4 < < 3 9 < 7 3 3 < 7 3 4 < 6 < y 3 3 3 3 4 y < < y 4 7 O 7 y 7 y 0 3 @ 7 1 < 7 < u < 3 ",
"4 3 4 4 y 7 # 7 8 7 3 7 3 X 7 y 7 O 5 3 8 , < 7 7 3 # < 4 < 7 7 3 7 7 7 # < 7 p 3 < 7 < < y 3 3 3 4 O < O 7 y < 4 # y < 4 < 4 3 ",
"< < 3 7 3 o 4 3 < < , 4 7 7 3 < 7 4 7 4 < 4 3 4 5 O 3 $ 7 < 3 4 < 3 < 7 3 4 7 4 3 3 < y 3 7 7 0 7 7 2 3 7 < 6 y 7 4 4 y y < 3 3 ",
"1 4 o 7 y 3 o + < 2 7 3 < q y 4 4 y @ < < O 7 < 4 3 7 < < < O 3 < # < 7 4 2 < 3 5 @ 4 < 2 4 7 3 y < 3 4 y 3 4 3 < 3 O o < 4 4 O ",
"< 7 < 3 & 2 , y 4 < < 7 < 3 4 3 O 4 O 7 q 7 4 3 4 # y $ q 7 4 4 O 4 7 < 4 < < 7 7 3 7 4 4 3 O < 3 7 4 7 # < < 4 7 @ 5 < 7 3 O 4 "
};
