/* XPM */
static char *_a86e53772c548f9ab3b237f1d58e780QNjuRSid0LL0AhmB[] = {
/* columns rows colors chars-per-pixel */
"64 64 215 2 ",
"   c black",
".  c #010101",
"X  c #020202",
"o  c gray1",
"O  c #040404",
"+  c gray2",
"@  c #060606",
"#  c #070707",
"$  c gray3",
"%  c #090909",
"&  c gray4",
"*  c #0B0B0B",
"=  c #0C0C0C",
"-  c gray5",
";  c #0E0E0E",
":  c gray6",
">  c #101010",
",  c #111111",
"<  c gray7",
"1  c #131313",
"2  c gray8",
"3  c #151515",
"4  c #161616",
"5  c gray9",
"6  c #181818",
"7  c #191919",
"8  c gray10",
"9  c #1B1B1B",
"0  c gray11",
"q  c #1D1D1D",
"w  c #1E1E1E",
"e  c gray12",
"r  c #202020",
"t  c gray13",
"y  c #222222",
"u  c gray14",
"i  c #252525",
"p  c gray15",
"a  c #272727",
"s  c #282828",
"d  c gray16",
"f  c #2A2A2A",
"g  c gray17",
"h  c #2C2C2C",
"j  c #2D2D2D",
"k  c gray18",
"l  c #2F2F2F",
"z  c gray19",
"x  c #313131",
"c  c #323232",
"v  c gray20",
"b  c #343434",
"n  c #353535",
"m  c gray21",
"M  c #373737",
"N  c gray22",
"B  c #393939",
"V  c #3A3A3A",
"C  c gray23",
"Z  c #3C3C3C",
"A  c gray24",
"S  c #3E3E3E",
"D  c #3F3F3F",
"F  c gray25",
"G  c #414141",
"H  c gray26",
"J  c #434343",
"K  c #444444",
"L  c gray27",
"P  c #464646",
"I  c gray28",
"U  c #484848",
"Y  c gray29",
"T  c #4B4B4B",
"R  c #4C4C4C",
"E  c #4E4E4E",
"W  c gray31",
"Q  c #505050",
"!  c #515151",
"~  c gray32",
"^  c #535353",
"/  c gray33",
"(  c #555555",
")  c #565656",
"_  c gray34",
"`  c #585858",
"'  c gray35",
"]  c #5A5A5A",
"[  c #5B5B5B",
"{  c gray36",
"}  c #5D5D5D",
"|  c gray37",
" . c #5F5F5F",
".. c #606060",
"X. c gray38",
"o. c #626262",
"O. c gray39",
"+. c #646464",
"@. c #656565",
"#. c gray40",
"$. c #676767",
"%. c #686868",
"&. c DimGray",
"*. c #6A6A6A",
"=. c gray42",
"-. c #6C6C6C",
";. c #6D6D6D",
":. c gray43",
">. c #6F6F6F",
",. c gray44",
"<. c #717171",
"1. c #727272",
"2. c gray45",
"3. c #747474",
"4. c gray46",
"5. c #767676",
"6. c #777777",
"7. c gray47",
"8. c #797979",
"9. c gray48",
"0. c #7B7B7B",
"q. c #7C7C7C",
"w. c gray49",
"e. c #7E7E7E",
"r. c gray50",
"t. c #808080",
"y. c #818181",
"u. c gray51",
"i. c #838383",
"p. c #848484",
"a. c gray52",
"s. c #868686",
"d. c gray53",
"f. c #888888",
"g. c #898989",
"h. c gray54",
"j. c #8B8B8B",
"k. c gray55",
"l. c #8D8D8D",
"z. c #8E8E8E",
"x. c gray56",
"c. c #909090",
"v. c gray57",
"b. c #929292",
"n. c #939393",
"m. c gray58",
"M. c #959595",
"N. c gray59",
"B. c #979797",
"V. c #989898",
"C. c gray60",
"Z. c #9A9A9A",
"A. c #9B9B9B",
"S. c gray61",
"D. c #9D9D9D",
"F. c gray62",
"G. c #9F9F9F",
"H. c #A0A0A0",
"J. c gray63",
"K. c #A2A2A2",
"L. c gray64",
"P. c #A4A4A4",
"I. c #A5A5A5",
"U. c gray65",
"Y. c #A7A7A7",
"T. c gray66",
"R. c #A9A9A9",
"E. c #AAAAAA",
"W. c gray67",
"Q. c #ACACAC",
"!. c gray68",
"~. c #AEAEAE",
"^. c #AFAFAF",
"/. c gray69",
"(. c #B1B1B1",
"). c #B2B2B2",
"_. c gray70",
"`. c #B4B4B4",
"'. c gray71",
"]. c #B6B6B6",
"[. c #B7B7B7",
"{. c gray72",
"}. c #B9B9B9",
"|. c gray73",
" X c #BBBBBB",
".X c #BCBCBC",
"XX c gray74",
"oX c gray",
"OX c gray75",
"+X c #C0C0C0",
"@X c #C1C1C1",
"#X c gray76",
"$X c #C3C3C3",
"%X c gray77",
"&X c #C5C5C5",
"*X c #C6C6C6",
"=X c gray78",
"-X c #C8C8C8",
";X c gray79",
":X c #CACACA",
">X c #CBCBCB",
",X c gray80",
"<X c #CDCDCD",
"1X c #CECECE",
"2X c gray81",
"3X c #D0D0D0",
"4X c gray82",
"5X c #D2D2D2",
"6X c #D7D7D7",
"7X c #D8D8D8",
"8X c gray85",
"9X c gray86",
"0X c #DDDDDD",
"qX c #DFDFDF",
"wX c #E2E2E2",
/* pixels */
"0 h > * 0 8 S F = ) L     h   g p   g + F O.  0.  0   =   8 p   )     4     R   g   + m 8   %.h h   *     R c + 0 g h       m * ",
"g m           F F   0 L >     p         ,.    * Q +           p F 0   c h   p + r L       V O.4 p   4     R       p p   4 >   | ",
"  +.  S   0   ,.      Q   p   m       m ) L   0     %.  O.L 0 >     O.  =     L | h S + * c   + 8 L   m       > )   g   O.c   + ",
"r   S     + r 8 *   h 8   4 t.          g   + > Q   U ) p l.  O.| h   Q     g   %.  * h.8 m r.V 4       )   U     + ) =       8 ",
"Q V m.P.m.R L.:XG.+.Z.c.Q.-.r.P.P.c.,.%.h.0.P.L.m.P.R.P.-.0.Q.5Xc.t.L.6.r.+Xc.m.Z.p.O.r.+.P.{.-.l.6.XXp.l.r.t.Z.R.r.G.G.G.%.h = ",
"m   h.c.m.G.h.p.l.l.r.l.p.R.l.Z.(.Z.L.(.c.P.t.m.{.Q 6.p.R.l.G.p.{.7Xm.R.P.Q.G.m.p.m.L.c.%.p.m.%.0.Q.[ G.G.(.P.| Q m.m.G.0.c.  U ",
"h   +XZ.h.P.l.G.O.[ t.m.h.+.c.h.+.p.(.r.c.XXm.t.P.Q.Z.(.p.r.L.%.G.R.P.-.P.O.m.m.0.R.L.G.7XG.L.(.0.[.h.G.[.G.h.Q.L.c.m.Q.Q.P.    ",
"    c.p.h.O.p.%.Z.l.m.+.G.R.%.h.L.-.L.t.l.Z.r.Z.c.h.,.G.h.p.G.p.XX-.0.L.(.G.R.R.(.) t.m.Z.m.c.t.L.+.+.| [.r.-.m.c.) 6.L +.G.    ",
"    h.%.L.r.[.5Xt.Q.1XZ.c.(.-.G.L.t.-.r.P.Q.p.h.,.t.+Xp.h.r.P.Z.L.t.0.[ t.R.P.l.c.Z.-.G.O.p.c.c.h.G.c.l.{.p.p.-.[ (.P.c.r.m.  r ",
"    P.6.%.P.(.+.G.Q.m.[.L.p.(.c.P.0.(.,.L.L.Z.L.R.G.m.Z.r.c.Z.G.t.h.h.p.0.t.6.0.(.[.L.c.P.P.L.L.m.Z.G.(.l.h.[.L.r.h.t.p.r.l.>   ",
"    6XQ.P.h.h.l.(.%.c.h.Z.G.c.c.m.m.P.P.c.(.R.p.t.G.p.G.Z.O.G.l.R.[.,.+X6.m.+.c.O.m.G.6.(.h.t.m.+.R Q.-.G.r.l.L.m.-.XXG.G.h.*   ",
"0 R 6.c.m Z.p.-.-.m.{.0.%.-.G.Q.L.h.t.%.Z.,.h.XXL.p.Z.p.l.L.,.P.[.6.Z.h.{.-.t.=X+.h.Z.R.) 6.6.G.c.p.t.Q.L.:X{.0.+X(.h.l.p.0.    ",
"    t.(.Q.p.m.(.L.p.(.L.P.p.h.%.h.Z.h.t.G.Z.) Z.m.-.m.l.Q (.7XP.| +.p.m.L.P.h.(.1Xp.m.=X0.0.r.O.P.c.c.Z.Q.l.0.h.-.G.,.0.h.{.  r ",
"  F p.+.t.l.L.Q P.r.Z.c.G.L.%.,.-.[ p.P.R.r.Z.R.c.[ r.Z.0.0.6.%.XX,.[ l.(.l.0.h.O.p.p.G.P.Z.t.L.G.r.Z.l.Z.R.p.t.p.P.[.m.G.t.4   ",
"    L.%.L.p.G.{.h.p.0.l.l.m.+X5XZ.Z.Z.0.,.l.h.-.R.L t.Z.l.P.6.r.c.G.G.c.m.0.P.l.(.p.Z.L.h.0.:Xr.Z.G.Z.P.c.r.Q.XXR.p.p.Z.,.m.[   ",
"  V +.Z.L.t.G.=Xt.6.{.t.l.L.+.6.h.c.l.P.r.Z.L.c.P.{.(.p.G.,.0.6.Z.R.h.p.c.l.(.l.L.P.[.6.Z.r.| R.G.h.m.6.6.(.G.P.-.6.(.c.-.h.    ",
"m > t.G.c.c.p.Z.h.t.c.L.Q.l.c.XXc.O.-.6.P.l.Q.XXl.+.=Xc.l.R.c.m.l.%.h.P.P.Q.L.t.t.Z.l.-.(.Q.R.p.R.Z.p.h.c.G.{.c.c.t.G.m.O.0.    ",
"    L.R.P.6.l.6.L.c.0.h.P.L.) ,.0.G.h.-.l.Z.0.(.6.t.r.(.L.r.{.Q.(.p.-.R.p.+.t.l.L.Q P.r.Z.c.G.L.%.,.-.[ h.P.P.r.Z.R.c.[ r.G.    ",
"    m.-.:Xt.Q.P.,.t.L.Z.h.h.G.t.h.m.| L.r.p.t.(.(.p.m.(.L.t.(.L.P.p.l.%.p.Z.h.t.G.Z.[ Z.m.-.m.l.Q (.7XP.| +.p.m.L.P.h.(.1Xh.8 p.",
"* %.0.0.1XR.0.=XP.p.{.p.(.m.m.,.h.(.r.,.m.0.[.R.p.Q.Q.c.(.h.t.-.6.Z.(.l.R.6.G.P.h.Q.l.L.l.-.h.(.6.5Xh.t.r.G.h.) t.h.c.-.XXp.U   ",
"m   Z.p.c.L.,.P.[.6.Z.l.[.-.p.=X+.h.Z.R.) 6.,.G.c.p.t.Q.L.:X{.0.+X(.h.l.p.0.%.0.p.P.m.m.R.r.R.l.m.p.c.Z.Z.0.c.,.Q.G.p.%.XX+.h * ",
"=   0.6.r.,.0.p.R.h.G.[.h.{.,.P.6.m.,.XXh.t.t.Q.0.Z.h.P.-.p.O.L.R.l.,.r.-.-.{.+.[.R.m.c.6.h.[.r.c.t.r.R.[.G.P.l.c.L.O.l.m.R.  m ",
"O.  l.| G.0.l.P.r.p.p.%.h.| =X[ t.O.XXZ.p.[.1Xl.c.t.Z.=XG.c.+.{.-.        [ m.c.XXm.(.-.L.t.Z.l.p.L.Z.L.G.G.P.c.p.%.R.m.l.6.Q = ",
"m 4 l.c.p.h.:XQ.+X0.6.R.R.=XL.t.wXh.{.c.,.0.P.h.P.{.c.G.G.l.0.G.h.        %.l.{.c.c.P.0.Z.l.p.0.G.l.c.L.Q.{.P.m.m.Z.+Xt.+.,.+   ",
"+   G.,.5X-.m.Z.Q.0.(.G.m.+Xt.l.G.l.G.c.6XG.c.[.L.-.-.0.%.[.)             g p.L.0.r.-.t.L.Q.Z.p.R.c.P.c.,.l.G.h.m.| G.-.(.r.8 = ",
"  -.p.c.r.t.Z.R.r.G.G.G.%.G.c.t.%.m.,.[.l.c.c.G.p.+X-.r.(.t.+.            O.-.R.l.h.G.,.5X-.m.Z.Q.r.(.G.Z.+Xp.l.Z.l.G.m.6XG.* O.",
"  + XXXXt.Z.G.6.+.l.c.m.Z.t.qX| l.P.L.G.Z.L.h.m.0.Q.O.5X+.g r +.R         [ (.t.m.G.P.[.c.t.L.h.r.Q.%.l.c.P.Q.%.L.XXZ.0.l.Z.m > ",
"g   [ t.m.h.+.c.h.+.h.(.0.c.XXm.t.P.Q.Z.(.t.r.L.%.G.R.P.p     m.r.        h.G.L.(.0.[.h.G.[.Z.h.Q.L.c.m.R.Q.P.l.h.+.-.m.l.0.    ",
"  h 0.[.L.| l.r.0.Z.Z.p.Q r.L.Z.Q.Z.P.h.%.Z.c.| P.-.O.V r c L 0.,.        R L.0.Z.L.h.r.c.m.P.0.R p.G.p.-.O.l.L.r.h.t.P.Z.p.* c.",
"    %.Q.m.Z.r.p.G.(.t.m.P.r.L.6.L.0.{.(.p.m.h.Z.Z.L.    g G.c.P.h.        | h.m.,.L.l.p.r.l.0.l.R -.t.0.,.(.L.t.[ G.Z.P.c.G.S r ",
"8   Z.Z.l.Z.(.Q.t.) P.-.t.p.m.R L.Z.,.G.l.[.l.0.-.L.    m c.R.m.%.        +.m.+.G.l.Z.6.Z.h.-.-.G.Q.P.t.h.c.c.L.h.p.l.l.t.l.  L ",
"    P.-.c.(.c.c.Q.P.%.XX6.(.P.+.t.c.c.Q.t.,.0.c.    Q %.l.L.G.c.+.        ,.) P.-.L.[.6.l.0.P.l.c.R.t.m.P.Q.c.l.t.l.c.m.r.R.= 0.",
">   XXp.Q.,.r.P.l.h.0.h.6.r.O.R.p.R.c.c.m.Z.%.0.    O.G.(.l.+.G.p.        [ [.h.c.(.R.=Xl.{.t.p.l.Q.P.t.P.m.Z.m.+.Q.G.-.,.r.  ,.",
"  r c.Q.-.r.P.P.c.,.%.h.0.P.L.m.P.R.P.-.0.(.5Xc.    8 h U V V V g         h p Q 6.XXp.l.0.t.Z.R.r.G.G.Z.-.G.c.p.+.m.,.[.c.c.> g ",
"0 0 m.L.P.l.h.t.p.Q.l.h.c.O.{.G.t.O.h.[.t.L.m.{.                              S r.0.h.t.m.r.c.c.%.[ P.l.,.L.l.R.t.G.h.+.t.Z.V   ",
"    %.p.0.0.Z.l.h.Z.c.[.c.Q.h.p.Z.6.1Xr.m.,.h.m.m m m m c g L m c         0 m 6.Z.h.G.t.+.(.-.-.c.,.l.O.r.(.h.Z.r.m.c.Z.c.l.4   ",
">   t.Z.0.0.6.%.XX,.| l.(.l.0.h.O.p.p.Z.R.Z.t.L.G.r.Z.h.G.R.p.r.,.        Q c.6.6.Q.6.p.p.Z.Z.t.m.c.p.[.Z.+.[ h.6.r.c.Q ,.L.h   ",
"p r p.m.=XR.p.l.XXXXt.Z.Z.6.+.l.l.m.Z.t.qX| l.P.G.Z.Z.L.h.c.0.Q.R         +.m.h.L.=XR.c.(.t.m.G.P.[.c.t.L.h.r.Q.%.l.c.P.Q.+.m 6.",
"  > h.+.p.(.0.c.XXm.t.P.Q.Z.(.t.r.L.%.G.Q.P.-.P.O.Z.m.0.R.L.G.7Xt.        ) G.[.Z.h.R.L.c.m.R.Q.P.h.p.%.-.m.l.0.,.h.m.Q.L.l.r + ",
"> 8 r.-.t.6.t.p.h.l.m.p.c.L.R.L.l.c.,.L.6.h.P.-.t.G.-.p.p.h.m.Z.6.        F =XP.Z.Z.L.(.h.r.c.c.O.l.t.r.Q.P.R.L.| h.0.Z.m.G.) 8 ",
"m   (.L.P.p.h.%.p.Z.h.t.G.m.[ Z.m.-.m.l.Q (.6XP.| +.p.m.L.P.h.(.R.        U r.O.P.c.c.Z.Q.l.0.l.-.L.,.0.h.{.t.Z.,.G.m.,.t.t.8 = ",
"    l.Z.Z.p.G.m.h.[.c.,.t.-.6.-.(.0.Z.(.Z.c.r.0.c.h.+.h.P.l.[.c.0.        +.0.c.L.R.m.p.Z.6.h.L.R.h.G.p.r.G.R.1XL ,.P.R R.G.  U ",
"| * +.Q.p.Z.p.Z.p.Q.Q.6.r.G.(.G.c.c.p.6.c.p.%.1X{.Q.G.R.m.Q.l.(.6.Q R O.) L t.P.XXm.h.R.t.6.l.(.Z.R.m.t.[ c.=Xc.Q.c.c.m.G.c.    ",
"  V [ c.=X,.L.h.c.Q.G.m.l.l.R.R.c.(.r.t.L.6.[ G.t.p.t.%.l.(.[.+X,.6.,.m.=Xm.h.c.{.0.l.P.{.t.6.m.0.l.[.p.0.P.L.c.r.m.r.c.O.-.    ",
"L > t.[.c.r.l.l.h.p.m.m.l.{.r.0.1XR.0.=XP.p.{.p.(.c.m.,.p.(.r.,.m.r.[.R.h.Q.Q.c.(.h.t.-.6.Z.(.l.R.,.G.P.h.Q.l.L.l.-.h.(.6.5X    ",
") p -.R.h.h.G.,.5X-.m.Z.Q.0.(.G.Z.+Xt.l.Z.l.G.c.6XG.c.[.L.-.-.0.%.[.p.L.0.t.Z.(.G.U p.L.0.t.-.t.L.Q.Z.p.R.c.P.c.,.l.G.h.c.| p   ",
"V F c.-.c.h.=Xl.c.G.(.m.m.(.Z.Q.[.6.[.L.h.{.r.l.m.{.l.c.+.t.P.G.XXG.l.Z.P.+.c.h.t.h.t.G.c.G.Q.Q.6.(.R %.p.h.c.6.Q.6.P.L.t.G.    ",
"    c.h.-.R.L t.Z.l.P.6.r.c.G.G.c.Z.0.P.l.(.t.G.L.h.0.:Xr.Z.G.Z.P.l.r.Q.XXR.p.p.Z.,.Z.(.| Z.R.| l.P.c.6.+.(.p.p.0.m.h.Z.m.r.-.  ",
"| c r.h.t.p.r.l.c.0.c.L.G.h.c.l.p.[ c.c.p.c.h.p.=XR.r.P.Q.P.m.P.c.R L.:XG.O.Z.c.Q.-.0.P.P.c.,.%.h.0.P.L.m.P.R.P.-.0.(.5Xc.p.c   ",
"    6.P.0.m.G.r.P.l.m.m.m.G.P.l.l.t.p.Q.l.h.c.O.{.G.t.O.h.[.r.P.m.{.c.c.l.0.+.p.t.p.%.6.Z.m.| l.r.G.r.0.h.t.m.r.l.c.%.[ P.l.  m ",
"0 S R.m.m.L.l.P.h.r.p.p.c.1Xt.r.[.r.6.G.G.m.h.R.6.Q.(.p.m.l.[.h.r.Q (.G.Z.Z.c.c.{.P.t.h.r.h.[ Z.p.Z.%.l.m.R.t.6.,.Z.c.G.c.c.    ",
"  p h.Z.R.p.r.h.P.[.m.Z.t.c.6.6.Q.6.p.p.Z.Z.t.m.c.p.(.Z.+.[ h.6.r.c.Q ,.L.G.h.L.m.l.L.%.Z.Z.+.Q.Z.0.XXr.P.Z.=Xl.h.{.Q.c.t.[.>   ",
"m l.G.+.Z.c.Q.%.r.P.P.c.,.%.h.0.P.G.m.P.R.P.-.0.(.5Xc.t.L.6.0.+Xc.m.Z.p.| r.+.P.[.,.l.6.XXt.c.r.t.Z.R.r.G.G.Z.%.G.c.p.%.c.6.| = ",
"    +Xm.P.c.Z.R.G.+X| R.c.m.r.-.t.6.t.p.h.l.m.p.c.L.R.L.l.l.,.L.6.h.P.-.r.G.-.p.p.p.m.Z.c.+XO.:X(.-.=XP.Z.Z.L.(.h.r.c.c.O.l.    ",
"l.  (.P.r.| h.m.R.(.c.1X6.XX[.{.h.P.r.Z.[.[ Z.G.Q.Z.G.(.6.m.,.L.6.R c.Z.Z.p.G.m.h.[.c.6.t.-.6.,.(.0.Z.(.Z.c.r.r.c.h.+.h.P.l.O.> ",
"  = Z.%.-.O.L.p.%.P.c.m.h.c.m.-.l.l.c.l.R.l.L.Q.m.[.h.t.Q 6.P.0.m.G.r.P.l.m.m.m.L.P.h.l.t.p.(.l.h.c.O.{.G.t.O.h.(.r.P.m.{.m.= * ",
"  + m.R.p.L.p.t.p.c.(.6.G.0.[.G.| l.r.r.Z.Z.p.Q r.L.Z.Q.Z.P.h.-.Z.c.| P.-.Z.O.,.t.Q.0.h.,.Q.Q 6.0.L.0.Z.L.h.r.c.m.P.6.R p.Z.    ",
"Q G.c.p.L.0.0.+Xc.m.Z.p.O.r.+.P.{.-.c.6.XXp.l.0.t.Z.R.r.G.G.G.%.G.c.t.%.c.,.[.c.l.c.G.h.XX-.r.[.t.P.[ P.(.L.[.(.Z.-.R.l.h.G.  G.",
"    r.Z.t.R.P.6.L.G.m.%.h.l.P.P.P.0.O.G.G.h.l.h.Z.{.m.L.t.{.h.h.5X0.c.%.P.| P.h.L.Z.-.L.c.P.p.l.h.t.t.G.l.0.L.Z.h.R.m.l.p.=X>   ",
"S   t.l.c.Q.t.,.0.c.-.m.G.t.P.L.G.c.r.6.0.m.+.[.) P.-.L.[.6.c.0.R.l.c.R.t.c.P.Q.c.l.r.l.c.m.0.R.c.+Xc.) p.p.G.c.=Xm.p.t.P.L.4   ",
"  g     g U c.    F   L h   U 8   0 g   ) 8   +   g   = 8       c     V = 0   > 4   * * > * F * m Q 8 |         F   8 g   V + 0 ",
"  4 p.          h   + > Q   L ) p l.  O.| h   Q     g   -.  * h.8 V r.m 8       )   U     + ) =       4 Q     V   [   h S *     ",
"  R   L   r.    V   [ g     V = +       S Q   p R   >   =   L       8 = F p 8 *   +   m h       0 V c.4   8 >   8   g   p = = * ",
"    0 L   h g p   h =     4   | = = 4 g   6.    |   V   F ) c O.) p   L +   h   G.  8 r R   [ h 0 0.  * p + g 4 R.g * O.c       "
};
