/* XPM */
static char *_f09f69da84544308269f0fadbc46335Iu3giY4nbwFL8jfE[] = {
/* columns rows colors chars-per-pixel */
"64 64 16 1 ",
"  c black",
". c #004000",
"X c #015D00",
"o c #017300",
"O c #018500",
"+ c #029500",
"@ c #02A300",
"# c #03B000",
"$ c #03BC00",
"% c #03C700",
"& c #04D100",
"* c #04DB00",
"= c #05E500",
"- c #05EE00",
"; c #06F700",
": c #06FF00",
/* pixels */
"                                                                ",
"                                                                ",
"  ::::::::::::::::::::::::::::::::::::::::::::::::::::::::::::  ",
"  ::::::::::::::::::::::::::::::::::::::::::::::::::::::::::::  ",
"  ::::::::::::::::::::::::::::::::::::::::::::::::::::::::::::  ",
"  ::::::::::::::::::::::::::::::::::::::::::::::::::::::::::::  ",
"  ::::::::::::::::::::::::::::::::::::::::::::::::::::::::::::  ",
"  ::::::::::::::::::::::::::::::::::::::::::::::::::::::::::::  ",
"  ::::::::::::::::::::::::::::::::::::::::::::::::::::::::::::  ",
"  ::::::::::::::::::::::::::::::::::::::::::::::::::::::::::::  ",
"  ::::::::::::::::::::::::::::::::::::::::::::::::::::::::::::  ",
"  ::::::::::::::::::::::::::::::::::::::::::::::::::::::::::::  ",
"  ::::::::::::::::::::::::::::::::::::::::::::::::::::::::::::  ",
"  ::::::::::::::::::::::::::::::::::::::::::::::::::::::::::::  ",
"  ::::::::::::::::::::::::::::::::::::::::::::::::::::::::::::  ",
"  ::::::::::::::::::::::::::::::::::::::::::::::::::::::::::::  ",
"  :::::::::::  X o:X XX$;  XX:$ X.X=; X: .:  ::o. .X::::::::::  ",
"  :::::::::::  :X :X ;::; X:::X ;O %; X: .:  :::% +:::::::::::  ",
"  :::::::::::  :X :X #&:; .#-:X #X %; X: .:  :::% +:::::::::::  ",
"  :::::::::::  :X :X X+:;  X*:X X. %; X: .:  :::% +:::::::::::  ",
"  :::::::::::  :X :X ;::; X:::X ;O %; X: .:  :::% +:::::::::::  ",
"  :::::::::::  :X :X ;::; X:::X ;O %; X: .:  :::% +:::::::::::  ",
"  :::::::::::    @:X   @; X:::X ;O %:+   &:    &% +:::::::::::  ",
"  ::::::::::::::::::::::::::::::::::::::::::::::::::::::::::::  ",
"  ::::::::::::::::::::::::::::::::::::::::::::::::::::::::::::  ",
"  ::::::::::::::::::::::::::::::::::::::::::::::::::::::::::::  ",
"  ::::::::::::::::::::::::::::::::::::::::::::::::::::::::::::  ",
"  :::::::*%%%=:-%%%::*%:::&&:::%%%%:::%%%;::*%%*:&&::&&:::::::  ",
"  :::::::X XX$:o X @:X ;::  ::;  X @:+ X o:&..XX&  :$ o:::::::  ",
"  :::::::X ;::; X: .:X ;::  ::; X: .:  :X :+ %:;;  o $::::::::  ",
"  :::::::X #&:; .# .:X ;::  ::; .# X:  #. :+ %:::   #:::::::::  ",
"  :::::::X X+:;  X .:X ;::  ::;  X @:  X  :+ %:::  .&:::::::::  ",
"  :::::::X ;::; X: .:X ;::  ::; X: .:  :X :+ %:::  ..=::::::::  ",
"  :::::::X ;::; X: .:X ;::  ::; X: .:  :X :+ %:##  *..::::::::  ",
"  :::::::X ;::; X: .:X   @    &    &:  :X :-.  X-  :* .:::::::  ",
"  ::::::::::::::::::::::::::::::::::::::::::::::::::::::::::::  ",
"  ::::::::::::::::::::::::::::::::::::::::::::::::::::::::::::  ",
"  ::::::::::::::::::::::::::::::::::::::::::::::::::::::::::::  ",
"  ::::::::::::::::::::::::::::::::::::::::::::::::::::::::::::  ",
"  ::::::::::*%%%%;%%%%:*%:=%=%%%%**%:=%;:%%%%::&%%%;::::::::::  ",
"  ::::::::::+X  X&  XX:X ;O %X  X@X ;O %;  X @:  XX*::::::::::  ",
"  :::::::::::; X:; X:::X &o &:X ;:X ;O %; X: .:  :::::::::::::  ",
"  :::::::::::; X:; .#-::X  #::X ;:X ;O %; .# X:  #=:::::::::::  ",
"  :::::::::::; X:;  X*::+ .&::X ;:X ;O %;  X @:  X$:::::::::::  ",
"  :::::::::::; X:; X:::@ O..=:X ;:X ;O %; X: .:  :::::::::::::  ",
"  :::::::::::; X:; X:::X ;O %:X ;:X ;O %; X: .:  :::::::::::::  ",
"  :::::::::::; X:;    :X ;O %:X ::*   o;; X: .:    &::::::::::  ",
"  ::::::::::::::::::::::::::::::::::::::::::::::::::::::::::::  ",
"  ::::::::::::::::::::::::::::::::::::::::::::::::::::::::::::  ",
"  ::::::::::::::::::::::::::::::::::::::::::::::::::::::::::::  ",
"  ::::::::::::::::::::::::::::::::::::::::::::::::::::::::::::  ",
"  ::::::::::::::::::::::::::::::::::::::::::::::::::::::::::::  ",
"  ::::::::::::::::::::::::::::::::::::::::::::::::::::::::::::  ",
"  ::::::::::::::::::::::::::::::::::::::::::::::::::::::::::::  ",
"  ::::::::::::::::::::::::::::::::::::::::::::::::::::::::::::  ",
"  ::::::::::::::::::::::::::::::::::::::::::::::::::::::::::::  ",
"  ::::::::::::::::::::::::::::::::::::::::::::::::::::::::::::  ",
"  ::::::::::::::::::::::::::::::::::::::::::::::::::::::::::::  ",
"  ::::::::::::::::::::::::::::::::::::::::::::::::::::::::::::  ",
"  ::::::::::::::::::::::::::::::::::::::::::::::::::::::::::::  ",
"  ::::::::::::::::::::::::::::::::::::::::::::::::::::::::::::  ",
"  ::::::::::::::::::::::::::::::::::::::::::::::::::::::::::::  ",
"                                                                ",
"                                                                "
};
