/* XPM */
static char *e323010933534f8cc44d71bda5faf4a6nBGlHoQnhNZWGtoq[] = {
/* columns rows colors chars-per-pixel */
"64 64 76 1 ",
"  c black",
". c gray34",
"X c gray35",
"o c #5A5A5A",
"O c #5F5F5F",
"+ c #606060",
"@ c gray38",
"# c #626262",
"$ c gray39",
"% c #646464",
"& c #656565",
"* c gray40",
"= c #676767",
"- c #686868",
"; c DimGray",
": c #6A6A6A",
"> c gray42",
", c #6C6C6C",
"< c #6D6D6D",
"1 c gray43",
"2 c #6F6F6F",
"3 c gray44",
"4 c #717171",
"5 c #727272",
"6 c gray45",
"7 c #747474",
"8 c gray46",
"9 c #767676",
"0 c #777777",
"q c gray47",
"w c #797979",
"e c gray48",
"r c #7B7B7B",
"t c #7C7C7C",
"y c gray49",
"u c #7E7E7E",
"i c gray50",
"p c #808080",
"a c #818181",
"s c gray51",
"d c #838383",
"f c #848484",
"g c gray52",
"h c #868686",
"j c gray53",
"k c #888888",
"l c #898989",
"z c gray54",
"x c #8B8B8B",
"c c gray55",
"v c #8D8D8D",
"b c #8E8E8E",
"n c gray56",
"m c #909090",
"M c gray57",
"N c #929292",
"B c #939393",
"V c gray58",
"C c #959595",
"Z c gray59",
"A c #979797",
"S c #989898",
"D c gray60",
"F c #9A9A9A",
"G c #9B9B9B",
"H c gray61",
"J c #9D9D9D",
"K c gray62",
"L c #9F9F9F",
"P c #A0A0A0",
"I c gray63",
"U c #A2A2A2",
"Y c gray64",
"T c #A5A5A5",
"R c #A9A9A9",
"E c gray67",
/* pixels */
"                                                                ",
"                                                                ",
"  pf8f6f2cccp28qp:2xpqffufmcq*x6qqp#xf6fuZu86xf8upcpquccDxp2fu  ",
"  :86qufKxfpm8puqumcp2mZZuuq6q8xDxcfqDp*pcp8pKuum682mpf8qfmqpx  ",
"  q8q68mmxpxcxxpffmuumx8uqqqup8pxfupuu*ppqpuqKc8xmxpcp#xKf2fpc  ",
"  mu8xfxumm#mpmupfucf:qf:xu6ufpuqfpqpK8686ufqupmXcmfKqmmx*cq2f  ",
"  8xxpxcx68mYpqx88Dppfq:82xZ6u8Zqp8qpcqfff2fpq2p6mpppfuD68mqx*  ",
"  p8xupup8fx2xq:26DKxxq8qmcfq8p6qpfpmxuquupx8*qxxfxYumpqfpufq8  ",
"  f:qf:xu6ufpuqfpqpK8686ufqupmXcmfKqmmx*cq2f*Z6pKpxDxp2q6m2cuu  ",
"  Zq6p8umq8xxp8p8p:68qf8u*Z8u8pmfxuf6xxq8p8qqqx8qxqfZu8ppqpq6u  ",
"  uqpm6uuuc2xcfpqqm6pq6xpxfpqqxupufc8qpuxcp:8f6qfqcuxpxcXm6ufu  ",
"  cfqDp*pcp8pKuum682mpf8qfmqpx8x6x8Zmupupfxpx8fpxxcxpfpup6xuq8  ",
"  u2xqZYqcYfpm6fxq6qxcqu6qDqu8xfxq8*qcxppf6f2qppufpuZuu6*mxp8p  ",
"  p222mpufppfppqf6x8mxfc2ZxqpZcfucxZxqxqq68u8ppc8f6x28m6mxxxcp  ",
"  fuufqZ68xmfccm*qpfppqx22:Zq6pp*8O2fuufmfuppfm#pq8:qx82xm:fcp  ",
"  f:qf:xu6ufpuqfpqpK8686ufqupmXcmfKqmmx*cq2f*Z6pKpxDxp2q6m2cuu  ",
"  ucpuqDp2mZxqfqupu2cfqpxuupqu8D286ux2xqfmuq8uppDYfff86pu6cOqf  ",
"  Kfufq2m62p6u:8mufqppfpup8qxcx6u6xp8uxx*68fu6pp8m6qqmxqZcmq6c  ",
"  umxq:upcmpK8DmZux8fZ*ffcffm6p6x8#ufpqfpump6q286m8fmfpq8pu2ux  ",
"  fuqpm8qu8uZu8f*x6cZc6mpcxq*6uxpqfppqfuqpxcupZp:26xumDp:Dppcp  ",
"  pxp2qp28c*ffmc:*ppf8p*cqmqf2f6pp26:u:cpcfuumZuuKcpuqqf88qpmc  ",
"  p888p:m*x6xZ8p8cupcqpxcpuqupp8cpDp*qqfpDpqqcxp8cxuq8p6Kqcx6q  ",
"  upupfxpx8fpxxcxpfpup6xuq8u8u#6q86mxq*ffxpfxffx2cmu8fmpffcZuD  ",
"  xmxqxqq28u8ppc8f6x28m6mxxxcp2ZfpuqcfKucZ8xZ2p:f8uc8qq2u:K:q:  ",
"  xpxcXm6ufuqcucxxpxcxppupqmc8c6f88u66xuxfpq*fu8uqqmcqqDpxpfcf  ",
"  :qmu*pfu6mmpc6p:6x:mcufc#uZpu:x6pmppmc2D6mx2qppcq68p6pfqxffp  ",
"  pD:Km6Dxffxmu8pp:pq8cxcx:u8ppfmpXxuufuxuu8Z8cqmqf:u2xfufp:fu  ",
"  cmfxupx:upcqxqqqpm6f8Zx:uq8ffu*8xfcfxu2fp:x6f:6qc8u6c*88x8fx  ",
"  ffxup8m:Ym6pxpuxDcpmqpfxmpqxu8c2ppxc2xDf8ufxpupquKcD88ccKxqR  ",
"  *cqmqf2f6pp26:u:cpcfuucZpuKcpuqqf88qpmcp6xppqu*f:p6xqfDu2fp8  ",
"  pK8DmZux8fZ*ffcffm6p6x8#ufpqfpump6q286m8fmfpq8pu2uxuZpppp6px  ",
"  up8m:Ym6pxpuxDcpmqpfxmpqxu8c2ppxc2xDf8ufxpupquKcD88ccKxqRuZp  ",
"  fx2xq:26DKxxq8qmcfq8p6qpfpmxuquupx8*qxxfxYumpqfpufq8q82u88fu  ",
"  x*cqfpfx266*ucc8pcp:qf8882D6:umu8u:qqfcpqxfqfufcuquxZpfqp68m  ",
"  8puqumcp2mZZuuq6q8xDfcfqDp*pcp8pKuum682mpf8qfmqpx8x6x8Zmupup  ",
"  xcZxpppDq:6u6*uump6cqpqfKfcpqD:2Ducf8m68m2q6qTccuuum2pupfppp  ",
"  ufqppfpup8qxcx6u6xp8uxx*68fu6pp8m6qqmx8Zcmq6cq2qpx*c8fpfx266  ",
"  p2#c6f8uxp2Zffuu8ucxupffq82xpcxxpx8qpuu6ppqp888q68qcufZuZ6x6  ",
"  xf62qpxYpuppup:fufpppZZ*pxc2fp6xZxmu8xfxumm#mpmupfucf:qf:xu6  ",
"  p8pffquuq8q68mmxpxxxxpffmpumx8uqqqup8pxfupuu*ppqpuqKc8xmxpcp  ",
"  qp:2xpqffufmcq*x6qqp#xf6fuZu86xf8upcpquccDxp2fuf6fu66fcxqupp  ",
"  f*fp6pp*mTx:2qpxxumKupK888:xppfcp8u6x68uZqf6fp6qqppmfD8fuDfu  ",
"  pqcZcquf6pm:fc:uxp62muq8pupp8Zq:2xufffx6xfp8uZpfxpfpppu8qpqu  ",
"  cumKxpc:fxxZ68m88qfKumqqmmfqc6#xpuxpcp8fx6m8upcxpZquDff88u2x  ",
"  f8fpu6fuufqZ68xmfccm*qpfppqx22:Zq6pp*8O2fuufmfuppfm#pq8:qx82  ",
"  Zppx8fuu8fupxcZxpppDq:6u6*uump6cqpqfKfcpqD:2Ducf8m88m2q6qTcc  ",
"  86uq6p8qppcpK6p6uxpfmZcqcpqf#q2cpfmpf6xqcpmYf28xpZfmp6mfc8p.  ",
"  cupcqpxcpuqupp8cpDp*qqxpDpqqxxp8cxuq8p6Kqcx6qxfuufqup:x8qqmm  ",
"  fq2m62p6u:8mufqppfpup8qxcx6u6xp8uxx*68fu6pp8m6qqmx8Zcmq6cq2q  ",
"  8p2x:xuxf6xpxquuqqfu8xfucpuqDp2mZxqfqupu2cfqpxuupqu8D286ux2x  ",
"  2cuuump86upmu8xqmuxxuuucu#ff*c*8fmm2Z2fDqxuppmZpDc8pZ88ux2px  ",
"  Xxuufuxuu8Z8cqmqf:u2xfufp:fuqpm8qu8uZu8f*x6cZc6mpcxq*6uxpqfp  ",
"  ufpmpcuqf6Kqp6upuuuuq6mpfpcuDupKfufq2m62p6u:8mufqppfpup8qxcx  ",
"  fqxffp888p:m*x6xZ8p8cupcqpxcpuqupp8cpDp*qqfpDpqqxxp8cxuq8p6K  ",
"  8m6uqffqppumf2:u88p#6xfuxppx2ff2cf8ZqcpDpuZcpqZpquuuupppZ88Y  ",
"  cpqf#q2cpfmpf6xqcpmYf28xpZfmp6mfc8p.fu66fZ822fcxuq2p6uDxufqp  ",
"  D8p2p:pf8muqp2#c6f8uxp2Zffuu8ucxupffq82xpcxxpx8qpuu6pp8p888q  ",
"  xfc2ZxqpZcfucxmxqxqq28u8ppc8f6x28m6mxxxcp2ZfpuqcfKucZ8xZ2p:f  ",
"  82uupfqR:uxxffxup8m:Ym6pxpuxDcpmqpfxmpqxu8c2ppxc2xDf8ufxpupq  ",
"  x88Dppfq:82xZ6u8Zqp8qpcqfff2fpq2p6mpppfuD68mqx*xmxZmf6cuuf6Y  ",
"  uqKc8xmxpcp#xKf2fpc28xxp62u8xxpxcx68mYpqx88Dppfq:82xZ6u8Zqp8  ",
"  fcf#ux8q6qxcfqcpcp6ufup:f2mqppqf8xfqxpxpqDffmZcxpffqpKcuuZZq  ",
"                                                                ",
"                                                                "
};
