/* XPM */
static char *_49b041fa3d64a6fb4bbc1d2a3d97da5UkTiftkeySZgIR3I[] = {
/* columns rows colors chars-per-pixel */
"64 64 211 2 ",
"   c black",
".  c #010101",
"X  c #020202",
"o  c gray1",
"O  c #040404",
"+  c gray2",
"@  c #060606",
"#  c #070707",
"$  c gray3",
"%  c #090909",
"&  c gray4",
"*  c #0B0B0B",
"=  c #0C0C0C",
"-  c gray5",
";  c #0E0E0E",
":  c gray6",
">  c #101010",
",  c #111111",
"<  c gray7",
"1  c #131313",
"2  c gray8",
"3  c #151515",
"4  c #161616",
"5  c gray9",
"6  c #181818",
"7  c #191919",
"8  c gray10",
"9  c #1B1B1B",
"0  c gray11",
"q  c #1D1D1D",
"w  c #1E1E1E",
"e  c gray12",
"r  c #202020",
"t  c gray13",
"y  c #222222",
"u  c #232323",
"i  c gray14",
"p  c #252525",
"a  c gray15",
"s  c #272727",
"d  c #282828",
"f  c gray16",
"g  c #2A2A2A",
"h  c gray17",
"j  c #2C2C2C",
"k  c #2D2D2D",
"l  c gray18",
"z  c #2F2F2F",
"x  c gray19",
"c  c #323232",
"v  c gray20",
"b  c #343434",
"n  c #353535",
"m  c gray21",
"M  c #373737",
"N  c gray22",
"B  c #3A3A3A",
"V  c gray23",
"C  c #3C3C3C",
"Z  c gray24",
"A  c #3E3E3E",
"S  c #3F3F3F",
"D  c gray25",
"F  c #414141",
"G  c gray26",
"H  c #434343",
"J  c #444444",
"K  c gray27",
"L  c #464646",
"P  c gray28",
"I  c #484848",
"U  c #494949",
"Y  c gray29",
"T  c #4B4B4B",
"R  c #4C4C4C",
"E  c gray30",
"W  c #4E4E4E",
"Q  c gray31",
"!  c #505050",
"~  c #515151",
"^  c gray32",
"/  c #535353",
"(  c gray33",
")  c #555555",
"_  c #565656",
"`  c gray34",
"'  c #585858",
"]  c gray35",
"[  c #5A5A5A",
"{  c #5B5B5B",
"}  c gray36",
"|  c #5D5D5D",
" . c gray37",
".. c #5F5F5F",
"X. c #606060",
"o. c gray38",
"O. c #626262",
"+. c gray39",
"@. c #646464",
"#. c #656565",
"$. c gray40",
"%. c #676767",
"&. c #686868",
"*. c DimGray",
"=. c #6A6A6A",
"-. c gray42",
";. c #6C6C6C",
":. c #6D6D6D",
">. c gray43",
",. c #6F6F6F",
"<. c gray44",
"1. c #717171",
"2. c #727272",
"3. c gray45",
"4. c #747474",
"5. c gray46",
"6. c #767676",
"7. c #777777",
"8. c gray47",
"9. c #797979",
"0. c gray48",
"q. c #7B7B7B",
"w. c #7C7C7C",
"e. c gray49",
"r. c #7E7E7E",
"t. c gray50",
"y. c #808080",
"u. c #818181",
"i. c gray51",
"p. c #838383",
"a. c #848484",
"s. c gray52",
"d. c #868686",
"f. c gray53",
"g. c #888888",
"h. c #898989",
"j. c gray54",
"k. c #8B8B8B",
"l. c gray55",
"z. c #8D8D8D",
"x. c #8E8E8E",
"c. c gray56",
"v. c #909090",
"b. c gray57",
"n. c #929292",
"m. c #939393",
"M. c gray58",
"N. c #959595",
"B. c gray59",
"V. c #979797",
"C. c #989898",
"Z. c gray60",
"A. c #9A9A9A",
"S. c #9B9B9B",
"D. c gray61",
"F. c #9D9D9D",
"G. c gray62",
"H. c #9F9F9F",
"J. c #A0A0A0",
"K. c gray63",
"L. c #A2A2A2",
"P. c gray64",
"I. c #A4A4A4",
"U. c #A5A5A5",
"Y. c gray65",
"T. c #A7A7A7",
"R. c gray66",
"E. c #A9A9A9",
"W. c #AAAAAA",
"Q. c gray67",
"!. c #ACACAC",
"~. c gray68",
"^. c #AEAEAE",
"/. c #AFAFAF",
"(. c gray69",
"). c #B1B1B1",
"_. c #B2B2B2",
"`. c gray70",
"'. c #B4B4B4",
"]. c gray71",
"[. c #B6B6B6",
"{. c #B7B7B7",
"}. c gray72",
"|. c #B9B9B9",
" X c gray73",
".X c #BBBBBB",
"XX c #BCBCBC",
"oX c gray74",
"OX c gray",
"+X c gray75",
"@X c #C0C0C0",
"#X c #C1C1C1",
"$X c gray76",
"%X c #C3C3C3",
"&X c gray77",
"*X c #C5C5C5",
"=X c #C6C6C6",
"-X c gray78",
";X c #C8C8C8",
":X c gray79",
">X c #CACACA",
",X c #CBCBCB",
"<X c #CDCDCD",
"1X c #CECECE",
"2X c gray81",
"3X c #D0D0D0",
"4X c gray82",
"5X c #D2D2D2",
"6X c gray83",
"7X c gray84",
"8X c #DADADA",
/* pixels */
"  W   r     @     x @ B z =     w @   @     } D     q.6 B , i D z 3.  I , 6               @ 2   2 x P x @ =   x     B     z     ",
"  A z 2   I x $     6   c.  I A     x r     z     2   M       _ ^   2 { M   { x B         i     g w   i 2   6 $   _ E.M       6 ",
"      c.c.  _ M       2 P { = c.  3.} =.  A   r %.  w z I w z _   w   B     $ r w   z 6   } =           _   r { i =     ,       ",
"g 2 2     x ^ M M.@ A ^         @   o.        A   6   w _   r r   $     } $   W   r   g   I W     z _ g = ,     =     M.%.^ i I ",
"W   m.7.c.K.} _ M.u.g.>.%.^ g.S.d. Xg.H.c.%.d.OXK.7.c.M.H.K.g.7.H.q.).m._ Y.} m.-X3.K.g.m.E.H.S.c.c.E.E.m.).w.u.Y.7.{ H.u.d.    ",
"  2 m.d.'.S.%.{ g.7.w.m.^ 3.K.H.g.K.M.m.K.%.S.S.%./.S.q. Xu.Y.S.-Xc.g. X/.m.u.'.m.u.g.c.g.g.M.m.c. Xw.q.<XE.q.-XY.d. Xd.).M.6   ",
"  >.d.m.q.u.S.E.w.H.H.S.>.H.m.d.%.M.7.'.m.m.m.H.g.OX>.w.'.u.Y.{ Y.).K.'.).S.>.E.c.g.H.3.5X>.M.S./.w.).H.S.$Xd.c.H.c.H.m.6XH.$ o.",
"    m.M.Y.7.W d.S.d.>.o.c.K.w.g.u.Y.S.d.c.<Xm.M.K. Xm.g.u.S.3.d.m.E.Y.).Y.E.m.>.c.g.>Xc.m.H.).M.M.).S./.'.7.'.K.d.OXu.c.S. X= , ",
"w $ %.E.H.u.M.Y.g.g.M.u.c.w.OX=.q.7.c.K.=.K.d.H.'.g.d.q.c.c.M.$X5XS.S.S.7.3.m.g.>.E.P u.S.c.Y.7.w.m.H.H.m.M.w.Y.c.).u.H.K.g.  c.",
"^   K.H.S.K.E.H.M.S.w.m.S.H.u.g.g.d.q.u.7.q.).'.K.m.Y.Y.K.K.M.S.H.).c.d.'.K.w.c.u.d.w.c.m.q.m.K.H.g.m.c.d.{ m.m.d.M.g.d.-XE.  A ",
"w g d.).M.g.c.%.H.g.m.M.=.>.o.K.d.=.Y.m.M.g.m.M.>.c.c.m.c.E.c.K./.M.).g.u.^ 7.Y.7.M.H.w.Y.c.M.M.m.K.Y.g.c.w.d./.c.c.m.o. XH.    ",
"i x 3.M.Y.c.q.'.u.M.S.d.S.c.Y.H.m././.S.d.7.<Xd.u.).H.8Xq.K.Y.d.Y.m.M.-XS.Y.Y.M.M.K.c.Y.g.w.g.u.m.<Xu.w.'.w.7.H.K.m.g.E.7./.^   ",
"M   3.>.{ g.E.Y.w.S.E.m.} w.S.q.q.7.=.OX3.} c.).c.q.g.o.d.d.S.E.S.u.K.H.w.S.c.S.E.d.u.g.Y.'.M.S.u.m.7.7./.7.d.u.S.S.u.M.m.d.} r ",
"$   '.K.q.g.u.d.u.g.m.q.m.K.H.g.m.g.d.{ m.m.d.M.g.d.-XE.w.Y./.Y.M.Y.m.W K.>XH.%.S.M./.>.q.Y.Y.m.3.=.g.q.Y.K.M.Y.E.Y.>.q.).5X2   ",
"B = K./.Y.m.m.c.c.u.).E.w./.7.S.w.q.c.>.3.K.c.Y.K.m.u._ S.c.q.c.u.w.'.Y.u.d.$XM.Y.m.H.Y.H.OX} /.m.M.w.>.u.7.u.d.g.c.m.d.m.K.P x ",
"  z '.Y.S.c.S.S.c.S.H.S.c.E.M.d.Y.m.H.H.7.c.S.m.=.'.g.w.S.q.d.K.q.u.w.>X>Xg.).Y.w.} g.M.E.'.m.>X7.OX'. Xg.Y.w.S. X_ S.H./.M.z _ ",
"2 M E.M.u.S.3.g.K.E.g.H.g.w.H.E.<XP 3.Y.W E.H.7.E.M.=.S.H.g.).M.g.c.%.H.g.c.M.=.>.o.K.d.=.Y.m.S.g.m.M.>.c.c.m.c.E.c.K./.M.'.    ",
"  ^ 7.S.g.K.>.d.o.K.).E.g.S.g.7. X%.'.E.M.m.7.g. Xw.m.u.w.E.'.H.Y.c.m.K.o.c.M.E.d.K.d.w.u.m.).7.H.q.'.K.} c.w.q.S.H.d._ w.K.i W ",
"    -XE.w.Y./.Y.M.E.M.I K.>XH.o.S.m./.>.q.Y.Y.m.3.=.g.q.Y.K.M.Y.E.Y.>.q./.5Xm.d.K.7.q.$Xm.M.S.d.o.w.%.K. X>.c.7.OXu.m.q.u.S.P   ",
"2   c.{ S.%.m.7.Y.d.S.$Xc.%.S.M.q.).).E.d.K.S.3.m.M./.K.H.d.3.d.S.^ m.).w.g.w.S.u.E.Y.7.K.H.M.=.g.c.Y.Y.Y.q.o.H.H.g.c.g.S. X6 x ",
"r $ >.).).M.E.3.M.o.>.K.o././.g.S.Y.I g.OXm.g.o.Y.>.M.).m.M./.E.=.OX7./.Y.%.w.m.m./.u.7.q.m.>.M.H.u.Y.H.H.m.q.7.w.M.%.'.{ Y.  x ",
"    >.).q.S.'.S.m.w.w.m.g.%.g.Y.c.'.m.m.m.m.7.m.K.w.m.c.c.q.>.u.} 3.d.c.u.H.g.w.H./.<XP 3.Y.W E.H.7.E.M.=.M.H.g.).M.d.c.%.H.  = ",
"M =.Y.).c.q.Y.S.K.c.).).W ).m.).d.m.S.g.E.S.{ u.S.o.Y.x                 >.M.>Xq.7.q.>.g.H.u.c.m./.B E.).S.>Xd.'.'.K.{ /.w.%.i   ",
">.  H.c.{ K./.d.c.u.>XH.M.m.w.S.c.u.E.S.g.c.=.S.q.c.Y.M                 =./.w.E.w.$Xq.u.Y.g.).H.%.} K.m.c.7.=.d.Y.).d.H./.w.,   ",
",   =.g.q.Y.H.M.Y.E.Y.>.q.).5Xm.u.K.7.q.$Xm.M.S.d.    w d.M.{ 7.o.o.        } E.w.H.H.S.=.H.m.d.%.M.3.'.c.m.m.H.g.OX>.w.'.u.M   ",
"    ).w.m. XM.u.K./.S.).u.w.K.=.H.E.Y.=.Y.o.M.M.q.    A 8XH.K.).q.3.        _ /.K.M.M.E./.Y.g.g.=.>.M.c.w.3.d.M./.K.c.S.c.d.2   ",
"A z OXS.c.S.Y.%.m.g.u.g.u.H.m.H././.7.).W =.d.g.m.I >._ K.K.u.H.7.W         ^ 7.>. X} o.E.M.H.7.q.K.>.g.w.w.H.'.E.S.c.S.H.c.g g ",
"B   c.7.K.m.q.g.Y.K._ 3.q.S.g.>.m.S.q.).7.u.u.).K.w. XE.).u.>.E.d.A         =.w.S.m.H.K.=.3.>.{ g.Y.Y.w.S.E.m.} w.S.q.w.7.=.3.  ",
"  A Y.H.K.<Xg.).m.d.S.m.c.H.d.q.d.q.=.g.q.7.S.c.g.S.m.).m./.g.d.S.I         _ M.c.c.g.g.u.3.'.m.S.M.E.c.$Xg.m.>XS.g.H.u.%.'.    ",
"  z M.d.M.>Xq.7.q.>.g.H.u.c.m./.B E.).H.>Xd.'.'.H.{ /.w.%.H.{ OX3.{         %.M.=.u.7.).=.E.c.g.c.).m.q.3.g.M.).g.7.Y.u.).g.z A ",
"^ D =.OX7.).Y.%.u.m.m./.u.3.q.m.=.M.H.u.Y.H.H.m.w.7.q.M.%.'._ Y.>.%.        =.c.m.E.u.m.Y./.m.c.u.c.m.M.q.E.m.$Xm._ d.d.H.m.w.2 ",
"w =.w.c.m.m.d.Y.w.).m.3.Y.E.m.c.g.Y.m.g.H.>.u.3.M.H.m.3./.E.} =.        ^ q.>.g.g././.S.S.c.u.m.).3.g.c.c.E.%.K./.H.M.d.u.).  = ",
"  = Y.K.).-XS.c.K.W /.K.d.$X>.H.E.$Xc.} m.g.S.S.w./.S.K.Y.M.q.7.        c.d.K.7.M.w.o.S.d.3.Y.S.7.H. XS.q.S.M.d.7.Y.H.3.m.g.M   ",
"  I 7.7.d.M.c.E.S.M.c.7.c.d.K.H.7.%.d.M.Y.<XM.d.M.m.g.M.o.{ M r     I 7./.{ m.Y.E.=.H.M.7.K. XY.).c.q.Y.S.K.c.).).W ).m.).d., r ",
"  I <XS.m.).>.H.K.u.=.u.Y./.d.g.3.u.$Xd.g.w.K.S.K.u.q.{ u.D         %.S.%.d.m.m.g.H.m.c. Xg.g.>.{ ).Y.m.q.M.7.S.7.u.3.Y.K.o.P z ",
"  i K.=.Y.d.o.%.>.-X>XY.K.d.w.d.).E.S.u.7.M.>.d.m.S.m.w.%.w     M M K.w._ d.Y.Y.H.Y.<Xg.).m.d.S.m.c.H.d.q.d.w.=.g.q.7.S.c.d.r = ",
"I   7.u.M.m.E.S.M.c.7.c.d.K.H.7.=.d.S.Y.<XM.d.M.m.g.M.r         m.c.OX X{ m.Y.E.=.H.M.7.K. XK.).c.7.Y.S.K.c.).).W ).m.).d.m.w   ",
"  , g.Y.^ >./.Y.Y.).K.g.Y.).E.M./.u.d.E.K.E.M. Xd.S.d.6         m.-Xc.{ u.'.g.{ m.S.c.>.).).M.E.3.M.o.>.K.o././.g.S.Y.I g.OX2   ",
"    m.c.).c.H.Y.'.7.S.u.} E.K.g.M.7.7.).H.Y.3.7.).        g Y.H.g.7.Y.%.H.%.>.H.u.M.M.M.=.=.=.).m.g.K.m.m.H.m.m.d.H.7.K.q.'.M i ",
"z   m.>Xm.{ u.'.g._ m.S.c.>./.).M.E.3.M.o.>.K.o./.        6 g.OXm.d.o.Y.>.m.).m.m./.E.=.OX7.).Y.%.u.c.m./.u.3.q.m.>.M.H.u.Y.z g ",
"  { S.c./.>.S.u.>.).Y.g.).'.=.'./.'.7.Y.Y.c.E.q.=.                          %.d.$X>.S.E.$Xc.} m.g.S.S.w./.S.K.Y.M.q.OX XH.m.P W ",
"%., 7.7.Y.g.Y. Xm.H.H.c.q.H.Y.d.m.w.H.E.g. Xm.m.Y.                          } S.$Xu.o.3.c.>._ g.d.'.M.3.Y.w.m.u.S.-XH.Y.S.d.q.  ",
"r   u.7.Y.K.o.E.H.o.M.%.=.S.c.u.q.Y.Y.E.c.E.c.g.S.B { _ D A W ^ W ^ _ } } } 7.u./.g.m.3.c.K.{ _ M.u.g.>.=._ g.S.d. Xg.H.c.%.  3.",
"@ r c.u.M.} -Xc.w.H.3.o.u.g.>.K.c.S.c.6X).c.H.Y.Y./.S.g.c.E.w.m.Y.$XD 7.M.M.u.3.>.7.c.=.K.m.u.m.S.u.$Xc.c.u.K.'.c.M.S.E.w.>.  $ ",
"=.  Y.w.S. X{ S.H./.S.H.).7.S.3.Y.7.W m.S.S.g.H.M.g.'.c.3.u.=.7.>.).7.S.).S.m.w.w.m.g.%.d.Y.c.'.m.M.m.m.7.c.K.q.m.K.Y.M.u.S.    ",
"    o.Y.m.m.S./.m.q.g.>.K.3.q.g. Xu.S.3.H.m.3.u.u.M.m.).S.-Xq.H.g.OXS.g.K.c.H.o.{ u.M.g.%.m.g.%.d.).w.m.OXM.u.Y./.S.).u.w.K.  g ",
"  =.%.'.E.M.m.7.g.'.w.c.u.w.E.'.H.Y.c.m.K.o.c.M.E.d.K.d.u.d.m.).7.H.w.'.K.} c.w.q.S.H.d.^ w.K.S./.S.Y.g.=.S.m.} Y.>.S.o.3.u.W   ",
"z   K.q.'.K.S.E.>. XK.u.m.'./.H.c.E.Y.'.Y.d.Y.d.d.=.q.c.q.m.M./.q.H.>.Y.o.q.).7.).K.Y.Y.Y.m.%.'.S.m.g.u.E.H.>Xg.E. Xw.Y.'.=.=   ",
"g $ K.u.S.M.w.OXE.q.3.g.m.H.c.d.>.m.Y.K.m./.m.m.} d.5Xu._ c.H.w.>.H.w.u.M.).u.3.S.K.3.S.Y.c.w.'.u.M.M.d.S.c.Y.H.m././.S.u.7.m.  ",
"6 r d.o.w.=.Y. X>.c.7.OXd.c.q.u.S.E.w.H.H.S.=.H.m.u.=.M.3.'.m.m.m.H.d.OX>.w.'.u.Y.{ E.).K.'.).S.>.E.c.g.H.3.5X>.M.S./.w.).H.w q.",
"i   H.c.Y.'.7.$X7.M.%.m.} M.S.7.).g.u.m.%.W /.>.H.w.c.K.M.>. XH.H.g.m.w.d./.K.c.M.H.H.u.q.%.K.c./.K.Y.S.Y.w.d.m.c.c.3.M.M.w.=   ",
"    Y.m.m.S./.c.q.g.>.K.3.q.g. Xu.S.3.H.m.3.u.u.M.m.).S.-Xq.H.g.$XH.g.K.c.H.o.{ u.M.g.%.m.g.%.d.).w.m.OXM.u.Y./.S.).u.w.K.=.g I ",
"_ x w.'.E.).d.>.E.d.%.u.c.K.^ Y.w.S.m.H.K.=.3.>.{ g.Y.Y.w.S.E.m.} w.S.q.q.7.=.OX3.} c.).c.q.g.o.d.d.S.Y.S.u.K.H.w.H.c.S.E.d.    ",
"W D m.m.c.m.u.'.E.w./.3.S.q.q.c.>.3.K.g.Y.H.m.u.^ S.c.7.c.u.u.'.Y.u.d.$XM.Y.m.H.Y.H.OX} /.m.M.w.>.u.7.u.d.g.c.M.d.m.K.E.K.c.=   ",
"  D m.S.m.%./.H.>.3.w.g.OXH.%./.m.M.w.K.>.w.>XM.-Xm.d. X XS.c.).M.H.E.Y.OXm.q.d.H.M.K.H.q.q.H.>.q.>.<XS.).u.M.7.q.7.} S.g.S.M 2 ",
"    ).H.Y.>.7.).m.>.g.q.7.Y.H.c.7.Y.%.H.%.>.H.d.M.M.M.=.=.=.).m.g.H.m.m.H.m.m.d.H.7.K.q.'.K.S.E.>. XK.u.m.'./.H.c.E.Y.'.Y.d.A   ",
"_   S.S.3.c.=.q.'.c.%./.d.S.d.H.d././.7.w.H.).H.m.m.d.7.m.d.=.<X X/.H.E.M./.c.).u.d.q.S.g._ u.Y.OXM.g.E.w.7.c.).S.E.M.u.{ m.w., ",
"  $ ).'.$X3.7.3.M.-XM.g.M. Xq.c.Y. Xu.7.M.q.g.'.d.q.Y.Y.m.w.M.w.m.} >.7.u.S.w.g.{ '.7.g.q.S./.S.Y.c.S.3.Y.Y.d.q.S.w.d.g.u.K.    ",
"  M d.H.'.g.d.q.c.c.M.$X<XS.S.S.q.3.c.g.>.E.P u.S.c.Y.7.w.m.H.H.m.S.q.Y.c.).u.H.K.g.7.>Xw.S.H.S.Y.m.w./.OXE.d.d.S.3.M.).} S.D   ",
"%.= m.%.u.Y.H.OXS.c.S.Y.%.c.g.u.g.u.H.m.H././.7./.^ =.d.g.m.7./.7.K.Y.u.H.7.w.).M.u.H.d.7.=. X} o.Y.M.H.q.q.K.>.g.u.w.H.'.Y.r @ ",
"g , ^ I i     m.    _ z /.  M B   M 2 6 d.w D D 6 w x $ B         = M.    }     z x 2   D   W ^   6 @ }       ^ i i w 2 2 =.B   ",
"    6     ,       {   , >.2   B W r ^     M   g P A   M   w 6   I x i ).g z _   o.  z } i   I M 2 6 I W A         2 $       2 I ",
"  $ M ,   z , ,   r     = x W @ 2 =.,       B   ^ 3.$   w., = I = w @     A A W x     i $   _ ^ P   P i     2 g =.= =   z w     ",
"  , _   z   o.x   @     i i       M r W r M     r ,   A   r       W       I       M   r M     , 2 A       i       $ x       B i "
};
