/* XPM */
static char *_7944de2adad416ef3c61510337e1ef7nqw1678j4pbGpVS5[] = {
/* columns rows colors chars-per-pixel */
"64 64 189 2 ",
"   c black",
".  c #010101",
"X  c gray9",
"o  c #191919",
"O  c gray10",
"+  c #1B1B1B",
"@  c gray11",
"#  c #1D1D1D",
"$  c #1E1E1E",
"%  c gray12",
"&  c #202020",
"*  c gray13",
"=  c #222222",
"-  c #232323",
";  c gray14",
":  c #252525",
">  c gray15",
",  c #272727",
"<  c #282828",
"1  c gray16",
"2  c #2A2A2A",
"3  c gray17",
"4  c #2C2C2C",
"5  c #2D2D2D",
"6  c gray18",
"7  c #2F2F2F",
"8  c gray19",
"9  c #313131",
"0  c #323232",
"q  c gray20",
"w  c #343434",
"e  c #353535",
"r  c gray21",
"t  c #373737",
"y  c gray22",
"u  c #393939",
"i  c #3A3A3A",
"p  c gray23",
"a  c #3C3C3C",
"s  c gray24",
"d  c #3E3E3E",
"f  c #3F3F3F",
"g  c gray25",
"h  c #414141",
"j  c gray26",
"k  c #434343",
"l  c #444444",
"z  c gray27",
"x  c #464646",
"c  c gray28",
"v  c #484848",
"b  c #494949",
"n  c gray29",
"m  c #4B4B4B",
"M  c #4C4C4C",
"N  c gray30",
"B  c #4E4E4E",
"V  c gray31",
"C  c #505050",
"Z  c #515151",
"A  c gray32",
"S  c #535353",
"D  c gray33",
"F  c #555555",
"G  c #565656",
"H  c gray34",
"J  c #585858",
"K  c gray35",
"L  c #5A5A5A",
"P  c #5B5B5B",
"I  c gray36",
"U  c #5D5D5D",
"Y  c gray37",
"T  c #5F5F5F",
"R  c #606060",
"E  c gray38",
"W  c #626262",
"Q  c gray39",
"!  c #646464",
"~  c #656565",
"^  c gray40",
"/  c #676767",
"(  c #686868",
")  c DimGray",
"_  c #6A6A6A",
"`  c gray42",
"'  c #6C6C6C",
"]  c #6D6D6D",
"[  c gray43",
"{  c #6F6F6F",
"}  c gray44",
"|  c #717171",
" . c #727272",
".. c gray45",
"X. c #747474",
"o. c gray46",
"O. c #767676",
"+. c #777777",
"@. c gray47",
"#. c #797979",
"$. c gray48",
"%. c #7B7B7B",
"&. c #7C7C7C",
"*. c gray49",
"=. c #7E7E7E",
"-. c gray50",
";. c #808080",
":. c #818181",
">. c gray51",
",. c #838383",
"<. c #848484",
"1. c gray52",
"2. c #868686",
"3. c gray53",
"4. c #888888",
"5. c #898989",
"6. c gray54",
"7. c #8B8B8B",
"8. c gray55",
"9. c #8D8D8D",
"0. c #8E8E8E",
"q. c gray56",
"w. c #909090",
"e. c gray57",
"r. c #929292",
"t. c #939393",
"y. c gray58",
"u. c #959595",
"i. c gray59",
"p. c #979797",
"a. c #989898",
"s. c gray60",
"d. c #9A9A9A",
"f. c #9B9B9B",
"g. c gray61",
"h. c #9D9D9D",
"j. c gray62",
"k. c #9F9F9F",
"l. c #A0A0A0",
"z. c gray63",
"x. c #A2A2A2",
"c. c gray64",
"v. c #A4A4A4",
"b. c #A5A5A5",
"n. c gray65",
"m. c #A7A7A7",
"M. c gray66",
"N. c #A9A9A9",
"B. c #AAAAAA",
"V. c gray67",
"C. c #ACACAC",
"Z. c gray68",
"A. c #AEAEAE",
"S. c #AFAFAF",
"D. c gray69",
"F. c #B1B1B1",
"G. c #B2B2B2",
"H. c gray70",
"J. c #B4B4B4",
"K. c gray71",
"L. c #B6B6B6",
"P. c #B7B7B7",
"I. c gray72",
"U. c #B9B9B9",
"Y. c gray73",
"T. c #BBBBBB",
"R. c #BCBCBC",
"E. c gray74",
"W. c gray",
"Q. c gray75",
"!. c #C0C0C0",
"~. c #C1C1C1",
"^. c gray76",
"/. c #C3C3C3",
"(. c gray77",
"). c #C5C5C5",
"_. c #C6C6C6",
"`. c gray78",
"'. c #C8C8C8",
"]. c gray79",
"[. c #CACACA",
"{. c #CBCBCB",
"}. c #CDCDCD",
"|. c gray81",
" X c #D0D0D0",
".X c gray82",
"XX c LightGray",
"oX c gray83",
"OX c #D7D7D7",
/* pixels */
"S s n c S i k e V D S c n k s J e D S n n s k D s c k s S D V S c c V e c n S k S k k k c D s V k D V e c k s n n k 9 k V n S n ",
"S V S n V s k c c c s n n s c s s i k i s k S c n J k J s S s n s J k k k S s n k V s k e V D S c n k s J e J S n n s k D s c k ",
"S c c n s V s n i S S S c i s k n e i V n k n n c n D D k 9 V i k k c 4 V V i V c D c s i V V s c n S n k k S S U V n e V c V s ",
"V n e s i k c V U V n c D s c c k c D S c e D J J k c k i k s V U V S V k J n 9 c S n s c U k k D s s i D n n s k V D k n S s V ",
"c k k k k s s D D V c V S V S n n V D c k D V s c k k k c c s n V V k c c k 9 c c k n k k U S k S D V n S n 4 V Q V e n n D i s ",
"J V D c s K.A.F.l.~.Q.@.Q.b.Q.h.b.M.h.I.A.:.d.M.1.K.l.w.l.A.M.b.d.A.M.h.M.}.i.w.i.w.h.F.d.l.b.Q.' I.Q.M..Xh.~.~.A.:.D k e V e J ",
"i k s S V M.K.K.K.0.i.Q.oXb.h.F.i.i.{.b.M.M.h.1.d.4.F.~.0.l.w._.d.b.i.h.M.K.d.F.A.A.0.A.b.h.4.b.w.~.b.b.b.A.h.{.0.i.D k S 9 S D ",
"s D c s V l.b.h.b.i.A.F.4.K.h.1.4.0.{..XK.F.h.d.h.Q.I.M.d.w.M.0.h.b.A.b.Q.F.l.d.l.l.b.F.d.&.h.K.F.A.F.oXh.Q.b.h.M.b.c V k s k s ",
"k S n 9 k M.1.K.l.w.l.M.b.l.d.A.b.h.b.}.w.w.w.0.h.A.d.l.l.I.' K.Q.M..Xh.~.Q.A.&.I.i.1.A.&._.0.l.}.b.F.{.F.b.4.d.w.Q.e S c k c S ",
"c V D k i b.i.l.Q.d.i.F.F.b.i.b.i.l.1.0.w.d.M.i.h.&.~.w.h.w.M.I.M.F.l.M.0.K.F.d.w.M.i.d.h.d.A.w.d.F.d.A._.h.w.b.b.d.c k i k V s ",
"n n c k c I.0.h.h.l.K.1.A.I.A.b.d.i.I.0.l.i.0.F.l.F.A.b.d.i.F.l.b.h.M.K.w.d.b.h.F.K.M.1.w.M.w.d.M.d.F.h.A.b.F.K.' Q.i k n k s S ",
"J n S n k _.b.&.l.K.b.i.l.{.h.d.Q.0.i.1.I.b.b.i.d.A.I.d.M.F.i.A.0.A.w.Q.I.h.b.h.b.M.A.b.F.w.M.l.F.F.K.A.b.b.l.h.b.0.V c k s k s ",
"s s k i V i.Q.oXd.K..XM.b.I.4.A.A.d.4.i.F.I.d.h.0.d.{.d.h.i.F.b.A.d.w.:.d.I.F.l.b.M.0.M.1.d.b.l.h.M.b.l.~.h.h.0.&.Q.V c s n i n ",
"n c c e e 4.I.l.h.A.l.l.M.l.l.d.M.0.A.w.Q.A.M.K.4.~.A.i.l.Q.K.M.h.K.F.Q.F.d.F.d.d.1.w.h.i.l.b.K.w.A.4.F.1.w.I.0.I.A.V V V c e S ",
"k i n k k M.i.~.4.w.A.K.M.K.K.I.@.i.b.b.l.l.i.A.:.1.:.Q.i.4.l.l.@.w...1.A.h.h.b.I.b.h.b.l.M.Q...b.i.w.&.d.F.w.1.F.K.e n S c D V ",
"k V n 9 s b.:.A.h.0.h.b.l.h.i.M.l.i.l._.w.0.w.4.d.M.w.h.l.K.( F.I.b.{.d.I.I.M.@.K.w.:.M.&.Q.4.h.{.l.A._.A.l.1.w.0.I.e V k k k S ",
"n n k V c d.i._.l.1.K.Q.M.i.b.i.d.b.h.:.F.M.w.l.A.d.d.b.i.h.w.Q.1.w.0.d.M.1.M.i.M.I.d.i.w.h.h.l.~.}.b.b.b.0.0.h.d.4.V 2 s c k n ",
"k c J n k b.i.:.I.4.4.h.4.h.:.w.K.d.b.w.l.h.b.h.h.l.w.w.M.F.A.0.d.0.M.h.0.d.A.M.@.4.0.b.d.4.h.l.0.K.4.w.w.K.M.w.I.F.S s e V s e ",
"U U k S V w.&.d.l.F.K.h.{.0.Q.K.Q.d.M.w.l.I.@.l.M.F.l.b.K.4.l.4.M.4.+.h.l.l.i.b.l.d.I.h.4.w.1.0.1.K.0.b.K.b.h.w.0.h.k e k V c S ",
"k 9 n k s l.F.4.i.i.4.d.I.d.4.b.+.M.4.A.Q.A.4.K.h.A.A.w.@.1.d.M.h.w.b.h.h.i.l.i.w.d.M.F.d.h.I.h.&.1.4.M.d.F.Q.d.:.~.c k V k c k ",
"c s k n k :.i.l.1.0.F.@.b.b.K.A.&...h.l.b.0.h.+.F.w.K.w.l.:.b.4.h.h.1.1.&.d.&.A.h.A.l.d.i.A.I.d.d.~.A.h.i.i.w.b.0.0.s c V V c e ",
"c c k i i 0.h.&.F.+.M.1.b.K.4.d.4.M.d.d.A.w.h.M.A.d.d.0.d.d.h.0.A.d.Q.d.+.w.i.l.h.Q.h.w.w.M.b.h.4.A.l.i.w.4.h.1.~.w.V n i s c c ",
"S V s c s h.l.b.d.b.4.b.d.M.b.A.b.h.h.h.w.h.1.b.d.w.0.>                     i l.l.M.d.b.M.l.b.M.&.M.F.i.0.l.F.h.l.h.V D k D c c ",
"k V n V n 0.b.0.w.:.4.i.0.d.h.A.4.l.:.b.&.4.A.1.A.b.b.2                     U w.M.K.4.M.F.&.i.+.l.4.i.M.0.w.w.:.i.@.D 4 s 9 S c ",
"n k c k n b.! A.:.w.h.w.0.M.w.M.b.b.i.l.M.M.d.d.i.i.0.4         V c k n k k @.i.b.l.i.0...h.i.4.i.4.0.F.b.0.0.I.d.b.k c n c S 4 ",
"D s 9 i V w.+.i.h.i.:.A.A.d.M.1.d.@.:.l.@.M.M.w.h.b.' >         l.:.d.A.i.d.M.b.&.K.1.M.b.&.4.i.i.A.4.1.4.d.&.d.h.0.c c c k i e ",
"k c s S 9 I.A.:.I.b.h.d.l.A.0.4.i.d.+.w.4.4.M.l.b.l.@.>         A.d.! l.w.0.h.w.l.0.0.1.F.1.M.4.A.0.h.@.0.@.l.h.w.h.k 4 c s i k ",
"i i c n c l.w.w.h.+.w.i.b.0.l.4.4.4.i.M.:.h.1.A.h.+.w.=         ' 1.l.d.M.d.l.0.&.d.i.+.l.&.d.+.:.4.M.1.w.:.b.' :.1.c e k c i i ",
"c c k k c 0.i.1.M.+.Q.M.&.w.h.i.0.l.K.l.w.M.4.i.d.l.A.>         b.&.w.i.h.b.@.h.F.d.1.0.d.h.i.0.w.4.0.I.b.F.1.:.l.b.D c i U s V ",
"e k 2 n i M.4.i.@.h.:.w.w.@.&.+.0.+.l.w.l.i.0.0.b.A.0.>         4.4.d.1.1.1.w.b.l.i.&.h.w.w.4.w...d.+.w.:.l.0.d.F.0.9 k k e n n ",
"n n s S e A.M.M.0.h.1.i.M.' i.d.l.i.d.b.&.i.&.h.&.( 0.>         0.M.w.&.1.@.:.@.b.:.i.M.i.w.1.:.w.4.+.4.h.0.M.w.w.w.s e s k i s ",
"k k i s e l...I.b.@.w.d.w.4.d.F.l.0.b.1.w.i.h.M.0.1.d.=                 ..A.i.:.0.i.h.w.4.0.4.4.K.l.A.:.&.l.l.F.d.1.J i V s 9 e ",
"s e k c 9 h.1...+.@.A.F.d.i.1.:.1.b.h.w.:.&.w.@.1.0.i.>                 Q ( 1.h.d.i.d.K.4.l.0.1.w.0.4.i.1.&.1.:.+.4.e e k s i k ",
"e i k 2 c &.w.0.i.d.+.@.@.' 1.h.h.&.w.d.0.' :.w.&.:.&.$         S c s c Q 1.1.i.h.0.:.i.i.:.i.4.w.h.1.:.1.d.b.0.w.1.s 9 e c 9 i ",
"s n e i i :.1.l.d.4...l.b.b.4.1.&.+.1.&.i.M.w.d.i.1.M.>         &.4.A.1.1.l.@.&.+.h.0.w.:.:.i.l.:.0.d.:.i.@.i.&.b.h.i s i s s k ",
"i s k c n i.0.0.0.M.:...+.1.+.( 1.1.l.0.@.d.&.4.:.0.A.>         ' ..b.1.d.0.@.h.@.&.l.+.:.@.&.K.d.d.1.1.1.h.+.4.1.0.k i i s s k ",
"e c e s 9 4.4.0.4.1.4.&.&.i.i.i.@.1.@.w.1.@.1.i.w.( +.=         0.@.h.+.&.&.h.w.&.l.d.h.:.+.i.:...&.1.w.! i.&.0.4.w.k 4 9 4 2 e ",
"i e s 4 > d.+.0.@.:.w.4...l.w.w.:.1.@.:.d.w.1.4.0.0.&.$         w.i.4.w.@.:.1.1.:.+.4.4.@.1.@.@.+.&.+.@.:.i.:.0.h.:.c 9 k 9 s 9 ",
"e e s s 9 ' &.4.w.M.1.&.4.1.:.4.' 0.:.4.:.1.1.h.h.( 1.>         +.w.h.w.i.1.@.w.4.0.:.d.d.Q d.1.i.&.1.4.:.i.4.( @.4.2 k e 9 i s ",
"i i i 9 i 4.0.@.&.&.&.+.@.+.+.i.d.0.:.0.0.0.0.4.4.0.i.$         &.@.@.@.:.:.@.1.0.0.&.:.:.&.! :.1.&.1.&.&.b.w.@.0.i.s i k i > s ",
"2 9 e i 2 ' 0.1.@.4.4.&.1.i.w.@.Q 0...@.@.:.Q 0.4.' 4.=                     k @.&.w.0.l.0.1.( 4.&.4...1.&.' ..4.w.0.9 e i i s e ",
"9 s i > i :.' :.:.Q w.A.4.! ( @.:.4.0.&.w.b.@.:.l...+.$                     c ' +.&.d.@.1...4.:.' @.@.:.&.w.1.l.+.4.e c i e s e ",
"i s e 4 s d.0.@.@.1...:.w.Q :.0.! &.4.&.' ( w.@.+...&.V k k i V i 9 e c s k Q 1.4.' 4.1.&...@.i.:.:.4.&.1.:.:.:.@...9 e e e 2 9 ",
"9 i s e k d.4.:.4.! :.1.4.i.( ..0...' +.1.h.+.w.+.+.w.0.:.+.4.( U 4.@.@.1.&.0.&...1.1.( 0...@.&.0.1.:.i...&.d.1.1...4 9 2 i 4 k ",
"9 e i 4 e &.+.( :.+.+.:.+.w.( ' 1.4.:.4.4.0.U ..&.&.&.@...:.! ! Q w...( &.@.U ' D ! :.+.+.&.0.&.+.&.@.:.w.D &...' Q 9 i 4 2 s s ",
"s 9 k 9 e :.' &.+...' &.@.@.:.4.w.1.&.@.&.i.' Q ( +.! J +.+.0.&.( 1.' @...&.i.:.1.&...i.Q Q w.@.1.&.' 4.( ' 0.! ..( 4 n s s 9 9 ",
"4 = 4 2 9 ..( @.( ..@.+.1.@.i.( @.( ..&.+.@.0.w.:...1.@.' &.D ' ! :.@.&.4.+.&.! :.' 1.@.4.d.&.! ' :.@.4.&.0.@.( 4.@.i 2 9 O e 9 ",
"9 4 i 9 9 :.' +.:.1.+.+.( ..+.@.( :.+.0.+.J ....&.+.w.+...' :.&.+.( :.&.....! +.! i.' 1.:.! ' &.@.....&.' ..+.U &.( 4 4 s i 4 9 ",
"e 9 e 4 > 1.Q Q +.! ..U ( 1.' @.( +.+.+.+...+.( ( &.:.&.! ' ! &...! ' &.&.J ! ( @...Q ..+.( :.! ( ( 1.&.( 4.:.1.' Q e 4 > 4 9 e ",
"4 c 2 9 > &.J &.' @.+.Q &...&.' ' ' ( ' +...! &.+.' &.+.' ' 0...Q :.4.@.' +.' ' +...U &.@.( +.@.' ' +.( ..( 4.U ! Q 9 e > e 4 e ",
"2 i > i 4 ( ' :.' ! Q ' ..:.( Q @.! :.( @.@.' ' ' &.' S +...D &.D Q +.:.:.U :.U +.4.( @.' ....&.1...4.&.! ..1.! ! ( e > 9 e 4 e ",
"i 9 O e 4 ( ..( +.( ( Q :.Q &.! &.! ..J ( J +.+.( +.' D +.( ! ' &.Q ! ( Q ' 1.' Q +.D @.U @.1.@.U &.' @.@.! D U ' +.4 4 e 4 9 2 ",
"9 4 4 9 4 &.' @.( ! ..Q 4.Q ' U ! ' ( ( ( ( Q U &.( ..' @.( 1.( ' 1...! ..! J &.J J ' U ( D Q &.! ..Q ' ' ..' ( ' Q 2 9 e 9 > 4 ",
"> 4 9 2 9 ....( Q U Q ' D &.S +.J ..&.U ( Q +.( ( +.Q ( +.@.' ( Q ( ( ' Q +.( :.( S ! ! ..' :.( ! Q +...( Q +...( ! > 4 > s 2 e ",
"4 > > e > ! Q ' ' Q ( ! ! @.( D S ! U U ! V J ' ' ! ' ( ! ..D ( ( D +.( U &.U +.( :.! ! @...( Q @.( U ! ! ! Q ( ( ! e > > s e > ",
"9 2 e 4 2 ' n U D ..! ( +.! ( J ' Q ..( +.:.' D U ' ( @.' +.! J @.( ..J ! k ( Q D D ( @.U D D ' ..' Q Q D ( J Q &.' 2 4 2 2 9 > ",
"e > i > 4 S ! S ! ( J ..Q U ! S n ..D ( U Q ' ! D +.( ' U Q J Q ..' Q ! ( ( U J S ' Q ..' ' ! ' J Q Q Q Q J ! ! U Q > > > > > > ",
"> 9 4 4 4 D +.( J Q ..' ! Q ' ' ..' U ' U U S J Q J ! Q ' D ( D ( S J ..D ..( ' ( ' Q S ..! Q U J ' ! @.U ' +.J ' ..= 2 $ 4 > 2 ",
"2 4 = $ 2 U Q ! J 1.V U ( ! ! ! ! U Q D ' V @.' S Q ( Q U ( +.( Q ' J Q ! ( ..Q J ( U J ' V U Q ( ' S ( +.Q D U ! ! 2 2 2 > > e ",
"2 > 4 = = 9 2 2 2 > $ = $ 4 9 = 2 = e > > > > 2 4 = 4 2 2 = 4 > > $ 2 = 9 2 2 2 2 > 9 = > 9 > 4 $ 4 9 4 9 9 2 = 4 > > 4 = e = 2 ",
"> 2 > > e 4 > 4 4 4 2 4 2 O 4 e 2 $ 2 2 9 $ = 4 4 2 = = > = 4 4 2 4 4 4 = = 4 e 2 > 4 = = 9 2 2 2 > $ = $ 4 9 = > = 9 > > > > 2 ",
"= = 2 4 2 X > 2 = = = = 2 4 2 > 4 2 4 > = > 2 > 2 $ 2 $ 4 > 2 > > 2 = 4 2 > 2 > 2 2 > 9 2 4 4 9 4 2 2 2 2 = 2 e 4 > > 9 9 = 2 2 ",
"> > O 4 e 2 O $ = > 2 2 > 4 e > > 9 = = = $ 2 > > 2 2 > = > $ 2 = = > 4 = 2 = 2 > $ = = > > 4 2 9 = 2 > 9 2 > 2 > 2 $ $ = 2 > $ ",
"> 9 = 2 = > = 9 > = = 4 = 2 > 2 $ = $ 2 4 4 > 2 > = 9 $ 4 4 > > = > 4 = > = = 4 4 2 2 > > 2 $ > > 4 > 2 = = = > 4 = 2 = 4 2 $ > "
};
