/* XPM */
static char *b2b39ddf8ff746fce0b5a36e8d9efeb5JAwNR3Tzg5Jf8vvL[] = {
/* columns rows colors chars-per-pixel */
"64 64 24 1 ",
"  c black",
". c #010101",
"X c #1D1D1D",
"o c #1E1E1E",
"O c #282828",
"+ c gray16",
"@ c #323232",
"# c gray20",
"$ c #343434",
"% c gray27",
"& c gray30",
"* c #535353",
"= c gray33",
"- c #555555",
"; c #6F6F6F",
": c gray44",
"> c #717171",
", c #767676",
"< c #7C7C7C",
"1 c gray51",
"2 c gray53",
"3 c #888888",
"4 c #898989",
"5 c gray54",
/* pixels */
"                                                                ",
"                                                                ",
"                                                                ",
"                                                                ",
"  333323333333333333333333333333333333333333333333333333323333  ",
"  333332333333333333333333333333333333333333333333333333233333  ",
"  333233333333333333333333333333333333333333333333333333332333  ",
"  333333333333333333333333333333333333333333333333333333333333  ",
"  333333333333333333333333333333333333333333333333333333333333  ",
"  333333333333333333333333333333333333333333333333333333333333  ",
"  333333333333333333333333333333333333333333333333333333333333  ",
"  333333333333333333333333333333333333333333333333333333333333  ",
"  333333333333333333333333333333333333333333333333333333333333  ",
"  333333333333333333333333333333333333333333333333333333333333  ",
"  333333333333333333333333333333333333333333333333333333333333  ",
"  333333333333333333333333333333333333333333333333333333333333  ",
"  333333333333333333333333333333333333333333333333333333333333  ",
"  333333333333333333333333333333333333333333333333333333333333  ",
"  333333333333333333333333333333333322333333333333333333333333  ",
"  333333333333333333333333333333333333233333333333333333333333  ",
"  333333333333333333333333333333333233333333333333333333333333  ",
"  3333333333333333333333333333331>;>><333333333333333333333333  ",
"  333333333333333333333333333333>    -333333333333333333333333  ",
"  333333333333333333333333333333>    -333333333333333333333333  ",
"  3333333333333333333333233333-      -333333333333333333333333  ",
"  3333333333333333333333233323-      -333333333333333333333333  ",
"  33333333333333333333333332&#X-%    -333333333333333333333333  ",
"  33333333333333333333333323#  3>    -323333333333333333333333  ",
"  333333333333333333333333--O$$3>    -333333333333333333333333  ",
"  333333333333333333333332  #323>    -233333333333333333333333  ",
"  333333333333333333333323  $233>    *323333333333333333333333  ",
"  3333333333333333333333  %>,333>    -333333333333333333333333  ",
"  3333333333333333333333  -33333;    -333333333333333333333333  ",
"  3333333333333333333333  X###$#O    X#&3333333333333333333333  ",
"  3333333333333333333333               #3333333333333333333333  ",
"  3333333333333333333333#####$##O    X#&3333333333333333333333  ",
"  333333333333333333333333333333>    -333333333333333333333333  ",
"  333333333333333333333333333233>    *233333333333333333333333  ",
"  333333333333333333333332333333>    -333333333333333333333333  ",
"  333333333333333333333332333333>    *333333333333333333333333  ",
"  333333333333333333333333333333>    -333333333333333333333333  ",
"  333333333333333333333333333333>    -333333333333333333333333  ",
"  333333333333333333333333333333<-*-->333333333333333333333333  ",
"  333333333333333333333333333333323233233333333333333333333333  ",
"  333333333333333333333333333333333332333333333333333333333333  ",
"  333333333333333333333333333333333333233333333333333333333333  ",
"  333333333333333333333333333333333333333333333333333333333333  ",
"  333333333333333333333333333333323333333333333333333333333333  ",
"  333333333333333333333333333333333333333333333333333333333333  ",
"  333333333333333333333333333333333333333333333333333333333333  ",
"  333333333333333333333333333333333333333333333333333333333333  ",
"  333333333333333333333333333333333333333333333333333333333333  ",
"  333333333333333333333333333333333333333333333333333333333333  ",
"  333333333333333333333333333333333333333333333333333333333333  ",
"  333333333333333333333333333333333333333333333333333333333333  ",
"  333333333333333333333333333333333333333333333333333333333333  ",
"  333333333333333333333333333333333333333333333333333333333333  ",
"  333233333333333333333333333333333333333333333333333333332333  ",
"  333332333333333333333333333333333333333333333333333333233333  ",
"  333323333333333333333333333333333333333333333333333333323333  ",
"                                                                ",
"                                                                ",
"                                                                ",
"                                                                "
};
