/* XPM */
static char *_022fcceadc240cfa7baac98b9875ce7WvxRUvZQyUc5Wz4s[] = {
/* columns rows colors chars-per-pixel */
"64 64 21 1 ",
"  c black",
". c #010101",
"X c gray16",
"o c #323232",
"O c gray20",
"+ c gray27",
"@ c #535353",
"# c gray33",
"$ c gray36",
"% c gray39",
"& c #6F6F6F",
"* c gray44",
"= c #717171",
"- c #767676",
"; c #777777",
": c #7C7C7C",
"> c gray49",
", c #868686",
"< c gray53",
"1 c #888888",
"2 c #898989",
/* pixels */
"                                                                ",
"                                                                ",
"                                                                ",
"                                                                ",
"  1111<11111111111111111111111111111111111111111111111111<1111  ",
"  11111<111111111111111111111111111111111111111111111111<11111  ",
"  111<1111111111111111111111111111111111111111111111111111<111  ",
"  111111111111111111111111111111111111111111111111111111111111  ",
"  111111111111111111111111111111111111111111111111111111111111  ",
"  111111111111111111111111111111111111111111111111111111111111  ",
"  111111111111111111111111111111111111111111111111111111111111  ",
"  111111111111111111111111111111111111111111111111111111111111  ",
"  111111111111111111111111111111111111111111111111111111111111  ",
"  111111111111111111111111111111111111111111111111111111111111  ",
"  111111111111111111111111111111111111111111111111111111111111  ",
"  111111111111111111111111111111111111111111111111111111111111  ",
"  1111111111111111111111111<11111111<1111111111111111111111111  ",
"  111111111111111111111111111111111111111111111111111111111111  ",
"  1111111111111111111111111<11111111<1111111111111111111111111  ",
"  111111111111111111111111111111111111111111111111111111111111  ",
"  111111111111111111111111<111<11<111<111111111111111111111111  ",
"  11111111111111111111111;**&******&**;11111111111111111111111  ",
"  11111111111111111111111o            o11111111111111111111111  ",
"  11111111111111111111111o            o11111111111111111111111  ",
"  11111111111111111111111;*****$    +&;11111111111111111111111  ",
"  1111111111111111111111111<111&    #11<1111111111111111111111  ",
"  11111111111111111111111111<%oX  +#&1111111111111111111111111  ",
"  111111111111111111111111111#    *111111111111111111111111111  ",
"  111111111111111111111111<>*+    $*>1<11111111111111111111111  ",
"  11111111111111111111111<1#        #1111111111111111111111111  ",
"  1111111111111111111111111@        #1<11111111111111111111111  ",
"  1111111111111111111111111>&****$    o11111111111111111111111  ",
"  111111111111111111111111<1<1111*    o11111111111111111111111  ",
"  1111111111111111111111111111111*    o11111111111111111111111  ",
"  1111111111111111111111111111111*    o11111111111111111111111  ",
"  1111111111111111111111111111111*    o11111111111111111111111  ",
"  11111111111111111111111<1111111*    o11111111111111111111111  ",
"  11111111111111111111111;**11111*    o11111111111111111111111  ",
"  11111111111111111111111o  11111*    o11111111111111111111111  ",
"  11111111111111111111111o  <1111*    o11111111111111111111111  ",
"  11111111111111111111111;*+        +*;11111111111111111111111  ",
"  11111111111111111111111<1#        #1<11111111111111111111111  ",
"  11111111111111111111111<1&########&1<11111111111111111111111  ",
"  1111111111111111111111<1111<1111<1111<1111111111111111111111  ",
"  111111111111111111111111<1<111111<1<111111111111111111111111  ",
"  1111111111111111111111<11<11111111<11<1111111111111111111111  ",
"  111111111111111111111111111111111111111111111111111111111111  ",
"  11111111111111111111111<111111111111<11111111111111111111111  ",
"  111111111111111111111111111111111111111111111111111111111111  ",
"  111111111111111111111111111111111111111111111111111111111111  ",
"  111111111111111111111111111111111111111111111111111111111111  ",
"  111111111111111111111111111111111111111111111111111111111111  ",
"  111111111111111111111111111111111111111111111111111111111111  ",
"  111111111111111111111111111111111111111111111111111111111111  ",
"  111111111111111111111111111111111111111111111111111111111111  ",
"  111111111111111111111111111111111111111111111111111111111111  ",
"  111111111111111111111111111111111111111111111111111111111111  ",
"  111<1111111111111111111111111111111111111111111111111111<111  ",
"  11111<111111111111111111111111111111111111111111111111<11111  ",
"  1111<11111111111111111111111111111111111111111111111111<1111  ",
"                                                                ",
"                                                                ",
"                                                                ",
"                                                                "
};
