/* XPM */
static char *_78a0ccfde9b46538f2bb5764636cea8eKi5N9jVNLXc41EZ[] = {
/* columns rows colors chars-per-pixel */
"64 64 15 1 ",
"  c black",
". c #010101",
"X c gray20",
"o c #535353",
"O c gray33",
"+ c #555555",
"@ c #646464",
"# c #6F6F6F",
"$ c gray44",
"% c #717171",
"& c #7C7C7C",
"* c gray51",
"= c gray53",
"- c #888888",
"; c #898989",
/* pixels */
"                                                                ",
"                                                                ",
"                                                                ",
"                                                                ",
"  ----=--------------------------------------------------=----  ",
"  -----=------------------------------------------------=-----  ",
"  ---=----------------------------------------------------=---  ",
"  ------------------------------------------------------------  ",
"  ------------------------------------------------------------  ",
"  ------------------------------------------------------------  ",
"  ------------------------------------------------------------  ",
"  ------------------------------------------------------------  ",
"  ------------------------------------------------------------  ",
"  ------------------------------------------------------------  ",
"  ------------------------------------------------------------  ",
"  ------------------------------------------------------------  ",
"  -----------------------=-=-----=----------------------------  ",
"  ------------------------------=--=--------------------------  ",
"  ------------------------=-------=----=----------------------  ",
"  ------------------------------==--=-------------------------  ",
"  -----------------------=--------=---=-----------------------  ",
"  ----------------------------&$#$$*--------------------------  ",
"  -----------------------=----O    #--=-----------------------  ",
"  ----------------------------O    $--------------------------  ",
"  ------------------------X        $--------------------------  ",
"  ----------------------=-X        $--------------------------  ",
"  ------------------------@oOOX    $--------------------------  ",
"  ----------------------=-----O    $--------------------------  ",
"  ------------------------=-=-O    $--------------------------  ",
"  ----------------------------O    $--------------------------  ",
"  -------------------------=--O    $--------------------------  ",
"  ---------------------------=O    $--------------------------  ",
"  ----------------------------O    $--------------------------  ",
"  ----------------------------O    $--------------------------  ",
"  ----------------------------O    $--------------------------  ",
"  ----------------------------O    $--------------------------  ",
"  ----------------------------O    $--------------------------  ",
"  ----------------------------O    $--------------------------  ",
"  ----------------------------O    $--------------------------  ",
"  ----------------------------O    $--------------------------  ",
"  ----------------------------O    $--------------------------  ",
"  -------------------------=--O    $--=-----------------------  ",
"  ----------------------=----=$OOoO&--------------------------  ",
"  -----------------------=----=-=--=---=----------------------  ",
"  --------------------------=-----=---------------------------  ",
"  ------------------------------------------------------------  ",
"  --------------------------------=---------------------------  ",
"  -----------------------=-------=----------------------------  ",
"  ------------------------------------------------------------  ",
"  ------------------------------------------------------------  ",
"  ------------------------------------------------------------  ",
"  ------------------------------------------------------------  ",
"  ------------------------------------------------------------  ",
"  ------------------------------------------------------------  ",
"  ------------------------------------------------------------  ",
"  ------------------------------------------------------------  ",
"  ------------------------------------------------------------  ",
"  ---=----------------------------------------------------=---  ",
"  -----=------------------------------------------------=-----  ",
"  ----=--------------------------------------------------=----  ",
"                                                                ",
"                                                                ",
"                                                                ",
"                                                                "
};
