/* XPM */
static char *bcb2042de18a41e5b1407db19bc0484aPRgPoDD6xTBR0XxY[] = {
/* columns rows colors chars-per-pixel */
"64 64 191 2 ",
"   c black",
".  c #010101",
"X  c #070707",
"o  c gray5",
"O  c gray9",
"+  c #191919",
"@  c gray10",
"#  c #1B1B1B",
"$  c gray11",
"%  c #1D1D1D",
"&  c #1E1E1E",
"*  c gray12",
"=  c #202020",
"-  c gray13",
";  c #222222",
":  c #232323",
">  c gray14",
",  c #252525",
"<  c gray15",
"1  c #272727",
"2  c #282828",
"3  c gray16",
"4  c #2A2A2A",
"5  c gray17",
"6  c #2C2C2C",
"7  c #2D2D2D",
"8  c gray18",
"9  c #2F2F2F",
"0  c gray19",
"q  c #313131",
"w  c #323232",
"e  c gray20",
"r  c #343434",
"t  c #353535",
"y  c gray21",
"u  c #373737",
"i  c gray22",
"p  c #393939",
"a  c #3A3A3A",
"s  c gray23",
"d  c #3C3C3C",
"f  c gray24",
"g  c #3E3E3E",
"h  c #3F3F3F",
"j  c gray25",
"k  c #414141",
"l  c gray26",
"z  c #434343",
"x  c #444444",
"c  c gray27",
"v  c #464646",
"b  c gray28",
"n  c #484848",
"m  c #494949",
"M  c gray29",
"N  c #4B4B4B",
"B  c #4C4C4C",
"V  c gray30",
"C  c #4E4E4E",
"Z  c gray31",
"A  c #505050",
"S  c #515151",
"D  c gray32",
"F  c #535353",
"G  c gray33",
"H  c #555555",
"J  c #565656",
"K  c gray34",
"L  c #585858",
"P  c gray35",
"I  c #5A5A5A",
"U  c #5B5B5B",
"Y  c gray36",
"T  c #5D5D5D",
"R  c gray37",
"E  c #5F5F5F",
"W  c #606060",
"Q  c gray38",
"!  c #626262",
"~  c gray39",
"^  c #646464",
"/  c #656565",
"(  c gray40",
")  c #676767",
"_  c #686868",
"`  c DimGray",
"'  c #6A6A6A",
"]  c gray42",
"[  c #6C6C6C",
"{  c #6D6D6D",
"}  c gray43",
"|  c #6F6F6F",
" . c gray44",
".. c #717171",
"X. c #727272",
"o. c gray45",
"O. c #747474",
"+. c gray46",
"@. c #767676",
"#. c #777777",
"$. c gray47",
"%. c #797979",
"&. c gray48",
"*. c #7B7B7B",
"=. c #7C7C7C",
"-. c gray49",
";. c #7E7E7E",
":. c gray50",
">. c #808080",
",. c #818181",
"<. c gray51",
"1. c #838383",
"2. c #848484",
"3. c gray52",
"4. c #868686",
"5. c gray53",
"6. c #888888",
"7. c #898989",
"8. c gray54",
"9. c #8B8B8B",
"0. c gray55",
"q. c #8D8D8D",
"w. c #8E8E8E",
"e. c gray56",
"r. c #909090",
"t. c gray57",
"y. c #929292",
"u. c #939393",
"i. c gray58",
"p. c #959595",
"a. c gray59",
"s. c #979797",
"d. c #989898",
"f. c gray60",
"g. c #9A9A9A",
"h. c #9B9B9B",
"j. c gray61",
"k. c #9D9D9D",
"l. c gray62",
"z. c #9F9F9F",
"x. c #A0A0A0",
"c. c gray63",
"v. c #A2A2A2",
"b. c gray64",
"n. c #A4A4A4",
"m. c #A5A5A5",
"M. c gray65",
"N. c #A7A7A7",
"B. c gray66",
"V. c #A9A9A9",
"C. c #AAAAAA",
"Z. c gray67",
"A. c #ACACAC",
"S. c gray68",
"D. c #AEAEAE",
"F. c #AFAFAF",
"G. c gray69",
"H. c #B1B1B1",
"J. c #B2B2B2",
"K. c gray70",
"L. c #B4B4B4",
"P. c gray71",
"I. c #B6B6B6",
"U. c #B7B7B7",
"Y. c gray72",
"T. c #B9B9B9",
"R. c gray73",
"E. c #BBBBBB",
"W. c #BCBCBC",
"Q. c gray74",
"!. c gray",
"~. c gray75",
"^. c #C0C0C0",
"/. c #C1C1C1",
"(. c gray76",
"). c #C3C3C3",
"_. c gray77",
"`. c #C5C5C5",
"'. c #C6C6C6",
"]. c gray78",
"[. c #C8C8C8",
"{. c gray79",
"}. c #CACACA",
"|. c #CBCBCB",
" X c #CDCDCD",
".X c gray81",
"XX c #D0D0D0",
"oX c gray82",
"OX c LightGray",
"+X c gray83",
"@X c #D7D7D7",
/* pixels */
"F f M b F a z t Z G F b M z f L t G F M M f z G f b z f F G Z F b b Z t b M F z F z z z b G f Z z G Z t b z f M M z q z Z M F M ",
"F Z F M Z f z b b b f M M f b f f a z a f z F b M L z L f F f M f L z z z F f M z Z f z t Z G F b M z f L t L F M M f z G f b z ",
"F b b M f Z f M a F F F b a f z M t a Z M z M M b M G G z q Z a z z b 6 Z Z a Z b G b f a Z Z f b M F M z z F F T Z M t Z b Z f ",
"Z M t f a z b Z T Z M b G f b b z b G F b t G L L z b z a z f Z T Z F Z z L M q b F M f b T z z G f f a G M M f z Z G z M F f Z ",
"b z z z z f f G G Z b Z F Z F M M Z G b z G Z f b z z z b b f M Z Z z b b z q b b z M z z T F z F G Z M F M 6 Z ~ Z t M M G a f ",
"L Z G b f P.D.H.x./.~.$.~.m.~.k.m.B.k.Y.D.,.g.B.3.P.x.r.x.D.B.m.g.D.B.k.B. Xa.r.a.r.k.H.g.x.m.~.[ Y.~.B.oXk././.D.,.G z t Z t L ",
"a z f F Z B.P.P.P.w.a.~.+Xm.k.H.a.a.|.m.B.B.k.3.g.6.H./.w.x.r.'.g.m.a.k.B.P.g.H.D.D.w.D.m.k.6.m.r./.m.m.m.D.k.|.w.a.G z F q F G ",
"f G b f Z x.m.k.m.a.D.H.6.P.k.3.6.w.|.oXP.H.k.g.k.~.Y.B.g.r.B.w.k.m.D.m.~.H.x.g.x.x.m.H.g.=.k.P.H.D.H.+Xk.~.m.k.B.m.b Z z f z f ",
"z F M q z B.3.P.x.r.x.B.m.x.g.D.m.k.m. Xr.r.r.w.k.D.g.x.x.Y.[ P.~.B.oXk./.~.D.=.Y.a.3.D.=.'.w.x. Xm.H.|.H.m.6.g.r.~.t F b z b F ",
"b Z G z a m.a.x.~.g.a.H.H.m.a.m.a.x.3.w.r.g.B.a.k.=./.r.k.r.B.Y.B.H.x.B.w.P.H.g.r.B.a.g.k.g.D.r.g.H.g.D.'.k.r.m.m.g.b z a z Z f ",
"M M b z b Y.w.k.k.x.P.3.D.Y.D.m.g.a.Y.w.x.a.w.H.x.H.D.m.g.a.H.x.m.k.B.P.r.g.m.k.H.P.B.3.r.B.r.g.B.g.H.k.D.m.H.P.[ ~.a z M z f F ",
"L M F M z '.m.=.x.P.m.a.x.|.k.g.~.w.a.3.Y.m.m.a.g.D.Y.g.B.H.a.D.w.D.r.~.Y.k.m.k.m.B.D.m.H.r.B.x.H.H.P.D.m.m.x.k.m.w.Z b z f z f ",
"f f z a Z a.~.+Xg.P.oXB.m.Y.6.D.D.g.6.a.H.Y.g.k.w.g.|.g.k.a.H.m.D.g.r.,.g.Y.H.x.m.B.w.B.3.g.m.x.k.B.m.x./.k.k.w.=.~.Z b f M a M ",
"M b b t t 6.Y.x.k.D.x.x.B.x.x.g.B.w.D.r.~.D.B.P.6./.D.a.x.~.P.B.k.P.H.~.H.g.H.g.g.3.r.k.a.x.m.P.r.D.6.H.3.r.Y.w.Y.D.Z Z Z b t F ",
"z a M z z B.a./.6.r.D.P.B.P.P.Y.$.a.m.m.x.x.a.D.,.3.,.~.a.6.x.x.$.r.o.3.D.k.k.m.Y.m.k.m.x.B.~.o.m.a.r.=.g.H.r.3.H.P.t M F b G Z ",
"z Z M q f m.,.D.k.w.k.m.x.k.a.B.x.a.x.'.r.w.r.6.g.B.r.k.x.P._ H.Y.m.|.g.Y.Y.B.$.P.r.,.B.=.~.6.k.|.x.D.'.D.x.3.r.w.Y.t Z z z z F ",
"M M z Z b g.a.'.x.3.P.~.B.a.m.a.g.m.k.,.H.B.r.x.D.g.g.m.r.k.r./.3.w.w.g.B.3.B.a.B.Y.g.a.r.k.k.x./. Xm.m.m.w.w.k.g.6.Z 4 f b z M ",
"z b L M z m.a.,.Y.6.6.k.6.k.,.r.P.g.m.r.x.k.m.k.k.x.r.r.B.H.D.6.g.6.B.k.w.g.D.B.$.6.w.m.g.6.k.x.w.P.6.r.r.P.B.r.Y.H.F f t Z f t ",
"T T z F Z r.=.g.x.H.P.k.|.w.~.P.~.g.B.r.x.Y.$.x.m.H.x.m.H.w.x.6.B.w.o.k.m.x.a.m.x.g.Y.k.6.r.3.w.3.P.w.m.P.m.k.r.w.k.z t z Z b F ",
"z q M z f x.H.6.a.a.6.g.Y.g.6.m.#.B.6.D.~.D.6.P.k.D.D.r.$.6.g.B.k.r.m.k.k.a.x.a.r.g.B.H.g.k.Y.k.=.3.6.B.g.H.~.g.,./.b z Z z b z ",
"b f z M z ,.a.x.3.w.H.$.m.m.P.D.=.o.k.x.m.w.k.#.D.r.P.r.x.,.m.6.k.k.,.3.=.a.=.D.k.D.x.g.a.D.Y.g.g./.D.k.a.a.r.m.w.w.f b Z Z b t ",
"b b z a a w.k.=.H.#.B.3.m.P.6.g.6.B.g.g.D.r.k.B.,.o.=.w.g.g.k.w.D.g.~.g.#.[ [ 3.k.~.k.r.r.B.m.k.6.D.x.a.r.6.k.3./.r.Z M a f b b ",
"F Z f b f k.x.m.g.m.6.m.g.B.m.D.m.k.k.k.r.k.3.m.    : a.w.a.o.,.r.6.3.H.m.    4 x.B.g.m.B.x.m.B.=.B.H.a.w.x.H.k.x.k.Z G z G b b ",
"z Z M Z M w.m.w.r.,.6.a.w.g.k.D.6.x.,.m.=.6.D.3.    4 m.B.g.=.H.x.g.a.w.B.    < B.P.6.B.H.=.a.#.x.6.a.B.w.r.r.,.a.$.G 6 f q F b ",
"M z b z M m.^ D.,.r.k.r.w.B.r.B.m.m.a.x.B.m.g.g.        4 6.B.3.k.6.3.a.,.    < m.x.a.w.o.k.a.6.a.6.w.H.m.w.w.Y.g.m.z b M b F 6 ",
"G f q a Z r.#.a.k.a.,.D.D.g.B.3.g.$.,.x.$.B.B.r.        6 g.w.$.x.,.g.D.a.    4 =.P.3.B.m.=.6.a.a.D.6.3.6.g.=.g.k.w.b b b z a t ",
"z b f F q Y.D.,.Y.m.k.g.x.D.w.6.a.g.$.a.6.6.B.x.        X < < k.B.g.^ x.a.    < x.w.w.3.H.3.B.6.D.w.k.$.w.$.x.k.r.k.z 6 b f a z ",
"a a b M b x.r.r.k.#.r.a.m.w.x.6.6.6.a.B.,.k.3.D.              w.[ 3.x.k.B.    < =.g.a.#.x.=.g.#.,.6.B.3.r.,.m.[ ,.3.b t z b a a ",
"b b z z b w.a.3.B.#.~.B.=.r.k.a.w.k.P.x.r.B.6.a.              b F =.r.r.x.    < H.g.3.w.g.k.a.w.r.6.w.Y.m.H.3.,.x.m.G b a T f Z ",
"t z 4 M a B.6.a.$.k.,.r.r.$.=.#.w.#.x.r.x.a.w.w.                  3.g.3.3.    4 x.a.=.k.r.r.6.r.o.g.#.r.,.x.w.g.H.w.q z z t M M ",
"M M f F t D.B.B.w.k.3.a.B.[ a.g.x.a.g.m.=.a.=.k.                  =._ #.3.    & m.,.a.B.a.r.3.,.r.6.#.6.k.w.B.r.r.r.f t f z a f ",
"z z a f t x.o.Y.m.$.r.g.r.6.g.H.x.w.m.3.r.a.k.B.    < 6.:             L g.    & w.a.k.r.6.w.6.6.P.x.D.,.=.x.x.H.g.3.L a Z f q t ",
"f t z b q k.3.o.#.$.D.H.g.a.3.,.3.m.k.r.,.=.r.$.    < 6.4             o.,.    < g.a.g.P.6.x.w.3.r.w.6.a.3.=.3.,.#.6.t t z f a z ",
"t a z 4 b =.r.w.a.g.#.$.$.[ 3.k.k.=.r.g.w.[ ,.r.    & #.6.T 4                 < k.w.,.a.a.,.a.6.r.k.3.,.3.g.m.w.r.3.f q t b q a ",
"f M t a a ,.3.x.g.6.o.x.m.m.6.3.=.#.3.=.a.B.r.g.    6 w._ 6.Z                 : #.k.w.r.,.,.a.x.,.w.g.,.a.$.a.=.m.k.a f a f f z ",
"a f z b M a.w.w.w.B.,.o.#.3.#._ 3.3.x.w.$.g.=.6.    4 r.g.w.F 4 o             < $.=.x.#.,.$.=.P.g.g.3.3.3.k.#.6.3.w.z a a f f z ",
"t b t f q 6.6.w.6.3.6.=.=.a.a.a.$.3.$.r.3.$.3.a.    & $.r.3.#.3.b             < =.x.g.k.,.#.a.,.o.=.3.r.^ a.=.w.6.r.z 6 q 6 4 t ",
"a t f 6 < g.#.w.$.,.r.6.o.x.r.r.,.3.$.,.g.r.3.6.    & $.o.r.3.a.M             : ,.#.6.6.$.3.$.$.#.=.#.$.,.a.,.w.k.,.b q z q f q ",
"t t f f q [ =.6.r.B.3.=.6.3.,.6.[ w.,.6.,.3.3.k.    : r.a.o.w.6.#.r.$.        < 6.w.,.g.g.~ g.3.a.=.3.6.,.a.6._ $.6.4 z t q a f ",
"a a a q a 6.w.$.=.=.=.#.$.#.#.a.g.w.,.w.w.w.w.6.    < ,.=.g.w.$.=.$.T         : w.w.=.,.,.=.^ ,.3.=.3.=.=.m.r.$.w.a.f a z a < f ",
"4 q t a 4 [ w.3.$.6.6.=.3.a.r.$.~ w.o.$.$.,.~ w.    < ,.g.=.#.[ 6.6.[ T ~     & =.r.w.x.w.3._ 6.=.6.o.3.=.[ o.6.r.w.q t a a f t ",
"q f a < a ,.[ ,.,.~ r.D.6.^ _ $.,.6.w.=.r.m.$.,.    & #.^ w.,.,.3.r.=.o.=.    & #.=.g.$.3.o.6.,.[ $.$.,.=.r.3.x.#.6.t b a t f t ",
"a f t 6 f g.w.$.$.3.o.,.r.~ ,.w.^ =.6.=.[ _ r.$.a a F $.3.=.#.a.$.^ _ 6.$.z z G 6.[ 6.3.=.o.$.a.,.,.6.=.3.,.,.,.$.o.q t t t 4 q ",
"q a f t z g.6.,.6.^ ,.3.6.a._ o.w.o.[ #.3.k.#.r.#.#.w.w.,.#.6.[ T 6.$.$.3.=.6.=.o.3.3._ w.o.$.=.w.3.,.a.o.=.g.3.3.o.6 q 4 a 6 z ",
"q t a 6 t =.#._ ,.#.#.,.#.r._ [ 3.6.,.6.6.w.T o.=.=.=.$.o.,.^ ^ ~ r.o._ =.$.T [ G ^ ,.#.#.=.w.=.#.=.$.,.r.G =.o.[ ~ q a 6 4 f f ",
"f q z q t ,.[ =.#.o.[ =.$.$.,.6.r.3.=.$.=.a.o.^ _ #.^ L #.#.w.=._ 3.[ $.o.=.g.=.3.=.o.a.~ ~ r.$.3.=.[ 6._ [ w.^ o._ 6 M f f q q ",
"6 : 6 4 q o._ $._ o.$.#.3.$.a._ $._ o.=.#.$.w.r.,.[ 3.$.[ =.G [ ^ ,.$.=.6.#.$._ ,.[ 3.$.6.g.=.^ [ ,.$.6.=.w.$._ 6.$.a 4 q @ t q ",
"q 6 a q q ,.[ #.,.3.#.#._ o.#.$._ ,.#.w.#.L o.o.=.#.r.#.[ [ ,.=.#._ ,.=.o.o._ #.^ a.[ 3.,.^ [ =.$.o.o.=.[ o.#.T =._ 6 6 f a 6 q ",
"t q t 6 < 3.~ ~ #.^ o.T _ 3.[ $._ #.#.#.#.o.#._ _ =.,.=.^ [ ^ =.o.^ [ =.=.L ^ _ $.o.~ o.#._ ,.^ _ _ 3.=._ 6.,.3.[ ~ t 6 < 6 q t ",
"6 b 4 q < =.L =.[ $.#.~ =.o.=.[ [ [ _ [ #.o.^ =.#.[ =.#.[ [ w.o.~ ,.6.$.[ #.[ [ #.o.T =.$._ #.$.[ [ #._ o._ 6.T ^ ~ q t < t 6 t ",
"4 a < a 6 _ [ ,.[ ^ ~ [ o.,._ ~ $.^ ,._ $.$.[ [ [ =.[ F #.o.G =.G ~ #.,.,.T ,.T #.6._ $.[ o.o.=.3.o.6.=.^ o.3.^ ^ _ t < q t 6 t ",
"a q @ t 6 _ o._ #._ _ ~ ,.~ =.^ =.^ o.L _ L #.#._ #.[ G #._ ^ [ =.~ ^ _ ~ [ 3.[ ~ #.G $.T $.3.$.T =.[ $.$.^ G T [ #.6 6 t 6 q 4 ",
"q 6 6 q 6 =.[ $._ ^ o.~ 6.~ [ T ^ [ _ _ _ _ ~ T =._ o.[ $._ 3._ [ 3.o.^ o.^ L =.L L [ T _ G ~ =.^ o.~ [ [ o.[ _ [ ~ 4 q t q < 6 ",
"< 6 q 4 q o.o._ ~ T ~ [ G =.F #.L o.=.T _ ~ #._ _ #.~ _ #.$._ _ ~ _ _ [ ~ #._ ,._ F ^ ^ o.[ ,._ ^ ~ #.o._ ~ #.o._ ^ < 6 < f 4 t ",
"6 < < t < ^ ~ [ [ ~ _ ^ ^ $._ G F ^ T T ^ Z L [ [ ^ o._ ^ o.G _ _ G #._ T =.T #._ ,.^ ^ $.o._ ~ $._ T ^ ^ ^ ~ _ _ ^ t < < f t < ",
"q 4 t 6 4 [ M T G o.^ _ #.^ _ L [ ~ o._ #.,.[ G T [ _ $.[ #.^ L $._ o.L ^ z _ ~ G G _ $.T G G [ o.[ ~ ~ G _ L ~ =.[ 4 6 4 4 q < ",
"t < a < 6 F ^ F ^ _ L o.~ T ^ F M o.G _ T ~ [ ^ G #._ [ T ~ L ~ o.[ ~ ^ _ _ T L F [ ~ o.[ [ ^ [ L ~ ~ ~ ~ L ^ ^ T ~ < < < < < < ",
"< q 6 6 6 G #._ L ~ o.[ ^ ~ [ [ o.[ T [ T T F L ~ L ^ ~ [ G _ G _ F L o.G o._ [ _ [ ~ F o.^ ~ T L [ ^ $.T [ #.L [ o.: 4 & 6 < 4 ",
"4 6 : & 4 T ~ ^ L 3.Z T _ ^ ^ ^ ^ T ~ G [ Z $.[ F ~ _ ~ T _ #._ ~ [ L ~ ^ _ o.~ L _ T L [ Z T ~ _ [ F _ #.~ G T ^ ^ 4 4 4 < < t ",
"4 < 6 : : q 4 4 4 < & : & 6 q : 4 : t < < < < 4 6 : 6 4 4 : 6 < < & 4 : q 4 4 4 4 < q : < q < 6 & 6 q 6 q q 4 : 6 < < 6 : t : 4 ",
"< 4 < < t 6 < 6 6 6 4 6 4 @ 6 t 4 & 4 4 q & : 6 6 4 : : < : 6 6 4 6 6 6 : : 6 t 4 < 6 : : q 4 4 4 < & : & 6 q : < : q < < < < 4 ",
": : 4 6 4 O < 4 : : : : 4 6 4 < 6 4 6 < : < 4 < 4 & 4 & 6 < 4 < < 4 : 6 < : 4 < 4 4 < q 4 6 6 q 6 4 4 4 4 : 4 t 6 < < q q : 4 4 ",
"< < @ 6 t 4 @ & : < 4 4 < 6 t < < q : : : & 4 < < 4 4 < : < & 4 : : < 6 : 4 : 4 < & : : < < 6 4 q : 4 < q 4 < 4 < 4 & & : 4 < & ",
"< q : 4 : < : q < : : 6 : 4 < 4 & : & 4 6 6 < 4 < : q & 6 6 < < : < 6 : < : : 6 6 4 4 < < 4 & < < 6 < 4 : : : < 6 : 4 : 6 4 & < "
};
