/* XPM */
static char *result[] = {
/* columns rows colors chars-per-pixel */
"64 64 256 2 ",
"   c #020202",
".  c #090503",
"X  c #060903",
"o  c #0B0B04",
"O  c #0B0A08",
"+  c #120D04",
"@  c #180E05",
"#  c #0E1305",
"$  c #141205",
"%  c #1B1405",
"&  c #1C1A06",
"*  c #141209",
"=  c #1C1B09",
"-  c #181808",
";  c #1A1A10",
":  c #231503",
">  c #241B05",
",  c #2B1C05",
"<  c #231C0A",
"1  c #291B09",
"2  c #321E04",
"3  c #331F08",
"4  c #1D2409",
"5  c #2C2406",
"6  c #24230B",
"7  c #2C240A",
"8  c #252C0B",
"9  c #2C2B0B",
"0  c #262706",
"q  c #342305",
"w  c #3A2505",
"e  c #332905",
"r  c #3C2B06",
"t  c #33240A",
"y  c #342B0A",
"u  c #3C2A09",
"i  c #3C250A",
"p  c #2B360A",
"a  c #3C320B",
"s  c #38370A",
"d  c #2A2813",
"f  c #332C14",
"g  c #383813",
"h  c #2C3311",
"j  c #3F3D20",
"k  c #432C06",
"l  c #432D0A",
"z  c #472A07",
"x  c #433305",
"c  c #4B3306",
"v  c #4C3A05",
"b  c #44340B",
"n  c #4C330A",
"m  c #453B0B",
"M  c #4B3B0B",
"N  c #433B07",
"B  c #533406",
"V  c #533C06",
"C  c #53350B",
"Z  c #533B0B",
"A  c #5B3C0A",
"S  c #5A3906",
"D  c #4C3B11",
"F  c #453713",
"G  c #553C12",
"H  c #512D08",
"J  c #633D08",
"K  c #3C4615",
"L  c #3A440A",
"P  c #3D4320",
"I  c #4D420B",
"U  c #47490B",
"Y  c #55430A",
"T  c #5B440C",
"R  c #584809",
"E  c #4A540C",
"W  c #57540B",
"Q  c #494714",
"!  c #5A4412",
"~  c #564816",
"^  c #4B5614",
"/  c #585714",
"(  c #644206",
")  c #63430B",
"_  c #6C4C0A",
"`  c #694709",
"'  c #734C0C",
"]  c #774D08",
"[  c #67570C",
"{  c #7C5306",
"}  c #73540B",
"|  c #7B540B",
" . c #775A09",
".. c #634B13",
"X. c #664A17",
"o. c #734B10",
"O. c #685716",
"+. c #7B5C12",
"@. c #775A17",
"#. c #5B6616",
"$. c #5E650C",
"%. c #68660C",
"&. c #77660D",
"*. c #696717",
"=. c #7A6616",
"-. c #777719",
";. c #6E7618",
":. c #5B5527",
">. c #4D4A25",
",. c #685927",
"<. c #745D24",
"1. c #685934",
"2. c #7A6528",
"3. c #7A7826",
"4. c #796636",
"5. c #6C702E",
"6. c #55602A",
"7. c #796942",
"8. c #845B06",
"9. c #835D0A",
"0. c #865908",
"q. c #855C13",
"w. c #814F01",
"e. c #84630C",
"r. c #8B640B",
"t. c #8C6A0C",
"y. c #896508",
"u. c #92660B",
"i. c #936C0C",
"p. c #996B08",
"a. c #95720C",
"s. c #9C730B",
"d. c #9A7709",
"f. c #886817",
"g. c #926C14",
"h. c #986915",
"j. c #897618",
"k. c #9B7A13",
"l. c #977718",
"z. c #8A740D",
"x. c #A47A0C",
"c. c #A77809",
"v. c #A37B12",
"b. c #A47917",
"n. c #A97412",
"m. c #846925",
"M. c #8A7427",
"N. c #9B7D23",
"B. c #957828",
"V. c #856D32",
"C. c #897537",
"Z. c #967C38",
"A. c #A17D25",
"S. c #A17F37",
"D. c #885F28",
"F. c #897947",
"G. c #967E46",
"H. c #77892B",
"J. c #7E811F",
"K. c #888519",
"L. c #998618",
"P. c #8C8811",
"I. c #A8830C",
"U. c #B7890D",
"Y. c #AC8513",
"T. c #AD8B1A",
"R. c #A8841A",
"E. c #B38B13",
"W. c #B38C1D",
"Q. c #B68815",
"!. c #A89319",
"~. c #BA9419",
"^. c #BB900F",
"/. c #8B8628",
"(. c #9B8526",
"). c #9A9826",
"_. c #9A8537",
"`. c #8F9432",
"'. c #A38323",
"]. c #AC8523",
"[. c #A4842C",
"{. c #AB8B2D",
"}. c #AA8929",
"|. c #B28D26",
" X c #A89428",
".X c #B89628",
"XX c #A48B33",
"oX c #AB8C33",
"OX c #A68938",
"+X c #B38E34",
"@X c #A89438",
"#X c #B49334",
"$X c #B99838",
"%X c #B9A33A",
"&X c #B0A631",
"*X c #A8A51F",
"=X c #C49B1C",
"-X c #C48F15",
";X c #CBA21E",
":X c #C39C26",
">X c #C29C36",
",X c #CAA429",
"<X c #C8A637",
"1X c #D5AE35",
"2X c #DAB537",
"3X c #D6AF2B",
"4X c #E1BC3F",
"5X c #998548",
"6X c #9C8F53",
"7X c #A99546",
"8X c #B79A45",
"9X c #AC9A58",
"0X c #AA904E",
"qX c #96A346",
"wX c #BBA448",
"eX c #BCA656",
"rX c #B3B04B",
"tX c #AA9765",
"yX c #AB986D",
"uX c #B9A869",
"iX c #9E9067",
"pX c #C19C4C",
"aX c #C2A54B",
"sX c #C7A847",
"dX c #D2AB47",
"fX c #DBB943",
"gX c #CAAC54",
"hX c #CAAD5B",
"jX c #C5A955",
"kX c #CBB25C",
"lX c #D1B35B",
"zX c #D6B857",
"xX c #C9B04D",
"cX c #C7AD67",
"vX c #CCB466",
"bX c #D5B968",
"nX c #C3AC74",
"mX c #CBB674",
"MX c #D7BC78",
"NX c #E0BA48",
"BX c #D2C25E",
"VX c #E2C25A",
"CX c #DAC278",
"ZX c #DFC761",
"AX c #E7C767",
"SX c #ECCD75",
"DX c #EDD178",
"FX c #D3BE83",
"GX c #CEBB81",
"HX c #DDC787",
"JX c #DFCB93",
"KX c #F5DA8B",
"LX c #E3CD97",
"PX c #EED697",
"IX c #EBD6A7",
"UX c #F1D9B3",
/* pixels */
"9 R *   c z < e X . @ b 5 8 m & 3 1 O o W Q p 4 5 y 8 4 # s  .m T @ C x X ` , f.e.X * n q 1 % o . t w 8 =.Z # * > A L p 8 s Z > ",
": u o X u x & > o   * _ 5 - m : 3 :   o #.U 4 p , t X X o e.r.i J - ) C   { w f.l.6 - J w , :     a w 0 N.v   % < ..w 4 o s ' & ",
": z o   r v & 5 * o . T t % m : w l   6 ! 9 6 8 e H # X # *.[ s ! % Z Z   &.;.j.l.- @ o.H 1 :   # x r 7 oX`   , % ) 2 X # c [ 0 ",
"t C *   e c > s - = o M t 6 Y : i l   < H ^ s o u V 8 X - M.=.O.X.0 N Y h t.&.l.f.o @ +.A 2 u . $ k I t @X'   2 % } w   o [ &.- ",
"N T %   m J , c * 6 = R x > _ , k B   . O.Q y   k R p - o _.N.=.[ y s W - u.R k.T.* @ r.z q r * - W k t $X}   i > e.w     c } < ",
"Y } :   z ` @ Y 6 * % +.k o ` , B J   0 j.w # . r ;.6 # o XXg.=.*.4 R ~   t.V =.R.* % i.n t v 9 0 v w t $X+.  i , r.k   o Z r.: ",
"~ M.,   3 J 5 ) s   5 q.z + | w H ( . % e.k X   r j.4 X o XXk.2.=.* ' E X y.V j.K.* 5 s.( , R ^ 6 U I > 7X+.  3 t g.n     ..b.: ",
"~ (.2   k _ & &.=   7 l.z + | z T ]   $ y.B X   M j.> X o oXR.M.m.@ w.... u.B K.L.a * i.` 2 T 6 5.t U E 8Xe.  w q l.C   * _ '.2 ",
"! (.2   r &.> W > X e A.x + ] z _ {   % a.B o X n +.s 6 - @Xb.M.f.: A H   } A H.).;.< t._ z k . :.:.2 m eXf.  n e A._   O X.b.u ",
"G [.q   x e.s Y > o g N.Y >  .c  .8.  - d.B X   q M s p 5 oX+XB.u.% ' o.  r.@X3.3.E #.r.| i z +   5.1 i sXl.  n k {.|     =.%Xc ",
"! oXq   x l.7 x = 4 g j.A q s.Y &.y.  % x.B X   z C K L & N.|.Z.b.@ h.f.  l.qX%.O.$ ;.r.{ w H O O a X.u eXl.  B n f.J .   M.jXV ",
"~ 8Xa X r u.e , o 8 8  XT , v.z e.i.  > x.c X . ) | #.E - ~ f._.A.1 {.B.X 5X>.+./ o g f.| 3 C O O z ] u jXA.X T n r.]   = B.kXT ",
">.jXH h , e.q k * 8 L >X` , v.B r.s.  , v.c X   ` g.;.g * _ &.OX[.: [.N.  7XM e.%.o o [ | 2 C +   c w.F bX'.O _ , R.} * 8 M.vXR ",
"..A.C < , { 2 } < 8 Q >X` q b.H u.k.  > I.B X . } b.*.9 o I.f.OX+X: N._..  XS f.&.o % T w.1 z @ X Z w.g CX}.- W 2 #X/ Q Q M.bXT ",
"T q.t ; 5 u.k } , - b k.T t s.H t.z.$ 5 Y.Z X   2.T.Y X % R.|._.+X: l.j.. a.{ j.i.+ & Y ..3 H O   S | F kXl.g b q /.%.#.$ M.CXY ",
"M } 2   , s.z } a   c s.T 3 u.z t.a.  , E.Z   . j.$Xk   $  X].5X+Xb [ B.X v.r.B.v.o : } M i ` @   S 0.F lX) K l *.J.%.7   2.MXY ",
"F ~ t   , I.B t.e   Y W._ 8 [ k &. .6 f T.! + * m.eXa   $ .X|.5XoXm f.B.o Y.r.(.R.+ : q.y l ] % X ) p.D @XW g 3.Q %.@.. # <.jXG ",
"~ ^ 9 # s c.V s.r   !  XI L j.l  . .h ^ l.m = - B._.5 . % $X|.G.+X: f.(.X s.{ [.|.+ : h.s z ] > X ` c.M B.-.g / > &.r.. # O.jXD ",
"~ #.- # $.p.S x.r   O.#X[ :.x.B  .a.4 E !.I 0 0 f.#Xq . & aXT.5X@Xm f.B.U 0.` OX:X@ < X.9 t 0., X _ c.M %Xj.d w > f.l.* * O.lXD ",
",.M.8 ^ K { S Y.x   <.jX( 5.u.Z 9.u.- = =.V # y &.|.r   < jXT.5XOXM u.e.K g.{ 0XdX* 5 R U , u.r . } c.D kXt.+ w t j.l.< + X.vXM ",
"4./.s H.+ 8.` W.c   2.vX@.X.h.G e.u.  < { n # * B.$Xu . 6 kX].5XB.: b.g.o R.e.9XbXd E E %.> s.l    .I.Q wXa.  z z j.}.: * X.hXx ",
",.M.E K @ 9.| ~.c   5XHXm.C h.J 0.u.  & y.x + $ _.kXb   6 kX|.5XA.: {.m.X g.p.9XvX^ 9 v *.: u.z   [ d.*.M.@.  J n f.XX  * 2.hXM ",
"4.wXy . $ e.0..XM   G.GX<.H X.G 8.y.  > p.c X % OXvXF * 9 vX|.6XA.2 {.B.  Y.c.6XrX= 0 _ / : a.A   _ P.O.A.@.  ` S B.B.+ $ 2.MXR ",
"7.wX:   + ' J .XG   G o.i z 0.i { 0.  , v.c   + 5XmXO.g #.lX!.6XoX2 +XB.  =XI.6XSXy 8 9._ : b.!   &.Y.C >Xs.  ] _ f.oX+ # 4.HXO.",
"5X#X5   o u.' :XY   @.Y.V M n.G { y.  t W._ = 6 OXrX#.o H.wX(.6XpXr #XXX- ,XI.6XzX1 y g.r., b.O.  y.U.G hXZ.o +.) M.aX+ o C.JX,.",
"5XXX>   o x.0.,XZ o M..X[ I ].A 8.y.  e B.! 6 8 7X).*.L H.eX.XtXcXv oXM.L ,XE.:.HX< 9 v.i.e |.O.# [ l.I 2.X.* C z S.wX% o M.LX,.",
"5X}.:   + v.i.<X=.$._.$XI M sXo.0.i.X t s.k O 6 /.%X3.h `.vX.XtXMXZ [.| & *Xv.tXVXt e E.s.& }.2.# ;.L.M [ 8.>.} ` oXjX% X C.JX,.",
"5Xb.%   o x.i.*X/ $.@X XM ! sX} 0.p.o a .Xc < f J.cX2.g :.vX.Xm.m.l {. .   Xt.OX<X> 9 ~.k.. j.[ h L.c.x $. X3.M.` [.pX% X C.HX,.",
"@Xh.@   o k.P.).~ #.M.).I ^ jXq.u.x.O F >Xc f K &XjX~ $ f CX>Xg.p.i @Xf.  ~.e.9XAX< t =Xx.@ k.=.h { p.Y z.rXg `.B N.wX& o V.HX<.",
"@Xq.+   s L.).$X*.#.B.L.s I ).&.u.x.O ~ $Xn ; H.oX#Xm   f jX+X'.].e 8Xf.9 Y.s.iXKX1 e =Xv.9 K.O.  | 0.~ l. Xo qXJ (.aX:   V.HX,.",
"oX| o * 6 a.b.sXQ #.(.R.W b >X@.8.t.  ^  Xr 6 5.B.$Xb . 7 W.x.7X+Xw wXB.-.~.d.iXKX6 e =Xx.9 L.} . ] J ~ {.k.* M.] l.aX> X V.mX! ",
"{.' X   o k.s.$XF K (.Y.%.*.+Xq.8.a.# O..Xe K = l.%Xm   t =XU.7X#Xq wXoX;.%Xz.yXKX6 5 =Xv.^ t.O.6 0.p.>.sXk.. 9.{ N.aX0 X 4.HX..",
" X_ - 8 U P.z.L.x 4  XT.Z -.#X+.r.v.  ,..XU ^ 4 (.wXF X r =X~.7X+Xq eX(.-.~.I.yXPXf e !.a.- &.[ X 8.c.:.bXQ.. | 8.l.aX> o C.HX..",
"N.Z 4 L L P.a.k.x # _.W.c ! <X+.u.Y.o =..X$.p J. XwXF   a <X.X7XR.q wX=.g 3XI.yXKX9 t P.p.= &.&.X +.r.,.HX.X  0.r.N.jX5 X C.LXO.",
"{.T = % - L.a.k.I X _..Xv T sXq.i.E.$ j.!.U $.Q (.aXD . a zX~.8Xj.a wX*.  2XI.yXKX8 8 L.-.p &._ K j.r.1.LX$X  y.p.A.hX9 o C.IX:.",
"%Xj.Q 8 E K.e.u.3.  OX.Xv T sX@.r.Y.. &.L.L #.5 l.$Xb . F zX~.eXz.W 8X*.  =XI.tXKXe 0 I.;.s [ ^ *.-.l.C.LX$X  p.s.].vXa o F.LX,.",
"sX*.t 4 *.=.-.0.&X  _.<XV ..sX=.g.W.O e.a.g = = j.}.r . F bX~.wX&.e @Xf.  ~.U.9XKX5 5 ^.I 0 %./ #.&.L.2.IXsX  s.s.].MXb o C.IXO.",
"B.=.g #.U 0.qXw. XX _.sXv ..lXf.s.=X. j.i.^ s & l.oXw . Q ZXY.eX .t $Xj.  ,XT.tXKXt 9 ^.Y # %.$.E J.k.2.IXaX  x.d.b.>Xb o _.HXE ",
"B.V 5.H.. h.rXi.[ X OXjXv O.bXM.b.:X. N.d.E U 9 l.wXr X >.bXR.eXg.5 $XM.  ].r.yXCX9 5 ~.0.. [ E K $.L.4.IXgX  d.s.].sXu   _.vXN ",
"@.4.K d . G ! m.A X 7XgXM @.MXm.b.,XO [.l.s 0 O. XwXu # ~ AXL.wXv.5 8XB.  ~.Y.6XcX6 U ~.y.9 ;.5 # &.L.C.UXgX  d.x.oXbXa o 5XbXZ ",
"S.X.; o o J z J B o 0XhXc =.bX@.R.,X+ L.z.$ o / ).>Xw - ~ (.=.eXv.t wXZ.  .X!.C.@X9 U &X&.#.Q v .  .y.4.IXhX  d.s.oXvXm X V.wX/ ",
">XS O   o 0.J w._ O 9XhXb f.kX=.].1X= !.z.p p /.j.$XW s / P.&.cX#X5 sX5X  &X!.5X@X^ *.!.j.K v A # { z.F.UXjX  s.p.{.MXa X /.`./ ",
"pX_     + i.J r.9.O uXhXr M.rXK. X,XQ *Xf.h $ 3.f.#XN & G !.t.nXwXw jX5X  ,X&XeXrX%./.a.M.p n ( # 8.p.M.UXhX  a.p.{.MXb >.@XqX~ ",
"sXo.  . + v.J f.r.. uXvX[ @XjXj.%X X#.).(.* 7 U f.%Xe = ~ ).k.uXjXa aX_.. &X~.uX%X/.;.t.e.^ M ]   r.i.O.mX%X# d.d.{.MX,.f _.uXw ",
"sX}   X @ U.A e.p.X nXhX=.XXbXX.wX[.H.a.rX  6 g e.aXa - :.<Xz.nXcXr aX_.  <XE.9X).`.I p.y.% *.q.. 0.u.O.@X&XL d.s.{.MXF X 7XSX, ",
"sX'   X * Q.) e.x.g nXkXI [.zXX.sX].;.p.@X6.X F f.sXM # ,.fXg.nXvXM cXG.. 2XE.9XwX^ *.c.u.  G h.. s.p.~ j.BX8 z.p.#XMXD o 9XHX5 ",
"<X_   O s E.A =.P.~ 8X>Xq (.gX..B.h.g x.0.>.@ 8 q.S.r X 1.VXf.uXcXq q.H   fXE.eXjXs -.I.d.  S b.  U.p.O.+.rXh B.0.{.FX~ O pXMX, ",
">X_     8 z...).l./ [.|.: (.lXn n.n.@ Q.0.  * y @.m.y X 4.VXf.Z.4.z ].'   2XU.tX@XW O.Y.a.  S b.. U.p.*.N.].j A 9.oXHXG O S.OX: ",
".XJ .   0 x.-.L.k.;.j.b.: [.sXD Q.-X@ ~.0.  + d A o.7 O F.ZX+.b.] i |.@.  2XU.9X(.%.I Q.d.  ( ].+ ~.b.B.8X{.X ! @.7XJX~ . q.q.+ ",
"A.J   - %.x.`.S d.4.f.x.: '.sXb W.-X: :Xr.  o d o.n.l o F.AX=.].h.u |.+.  4XT.9X X/.m Y.k.  J W.. -Xx.G.kX+X  g.A.OXLX:.X h.h.. ",
"b.H   E Q (./ A c.,.B.Y.: [.sXl W.:X, ,Xo.  . 1 ) n.b X F.SX=.8X{.u #X=.  2XT.9X.X/., U.a.  J $X. U.c.G.MX$X  0.0.[.LX,.O n.n.  ",
"h.l X #.L l.W &.I.7 [.|.: {.hXl .X,Xq ,X[   . 6 9.h.x . 5XDX+.jXoXu sXm.  2XY.9X<X#., E.g.  J sX+ U.c.G.MX8X  { 0.OXIX1.. >X>X  ",
"f.z 4 h ^ l.b ..E.+ +X+X> +XgXx .X3Xq 3Xe.  X 7 l.W.Z X 5XSX@.hX{.l cXM.  3XY.eXxX^ 5 Q.q.  ) gX+ U.c.C.bX8X  0.i.Z.IX1.O dX>X  ",
"o.i ; f : (.l A Q.% 7X|.: #XvXu .X3Xz 1Xr.  X 7 '.>XT . 6XSX[ vX[.z mXM.  3XY.tXZXL 7 Q.q.  ) gX* U.c.M.lX+X  8.v.OXIX4.+ <X>X  ",
"o.z * * , L.3 T ^.< 8X|.: $XgXu $X1XM 1Xe.  . 7 XX<XY o 6XSXo.kX[.l mXM.  2Xv.GXSX7 t h.o.O ` zX@ -Xc.m.gX+X  0.Y.Z.IX<.@ dX$X  ",
"o.l     2 R., ) ^.1 eXW.: $XjXl <X2XV 2Xr.  . 7 oX<XY o 9XSXO.vX[.F bXZ.. 2Xp.yXpX; t @.G   ` bX* ^.n.f.bX8X  9.n.B.IX4.% dX$X  ",
"m.t $ 6 i T.> ..-X, 8X|.I +XaXt >X2XA fX9.  X y XX<XT O tXDXO.MXOXl FXC., 3Xd.M.Q.@ e c.|   ) MX@ U.p.m.vX#X  9.W.V.IX4.* dX$X  ",
"S.7 # Q O.R.: ..=Xm  X&X*.'.+X1 >X1XT fXe.    f OXsXT o 9XKX=.mXN.l FXB.o 2Xc.Z.1X< u :Xu.  ` lX% -Xu.m.jX$X  e.W.V.IXF.< dX$X  ",
"V.3 X   r v.: X.#Xx %X&Xg h.+X, :X1XJ fXe.    f @XsX!   cXKX=.mXOXw MXC.  2Xx.F.fX1 a ,Xt.  ) >X@ -X0.m.jX>X  9.W.m.UXF.1 lX+X  ",
"V.3     M b.% M s.! rXL.8 h.|.: :X,XX.VXg.    f OXsXA . S.8X..CX0Xz mX2.  3Xn.F.AX7 a ,Xi.  X.Z.% U.0.+.aX#X  9.W.m.UXF.< lX$X  ",
"G.l   X A A.: T .X~ @Xa.7 b.{.1 :X:X<.MXA.  . d XXsXR o l.;X! GX7Xw nXq.  3XU.7.AXu u 1Xg.  H o.+ U.w.=.hX8X  | W.<.LX6X< bX$X  ",
"V.n X   J A.% ! ~.q  Xi.: l.oX: :X,XA B.D   X d XXsXY X _.2X..HXOXq mX@.  ;XU.4.AXb g <Xg.  | ].% U.w.m.mXeX  | T.o.lXZ.< bXaX  ",
"2.l   O A A.* ! W.w ].g.% h.+X, ,X<X` -XB .   d XXsX..o _.fX..GXOX2 cXq.  >Xn.1.AXD g 1Xf.  f.7X< ^.{ V.mXhX  | T.S jX<.& bXwX  ",
"~ a # O <.f.= ..|.u +Xr.% g.oX2 >X<X[ :XM -   d OXaX! o _.fXX.nXA.k 7X}   A.q.:.CXM g <Xf.X M.OX, Q._ V.nXeXO ' R.! JX_.< lXoXo "
};
