/* XPM */
static char *result[] = {
/* columns rows colors chars-per-pixel */
"64 64 256 2 ",
"   c #000200",
".  c #0B0C03",
"X  c #050B01",
"o  c #0C1704",
"O  c #131406",
"+  c #131B05",
"@  c #151C0A",
"#  c #1B1B0B",
"$  c #171609",
"%  c #1A180D",
"&  c #221E0B",
"*  c #211F12",
"=  c #0B2804",
"-  c #142B05",
";  c #1B2B05",
":  c #1B240A",
">  c #1C2C0A",
",  c #162507",
"<  c #0B3504",
"1  c #1C330B",
"2  c #1C3B0A",
"3  c #173806",
"4  c #1B2911",
"5  c #1D3A12",
"6  c #23250C",
"7  c #232B0C",
"8  c #292B0C",
"9  c #23340B",
"0  c #2B330C",
"q  c #233B0B",
"w  c #2C3D0C",
"e  c #253906",
"r  c #353A0C",
"t  c #282913",
"y  c #342D17",
"u  c #2C3313",
"i  c #2C3D13",
"p  c #263814",
"a  c #343C13",
"s  c #373718",
"d  c #312F0D",
"f  c #383923",
"g  c #2F3821",
"h  c #433B19",
"j  c #403E0F",
"k  c #453D23",
"l  c #1C430B",
"z  c #1B4C0A",
"x  c #164606",
"c  c #1A5609",
"v  c #124E0A",
"b  c #24440C",
"n  c #2B430C",
"m  c #244B0B",
"M  c #2C4B0C",
"N  c #254805",
"B  c #334B0C",
"V  c #384708",
"C  c #23530B",
"Z  c #2C530C",
"A  c #255B0B",
"S  c #285708",
"D  c #34530C",
"F  c #3A5B0C",
"G  c #375709",
"H  c #2C4412",
"J  c #2C4C12",
"K  c #254913",
"L  c #334414",
"P  c #344B12",
"I  c #3A4717",
"U  c #2A5714",
"Y  c #345313",
"T  c #3B5413",
"R  c #335B14",
"E  c #3C5C13",
"W  c #39571B",
"Q  c #1B650A",
"!  c #1F720D",
"~  c #2B640C",
"^  c #26690B",
"/  c #36670C",
"(  c #37760C",
")  c #2B6413",
"_  c #296715",
"`  c #346414",
"'  c #3B6C13",
"]  c #3C6B1A",
"[  c #376717",
"{  c #297514",
"}  c #317413",
"|  c #3C7314",
" . c #397B17",
".. c #26750C",
"X. c #3A4A23",
"o. c #3A5924",
"O. c #2C4923",
"+. c #396A23",
"@. c #3E7722",
"#. c #464D09",
"$. c #465609",
"%. c #565D08",
"&. c #454917",
"*. c #4B5D1C",
"=. c #455818",
"-. c #555918",
";. c #554B15",
":. c #47680A",
">. c #586A06",
",. c #487A0C",
"<. c #5A7707",
"1. c #426414",
"2. c #4C6C1B",
"3. c #476619",
"4. c #586819",
"5. c #447313",
"6. c #487818",
"7. c #577718",
"8. c #696C08",
"9. c #677808",
"0. c #767A08",
"q. c #656919",
"w. c #687818",
"e. c #757A1A",
"r. c #716E01",
"t. c #474724",
"y. c #554A25",
"u. c #495726",
"i. c #565726",
"p. c #5A5936",
"a. c #534F33",
"s. c #645B34",
"d. c #695C2B",
"f. c #4B6824",
"g. c #586725",
"h. c #497824",
"j. c #587626",
"k. c #5A6435",
"l. c #557237",
"z. c #666826",
"x. c #75682C",
"c. c #677829",
"v. c #777829",
"b. c #686835",
"n. c #687637",
"m. c #777835",
"M. c #756738",
"N. c #6B5B1C",
"B. c #517647",
"V. c #766A47",
"C. c #797746",
"Z. c #716F48",
"A. c #495E44",
"S. c #837C37",
"D. c #927D08",
"F. c #877748",
"G. c #8B784E",
"H. c #39860E",
"J. c #398617",
"K. c #328B16",
"L. c #47860C",
"P. c #56870E",
"I. c #4C8C1B",
"U. c #468618",
"Y. c #578718",
"T. c #48951A",
"R. c #57961A",
"E. c #688307",
"W. c #778808",
"Q. c #688518",
"!. c #798619",
"~. c #69971A",
"^. c #769619",
"/. c #79930A",
"(. c #5BA419",
"). c #47A21F",
"_. c #6BA817",
"`. c #488723",
"'. c #578926",
"]. c #499623",
"[. c #589825",
"{. c #5A8C36",
"}. c #688827",
"|. c #778927",
" X c #669826",
".X c #769729",
"XX c #678632",
"oX c #758837",
"OX c #779635",
"+X c #699332",
"@X c #5AA627",
"#X c #53A42A",
"$X c #68A627",
"%X c #77A72B",
"&X c #69B229",
"*X c #75B52B",
"=X c #68A734",
"-X c #74A735",
";X c #77B636",
":X c #68B431",
">X c #7BC638",
",X c #778545",
"<X c #73964F",
"1X c #7AB042",
"2X c #678960",
"3X c #7DC240",
"4X c #868704",
"5X c #948A03",
"6X c #899606",
"7X c #879718",
"8X c #999918",
"9X c #97960D",
"0X c #A49812",
"qX c #96A413",
"wX c #A7A909",
"eX c #B4AC0A",
"rX c #A7AA17",
"tX c #AAB418",
"yX c #B6B616",
"uX c #AFB708",
"iX c #858926",
"pX c #868839",
"aX c #86973A",
"sX c #94972C",
"dX c #A39C24",
"fX c #86A727",
"gX c #88AC38",
"hX c #98A73A",
"jX c #96B132",
"kX c #A8A926",
"lX c #B6B529",
"zX c #A9A836",
"xX c #B4B230",
"cX c #8DC739",
"vX c #BCC126",
"bX c #C8C520",
"nX c #878947",
"mX c #978856",
"MX c #9B9856",
"NX c #90914C",
"BX c #A69A58",
"VX c #A6934F",
"CX c #9AA646",
"ZX c #91AC4C",
"AX c #B4AC45",
"SX c #ACB051",
"DX c #968E63",
"FX c #A79967",
"GX c #9CA767",
"HX c #B1AE6D",
"JX c #C3B968",
"KX c #C2BA4C",
"LX c #93CB49",
"PX c #A9CF64",
"IX c #C4C374",
"UX c #AAA583",
/* pixels */
"'._.{._ h.n.j.p g p 4 K J.`.` `.X.9 z.y.2 u.=.x Z ) l [ J.+.v +.U m  .@.h.R n.DXu.> K U K i 9 n.z.d r : i l.l.&.@ k.B.v.F.A '.$X",
"{.R.` [.e w m 3 p O.1 _ { @X2X[.} 9 z.&.e u.G x c z h.+._ +._ A 6.x h./ ~ 2.n.GX@.m l K U X.U c.4.r H > 2 j.3 s 6 g.j.m.oX- [.R.",
"'.,.Z [.8 s f.{.l.'.| { +.[.B.j.`.n z.&.z X.G < v z J o.A U J.)  .} U. .U.~ j.GXoXu.i.l.h.[ P ~.-.8 q H n f.C G r j.T / 2.2 '.( ",
"T  .K j.f.t p [.`.`.].h.{.U 5 p 2X2 z.t.f.L G , < 5 Q Q v _  .K. .U.h.[.T.I.OXZXoXc.7 @.^ 5 f.}.7.B 7 i w g.I n l h.D :.7.` T ,.",
"w Y 2 1 Y @ H K O.].K.Q `.U B.B.1 9 z.t.n.l D - , < Q +.c { } } U.5.Y.`  . .Q {.n.} b _ Y R j.}.W R L u > l.r B b :.d S.6.q n J ",
"*.3 v O.O.o p 5 C ].K.v h.`.2XA.< p m.C.G H B , 1 _ v Q K.v | T K.v 2.F ~ ` N NX<X_ { K.J.I.+X|.[ h.T a 9 L I X., $.N.F.Y.R *.2 ",
"2.q l l.B.p 5 J l `.@.2XB.@.+.Q A.=.m.b.Z =.F v J.! ^ ! v 3 { ) c c ^ Q | 3 N ,Xn.Q Q K.Q { [.].`.] h.H Y D 3.,X8 -.G.VX] Z 2.l ",
",.2X{.O.C b 2 i 4 +.+.B.v  .{.+.6.h.m.u.~ H._ } U K.{ c { v C _ ~ c { ! J.` =.NX,Xc v { { c K.[.j.+.=.5 ; 3. Xj.3 g.VXnXf.3 6.2X",
"U.PX<X@.[ , o 2 = v c c ( h.`.}  .].-X].J.[ R D ) J.v _ K.! S ,.v v _ ..J.R.OXMXmXC - c `.z 5.R.I._ j.2 l C %X6.e =.BXmX=.3 P.PX",
"-X1X{._ +.5 3 v 2 A x ) R C W J.].:X+X@X#X`.v q J J.= _ c ).` Y.( c v K.U.S h.XXpXC < v K - $.'.6. . Xl z ^ ~ U L n q.iXv 3 %X1X",
"LX;XcX[.'.U , 3 C l z x J U Z <XJ.T.+X[.6.].h.u Y U 3 < c } h.( T.b c U.) D w +XnXU._ A Q = $.7.=.[ R.A S T v P q 2 >.P.5.x LX*X",
"LXLX=X1X` ] > C K l x J J 2 v {.`.[ Y.W [.+ j.Y q q e < ) z A ^ `.e U.^ } }.w 4.-Xb U.{ L.^ :.c.P ] | ` v / ( 2., e 9.<.,.C LXLX",
";XPX].'.C 3 3 v x b ) ` z x 3 x +.^ 2.J {.x  .=.=.n M Z T =. .C ' / &X .;Xh.; 7.ZXt Z 5.5.T.P.4.r n ~ ` m =.(.1.e V W.E./ 7 gXPX",
"gX$X[._ x z < v x M ` } c v v v [ | f.U ]  .[.Y U P 5.@.A b $X' / n u.`.-X' e j.MXs 1 Y.c 5.Q.6.P q 3.u.y.g.P.m A -.CX}.3.z fX&X",
"HXf.c z z z z c U U z  .^ ..Q ^ {.K.J.`.^ K.[.U.J.` ].T.K.)  X` F i n +X] m T 4.HXi.& M '.2 !.q.1.B hXo.2 Z Y.( n V HXY./ ^ HXh.",
"BX'.^ C ` c l [ ) _  .T.H.c < c U.,.' U.K.J.} K.H.K.:XK.`.R Y.R.,.m e 6.c f.l z.HXn.- - [ P W.4.a B %Xn ; Z R./ C $.CX/./ Z DX'.",
"aX'.] `.} c l  . .J.H.].T.Q A } }  XU.].} ).A Q K.! K.J.J.].6.m P.Y &.6.| 7.q 4.SXm.q 1 7.w 4X-.L 9 _.D > 3.:XR e %.aX^.a #.aX[.",
"ZX' } ].| C } `.B A T.} T.#XR.[.I.R.].J.#X[.A A '.^ T.T.`.`.T.6.Y.e h h.6.| 3 :.hX,X3 + gXe pXq.e b ,.G q T *Xe 3 %.pXG L #.gX/ ",
"jXh. . .]  .` c.I ` `.U.@XT.( L.[.H.5.I.#X`.f.A 5.'.@X).J.+.$X~.$XN *.)  .c < 4.ZXMX> o ZXV sXN.N c ( H.( R 5.3 n v.VX#.Z $.CXY.",
"cX .| `.`.5 6 h.&.R U J. .T.I...I.[.U.@X| c =Xz J.J.} :X[.] R.R.~.T z ^ ( ^ U w.CXHXz 1 j.#.nX-.=.6.,.U.~ ,.( N j m.FX4.m $.jX .",
"OX6.J._ _ _ J / b h.2 H.`.[.$XT.J.$.H.=XN J.R.`.*X&X).`.=X] I. X/ x c U.T.Q 3.4.hXHXJ.T } $.nXr 2.E 5.3.K ^ L.n r pXMXQ.( C OX6.",
"!.6.I.I. .} `.G ! `. .( U.g.$X-X` T ,.[.^ @X| :X&X&X&X:X@XE U.'.~.~ 5.G -X| W <.jXSXJ._ J.5.nXr 0 o '.*.> :.,.9 w e.e.A ^ 3 !.6.",
"Q.F U } `.`.].U.J.U.`  .6.4.=X=X*X X4.e.=.(. X .&XR.@X*XI.h._._.%X' 2 S .X}.=.v.SXJXU.J.{ 7.v.j u d Y.Z < x P.2 N 0.9.C c z Q.G ",
"!.7.].@X@X@X].[.Y.R.T.6.2.aX6.@X$XR.(.4.z.fX'.C $XL.I.$X-XY _.<.] e 7 N / 2.q nXHXHX' J.| R.m.G E D 7.x x z ' m N W.9.L.- <.!.7.",
"^._.#X=X`.$X[.` [.@XR.7.=.c.6. X2.#.*X}.F '.v.B _.` Y.I. X1.U.5.R 9 w G Q.N - :.}.CXh.C 5.}.|.,.B m / b r F ~ ~ #.iXiXL.D 8.~._.",
"/.~.(.T.I.' &XR.J.I.&XP. .` `.:X=.;.7. XV *Xc.q.U.Z '.' [.}.2.W [ L n c..X1.n G 9.ZX[ n :.iXnX:.d q ~ d I ( ~ ! n iXE.( B 0.W.~.",
"W.9.` [.$XJ.*X&XT.H.R.U.T.'.) h.m.#.3.6.7.~.:Xv.^ / ' P Y.z.}.' gX=.r =.I.R < 6.P.CX*.[ 5.aXpX:.N q R d M C 5.^ N 4X<.S M 4XW.9.",
"fX^.`. X(.(.&X'.&XU.U +.=XPX=Xh.c.#.i.T :.%X2.XXU.J ] q ' B h.}.XXR Y (  .h.J E ( OXh.C R OX|.=.; 1 N 0 b w 7.~ V 4XE.( G 5XfX^.",
"CX.X XR.H.L.`.0 &XP.] U +X=XZX`.n #.;.=.:..XR j.OXb 6.p ` D 3.+.b q { L.R.I.:.R.:.L.].A R OXoX#.6 b w r , e 3.| #.6X/.P.=.9XCX.X",
"R.P.T.P.R.R.@X=X:X] @.f.[ ] z v < B y.P >.>.g.3.aXf.f.u F B g.Y H L U P.6.~./ _.,._.R.'.G sX|.-.d e L d + w L I :.9XP.,.$.iXY.P.",
"^.~.'.I.%XR.f.3X=X].K l.[ +.R v c z P Y E.7.&.b pX1.i X.G G oX2.H 7 e ~. X2.9 %XP.w.].U.:.hX^.5.r : d d + n I ; <.6XE.,.G 5X^.~.",
",.T.R..XQ.2 `.3Xp =XC 5.h.z x v S V / 2.E.w.#., sXz.0 j.N 1.4.j.I : W <.fX}.e fX$.Q.U.U.5.~.~.^.z.t 8 u , B &.w 5.qXP.,.$.9XL.I.",
",.~.-X*X%X+.=X+Xp h.;XM {.h.S Q :.;.1.3./.w.;.J 4.i.o 4.D G c.aX%Xg.=.3.1.n T <.n ~.7.W 4..XQ.Q.q.* h I 8 *.t., :._.P.I.G 0X7.R.",
"w.$Xh.:X>X>X`.[ 3 U '.{.c.-XfX/ 3.-.B G /.Q.1.3.c.d.k 4.S ' SXjXcXgXc.7.j.M 2.M V .X!.: #.|.!.Q.*.O 8 j.] [.h.I |.8X:.I.Y.8X9.$X",
"7.^.Y.;X*XcX&XR z ] [ j.h.w.~.( 1.i.I F 7X}.T R 7.f.g.nX$.G ~.%XzXc.Q..XjXW > F V sX7X, 4.iXpX.X&.6 I '.I.R.I.T x.d.z./ $XrX7.~.",
" Xw.*X=X X;X@Xu.b R b p ] ` S 6.E R.=.:.iXv.T 1.ZXh.< oX7.$.pX7XfX7.7.P j.c.u 3.P qXzX> q.e.m.h.5.H 2.5.Y.j.T.L $.7X1.G Y.kX}.w.",
"4.7X;XT -Xh.=XL b T D - S 3 ~ =.a c.I.~.}.|.Y.7.aX[.: m.:.>.G.aX%X.X: u XXg.L |.d.SXIXt q.!.OXU./ W 6.4.u.XX'.H $.wX$.=.$.rXq..X",
"4.Q.[.D XX@ ZXH T L P = ` b m M t.c.' R..XQ.4.M  XZXW j.:.>.nXb.Q.gXe 9 2.n.u.}.8 !.kXt 0.e.NXP.P & 7.J 6 2.W 9 %.wXL #.#.tX4.e.",
"%.|.+Xj.3.X {.u.M 1 e , G / Z q s z.Y.(.q.w.f.> E '.K g.w.w.j.<XoXf.3.- =.K 2 h.7 W.tX0 0.e.aXP.g.8 w.T # 5.T 7 >.wXu.j -.eX%..X",
"$.|.v.1Xp O 6 i.2 H =.n A C S - s b.g.:.w.q.I : f.f.: z.m.c.7.}.OXr H - oX< 5 h.3 E.uX0 0.q.|.|.b.6 x.@ 7 1.' ' ,.~.U.3.7.tX$.|.",
"$.w..XoX@ X $ I = R P 1 ,.5.S C L d.E B W.9.=.= f.I o 3.T $.gXOXZXI : , j.= I ' , E.uXV 0.q.iXm.i.8 i.O : P T J 9.wXR.h.j.%X#.e.",
"x.mXnXPX  . @ I 2 g.U , }.S S c #.i.N G 6X0.Y - N 2.o t.1.3.}.OXOXi ; + g.2 H j.: 9.uX$.4X8.8XaXc.8 8 * + P u.9 r.wX| 3.#.9Xx.NX",
"x.NXBXPX  . . <X< k.<X< ZX~ 1.m &.N.e V 9XW.I o Y j.+ u.2.F Q..X7.1 : + G I s 2.; <.uX>.4X8.sX}.4.t 8 # # P =.; r.7X2.c.#.eXx.mX",
"#.e.hXIX. t O C.4 i.'.< Y.ZXhX9 i.i.u $.qX!.D , < 3.= p >.Z 3.}.2.P # : T I X.f.+ <.uX9.sXz.pXc.P 8 8 * 6 n W 7 r.qXP -.#.eX#.0.",
"$.W.hXIX  f . GXO.a.n.Q {.XXn.w 4.y.u :.wXW.&.< K J = 1 5.F 3.3.j.L O 8 f.u.g C.6 <.uX0.S.=.|.2.r s 0 7 6 w =.7 q.hXI u.#.eX$.W.",
"$.W.hXGX  f   UXu.k.NXv b K - q 6.4.9 >.wX6XV 2 ZX= < 1 <.:.nXn.,Xt.+ o g.t.X.f.+ >.uXW.v.%.7XB 6 u &.: y e 3.7 %.8X4 U #.eX$.W.",
"&.W.jXMX  f O FXt.a.h.2 O.P 6 ( >.R.L >.uX9X#.H nXl 2 ; 9.:.n.n.K K $ @ R w i 6.1 >.uX6Xe.4.8X*.% s i.7 s e 3.7 8.5Xp u.#.eX#.W.",
"=.6XzXC.  k . DXa X.M , 2 p 7 ~.g.E.n r.eXqX$.o k.b 1 ; 9.:.u.T ` q > + +.X.2 ZX+ <.eXwX|.8.rXg.t I s &.y L c.8 r.9Xu.=.#.eX&./.",
"#.6XqXu.. X.O mXX.q K = P I J l.v.q.T nXSXxXT , X.Y , 3 9.<.3.R 2.V , , T W - f.; S.KXSXiX9.rX=.t a t.h s y.C.0 0.0XW i.#.eX;.6X",
"#.7X8XZ.. p.. FXX.H u.o f.u.9 ,Xq.b.u.Q.kXVXa o o.J 2 2 W.<.2.+.' j.1 , &.X.H R O -.JXVXiX8.kXo.t r &.y 6 ; T : D.wXR 3.-.lXV 6X",
"4.6XkXk.. b.. oXu X.nXX XX,Xo g.%.b.4.W.rXsXs o J U 3 P sXpX` 3.:.E 6 6 I p H Y - V AXzXS.9.rXN u n M a t ; =.9 D.wX=.5.;.zX4.6X",
"g.6XxXa.. i.. 7.u 4 mX  }.}.$ 2.-.V.$.7XtXdXd o l C 1 : w.n.q V E W $ : =.2 ; a - G zXkXiX9.lX` u a s q b - G e 4XwX,Xz.%.yX4.6X",
"*.6XtXt.X u., .Xf.X.n.X W j.% Y z.V.a 7XtXdXs 7 b b , + <.w.n N W M O # i.Y w I : G xXkXoXr.lXi.p L I b u > $.3 5XwXn.M.%.lX-.6X",
"z.6XwX0 s c.j.ZXn.u g.X W w.+ u.S.C.=.7XtXdXu @ 1 9 # o <.w.3.q m b O + W 5 B 7.O V zXrXe.v.xXt.p w P L H - F P VXVXaXNX%.xXz.6X",
"hXCXKXr i ZXM SXi.s 4.O -.z.# F F.G.n qXtXdXt o 1 H 7 , E.w.H c.F e O + P I L oX. V zXrXS.M.BXR X.Y T H s ; / e v.iXGXnX-.xXhXAX",
"SXhXHX7 @ u.: SXk., aXX n., I B G.F.N rXtXdXt = 3 K s o E.Q.P j.j.3 O + z.g.u.MX. #.zXlXi.g.sXJ q H ` C L > :.e D.dX,Xm.>.xXSXCX",
"MX7XsX: O p t SXk.t HX  *.s n =.F.G.=.rXrXdXt . > z - # W.E.P n 2.T O , $.n.u.MX% *.dXyX=.8.dXX.l 0 u.K q 7 :.n 4X0Xm.BX9.KXMX7X",
"MXW.rX# t p.* HXp.g IX  XX6 7 ,XZ.mXV tXrXdXd . # 1 , 6 W.^.&.V aXnX& : T u.i.ZX. -.dXyXI 9.kXi.H r C.3.# y.:.r D.dXIXHX8.SXBXW.",
"FXW.tX8 g p.$ BXk.u SX  4.O d d S.G.V lXwX0Xy # 6 6 d + W.^.6 L *.b.O , u.u.u.mX  =.8XbX&.0.rXf.: a M.g.s y.F.r 5X9XCXHXe.JXFXW.",
"BXW.wXa f a.& FXp.y nX  h $ t.&.m.F.-.AXfXkXh t &.h s + 4X/.y f 6 0 . u t.t.L M.+ F.zXbX&.0.zX/ + a s.y.y &.M.;.0XwX'.CXx.SXBXW.",
"M.6XtXI k k * F.y * G.  y.% C.C.m.V.M.FXmXSXa.@ h y.;.@ 6X4Xs.t.&.y . , s h t.s.o &.BXIX-.0.AX4.q a y.t.h y.G.h 0XrX XOX8.yXx.6X",
"u.9XyX;.y y y k y % DXO t.% C.b.m.C.q.xXw.VXf : i.d.i.6 AXhXa.a y.p.. @ h h f V.X 7 W.lX=.4XAXd.a &.y.t h h G.k D.rXOXLXfXlXt.6X",
"$ 8XyXb.k y k VXk % mXO t.& V.M.v.V.w.lX4.AXt @ b.S.s.O |.|.p.s.y.b.. , t.s.s V.. 7 !.vX-.5XxXy.t X.V.V.& F.DXy.BXxXCX.X^.cX$ dX",
"% hXyXV.y h y.G.a.t G.% f & V.M.m.V.v.lX;.zX6 * F.G.F.$ Q.!.mXG.mXG.. @ p.G.y V.o 6 W.tXq.5XlXa.I y V.V.& F.DXI sXSXFXaXiXjX# zX"
};
