/* XPM */
static char *result[] = {
/* columns rows colors chars-per-pixel */
"64 64 98 2 ",
"   c #1B171F",
".  c #1C1620",
"X  c #1D1B23",
"o  c #161B2F",
"O  c #191D2E",
"+  c #141B31",
"@  c #191E31",
"#  c #221E25",
"$  c #211F2B",
"%  c #1E2026",
"&  c #1F212D",
"*  c #1C2134",
"=  c #1D243A",
"-  c #1E293E",
";  c #232127",
":  c #24242B",
">  c #2B252B",
",  c #27282E",
"<  c #2B292E",
"1  c #322A2E",
"2  c #3B2E2F",
"3  c #222535",
"4  c #282631",
"5  c #262934",
"6  c #2B2B33",
"7  c #21263A",
"8  c #242A3D",
"9  c #2A2D3C",
"0  c #322D32",
"q  c #3C2F31",
"w  c #2C3037",
"e  c #2D323D",
"r  c #393236",
"t  c #33333B",
"y  c #3A363C",
"u  c #32383F",
"i  c #232743",
"p  c #262D41",
"a  c #282F42",
"s  c #2A2F49",
"d  c #263044",
"f  c #2B3245",
"g  c #2F3844",
"h  c #2D3549",
"j  c #2E394C",
"k  c #313545",
"l  c #343B44",
"z  c #3A3B43",
"x  c #33364A",
"c  c #333C4D",
"v  c #393D4C",
"b  c #2D3D52",
"n  c #343F51",
"m  c #3A3E51",
"M  c #35414F",
"N  c #3A424D",
"B  c #364152",
"V  c #3A4554",
"C  c #3D4956",
"Z  c #354358",
"A  c #3B4759",
"S  c #3E4B59",
"D  c #3E4C61",
"F  c #464346",
"G  c #43464F",
"H  c #414652",
"J  c #424A55",
"K  c #4B4F55",
"L  c #424E5B",
"P  c #4B4F58",
"I  c #524A51",
"U  c #4B5156",
"Y  c #44515D",
"T  c #4A545D",
"R  c #4E595F",
"E  c #51555A",
"W  c #53595E",
"Q  c #434F60",
"!  c #465461",
"~  c #495662",
"^  c #4C5965",
"/  c #465769",
"(  c #475868",
")  c #4D5C6A",
"_  c #525D64",
"`  c #585D64",
"'  c #525E6A",
"]  c #576166",
"[  c #596165",
"{  c #54626C",
"}  c #5A656D",
"|  c #5B686F",
" . c #556471",
".. c #5A6671",
"X. c #5D6972",
"o. c #656465",
"O. c #616669",
"+. c #606869",
/* pixels */
"@ * * @ @ * * * @ * * @ @ @ @ @ @ o @ o o O o * * * o * * o * o o o o * o @ * @ @ @ @ @ @ @ @ @ @ @ * @ * @ * * @ * @ * @ * * * ",
"* * * * @ 3 * * @ 3 * @ * * * O O O O * o * * * o o * o * o o * * * * o @ @ @ @ @ @ @ @ @ @ @ @ * * * * * * * * @ 3 * * * * * * ",
"O O @ @ @ @ @ @ @ @ @ @ @ O O O o o @ @ * o * o o o o o o o o o o o o o o o o o o o o o + o o @ @ @ @ * @ @ @ @ @ @ @ @ @ @ @ @ ",
"* 3 8 8 7 3 7 7 7 7 7 7 * 7 * * * * * * * * * * * o * o @ @ & O o * o * o @ @ @ @ O O * @ @ @ @ 7 * * 3 3 7 7 3 8 7 7 3 3 8 8 3 ",
"f k a k a a a f f a f f f 9 9 p a p p p p 8 i 8 - - 8 - - - 7 - 7 * 7 = = 7 8 8 7 * 7 7 7 7 8 8 a a a a a k a a a a a 9 a a f k ",
"v k 3 7 3 7 9 7 3 8 8 9 8 8 7 7 8 7 8 8 8 d 8 8 8 - 8 w = 5 7 7 8 7 = = = 7 8 8 7 = 7 8 7 8 8 8 7 3 * 7 7 8 8 8 7 7 9 7 7 3 * k ",
"m a 3 7 7 7 8 7 8 9 f 8 8 8 7 * * 3 8 8 7 7 8 7 8 - - = * * - - - * = 7 8 = = - = = 7 = 3 7 8 7 @ @ @ 7 8 7 a 9 8 8 8 8 7 7 3 a ",
"x 9 7 7 9 a a a a 7 9 8 8 8 8 8 8 8 a p 8 8 i p - 8 = - - 8 8 8 8 8 - 8 8 = = 8 7 7 8 p 7 8 8 8 7 7 7 a 9 8 a 8 9 a a 9 7 8 3 8 ",
"x 8 = 8 9 f f f a a a f a 8 8 7 p p 8 a f s d p 8 p - i p a d d f p p p p p p p 8 8 8 p p p p 8 8 8 8 8 9 f f 8 a a a f p 7 7 a ",
"v 9 7 f a h l f f k 8 f a a 8 8 - a a a f f a a p p p i a f f f f f f f a a a p p a p a a a p 8 8 7 7 p a f 8 h f k l f a a 7 9 ",
"x a 8 f f a h 8 8 8 a a p 9 8 8 a f h f f d f f d p a a d d f f f f f p a a a a a f f a f f p 8 8 7 7 8 p f f 8 8 a h a a f p a ",
"x a f f f 8 8 f h a h f p 8 a a f h f f d s f f d h h d d d h s f h h a h h p a a p a a f p 8 p 8 d d 8 8 f h 8 f a 9 p a f a 9 ",
"x a 9 a 7 7 f f h f d f p p f a a a f s j h h f f f h h h h f a f f x h f f a a f f 3 4 a a p f f f d p d f a f h f 8 7 7 p p a ",
"x 9 8 a 8 8 f f f f f 8 f a p p p f f j j j h f f h j j c c j h h h h f d p a 3 3 4 # . 3 a p f f 8 p f f 8 p f f f f 8 p a 7 8 ",
"v 8 p s d f h l l f f p f d 8 f f j h h j j h j x b j n n n c x c m x 9 8 $ X . .       . f a a p p f d f d f d k c k f a f p 8 ",
"x 8 f x p d j x h f d h h f p f f j s h n j j j n n j n n B c t 5 4 3 a 5 X X . # #   . . s f 8 f f d f f h d f h l h f p h f p ",
"k a c j f f h g h f f j j g f j j j j n B n j n B Z n B f 6 6 $ # # 7 f 9 # # . # # . . X a f p f f f h h h d f f j f f f j c f ",
"k a v v j c c c j j j j c j j j j j Z V A V B B m B Z A 0 ; # $ # 4 m n k $ . # # . . . X 5 h h h h d h h h f h l j c c j M M f ",
"x a m V m B B B m c c v M B n Z V B V V N x e > l A S S t > ; > $ t A n m 9 # # # . # # # # c h j j h j c j j c n v B M M V c p ",
"v a m A n B l B V B V V V V V V C c e 6 > ; : 4 B S D D x ; ; # 4 A J A B k $ # # # # # # # v v B n j c c n c c B M j B c A M f ",
"k f B B j M j C V B A V V V V A z # > # ; $ > v D S Q Q B > > > v L A A A m # $ # > # # ; ; A A B c c j c c c j M V h M c M v d ",
"k f V S B B v C V V C A V V V B > > # > 1 > t J S S S S J 6 > 9 S S A S S A 9 # # # # > : k V B n c j n M B B b v C M c B L V f ",
"x a V Y V B V C S L S S J C A z # > # > > 6 v L S L L L Q e > S D S S Q Q Q t # # # > > > A S A V V B Z V V L S C V B B V L V f ",
"x a c V M c V C Y ! Y L L L J > > > > > > v Q Q L D Q Q ! V v Q D Q Q ! ! m 1 > 1 > > > v ! L J A V B M B B V J L V V c c V v f ",
"x a v m M V V L Y Y ! Y Y Y t > > > > 1 y Q ! ! ! ~ ! / / / ~ ! / ! ~ ~ ! z > > > > > r ! ^ Y L S C V B V V V V C A B M M M j f ",
"x k M B V V V J C Y T Y ~ G > > > 1 > 1 J ) ) ) ) ) ) ~ ) / / / ( ~ ( ) J 1 1 4 > > 1 L ' ^ ! Q Y V S S C C L Y C S V V V V M f ",
"f h V A V A A J S ! ! Y L 6 1 > > > > z / ) ) ) ) ' ) ( ) ) / ) ) ( ) ^ z < > 6 1 6 z ~ ^ ~ P Q L S S S V Y Y T V S V V V S N f ",
"x k V V A L S L L Y ! Y y > > > > > 0 J ) ) ) ) ) ) ) ) ' ' ) ) ) ) ) P 1 1 > 1 > 1 ! ~ ) ^ ! ! Y Y S Y S S S S C S S J V N V j ",
"x l A L J C J L L S Y V < 1 > > > 1 z ) ' ' ) ) ) ' ) ) ) '  .' ' ' ^ x 0 < > 1 1 H ~ ~ ) ) ( T N / Y Y ! S A C S S S C C L C j ",
"x c L ^ Y J Y ! Y ! ~ t 1 > 1 1 1 r ^ ' ' ' ' '  .'  .' ' '  .'  .' G 0 6 < > 6 0 ^ ~ ) { _ ) G 6 ~ ~ ~ T ^ ! D Y T Y S L R L g ",
"x m ^ _ ^ ^ } _ ) { G r 2 2 1 1 0 G  . .X. . .X...X.} '  . ... .' ! 0 0 0 0 1 1 1 ) ) { { { ] 0 r ) ' { } { ] ) ^ _ } ~ ~ _ ^ c ",
"a x V J U T W _ ` W r 2 1 1 1 0 y ` ` X.X.X.X. . .X. .}  .X.X...' z 0 0 0 0 1 r 1 ^ ] } | } U 1 < K ` ^ _ ` W W ` W W T U J C k ",
"x v E _ T W +.` W F 2 2 2 2 1 0 E } } } X. .' ^  .X.} { { ' { ) ^ 1 1 1 1 0 1 1 < U W ] } _ 0 2 < z W [ | O.} [ ` ` O.W T W E N ",
"x v v n c V A j 9 # # ; X %   % c m B j h h j Z A J V l w V C S A # $ $ $ # : # % g M M m 4 $ X . & j l c B l l f f V B M c l v ",
"x a f l v N j f &             h j j n b b b h p 8 4 % % % e Z Z n a . X X O X X % * h h 8 . . X   O f j h j f f f h h M c x h 8 ",
"m a h B B B c e ;   X X ; ; u C A L V f f 5 : % : # , % : = D D Q D & & : : : : & % V D , X % % ; O e B V V c l M j M M B B h f ",
"k s x A B B B ,   % X ; ; ; J N k 5 4 : , : : : , 4 : : , 5 ( ( ) / 4 : , , : : , % S M , % % w l v A S A V B B c M V B M V j f ",
"x x B B M V e X ; : # ; ; ; ; ; $ : : : : : : : : : : : % , C ( ) ( l , , : : $ : % V w u C D S A A S S S A B A V c Z V M V B h ",
"x h B S V N > ; ; ; ; ; % % % % : % : : & : : : : : & : % , u ^ / ( N > : : 4 4 u V D ~ D Y D S S S S V S S C S Y S V A B C B x ",
"f x B L C e ; > > : ; ; > ; ; ; : : : X & 4 : : 4 : : : , % w ^ (  .L 9 u B Q / ( ~ ^ ( D Y D D Y Y A ! ! S L L ! T C V C L B h ",
"x h m L J l # : , ; , ; , > : , % : : ; : < , : , 1 < , , , , R )  . ./ )  . .) / ! / ^ Y ~ D Y ! ! ! ^ ~ S ~ ! ! Y B C A Y M h ",
"s c L T L J X : , , ; ; , ; , , : : : : , e u w , , < , , , , C  . . . . .{  .) ) ) ) ' ( Y ^ Y Y ^ ~ S Y ! Y ! ~ ! Z T S T S l ",
"x x L T L L e ; % : % , > > , , : > u M S T ~ l , < , , , < < u  . .(  . .{ { { ) { ^ ^ ~ D ^ ^ Y ^ ^ ~ ^ ~ C S Y N C Y 9 U L x ",
"a v J L A C u ; % % % % ; : r z M L T ~ ) ^ T N , , , , % , , w ) ) (  .{ { { { ^ ) _ ) ) Y ~ R D ^ ^ Y Y Y V u ; X w C : J J c ",
"s v U L B M 8 % % % , w z C S Y D R D ( ) ^ ^ C , , , , % , % w ( ) ) ' ) ) ) ) ^ ^ ) ^ T ~ T D S N V M % N V , % % . X X C U v ",
"c N U J C M N u u C C C T S S Y ! ! ^ R ^ ) R S w % % , , , , , N ' ^ ^ ) ) ^ ^ ^ ( ^ ~ ^ S N C C % % % % M S u % % g 5 X k U M ",
"s v E C C V L C C C C C S S C Y Y ! ^ ( ) ) D Y u , % , , % , % e ) ! ~ S L ^ ^ ! Y l S ~ 5 % : ; % % % % u S w X % N C e l E v ",
"p x U V N V V C M M C C C S S S C S Y Y Y ^ ^ D u , , , , , u M Y ^ / ! V N ^ ^ ~ e : < Y : : % % % X % % % e - g e N V V V P l ",
"p v P J V V V C C V V V C S S S S Y Y Y ! R ! Y C , , N Y S ! ^ ^ ^ Y Y C , ! ^ R u , % % % % % % % X % % 5 g M V C M C C C U l ",
"i v U B V M M N M V V V Y R Y D Y S S S Y Y Y Y ^ Y R R ^ ^ ^ ! Y ( Y Y Y l C ^ ^ M % % % % % w C u C U R M M V V M M M M M U M ",
"a v E N M M S V V C V Z _ ] T S ! ! S Y ! ! ! ( ^ Y ( ( ^ ^ ! ! ^ ! Y Y ! l N R ^ C % , , u M M C C T ] ] V M V V C C M M M E l ",
"i N E B M M M S C M M C R T Y S Y Y S Y ( ^ ( R ^ ! ( R ! ^ ! Y ! ^ Y Y Y C u Y R C l C R S C S C Y C Y ! S M M C S M M M M E N ",
"a H E B v B C Y C M C S C S S S S C C Y Y ^ ^ R R R ( R ! ( ! R ! ! Y Y Y S % Y ^ ! ! Y Y S C C S U Y C S S V M C S C M M M R N ",
"h m E A B V Y T C M C S C C S S S C S ! ! ! Y Y R ( R ( ^ ^ ^ ^ ! ! ! Y Y Y M Y ^ ^ ! ! R S S S S Y Y S C S C M C U Y C M C E N ",
"i H ` A C L ! T S C S S S S R S Y S S ^ ^ ^ D R { ] ) ^ ^ { ^ ^ ^ ^ ^ ! ! R ^ ] { ] R ^ _ ^ Y S Y Y Y D T C T C S R Y S C C W J ",
"i L o.E U J ~ T C C Y T ! R ^ ! Y ! D Y ^ ^ ~ ^ { ] { R ^ ] ^ ^ ^ ^ R ] ^ ^ ^ { ] ^ R ! ^ R S S S Y R R Y S Y C C T R C U E o.J ",
"i P o.K L V V S C S S R ^ S Y Y Y Y Y Y Y D S R Y S L L Y ! ~ Y ! ! ! ! ! Y Y C S Y Y Y S S S ! Y D Y D ~ ~ S S C C V Z U K [ Y ",
"i L T M V M M S C R Y ^ Y Y ^ ^ ~ T Y S Y Y T D Y U L Y ~ ! T ~ ! ! ! Y R Y Y Y Y S Y Y Y S S ~ ^ R Y D T ~ T T C C M M Z M R J ",
"s m R T T ^ R ^ ^ ] ] { { ] { { { { { { ] { { { | | } | | } } } | { | | | ] ] | } ] { ) ] { ) ) ] { { { { { { ^ ^ R ^ Y T T E N ",
"i v Y R T T ^ { ] ^ _ ^ ^ ^ ] ^ ~ R ) ) ] ' ' ' ] _ ^ { ) { { ) ] ] ^ ^ ^ ] Y R ) ~ ~ ( ^ ^ R ~ R ^ _ _ _ _ ) ) _ ] R R Y R Y c ",
"s a i 8 - - - - - - - d e d d - - - - - = - = = - = - - = - - - - = - = - - - + = = = = - - - - - d d d i d - - i - - 8 8 - p a ",
"7 = = = * * - = - = - * = + = @ o * * + + + + o o + + o + + + + + + o o o o o o + o + + + + + + * = = * * * = = = = = * * * = = ",
"@ @ @ @ * * & * * * * * * * = @ * * * * * * * * * * * + * * = * * * * * @ @ - @ * * * * = = * * * * + @ * & o * * * * * * * @ * ",
"* @ * @ * * o * * * * * - - - - = = = - = = = = = = = = = = = - = = - - - - - - = = = = = = = = = = = = * * * * @ * * @ * * * @ "
};
