/* XPM */
static char *result[] = {
/* columns rows colors chars-per-pixel */
"64 64 59 1 ",
"  c #161B2F",
". c #181D2F",
"X c #141B31",
"o c #191E31",
"O c #1C2134",
"+ c #1D243A",
"@ c #1E293E",
"# c #202537",
"$ c #21263A",
"% c #242A3D",
"& c #292D3E",
"* c #232743",
"= c #262D41",
"- c #282F42",
"; c #2A2F49",
": c #263144",
"> c #2B3245",
", c #2D3649",
"< c #2E394A",
"1 c #313446",
"2 c #33364A",
"3 c #333C4D",
"4 c #393D4D",
"5 c #2D3E53",
"6 c #343F50",
"7 c #3A3E51",
"8 c #35414F",
"9 c #3B414E",
"0 c #364251",
"q c #3A4554",
"w c #3D4956",
"e c #3A4758",
"r c #3E4B59",
"t c #424652",
"y c #434C56",
"u c #4B4F56",
"i c #414E5A",
"p c #4A4F58",
"a c #524A51",
"s c #4B5156",
"d c #45525D",
"f c #4B545D",
"g c #4E595F",
"h c #51565A",
"j c #53595D",
"k c #475460",
"l c #495661",
"z c #4C5963",
"x c #4F5D68",
"c c #525C63",
"v c #585F62",
"b c #525F69",
"n c #566166",
"m c #5C6366",
"M c #55626A",
"N c #59656D",
"B c #5B686F",
"V c #646465",
"C c #616568",
/* pixels */
"oOOoOOoOOoOooooo.o..o. OO  OO..... O OOOooooooooooOOOOOOoOOOoOOO",
"OOOOOOOOOOOOOOooo..o.oO  O OO...OOO O O ooooooooooo#OOOOOOOOOOOO",
"..o.OOoOoOo.o.o....o..O     ....          ..   oooooOooO.Oooo..O",
"##%%####$#$##OOOOOooOOOOOO O.... ..O  O ...Ooooo#O######%####%$#",
"-1-1&&>>>&&>&&&&-*--===%@@%%$$++@%O$@@%%$+$$$$%%---->1>&>>>&-1&1",
"41###%%#+&&&&%%%%$%%$==$@@&%+$%#%O$++@%%$$$$$%%%#+o$$%%%##&$###&",
"4&#%#%&%&&&&%%OOO#%$$$$%%@++O++@OOO@%O+@+O$++$%$ooo$&$1&%$&$#$#&",
"2&#%&&&&%%&%%%%%%%-==%%=%@%+@%%%%%%@%%O@$$%%%%%@%$$&%$-$&&&&&%#&",
"2&+$&>>>>&&::&$$=%=->-:-%%%%%&--&&:&%&==%%%-=&%%%&$%->&&>>>>&$+&",
"2&$&>>3>>>&>>&&%$--->,=--=@@:::>>>>:-&-%%-%----%%$+&>:&,>>1,:&$&",
"2&&,&&>&&%:&:%%%=>,-==>==--=-::>>>&&&::>-:>-:>-&%$+:%>:%%&1:&,&&",
"4>:,:&&>,&,>%&&:>,-,=;>>=::--:>>&:,:,:&:&=%---%%&:%&&:,&>&&&:,>&",
"2&&-$%&>,>:>:&:&==>-;,,==>>>::,::>1>>>&%>>&,>%%::::&::>>,&&%+&%&",
"2&%-%%:>>>:%:>&&-:>,,<,=>,<<<,,>>>>>:%-&-,>::-=--&-::&:&>,&%&:%%",
"4%->:>132>:->&%:=,,,<<,,<<<<88<<<33>>&::>,>&%>=-%-->>&:&<3,>&,:%",
"2%>,&>,1,>:,,>&:,,;,<,,<<6<<<0<:<<1&&,,>,1->->-&-->:,,>>,1,:%,:&",
"1-33:,,,,>>,,,,,,,<566<<888888<<<,,::,>,,,>:,,>&:>>>,,-:,,,,:23>",
"1-43<3323<,<<<<<<<0000630880e088832<,,:,>,>>,,,>,>:,,,>,2<33,38:",
"1-7w8008034484600000000088qqee088803<<<<<<<,,,<,<<,,<,<383004q3>",
"4-7w68380000q0000q0qqqqqqqqq0008380304003336333366<<633308383w3>",
"2-6028<w00qqqqq8q00qqqwwqqqqqqq88q08630<883000003<<<3<2<8q<3<08>",
"1>qr004wqwwqqq8qq0qqrww0qqqq8q888808q0000q0qqq00333360634w830iq>",
"1>qdq80wwwwwwq9qqwqriwq0q8qqqq98009qqqq00qqqwqq0006q00iwqw00qiq>",
"1-4q83qwdddwiwiwwiitiwwwqqqqwwwq0qqwwwwwweqwirwwq06300wwiqq33q4-",
"4-2000qyidkidiiiwriddiirriwwwiwwwwwwwwwwwyriddiywq0000q0qw0089<>",
"2190qqqywididddiiiidkkididiwirwwwwiifddwyiiifdyiy0wewwiiqw0qqq4>",
">,0wqq0irkdididiwiiiikddddiiiywwdwwddiwiiiidddiirwwqqiikqw0qqw0,",
"22qqqiyiiidiiiiriiddddddidiyidiiwddddyiddkiidfiirieiitrrwiyyqq8,",
"12wiwwriirrrkdddidddlkiiiddiyddddrrkdywdkdyilddiiiikdwrqwywwwdw<",
"42iliyikdiflklfddffllkdddddydydyddkriirdkdiplllfkpkddldiiddyygi<",
"24zbzlNcxxbbbbgzzzzznllzgdfiydfddddgkrfgkkddclzclxzxNMcxxxMllcz3",
"-2qyufjjcjhcvzjcjzgcbczgggfffgfdddggzggghdgcvbcccccljjfjjjjfsyq1",
"19jjfjmvjvmmmvgggczzcgdrfgswswrwyydydshgrddjjjzbgggjmmmnjjmjsjjt",
"242430w,>,3881>,,<8<:::<888888<833<8898888<&8808,,>,188,>>w98332",
"3->244<:>&>,:>:,:<<:::::&888<<<:><>><<<<::::&&8<,,<<,2>>>><882&&",
"7-,00083883888800q880e0088q88q088q000qw80e0e8880888808328<88881>",
"1,2e80q38880weqqwe0qrreeeeeqereerrrrrreereerr00eq0qew06636008w<>",
"2,6q0q068q0wwee00eerrrrrrreq0qerrrrrrreerrrreeeeqqeerq0e000q000,",
",26e0wewdrwereereerrrrrrrreqwerrrrrrreqerrrrrrreewwqeqqrir0t0r0,",
",20iwqwdddrwrrrrrrrrrrkrrrerrrrrrddrrrwrrrrrrrrrrrwiiiiidkwqwi0,",
"22qiyy6dlrzrrxzrrrrrrzkrdzlrrrrwdlkdkllkrrdkrrrkrddkkqkdli0eii72",
",2yfdk0kzdrzzdzdddkkzzlklkzkrkkdklkkllzkddkkkrzrdkkrkkdklkqliki3",
";2ifidrdrfwgzgzzdzgdlkrlzlzklxgkkkdkzlzldzkkrrrkdkldlkriiiiiidy2",
",2yyeerrrw0sdlzkrgrrlkrlllzkrlrkkkiklkzldkkkzrzzikxdki0wiwwwwyy2",
"-4uy763qrrwrrrrrrrrklkkkddddddddkkkkkdkkddzdrkkrrkreiwqqi8887iu3",
"24sye7wdrrrwfrrrkkzrllrrdkddkdddkkrdkkrkddddzrzrdrrrdwrdwdq8qyf4",
",7hwwqiwwrw8rrwrrkkkkzrrdkdkddddkkrdkkkkddrkkrkdrdewi9wi0wiqwih2",
"*2sqqtqq88qwwrrrrrkrrkkrkkdkkdddkkddddkkrkkzkrrrrw0wwq088wqq99s2",
"=4syqq9ww8qqwwwwrrrrdgkrzzrzkddkddrrrdklrddddrrrrqqrwq0qqw88wws8",
"*7s9888qqqq0dgdrdrrrrrrrzkzzkddddgrrddklzdddddrrrdrgz0qqq88889s8",
"-4g888wwqw8qgmddgrrrdrkzzrrzdkddddrddrkrdddddrrrwdgncq0qqww8<9h9",
"=9h8889wr88rgdwwdrrdzzzrzrzkdkkrdkdrrkkrzdrdgrwrwirrfr88wwq889s9",
"*th660wdq8wrrrrwreerddzdkllkkkkdddrrrlkkkkdddrwwwidrrw08wrw888j9",
"29hw0qdfw8wrrwrrrrerddddzkklkgkkddddkrgzzddddrwrwddrwwq8wfrw88j9",
"*tvewiflrwdrrrfrkrrkxzdkMbzlzxzlzzgkrzzbMxzzxgrrdddrdwdwsgsrwwvt",
"*iVhpyldwrdddgzdrkddzkdznnxlzxzggzgzzkznnbdlzzrrriggdddrrrgwssVs",
"*iVad0ewwrrzzkdrdkddrrddiyiidkdddddkkdwwddrdrrrdkrrrzdrrww00fymd",
"*yg5e08wrfrzdrzxzkdrdddrdiidddkkddddkkidrrdrrdddzzzddzddww8808jy",
";7jfdlzzzcMMMMMMMxMMMMMNBBMNBNNNBMBMBBnBMMMxbxxbbbMMMMMbzgzldff9",
"*3djdggncxcnzxxxzzxbbbxbncxMMMMxbbbxzzkgxxllxxzkzxcccbxxnngffjd3",
"--*=@%:*@@@:&:@@@@@@@+@+++@@@@@@@+@+@@@X++++@@@@:::@**:@*@=@%@*:",
"%$+o+OO+@++++OO+XooXXXX XXXXXXXXXXX   XXXXXXXXXXX+X@+OOO++OOOOO+",
"ooooO.OOoOOOO+O++OOOoOOOOOOoOOOOOOOOOO+OoOOO++OOOO+O.O.OOOOOOOOO",
"#oOOOoOoOOO++++@$+++++++++O+++@+@++@@@@++@O++++++++OOOOOoOOoOOOO"
};
