/* XPM */
static char *result[] = {
/* columns rows colors chars-per-pixel */
"64 64 76 1 ",
"  c #161C2E",
". c #181D2F",
"X c #141B32",
"o c #191E31",
"O c #1C2134",
"+ c #1D243A",
"@ c #1F293F",
"# c #202537",
"$ c #21263A",
"% c #242A3D",
"& c #292D3E",
"* c #1F2940",
"= c #232743",
"- c #252D41",
"; c #282F42",
": c #2A2F49",
"> c #273043",
", c #2B3245",
"< c #2D3649",
"1 c #2E394B",
"2 c #313346",
"3 c #33364A",
"4 c #323C4D",
"5 c #393D4D",
"6 c #2D3B52",
"7 c #333E51",
"8 c #3A3E51",
"9 c #35404F",
"0 c #3C414D",
"q c #364252",
"w c #3A4554",
"e c #3D4956",
"r c #364558",
"t c #3B4759",
"y c #3E4B5A",
"u c #3E4D61",
"i c #424652",
"p c #434B56",
"a c #4B4F56",
"s c #414E5B",
"d c #4B4F58",
"f c #524A51",
"g c #4B5156",
"h c #44515E",
"j c #4B545D",
"k c #4F5A5F",
"l c #51555A",
"z c #53595D",
"x c #414F61",
"c c #455362",
"v c #495662",
"b c #475865",
"n c #4B5965",
"m c #465568",
"M c #485769",
"N c #475869",
"B c #4D5C6A",
"V c #525D64",
"C c #595E63",
"Z c #515E6A",
"A c #4F5E70",
"S c #4F606E",
"D c #566167",
"F c #5A6266",
"G c #54626C",
"H c #5A646D",
"J c #5C696F",
"K c #4F6171",
"L c #556472",
"P c #5B6772",
"I c #576875",
"U c #5C6A73",
"Y c #5B6A78",
"T c #646465",
"R c #62676B",
"E c #616969",
/* pixels */
"oOOoooOOoOoooooo.o..o. O   O....O  oOoooooooooooooooOO.OOOOOOoOo",
"OOOOO##oo##oOOOo..o..oOOOOO O...oOooooooooooooooo#o#OOOOOOOOOOOO",
"...oooooooooO.....oo..o     ..       XX        oooooOO.O.OOoO..O",
"##%%##$$$#$##OOOOoOoOOOoOOO .oo. ooo o O...OooooO$O$#####$###$%#",
";2&2,&,,,&,&&&&%---;---%@@%%+$$$$$##@$@@$#$$$$%%-;;;;2,&,,,&&2&2",
"52###$%#+%&&&&$$%$%%%--$+@&&+$$%@#+++$%%#+$$$%%%$#O$$&%%##&####,",
"5&#%$%&%&%,&&$#OO#%%$$$%%+++++++#++$$+$$+++$#$%$Ooo$%$2&&$&$###&",
"3&#%&&&&&$&%%&$&%%---$--%@%+$$%%%$%%@$$@$$%%%%%%$$$&&$;$&&%&&%#&",
"4&+@&<,,,&&,,%%@-%-;,;;-%-%@-->,&&&&%%%-%%%>%;%%%%%%,>&&>,,,&%+&",
"4&+&&,1,<<&,,%&$$-;;,<;---%%->>,>,9>>&>-%&%>,;;%%%+%,>&<,,<<&>+&",
"2&&1&,1&%%&&>&%$-,<;-<-;---->>,,>%@%>>&>,>,>,;;%%@@%%,,%&&<,&<&&",
"5&&<>&&,<&1,%%&,<<-<;-<-->,>-,,>>>9&<,%,&%&>>-%&%&,%%,>%,&&&&,,&",
"3&&&@$&&1>,,,%,>--,-<,,,,<:,,,,>,,<,&,%>>,>2>%->&,>%>,&,<,&+@%%>",
"3&%>%%&1,&,@,>&%-<<<<1<>,,11111,,1<,,%>&>2,>,>%>,&>,<%,,,<&%&>%&",
"5%>,,,<44><,>&%&-,<<6<<11111494199<,,>,,,,,&%,>&%%>,,&,&14<,>,&%",
"3%,3&&24<,>>1,,><<,<74<14714494111<&,<><34>,>,;&>,>,,1,&<<<,&1,%",
"2>43,<<<,,,11,,<1116q713qq67qq1113<,,<<11,,,<<>>,><<,1>,,<,,,44&",
"2>5414444311411111qqeqqqtqqttwqqq7411<,,,1,,<4,,<>,<<<,11444199>",
"2;5e9q9994749q9qqqqqtqqeqqwtttwqqqq444614431111,11>1113199q94w4>",
"5,8e9949qqwwwqwwtwtewqeewwyytewq4wwqqqqq4q4774999191444499499e9,",
"2;q9443ewqewwqqwwwwwyyyytetyeewwqewqqqqqqqqqqqqq191141419w19497,",
"2;eyqq9eweewwewwtwwtysyeeeetqeewwwwwtwqqqeqqeww991419qq14p44qse,",
"22whw9weypyeeeweyyyssyyeeeyyttytqtwyyyeewettetwwqqqqqwpeewq9wsq;",
"2;9w94wehhhyhshyyhhsccypyyyyhuyyyyypyyyeyyyyphywwq99qqeepww44w5,",
"5;4qqqepscchchhhhhhcvccscsscccsscsshhhsyysssjchyewwqwww0epq9994&",
"2,5wwwwpyhhhvjvhhhhcBnnvnnccnchshcccnchhhhhhvvhsswweewypweqwww9,",
"<,qpwewpyvjchhchshcnvnnBnnnccchccccnnchhcjhvjhhspeewqhhhwewwwew,",
"33wwesysshhhhhhhhhnnBMnnnnncnnnvccnnnchncndvvvjsyhyhyyyyepepww01",
"23espepssyhuvjjvcvnnGBMnMBnnnnBBnnnBnccvnnssvvjhhhhhhyewyyeeese<",
"44snhphvhcnnnnnnnZBZGZBBZZZBnZZZMBBBnvcnnnvvVnnnnhhhhnhhhhgeskp4",
"25nZnnJVZGGGGGGGGGGHPPGPHHGZZZHZBnZGZZZZBnnnDnVSVnnGGGnDnnGnjDn9",
";3ipgjVzCCzDFDDDDHGJUUHHHPGZZHHZZGHDGZGDVVVGFGDDVVDkDzzzzzkjgp0<",
"25zClzRDFFJRRCCZHJLPPPVAZPHAVZZBZCVZVVCZnjnCVDGCZVlCFTFFzzFzgzz0",
"25544we<,34wq74338t7<6:7tssuptwtttrttppp99435qwq3<,1499<&<ww9440",
"5-,44q1,,<,4<13647766666877u7rq67766r77691><,<11<<11<1,,,&1993&&",
"5;3qwqq7497wtqtttxtruxuuxmmxmMmuxmxuuxxxuurytqrtwqqqwq43999999<>",
"2:7rqqtq9qwtxtxtxxxxMMmmMMmmmNmMBNmmNmxmbuucuytytwwttwqq49qqqe1,",
"338wqwqqetwyxxpuyxcMNNMNAMmmmmNNAANMNMxxuuhcyuyetttyyeqtq4qw9qq<",
"2<qpwewhcyyysptxccmcmNMMAmMMNNAANNMBMxxxccbchcyyyyywyeeyhyweqiq<",
"<3qxeeycvhchccxcmNcmNAAAAAMAAANNALABAMmMbcchuuuusstcsysschewesq1",
"3<wsppwxnvnsnZZBcccmBILBLYYLAMNBAILABILBccMnccuhhhvbvebhvhqeysq3",
":4pvcnwnnvvvnBZZMnGKLILLIIYLALLLLILKLGLZBBBZccvhjbbychhjnhqvhjy3",
":3dvsxschcynZVZZnLGBLLALYIYILYILILALILLGVZnnchnnhbnvnhehsheshjh2",
"24psippthyecnnGZnBnnLBBLLPYIZLAGLKBLGGPGBZZnncvbhnncjhwyswpewpp3",
";4dswqqwhtthhhvcvnnBKBSGKSGLGGSSLSSLBBGBnBBnccvhuhuespwwyw999pg4",
"35lptqyhychychybbvSBGKBBSGBKLLSGLGBASSBBnnnnncchhhyyheyhyhw9wpj5",
":8lpeespwhyehhyjvbBBLGNNSLSGKSSnLGnnGGBnncnnnchhhheehweh9eswypl4",
"-4gwwweeqwweyhyhucbbnSBbSLSGSSSSSSNnBnBBncnnbcchyywyewq99w0eq0g2",
";5dpewweeweeyyyyujbhbSNcSLGSSSnSBBbcbnnnbbbkbhyhyyeyye9eee99eeg9",
"=5gq9w9wweewkDbhvhybbvbbGLGGGSSnBnncbnnSbbbhkhyyyhykbqe999999eg9",
";5l999pewewwDHkubnbhbnnDSBSSSnnnBncnnnbnnjkbhuhuyykDke9eeee990g0",
"-0lq99wse9wykkhybhybSSSnSnBDvSSvnBcccbbbnvukbhyyyhyhby99ee9999g0",
";ilw77yhe9eyuyhyuyyuvSDbnnGnSnbnnbccvbbjnbjjbyeeegyyyy99eee999l0",
":5lw9ehheweyyyhuhyukvbbjVSnnSDSjnnnhhvDSSvbbkyyyyhkyeye9ekee99k0",
":iCtyscjyyhyhhhhcucbSDjSJJGSDSGSSSnnhbSJGDkbDhhyjkhujyheekgyeezg",
"=pTldpjvyyhhhbDhhhcjSvnSGHGDSDSDnSDGSkDSDDnbSkyuyybkhyjeekkeglTe",
"=dTagrweeyubbuhhjnhhhhhbhhhccnnvjjhbnjyyyhhhyyyjhuuyvvsyeerqggFp",
"=pj9r99wykhhkhSknnhhhhhhhjhjnvvnbvbjjjhkhhhhhhybSkbujkhhee99r9kp",
":8kjhnnDDSDGGGGGGGGLLLHUUUHUUJPUUPULUGGUJGGSDDSDDSDDSDGVkkkbhjg0",
"=4hkjjnDkDDDDkDDnnGGGGGDJGZHGGHLGGGDSDbDVnvbbSkhkkDDnDnnbDkkhkh9",
";;-$@*>***>>>>>*=***+@+@++@@==******+++++++*****@>>>*>-*-**%%@->",
"=$++O+O+++O+XOXOXXoXXXXX  XXXXXXXXXXXXXXXXXXXXXXOX+++O+++O+OOOO+",
".ooooooOOOoOOO@O+oooOOoOo+OOo+#oooooO+OOOOOO+OOOOOXOO  OOOOOOOOO",
"o+ooOOO OOO+++@@$$$+@@+@++++o*$*+=@@+@*+++O++++++++OOOOOoO OOOOO"
};
