/* XPM */
static char *result[] = {
/* columns rows colors chars-per-pixel */
"64 64 39 1 ",
"  c #2D251D",
". c #31291E",
"X c #382C1E",
"o c #352D23",
"O c #382F24",
"+ c #373027",
"@ c #3B3226",
"# c #3D342A",
"$ c #403127",
"% c #41372B",
"& c #443A2E",
"* c #493D2F",
"= c #463C31",
"- c #493E32",
"; c #4D4234",
": c #4E4438",
"> c #514536",
", c #554837",
"< c #524639",
"1 c #55493B",
"2 c #5A4C3D",
"3 c #5E503F",
"4 c #64503F",
"5 c #574C40",
"6 c #5B4E41",
"7 c #5D5142",
"8 c #5F5548",
"9 c #604E42",
"0 c #625444",
"q c #6A5747",
"w c #645847",
"e c #685847",
"r c #665648",
"t c #6A5748",
"y c #67594A",
"u c #6A5B4B",
"i c #715C4C",
"p c #6D5F51",
"a c #726454",
/* pixels */
">11021129t02-&-&$%-21>*,>&&$@*#@##X@@@%&==<2::;;;>62,&&2-->>-91,",
"12,,2o29u392-1-&%-9r1-,,-*>*%@@#%@%@@@%%#;:;%%:;@;61&@&-21662211",
">>>921032244--1-O&91*,1-12,>;@@#%@&&%;;@;=;&&;;&&&<<&$-2,21>,22>",
",2200102,34q-,96><21;2,*,2&%%@X%&@@@@;%%#;;#&;&&>1<&=----->>,,2,",
"1111302029324-29->121,&-,>>%%-&;**%%%%;*#:+##:<;&>99-=&<,>12,&<6",
"611>10r42302,--0-1<-11,-<1>>&-*;****,;,,;;=;121:&-16666<>>->2091",
"20111291229qqi2--,66061;:1>11;;;,,*%*;>3;#;#:2;;-->1<<65612,1221",
"111>1111,>033it2>161611>>,;;;>2;*%*;@;;>##;;:;::-:<1516r09,26116",
";;*1--11,,,,,993>661#2<%;,;;;;,;**;*;&;,%;;;;>;;==<26:2y6022,22>",
">&;<;2>;&332q99212p1#:1,,;*,;;;;*>,;>,%*&;;&#&;#&=:7772295>11,>2",
",2<>=:12,>>-399220a311>-@@;,;;;2w3,*>3;,;;;;:<:;:;:2::770127t3,9",
";>1>&:3222,4qq3,;17;*>11&;>***;>,,%*,;&&&;@;##:;&-72:<,>6100r21>",
"322>*2>>->1&,1>127y2;;,;*,,>;;%%;;@;,X.X&&1;;;:111r0:;>:<,>211<2",
"2,2<;0>32,,>->&<27r2;;>X@>,,>>>;;%%*;@X;;>;::<::<<1::;;1783311;1",
">2,>12>2,>,,02>>;;>**;@ X;;;;,3;%;;;;;;;,;21<=;:<<--:111:<22;><1",
">2,>7102,qt211--&>,;*;;;&%;;;>1;>,,;;%*;;;1;:&;%=<11;11>172>221>",
">31>7p3:1990,126>61155-&#;,2;;;,>22---2-<5<=--::>-:<-<52-<1>11>;",
">83;:u73,>190q61161<--;;;;>>1>,>>>-,,6-,-=<:5<=<-<<<>>-<-<11,1,1",
">321w8119966ti1-&-162;>*;<<:;;,;-,-9----:-:5<=::::<:-=--<2611,11",
";;;;21615-16191&%10-#:601132;;;;>-->->$-%=<<-=-=-:<-&-1<---:>>>:",
"&;##;#+75<<--<::&;8<:1<<2;;:;2;;--2,----==-6--=&=-%-<::->:-->1-&",
"&&;=;11:5955--:-=:1:106<>>113,;*223,----====&-:::-&==-=&::-=&>2-",
"&;<;;;88995--9=<<:<32<76>12;&;;;>-*-=-=-===--=-=-===@&=<&&-===%&",
"%+&;#&&:1-----:=&&:<21::;;&&#&&-&O-*o=-=-:<-#o#-##%-=&==%%<1%&O%",
"+o@oO-=:5<::::==::=-=555-#=-;-;*&-&,11*&+#=#+#---##=:##==<56:%O+",
"=&%-&:<90<-15::==;=-5:=:5&&-:&%;&>1,2-*-+55#====#=#-:=##-==1<===",
"1;%=-56<<65=:5:=575685=5-==-15-;<&&:&%&&:5::=#==;-:;===5;-::::=-",
"<1&o856565<68:=:-:55::#==#=5<<=#%#O#@%:=##==:=:55555-==#;55--1:%",
"5&##-:#:5:-5-##+#-5555##&=:-:-&&%%@@@@%###==:5-##-=5=#:;55==<<:-",
"<#=-=++#:-555==##-#:55::-=---:==;&&&&&&;#=:5==5##=##==-5:-:-=:-=",
"-=#=-5555--=::###55=##:=--5:---=;;;%&%&;###=#:5:=:-=#-;==:::::--",
"-=#==:-5-55##==+=5-5::5#=-==--<;:;&;&;&&#=====#:--:==;=--;:::::-",
"=:=+#=:::=:##=&+==#;::;&#=;;,;;;;;-;>*&%:####=#:::-#=-==-=-;-:;=",
":=++=:=::+++###++#&#++##=*==;,;;;;2>**&&=##=#=###=#5--:=--==#:;=",
"::#=#:==&#.+++###==+&&=;*,1;*;>;;;>*;O*##=##:5#:-=#:--&&-::-#;;=",
"=::=#=###==#+###=:;;;==;&=;;,,;;;,,>*&*&##5###:#::=#$=----;::;;;",
":::==++#+==++#:5=+===;;==:,5:;*123>&&;*&#==:#+##+#=--==-;:;;;;=;",
"=====++++===+=::5::5;;;;;:*=;;;;;;;*,&;&#+####::==#=5-5-:22;;;;;",
";::====+#==#+==%:::=##&*==&#&&=&o=&o-=&==::#==--#===-==5;;:;1;;;",
"11;&=:==+##+++##+++##&=&&=*;-;-&;*>2<-&##=#=###-:=5:55::;<12,;;1",
";;;&;>,;@++#++#%+=#====:&#*;&#;&;112;;&@;;#;;=:5:515:<5:11;&;;;;",
"+=&+;,;;*@+++@&%==#+###=&&;15;;;&&;&#&&;;&&;::-#===1::;;;;&#&&=%",
"=-:1;;;;&&&@+@#&==#==#:=&*;,1&+##oO@;;&;#;;;;;5#&&#=:<5:#;;;;;;&",
":112;;;;,1;,;&===:::1=&#>>;*;&##@oO@####;##;#;:;===;;=::&#;;%%;&",
"&&;;;*&,;1*&&&;5,**;5:;;*;;&&*&;%#%%%%&##;;&=&#==5:::::=&=;11;;;",
"@@@@@;*;,33*&#;53,,,1:&;*>;&@@@@###%@$&@+####+##===#=&==#;:::;##",
"@@@%;&&@*1w3,,*5-@&,;1;&;*#@&&@@o@&#%@@&+#++##=#===::=+&;;;;;&%%",
"&;@;@X&&;5w1&**1>+;,;1>*;+..&*&&%$%&#+X#######=##%==;;=;==;;;=&;",
";;&;@.;#,#,,>*;*&&*;;;;&;>1;&&&&&#...+X##&%O#%%+%=:=&&==:;;;=;&;",
";@;@;;;;>>>;;>***;***,,*;;,;*&&&@*..#++##%%#%#&&==:===#===;=;;;;",
"*;;;;;::1,3,2>;;;,;;,,,*;;51,&&*;&;@;%%@%>---&===#===&&&==:;;;;;",
";>>;;;1,,>2,,>&&;;&,;,,*31;;,;;;;&&%%@++%=-&&#=&==:=;#&&;=;;;;;;",
";;,;;;<>>,22,>*;;*;;;3;*,;&;;*;*;,;X@@%#=--::;#+====#;;;;;*;>;;;",
",,,,>;,,,>,>32;;;*&*;,;;,*&&*&&&%;;&#@&&%-&$&;;#=5;=;;=;;%;;;;;,",
">,,433,302&>2,;;;**&&*155;&&;*@@;,&%&$&=%#%&#;&;=::;&;;;;;;;%;,,",
",,,3,,,3,632>;*;;;;,*;;1w5,,*,&&;%@X@&%-&==##;;&5:#:;=;;**%;;,,,",
"2223>>>022,62,*-;,1w1;1;515:*;&*%*#X@;@;=;;;:>;=;,;&%=-=;;**;;,,",
",w44>3e0,-,,-2293,,15:&;51>;:*&*;@@@@%@@&;:<;#=;;33;===-&%&;;*>,",
"03,24,w3,-9,22->5&**;;*;&;1;5>%@XXXX%X;@&;:;##;;*135;==;,,**,,,3",
"ww,300u0,,,,261>5;,&>>:;&&;>>*%;;X@@@%%%==;=#;;:;=;;;;;:,,,,,,*,",
";>2er20y6yu6q9111;;55,5&X@1,,;;;*oX@X.@%;=&&%;;:;-<11==;,;*,,,,3",
";>>1,122r7r99q7:,,;w;;>&&*;*&=3;@X@&@@X@=:;::;;%;;32=&=;;;;,,,,,",
"#+;;>-10,2922<>-*>**;;;*>&&*&&&;&X@XX@@%;:;;=;;%%13=;;=*5,;53>>;",
">>>,1202116--1-&;;;;;;,**;*#@#@@@+@@@@*;;;;;;&&;%:&#11;=;,,1,,>,"
};
