/* XPM */
static char *result[] = {
/* columns rows colors chars-per-pixel */
"64 64 226 2 ",
"   c black",
".  c #00000E",
"X  c #000013",
"o  c #00001C",
"O  c #0C001F",
"+  c #010024",
"@  c #0B0024",
"#  c #02002B",
"$  c #0C002C",
"%  c #130024",
"&  c #13002B",
"*  c #19002F",
"=  c #040033",
"-  c #0B0034",
";  c #0C003A",
":  c #070039",
">  c #140034",
",  c #190034",
"<  c #13003C",
"1  c #1C003D",
"2  c #22003B",
"3  c #160043",
"4  c #1C0043",
"5  c #1C004A",
"6  c #220045",
"7  c #24004B",
"8  c #2B004C",
"9  c #2B0044",
"0  c #36004E",
"q  c #260052",
"w  c #2B0054",
"e  c #2D0059",
"r  c #340054",
"t  c #3B0054",
"y  c #33005B",
"u  c #3B005A",
"i  c #360062",
"p  c #3C0063",
"a  c #3F006B",
"s  c #44005C",
"d  c #4A005D",
"f  c #51005E",
"g  c #440065",
"h  c #4B0064",
"j  c #4C006B",
"k  c #44006C",
"l  c #520064",
"z  c #53006B",
"x  c #4D0074",
"c  c #460172",
"v  c #540074",
"b  c #5B0075",
"n  c #53007B",
"m  c #5B007B",
"M  c #640077",
"N  c #6A0076",
"B  c #63007A",
"V  c #6C007C",
"C  c #740075",
"Z  c #71007C",
"A  c #570182",
"S  c #5C0183",
"D  c #5E0188",
"F  c #5E0888",
"G  c #630084",
"H  c #6D0183",
"J  c #64018C",
"K  c #6C028D",
"L  c #610988",
"P  c #720184",
"I  c #74008A",
"U  c #79058C",
"Y  c #6B0293",
"T  c #6E0198",
"R  c #6F0A96",
"E  c #730095",
"W  c #7C0395",
"Q  c #74019A",
"!  c #7A009D",
"~  c #710899",
"^  c #7503A1",
"/  c #7B02A3",
"(  c #7F00AB",
")  c #7C0DA5",
"_  c #830395",
"`  c #880396",
"'  c #850399",
"]  c #8E029E",
"[  c #810C98",
"{  c #90029B",
"}  c #82149C",
"|  c #8200A5",
" . c #8D01A2",
".. c #8201AD",
"X. c #8C00AD",
"o. c #890CA5",
"O. c #9102A2",
"+. c #9203AD",
"@. c #9904AC",
"#. c #930BAF",
"$. c #920DA6",
"%. c #8600B0",
"&. c #8C01B3",
"*. c #8B07B5",
"=. c #9303B3",
"-. c #9C05B2",
";. c #9209B2",
":. c #9405B9",
">. c #9D01BE",
",. c #9A0CBC",
"<. c #9909B8",
"1. c #9917B4",
"2. c #9514AD",
"3. c #A504AD",
"4. c #AB01AE",
"5. c #AD0AAD",
"6. c #A408A9",
"7. c #B108AC",
"8. c #A404B3",
"9. c #AC02B3",
"0. c #A60DB2",
"q. c #AB0AB4",
"w. c #A302BC",
"e. c #AA00BE",
"r. c #A30DBB",
"t. c #AB0CB9",
"y. c #B201B3",
"u. c #B008B5",
"i. c #B104BB",
"p. c #B30ABD",
"a. c #A612B2",
"s. c #A914B9",
"d. c #A816B9",
"f. c #A923BD",
"g. c #C107BF",
"h. c #9E01C3",
"j. c #9D0CC2",
"k. c #9F04C8",
"l. c #9A12C3",
"z. c #A301C4",
"x. c #AC00C4",
"c. c #A20BC4",
"v. c #A402C9",
"b. c #AC01CA",
"n. c #A50AC9",
"m. c #AB0CCB",
"M. c #B200C5",
"N. c #BC00C4",
"B. c #BB0CC3",
"V. c #B201CA",
"C. c #BB01CC",
"Z. c #B20CCD",
"A. c #B909CD",
"S. c #B60DC4",
"D. c #A513CA",
"F. c #AB13CE",
"G. c #A517C8",
"H. c #B416C6",
"J. c #BE00D0",
"K. c #B20DD1",
"L. c #BB0AD4",
"P. c #B405D0",
"I. c #AD12D2",
"U. c #AB17D1",
"Y. c #B813D6",
"T. c #AA04D1",
"R. c #A520C0",
"E. c #AB2FC9",
"W. c #BF23CF",
"Q. c #B420D2",
"!. c #C507C5",
"~. c #CC04C5",
"^. c #C50BC4",
"/. c #CB0AC7",
"(. c #C401CC",
"). c #CD04CB",
"_. c #C30BCC",
"`. c #CC0ACB",
"'. c #D500C5",
"]. c #DA00C6",
"[. c #D502CB",
"{. c #DC00CC",
"}. c #D20BCD",
"|. c #D908CC",
" X c #C615C5",
".X c #C619C7",
"XX c #CB13CB",
"oX c #C916C9",
"OX c #D111CE",
"+X c #CC04D3",
"@X c #C10ED6",
"#X c #CD0AD0",
"$X c #D403D2",
"%X c #DB01D1",
"&X c #D40CD2",
"*X c #DB09D1",
"=X c #DA09D9",
"-X c #DA06D9",
";X c #CD13D2",
":X c #CC1BD4",
">X c #CD1DDA",
",X c #C915D7",
"<X c #D313D4",
"1X c #DC11D5",
"2X c #D31BD5",
"3X c #D412DA",
"4X c #DD15DB",
"5X c #D11BD9",
"6X c #DC1DDA",
"7X c #E200C7",
"8X c #E200CC",
"9X c #E201D1",
"0X c #E31BDE",
"qX c #E215D9",
"wX c #C62DD5",
"eX c #CC20DA",
"rX c #C826D8",
"tX c #D423DC",
"yX c #D625D7",
"uX c #CA30D8",
"iX c #DD13E2",
"pX c #D517E0",
"aX c #E31AE1",
"sX c #D827E2",
"dX c #C531E0",
"fX c #CB2CE1",
/* pixels */
"                                                                                                                                ",
"                                                                                                                                ",
"    - - = : : - - : : + # - : ; ; : : : - + + = - : : ; ; - ; # # - - - - ; ; ; : + + - < : - - > - - + + 5 6 6 6 5 6 1 - #     ",
"    - ^ T E T T T E A - i Q E Q Q Q Q E R 3 5 Y T E E ! W Q Q 7 7 J Q Q Q Q Q Q Q u 5 J Q T E ' ] ] W r 6 $.{ O.{ { { ' m #     ",
"    - n.>.w.>.>.c.>.( < n j.k.k.k.z.k.h.,.5 e <.k.>.>.w.z.>.D.e y X.v.w.z.w.z.v.D.v w ..k.z.V.~.)./.t.j 0 :X~.!.!.^.!.B.o.-     ",
"    < m.h.z.z.k.z.j...3 n c.c.v.v.v.z.k.j.7 e :.k.z.k.z.z.z.F.i p &.n.z.v.x.v.x.F.x e ..x.C./.).[.}.p.z u :X/.'./.`.XXoX$.$     ",
"    < n.>.h.h.h.h.>.( 3 x j.h.k.k.k.k.h.,.7 e *.>.h.h.h.z.w.c.i i X.z.e.z.e.z.z.c.n e +._.).).~././.i.z t :X~.g.!./.`.^.] $     ",
"    , m.z.k.v.v.c.v.%.3 n c.z.z.v.v.z.z.j.q e *.z.z.z.v.v.v.I.i g =.x.v.x.x.z.x.F.n u w.&X}.&X}.}.&XB.b u 2X}.}.}./.`.^.] -     ",
"    1 I.v.v.b.b.v.T.*.3 n G.n.v.b.v.v.v.D.8 e ,.v.v.v.v.T.b.U.i p =.V.n.b.V.n.x.I.v u M.<X&X#X#X`.<XS.v t yX#X;X/.!.XX^. .=     ",
"    > F A S D A A A c : w F D D S A L S A < 3 A S S D D D S F 3 3 v D B m S G G F 7 1 m P Z P P P U m 9 1 R P P H P H V c +     ",
"    , e w e e w w q 5 # < y r w e w e w e # = e e e e e e e y = = 6 e r w r y y y < # w u s u u u u 8 - = u 0 r u r t r 7 +     ",
"    1 R J J K J J J n : e Y J J J Y Y Y K 3 3 F Y Y Y T Y Y R 5 5 n K K Y K E W o.i 3 H ` ` ` ` ` [ K w 1 [ _ W _ _ _ W v +     ",
"    1 D.h.v.v.c.c.v...3 x j.h.c.v.v.v.c.l.w q :.k.z.v.v.n.z.U.i y X.c.c.h.z.x._.rXm r 8.;X#X}.`.}.`.S.j 0 rX)._._.`.`.(. .#     ",
"    2 m.h.v.v.c.z.n...3 v j.h.z.z.v.z.h.c.q e :.c.v.v.n.v.z.U.i y X.z.z.z.z.A.`.:Xm r q.&X}.}.}.}.}.p.j r yX`.}.}.}.}._.O.#     ",
"    6 c.>.h.k.h.>.>.( 3 v ,.>.h.z.h.h.>.,.w e =.h.z.h.z.z.z.D.i y X.z.>.>.e.(.).;Xm r 3.}.}.~.~.~.~.u.h t :X/._./.~./.!.O.#     ",
"    2 n.>.h.h.h.h.>.( 5 x ,.>.>.h.k.z.>.l.q e &.h.h.>.h.h.k.D.i i &.z.>.>.x.(.~.#XS u 3.`./.~.~.~.}.i.j r :X).`./.).~.g.] =     ",
"    1 m.z.z.z.z.h.k...5 x ,.h.z.z.v.c.z.j.q e :.k.z.h.w.z.z.D.i i X.v.z.e.V.).}.;XB t q.OX/.'.}.}.}.p.z r 2X`.`.&X).).^.O.#     ",
"    2 F.n.n.n.k.k.n.*.3 n G.c.c.c.c.v.c.D.7 e l.n.m.n.n.n.n.U.y u =.m.m.m.@X}.`.:XB r a.2X<XOX<X}.2XH.j 0 yX<X;XOX<XOXoX2.#     ",
"    1 A S D D A A m c : w D A S D D S A A 3 3 A G D D D J D J 3 3 x D A G H I I K r < b I I I I I I H 8 1 E I P P I I H v +     ",
"    1 e w e e e e w 5 # ; r e r y e y e w = = q e y e y y e e : = 5 w w y r u u u < # 7 t s u t t t r > # t t t t u u 0 6 +     ",
"    1 o O + @ @ @ @ $ @ @ O + + + X X + + % % @ @ % O O o o o + + + o # # - # + o + + + o . o = + o # # # # # + + + # + o +     ",
"    1 w d s d d d h g s s d g 3 o , s g g l f h h l f d d g 1 o 3 j l h g g p p s p i y u 8 # + 5 u u i i i g i i p p p r +     ",
"    1 W t.9.4.3.3.8.-.3.6.6.f.z . u f.r.t.t.q.q.q.u.9.q.q.f.z X a E.H.r.@.+.#.#.1.;.#.#.1.} - o J 1.*.;.;.;.;.=.;.;.;.1.W -     ",
"    1 =.iX$X%X$X[.$X$X[.}.}.yXB . j fX3X%X%X*X$X$X*X*X%X*XsXG . k dXpX#XN.i.M.x.b.x.M.M.H.1.1 o ) rXA.P.A.V.Z.P.C.V.x.Z.#.<     ",
"    1 @.=X%X%X{.].[.$X).[.[.6XB . j >X$X{.{.{.%X%X%X{.%X%X3XB . k rX-X+XN.i.M.x.x.z.x.e.x.+.< + ^ L.M.M.M.b.b.T.x.x.z.x.@.>     ",
"    1 3.9X{.%X%X{.%X%X$X$X{.aXV . h 2X%X{.8X{.9X9X8X{.{.$X<XB . v >X%X$X(.M.x.b.x.v.e.e.V.;.; + ^ Y.V.x.b.b.x.b.v.v.b.b.3.,     ",
"    1 3.-X].{.8X{.{.{.%X%X%XaXZ . z 2X8X{.{.7X8X9X8X8X8X%X3XV . b 3X%X%X$XC.M.b.b.x.x.e.C.<.; + / @XM.x.V.V.b.b.b.x.b.V.3.1     ",
"    3 8.-X{.8X9X8X8X8X8X8X8XaXP . l 2X{.{.7X8X8X8X9X8X8X{.4XV . z 2X9X8X$X(.i.M.b.x.e.e.M.@.< # / @XM.x.V.V.V.V.V.M.M.V.8.2     ",
"    4 8.-X{.8X9X].8X8X8X8X8X0XP . l 2X8X8X7X7X8X8X8X8X8X8XqXZ X v <X8X9X%X).M.x.x.x.x.M.N.-.< + ! @XN.V.V.M.V.V.V.V.V.V.8.1     ",
"    1 q.9X7X8X8X7X7X{.{.{.%X0XZ X l 2X%X8X8X8X8X8X8X8X8X8XqXV X v <X9X8X9X$XN.x.M.x.e.M.C.8.3 + ! @XV.M.M.V.V.M.V.V.x.V.3.1     ",
"    1 3.9X8X8X8X{.8X{.{.%X{.0XZ . l 2X9X8X8X8X8X8X7X8X8X7XqXN X v ;X9X8X8X$XC.b.M.i.x.b.J.>.3 # / @XV.M.V.M.V.M.b.V.b.V.8.1     ",
"    1 8.*X].8X%X{.{.%X%X8X9XaXI . z 2X9X8X{.8X9X8X7X8X8X8X1XV o m <X%X8X%X%X(.x.M.M.x.V.C.w.3 # ^ @XV.V.b.b.V.x.b.V.b.V.3.1     ",
"    1 3.{.].{.{.%X%X%X9X9X%X4XI X z 2X9X8X{.{.{.8X8X{.{.{.1XV o S 3X{.8X8X-X(.M.M.i.b.b.J.w.3 = ^ @XV.V.b.V.b.x.V.V.b.b.8.4     ",
"    1 0.*X].{.%X8X9X9X%X{.{.0XI . z 2X9X8X8X{.{.8X7X{.{.{.<XV . B 3X8X8X8X%X(.M.x.x.x.b.J.8.3 # ^ L.b.b.V.M.x.x.b.b.v.b.0.1     ",
"    1 0.*X'.].%X8X8X9X{.{.{.0XH . h 2X8X8X8X].{.7X].].{.].<XV . M <X{.7X8X%X+XM.x.x.x.b.C.>.3 + Q L.b.b.M.M.x.x.b.b.x.b.0.1     ",
"    2 a.|.].{.].{.{.9X{.{.9XqXZ . h 2X9X7X8X7X8X8X8X{.{.{.1XN . b XX{.8X7X[.[.N.x.e.M.V.J.-.< + Q L.M.x.x.M.M.x.x.b.x.b.q.1     ",
"    1 a.|.].].].].].{.[.{.{.qXN . h >X%X8X8X{.{.8X8X{.].{.1XM . z XX{.].].[.[.N.x.e.i.x.C.-.; + Y A.M.x.e.M.e.x.x.x.x.x.a.1     ",
"    6 d.&X[.{.{.{.].{.[.%X{.6XV . z eX$X].8X{.{.].{.{.{.[.2XB . z ,X[.[.[.].{.(.M.M.M.V.C.<.< o E Z.x.M.M.x.x.x.M.M.x.V.d.6     ",
"    6 R.yXXX&XOXOX}.}.}.}.2XsXB . z uX3XOXOX}.}.&X}.&X&X;XwXm . v W.}.&X).&X$X(.M.b.V.m.H.;.< + ~ Y.m.n.b.b.m.x.V.C.M.F.f.7     ",
"    $ v I V Z I Z V V V V H Q r X 9 I I I P P I P P V V V G 8 o 7 G Z H K H H H S m n m m j # + a J G G G G G A S D G S v #     ",
"    X o o + + # + + + + o + # + o X + $ @ + @ $ @ @ + + + + o + + + + # = # # + # + + + # + + # = : # # = - : = = = # # o X     ",
"    o + & & & , > & % % % & - # o o @ & $ $ * & * * > & $ + + + + $ & > > - - $ - - = = # + + # # - - - ; < - : ; ; > - + o     ",
"    - l V N Z Z Z Z C C C N B 7 X 9 V V N N N Z Z Z Z Z N M 7 o 8 V C V H H B b m n n n m g + + e n v n A A m n m m b v l >     ",
"    6 1.:X XoXOXoXOXXXXX X.XuXm X z wXoX X X XoXXXXXXXoX.XwXm . b rXoXXX_.oXS.e.c.c.r.c.G.2.; # R G.-.>.h.w.h.k.c.e.w.,.1.4     ",
"    6 s.<X[.[.{.$X[.[.}.[.}.yXM . b eX-X|.|.{.{.{.%X[.[.}.eXS . b >X$X%X[.$X).M.b.x.x.z.m.,.3 = / m.z.x.x.x.v.v.v.x.w.b.d.6     ",
"    6 s.9X[.{.{.{.{.%X[.[.[.qXV . b >X].].{.{.{.%X{.%X{.[.3XB . m 3X$X{.{.[.).M.x.x.x.z.b.<.3 # | Z.v.x.M.V.x.b.b.x.v.x.s.6     ",
"    1 r.=X{.{.8X].].{.{.'.[.iXP . b 2X{.{.{.9X8X8X%X%X{.%X3XB . m ,X$X].{.$X+XM.x.v.x.e.b.:.1 @ | Z.z.b.b.b.b.b.b.b.b.b.0.2     ",
"    1 0.=X].%X{.].].9X{.{.[.iXZ . b 2X].7X{.9X9X%X{.8X{.%X3XV . B 3X[.].].$X(.M.x.x.x.e.V.:.< $ | Z.v.x.b.b.x.b.b.b.x.b.0.1     ",
"    2 5.9X{.*X{.].{.9X8X].[.4XV . M 1X7X7X8X8X9X{.{.8X{.{.3XV . B 3X[.].].{.(.z.e.x.e.e.V.:.3 # | K.x.x.b.M.M.b.b.x.e.x.7.2     ",
"    2 7.9X[.{.{.].].%X{.].'.qXV . N 1X8X8X8X8X%X%X8X{.8X{.<XM . N &X[.'.{.{.N.w.x.e.e.e.b.:.< # | K.v.x.x.x.x.x.x.M.M.x.7.2     ",
"    2 7.9X].{.{.[.{.%X[.[.'.qXN . M 1X{.{.{.%X%X%X{.{.{.].3XM . B <X[.'.].$XM.w.e.e.e.e.V.>.< # / K.x.x.x.x.b.b.b.x.x.x.7.2     ",
"    2 5.*X].[.{.].[.[.[.].].qXV X V 2X].].].{.{.{.{.{.].[.<XM . m ;X'.'.{.$Xx.z.z.e.e.z.V.=.< # ( K.x.b.x.x.x.v.v.b.x.x.5.2     ",
"    2 5.}.'.[.[.[.[.[.[.].].qXV X G 3X].[.%X{.{.{.].{.].[.<Xb X b ;X~.g.[.N.e.z.z.z.w.z.b.=.; # ^ Z.z.v.z.x.b.x.v.b.b.x.5.2     ",
"    3 a.}.~.~.[.'.[.[.[.'.'.4XB X H 5X).[.[.{.].].[.].[.}.XXb X n ,X'.~.(.e.w.z.z.h.>.>.b.+.; # ^ m.z.z.z.v.v.v.v.v.v.b.a.1     ",
"    6 d.<X~.[.[.[.[.$X`.[.}.sXB o K sX/./.$X[.[.[.|.}.&X&XyXM X m rX}.`.A.x.v.b.v.v.v.z.x.;.; # ) U.m.v.x.v.v.V.b.v.T.K.d.5     ",
"    3 o.q.4.4.9.4.9.9.9.9.q.H.v o n r.@.3.4.9.9.y.y.y.u.q.s.l X g s.3.0.=.X.+.=.&.&.+.X.=.Q = + T ,.X.X.X.X.+.+.=.&.&.*.o.3     ",
"    + 8 t t t r t u u t r t u 1 o < e 0 r r t t t s t u r u 1 o - r u t r e r w w w w e y 6 o + 5 y w q w w w w w w w w 7 #     ",
"                                                                                                                                ",
"                                                                                                                                ",
"                                                                                                                                ",
"                                                                                                                                ",
"                                                                                                                                ",
"                                                                                                                                ",
"                                                                                                                                "
};
