/* XPM */
static char *result[] = {
/* columns rows colors chars-per-pixel */
"64 64 250 2 ",
"   c #000000",
".  c #0B0002",
"X  c #05000A",
"o  c #0B000C",
"O  c #14000C",
"+  c #160006",
"@  c #0D0014",
"#  c #070118",
"$  c #130014",
"%  c #1C0014",
"&  c #15011A",
"*  c #1B001B",
"=  c #1B091D",
"-  c #230014",
";  c #2B0015",
":  c #23001C",
">  c #2B001B",
",  c #240A16",
"<  c #32001A",
"1  c #1B0223",
"2  c #170124",
"3  c #230223",
"4  c #2B0023",
"5  c #240D23",
"6  c #2C002C",
"7  c #2B0D2D",
"8  c #270726",
"9  c #330022",
"0  c #320E2C",
"q  c #390E2C",
"w  c #330C25",
"e  c #34122D",
"r  c #3C122D",
"t  c #3C182F",
"y  c #2B0E30",
"u  c #330D33",
"i  c #3B0F3C",
"p  c #380E34",
"a  c #351433",
"s  c #3A1333",
"d  c #3B143A",
"f  c #3C183A",
"g  c #381639",
"h  c #2E112B",
"j  c #40102B",
"k  c #440C33",
"l  c #490C34",
"z  c #431837",
"x  c #4A283E",
"c  c #3B0F40",
"v  c #451645",
"b  c #4B1545",
"n  c #491948",
"m  c #551947",
"M  c #531A48",
"N  c #571746",
"B  c #641F4E",
"V  c #641F53",
"C  c #4D2146",
"Z  c #58254D",
"A  c #5A2554",
"S  c #5C2A54",
"D  c #582756",
"F  c #582E56",
"G  c #63254D",
"H  c #64255A",
"J  c #6B265B",
"K  c #642B5C",
"L  c #6B2B5D",
"P  c #682653",
"I  c #71295C",
"U  c #65345D",
"Y  c #70305A",
"T  c #6B2866",
"R  c #742B64",
"E  c #73236D",
"W  c #732B6B",
"Q  c #7C2C6B",
"!  c #7A2768",
"~  c #693362",
"^  c #7B336A",
"/  c #75396A",
"(  c #7A2A73",
")  c #7B3274",
"_  c #7D3776",
"`  c #7A406A",
"'  c #764576",
"]  c #842C6A",
"[  c #8B2B6C",
"{  c #872966",
"}  c #91296A",
"|  c #84326B",
" . c #89336D",
".. c #883A6C",
"X. c #8B2C73",
"o. c #862974",
"O. c #912D75",
"+. c #843473",
"@. c #8C3274",
"#. c #8D3A74",
"$. c #853A7C",
"%. c #8C3B7C",
"&. c #813976",
"*. c #95387A",
"=. c #8D487B",
"-. c #883C81",
";. c #9E3E81",
":. c #A23E83",
">. c #BF3EB3",
",. c #CC3EB5",
"<. c #C43DB4",
"1. c #D13EB3",
"2. c #FF3FBA",
"3. c #8D4283",
"4. c #8E448A",
"5. c #8B4887",
"6. c #9C4182",
"7. c #934C8D",
"8. c #924688",
"9. c #8B5389",
"0. c #965389",
"q. c #954C93",
"w. c #9B4A96",
"e. c #975595",
"r. c #A34485",
"t. c #A54889",
"y. c #A6489D",
"u. c #B74B9C",
"i. c #A75797",
"p. c #B85295",
"a. c #BA579C",
"s. c #A649A3",
"d. c #AB48A2",
"f. c #B54EA8",
"g. c #AE55A4",
"h. c #AD5BA1",
"j. c #BD52A4",
"k. c #B25DA3",
"l. c #BC52AA",
"z. c #B758A9",
"x. c #BD44B3",
"c. c #BC4BB4",
"v. c #BF49B9",
"b. c #BB56B3",
"n. c #B968A7",
"m. c #B465AC",
"M. c #9E628E",
"N. c #C54A9F",
"B. c #C2559E",
"V. c #C8599E",
"C. c #C54DA2",
"Z. c #CB4BA3",
"A. c #C544AF",
"S. c #CF47AF",
"D. c #C253A2",
"F. c #CB54A5",
"G. c #C35CA4",
"H. c #C35BAA",
"J. c #C958A8",
"K. c #C544B5",
"L. c #CB44B5",
"P. c #C34BB5",
"I. c #CA4AB6",
"U. c #C544BA",
"Y. c #CB44BA",
"T. c #C54ABA",
"R. c #CB4ABB",
"E. c #D244B5",
"W. c #D243BA",
"Q. c #DB43BB",
"!. c #D44CBC",
"~. c #D74AB8",
"^. c #C452B5",
"/. c #C552BA",
"(. c #CB53BB",
"). c #CC5CBE",
"_. c #C956BA",
"`. c #D355BC",
"'. c #D35BBD",
"]. c #D75AB9",
"[. c #EC4BB6",
"{. c #EE46BB",
"}. c #ED4ABB",
"|. c #E647BA",
" X c #F345B5",
".X c #F449B5",
"XX c #F545BC",
"oX c #FC45BD",
"OX c #F44ABC",
"+X c #FA49BD",
"@X c #FB46B7",
"#X c #ED54BD",
"$X c #EC5CBD",
"%X c #E55BBC",
"&X c #F452BE",
"*X c #F359BE",
"=X c #C563A9",
"-X c #C76BB5",
";X c #CB6EB6",
":X c #E463BA",
">X c #E762B9",
",X c #F361BD",
"<X c #FF3FC2",
"1X c #CB48C1",
"2X c #D549C1",
"3X c #CD54C1",
"4X c #CC5BC2",
"5X c #C653C2",
"6X c #D254C2",
"7X c #D35BC4",
"8X c #DC5CCA",
"9X c #D957C9",
"0X c #D659D0",
"qX c #E949C2",
"wX c #F546C2",
"eX c #FC45C1",
"rX c #F54BC2",
"tX c #FB4AC2",
"yX c #F44EC8",
"uX c #EE54C2",
"iX c #ED5CC3",
"pX c #EB59C8",
"aX c #F453C3",
"sX c #FB53C3",
"dX c #F25BC3",
"fX c #F95EC5",
"gX c #F35DCA",
"hX c #FB59CA",
"jX c #F75FD4",
"kX c #CE65C3",
"lX c #D468C5",
"zX c #D971C7",
"xX c #CB72C0",
"cX c #EC63C4",
"vX c #EC6BC6",
"bX c #EC62CA",
"nX c #EB6BCB",
"mX c #E469C5",
"MX c #F362C6",
"NX c #F069C6",
"BX c #F364CA",
"VX c #FC63CC",
"CX c #F968CC",
"ZX c #E679C9",
"AX c #FD64D2",
"SX c #FF68D2",
"DX c #F766D5",
"FX c #E97BD2",
"GX c #F779D4",
"HX c #F172CD",
/* pixels */
"                                                                                                                                ",
"                                                                                                                                ",
"    O , w q s r e e p j r w 7 * . O ; 4 3 > : * * * 3 3 3 : & X $ * * 1 3 1 1 1 1 * * * 1 , @ $ 3 3 1 , 8 8 5 1 2 2 & & , O     ",
"    5 ` t.r.r.r.t.t.t.t.t.6.i.S . z 8.*.*.*.*.@.+.) -.-.-.5.F X f ' $.-.-.$.$.$.$.%.&.$.8.' 7 o ~ 8.$.$.-.-.$.$.-.$._ -.` 5     ",
"    e h.ZX%X$X$X,XMXMXdXdXiXGX=.. K FXCXdXsXfXpX`.3X4X4X4XzX-.X ~ xX7X6X7X'.'.7X`.`.`.`.zX;Xa O 9.zX`.`.].`.'.'.'.].'.7Xh.a     ",
"    t k.iX[.[..X.X[.OX}..X}.CX#.. L HXOXwXeXeXwXqXL.<.x.U.3X_ X H '.!.W.R.L.E.E.L.E.E.E.6Xz.e $ 8.7XK.L.E.E.L.I.S.L.U.R.k.t     ",
"    t a.dX X.X+X X XXXXXXXoXVX#.. L nX+XoXeXeXeXqXQ.<.U.x.3X) . H '.2XY.W.L.L.Y.Y.L.Y.Y.!.z.e $ 4.7XY.K.R.E.K.I.A.K.U.R.a.t     ",
"    z G.VX+XtX+X.X XXXoXoXoXSX#.. L vX+XoXeXeX2.eXqX1.Y.1X5X)   L '.2XW.W.E.W.W.1XL.E.R.3Xz.e $ 7.0XY.U.Y.W.Y.Y.L.K.P.!.n.z     ",
"    z V.VXtXtXsX&X.XoXoXoXoXAX*.. L vX.XoXoXeXoXwXwX<X,.1X4X) . J '.6X1X2X1.W.1X,.E.E.Y.6Xb.a & q.0XU.U.Y.E.R.R.R.R.U.R.G.z     ",
"    j =XfX+XsXsX+X.XoXoXoX@XAX*.+ Y vX+XoXeXoXoX2.<XqXqXK.7X_ . T kX2XW.1XW.W.W.1XW.E.Y.6Xm.g * q.8XU.I.E.Y.U.U.Y.Y.U.R.=Xj     ",
"    r V.hX&XsXtX.X.X+XoXoXoXDX%.+ R NXoXeXeXeX+XXX<XeXwXQ.6X) . T lXR.2XW.E.E.W.E.E.W.1.2Xb.s * w.9XY.Y.W.1XY.U.L.L.Y.R.G.r     ",
"    q F.fXsXtXtX.X.X+XoX@X+XAX%.. ! NXoXeXeXoXeXeXeX<XeXrX6XQ o T kXI.Y.W.W.Q.E.Y.Y.W.Q.`.l.f * w.9XE.L.1XW.Y.Y.L.Y.L.R.V.r     ",
"    r a.aXOX+XXX.XOXoX@X@X+XVX#.+ R MXtXoXoXoXoXeXeXoXeXyXpX( X T kXI.E.W.R.E.Q.W.Y.L.E.~.z.d & -.9XY.U.1X,.1X1XY.L.L.I.p.q     ",
"    r p.aX XOXXXOX.X.XoXoX+XVX#.. R NX+XeXoXoXoXeXwXeX2.eXgXX.X T kXR.L.Y.Y.W.W.W.Y.L.1.~.H.a & q.9XY.U.1XY.Y.Y.Y.L.K.L.p.q     ",
"    h p.sX[.XX XXXXXoXOXXXeXSX#.. R NXeXeXoX@XoXoXeXeXoXwXgX@.o T 7X!.S.L.Y.W.W.W.L.L.S.~.H.d $ 4.0X,.R.Y.Y.Y.Y.U.K.U.K.p.e     ",
"    e p.OX[..X X.X XXXqXwXtXVX@.+ R BX+XoXoXXXXX2.2.eXXXOXgX*.o A 4XI.L.L.L.W.1.Y.L.E.E.`.l.d * 4.9X,.<.Y.Y.U.Y.K.U.K.L.p.e     ",
"    e p.dX[.[.[.}.OXuXuXrXOXNX... R ZXuXwXtXOXOX+X+XrXOXOXdX*.+ K kX!.L.E.S.E.E.E.L.E.I.`.l.g $ q.7XY.Y.1XY.U.Y.<.U.P.K.a.e     ",
"    7 n.DX%X$X%X>XpXiXiXiX,XGX=.  U FXbXpXdXiXiX*XMXdXiXuXnX6.+ S ;X'.`.`.`.'.'.6X].'._.].n.a $ e.zX(.(.3X3X_.5XR.^.^._.n.5     ",
"    = ` t.6.6.6.:.;.8.6.6.*.k.U   z 0.t.r.:.r.6.*.t.r.r.t.i.U X f 9.8.3.3.8.3.3.3.=.3.5.0.=.5 X ~ e.3.4.4.4.-.3.4.8.4.7.` =     ",
"    @ e z k j k l k k k k k z 7 $ , j z k l l k l l l l l f , o 1 u p i i i p 0 q p a h t t # # y d i i i i v d d d c v 0 @     ",
"    @ O - - - ; ; : : > - - = $ $ - + % : ; < - ; ; ; ; - O O & & % % : 3 3 * & % % % $ . . @ & # $ & & & * * % % * * * O @     ",
"    & C G B B B V G H N G Z K t o w G S H P P P P I G G G S a o a U Y H A H A A Z S D Z Z x = # f Z Z D D A A A Z D D S C &     ",
"    5 0.H.C.C.D.D.C.D.a.B.B.;XU   Z -X=XJ.J.F.F.J.J.F.F.G.;X~   F xX;XG.u.u.g.i.k.h.h.h.n.M.5 @ ' m.g.g.g.g.g.g.g.g.g.h.0.5     ",
"    h j.DXyXyXrXOXuXuX#X.X*XHX`   K FXBXyXaXaXaXdXaXaXaXfXHX&.  U FXbXuX~.S.I.(.(.I.(./.'.n.e $ M.FX4X4X3X3X3X6X`.(.(.`.g.0     ",
"    0 u.yXwXwXwXwXOXqXqX[.rXHX..  H nXaXwXwXwXwXwXeXtXrXrXBX^   U zXpXqXQ.1.,.K.U.K.L.A._.i.0 $ 7.lX!.I.R.T.R.1XU.U.U.T.u.0     ",
"    w a.sXwXeXeXOXeXwXrXyXrXSX..  L nXtX2.wX+XeXeXeXeXrXrXbX|   T nXyXrXqX,.Y.U.U.P.A.A.(.f.y @ q.8XR.I.R.T.T.U.T.P.U.R.B.w     ",
"    r B.sXXXoXeX+X+XwXrXeXtXVX#.  J NXtX2.oXoXeXeXeX+X+XrXBX| . W nXtXwXrXW.,.Y.R.T.K.L.`.g.y @ e.8XR.T.R.R.R.1XU.U.U.R.B.r     ",
"    s D.hX+XeXeX+X+X+X+X+X+XSX#.. I NX+X@XoXoXoXeXeXoXoXtXVX+.. R bXtXeXwXQ.,.L.K.K.I.A.!.a.y & q.8XE.I.R.E.W.1XR.W.E.R.j.s     ",
"    q j.hXoXoXeX+X+X+X+X+X+XCX#.. I NXeXoXoX2.oX+X+XoXeXeXVX@.  R cXeX<XwXqX,.L.L.L.K.L.!.f.0 & q.pXR.I.W.R.Y.Y.R.W.W.Y.D.q     ",
"    q B.sXoXeXoX+X+X+XOXtXtXVX=.. I NXrXeXoX2.oXoXoX+XoX+XMX| . R bXeX<XeXrXW.<.Y.L.I.Y.!.j.u & 0.8XE.Y.E.Y.W.Y.Y.W.U.R.D.q     ",
"    e D.sX2.eXoX+X+X+XrXtXtXSX#.. P NXeX<X<XoXoXoXoX+XoX+XfX .. W mXeXeXeXwX2X,.1.K.L.Y.2Xl.u & w.8XW.R.R.Y.Y.Y.Y.Y.U.1XD.e     ",
"    p D.sXoXwXwX+XoXtXtXeXtXSX#.. J vXeXoXoXoXeXoXoXoX+X+XfX@.o W bXwXeXeXeX2X,.E.L.U.1X2XD.u 2 q.8X1.R.Y.Y.R.Y.,.1XR.R.D.p     ",
"    a D.sXXXXXeXtXeXtXtXeXtXSX%.. J NXeXoXeXOXeXoXoX+XtX+XMX@.o ) bXOXoXeXwXqX<.1.K.R.Y.2XP.u 2 q.9XY.R.R.Y.Y.K.Y.1XU.1XD.a     ",
"    s G.aX XOXeXeXeXeXtX+XwXSX#.. L NXeX2.oXOXoXoX+XOXOXOXMX| . Q gXoX2.<XeXqX,.<.K.Y.U.2Xj.u & q.9XY.Y.Y.Y.Y.Y.Y.Y.U.T.G.a     ",
"    e G.sX.XXXXXeXeXeXwX+XtXSX#.  L NXeX<XoXXXXX@X@X.XOXOXMX| . Q gXoX2.<XwXqX,.K.L.Y.1X2Xl.a & q.7XU.U.W.L.L.K.U.Y.K.U.G.e     ",
"    t G.&X XoXXXXXoXeXwXtX+XVX..  H nXeX2.oXoXoX+XoX+X+X+XgX| . R cX+XoXoXwXqX1.L.K.,.,.2Xl.7 $ 5.9X,.,.L.K.L.L.Y.U.K.R.G.s     ",
"    t G.&X XoXXXXXoXXXwXOXoXVX..  L nXwXoX@XoXoXoXoX+XXX+XgX| . L iXOXXX XXX{.1.,.S.L.,.!.j.7 o 5.4X,.Y.<.L.L.K.U.K.L.T.=Xr     ",
"    f =XgX.X.XrXXX.XrX}.rXrXCX..  L nXaXOX+XXXtX+X+XsXOX&XvX| . R mXOXXXXXXXwX|.L.L.K.Y.`.l.7 @ 5.4XK.Y.Y.K.U.U.E.L.I.R.=Xf     ",
"    g -XnXiXdXdX$X*X$X#X*XMXFX=.  I ZXbXiXiXdXdXdXiXiXiXcXzX/ . U zXpXuXuXuXaXqXR.R.3X(.'.m.7 $ 0.kX/.(.(.(./._.(.`.(.).n.f     ",
"    = / #. .@.X.@. . . .} @.-.n . z =.%.*.@.O.O.X.[ X.[ +.=.z o f &.@.@.o.@.X.( ( W E W W K = @ F 5._ ) ) o.) ) ) ) ) _ / 5     ",
"    o + % % * : * % % % - % * * % + - 3 % - : : : - * % % $ $ @ @ % % * 1 * * * * & $ & * $ # 2 2 3 1 1 2 6 6 2 2 1 * * O .     ",
"    $ , > < 9 9 9 > > < < > 3 = O - > > > > < 9 9 9 9 9 > - = $ * : < 9 6 4 4 4 4 3 3 3 3 & @ * 1 3 3 3 6 6 6 2 6 6 4 3 - %     ",
"    5 Y ] { [ } [ [ } } } { ^ f . z  . .{ { [ [ [ } } [ ] ^ z @ b | [ X.X.o.! ! E E E T W F & @ C W T E E ( E E ( ( ! W L 5     ",
"    t n.mX:X>XiXcX>X>X>X>X:XZX`   Y ZX:X:X:X>X$X>X$X>X%X:XZX/   / ZX:X$X%X].].^./.b.b.b.-Xh.7 * e.m.b.f.c.c.b.v.T.c.j.b.n.f     ",
"    g =XfX}.OXrXrX&X#X#X#X#XHX... R nXdX#X&X&X&XaXOXaXaXuXHX_   ^ mXuXyXrXuX%X!.U.T.P.P._.m.g 1 e.4Xv.P.<.<.1XU.U.K.P.T.=Xf     ",
"    s H.gXOXXXwXwXXXwXOX}.OXVX .+ W nXwX.X+X+XoXwXtX+XOXrXbX^   ^ bXrXXXXXOXqX1.<.Y.K.<.1Xz.s * w.4XK.U.Y.,.<.1X1XU.K.R.J.s     ",
"    s H.gXXXoXeX.XeXwXOX.XrXAX@.. R vX.XOXoXeXtXtXwXtXtXrXbX|   Q bXqXOXXXwXqX,.<.U.<.K.R.z.u : y.4XU.U.U.Y.,.U.<.1X<.T.H.t     ",
"    r H.yXOXoXoX.XXXeXoXXXOXAX .. Q MX+XoXoXeXeXoXwXoXtXrXgX] . Q bXrXXXXXwX2X,.L.K.L.K.1Xz.h : w.4XU.U.1X1X<.1X<.U.L.U.G.r     ",
"    r V.sXXXwXXXXXoXeXoXXXOXAX| . ] fX@X+XoXeXeXeXtX+X+XtXBX] . Q gX.XXXoXeXQ.<.,.A.K.x.1Xz.e 3 w.4XP.U.Y.L.L.<.R.Y.L.K.V.j     ",
"    j F.sXXXXXeXXXXXeXXX.X.XVX| . ] MXoX+XoXeXtX+X+X+X+XOXBX| . ] gX}. XXXwX1.<.K.A.A.A.1Xg.u * w.kXU.K.L.L.Y.Y.U.U.L.I.F.j     ",
"    j V.aXXX2.wX.XOXwXOX.X.XVX| . ] MX+XoXOXtXOXOXrX+XOXOXMX|   Q gX}.2.oXOX,.>.<.A.A.A.R.f.y * w.7XK.K.L.<.U.U.U.L.<.I.V.j     ",
"    j V.uX2.wXXX.XwXwX}.OX+XVX| . ] gXOX.X+XeXwXsXOXtXOXwXcX^ . W iX}. XwX|.<.>.<.A.A.K.1Xf.u & w.7XU.Y.U.Y.U.U.U.U.Y.K.V.j     ",
"    t B.aX[.XXOXXXwXwX{.XXoXVX|   +.bXOXOXwXwXXXOXoX.XOXOXcX^   W bX[.|.qX~.<.>.>.x.K.x.R.d.u & e.4XU.v.K.P.U.U.U.U.U.T.V.r     ",
"    t a.*X|.}.{.}.{.}.}.[..XCX^ X +.bX#X}.OXOXOXOX.XOXOX#XvX/ . ~ mX[.[.|.<.<.>.x.x.x.x.T.s.7 & q.).v.c.v.v.K.U.U.v.U.T.G.s     ",
"    f -XcX#X#X#X#XaXaXiX#X*XGX+.X -.HXuX#XuX&X&X&X&X*XaXdXvX..  ^ ZX%X%X7XU.v.1X/.P.c.v.(.g.7 & e.kXb.v./.T./.(.5X5X5XkX-Xg     ",
"    a i.F.N.N.Z.N.Z.Z.D.D.F.].~ # / H.u.u.N.Z.Z.F.Z.F.F.F.=XY . K =XD.D.c.:.d.d.s.s.d.s.g.8.3 $ 9.m.s.s.s.y.s.d.d.s.s.s.i.a     ",
"    = z m N N m N N N M M M Z q o u n b b N N M m N N m m M u o 8 M M M n b M b n n n n n d & @ f M v v v v v b v v v v z =     ",
"                                                                                                                                ",
"                                                                                                                                ",
"                                                                                                                                ",
"                                                                                                                                ",
"                                                                                                                                ",
"                                                                                                                                ",
"                                                                                                                                "
};
