/* XPM */
static char *result[] = {
/* columns rows colors chars-per-pixel */
"64 64 199 2 ",
"   c #000000",
".  c #0B0000",
"X  c #0D0804",
"o  c #0B0B09",
"O  c #020802",
"+  c #130101",
"@  c #1B0001",
"#  c #120905",
"$  c #170008",
"%  c #1F0509",
"&  c #150B0A",
"*  c #190C0B",
"=  c #0C140C",
"-  c #16110E",
";  c #19110F",
":  c #1E0C13",
">  c #1E0611",
",  c #1C1413",
"<  c #1B1816",
"1  c #1D1B18",
"2  c #141812",
"3  c #220004",
"4  c #280006",
"5  c #240109",
"6  c #2B030D",
"7  c #23090C",
"8  c #2B080F",
"9  c #30020F",
"0  c #2F0612",
"q  c #2D0A12",
"w  c #340B15",
"e  c #350C1A",
"r  c #3A0F1A",
"t  c #221515",
"y  c #291316",
"u  c #201817",
"i  c #23151C",
"p  c #2E1218",
"a  c #241C1B",
"s  c #281E1E",
"d  c #35121A",
"f  c #3C131C",
"g  c #3B181F",
"h  c #24211F",
"j  c #29221F",
"k  c #2D1D22",
"l  c #361F22",
"z  c #3D1B23",
"x  c #3F1F28",
"c  c #3F1420",
"v  c #242321",
"b  c #2B2423",
"n  c #202820",
"m  c #292824",
"M  c #2E2A28",
"N  c #332224",
"B  c #3D2328",
"V  c #332C2B",
"C  c #3B2D2D",
"Z  c #39242A",
"A  c #39302F",
"S  c #34322F",
"D  c #3F2F39",
"F  c #3C2D32",
"G  c #3B3533",
"H  c #3D3936",
"J  c #3E3B39",
"K  c #400A19",
"L  c #40161F",
"P  c #421722",
"I  c #441924",
"U  c #481C25",
"Y  c #4A1D29",
"T  c #521F2C",
"R  c #501E30",
"E  c #442028",
"W  c #4B222C",
"Q  c #44282C",
"!  c #52222E",
"~  c #452F30",
"^  c #4D2B33",
"/  c #542430",
"(  c #592332",
")  c #552A33",
"_  c #5A2935",
"`  c #5D2B3A",
"'  c #5A2539",
"]  c #4F353A",
"[  c #433D3C",
"{  c #493F3F",
"}  c #473437",
"|  c #54333B",
" . c #5A353F",
".. c #503A3F",
"X. c #622E3C",
"o. c #66313E",
"O. c #68323F",
"+. c #3C403C",
"@. c #45413F",
"#. c #48403F",
"$. c #533C41",
"%. c #5B3B43",
"&. c #632E40",
"*. c #673240",
"=. c #6B3443",
"-. c #6C3945",
";. c #663F48",
":. c #6D3B48",
">. c #693847",
",. c #723646",
"<. c #703946",
"1. c #733B4A",
"2. c #793D4D",
"3. c #713548",
"4. c #7C3F50",
"5. c #464442",
"6. c #4A4443",
"7. c #464845",
"8. c #4A4946",
"9. c #4F4B49",
"0. c #524646",
"q. c #524D4C",
"w. c #5B4B4D",
"e. c #594449",
"r. c #4E514B",
"t. c #54514F",
"y. c #565351",
"u. c #595453",
"i. c #5B5957",
"p. c #5D5B59",
"a. c #575A57",
"s. c #64434A",
"d. c #6E404A",
"f. c #7D404F",
"g. c #674B52",
"h. c #6C4A52",
"j. c #754551",
"k. c #7D4252",
"l. c #734953",
"z. c #7E4F5B",
"x. c #6F5459",
"c. c #625C5B",
"v. c #6B585C",
"b. c #72545A",
"n. c #735A5D",
"m. c #78585E",
"M. c #7C555E",
"N. c #65625E",
"B. c #6F5D60",
"V. c #7A5860",
"C. c #646461",
"Z. c #6E6766",
"A. c #757170",
"S. c #746768",
"D. c #834455",
"F. c #854558",
"G. c #85495A",
"H. c #8B4A5C",
"J. c #8B465A",
"K. c #83525E",
"L. c #8F4F60",
"P. c #934E62",
"I. c #845562",
"U. c #8C5A66",
"Y. c #8E5D6A",
"T. c #8C5765",
"R. c #955264",
"E. c #9A5467",
"W. c #9C5569",
"Q. c #9E5A6C",
"!. c #A2566C",
"~. c #A35A6E",
"^. c #A55D70",
"/. c #AA5D73",
"(. c #85646B",
"). c #8B636A",
"_. c #93626F",
"`. c #877174",
"'. c #A56375",
"]. c #AC6175",
"[. c #AE6378",
"{. c #AC697C",
"}. c #B4657B",
"|. c #B8677E",
" X c #B5697E",
".X c #BA687F",
"XX c #A7707E",
"oX c #AC707F",
"OX c #BC6B82",
"+X c #B96983",
"@X c #AF7F8B",
"#X c #BB7689",
"$X c #C26F86",
"%X c #C47087",
"&X c #C5738A",
"*X c #CA748C",
"=X c #CE7992",
"-X c #D17B94",
";X c #D87F98",
/* pixels */
"                                                                                                                                ",
"                                                                                                                                ",
"            . .     . + .                                                                                                       ",
"                } e.                                  i F Z     ' 3.  k :   + 1.W.3.    $ t       P.+X&.e   . D >   X.F.H.      ",
"                p.G                                 6 + s @.    X.:..   k &     .     a ,     .     R.=X=XX.  b [   T }.E.      ",
"                q.,                               ,.[.D.  s G   =.E.+   5.&           M       .     5 &X;X[.    [ p.s X.w       ",
"    .         . M                         .   , G U.}.D.+ :.c.J } '.s.5.8.      q ! W       &         W 1.U       t 6.< $ .     ",
"    +         . u                         M G a $ ] l.#.w.m.i     . 6.8.        D.}.]..   *                           ~ {.+     ",
"    @         * s                                 w y               t.    . ` + Y  X)...<                             (.=.@     ",
"    +         a j                               @ .           Y o.K.7.      f.D.  0.;.E.      _ 6                     y., +     ",
"    .         t <                             8 R.. P @       ~.^.`.      ) r d 9.  ( r U W f }./.) +     @ 2.Y .     J } .     ",
"    .   P                                     3 G.) %XP..     / C a.    *.+XW.u.X     . k.) g Q.|.s.      4 }.^.@   a u.  .     ",
"    . W./.!                           r @       . *.&XF.        t.#     2.].{.N   w 1.G.2.@   l l a         ^ %.    , t., .     ",
"      %X|.G.U w           Y         ! |.].f         3         t.H         n.[     w |.|.&X=..     t           o u     `.U.      ",
"      ` P + ,.o.        w ~.3   u   w ~.}.            / >.+   , 9.      . 9.        1.P _ !.8     -   e 6         j C.b.~.      ",
"            % :.U     < 3 E h b , &   0 P           l ~.*XG.    9.      [ G               0 @ 3 ) Z   >.W.0 + @   s G   1.      ",
"      s V . ` [.P.d   S V = *         o.k.          + j.~.%.b H G     b u.                  @ ~.$XY.  @ I W G.D. .@.            ",
"        G   Y ~.2.d 2 m.{.f   8 Q.)   *.f               % .   u u.b - c.                      1.}.x., B * I ~.}.(..             ",
"        # p.6.+     h q 1.W.@ X.$XR.w                           . i.[ b                         +   X t M    .n..   G.@         ",
"            [ @.d . 2   8 `   6 1.(                 . w     @     + N.                                  . m M .   + R.7 #       ",
"              >.OXv.<     R._                       w ~.d G.$X!   [ p.                                3 + . J M   @ k.z         ",
"              6 x.[ d.d.j.W `                         P w !..XG.  u.b                               L H.}.@   { < @ ~.=.        ",
"      .         J s !.^.].                                @ *.    0.                        #   . < x.W.}.8 I n.9.M K._.F       ",
"      ~.        [ v X.! *.                                        8.                        . J V * s z.e.{ m.%.      , c.      ",
"      4.        9.,     . X                                       8.                          .     + z               G V       ",
"        .     a B.% . M s                         + =./.)         5.                                @           . ` 1.B.*       ",
"    . + b #   c #XoX$.                        .   3 R.OX*.        V                               D.U @ f       ! [.@Xa   .     ",
"    .       o l.#X-X6                         u     W j.+                                         2.Y ].}.!     d I N.    .     ",
"      6     < c.P I                   * u M V V *   + y   . D.+                                     @ .X[.Y       S J           ",
"      !.U   G s           .               + .   . h s.R.  D.}.'.3                         / k.3       @ 5       a C..           ",
"      4.I v w.        & q ].f 3                     N U.+ ` ^.R.X.D.          ! -.G     3 }.&X=.          D.w     t.a           ",
"        m e.F.d         H.]./.P               ) I   < j * . 7 . . f.+   .   5 '.%.t ,     / H.q         j.OX+XB   @.k           ",
"      , M + 4.%   + ,   5 D./ @       #       1.F.  w   < M .   . o.k.5 - G M y             f 3         ^ Q.K.C b y..     .     ",
"      8.. + }.f   + , -             * u       . U ].+XY   G a   + OX/.G.1 2 d       g 6   U W.0           7 +     [ y.  8.      ",
"      + @.+ P.2.    * A           s ,     .        X-X/   . 9.9.  4.,.Q O . G.W.3   [.W.U + 0                       6.V w.      ",
"    .   M J ] l.*   t.h     ~.1.8         +       f d         S y.#   * ,   z D.T + .XR.=.              6 .           y.G .     ",
"    . 6.r.G < v G c.[ .   @ *X$X:.      ,                       . G z.l.      Y Y   5 d                 D.2.U OXH.    A.& .     ",
"    + k . .     u 6.  =.=.+ ` k.| ~ , u                           p {.g   8 + _ W.                      + W X.*X X@ 1 u.  +     ",
"    .   9 ~.=.@ 7.b   5 f.q   L }.|       @ 3                     q.}   _ Q.W.6 w                             / U   D o   .     ",
"        P ~.3 m 8.+ -.R.      w.w   + f . D.H.>..       w !       . t.  =.~.[.z                                     J           ",
"        5     t.n r }.|.f.  8.l Y   O.f.z Q.^.'.-       D.OXU     G @.  + Q B +                                     G           ",
"            + p.  3 P.X.^ i.N 1.]._ ! U   g  .Q         U G.@     Z.    h h                               L 8       J           ",
"            u.k         J j   4.+XU o.R.+   X .           b -     y.n.I.y                               1.$XQ.      M           ",
"    .     . y..       . N.    + 6   f [.)     &   . .         b b S.[.~.o.                      a     ! +X&XG..           .     ",
"    .       S V       c.&             U e . @ y   f '.!         p.N *.W.1.              . h M V S b . =.'.^.%             .     ",
"    . b V k V ,     M q.                  k.~.Q.+ @ U 8 O.D.w V G O                           .     G C U.                .     ",
"    . * # u y.M   s c.                    2.}._.a @ B P H./.U.q.              U @                     o M     -.o.        .     ",
"    .       . i.@.u..                       I y m V N   ( Y.g.  P f         3 ^.W.!               . + # V O ) *X&X_       .     ",
"    + 0 U       p.G                                 - < o b     k.o.  # &   P W.}._       *       W R.      } ^.R.E W.3   +     ",
"    + /.}.+     p.M                                   # 8.s     *.:.  X a     P e     # <         + E.d o.3 . 6.    o.0 . +     ",
"    + P.Q.    , p.+                               X.~./   9.#   f.P.    J .         . V       +       H.|.R.  h y.M       +     ",
"    + + 3     s J                               Z !.OXX.  ] 8.s .. Xz M q.      @ @ + .     &         ) R.-.    . t.H     +     ",
"    .         s s                         s u V V g.R.] g.(.6.h b e.i.w.        R.].W.    #                         b D [ .     ",
"    .         k a                         b s   . x N < h %         q.    @ 8   H..XY., < .                           t.s .     ",
"    .         b s                                 +           w w s.7.    + E.` . M.h.I.                            1 p.  .     ",
"              b h                             8 1.  .         ~.'.(.      3 T f +., J.T                               y.a       ",
"              .                               c W.Y /.Y       1.$.G     R +X' [ i                 :                 + u..       ",
"                                                                                                                                ",
"                                                                                                                                ",
"                                                                                                                                ",
"                                                                                                                                ",
"                                                                                                                                ",
"                                                                                                                                ",
"                                                                                                                                "
};
