/* XPM */
static char *_5c66657667a4ec1df6f1d323a419093WZXjUzcSyA2SZ4Dx[] = {
/* columns rows colors chars-per-pixel */
"64 64 168 2 ",
"   c #452615",
".  c #492715",
"X  c #472916",
"o  c #4D2A16",
"O  c #462719",
"+  c #472919",
"@  c #4D2B19",
"#  c #532D16",
"$  c #592F16",
"%  c #532E19",
"&  c #592F19",
"*  c #573017",
"=  c #5B3117",
"-  c #55311B",
";  c #593118",
":  c #583019",
">  c #583119",
",  c #593119",
"<  c #583118",
"1  c #5A3118",
"2  c #5B3118",
"3  c #5A3119",
"4  c #5B3119",
"5  c #593219",
"6  c #5B3218",
"7  c #5A3219",
"8  c #5B3219",
"9  c #58311A",
"0  c #59311A",
"q  c #58311B",
"w  c #5B311A",
"e  c #58321A",
"r  c #59321A",
"t  c #5A321A",
"y  c #5B321A",
"u  c #5A331A",
"i  c #5B331A",
"p  c #5C3118",
"a  c #5C3218",
"s  c #5C3318",
"d  c #5C3219",
"f  c #5D3219",
"g  c #5C3319",
"h  c #5D3319",
"j  c #5E3319",
"k  c #5D321A",
"l  c #5D331A",
"z  c #5D331B",
"x  c #5E331A",
"c  c #5B341A",
"v  c #5B341B",
"b  c #5E3418",
"n  c #5F3418",
"m  c #5E3419",
"M  c #5F3419",
"N  c #5C341A",
"B  c #5D341A",
"V  c #5C341B",
"C  c #5E341A",
"Z  c #5E341B",
"A  c #5E351B",
"S  c #58321C",
"D  c #59321C",
"F  c #58321D",
"G  c #59331D",
"H  c #5B321C",
"J  c #5A331C",
"K  c #5B331C",
"L  c #59341D",
"P  c #5A341C",
"I  c #5A341D",
"U  c #5B341D",
"Y  c #58341E",
"T  c #59341F",
"R  c #5A341E",
"E  c #5A351F",
"W  c #5B351F",
"Q  c #5B361F",
"!  c #5D341C",
"~  c #5D351D",
"^  c #5E341C",
"/  c #5F341C",
"(  c #5E351D",
")  c #5E361D",
"_  c #5E371D",
"`  c #5C361F",
"'  c #5D371F",
"]  c #5B331A",
"[  c #613417",
"{  c #633416",
"}  c #683716",
"|  c #6B3917",
" . c #603418",
".. c #603519",
"X. c #633519",
"o. c #60341A",
"O. c #60351A",
"+. c #61351A",
"@. c #60351B",
"#. c #61351B",
"$. c #62351A",
"%. c #62351B",
"&. c #61361A",
"*. c #60361B",
"=. c #65361A",
"-. c #64371B",
";. c #60341C",
":. c #60351C",
">. c #61351C",
",. c #60351D",
"<. c #62351C",
"1. c #60371D",
"2. c #62361C",
"3. c #63361C",
"4. c #62371C",
"5. c #62371D",
"6. c #63371D",
"7. c #61371F",
"8. c #64371C",
"9. c #65371C",
"0. c #65371D",
"q. c #66371D",
"w. c #63351B",
"e. c #69371A",
"r. c #63381D",
"t. c #62381F",
"y. c #65381D",
"u. c #67381D",
"i. c #65381E",
"p. c #67391E",
"a. c #66391F",
"s. c #67391F",
"d. c #673A1F",
"f. c #66381D",
"g. c #69391C",
"h. c #68381D",
"j. c #69381E",
"k. c #693A1E",
"l. c #683A1F",
"z. c #6A3A1F",
"x. c #6D3C1F",
"c. c #6C3A1B",
"v. c #713D1C",
"b. c #5B3521",
"n. c #5B3621",
"m. c #5F3822",
"M. c #5D3822",
"N. c #613720",
"B. c #613821",
"V. c #623A22",
"C. c #643921",
"Z. c #683B20",
"A. c #683B21",
"S. c #6B3D20",
"D. c #6A3C21",
"F. c #6B3C21",
"G. c #6C3C21",
"H. c #6C3C21",
"J. c #703E21",
"K. c #713E22",
"L. c #76401E",
"P. c #78411F",
"I. c #6E4025",
"U. c #744022",
"Y. c #754122",
"T. c #794323",
"R. c #7C4728",
"E. c #7D4828",
/* pixels */
"# # # # o # o # # o o o o # # # # 4 4 # $ 4 < $ # # $ 4 4 4 4 C C 4 ! i.! c.9.i.x.i.9.i.i.F.F.H.U.x.H.i.i.2.2.t.L ! L b.Y - Y L ",
"..a f $ $ < # $ $ $ < < < C a < a X...f 4 f f > $ f 4 f f ! 4 X.2...9.i.t.i.c.c.c.i...D.2.c.F.D.i.2.2.! 2.H L H - H L M.- - Y L ",
"....C ....[ < $ # $ $ 4 < < 4 a a C a 4 < $ < 4 f > % > % # 4 C C ....2.C ....2.t.! ..2.C ! % # % % 4 f 2.C 4 H % 4 > L - Y % @ ",
"C ..4 ....< < $ < < # # # $ $ $ a a C < < > # $ # o o o o . o # # # $ $ % f 4 C C ! c f $ $ % # C 4 * 4 4 2.! H > ! H > L L % C.",
"$ $ $ # $ 4 $ % # # # o o # # # $ $ C * % 4 $ $ # # # o . o o # # # # 4 4 4 < f 2.f 4 $ % # % $ f 2.C 4 C ! f > # - % - - % Y @ ",
"$ $ # $ # * # # # # # o o # # # # $ a < $ $ < $ $ # o # o o o # # # $ * < $ $ $ < $ & < # $ f < 9.9.! 4 ! 4 H $ > > - > L % - @ ",
"a C $ # # # # # # # $ $ = # # # # # a # # # o o o o o o # # o # # # $ $ $ $ 4 $ $ $ $ $ $ > 4 4 2.i.i.2.c % % > H > ! C.' L - @ ",
"$ < < $ # o . . o o o # # $ # # # # * $ $ # # o . o $ o o o o # % < $ $ $ # # # # % $ % % > 4 4 U 2.9.2.4 % % > H > L L - - @ @ ",
"< a a a # o o o o o . # o # o # # # o < # . . o # # o # # # # # > L 4 4 4 < > % % o o # # > 4 4 4 f C C 4 > H H L L ! H % % L L ",
"$ $ # # . . o o o . . o o o . . o . . o . . . . o o o o % # > < a f ! ! 2.....f ..4 c C f C C 2...9.i.9.f C ! ! C.C.2.! > - ! ! ",
"$ # o o # o o o o o # # # # # $ # # # $ * # < < $ * < < 4 a ........f ..f ..X.X.....C 4 f ..i.D.2.9.D.D.2.2.i.2.C.2.! H L % b.b.",
"$ # # o $ # # # # # # $ $ $ # # # o o # $ # # $ $ $ $ a < [ a $ a ..[ 4 f f a o.f f f C 2.2.2.2.2.9.D.D.C.C.C.N.C.L L ! N.C.! H ",
"# o o # $ # # < < # $ # < # $ $ < # $ $ $ $ < 4 < $ f ......C ....2.2.2.2.4 ..2.2.2.2.9.2.2.! 2.C i.2.2.2.! L L L M.> H H L L - ",
"4 4 * * $ # $ $ < 4 < $ a < * $ < < n [ < * $ < < a f f 4 4 4 f f f i.h.9.f ..2.C f ! 2.9.i.9.9.X.i.C.2.! ! ! M.! L ! L ! L b.4 ",
"4 < $ o $ # $ $ < # $ $ $ < $ $ f [ } [ 4 X.< a } } e.} e.c.v.v.v.v.v.v.v.L.L.v.U.K.c.x.U.U.U.U.U.U.c.c.C.D.D.C.2.C.C.! H L N.2.",
"..X.X.=.e.e.e.} } } [ ......X.c.e.| v.v.c.v.c.e.v.v.v.v.v.v.v.L.L.P.P.L.T.T.L.T.L.U.x.x.K.U.U.K.c.2.! 9.C.9.t.2.C.i.F.9.A.C.D.H.",
"e.e.e.e.c.| e.| | | c.| c.e.X.c.e.c.c.c.e.e.| e.v.v.v.v.c.v.v.P.P.v.L.P.T.L.L.U.T.T.T.U.P.U.H.c.9.c.H.K.H.H.K.H.K.T.U.c.I.F.H.H.",
"} } =.} | e.e.e.} | } } | c.e.| c.x.e.v.v.c.v.v.v.v.v.v.L.v.v.v.v.v.T.L.T.L.L.P.U.T.T.U.v.c.9.i.x.v.K.H.c.K.x.K.K.K.H.H.D.c.c.2.",
"[ } } | e.} } } [ } } ..} X.e.} } e.| | | e.| v.| v.v.v.v.v.v.v.c.v.v.v.v.v.v.v.v.v.c.c...i.9.c.c.c.c.c.c.K.x.K.K.G.9.i.D.i.C.9.",
"= [ [ a [ a < < a a $ a [ [ [ [ } [ } | } } X.X.e.| | | e.e.e.| v.c.c.| x.c.v.x.e...$ $ % ! f f f C ..;.9.9.9.2.2.2.;.2.9.4 ! H ",
"# $ $ < $ # # # < < $ < ..2.a $ a $ < a a f f a f 4 4 4 < f ..X.X...o.f o...f f % % % # o o o o o % % % f 2.2.2.9.i.2.2.U % @ % ",
"# # # o .   . . o o # # % % @ o o . % > > % # # $ o % % 4 4 4 f < f 4 4 4 ! 4 4 & 4 % o # % % 4 H 4 4 H U ! 2.2.C.i.! 2.2.! L 2.",
"# % # o o . # % # # % % % % % > $ % 4 f f f 4 4 4 f o.f ..9.9.X.c.c.i...i.c.2.i.c.9.U f U 2...2.9.i.D.2.D.H.D.D.H.K.H.H.D.H.F.C.",
"$ % > # # # $ 4 % % % H H H f f 2.i.2.X.9.9.2.i.9.i.i.9.9.c.c.c.H.H.9.i.c.9.2.9.h.2.2.9.i.2.D.H.K.K.U.H.U.K.K.U.T.T.T.K.K.T.H.9.",
"....f ....C X.X.c.e.9...X.X.X.X.X.=.e.e.c.v.L.v.x.c.v.v.v.v.L.v.c.x.x.c.x.v.v.v.v.v.v.v.v.U.T.U.U.T.T.U.U.T.T.T.E.R.T.T.K.H.K.U.",
"i.X.....e.c.=.e.X.c.c.v.v.v.L.v.v.v.c.v.c.c.v.v.| | v.v.x.e.v.| c.e.c.x.| | v.v.L.v.T.U.U.T.T.T.T.T.U.T.T.T.R.T.R.T.U.K.H.c.H.U.",
"e.e.=.e.c.| | e.e.e.x.v.x.v.L.L.L.L.L.L.v.| v.v.v.e.X...X.e.| c.X.X.X.X.} X.e.| | x.v.v.v.c.v.c.v.v.v.K.K.K.U.H.H.D.K.K.U.H.H.K.",
"e.e.} e.X.} [ X.X.X.X.e.| e.| e.e.e.v.e.v.| e.X.a $ a 4 ..X.....f ....X.x.e.| e.c.h.c.x.x.v.x.H.H.K.H.H.G.D.9.f 9.D.H.H.U.K.U.U.",
"..2...[ ....X.......2...X.e.X.....2.X...a a 4 $ # # $ o o # # o # $ 4 ..9.......C f ..i.c.c.2.2.2.9.2.2.2.H % 4 C.9.c.c.c.H.H.c.",
"C 4 $ $ < $ < < 4 $ 4 < 4 ....< < $ $ $ 4 > 4 $ $ % o .     o # # # $ $ % $ 4 < 4 f 2.9.2...2.t.< 4 C f 2.c.9.2.2.! 2.2.2.2.2.! ",
"......9.C ..a $ 4 4 f C a ....< $ 4 < a C < C < c < $ < $ $ < < 4 < 4 < 4 $ C X.X...C 2.2.f ....f 2.2.9.9.i...2.H f H H f ! f 4 ",
"4 f C ..C ......o.4 o % 4 n C C C C f a C 4 < a < $ $ < n [ ....C f 4 f f 4 < 4 4 C C f 4 4 % 4 4 4 4 f f 2.C ! ! ! ! 4 % > @ . ",
"4 ! f ............C # # $ < < < ..[ ..C X...a < a 4 < [ o.a ..C C 4 f C 4 4 4 4 4 4 * $ > 4 4 ..C f c 4 4 f f 2.4 4 ! 4 @ % b.@ ",
"4 * $ f $ 4 > < 4 a $ $ a f f ....X.X...X...< $ $ $ < a < < f 4 $ $ 4 a $ > > 4 4 # # $ < % 4 C f 2.f 4 H 4 4 4 4 & L H - > L U ",
"C < * # # $ ....C < < $ < [ ..[ C X.X.o...f f < $ < 4 a f < 4 4 < ..4 ......4 $ $ $ * f ! 2.f ..U f ! 4 4 ! ! f ! ! ! H 4 4 2.9.",
"> # # # $ # $ $ 4 $ 4 c < < < f < ....o.X.X.X...f f f C ....i.9...h.i.X.2.$ < & 4 4 % > 4 C f f 4 4 2...f C 2.2.2.4 f f 4 2.4 ! ",
"# # # # < $ = $ a a C ..C 4 < ..o.} X...X.X.[ [ a ..f < < < f X.e...X.o.$ < $ < a H > % % $ 4 4 4 4 < f 4 f 2.< ! 4 f ! % % % % ",
"$ < # # $ a a [ a [ [ f o.a < ..[ a X.a [ a a [ ..f [ a a f ..e.X.o.< $ & < $ $ # # % % % % > % $ % 4 > f f 4 % C M.% > f H 4 ! ",
"o # o # # # # < # o # # # $ $ < $ # a < # # # $ 4 $ $ $ $ # # $ * 4 [ 4 f 4 < > $ < $ # 4 > # > # # 4 * % % & % % b.L - L f 4 4 ",
". # $ $ # # $ < o . o # $ $ # $ # # < # # $ $ # o # # # # # . o o $ ..f [ ..C < 4 C f f f f 4 4 4 % % $ % % 4 4 ! 2.2.C 4 % ! f ",
"o # o o o o $ # o o # # # # $ # # $ $ # # $ # % # # # # o o . # # # $ o # o o # o # o # o o o o . o . . # % @ # o % % 4 % % 4 4 ",
"% o . o o o # % o # # o o o # % # # o o o # o o % o % # .   . . o o o . o   . @ @ o o o o o . o . o o o # @ @ % @ % % % U % % > ",
"c o o # % % > * % * 4 o o % @ % % # o % # % > o o # o o o o . o # $ $ f f 4 $ 4 % $ $ 4 % % > 4 % # % $ % % 4 % % # % H H 4 % - ",
"4 o o % o # % > % < f 4 # # o # > % % > > > 4 > o o o o # o # $ < $ C ....f 4 4 % $ $ % # % % % % % 4 $ > % & % % > % % % H H 2.",
"< # o # o o o # # # # > % # o # o # # # # $ $ # @ o o o . o o o o o o % # o $ 4 % # > > % % > # % > % > % % % H > > > - 4 > % % ",
"$ # * # # $ # % > % > % # % % 4 % > % > > % > > > o @ % # # o # # % - @ % % # % 4 > > H % % > > # % % H % % > % - % % - % > % % ",
"@ % % % % - - % % - % % # @ # # % % % % % o % % # # o o # % # # # % # o % % # % > % % @ % o o % o @ @ % % % % % - - % % @ % - % ",
"@ @ % - % % % @ o % @ @ % . o o . . o o o o . . . . . . o @ o . o @ o   . o # @ @ @ @ + @ @ @ @ @ . % + . @ o . @ @ % %   . @ + ",
"X X @ o % % o @ . o @ o @ o o o # # o o . o       . . o o o # # o o % @ % $ # o o % # # # % % % % % % % % 4 4 % 2.! ! > > @ @ . ",
"o % # % $ 4 $ > 4 4 4 4 4 < # % $ # o . o # # # o # o . . o # o o o # $ 4 $ & % # # % $ $ 4 $ $ # # % # % 4 4 ! f > % # % o o % ",
"o # o # o o o o # # $ $ $ o o o # o   . o # $ $ # o o . o # o o @ # # # $ $ % . . # # % % % % # @ # % # > # % 2.& % % o o . o % ",
". . o o o % . % < $ % o o . . . # o o .         . .   .   o o # # # # o o # o o o # o # # # # o % % # % % % % @ % > % +   @ o % ",
"  . o . . . . o # # .             . + .               .     o o o # o # o # o o o o @ % o o o . . + +                 O     .   ",
"@ . o o % # o @ @ o @ @ @ . o o @ @ . . % o . . @ o % % % @ % % o % # % % % o % % # o o % % @ @ @ % % @ % % % % % - % % % @ @ @ ",
". . . @ % @ @ @ + o @ @ @ % # @ o @ . + + o + . # # # @ @ o @ @ . o . o % % @ @ @ % % o % % % @ % @ @ @ % + @ @ + @ @ + + @ + + ",
"  +   + @ + +       + +   .   + + @               + + O @ +   + . + + .   + + + + @ + @ @ @ @ @ % @ @ + % + + @ @ + + @ + @ @ + ",
"o .   . +   o @ X o . + . o % @ o @ . .           . + . @ + + % @ @ % @ o @ @ @ @ @ @ % % @ + + @ @ @ + @ + + + + O   O @ @ + + ",
"> % % % @ @ @ @ % % @ @ o o % o o . . @ o . . . . . X + + + + @ % o @ % @ @ @ o . + @ @ @ . + + @ + + @ @ @ + + @ + @ @ @ b.b.@ ",
"% % > % % @ % - L - - % - % > > % % > # % @ % # % - % - % % % - - % % - > % % % % % % % - % - % - - - % H % % % % - - - - - - - ",
"% % - # % @ - % % % % - % % @ @ @ @ # # o o # # % o o % o @ @ % % @ % % @ # % % % % 4 > - > % L > - - % - % - % % - - % - % % % ",
"% % @ @ @ @ @ o @ o @ @ @ . @ o o % @ % o o o o o + . @ o + @ % @ + @ @ - @ @ @ % % > @ % % - - % % @ % - @ @ @ @ @ @ @ @ @ + % ",
"@ o % # % - # % > % > % - % # % % - % # > > % - % @ - - - - H 4 H 4 H > > % H - - > - - - - b.- - - - - - % - - - - % - % - % - ",
"# - - > # % % % > % # % > # o o o @ # > > > > % o o @ @ o o @ % @ % % o # > > > % - % H H - H H > % % - - - b.- - - - % % % % % ",
"L H > % % % % > 4 L % > % $ % @ # > # # # % > % o - % > % % @ % % @ % o @ % % > > H % % > H H - 4 - % - b.- b.% - - - % - % % - "
};
