/* XPM */
static char *result[] = {
/* columns rows colors chars-per-pixel */
"64 64 208 2 ",
"   c #532F0D",
".  c #54300C",
"X  c #5C3915",
"o  c #563616",
"O  c #633F1A",
"+  c #5E3F21",
"@  c #64431E",
"#  c #5C4427",
"$  c #5D4836",
"%  c #654622",
"&  c #6A4523",
"*  c #6C4924",
"=  c #6C4A2C",
"-  c #664929",
";  c #724D25",
":  c #724E2C",
">  c #784E25",
",  c #6B522E",
"<  c #735022",
"1  c #75512D",
"2  c #78522D",
"3  c #654B33",
"4  c #6D4D32",
"5  c #724E31",
"6  c #714F38",
"7  c #6E5133",
"8  c #6C523B",
"9  c #66503B",
"0  c #735234",
"q  c #7A5634",
"w  c #7C5935",
"e  c #75563A",
"r  c #7A5639",
"t  c #77593B",
"y  c #7D5B3B",
"u  c #7C603F",
"i  c #5F5440",
"p  c #6E5743",
"a  c #745D41",
"s  c #7C5C42",
"d  c #735B46",
"f  c #776145",
"g  c #7C6244",
"h  c #75624D",
"j  c #7B644C",
"k  c #786959",
"l  c #7E705D",
"z  c #7D6E61",
"x  c #7B736E",
"c  c #835C35",
"v  c #8A5D35",
"b  c #825E3C",
"n  c #8A5F3C",
"m  c #85613D",
"M  c #8B633E",
"N  c #815F46",
"B  c #856341",
"V  c #8B6441",
"C  c #866B46",
"Z  c #8E6943",
"A  c #89664B",
"S  c #856B4C",
"D  c #8B6D4B",
"F  c #916542",
"G  c #916A44",
"H  c #946E49",
"J  c #986B4A",
"K  c #8B714C",
"L  c #95714B",
"P  c #836B53",
"I  c #896D53",
"U  c #816E5D",
"Y  c #8E7254",
"T  c #83745B",
"R  c #8E755C",
"E  c #8F785B",
"W  c #93765B",
"Q  c #957A5C",
"!  c #9A7C5F",
"~  c #967654",
"^  c #827365",
"/  c #8C7662",
"(  c #8E7B64",
")  c #85766A",
"_  c #8D7C6B",
"`  c #88766A",
"'  c #957C64",
"]  c #9A7E65",
"[  c #967B69",
"{  c #8B7B74",
"}  c #8C7E7A",
"|  c #917A70",
" . c #8D826E",
".. c #968062",
"X. c #9C8164",
"o. c #94826B",
"O. c #9B836C",
"+. c #9C896D",
"@. c #8E8271",
"#. c #8E867D",
"$. c #938472",
"%. c #9B8B74",
"&. c #98897A",
"*. c #9C917C",
"=. c #A38B6E",
"-. c #A38465",
";. c #A3926D",
":. c #A38D73",
">. c #AB8E76",
",. c #A48C7C",
"<. c #AA8E79",
"1. c #A59175",
"2. c #A99275",
"3. c #A7927A",
"4. c #AA947B",
"5. c #B3967C",
"6. c #B29A7D",
"7. c #9C8C83",
"8. c #9D8B84",
"9. c #9C9383",
"0. c #9F908A",
"q. c #969181",
"w. c #9A9593",
"e. c #A49584",
"r. c #AC9682",
"t. c #A59983",
"y. c #AD9A83",
"u. c #A3948B",
"i. c #A59B8C",
"p. c #AC9A8C",
"a. c #B09782",
"s. c #B19A84",
"d. c #B29D8C",
"f. c #A79D90",
"g. c #ADA28E",
"h. c #B6A48D",
"j. c #BBA78E",
"k. c #ACA192",
"l. c #ADA59A",
"z. c #ABA596",
"x. c #B4A694",
"c. c #B2A69B",
"v. c #B2A99D",
"b. c #BDAE9B",
"n. c #B6A997",
"m. c #B2A8A4",
"M. c #B5ADA7",
"N. c #BFB5A6",
"B. c #B2AFAD",
"V. c #C8B59E",
"C. c #CBBDAD",
"Z. c #C6B9AB",
"A. c #C7BAB2",
"S. c #CDBFB2",
"D. c #C6BDBB",
"F. c #CDC0AF",
"G. c #D1C3AE",
"H. c #CDC2B2",
"J. c #CAC4BC",
"K. c #D3C4B3",
"L. c #D6CBBC",
"P. c #D7C9B8",
"I. c #CCCBCD",
"U. c #CFCBC6",
"Y. c #D3CDC1",
"T. c #DCCFC3",
"R. c #D4CECB",
"E. c #DAD2C5",
"W. c #DDD3CA",
"Q. c #DBD6C8",
"!. c #CDCBD0",
"~. c #D3CFD1",
"^. c #CFD1D2",
"/. c #D4D3D4",
"(. c #D6D7DD",
"). c #DAD7D9",
"_. c #D6D9DC",
"`. c #DBD9DB",
"'. c #DDDAD5",
"]. c #E3DACD",
"[. c #E5DED8",
"{. c #E4E2DB",
"}. c #EAE3DB",
"|. c #E4E2D5",
" X c #DBDCE2",
".X c #DFE1E3",
"XX c #DEE2E8",
"oX c #EAE6E3",
"OX c #ECE9E2",
"+X c #E4E4EC",
"@X c #E6E9EB",
"#X c #E9E9EC",
"$X c #E5E4E4",
"%X c #F3EBE5",
"&X c #F5EDE9",
"*X c #FBEEEA",
"=X c #F7F0E7",
"-X c #F6F1EB",
";X c #FBF3ED",
":X c #EBEDF2",
">X c #EEF3F2",
",X c #F4F5F4",
"<X c #FCF6F2",
"1X c #FDFAF5",
"2X c #F2F3FB",
"3X c #FBF7FA",
"4X c #F5F9FC",
"5X c #FEFEFE",
/* pixels */
"+ % % % % % % & * * = 1 1 2 w m m M M Z L H H M M M c w q 1 = = = : 1 q w c n M M H H L Z M M M w w > 1 1 * * - % % % & % % % + ",
"% @ o   o % o . . . X @ o X @ @ 1 < < < 1 1 w : < @ @ : - X X 1 : X X - : O ; & ; w 2 > < < , 1 @ @ X X % X . . . X %     o O % ",
": $ k @.T o k  . .@.f $  . . .o.8 )  .$.o. .- _ o.@.( 4 9 @.T 1 : T o.i 3 (  .o._ 3 ( $.$.o.) 9 @.o. . .$ f @. .o.k o ^ @.k $ : ",
"5 x @X5X3X$ (.5X5X5XH.w.5X5X5X5Xe.4X5X5X5X5X..,X5X5X5Xe.m.5X5X@ & 5X5Xm.t.5X5X5X,XO.5X5X5X5X4Xt.5X5X5X5Xw.H.5X5X5X(.i ,X5X@Xx : ",
": h c.S.V.4 h.H.H.H.6.( H.G.H.P.! D.K.P.L.G.Q K.P.K.K.! %.P.Z.: : Z.L.%.] K.K.P.H.Q G.L.P.H.S.] P.K.G.K.( 6.K.H.H.x.3 V.H.v.h : ",
"; # 8 a 0 # 7 g g g e - g B B S 1 P C Y D D 0 S D K C 0 e A t w 2 a A e 0 Z K D I 0 D C I C P 0 S g C f 3 e g g g 6 # 0 a 8 # : ",
"1 x (.4X{.3 !.3X4X5XZ.#.3X4X4X5X$.#X4X3X4XOX/ @X5X3X2X$.w.5X%X* * %X5Xw.$.,X4X3X#X( }.4X3X5X#X$.5X4X4X3X#.N.5X4X3XI.3 }.2X(.x 2 ",
"1 { +X5X;X5 (.5X5X5XH.u.5X5X5X5X4.2X5X5X5X;XO.,X5X5X5X2.v.5X;X* * ;X5Xv.4.5X5X5X,XX.<X5X5X5X2X4.3X5X5X5Xu.F.5X5X5X_.0 ;X5X.X} > ",
"< }  X5X&X5 _.5X5X5XC.0.5X5X5X5X:.2X5X5X5X*X! ,X3X5X3X2.l.5X&X* * &X5Xz.:.5X5X3X,XQ ;X5X5X5X2X:.5X5X5X5X0.C.5X5X5X/.0 &X5X X{ < ",
"< } .X5X&X4 _.5X5X5XF.0.5X5X5X5X3.2X5X5X5X,X] ,X1X5X3X2.l.5X&X* * =X5Xl.1.5X5X3X,XX.;X5X5X5X2X:.5X5X5X5X0.H.5X5X5X_.7 =X5X X#.< ",
"1 { #X5X<X8 `.5X5X5XH.u.5X5X5X5X3.5X5X5X5X1X..,X5X5X5Xr.m.5X5X& * 1X5Xm.a.5X5X5X,X..5X5X5X5X5X3.5X5X5X5Xu.K.5X5X5X).8 <X5X#X} 1 ",
"1 e R +.] 2 / =.=.:.~ g :.=.:.2.m :.;.1.1.X.V 1.>.1.1.B S 1.X.> > X.1.I B :.1.2.1.M -.1.:.;.:.m 2.:.:.:.g Y =.=.=./ : X.+.R e : ",
": p @.9.%.= _ e.i.i.R f t.t.u.t.t 7.e.y.t.4.s t.d.p.e.f U i.*.; : &.i.T d e.y.p.e.a 4.t.y.t.8.a t.e.t.e.h E i.i.e._ 3 %.9.@.p 1 ",
"1 { @X5X<X8 ).5X5X5XH.i.5X5X5X5Xe.5X5X5X5X5X( ,X5X5X5Xy.m.5X5X% % 5X5Xm.a.5X5X5X,X' 5X5X5X5X5Xe.5X5X5X5Xu.K.5X5X5X).8 ;X5X#X{ 1 ",
"* {  X5X%Xs /.5X5X5XF.u.5X5X5X5X>.2X5X5X5X-X! ,X5X3X3X2.v.5X&X* * =X5Xv.4.3X5X3X,X! -X5X5X5X2X<.5X5X5X5X0.F.5X5X5X/.s %X5X_.{ < ",
"< {  X5X%Xy ^.5X5X5XC.8.5X5X5X5X:.2X5X5X5X*XQ ,X3X5X5X1.l.5X&X* & =X5Xl.1.3X5X5X2XQ ;X5X5X5X>X:.5X5X5X5X0.C.5X5X5X/.y %X5X X{ < ",
"< @.XX5X%Xd ).5X5X5XK.u.5X5X5X5X4.2X5X5X5X<XX.,X5X5X5X4.m.5X;X& & ;X5Xm.2.5X5X5X3X] <X5X5X5X2X3.5X5X5X5Xu.K.5X5X5X).d &X5X+X{ ; ",
"= ^ J.{.L.y A.{.{.oXb.+.{.[.{.}.+.).|.|.oXQ.Q '.}.}.|.+.e.OX].* * ].OXu.=.|.|.}.'.Q Q.}.}.|./.+.}.}.}.{.+.b.$X{.[.A.y L.{.J.^ = ",
": 4 s S D * f Y Y Y m r T Y E Y q I K E W C c I ~ ~ E y N Y g w c g Y b y W Q ~ Y 2 K W W K I w Y E Y T r B Y Y Y j ; S S f 7 ; ",
"1 l D..XE.0 B.{.{.$Xx.{ {.{.{.oX' ~.}.{.}.W.I '.{.{.{.[ 7.#XE.< = E.#X9._ [.oX|.'.I W.{.{.{.~.] {.{.{.{.{ x.oX{.{.B.4 T.{.D.l : ",
": { XX5X;Xs /.5X5X5XK.u.5X5X5X5X4.2X5X5X5X3XX.3X5X5X5X5.v.5X<X* * <X5Xv.5.5X5X5X3XX.1X5X5X5X2X4.5X5X5X5Xu.F.5X5X5X/.b ;X5XXX{ : ",
": { _.5X%Xs /.5X5X5XF.7.5X5X5X5X>.:X5X5X5X*XQ ,X5X5X5X2.c.5X=X* * =X5Xx.2.5X3X5X,XQ *X5X5X5X:X:.5X5X5X5X7.F.5X5X5X~.s &X5X_.{ : ",
"q `  X3X&Xs ~.5X5X5XS.e.5X5X5X5X>.:X5X4X5X-X! >X5X4X3X4.c.5X;X& & ;X5Xc.4.4X4X5X>X! ,X5X5X5X:X<.5X5X5X5Xe.S.5X5X5X~.N &X4X X{ 1 ",
"q { #X5X<Xj `.5X5X5XK.i.5X5X5X5X3.4X5X5X5X5XX.3X5X5X3X4.m.5X5X* * 5X5Xm.4.5X5X5X3XX.3X5X5X5X4X3.5X5X5X5Xf.K.5X5X5X[.d <X5X#X{ q ",
"5 d 7.c.r.0 *.x.x.n.+.I z.x.n.n.Y g.h.v.h.x.V g.V.h.h.Y _ b.y.; > y.b.( Y h.x.V.d.C h.x.n.h.g.Y n.n.n.z.I +.x.x.x.*.0 r.x.q.h : ",
": d o.t.:.& { r.4.y.W d t.y.d.p.B 9.6.s.s.r.c e.5.5.y.g P d.3.1 1 3.d.P g y.6.5.3.c r.s.p.5.9.B y.d.y.t.d R y.y.r.{ & :.t.o.p 5 ",
"0 ) $X5X;X7 /.5X5X5XH.7.5X5X5X5X*.2X5X5X5X3XE ,X5X5X5X1.k.5X5X% & 5X5Xk.:.5X5X5X,XR 5X5X5X5X2X&.5X5X5X5X8.F.5X5X5X/.0 ;X5X$X) : ",
": ) ).5X=Xy ^.5X5X5XF.7.5X5X5X5X<.>X5X4X5X*X' ,X5X5X5X1.f.5X&X* - &X5Xf.2.5X4X5X,X' &X5X5X5X>X3.5X5X5X5X7.F.5X3X5X^.t &X5X`.` 5 ",
"0 ` `.3X&Xr I.5X5X5XC.8.5X5X5X5X=.:X5X5X5X&XW >X5X4X5X:.i.5X&X% % &X5Xi.1.5X4X5X:XQ *X5X5X5X#X=.5X5X5X5X8.C.5X5X5XI.e %X5X).` 0 ",
"5 ) `.5X=Xs R.5X5X5XS.8.5X5X5X5X:.:X5X5X5X;XQ ,X5X5X5X2.f.5X;X% % ;X5Xf.4.5X5X5X,X' ;X5X5X5X:X:.5X5X5X5X8.S.5X5X5X~.s =X5X`.` 5 ",
"5 ^ ).5X&Xe I.5X5X5XC.&.5X5X5X5X=.#X5X5X5X=XW ,X5X5X5X>.i.5X-X% - ;X5Xi.2.3X5X5X,XW &X5X5X5X@X:.5X5X5X5X&.C.5X5X5XI.r &X5X).^ 5 ",
"q 7 j _ E ; U ] ' [ C g ' ..] X.u ' ] O.O.W b [ -.X.-.N S X.( : : E X.S B -.X.-.' c Q O.O.] ' m O.' ....f C ] ] ' T ; R ( j 6 q ",
"0 d m.Y.Z.3 v.Y.L.R.t.l Y.Y.Y.E.P S.Y.Y.E.F.f J.Y.Y.L.R $.Q.H.; * H.Q.{ R L.Y.Y.H.h F.R.L.Y.S.P T.Y.Y.Y.l t.E.Y.Y.v.3 Z.U.m.d 0 ",
"w z .X5X&Xp R.5X5X5XK.#.5X5X5X5X&.2X5X5X5X<X/ ,X5X5X3X3.i.5X3X* * 3X5Xi.3.5X5X5X,X( <X5X5X5X2X&.3X5X5X5X&.S.5X5X5XR.p -X3X.Xz w ",
"q z /.5X%Xe I.5X5X5XC.$.5X5X5X5X:.#X5X5X5X&XW >X5X5X5X:.e.5X-X= : ;X5Xe.1.3X5X5X,XW &X5X5X5X#X=.5X5X5X5X$.C.5X3X5XI.e &X5X/.l q ",
"q T /.5X&Xe I.5X5X5XC.&.5X3X5X5X:.#X5X5X5X&XW ,X5X5X5X:.u.5X=X= = =X5Xu.:.5X5X5X,XW &X5X5X5X:X=.5X5X5X5X&.C.5X5X5XI.r &X5X/.T q ",
"w ^  X5X;Xr ~.5X5X5XK.7.5X5X5X5X,.2X5X5X5X3XW ,X5X5X5X4.i.5X3X= ; 3X5Xi.4.5X5X5X,X' 3X3X5X5X2X%.5X5X5X5X7.H.5X5X5X~.e ;X5X.X^ q ",
"w d M.Y.G.0 m.T.W.W.h./ E.E.W.W.Q H.].T.W.K.Y L.T.E.L.' O.'.K.1 : K.'.O.X.Y.E.T.L.Y K.Q.T.Q.H.] W.W.E.E./ h.W.W.E.v.q K.Y.M.j w ",
"c 8 ' r.+.; O.4.r.a.W N t.6.d.6.B :.r.5.y.2.B 4.5.a.s.A Z 4.=.0 0 =.4.D A s.a.5.2.s 2.y.5.y.:.B 6.d.6.t.N W a.a.4.o.* +.r.( 0 y ",
"w k /.5XOX9 I.5X5X5XC.| 5X5X5X5X$.OX5X5X5X*XU ,X3X5X5X:.7.5X*X6 6 *X5X9.:.3X5X5X<XU *X5X5X5XoX+.5X5X5X5X| C.5X5X5XI.9 OX5X~.k c ",
"b U .X5X<Xf Y.5X5X5XK.8.5X5X5X5X3.,X5X5X5X1X[ 3X5X5X5Xa.i.5X3X: = 5X5Xi.a.3X5X5X3X[ 5X5X1X5X,X1.5X5X5X5X8.K.5X5X5XY.f <X5X$Xl b ",
"b P J.oXE.y D.}.oX&Xb.o.oX%XoX&X+.E.%X%X%XQ.R [.OXOX}.+.%.-X].0 0 ].-X+.=.|.OXoX[.R ].oX%X%XE.+.&X#XOX}.[ b.&XOX$XA.t E.oXJ.P b ",
"M b A Z Z v D G Z G G G K G J H F L H J L G F J J G F F Z F G n n Z Z V F F G H J F G J J J H G J J J Z J G G G G D v Z Z V b M ",
"m m c c M M m b c c m M c M M v M n M M M M M M v M n M n c n M n n v n M M M v M M M M M n M M c M M c M m c w b M V n c c m u ",
"7 0 4 7 0 7 4 7 7 0 7 7 7 e e 0 0 e r e c r 0 e e 0 0 e 7 0 5 0 0 4 5 5 e 0 0 r c 0 r r e r e 0 0 e e 1 7 7 7 0 7 0 4 0 0 4 4 7 ",
"0 0 5 r 1 1 w w w b 0 y y y y y 0 b r q b w 0 w 0 q q 0 0 q = 0 e : q q 5 0 w 0 w 0 y y e y b 0 u y r y y 0 w y q w 0 : r 5 q e ",
"C B b V y V V V V V N G M B G F m G n B F V N V c m A r V b y B B y b B y A M w V b V F B M F B Z G B M G B V Z V V V y V b B B ",
"B b b m q B M M V M b V M B G V b V b M F B b M w m m r M y r u b r y B r B b w V b V V n b Z b M F B V V b V B M M B w m b b B ",
"B b b m w m m M B Z y V V B Z V m M m M M V b M q m m r B y r m m r b B y m m q M b V F M m V m V Z B M V y Z V M M m w m y b m ",
"m m c m w m m M m M y M V m M Z m V b m B m y V q m m q b b q b b q b b q m m q M y m B m m F y G M B M V y M B m m m 0 m b m m ",
"b M y m q m M m B M b V V m M G y F m m V m y V q m m w b b e b b 0 y b q m b q B y m V m b V b G M B M M y Z B M M m w m b m m ",
"m b b m e m M M B V y V M B M Z b F b m M M y M q m m 0 b b w m m y b b q m b q M y M M m b F y Z M B M V y M B m V u w m y m m ",
"u m m m w m m m m M y V M m m Z b V b m M M y V 1 m B w b b y y y y y b w B m 1 V u M M M b V b Z M B V m m m m m M m y m b b m ",
"m b y M y u M m B M u m V m M Z b V b m M m u V 1 m B w b y y y y y y m w B m q V u m M m b M y M M y V m y Z m m M u w m c m u ",
"m m y m y m M m M Z y V M y M M w B b m M b y V 1 m M w m b r b y q b b w B m 1 V w b M m b B c M M m M V y Z m m M m y m y m m ",
"B m b m w m Z M m Z y V V B M Z b V b n V m b V q m B r m b r b B y b m r B M q V y n M b b F b Z M B M V y V V M Z m y M b m B ",
"m m b V y m F B m Z y V M m V M b V b b N n c B 2 M N r n N w b N q N b r B n q V b b n b b F b M M b M V b V M M Z n y M y m m ",
"m b b B y m V B V V y V M y V M w F c b n b w M : b b q b w r b b r c b 0 b b : n w b n b c N y M V b M m y V M m V N y B b m m ",
"B u y B w N V m B B y m b y M B y N c y n b r N : b y 6 b w 0 b b 0 w b 0 y b : N w b N y w N y V M y m m y B N m V B w M y y B ",
"m b y n w b V b m m y m b y M M w b q y n y 0 b : b c 6 b q 0 b b 0 q b 0 w b 1 b 5 b n b q n w m m y m m y M B m B b r m y m B ",
"B y y m e u m m m m e u b y m b e b q r b w e b : y y 5 b q 5 y w 0 q b 6 w b : b e w b r q m 0 b b y b u 0 M u y m y t m y y B ",
"u y t u 7 u m w y m 0 y b 0 m y 4 b q r b r 6 b = y y 7 r q 6 r y 5 6 q 5 y w 3 y e r b r q b 7 y m e y y 0 m y y m g 7 m e y u ",
"u s t y 0 u u y t m 0 y y 0 y y 6 c 5 q q 6 7 y = 0 r 4 q 6 5 q r 4 q q 4 w q = w 6 r w 0 0 w 0 y y 0 w y 7 m y y m y 7 u e t g ",
"u y t B 7 u m w e w = t w 7 w w 4 w : 6 c 0 7 q = 0 q = 0 5 = e 0 = 5 6 4 q 6 - w 4 5 w 0 : q 7 y w 0 w w , w e t u u 0 B t y u "
};
