/* XPM */
static char *result[] = {
/* columns rows colors chars-per-pixel */
"64 64 249 2 ",
"   c #1B162A",
".  c #1D1A2C",
"X  c #15122A",
"o  c #131B34",
"O  c #1C1E33",
"+  c #161F39",
"@  c #181F39",
"#  c #221C2E",
"$  c #291D2D",
"%  c #241E31",
"&  c #291E31",
"*  c #1B2134",
"=  c #17203A",
"-  c #1A223C",
";  c #152137",
":  c #28212F",
">  c #232233",
",  c #2B2233",
"<  c #23263A",
"1  c #26293B",
"2  c #2B293B",
"3  c #2A263A",
"4  c #322634",
"5  c #342B3B",
"6  c #382938",
"7  c #35313E",
"8  c #3C333E",
"9  c #541C2F",
"0  c #472836",
"q  c #572A39",
"w  c #43333D",
"e  c #4A363E",
"r  c #573A3B",
"t  c #50202F",
"y  c #6A2D37",
"u  c #6A1E2F",
"i  c #4E443C",
"p  c #67483C",
"a  c #1C2542",
"s  c #1F2943",
"d  c #242A43",
"f  c #2B2E42",
"g  c #222742",
"h  c #342D41",
"j  c #2C3145",
"k  c #2C334A",
"l  c #333344",
"z  c #3B3543",
"x  c #32354B",
"c  c #363A4B",
"v  c #3A3B4B",
"b  c #3A3847",
"n  c #343B53",
"m  c #363C54",
"M  c #453542",
"N  c #433B46",
"B  c #433D4A",
"V  c #4B3946",
"C  c #533C45",
"Z  c #583B48",
"A  c #4E3448",
"S  c #663A49",
"D  c #773B47",
"F  c #3C4453",
"G  c #3F4857",
"H  c #3F4A59",
"J  c #37435A",
"K  c #3B4A62",
"L  c #42414A",
"P  c #4C444C",
"I  c #4D4144",
"U  c #53444C",
"Y  c #5C444C",
"T  c #574547",
"R  c #414C5B",
"E  c #464656",
"W  c #5B4D54",
"Q  c #554953",
"!  c #5D5155",
"~  c #5C545B",
"^  c #55535D",
"/  c #4E5152",
"(  c #634A4E",
")  c #66464A",
"_  c #754A4B",
"`  c #665547",
"'  c #785449",
"]  c #674B52",
"[  c #784B54",
"{  c #665558",
"}  c #775955",
"|  c #7C6348",
" . c #7A625A",
".. c #6E654D",
"X. c #445262",
"o. c #555261",
"O. c #675C63",
"+. c #6C666C",
"@. c #766868",
"#. c #7C7377",
"$. c #72726E",
"%. c #546473",
"&. c #922E39",
"*. c #AF2F2C",
"=. c #FF241E",
"-. c #FE3C26",
";. c #FD302C",
":. c #FE1016",
">. c #B1683D",
",. c #9B623A",
"<. c #FE4A2B",
"1. c #FE542C",
"2. c #FE5535",
"3. c #FE4D34",
"4. c #FD653C",
"5. c #DC433B",
"6. c #8E3647",
"7. c #AC3743",
"8. c #DF3C41",
"9. c #84594A",
"0. c #855B55",
"q. c #8B5C53",
"w. c #835C58",
"e. c #8F4752",
"r. c #B15251",
"t. c #8C6254",
"y. c #85625B",
"u. c #8B635C",
"i. c #89685A",
"p. c #936455",
"a. c #93665A",
"s. c #986958",
"d. c #9C785C",
"f. c #8C6E4B",
"g. c #B37642",
"h. c #A66B5B",
"j. c #A6775C",
"k. c #B47253",
"l. c #895E62",
"z. c #886963",
"x. c #966A62",
"c. c #967666",
"v. c #857879",
"b. c #92756D",
"n. c #A47B66",
"m. c #B57965",
"M. c #AD6A62",
"N. c #CD594F",
"B. c #FC4F4A",
"V. c #CD6F53",
"C. c #F66549",
"Z. c #C27765",
"A. c #FB776D",
"S. c #FC5C63",
"D. c #8C8659",
"F. c #B38B4A",
"G. c #B4954C",
"H. c #AF8852",
"J. c #B8A75B",
"K. c #948473",
"L. c #B98469",
"P. c #A98875",
"I. c #AF8F70",
"U. c #B7AC6B",
"Y. c #D78D5A",
"T. c #FD8B55",
"R. c #E7965B",
"E. c #FD995A",
"W. c #F68C50",
"Q. c #CEAF5D",
"!. c #FAA759",
"~. c #EDBD57",
"^. c #F2B454",
"/. c #CF916E",
"(. c #E99866",
"). c #F98D6C",
"_. c #C6B966",
"`. c #D0AF6E",
"'. c #EAA569",
"]. c #E9A875",
"[. c #F9B26E",
"{. c #EEC359",
"}. c #FCC758",
"|. c #DEC871",
" X c #E8C868",
".X c #FEC869",
"XX c #FFD766",
"oX c #FEC777",
"OX c #EDDB74",
"+X c #E8D675",
"@X c #FCD77A",
"#X c #E7CD73",
"$X c #FFEB78",
"%X c #FFF37E",
"&X c #FFF575",
"*X c #F8E66F",
"=X c #6E7889",
"-X c #537589",
";X c #867E85",
":X c #5F8A90",
">X c #8B8285",
",X c #968988",
"<X c #8B8793",
"1X c #949095",
"2X c #A6948B",
"3X c #B99786",
"4X c #A79B94",
"5X c #A8958A",
"6X c #A9A19D",
"7X c #B7A596",
"8X c #B9A784",
"9X c #95AAB2",
"0X c #A8A6A9",
"qX c #AFAFB1",
"wX c #99A19D",
"eX c #CB9B83",
"rX c #FD9988",
"tX c #D1AD8A",
"yX c #F1B893",
"uX c #C9B9AE",
"iX c #FEBBA8",
"pX c #8FCA86",
"aX c #A6DA9F",
"sX c #E7C58A",
"dX c #E8C49A",
"fX c #FAC998",
"gX c #FAD899",
"hX c #F5D28A",
"jX c #FDE987",
"kX c #FFF38C",
"lX c #FFFB8D",
"zX c #FFF784",
"xX c #FBEA97",
"cX c #FFFC93",
"vX c #FFFF9C",
"bX c #FEF694",
"nX c #EAEC90",
"mX c #D6CCAB",
"MX c #E9C5A3",
"NX c #EFD3AF",
"BX c #FCF9A7",
"VX c #D3E09A",
"CX c #ABBEC6",
"ZX c #B9C9C8",
"AX c #BDE2D2",
"SX c #CED3D3",
"DX c #F2EACD",
"FX c #F1F1ED",
"GX c #D0E7C3",
/* pixels */
"* * * * * * * * * * * * * * * O * * * * * * O O * * * * * * * * * * * * * . * * ; * * * * * * * * * * * * * * * * O * * * * * * ",
"* * * * * * * * * * * * * * * * * * * * * * O + * * * * * * * * * * * * * * * * * * * * * * * * * * * * * * * * * * * * * * * * ",
"* * * * > * * * * * * O o o o ; o o o + ; o + o o o o o X * * o X o o * * * * ; ; o o O o o o o o o o o o o o o o o o o o o o o ",
"@ @ * * * @ - @ - < @ e >.F.>.>.>.>.>.g.g.g.F.J.U.U.U.J.Q.D.f.G.J.J.D.: j l > | F.F.F.F.G.G.G.G.G.G.G.G.F.F.F.F.F.F.F.G.G.G.G.G.",
"@ * - @ @ @ @ @ - - * p ^.}.W.<.B.C.2.2.2.2.E.lXlXlXlXlX+XT U s.*XlXQ.4 J c 3 |.%X%X$X%X%X%X%XzX&X%X%X&X$X$X%X%XjX$X%X&X%X%X&XzX",
"@ + a + @ = @ + - s - p }.XXW.=.;.B.3.3.C.B.E.cXcXcXcXlX_.I C A +XlX X4 J J 7 %XcXcXbXvXvXvXcXcXBX@X@X[.[.oXbXcXkXjXjXjXjXlXlXjX",
"+ + + + = = - a - a - p }.XXW.A.A.B.3.;.A.B.E.cXlXlXkX%X_.] [ ) #XlX~.2 J J 5 lXbXbXvXvXoXjXvXbXBXxXzXxXFXFXvXzX4.1.4.W.2.$XXX2.",
"+ + + + = - a @ - a * | XX}.!.S.S.B.B.;.;.:.hXcXcXcXlX%X X0.0.) |.lX|.7 J J 7 lXbXjXT.fXfXyX.XbXkX^.jXT.rXrXjX.X-.<.1.1.-.E.2.!.",
"+ + + + - = - = a a a | }.*XXXfXfXgXfXrXrXrXBXlXlXlX$X+XQ.} 0.e./.jX|.z K J z lXlXhX1.rXFXDX<.kXXX4.E.A.rX).jXjXyX<.1.3.-.<.<.@X",
"+ + + a a = a a a - s | XX*X$X@X@X$XkXkXbXvXcXbXlXlX$XY.N.r.m.3XN./.+XM K K l lXbX@X4.4.1.1.2.kXlXW.=.-.1.-.hXxXS.=.=.=.=.C.[.jX",
"+ = = = = = - a a a s | XX%XlXcXcXcXcXcXbXlXcXlXbXlX$X].NXMXMXuXr.sXsXb H K 7 lXlXkX4.<.1.<.T.lXcXjXE.E.!.E.kXkXC.;.=.!.E.jXcXbX",
"a s d = = a - a a a s | XX$XlXlXzX%X%X&XzXkXlXzXkXzX*X@XNXyXtXU.I.kX XN K K h lXcXcXbXzXkXkXbXlXcXcXvXvXvXvXcXcXcXkXkXvXBXvXcXcX",
"= a s = - - - - - a a | {.~.{.{.~.^.{.{.~.{.{.{.{.~.{.{.^.^.Q.^.~.{.F.2 J K 7 *XOXOXOXOXOXOXOXOXOXOXOXOXOXOXOXOXOXOXOXOXOXOXOX#X",
"a a a a - a g s s s k l L L b i F F w F N L L F v F N L N L w w N b l x K K x P B N b B L L N F L L F L L F L L L L L F L L F e ",
"* < @ O > * * > - 1 1 j d j f f j j j 2 1 j 1 2 j 2 j j j j j j j j j j j j l j k j j j l j j j j j j j 2 l j j x j j j k j 2 j ",
"O o   .       .   .     .             .     . . .   . .   .           .             . # * . * : * . : # * : * : > > : : > : : : ",
"@ . % O . O .   . . . # .   X           X   . # . . # # . # . O . % O %   @ @ @ # . # . # O . # . . # # . # # . # .     o . . . ",
"< O O % % 3 3 3 h 3 3 h B B ~ h z z N B 9.M M 5 M 8 , h b z b z l z z b M M h A b b z z z N b z b 8 3 2 B 3 3 5 2 & q S 6.B h B ",
"g v +.#.+.E +.#.#.+.o.m 2Xv.2Xv.#.#.~ #.P.z.{ 7 W P 5 V Q W ! ! W W ~ Q Z o.Q Q ! Q W ! ! W W { ! U 3 2 c f j M _ 3 y 7.7.W U z.",
"g B v.>X>XE 7X,Xv.,X#.E 4X,X;X;X,Xv.{ v.+.@.c.8 z M , N ~ ~ { { { { A S S S [ S ] ! { { W { { { { W 2 l A S A h } 3 S } w.Z Z z.",
"g E b.;X,X~ 4X>X>X4Xv.E 7X4X>XK.4Xv.{ ,X#.+.x.8 5 w & V ] { { { ! z.Z 6.6.e.r.S M W { { { { } { { ] 3 z 6.e.e.A V $ D P [ W A x.",
"f ^ ;X,X2Xo.4X2X,X2XK.o.7X2X1X2XeX;X{ v.#.O.@.w 4 , 4 ) u.} w.}  .b.b.S q S S D Z q q.w.u.u.x.w.a.} f b l.x.m.Z e $ _ [ x.o.] Z.",
"g ~ ;Xv.,Xo.2X2X4X4X3XO.3Xv.v.P.7Xv.Q v.v.+.{ 6 4 4 6 ) w.z.w.w.l.eXtXb.S Q Q e.Z.r.k.w.u.y.u.} y.} 5 b ;XL.I.Z y & D 7.r.Z Y M.",
"g Q @.v.;X~ #.v.K.,X3X+.2X+.+.#.v.+.Z I.n. .! e 4 6 C Y u.w.u.u.l.5X3XtXeXe.;Xr.7.6.h.w.u.u.x.u.w.w.f B eXeXtXS q & B 6 A B U x.",
"k o.v.v.,X! v.O.O.@.@.v.P.O.+.{ @.K.w T z z  .C , z w Y y.z.y.u. .3XeXtXeX6.6.&.7.6.M.y.i.u.y.z.u.} 1 L I.U.`.C q , E v v m Y x.",
"a x N B / 7 { U E W P P ! Q ! W  . .M N U I T 6 4 C V ' d.d.d.c.b.eXtXtXeXM.r.6.r.Z.m.n.H.P.P.H.n.d.` ..} { { I q 4 U {  .B Y x.",
"O 2 N N l ! }  .}  . . .}  . .! }  . . . .t.4 , 0 ) ) ' m.(.'.].hXxXfXfXyX].].).(.].].(.'.]./.Y.Y.R.R.Q.|.|.+XI.q , & , , & } M.",
"g d l k 2 c F z 7 7 7 7 7 7 7 7 8 8 8 w z T , , 4 M M ) Y.R.!..X[.[.[.].(.(.(./.(.(.[.(.(.R.R.R.Y.Y.j.W F E ^ P.0 , 4 4 4 $ 0.x.",
"n x k h f x ~ @.1X,X<X<X<X<X<X1X<X<X,X1X,X1X} $ 5 w w ) tXyXyXdXdXMXyXdXMXMXMXMXMXMXNXMXMXMXyXsXsXyXtXtX5XI.~ K.0 4 4 4 4 : q.h.",
"n n n x f m b N b.^ U._.U.Q.J.H.J._.$./ l F P.& 6 Z w Z s.y.l.x.x.z.z.x.x.n.Z.m.L././.b.Z.(.E.[.'./.P.z.#. .j.n.q 4 4 4 4 $ a.m.",
"x n n x h m f [ n.h BXvXBXjXvXVXBXvXI.8 > b n.$ 5 Z w M a.I._.#XhXsXsX#XgXdXNXgXgXhXY.} h.Z.k.R.XXT.q.L F c k.j.q 4 , 4 4 , t.h.",
"n n n k k n 5 O.@.x tXU.+X`.hXsXnX8XD.F , L n.: 6 Z w M a..X.X.X.XXXXX.XoXoXjXoX.X@Xh. .s.s.k.Y.Y.k.Y ] M Z p.q.0 4 4 4 4 > t.M.",
"x n n k j c - D.J.F ,.f.>.| p.h.g.....L 5 B n.& 4 S w M [ ^.!.R.!.R.Y.V.Z.R.[.R.R.Y.q.w.h.M.V.Y.z.} B E C S q.9.0 , 4 4 4 : p.s.",
"k n x k j l 1 r.V.M r r p w p A i i 8 T f C x.& 5 ) A e I.hXjXdXgXmXNXsXNXm.k.m.Z.m.q.q.y.s.h.s.w.[ A B A S h.t.$ 4 4 4 4 $ a.h.",
"n n n n k R j 5 5 # 9X0X0XqX9X0X0XqX9XwX{ { K.& 6 S w A mX(.@X[.yXfXfXXXtXL.h.Y.Y.M.h.h.t.q.s.w.a.w.B Q 5 S y.i.& 4 4 4 6 & a.j.",
"n n n n x F l 7 v 1 SXCX9XAXCX9XqXZXaXGXQ } 7X$ 4 Z A Z 0X5.W.C.v.,XR.^.{.t.[ 0.[ Y Y ( ( ( ( ( ] [ B Q 5 Y z.s., 4 , 4 5 & s.k.",
"n n n n v j j j v 2 ZX-XX.9X:X-X$.=XuXNXN ( 6X$ 4 r V M 6XC.).N.K././.'.R.q 2 z h h z l 7 7 7 7 h h z B 5 V i.i., 4 4 4 4 % p.M.",
"n n J n v l j l b 1 SX9X9XZXCX9XCXqXSXDXC z.6X$ 4 S M 6 0XyXgXfX].yX!.hX].s.I.`.J.f.Z p.f.p.p.s.s.s.s.t.p.p.c.i.$ 5 4 4 4 % t.h.",
"n n J n x j j l c < FXFXFXFXFXFXFXFXZXpX#.U 6X$ 4 _ N 8 0XmX).).eXmXaXGXuXwXmXR.sX{ P.y.p.p.y.q.h.s.s.a.p.t.i.c.& 4 4 4 6 & a.h.",
"n J n x x x 2 j b g SX<X=X9X<X=X1X1X<X%.<X, 6X$ 4 _ Z e ;Xn.;X7.h.sXAXAXGX8X].D M.] `.} h.Y.m.J._._._._._.] z.c.> 4 4 4 4 & q.j.",
"n K n n x x f l c f uX#.+.<X>X=X<X<X;XO.>X> 6X# 4 q.) Z ) P O.Q A i.i.c.y.{ ] ` { 7 /.} k.Y.H.|.&X*X&X&X&XV  .c.$ 4 4 4 4 , 0.s.",
"K n n n x x 2 j F 1 FXDXNXDXDXDXDXDXNXDX<Xo.4X# $ 9.) Z u.U.U.8X8XP.8X8X8XI.7XqXuXv./.' L.H.i.nXW.N.N.'.&XV z.c.: 4 4 4 4 , 0.t.",
"n n n k x x 2 l c d DXVX|.].A.A.).A.).A.#.;X6X# 4 q.} ' } c.n.n.n.z.c.H.n.a.P.n.K.z.p.' ] [ _ D.r._ Z w.H.} c.c.$ , 4 4 4 & p.a.",
"n n n d j c j l x k eXr.6.w.N.r.r.M.k.N.h & 6X# 4 A ) ] W ( } ] Y { ] ! } Y Y ( ) ] ] ' Y Y _ Y _ ` ) ) ] } } T , 4 4 4 4 & t.s.",
"d j j 1 j c j l v x b.e._ $.pXaXpXpXpXVX! ! >X$ 4 , , 2 < 5 M M f.M 6 8 7 5 5 5 8 7 4 , , , : : : : , , & , 5 % , $ 4 4 4 & p.a.",
"s - a - j x 2 j v c ! ^ / ` $.$.D.$.$.$.#.v.4 , , , h y.t.2 B i Q.6 4 , 4 4 4 4 7 4 : : , 4 # : : 4 4 & 4 , | w C e w $ , > s.s.",
"; = - - j j j l v v c c c l q q F r S D P z , , , $ M c./.s.i. .Q.4 0 r t 6 4 u *.r 4 *.*.4 Q.J.f.8 w p 6 0 D.A ) ` } 6 0 , q.s.",
"; = - - 1 j j 7 b c F v v c ^.[. X~..X^.h v 4 : $ # 2 w w e e T U.4 9 y u 4 6 4 y p 4 &.p 0 XX{.H.4 r D.6 w h.% > , Y y u & q.s.",
"; ; - - < f 2 1 1 d j l l 7 D.D.D.D.D.D.k v , $ #   # # . .   6 G.' 9.9.9.' ' ' f.9.9.` 9.9.9.9.' ' ' f.' ` r w M P I 2 , : 0.0.",
"; - = = < f 1 0 u u 9 9 : 2 j d k j k k b c M } } } } ' t.i.y.f.d.h.d.d.d.j.n.H.j.j.d.d.d.d.j.D.d.j.H.j.H.} (  . .y. . .y.4 t.t.",
"- - - - < f % j..XT.!.T.r 2 c c b l l l l 7 l P E P P P P P / P I P I P P I I P P P P P P P P I P P L P P L P P P P P P P 3 0.0.",
"- s - - - f O D.nX`. X[.p > l l 5 2 5 2 l f # . . . . : : * : > : * > > * > : * * : : * : * * > * % > O : > > : > : * : :   } T ",
"- - - - - 2 < 5 l 7 z 8 4 > < 5 2 5 2 0 M 8 . # O # * : > > : : 1 2 2 2 > 2 > : 3 3 2 2 > 2 2 1 3 3 2 2 2 2 > 1 , 1 , 2 2 * ( l ",
"- ; = = - 2 < 2 2 7 j j j l 2 % . : # Q..XH.X . . # 4 2 > : > > l v F v F 7 F F v v v v 7 F F 8 v v v c v v b F v v v v v > ) v ",
"; + = - * 1 < 2 j 2 j 5 2 l j 3 * * : f.| `   * O > 3 > : . : > 7 l 8 b b F F l b b l b F 7 b l l l b l l l l l l b l l l O U V ",
"= - = - - 2 < 1 f 2 f 2 2 2 2 j l l j d 1 2 # # # # # . . * * # x F G G G G G G H G G H H H F G F G H H H H R F G G R F R < Q Q ",
"- = - * @ 1 > 1 2 2 1 2 3 2 f l c l x x l 2 . * . > > > > : : : c G R R E G G R H H G G G / F F F H H G G H R G G G H G H 1 I v ",
"= @ = = @ < > < 1 1 2 2 2 3 3 f 2 2 2 l 2 1 * . > . : > > : 1 > c F G F F F F F F H F F F F F F F F F G F F F F F F G G R 1 B B ",
"= = @ = * < * 1 2 2 2 3 2 2 2 < 1 2 2 1 2 * . * : . > > * : , 1 F G R G H G G H H R G H H H H H H H X.G R R H H H X.H H X.< P E ",
"= = @ = = % : 1 1 2 2 2 2 3 3 2 4 1 2 1 2 1 . : : > : > > > > > F X.X.X.X.X.X.X.K X.H H H H K X.H X.H X.H X.R H H H H X.X.1 B v ",
"= = = = * * > 1 2 > 2 > 3 1 3 2 1 1 4 2 2 > .   : : : : : : > > b F F F F G F F F G F F F F v F F F F F F F F F F F F F v > B v ",
"* = * * * * * 1 1 1 1 > 1 > * 1 1 * 1 > > * * * * * > * * * > * 1 1 1 1 < 1 1 1 1 * 1 1 > 1 < 1 < 1 < > 1 > > 1 > 3 1 1 > O 2 f ",
"* * * * * * * * * * * * * * * * * * * * * * * * * * ; * * * * * * * * * * * * * * . * * * * * * * * * * * * * * * * * * * * * * ",
"* * * * * * * * * ; * * * * * * * * * * * * * * * * * * * * * * * * * * * * * * * * * * * * * * * * * * * * * * * * * * * * * * "
};
