/* XPM */
static char *result[] = {
/* columns rows colors chars-per-pixel */
"64 64 110 2 ",
"   c #21110F",
".  c #241310",
"X  c #2F1F19",
"o  c #301D19",
"O  c #312017",
"+  c #35211B",
"@  c #3B241D",
"#  c #3C281E",
"$  c #372920",
"%  c #3C2B23",
"&  c #40251D",
"*  c #442A1E",
"=  c #492E1F",
"-  c #442C22",
";  c #492E24",
":  c #432D29",
">  c #482F2C",
",  c #453126",
"<  c #4C3225",
"1  c #46322C",
"2  c #4C352C",
"3  c #4D392E",
"4  c #523525",
"5  c #583724",
"6  c #553826",
"7  c #5A3B26",
"8  c #53362B",
"9  c #58372B",
"0  c #553A2C",
"q  c #5B3D2C",
"w  c #473530",
"e  c #4B3532",
"r  c #4D3931",
"t  c #503631",
"y  c #543C32",
"u  c #5B3E32",
"i  c #513C38",
"p  c #623F27",
"a  c #613E2C",
"s  c #613F31",
"d  c #5E412E",
"f  c #564135",
"g  c #5D4133",
"h  c #554239",
"j  c #5D4339",
"k  c #644227",
"l  c #63422E",
"z  c #6A452D",
"x  c #67482F",
"c  c #6C492E",
"v  c #70462C",
"b  c #724D2E",
"n  c #76512F",
"m  c #644433",
"M  c #6A4633",
"N  c #664835",
"B  c #6C4A34",
"V  c #644639",
"C  c #6A473B",
"Z  c #664A3A",
"A  c #6C4C39",
"S  c #714733",
"D  c #724D35",
"F  c #7A4D35",
"G  c #724E39",
"H  c #794E39",
"J  c #6E5137",
"K  c #6E513B",
"L  c #745136",
"P  c #7B5336",
"I  c #7C5936",
"U  c #74523B",
"Y  c #7B553B",
"T  c #77583E",
"R  c #7D593C",
"E  c #6D4C41",
"W  c #774F40",
"Q  c #6F5240",
"!  c #755441",
"~  c #7B5641",
"^  c #775B41",
"/  c #7C5A42",
"(  c #825636",
")  c #835936",
"_  c #885A37",
"`  c #81563B",
"'  c #89563E",
"]  c #835B3C",
"[  c #8A5D3C",
"{  c #905F3A",
"}  c #85603F",
"|  c #8C613D",
" . c #93633D",
".. c #835C42",
"X. c #8A5D41",
"o. c #856144",
"O. c #8B6243",
"+. c #8D6945",
"@. c #896549",
"#. c #87684D",
"$. c #8C694A",
"%. c #956441",
"&. c #9C6743",
"*. c #916E47",
"=. c #9B6C43",
"-. c #916A4B",
";. c #996D48",
":. c #9B7048",
">. c #8F6D51",
",. c #9B7050",
/* pixels */
"N m N A B R R L V m l l Z B m f Z m l l c m l M b k B N 8 m m N N m q L c H J d s m m m a M g q d x B B N c b S L n D x 5 d k J ",
"x l M R P X._ P N m V m l d d 0 m A M c P A M A G H H G 9 4 l L N m x P P I P d q M B D G P U 6 < q G Z l c R P I P L d < 4 x B ",
"M V B ] ` ..] ] z q 0 0 8 r 2 7 l a M D D B M A G S D B < * 9 G m m 7 b z z k l 5 Z B B B L Z 4 = 4 L M m q c c z k l 4 , - d A ",
"s q 9 A A U Y U Z 6 q d 6 8 < f V z Z B m s m M A D L Z 8 s s M a l M | F F b c q m ^ T U B U g < 0 A m V m Z U B l l 0 < 6 d A ",
"M g y V A B A U A < G U A s t y l m m N Z 9 V / ` I X...B ..` H H H D _ P c P I G p $.O...@.@./ g A M M M d 6 o.+.$.+.+.A B A B ",
"x d 6 Z K K A L Z u G ~ A s i u Z m m f g 0 m Y ` ] ( ] M ' ( ' _ ( F S S z z M a q @.` R / T T A Y G A G Z 6 R *.| } $.L N Z N ",
"B g 0 Z ! ^ L U ! u C A m V y y A l m d u y m P U ..] R B [ ' { {  .D p G A a a l l @.+.R / #.T m D D P L N 4 / +.} ] } x J L L ",
"J m d d J U L B V V m V C u , 0 U A Z B m 5 x R P ....! Z _ _ %.&.=.P d x U L B L l @.-.@.*.R U l m M M P N 7 >.+.} +.o.d J K L ",
"A V q f f N m G U Z M M u t : 8 ! A K A N 5 N T U R [ / U ] ' [ &.&.G V l G G G M 5 #.O.X.,./ A V L A B U B m #.+.+.+./ x J Z G ",
"N C u h y f m V V V Z m q 9 r 1 t 6 0 0 y 2 V ! G A U Q y q q m B G u m B A G H Z 5 / U / o.! g V M m m Z 0 g ^ T J ^ Z f B m x ",
"T L d , t e 3 2 , u V Z V m j 0 K A B G J g 0 q g g l 5 3 0 8 y 8 8 y G A G ..R A 6 Z G L U U u G V M D ! 0 < 1 w $ $ O g U L ! ",
"U T m 3 h y t i e h V Z M l y q X.X.] ] O.P < g m 0 q d f N M D A M A R D H ` Y ! s A D G G ! m G S A ~ G u t 6 0 3 1 % Z ^ U U ",
"U T m 2 i y y i r y s s M V 0 9 O.%...X.[ G > m 9 8 s 0 6 M M B l u m L L B P R W m H ! G G U g C M M P A a u q q 0 0 , V T U G ",
"! R m 2 r t f 0 w t V C G m 2 q O.[ _ [ { C o < q q q 0 2 m m m V m m D G L L Y T M G G G G ! m V M G G G d m m m l f 0 m U U A ",
"L T d 1 w w e e w t j E W V e f ] } ] ] ..m . ; m 9 6 y : 0 0 q y y V H L G H Y ] Y ....H G U g s M A G G 9 y 0 f d q g g J J Z ",
"A K 0 1 w w w e 1 < u V V y 1 0 T P Y U ~ g . 8 s 8 8 0 < y 0 < < 2 y G A G B L ..P ......~ ! f u s B a A 8 , , 2 3 u f g B V m ",
"E Z C G M s s s 8 y V u u u 2 m ` P P ` D l m L z M A m V B B B G S a Z A Z Z M m ; f f y y y 2 u a A M G 8 2 1 2 < t 2 0 V V Z ",
"g 0 G X.W H G S l m V V Z Z g m ` ] ] | ) G ] Y A L H A A Y R P ` X.B Z U G G U V $ u e w w e t V V B a s 8 9 V u 8 y 0 g N l m ",
"0 2 M ' ` ..H S M m V M G C m V L H R | ] G Y L Z z B N B T G b Y ' M A Y D D P G - h f y y i y u s M a u ; 8 V u y u 0 m l 8 0 ",
"y : 6 H s s W S M m M G H G C M R R P ] I B G U B L J N B P H B D L m C S m B B M > y i i u e 8 u M B B M 8 y u u u u y 3 q y 6 ",
"V o ; F s s F s a s M G ! W G Z H Y H R P L B B x B A g Z P D R v S Z Z B L L G m < w w r w w 1 u C C B M a u u g g f 0 1 0 f q ",
"m o 8 ` ' ( F ' M m V B A W C N B D G P P L J B m N d 0 A P G R F G G Y L L U K q 2 r 2 2 , w : u Z M a m 6 0 y y f 0 3 % < 6 q ",
"m m M S F s a F m V A U A U N m U A U R T N q g u u 7 g Z L Z m m d f A V V g 8 , V Z V V Z Z < u u m y g u j f f q 6 w X * g B ",
"` ;.` s a F s s l ] O...] U G z R T L | O.9 : 0 u V M A m R C s q < 1 0 0 0 2 , 3 R ] Y O.O...q f u s V u g ^ U H A B f O f ! T ",
"P _ B g x B M S M H P P P P Y G ] _ R ( R 0 8 m A U T ! g T D M V 0 3 0 0 8 y 8 q ` P P ] ` U l g C s M m l P U L L G B & l A S ",
"b L m g M A z B M q x B U Y G A ` ` P ( P q 7 m z S G M q L A m m u 0 y 0 0 0 0 0 R T T ` R G m M M m l s V ` R P U Y B < Z T c ",
"c L Z N M G z c B G T D L R L B ( F ( ) P 9 5 a a 7 a q q G M m m y 1 t y 8 u t 9 T G L R P L l Z M Z M m M ` _ P P R B 5 J R B ",
"N B Z l M G B B c ..X._ ( P R G P P ..] Y q g l M x M Z q L A m g 0 > 1 > 2 2 1 u ..D Y R D Z 7 m l m m g m R R Y P R B d U T P ",
"d l j B V B A K Z R | [ ..R B m L D R H D 9 d N A L K Z < V m 9 0 < : 8 7 8 0 2 q / T ..Y L A 0 s V m d 0 f / T G U T L g L U L ",
"m q g A Z U H T M c I ) ] R a q H S c S B u 4 B R O.` B < y u q 0 0 9 ! Y D H U a M Y ] ] ] G V V G G m g 0 B B G L Y S N B L L ",
"l g N K A G H D z D ( ) _ P p a D v v c D q 5 T [ =.&.O.l m B M m d s ..T ~ ` ..l A R %.] ..G M M Y H l m g A N L U D B Y T T G ",
"l d B B l x M B G D ( ) P L x 7 M S S z c 7 5 B )  . .] q u l m m d 9 G Y Y ..~ m A R | } R D M M U H l d V B l B A M A ~ ] R L ",
"S A B J B A G T L S ( _ n L M a z c S l x 4 6 J ]  .| I q s Z M Z x q S P ] ..H s G P [ ..R B m x H B z A m L A N B T B T [ ] ] ",
"] U L U U L P P L z P I P D l 8 q l a a d 4 4 c |  .[ R a M D M B q 5 A U G P G z ~ R [ [ ' D m l H D l A B U U L T T U ..;.;.O.",
"~ U B q g m A M q m D b P B a < q q 7 6 q , 6 x ] ] P L q m x l d q 5 A G B Z B u G P U F P M 5 5 M S q l u d l N N N m E / @.o.",
"A ! Z y m B M m q B P D A z a A R D Z k x d N b R I R L M H L x l q q U H G G B 2 G ! U Y L M 0 m z M m m q f f m g C j 3 E Z A ",
"A A V V G G A M z T D B M l l ] &._ P F D c } _ | } | I H Y Y B z l a R F F F F 4 S _ ] [ ) D N ^ G A U G A m V V V Z m y Z Z A ",
"L ! Z A G F M M B L M S M M Z _ %._ F H c H | | _ _ | ) c P B x l l z F b b v b 7 M Y P ) | P L I S M A M M N m m V f g 0 L T U ",
"G G V Z U Y B M M B U ` F D H L _ P L S Y ` { { { { | ) b P L B x q p z v c B D q A T L ] _ P J U B a a u u A N x l u g t V T R ",
"S U A G H F H D M B Y Y L D c c L [ ] b X.(  . . . . .| b I ) P z 7 7 G L F P Y q A R P Y R P D G A m m y 8 ! K B N m V < m M G ",
"A L G A G F H B l M H H D L c T T ] X...+.D [ [ [ _ [ [ H P ) P c q 5 m l c B B 5 m L J H L R D D G m u y 1 A A G Z V m 3 V u Z ",
"y y y 0 9 q u 9 y - Z A x B A m B S D P G m U G U L D G l B D B B l V ~ R R Y L 5 d N m B D G 4 6 8 8 < : # 3 < < 8 < , $ y 3 i ",
"e w w t y y 9 u y + U B 7 A a q m M Z A M m A H B x J c q m S B B N D %.=. .) ] m A U G T ..! 6 u d u q y ; N Z Z A B V # t u r ",
"u y u j m s m M < - ~ c q M z p z m z a 7 d B G c c B c l M G H D l B  .=.[ [ R A Y ] P ` [ ^ f m B M z s 4 ^ X.....O.o.- y h f ",
"u t y m m M m m < = R M 7 x B l M l l a z l G c D B B z M S M c c q c  .| P ) P b H ] R ` ) B 0 q x l a a < ..%.O.X.| X.< t y f ",
"i e 9 m C M M B 0 * W q 7 N B d l l l m A m P b D P B L z M M M c l G %.| I ) R B c ` P ] ) G 0 V S M B m 2 ..[ _ [ [ / t w 2 i ",
"w 1 2 u s V M M 8 & A a Z x B 9 q m l m m q Y D c S z D z s l M z q m %.| ] ` P B B H c G G Z 8 M M B M a 2 ..[ O.O.X...r 1 , 2 ",
"2 2 y M D R D H Z & ; < u 7 g 8 a z x B B 9 ! G L G G A < - - < 0 0 q O.R I ) ` L R R P I P M 0 m m l l V < G G G D G Z f f e 3 ",
"V g B } ] G c B V f 6 q 8 0 u 8 z z c S B u K T U J J J @ , t y g f d / P P ` O.Y P ] ` _ ' D M Y T z M m u ..Y R ..Y m Z ! B B ",
"A G U [ P k m B d V q m g m g < l l M v x q T P U U T T @ 8 u q q g g R L R } ..G G G L _ O.P D P I c x l l T ` ` [ [ c B P L U ",
"L Y B / L c L L N V m m m M m < x M B S l 6 U B J J L T = 4 0 0 7 7 m R U T ] P G U Y P [ R A D P L c m l l J P P [ O.D A ^ T P ",
"P L B G c H R R z m m Z m M M 2 N z z D a 7 V B B x B N * ; 4 5 q 0 d P G ` Y G B G L L L N m M F z B l q V T / P ..R H D ] R P ",
"P P K J P T ..O.D m m s M V M 9 N m z B d d B B x l x d * 0 8 9 9 9 s L D ` U L q m m m Z N l P F F F v S M L R D P P P n ( P F ",
"P T B B J P L S q 8 s D G M C < < 6 6 0 6 3 A Z m g g g @ : - ; ; ; y T Y ..H L q 0 d g d f 0 M H v F D H S B B G Y P Y T R P U ",
"L U Z A L Y B A < L ] ] U L ~ Z T R T P U 0 1 y r 3 3 2 u l x m G m g U R ] ] T m m N U A m f < M z B z z a z B B B B s N G G H ",
"L A A D P n b c 4 T ] z p x 7 a ` [ ) } } 0 , f r r e 2 Z D G P R U m P [ [ ` L B m D U B m g q A G U H z A ..] P P Y J m A B L ",
"x A B c P b S n < K T M m m 8 m Y F P D I u 2 h f t i i A z S ` R Y B P ` [ ] Y M z S H B a m Z N x B B S m m z L Y R G A M M B ",
"L U P L L L B b % 2 u g 6 y < d G Y G Y Y 0 1 e i i y w V A H ..R B M Y ` [ [ Y x a A H c z M V c B N N A l B G L T Y A Z A B N ",
"P T G D B U P P ; 3 g < 0 V m N P F H P D 3 3 3 3 e r < A R L R P Z B R P [ [ I M a M F S z G A T U U L G B ] I L L R H U T T T ",
"N m c J c J P Y ; * < ; 2 8 8 m Y G H P B 0 1 1 , 1 1 < g Z m M A l M L D I ] T l 7 M D B p A V x d M A M c O.O.[ ] R G g l a Z ",
"Z Z a L P ] I k g K N Z Z Z A y 2 4 6 q m y < < < 0 0 - 8 q m m V N l B P I d < y y 4 0 9 q < < d m m N Z M P R T P c < 8 g m m ",
"N V l L } ] ] L B I L J B L U 0 y m u q G V m a m Z N q q m m z M Z q 5 d 7 q 8 q m q m Z B f 0 d m V M N q 7 d 5 k B l 9 m m M ",
"M d m P ] | ] Y c T J U L J K g g g m z M l l a l l c u y a x B c d m c B P ] a 9 m l l z c l 6 a l B A q m A D Y ( ) S 8 a z M ",
"m g N A J R L J x B J J J m l g Z g V Z Z m z x Z B G x 7 l d V l d d B U L G s q m d m B B x q d q B x l m D G P F P B 9 l l B "
};
