/* XPM */
static char *_b37eb2775654c58e95c49b894face844VditHRfwQAGajRj[] = {
/* columns rows colors chars-per-pixel */
"64 64 29 1 ",
"  c black",
". c #010101",
"X c #020202",
"o c gray11",
"O c #1D1D1D",
"+ c gray16",
"@ c #2A2A2A",
"# c #323232",
"$ c gray20",
"% c #343434",
"& c #444444",
"* c gray27",
"= c gray30",
"- c #535353",
"; c gray33",
": c #555555",
"> c gray36",
", c #626262",
"< c gray39",
"1 c #6F6F6F",
"2 c gray44",
"3 c #717171",
"4 c #767676",
"5 c #7C7C7C",
"6 c gray49",
"7 c gray51",
"8 c gray53",
"9 c #888888",
"0 c #898989",
/* pixels */
"                                                                ",
"                                                                ",
"                                                                ",
"                                                                ",
"  999989999999999999999999999999999999999999999999999999989999  ",
"  999998999999999999999999999999999999999999999999999999899999  ",
"  999899999999999999999999999999999999999999999999999999998999  ",
"  999999999999999999999999999999999999999999999999999999999999  ",
"  999999999999999999999999999999999999999999999999999999999999  ",
"  999999999999999999999999999999999999999999999999999999999999  ",
"  999999999999999999999999999999999999999999999999999999999999  ",
"  999999999999999999999999999999999999999999999999999999999999  ",
"  999999999999999999999999999999999999999999999999999999999999  ",
"  999999999999999999999999999999999999999999999999999999999999  ",
"  999999999999999999999999999999999999999999999999999999999999  ",
"  999999999999999999999999999999999999999999999999999999999999  ",
"  999999999999999999999989999999999989999999999999999999999999  ",
"  999999999999999999999999989999999998999999999999999999999999  ",
"  999999999999999999999998999999989989999999999999999999999999  ",
"  999999999999999999999999899999999998899999999999999999999999  ",
"  999999999999999999999998999999999989999999999999999999999999  ",
"  999999999999999999999999994222221227999999999999999999999999  ",
"  99999999999999999999999999%        1989999999999999999999999  ",
"  99999999999999999999999999#        2899999999999999999999999  ",
"  999999999999999999999999  @22222&    ;9999999999999999999999  ",
"  999999999999999999999999  #99989;    ;9999999999999999999999  ",
"  999999999999999999999999;;<99998;    ;9999999999999999999999  ",
"  99999999999999999999999999999999;    ;9999999999999999999999  ",
"  99999999999999999999999899999899;    ;9999999999999999999999  ",
"  99999999999999999999999999998999-    ;9999999999999999999999  ",
"  99999999999999999999999999899899;    ;9999999999999999999999  ",
"  999999999999999999999999999989;    >269999999999999999999999  ",
"  999999999999999999999999899999;    2999999999999999999999999  ",
"  9999999999999999999999989999=#o  &;6989999999999999999999999  ",
"  9999999999999999999999998999#    699999999999999999999999999  ",
"  99999999999999999999999999<;o  %#999999999999999999999999999  ",
"  99999999999999999999999998#    89999999999999999999999999999  ",
"  99999999999999999999999922@    99898989999999999999999999999  ",
"  999999999999999999999999    #9999999999999999999999999999999  ",
"  999999999999999999999999    #9999999999999999999999999999999  ",
"  999999999999999999999999             ;9999999999999999999999  ",
"  999999999999999999999999             ;9999999999999999999999  ",
"  999999999999999999999999;;;;;;;;;;;;;29999999999999999999999  ",
"  999999999999999999999999998999899989999999999999999999999999  ",
"  999999999999999999999999899999999999899999999999999999999999  ",
"  999999999999999999999999999999999999999999999999999999999999  ",
"  999999999999999999999999999999999999999999999999999999999999  ",
"  999999999999999999999999999899999999999999999999999999999999  ",
"  999999999999999999999999999999999999999999999999999999999999  ",
"  999999999999999999999999999999999999999999999999999999999999  ",
"  999999999999999999999999999999999999999999999999999999999999  ",
"  999999999999999999999999999999999999999999999999999999999999  ",
"  999999999999999999999999999999999999999999999999999999999999  ",
"  999999999999999999999999999999999999999999999999999999999999  ",
"  999999999999999999999999999999999999999999999999999999999999  ",
"  999999999999999999999999999999999999999999999999999999999999  ",
"  999999999999999999999999999999999999999999999999999999999999  ",
"  999899999999999999999999999999999999999999999999999999998999  ",
"  999998999999999999999999999999999999999999999999999999899999  ",
"  999989999999999999999999999999999999999999999999999999989999  ",
"                                                                ",
"                                                                ",
"                                                                ",
"                                                                "
};
