/* XPM */
static char *_a273ac287c744ebd2a55d2e0092250d1yR5WGnDYmJ14D4J[] = {
/* columns rows colors chars-per-pixel */
"64 64 217 2 ",
"   c black",
".  c #010101",
"X  c #020202",
"o  c gray1",
"O  c #040404",
"+  c gray2",
"@  c #060606",
"#  c #070707",
"$  c gray3",
"%  c #090909",
"&  c gray4",
"*  c #0B0B0B",
"=  c #0C0C0C",
"-  c gray5",
";  c #0E0E0E",
":  c gray6",
">  c #101010",
",  c #111111",
"<  c gray7",
"1  c #131313",
"2  c gray8",
"3  c #151515",
"4  c #161616",
"5  c gray9",
"6  c #181818",
"7  c #191919",
"8  c gray10",
"9  c #1B1B1B",
"0  c gray11",
"q  c #1D1D1D",
"w  c #1E1E1E",
"e  c gray12",
"r  c #202020",
"t  c gray13",
"y  c #222222",
"u  c #232323",
"i  c gray14",
"p  c #252525",
"a  c gray15",
"s  c #272727",
"d  c #282828",
"f  c gray16",
"g  c #2A2A2A",
"h  c gray17",
"j  c #2C2C2C",
"k  c #2D2D2D",
"l  c gray18",
"z  c #2F2F2F",
"x  c gray19",
"c  c #313131",
"v  c #323232",
"b  c gray20",
"n  c #343434",
"m  c #353535",
"M  c gray21",
"N  c #373737",
"B  c gray22",
"V  c #393939",
"C  c #3A3A3A",
"Z  c gray23",
"A  c #3C3C3C",
"S  c gray24",
"D  c #3E3E3E",
"F  c #3F3F3F",
"G  c gray25",
"H  c #414141",
"J  c gray26",
"K  c #434343",
"L  c #444444",
"P  c gray27",
"I  c #464646",
"U  c gray28",
"Y  c #484848",
"T  c #494949",
"R  c gray29",
"E  c #4B4B4B",
"W  c #4C4C4C",
"Q  c gray30",
"!  c #4E4E4E",
"~  c gray31",
"^  c #505050",
"/  c #515151",
"(  c gray32",
")  c #535353",
"_  c gray33",
"`  c #555555",
"'  c #565656",
"]  c gray34",
"[  c #585858",
"{  c gray35",
"}  c #5A5A5A",
"|  c #5B5B5B",
" . c gray36",
".. c #5D5D5D",
"X. c gray37",
"o. c #5F5F5F",
"O. c #606060",
"+. c gray38",
"@. c #626262",
"#. c gray39",
"$. c #646464",
"%. c #656565",
"&. c gray40",
"*. c #676767",
"=. c #686868",
"-. c DimGray",
";. c #6A6A6A",
":. c gray42",
">. c #6C6C6C",
",. c #6D6D6D",
"<. c gray43",
"1. c #6F6F6F",
"2. c gray44",
"3. c #717171",
"4. c #727272",
"5. c gray45",
"6. c #747474",
"7. c gray46",
"8. c #767676",
"9. c #777777",
"0. c gray47",
"q. c #797979",
"w. c gray48",
"e. c #7B7B7B",
"r. c #7C7C7C",
"t. c gray49",
"y. c #7E7E7E",
"u. c gray50",
"i. c #808080",
"p. c #818181",
"a. c gray51",
"s. c #838383",
"d. c #848484",
"f. c gray52",
"g. c #868686",
"h. c gray53",
"j. c #888888",
"k. c #898989",
"l. c gray54",
"z. c #8B8B8B",
"x. c gray55",
"c. c #8D8D8D",
"v. c #8E8E8E",
"b. c gray56",
"n. c #909090",
"m. c gray57",
"M. c #929292",
"N. c #939393",
"B. c gray58",
"V. c #959595",
"C. c gray59",
"Z. c #979797",
"A. c #989898",
"S. c gray60",
"D. c #9A9A9A",
"F. c #9B9B9B",
"G. c gray61",
"H. c #9D9D9D",
"J. c gray62",
"K. c #9F9F9F",
"L. c #A0A0A0",
"P. c gray63",
"I. c #A2A2A2",
"U. c gray64",
"Y. c #A4A4A4",
"T. c #A5A5A5",
"R. c gray65",
"E. c #A7A7A7",
"W. c gray66",
"Q. c #A9A9A9",
"!. c #AAAAAA",
"~. c gray67",
"^. c #ACACAC",
"/. c gray68",
"(. c #AEAEAE",
"). c #AFAFAF",
"_. c gray69",
"`. c #B1B1B1",
"'. c #B2B2B2",
"]. c gray70",
"[. c #B4B4B4",
"{. c gray71",
"}. c #B6B6B6",
"|. c #B7B7B7",
" X c gray72",
".X c #B9B9B9",
"XX c gray73",
"oX c #BBBBBB",
"OX c #BCBCBC",
"+X c gray74",
"@X c gray",
"#X c gray75",
"$X c #C0C0C0",
"%X c #C1C1C1",
"&X c gray76",
"*X c #C3C3C3",
"=X c gray77",
"-X c #C5C5C5",
";X c #C6C6C6",
":X c gray78",
">X c #C8C8C8",
",X c gray79",
"<X c #CACACA",
"1X c #CBCBCB",
"2X c gray80",
"3X c #CDCDCD",
"4X c #CECECE",
"5X c gray81",
"6X c #D0D0D0",
"7X c gray82",
"8X c #D2D2D2",
"9X c LightGray",
"0X c gray83",
"qX c #D8D8D8",
"wX c gray86",
"eX c gray87",
"rX c #DFDFDF",
/* pixels */
"j       n & R n F 0 n     ; & #   2 0   ;               L   a &.  &.  F   6   3.      (   a   n       n ' L   y     =.  +.L 0 > ",
"' j C C F >   +.a >     L j l.  R >.  F +.  &   d   # G             d.      3.a    .C.# 2   0 d.d ;   =.  2 ;   ( ; 6 > 3.2 }   ",
"C +.>   v     !   & 2 C R   n 6.y   & a n 2   &     c.! 6.    L L s.n   *X  &.2     G   F =.; j j #   j C   >   j L # =.> > n   ",
"; ; 2 d   6.     .  C   G ' v +.' a   L #   j   J.  6 y !   } j 0 w.  & a # d 2 !.d &  .v         +.  n     a ( d     n         ",
"  ( 8Xn.d.I.6.r.*Xn.C.F.d.+.r.&.T.[.3.c.6.OXd.c.w.s.C.!.r.I.F.F.=.J.n.d.&.C.3.[.n.c.n.J.l.OX>.w.[.s.T.} T.].I.[.].F.>.!.c.l.j   ",
"  C n.I.C.d.*XF.J.^.oXT.T.C.J.F.d.F.;XT.d.c.OXOXs.F.J.6.&.c.n.C.F.s.rX .c.T.I.F.F.I.l.C.w.^. .8X].>.n.T.C.d.I.;X!.n.].s.C.J.C +.",
"y   J.C.3.s.s.C.n.].F.;Xw.I.c.*XF.l.I.c.J.+.} s.C.l.&.n.l.&.d.].r.n.OXC.s.T.^.F.].s.r.I.=.J.!.T.=.I.+.C.C.w.!.I.J.qXF.I.].w.+.  ",
"    !.].J.T.c.n.I.+.c.C.!.d.I.d.s.d.n.].6.J.w.[.I. .c.r.w.J.F.d.( r.I.F.^.F.T.l.=.F.n. .T.>.F.+.3.s.^.w.l.3.^.' 6.w.I.w.F.I.    ",
"    T.*XJ.!.J.d.*XC.' n.!.F.w.n.>Xl.d.[.6.r.&.^.C.F.r.d.J.].s.F.T.r.I.3.I.w.oX].l.C.l.C.F.I.n.I.6.J.c.T.I.!.J.C.F.n.l.n.3.I.&   ",
"L ; c.F.w.J.6.F.=.!.!.^.n.&.w.d.C. .=.I.C.s.F.F.c.F.].^.s.' T.>.s.d.n.! I.F.>.I.c.[.l.w.>.I.J.w.l.n.!.C.s.l.^.T.;XT.C.&.J.c.a   ",
"  ( ].C.!.3.F.+.3.I.+.^.^.l.F.T.! l.OXn.d.+.T.>.n.].n.n.^.!.=.OX6.].T.&.s.c.n.^.s.3.w.n.=.C.J.s.T.J.J.n.w.6.w.C.&.[.' T.>.I.+.  ",
"d C l.^.c.I.c.>.l.].6.8Xc.s.r.I.l.' s.d.n.>.OXl.^.3.r.T.c.l.w.l.6.r.+.!.d.^.n.n.C.J.=.w.w.].F.J.].c.&.I.I.].J.F.I.C.[.l.n.].L r.",
"  ; n.d.C.l.d.;X!.w.T.].T.C.T.C.! I.>XJ.+.F.n.^.>.w.T.T.n.3.=.l.w.T.I.C.T.!.T.>.w.].8Xn.d.I.6.w.*Xn.C.F.d.+.r.=.T.oX>.c.6.OX  ; ",
"& > c.!.c.I.^.C.[.l.s.( 6.T.w.C.J.r.T.c.C.C.n.I.T.l.l.s.l.^.c.l.n.+.oXJ.s.+.l.[.r.T.C.oXn.n.c.r.&.d.s.d.=.6.F.C. .c.w.J.r.w.    ",
"& n r.' d.T.T.J.I.5Xd.].n.d.F.n.c.J.d.w.d.w.=.l.6.6.F.c.l.F.n.].n.!.l.d.F.6.5Xr.C.3.d.C.c.c.l.l.s.3.[.n.F.C.!.c.*Xl.n.>XF.l.d   ",
"  & I.( T.r.C.n.J.I.=.3.>.} l.T.T.r.F.!.n. .r.J.w.w.6.=.OX3. .c.].c.w.l.+.d.d.F.T.F.s.I.J.r.F.c.F.!.d.r.d.T.[.C.F.s.n.3.w.^.    ",
";   F.w.T.F.s.T.n.I.C.d.*XF.J.^.OXT.T.C.J.F.d.F.;XT.d.c.OXOXs.F.J.6.&.c.c.C.F.r.rX .c.T.I.F.F.J.l.C.w.^. .8X].>.n.I.C.l.I.;XG ; ",
"  6 c.].F.;Xw.J.l.OXJ.l.I.c.J.+.} s.C.l.&.n.l.&.d.].r.n.OXC.s.T.^.F.].s.r.I.=.J.^.T.=.I.+.C.C.w.!.I.J.qXJ.I.].w.[.l.J.[.F.l.R n ",
"0 # w.c.s.r.[.T.s.d.*XC.T.n.F.!.J.*X .^.n.C.r.>.s.6.s.d.l.c.n.d.n.I.!.I.c.n.3.I.3.l.I.>.r.J.>.d.s.l.C.F.n.*X+.;X].>.;XT.F.F.j } ",
"    I.F.l.c.J.s.l.C. .I.r.d.s.].].d.C.].I.s.].I.T.d.l.=.d.F.l.s.J.F.' F.n.>.C.c.( ].qXI. .&.d.C.I.T.l.].5Xl.C.;Xw.w.w.+.T.c.; y ",
"  3.[.oXl.T.r.F.oX} F.J.^.F.J.].6.F.3.T.6.! c.F.F.d.I.C.c.[.n.6.s.=.6.>.].w.F.].F.c.r.r.n.l.&.l.T.c.[.n.n.n.n.6.n.I.w.n.I.!.2   ",
"#   [.(  .l.l.T.s.C.w.F.].w.F.F.3.c.=.w.[.c.&.^.d.d.>.s.>.c.n.+.&.d.n.s.w.w.3.6.n.d.=.5XoX^.F.^.C.^.c.].s.s.w.F.l.' s.T.oXC.  L ",
"  =.d.J.c.&.d.OXJ.6.n.n.J.I.l.6.J.w.].n.' T. .n.;Xd                         j s.I.6.} J.s.s.d.&.c.].[.*X3.6.3.F.;XF.l.n.OXw.& F ",
"  j C.n.I.=.C.F.&.^.F.w.OXr.!.C.;Xc.l.oX!.n.s.[.n.j                         j ;XT.l.oXd.].C.C.3.l.].r.3.C.r.[.!.l.!.^.n.].l.    ",
"  2 3.[.n.c.n.J.l.OX>.r.[.s.T.} T.].I.[.].F.>.!.c.6.s. .^.} w.=.        ! I.3.c.F.c.J.n.qXJ.c.[.I.>.>.w.=.[.d.I.w.s.F.^.J.R   n ",
"  n J.d.c.5Xn.C.I.[.n.l.s.F.3.d.n.!.!.].T.T.n.>.c.l.;Xc.n.J.].r.        3.6.[.I.d.oXs.c.F.oXn.n.&.s.T.J.OXF.c.F.T.&.n.l.s.l.  d ",
"    c.I.>.I.d.J.[.l.s.w.c.c.C.*X8XF.F.F.w.3.n.l.>.!.L s.F.&.G y     ( +.6.F.w.T.c.].s.J.I.l.w.>Xr.F.I.F.T.n.r.^.OX!.d.d.F.3.0 } ",
"    w.s.6.w.].[.I.n.T.T.I.I.C.F.J.^.c.l.[.I.r.l.s.s.r.l.n.R         w.l.l.} n.n.d.C.l.d.>X^.r.T.^.T.C.!.n.R I.>XJ.+.F.n.^.=.  F ",
"    T.n.F.l.n.C.>.c.c.n.c.!.n.I.^.C.[.l.s.( 6.T.w.C.J.3.l.R         >.3.r.s.d.^.c.l.n.+.oXJ.s.+.l.[.r.T.C.oXn.n.c.r.&.d.s.d.    ",
"> ( ^.F.s.w.5Xd.r.].J.qXw.I.T.d.I.C.F.;XF.T.T.C.C.I.c.=.                3.r.6.J.J.n.l.!.6.^.^.d.C.c.[.l.r.( ].F.F.C.C.n.oXT.    ",
"    =.OX3.} c.].c.w.l.+.d.d.F.T.F.s.I.J.r.F.c.F.!.d.r.'                 >.3.d.d.F.F.s.n.n.d.[.F.&. .l.6.w.n.( 3.I.I.l.I.C.c.n   ",
"; # d.} c.n.d.C.l.d.;X!.r.T.^.T.C.!.n.! I.>XJ.&.F.n.^.+.&.l.l.w. .L         C T.!.T.>.w.].8Xn.d.I.6.w.*Xn.C.F.d.+.r.&.T.[.>.&   ",
"    c.>.3.I.c.T.J.n.s.( F.c.6.c.s.s.[.T.s.d.*XC.T.n.F.!.J.OX .^.n.r.        v l.l.c.C.d.n.I.!.I.c.n.3.I.6.l.T.>.r.I.>.d.d.d.2 y ",
"G ; J.J.6.c.F.n.=.[.l.r.F.w.l.J.r.s.r.5X>Xc.].T.r.} c.n.!.[.n.>X6.J.        j F.oX} C.I.!.F.J.].6.F.3.T.6.! c.F.F.d.J.C.l.[.;   ",
"C.  3.T.! !.J.6.!.C.=.F.J.l.].C.d.c.&.J.l.c.C.=.>.+.I.d.=.T.n.F.l.6.        n c.!.c.I.^.C.[.l.s.( 6.T.w.C.F.r.T.c.C.F.n.I.T.  # ",
"=.  [.!.C.n.6.l.[.r.c.s.r.!.[.J.T.c.n.J.+.c.C.!.d.I.d.s.d.n.].6.J.&.        j w.F.F.d.( r.I.F.^.F.T.l.=.F.n. .T.>.F.+.3.s.^.    ",
"y 2 ^.>.w.T.T.n.3.=.l.w.T.I.C.T.!.T.>.w.^.8Xn.d.I.w.w.*Xn.C.F.d.+.=.        n 6.OXd.n.w.s.C.!.s.J.J.F.=.J.n.d.&.C.3.[.n.n.n.d   ",
"  ( ^.!.l.J.F.3.n.C.^.I.F.d.3.d.C.( n.].w.l.s.F.s.C.l. .T.F.C.=.l.3.        y J.J.l.c.l.F.oXC.I.s.oXl.l.8Xw.n.=.T. .T.l.I.F.  C ",
"a G ! l.OXn.d.+.T.>.n.].n.n.^.!.=.OX6.].T.&.s.n.n.L     w.n.>.C.J.=.        j 6.w.C.&.[.' T.>.I.[.6.n.w.T.c.n.!.s.n.T.^.c.c.  & ",
"& +.n.C.n.n.6.c.I.w.n.T.!.C.s.F.3.l.I.!.l.J.l.r.J.G     3.T.! !.J.+.        F d.].C.d.c.&.J.l.n.C.=.>.+.I.d.=.T.n.F.l.n.C.>.& & ",
"  > F.l.!.F. .s.F.+.T.l.6.c.F.C.c.s.J.C.d.C.;Xw.6.=. .L                 ( T.6.[.[.J.} ^.r.+.J.} oX3.c.>XC.T.;XT.C.=.s.6.].=.R   ",
";   !.F.c.c.=.F.w.n.T.c.d. .C !.c.oXF.!.r.^.r.!.r.*Xw.!                 } 6.=.d.T.].d.F.^.r.n.( n.s.!.6.6.d.C.n.!.F.C.c.3.c.  n ",
"  v 6.w.*Xn.C.F.d.+.r.&.T.oX>.c.6.OXs.n.w.s.F.!.r.I.J.s.G +.} ( G  .L 3.6.n.n.J.l.OX>.r.[.s.T.} T.].I.[.].F.>.!.c.l.J.3.8X>.6 y ",
"d L T.=.T. .F.C.w.!.I.J.qXF.I.].w.[.l.J.[.F.l.^.I.n.C.!.^.T.l.l.&.>.C.c.w.3.d.C.^.I.c.F.c.d.C. .;Xc.r.J.3.+.s.l.>.I.l.F.c.0X} # ",
"! ( 3.].! =.d.l.n.6.^.6.T.I.s.J.6.r.].C.s.J.d.6.>.oX .+.!.C.I.6.w.J.>.l.r.r.J.].T.F.c.F.F.c.J.J.J.c.!.C.d.T.n.J.J.6.c.F.n.>. .  ",
"; 0 w.].6.r.s.].I.r.oX!.].d.>.!.d.&.s.c.I.( T.r.F.n.J.I.=.3.>.} l.T.T.r.F.!.n. .r.J.w.r.6.>.OX3. .c.].c.w.l.+.d.d.F.T.F.s.I.j   ",
"    =.l.w.6.F.c.d.F.c.[.n.^.l.d.F.6.5Xr.C.3.d.C.c.c.l.l.s.3.[.n.F.C.!.c.*Xl.n.>XJ.l.J.s.&.[.>.=.n.6.c.+.r.].d.J.r.C.n.F.C.c.6   ",
"  L ].F.>Xd.[.[.J.} ^.r.&.J.} oX3.c.>XC.T.;XT.C.=.s.6.].=.!.l.l.c.].n.w.3.l.C.].l.6.T.s.].l.J.T.c.l.l.!.c.R F.F.} !.} w.F.[. .  ",
"  0 J.s.T.J.J.n.r.6.w.C.&.[.' T.>.J.[.6.n.w.!.c.n.!.s.n.T.!.n.c.s.c.n.C.r.!.n.*Xn.' d.d.J.n.*XC.d.s.T.J.n.w.!.I.c.d.6.C.>.>X  R ",
"  G n.l.J.>.s.3.C.J.n.3.].!. .!.T.w.].OXr.n.6.l.l.^.^.F.F.c.s.c.].3.l.c.c.!.&.I.^.J.n.d.s.].>.n.s.>.T.c.T.J.n.d.s.T.c.n.l.F.G   ",
"G 6.l. .n.l.F.F.r.^.F.I.T.C.w.oXoXJ.n.!.^.d.I.6.F.r.+.F.d.3.T.F.6.F.oXF.w.F.C.d.6.T.J.3.n.c.I.( >.^.T.!.^.T.l.T.^.!.C.].r.d.R v ",
"    d.F.I.5XC.d.C.n.l.C.+.J.l.F.n.n.c.OXOX} n.T.!.=.J.C.6.I.OXI.].c.w.T.F.I.c.].].! ].n.].d.n.F.l.!.F. .s.F.+.T.l.6.c.F.C.c.  j ",
"    *Xd.l.r.T.F.I.s.w.} s.!.T.n.n.F.>.F.&.d.n.n.l.J.n.c.oXl.d.>.} ].T.n.r.C.6.F.6.s.6.T.I.+.!.J.+.C.&.=.F.c.r.w.T.T.!.n.!.c.  0 ",
"} R F.s.6.C.>.d.n.F.n.^.I.l.s.c.c.c.I.r.( d.T.T.J.I.5Xl.].n.d.F.n.c.J.d.6.d.r.=.l.w.6.F.c.l.F.n.[.n.^.l.d.F.6.5Xr.C.3.l.C.c.#   ",
"    F.T.5Xn.l.C.n.c.C.+.J.l.F.n.n.c.oXOX} n.T.!.=.J.C.6.I.oXI.].c.6.T.F.I.c.].].! ].n.].l.n.F.l.!.J. .s.F.+.T.l.6.c.F.C.c.s.j 6 ",
"(   d.!.I.!.C.oXd.oXI. .s.+.J.w.n.;Xc.} s.].l.' n.F.c.>.^.].C.!.3.C.+.>.I.+.^.^.l.F.T.! l.OXn.d.+.I.>.n.].n.n.^.!.=.OX6.].T.    ",
"2   6.].J.T.>.6.].n.>.d.w.6.T.J.l.6.T.&.J.&.>.J.s.C.C.C.=.=.=.].n.l.J.n.n.J.n.n.d.J.6.I.w.[.I.F.!.>.oXI.s.n.[.^.J.c.!.T.[.T.  F ",
"6 G 3.C.+.3.I.+.^.^.l.J.T.R l.OXC.d.+.T.>.C.].n.n.].!.=.OX6.^.T.&.s.n.n.].s.3.w.n.>.C.J.s.T.J.J.n.r.6.w.C.&.[.} T.>.I.[.6.n.  G ",
"! } 6.T.T.l.!.w.=.I.T.&.n.T.J.].;XF.c.I.! ^.I.d.*X>.F.!.*Xc. .n.l.F.F.r.^.F.I.T.F.w.OXoXJ.n.!.^.d.I.6.C.r.+.F.d.3.T.C.6.J.oXy   ",
">   J.!.l.oXn.n.T.6.F.l.l.w.F.c.n.I.^.oXT.C.C.F.*Xs.&.3.c.>.' l.d.[.C.3.T.s.n.s.F.;XJ.T.C.d.*X+.=.OXc.!.F.6.^.6.r.[.=.d.3.r.!.R ",
"  C C R ; L #   0   2                 0 2 6 ;   !   >   # v     2             y   =.  j #     3.v   ; 2 j n     j   } >   C   ; ",
"# 0 # I.} # a F F ( 0   # L   > F r.    6 2         #   n >   2 a   w.# ;   v +.; 2 a G       & F   > >   6   G >.  d n.> j } # ",
"C     & y 0   j 6    .;           '   y } a ;     >       F # +.> 2 > >   ; n   2 n G 2   a     n L   d     j R C.    G   L j   ",
"=.  y   j 2       6 ; ( y r.  j   6.a   n & d       6     >       }   > >.6   C ! y (     n   d R F   C   0 0   R v d ].d v '   "
};
