/* XPM */
static char *result[] = {
/* columns rows colors chars-per-pixel */
"64 64 136 2 ",
"   c #1F1327",
".  c #13132D",
"X  c #1C122A",
"o  c #161C2D",
"O  c #191C2E",
"+  c #181332",
"@  c #1A1E31",
"#  c #171C39",
"$  c #1A1A3A",
"%  c #241627",
"&  c #261828",
"*  c #172036",
"=  c #1C2134",
"-  c #1F2338",
";  c #222436",
":  c #23263A",
">  c #2B253C",
",  c #25293D",
"<  c #2B2B3E",
"1  c #322E3D",
"2  c #33303F",
"3  c #422435",
"4  c #43363E",
"5  c #533D3E",
"6  c #222442",
"7  c #262A41",
"8  c #2C2D42",
"9  c #2C2F48",
"0  c #302F42",
"q  c #2E3044",
"w  c #2E3249",
"e  c #333245",
"r  c #3A3545",
"t  c #3D3846",
"y  c #34354A",
"u  c #393649",
"i  c #36394D",
"p  c #3C3A4C",
"a  c #363A51",
"s  c #3D3D51",
"d  c #423745",
"f  c #423A46",
"g  c #4B3D44",
"h  c #403748",
"j  c #423D4B",
"k  c #4A3E4A",
"l  c #513E42",
"z  c #503F49",
"x  c #403F51",
"c  c #3F404F",
"v  c #3F4154",
"b  c #4F4046",
"n  c #44404E",
"m  c #4B424D",
"M  c #534145",
"N  c #5C4647",
"B  c #53444C",
"V  c #5A464B",
"C  c #5C494C",
"Z  c #434253",
"A  c #4A4553",
"S  c #4E4955",
"D  c #454659",
"F  c #494758",
"G  c #4C4959",
"H  c #524651",
"J  c #544A54",
"K  c #5C4D54",
"L  c #544D5A",
"P  c #5C4F59",
"I  c #5E5257",
"U  c #55515E",
"Y  c #5E515A",
"T  c #604546",
"R  c #664946",
"E  c #634A4B",
"W  c #6B4C49",
"Q  c #71424D",
"!  c #734F49",
"~  c #73534F",
"^  c #7B554E",
"/  c #624E53",
"(  c #625256",
")  c #6A5253",
"_  c #6B565C",
"`  c #6C5A5D",
"'  c #765450",
"]  c #7A5757",
"[  c #735855",
"{  c #785856",
"}  c #735A5A",
"|  c #7D5D5C",
" . c #6F655C",
".. c #555262",
"X. c #6D5B60",
"o. c #7D5E60",
"O. c #776566",
"+. c #7B6162",
"@. c #7A726F",
"#. c #7C6B73",
"$. c #7E7274",
"%. c #804E48",
"&. c #8D554B",
"*. c #855D55",
"=. c #8A5F54",
"-. c #825E5A",
";. c #85635F",
":. c #8C635C",
">. c #936558",
",. c #8C6761",
"<. c #906761",
"1. c #906862",
"2. c #986E67",
"3. c #996F68",
"4. c #977C60",
"5. c #9C706A",
"6. c #83737E",
"7. c #957E71",
"8. c #A47362",
"9. c #AD7363",
"0. c #878278",
"q. c #B5A17E",
"w. c #907983",
"e. c #92808D",
"r. c #978390",
"t. c #9A8490",
"y. c #CEB087",
"u. c #CBBF9E",
"i. c #FACC8C",
"p. c #FFD186",
"a. c #FFDA89",
"s. c #FFDE90",
"d. c #FDEFA9",
"f. c #FFFFCD",
"g. c #FFFFE4",
"h. c #FFFFF6",
/* pixels */
"O o o o o o o O O O o o o o o o O o o o o * O = = @ = @ * O = = = o O O = O O = @ O O o o o o o O O o o o o o O O O o o o o o O ",
"O = O o o o O O @ O O o o o O O O o o o o O @ @ @ = = = = = = = = = = = = = = = = O O O o o o O @ O o o o o O O @ O o o o o O O ",
"o O o o o o o o o o o o O O O O O O o o o O O O * = = = = = * # * * = * = = = = = O O . o o O O O o O o o o o o o o o o o o o O ",
"; : : ; ; ; ; ; ; ; ; , ; ; ; 1 : ; > > ; : : ; , , q - . X   % % &   + # # , , : ; > - : < ; > 1 , : ; , : ; - ; ; ; ; ; ; , : ",
"q p u < e y e : e e e q 2 e e q 8 e m h y p r h t 2 0 J $.$.w.t.w.w.6.O.0. .> r 0 r r r t m e < 2 e e q < e e e : e y e 2 q c < ",
"y v p 8 p v y < u u u e t m p 2 0 r h f z k z P m 1 u C u.g.h.h.h.h.g.f.d.4.> p j A z H f h r 1 2 p m u e p r r 2 y v p 2 c v y ",
"Z D s e v F p t c c m n S S A n H j 0 j O.X.X.X.B k I B B 7.y.p.s.s.i.y.{ 8 f B J X.` O.j 1 n S n S S F n m c c u p F c q c v v ",
"p p u 8 u Z p t p t p p n n m S J k r h ( ( K H k k m J B 1 3 %.&.&.Q 6 9 f r p k K K ( d r m J m m n n c p r p p p Z t q e c c ",
"y u y 8 y p y e t r u r r 2 f n t t h t k d d k M g n 2 g B B M A V V [ { C l W E d g k h h r f n f r r r u e t r r s u 8 u u e ",
"j G Z p D G Z t n Z n n A A A B m k H B / B z _ _ V I m V | | *.-.:.-.>.8.^ W :.-.k z K H H m m m m m A n n F j y Z G Z p Z G p ",
"y x p t Z v t e u p r t f f t f f k f j H z k V B g 5 N N R W R T W R T E l g B V k z H j f j h f f f t r r p r e p n Z u u x i ",
"j y s j Z Z j p n A t 2 m n t m K k r M ) / ) E V ) :.R ! >.=.^ W =.>.! R *.W C / ) ) ) M r m C m t n m r t A Z p p Z Z j x y x ",
"x u x x F A p u n S f 2 S m t m J g r m ) ) [ / V E ~ R W =.^ ! W ] =.W R ' E B / [ ) ) M u m J m f m S r t A j h j A x x x p x ",
"r j h e p Z j r r p f r t n m m f t f g b M B B l g M N N M W 5 4 W l N E M g M z B l b g h t f j m j t t h t u r x x j r u j r ",
"x U F j S ..G n n S L S n I ` I B J ( I I C ( ) ) ) | 1.;.~ 9.^ l 9.' ;.,.| ) ) ) ( K I K I J B I ` Y j A J S A x L ..G j F U x ",
"j p r y p n p r t u f 2 2 t n n f f g g m m B B M g M B M g E M 4 W l M V l g z M H m M g g f f n k j r e t t t r u x h y y p j ",
"p y j r r r u u r t e 2 c c r r t 2 f g J B k m m k V E C ) W W ) W ) E E C g m m k B K g 4 r t r r p p 2 e t r r u r e u p r u ",
"j r x j y h j j t n c r n c r f n f f m K B m m k g V C V / E E W W / M C V f m m k B K m f f j f r c n r c n c c c p r c Z u p ",
"r x h y p j p r u c t r p n r t m f f M H k k B k f M C M M N g 2 E l B C m f m B m m B M j f m t u j p r u c r 2 p c t r p n u ",
"G U G x G L F j n G A A S J J J I J ( _ } / [ +._ ( o.3.1.] 5.{ l 5.] <.3.| / ` | _ / _ _ Y J I J J J J A A S Z n A U L m F U S ",
"p j j u Z Z t e u n p f n j j m m f m B J B B / B g M C C M E M d E M C C b f B K C B H m m f m m n n j f n c r e t Z Z r p c p ",
"p p t u t p u e t u u p p j j p t e r r j k j m g m A m m B b J ( M B m m m m g m j j j r r u t t j j u u r t u e u t t r p p t ",
"j Z n p p p t t n p p j j A A m n n j h A A A B k m K K K K C ( ) K I J K K m k m m m A f h n j m m S c c t p n t t p j j x Z j ",
"t p r e u r r q 2 r u r e u t f r r h f f h h h t r j f f f m m f g f f f f r t j f f f f t r t p t r r u r r e q e r r 0 r p p ",
"Z Z p p x x x 0 y x x x p s Z Z u 1 m S j j A L Z t B L B k Y J H Y m m J A t n L S j f S m 1 r m n j p Z Z p e e t Z D p p Z Z ",
"j s i i x x p e 0 p p s p p n n r 1 n n h r j m u 1 f j r d m m f m 4 t j f 1 r Z p r t n c 1 e c Z s p p p p e e p p s p i j s ",
"y p p i p p h y p y 8 y u y t y e 2 2 e p t p t r r t j p j j f f j j p p u r e t t r t 2 2 2 r e t u e e 8 e p e p p i i p p u ",
"p F x x y x x x G x 0 y Z p s p p p 2 r n Z j n p p m F S A A A m F m F S m j t n c c n e 2 p p p p p s i e Z G v v s p x D Z a ",
"y j u 9 u u y e u p e e e y t y e u r 2 t e p p r 2 e 1 r f p f f p j t < e 2 r u t r t q 2 r e u t e e e e p u 9 u p r 0 y j y ",
"x x h h G x x p s D x p 8 u D Z u t v n Z p Z Z Z Z u r S P J J U J P A 2 j Z j Z n p c c c u r Z Z r q u x Z s r x F x p p F x ",
"x x e e x x y y i p u y 8 u t t e e p p p u p p u u e r j j j j m j m h r e e t t t r t t p e e u p e q y y y p y p x x r r x h ",
"e e e e u u 0 9 0 y 0 y u u y y u e y e t t t j e u A j k A A h t m n k j n p e c u u u e e e e r y y e r 0 y y 0 0 e y 0 y 9 0 ",
"p p x p p v i p p c p c Z v v v v Z x Z A F F S j j L J U J I m h Y J U J J j p A A n n c c c c c c c Z c y c p u c v p p v p p ",
"y p u e e i u q q q q q y y r r e e e t t u u p r 0 p c n n m p t j p j n t 1 r t t r u e 2 2 e q e p e q 2 q q q q r e q r t y ",
"Z D y e s Z p u c c c y p v p i t q e p p y p j j x n m m Z A S A A m m n p p j t r e e c 2 2 y q c c i y c c i u c c c e u D v ",
"D x u e s Z s e i i p i r v p p p e u p p p p s j p p n m m n n m n n n n j t h c c u c c 2 q c c u c y q y c c e c v c e i Z Z ",
"0 0 y 0 e e e q y e q < q y q e r e q q e u e t u 0 r u r e t r 2 t 2 r r 2 2 r c 2 2 < < 2 q 2 2 < q q < 2 y q 0 0 y 0 8 e 0 0 ",
"s y s a s v i u v c e e i s i y c s r e p Z n Z s u u Z c t F m t A u c n r e c c c c c 2 e c c q i y c w q c c u i x p s s u s ",
"y 0 y 0 y y e < e q q q q e q q q e q q e y r e e e 1 e r e r r 2 r 2 r 2 2 2 q q 2 c e 2 q 2 q 2 2 q w 2 < q q 8 e i y e i e e ",
"0 y i 0 y i i < < q < q 8 8 y y q < < 2 e e e e 8 8 < 1 e e q e r q e 2 < < q < 2 2 < 2 2 , , , y q 2 < < < q < 8 u i y 8 i e 0 ",
"x x x a x D D y i s s s e y v D c q p i v c c v u u q e t t y t u c u r 2 q q y c c u c c q 2 c v c e e p i p y y Z D v i v s s ",
"e y y 0 a p y 0 8 8 8 8 8 q q y y q q q r q q e y 8 8 8 e q 2 r e 2 2 2 2 , 2 q 2 < 2 e 2 q q q q 2 q q 8 8 8 q 8 y i u 0 u e e ",
"y i y y y a a y i u 8 8 i y 8 e p w < y p e 2 y e 8 e s p e e Z Z q q c c 2 2 q e < q c e < q y q < y y < 8 e i e a i i y a a y ",
"y i a y u y y y i y 8 8 y e e y p q q q i e q q 8 < e y y e < j c < 2 q y 2 : 2 q 2 2 q 2 , q q e q e q < < u i q e i e y i y i ",
"y w 8 8 y a 8 6 8 8 8 8 8 8 y q e 8 8 8 y q e q 8 < 8 e e r e 2 2 2 e 2 e 2 , : 2 2 2 q , , 2 2 q q < < 8 < 8 8 8 8 y y 8 8 y e ",
"x s e 0 x D a 0 e s i i y w s s i i e u s s t u i p v s n F Z u r Z Z c c c c y y y y c 2 e e c c p y q y p i e 8 a D x 8 0 s D ",
"a y 8 8 y a y 8 8 w w 8 8 q q e e w q 8 e e 8 8 q q q q e r u < < y r 2 < 2 < q < < q q 2 2 q q 2 q 2 < 8 8 0 9 8 0 y y 8 9 i a ",
"9 0 9 0 8 9 0 8 8 8 8 < q q 8 8 8 < 0 0 9 e 8 w < 2 e e q q e e 2 q 2 q q 2 < < 2 < q 2 q < , , < < q 8 , 8 8 8 8 8 0 8 8 8 8 0 ",
"y 9 y y 9 u y e p y 0 8 y 0 y i 8 0 i a i y i i y 0 u i u e u u e r 2 r y r 2 q c y 2 q y y 2 q w y q q < q y i q i y q y y q q ",
"8 0 8 8 9 y 9 8 9 9 7 > 8 8 9 e 8 8 8 0 0 8 9 e 0 8 < < 8 8 8 e q q < < , , < < < 2 < < < 2 , < w q , 2 , < q q < q e q < q q 8 ",
"y x y 8 x x 0 8 y 0 8 0 e 0 a i y e 0 8 y y i y y s 0 1 p s p p y c c u 2 2 p y q y e c 2 < q w w y q q q < q w q q v v 8 e v u ",
"9 y 8 8 a p 8 8 8 8 6 8 e 8 8 9 8 8 8 8 e e e e 9 e 8 > 8 u e e 2 q q 2 , < q q 2 q e w , < < 8 q 2 < q < , < , < < i p 8 8 a 8 ",
"y 9 9 9 9 e 9 8 q w 8 8 9 8 8 e 8 8 9 8 8 e y 8 < 8 y 0 0 y e e q e r 2 q e < , 2 8 8 < < q < 2 q < , 8 , q w 8 8 9 y 9 9 8 8 y ",
"x y u x u u u 9 y a a y a a a a a e a u y i p i 8 8 a u i j j p t c p y q i e 2 y c y y y y w y y c i c w y c w 0 y i i s s y s ",
"9 9 0 9 9 9 9 8 8 w 8 8 8 w e w e 8 9 8 e e q 8 8 7 8 0 0 < e 0 2 2 2 < 2 2 , < < q q 2 < 8 8 q 8 q w < 8 q w 2 7 0 e 0 0 9 9 e ",
"y x y 9 y x y 9 w y 9 8 8 y e q a y 7 8 a w 8 y y e 0 s y 0 p u y v q e c q q y w < y y 8 < w w 8 w y < , w y w 8 y a y 9 a s 0 ",
"8 a y 8 e i q 8 q w w , 8 y q y a w < 7 y y q q 9 8 8 s e q y e e y 8 e p 8 8 0 w 2 w y < < w c q q q 8 , q w 8 7 e y y 7 y s 8 ",
"8 8 8 6 7 w 7 : , 8 7 : 7 8 , < q 7 , 7 8 7 7 8 8 < 8 8 q < < 8 q < < 8 8 < , 8 , < < 7 , , , 7 < < < < : 7 8 7 : 7 9 7 6 0 8 8 ",
"a i w y a a y 8 w a w q q w q q q 7 w w w w w y y w e a i y w y i e y i i 9 e y y w w w q q q q q q w q 8 y a w 8 y a i y w i i ",
"7 9 8 7 8 w 7 , q w 7 - 7 q 7 7 7 , , 9 7 , : 8 8 , : 7 8 , < < < , 7 8 8 : : 8 < , - 7 7 , - 7 7 , 8 7 : , w 8 : 7 y 9 7 7 9 7 ",
"6 8 9 $ : w 9 , 7 q , : q 7 7 7 8 - : 7 7 : : 8 6 , 8 7 7 w i q - a q , 8 7 7 , < , - < 8 , - < 7 7 q q : : 8 7 : w w : $ 9 9 7 ",
": , : ; : 7 6 = 7 7 , ; 7 , - 7 7 = - 9 7 - 7 , , : , , - < 7 7 : 8 , , : : , : , , - < 7 - - , , - - , : : 7 7 - 7 7 ; - : : : ",
". @ O O O o o o = @ O @ = o = o @ o o # @ @ @ @ @ @ @ @ o * o o = o O = = O * @ O @ @ @ * o o @ O O * @ @ @ @ @ o o X O O . @ . ",
"; ; = : ; ; ; = = = = = - - - - : - = - - - = = @ = * * = = = = = @ = O O @ @ @ @ = - - = - - : - - - - ; = = = = - ; : : - ; : "
};
