/* XPM */
static char *result[] = {
/* columns rows colors chars-per-pixel */
"64 64 55 1 ",
"  c #15120D",
". c #1E1812",
"X c #201A13",
"o c #251E1A",
"O c #27211B",
"+ c #2C251D",
"@ c #2F281D",
"# c #30271F",
"$ c #31291E",
"% c #382C1E",
"& c #2C2620",
"* c #2F2821",
"= c #302721",
"- c #342C24",
"; c #392F24",
": c #362F28",
"> c #382F28",
", c #373027",
"< c #3B3226",
"1 c #373029",
"2 c #3D342A",
"3 c #3F382E",
"4 c #413527",
"5 c #41372B",
"6 c #443A2D",
"7 c #493D2E",
"8 c #503D2F",
"9 c #463C31",
"0 c #493E32",
"q c #4D402F",
"w c #4D4234",
"e c #4E4438",
"r c #524536",
"t c #564837",
"y c #524639",
"u c #55493B",
"i c #5A4C3D",
"p c #5D503F",
"a c #64503F",
"s c #564C40",
"d c #5B4E41",
"f c #5E5142",
"g c #5F5548",
"h c #604E42",
"j c #625444",
"k c #6A5747",
"l c #645847",
"z c #685847",
"x c #665648",
"c c #6A5748",
"v c #67594A",
"b c #6A5B4B",
"n c #715C4C",
"m c #6D5F51",
"M c #726454",
/* pixels */
"66wq67w6q64,<4<q5<444<7744746iiqt774<747wy0664764%%,;444%%%466%6",
"0077777466w4<6qqqqqq4<47qrwqtjtqtqtw%6qwfji3rtqtr7<q644664444468",
"w67rwq7766rq52qqqq6q%67467rqqttrrtaq76ruuprwrrtqtq6q67546748748t",
"r6qrt7w0<3qrq22,,476%44q67rqqrtrtpipiqtqriitur7<it64675477867q76",
"67767<-<-$qq<;-$<<%%24%<4<,qrq7twpq674wprwwritr08rt6<4<444444444",
"-2546-;5,2urq2<,<2<,%2- .X@6657wrpiq66wplrrrtu707r7<%<<<664<%7<6",
",-,<2<25qwueqqr242<<,222,<3wi7r6wugpeequ0<7r0iy5qw2%<<<<74<q6<<q",
"24<<<26<,2wqq<<56646q6634667<O<6wigu9qqyw<wrriw6q2oo572744qq4<@4",
"<76><6956wieq<,6q2,6wq9,65006@50r6itw7w66700www6wriwq6q366++$,-3",
"<56>5<653quq3326q336qww37>940wwrrwrqwrw07q77qrrwyyuw622q66$O62$2",
"6y00090933qyw6wrq2q633qw708000yyititurwwwywwrtr6wwpiuwqw7qw4qq62",
"50006500wwyww6wwqqw7qwww6ri99yiuuritur66ww6rrirqppwrrwyq776622<$",
"000rew6;99wqwwqww<6rt7wwrrr6wttyrtiirr00r6rrwuw7wwqqqqqwqtq<<<22",
"596590w2qeeqwwqww6q70w7yrtiturytirtraiwwww66wtwwrw3qq333qeqq<26q",
"5556399w9ye9qwwwwr744wtt7rikppupfu5riu8w0q6666rpue3qwq<,3u65q26q",
"69639w99uy3wwqww0q0r4ratitipitijyjhir80w6rruwwtygptwqwq3q2<-,23q",
"6000sy00ey0559q3wwqqwwyuippprqwjuprpurqywriguwyeduuu9w9q664,,64q",
"6r0s0600ehhr090063qwqwwuplpptpbjrwttruyipueuuwqwuueweq39q444<4,4",
"60y055900uhdw69wyyqwuqppafriltlptwftpiywi3wqwwqw6wueuw3<2,-$<<66",
"900099s000080wwrurwrprqtjjuplabatttttuyyieu3eeeq63werq3wq-,<<664",
"999958s000uus06etwwwttpprwpblijcpcbflpuuirwpiysq%<ueeweu6,<<@@<4",
"9e80009900hd9598wwwuwtttwrrtuiiildlfaggyerqgwwe36qw99quw<,,64<@<",
"es0s90995ud00y90iuwiprww3<www7uhuifypewwqw9qqwqqr36q36qq4%<@<<64",
"9s0009995r65yi00wwyuitwtweeyiixiiuireyw3qweqwqyqqqq2,2,<<<%,<66q",
"99ys0y00yrddu69ywweyritrryujiyiipchi0505<3qiuqqeq73,<73<44%<<<46",
"690039y030du5>5riuipiitiiitui-uhbpjirr093wpluereq7t74<,34<6<<<64",
"00099009900u550uytuytiiwrrriiyhpuaaa80u0,6ptqurquptr72<44,666763",
"909900908s89000ywqwwttiuuiiljixiupikrthdeepuqpuqwp734<,663<,4q34",
"98>>600008hh0958yetpu3ypyiiiifijijpiiruhqwuutu79uew3396wt64363q9",
"0990sdsy90yhddssrwwwpjguiiywulxpiiaiy09hwuewuttquete99q9q66qtqts",
"09960d0090sysydspiiiuiuuidiiiddiiijkccirwupsgpuqetwpuwwqwt73qqwg",
"6990y0yy00yssydxgptuiuipuiyrtuyitrjjpnkuwtpssustesqqqtpq66q737qw",
"5900e00099rdiydvifpituurwqqyqwyyrtuttapiwddy5iy60i09q0ur67r776rr",
"90s9690959rdddidfiwiittuy3wywsyq6piujkhiuimi2eyyur7ru76qwrtwrt4q",
"90080ss0r0edrydjfiipbpupuiyy9wiiurrtphhddjMdiiw0>4riwrrpjit6wprt",
"9090>58900dieyyyfiflfpuewyuy9wpptarpkkpywidw6riy60r7777wii67iw66",
"90s000ssssjhy0eeyyuipyyipiitqiyw8ru7ruwiifvi0ey76utrw0663q2qr<+<",
"000e0ss8ryyry09ifgfpuuquutuywfyputtw8r9yijxir8r468rurrr7qq396<2w",
"sydss000yu00yuuuyyuuqryyyuteuuwitrttjirw0wy09w<+>0070yfw3qqw9qqw",
"00s0090600sseyyeuppripuryitygifprcciiyw06yyw9ww0570trwureuyeqqqq",
"sse990yee0eyerdswyuwuyywwdiyjmdyifpjuuddyduuii052quiwqwtwuiqwwyw",
"00s8ye0yeeyyre0reeuyuituyjdwrvfiuriphcduyduyww0wwwrruytwywqwyrye",
"89ssy9eee0ye9000wyguiruueddsxxyifiiicns090yddew0qyuewwywwwwpwqwq",
"690s0000eey05ryeqqqwwyyw0r80iyfyyruiyhu65ij0<wdguuguwwwwwwqrww,q",
"990d89990050ewwwew9wtyq3906503:fiyyy0yr060gy0syuiqerwuywwwiyew6w",
"90999e9e00990w63wwwqqwuw69090sseufisw0r09esedhsyeeuusywquiie66wq",
"99009999w096<6ww93w63q3660s000ffgsywwd0yu0sddydfeuuqqwqqwwqw6w3w",
"e8e05:>9213006q633yu36,35>60599yy0w00we6660yduywe9q3333q6,q6,qq3",
"329252e099>9e5599ssd09>>>>>;>09rsye8eee0s0009sssw39wyqwq3qqyuyq3",
">se699905599e9>9999sy99995595yyhhyessee99e90ss00eq3qe33q3wuuuw3q",
"9ee0959999ye999e9eeee899s0590dssyss9ey09ssssds0sw33wusqwe66q3366",
"999900eeyyss96999ss90se9ys5;hsssdsyshy9e0ess009993qeuyq,22,,,qwq",
"2399es9599399690ss99eee9u9>600>yseeee3>>69ssss9>39wwww322<-,<<2<",
">69e99e939>9919se9e99e99049091:9eesee993699esss9w99q933qe526333q",
"::2999e99993:3999ee9ee9e09590essee99e9933es99999wwwe933,<<223,2q",
":169999999959e9e99eeese900939s0sese9399>9ees0ey9393699q3;@,0<<22",
"96:>>>11993>3326999e999ee09=390seee639>29930e003<236w069655<3;=-",
":>-=>391533>>3999333:399s9=:9900e>>:3>>>-231<>5>2620962329<<--=;",
":1:>936993>22:13>9953993903330999>==>>3>-3<36359230639ww<<<<2-=<",
"1:1:>1>::>93::3399999999s999292>>59=:=::293593>>,23223O+6211==-;",
"&*:193>6939313>29992339939993::1>>>&&&:=:-121133-33;1;*:31;;,$-,",
"&&:1163333313:363==31139399993::>>:*=-:>>:121:23-291-**-11;-+@-<",
"&*133==>>99391:33>>399e991113992351:-&=-:-111-:99,1,:;-1;--*;=@;",
"&&oo===:::1=:6=:9:>399393e1399992=--=&&&&--:;*-;33,=*;;;;=----*-"
};
