/* XPM */
static char *result[] = {
/* columns rows colors chars-per-pixel */
"64 64 233 2 ",
"   c #3A3F1B",
".  c #2C3628",
"X  c #343B2B",
"o  c #3B3E2D",
"O  c #353828",
"+  c #373E31",
"@  c #242F24",
"#  c #443E28",
"$  c #5A3F26",
"%  c #364131",
"&  c #3C4433",
"*  c #3F4836",
"=  c #3B402E",
"-  c #43412D",
";  c #4B472B",
":  c #554C2C",
">  c #574729",
",  c #5C532B",
"<  c #52532C",
"1  c #434533",
"2  c #4A4733",
"3  c #444936",
"4  c #4B4B35",
"5  c #454B39",
"6  c #4D4D3A",
"7  c #454738",
"8  c #514C35",
"9  c #534D3B",
"0  c #5A4C36",
"q  c #4E513C",
"w  c #5D5434",
"e  c #53523B",
"r  c #5A533B",
"t  c #5B5836",
"y  c #6B4F29",
"u  c #6D542B",
"i  c #6A552A",
"p  c #74542A",
"a  c #7C5A2D",
"s  c #77582C",
"d  c #644D36",
"f  c #645533",
"g  c #6B5533",
"h  c #655B33",
"j  c #6A5A35",
"k  c #655A3C",
"l  c #6B5C3C",
"z  c #61543B",
"x  c #735C34",
"c  c #7C5C33",
"v  c #745D3B",
"b  c #795A36",
"n  c #6E613B",
"m  c #756136",
"M  c #7C6333",
"N  c #74613B",
"B  c #7C643C",
"V  c #7C693D",
"C  c #5E5A41",
"Z  c #635C41",
"A  c #685C41",
"S  c #715E40",
"D  c #6B6344",
"F  c #746442",
"G  c #7D6B44",
"H  c #796848",
"J  c #825C2E",
"K  c #825E32",
"L  c #86612F",
"P  c #846333",
"I  c #8A6534",
"U  c #8C6935",
"Y  c #83643C",
"T  c #846B3D",
"R  c #8C6B3C",
"E  c #8A673A",
"W  c #926B36",
"Q  c #936D3B",
"!  c #946A34",
"~  c #95713C",
"^  c #9B733C",
"/  c #9C753C",
"(  c #A1773E",
")  c #A3793E",
"_  c #AA7B3F",
"`  c #846C43",
"'  c #8C6D43",
"]  c #836F49",
"[  c #866845",
"{  c #926E42",
"}  c #847144",
"|  c #8D7244",
" . c #84724C",
".. c #8C744A",
"X. c #8C7849",
"o. c #947243",
"O. c #9A7543",
"+. c #947945",
"@. c #9D7944",
"#. c #94744A",
"$. c #9A764B",
"%. c #947A4C",
"&. c #9C7C4C",
"*. c #897552",
"=. c #9C7D51",
"-. c #957D53",
";. c #A17741",
":. c #A47B43",
">. c #A97E44",
",. c #A27D4C",
"<. c #AB7F49",
"1. c #A47D52",
"2. c #A9803E",
"3. c #9E804E",
"4. c #9C8253",
"5. c #9A855B",
"6. c #AC8145",
"7. c #A5824D",
"8. c #AB844B",
"9. c #A98449",
"0. c #B18549",
"q. c #B48A4C",
"w. c #B7894B",
"e. c #A48453",
"r. c #AB8553",
"t. c #A48955",
"y. c #AC8A54",
"u. c #A58B5B",
"i. c #AC8B5A",
"p. c #A7855A",
"a. c #B18651",
"s. c #B48C54",
"d. c #B98D55",
"f. c #B48D5A",
"g. c #B98E5A",
"h. c #AD915D",
"j. c #B69156",
"k. c #BB9254",
"l. c #B4925C",
"z. c #BB935D",
"x. c #BD995D",
"c. c #BD904C",
"v. c #A58A64",
"b. c #AE9264",
"n. c #AA916B",
"m. c #B49562",
"M. c #BC9461",
"N. c #B59962",
"B. c #BC9B64",
"V. c #B89A6C",
"C. c #B69B77",
"Z. c #B1936D",
"A. c #BDA076",
"S. c #BDA16A",
"D. c #C1965D",
"F. c #C49B5C",
"G. c #C99C5D",
"H. c #C19555",
"J. c #C09149",
"K. c #CDA35C",
"L. c #C19662",
"P. c #C49B63",
"I. c #C99E64",
"U. c #C49E69",
"Y. c #CA9F69",
"T. c #C49F70",
"R. c #C6A165",
"E. c #CCA265",
"W. c #C5A36B",
"Q. c #CCA36B",
"!. c #CDA96D",
"~. c #CFA867",
"^. c #D2A465",
"/. c #D3A966",
"(. c #D1A66B",
"). c #D3AA6D",
"_. c #D9AD6D",
"`. c #DCAD65",
"'. c #DCB26D",
"]. c #D7B26F",
"[. c #C3A373",
"{. c #CCA573",
"}. c #CDAA73",
"|. c #CBAA7D",
" X c #C4A67C",
".X c #D5AC72",
"XX c #D9AE73",
"oX c #D1AE7A",
"OX c #D3A974",
"+X c #D6B173",
"@X c #DBB375",
"#X c #D4B17B",
"$X c #DDB579",
"%X c #DEB97B",
"&X c #DFB877",
"*X c #E0B676",
"=X c #E2B976",
"-X c #E0B77A",
";X c #E3BB7C",
":X c #E9BE7C",
">X c #EABB77",
",X c #E2B76E",
"<X c #EBC17E",
"1X c #E6C07E",
"2X c #B49E80",
"3X c #BAA687",
"4X c #CCAD84",
"5X c #C7AC89",
"6X c #D2AF82",
"7X c #CEB28C",
"8X c #CFB080",
"9X c #D4B284",
"0X c #D5B58B",
"qX c #DAB885",
"wX c #CEB495",
"eX c #D2B593",
"rX c #D5B995",
"tX c #D5BB9C",
"yX c #D9BD9D",
"uX c #D7BB95",
"iX c #E5BD81",
"pX c #D4BDA3",
"aX c #D7BEA4",
"sX c #E6C182",
"dX c #EAC383",
"fX c #EDC989",
"gX c #F1C787",
"hX c #F2CE92",
"jX c #F9D08C",
"kX c #DAC2A4",
"lX c #DBC4AB",
"zX c #D7C1A5",
"xX c #DCC7B3",
/* pixels */
"7.,.8.r.p.r.y.r.e.y.y.i.f.g.f.z.x.l.M.M.B.M.z.L.L.z.M.L.M.z.z.l.z.z.z.z.z.M.z.z.L.M.f.L.L.L.g.a.i.d.g.s.s.s.a.d.d.g.g.g.g.M.g.g.",
"&.,.7.r.,.,.%.[ F v v v l F v ` %.&.$.$.=.t.e.p.i.i.p.1.e.i.f.M.z.l.l.z.M.z.z.M.M.M.i.1.f.M.M.z.L.M.M.M.M.L.z.M.L.L.P.L.M.P.L.M.",
"@.z.D.I.P.R.L.y.%.g # 1 o 2 2 ; ; e r w A A D D D Z C C Z ..R.=X;X&X/._.=X@X).XXXXQ.f.r.Y.(.(.Y.).).Y.(.$XXXXXXXXX-X@XOXXXOXXX$X",
",.E.E.)./.E.Q.(.XXM.o 7 ; r e 3 & 5 5 2 0 r 8 1 & 7 4 e t %.).;X;X@XXX@X&X_._.@X(.Y.f.p.Y.Y.(.(.(.).XX{.(.OXXXXXOX$X@XXXOXXX$XOX",
":./.E././.P.L.I.x. .3 1 & 6 4 7 1 q q 8 F ] G H  .X.h.S.].1X-X$X&X+X*X@X(.(._..X(.).g.p.Y.U.).).Y.XXOXQ.Q.OXXX$X$XiX$X$XXX$X-X-X",
"+...` } X.` G D 8 O 3 & o 1 8 z k ..u.i.g.!.%X1XsXsX<X<X:X;X@X&X*X@X_.+X_.).].$XXX.Xf.1.Q.Q.}..X).OXXX{.OX$XXXXX$X-XXX@X@X$XiXiX",
"B @ . . . . @ . X % o - w %.l.E._.;X>X(.I.@XsXsXiXiX;X1X=X&X.X$X=X&X].=X=X@X&X@X).XXL.i.{.OXXX.XXXXX-XXXOX$XOXXXXXiXqX-XiX$X-XiX",
"v . X o & X . . X + r b./.>X=X=X-X%X$XR.W.#XfXdXfXfXfXfX1XsX-X&X=X1X:X;X<X;X-X*XXXXXM.f.@X@X$X@XXX-XiX@X-X;X-XXXOXiXiXiX$X@X$XiX",
"m o X X X X X X + & !.<X=X'.].+X@X&XiX!.U.XXiX$X;XqXsXdX;X;X&X&X*X;X=X=X;X&X;X&X/.(.f.y.+X_.$X&X_.@X@X$X@XiX;X$XXXOX@X$X.XoXXXOX",
"V = % . X + X + X 1 -.i.P.!.R.Q.W.}.Q.B.f.!.-XoX$X-X1XsX;X-X;XdXsX:X1X>X=X=X&X=X+X+Xg.r..X(.@X+X).XXOX{.qXoX$XOXY.OXOXOXXXXX-XXX",
"N . & . % X & + + + X + * 6 e e 6 6 6 C Z H b.OX;XdXfX1XiX;X$X|.W.S.!.].).+X&X-X*X@XM.i.=X@X*X-XXXXX@XiX-XoXOX{.XX-X$X$X-XiX-XiX",
"v X % % & % * + + & & % % & & % + % + & 9 6 2 z G 5.5.5. .H Z 9 4 2 4 e r Z D ] e.M.p.r.Q.m.b.u.f.B.U.;XXXOX@X.X$X-X-XiXiXiXiX$X",
"N X o 1 7 1 & * = & * & % * & * & 7 C + C C 5 & * 3 * & & * 5 6 q e q 6 7 3 1 1 2 r z d A S z S }.#X{.OX).XX$X$XiX-X-XiXiX;XiX;X",
"T o 2 o o 7 1 1 3 & * * * 5 * 5 + C & C 7 6 5 7 5 q C 6 C C C 5 q e C e r l F Z 9 r 9 0 =.Y.U.M.$X{.{.Q..X@X-X;XiXiXXXiXiXqXiX-X",
"E O O X O 7 & o = 3 3 1 ; 3 3 3 7 7 C # C C C + 5 5 5 -.#XsXV.C 3 < 7 D N.-X:X@X-.D *.1..X{.Q.Y.Y.Y.Y._.XX-X;XiX;X;X-XiXiXiXiXiX",
"Y # O # ] =...; o - - - 4 1 4 4 C # 7 C C # C H  .C  .9XfXfX%X4.G *.H V.<X-X-X;X.X{.L.1..X(.OX(.XX@X@X-X-X;XiX;XiXiXiXdXiXiXiX-X",
",.s...%.Y.g.P.1.- # - 2 ; - 8 2 2 8 9 8 9 9 v.iXdXA.[.XXiXm.| 3.y.z.].1X.X!..X_.(.Q.f.,.Q.(.(.Q.).XX-XXXXX*X-X*X-X$X-X-X$XiX$XXX",
"7.z.z.g.r.r.f.f.[ ; ` B.i.l 2 l F 0 2 6 H S OX;X#X%X&X;XB.` ` 3.e.t.l.+X;X_.).OXXXQ.f.f._.XXXXQ.).XX$X$XXX*XXXXXXX$X@X@X@X$X$XXX",
"O.i.z.g.f.f.L.g.I.f.L.Q.Y.l.4.W..XB.F N.OX#X}.}.%XsXdXW.B..XQ.S.N.N.x.B.R.!.+X;X-X_.L.r.(..X_.*X.X)..XXXXX*X-XXXXX$X-XXXXX-X@X$X",
"$.m.L.M.M.M.P.P.P.L.M.L.Y.P.).).OX.X).).Q.;Xl.qXhXhXfX}.m.5.5.h.N.B.B.B.B.W.!.&X*X*XD.1.(.(.XXXX.XXX.X).*X;X;X$X$X;X*X-X-X-X$XXX",
",.i.f.M.g.L.L.g.g.M.L.f.z.).)..XP.U.{.Q.W.}.V.%XhXsXu.5.W.;XdXdX;X;X-X-X*X:X:X;X*X_.D.1.Q.Q.)..X*X_.(.(._.-X*X.X.X$XXXXXXX*XOXXX",
"e.f.M.I.L.P.I.Y.I.f.e.g.g.XXW.U.U.D.Q.Q.(.u.u.!.sXW.}.%X1XdXgX1X-X=X&X=X*X*X-X-XXX_.d.<.Q.^.^._._.)._.(.(._..X(.).XX_..XXXXX-X(.",
"1.z.R.I.I.I.P.).,.%.M.L.L.I.z.z.M.U.P.L.).n h.sXfX1XN.u.N.N.B.W.OX@X@X'.*X*XXXXX_.^.g.;.G.(.(.(.(.(._.(.(.XX.X(.XXXX.X$XXX$X$XXX",
"3.I.L.U.P.P.).&.p.{.Q.).)..X+X).OXXX.XW...G %XsXS.G h G 4.u.N.h.i.m.I.(.*X*X_._.).Q.a.$.L.Q.(.^.^.(._.(.(._.XXXXXX*XXX-X*X-X-X@X",
"y.E.E.!.W.(.e.e.).OXXX;X;X1X<X%X-X-X@Xi.F %.$X-.r n 4.W.$X&X-X;X;X+X)./.OXXX.X/.^.I.<.1.Y.I.Y.^.(.OX(.(.(.).XXXXOXXXXXXXXXXX*XXX",
"7.L.P.!.W.t.%.).OXQ.x.t.t.x.E.).XXXXXX=.0 %.i.F 4.#X1X@X!.).&X-X.X)._._.).).).(.Y.L.<.1.L.L.I.^.^.^.Y.^.(.XXXXXXXXXX$XXX$X$XXX(.",
"e.U.{.I.Q.B (..XW.R.l.%.V N T t..X@XXX%.: h.h.+XjXfX!.~.<X-X$X-X$X.X&X&X.X_.Q.)._.G.<.1.G.I.I.^.^.(.).Q.(.).XXXXXXXXXX*XXX$X*X.X",
",.Y.W.B.7.%.r.%.7.B.E.%X].Q.m.t.e.I.-X#.w y.!.W.h.G 3.t.l.P.@X-X;X@XQ.).+X_.(.^._.(.<.O.D.D.I.^.^._.(.Q.(.(.XX(..XXXXXOXXX*X.X(.",
"r.M.f.Q.i y.y.e.&.| | t.F.$X$X].U.B..X%.z ` 4.3.3.u.N.j.N.B.W.&X).B.(.&X@XXX(.^.).^.a.$.D.H.^.^.(.(.^.(.).).XXOX(.XXXXXX.X@XOX(.",
",.&.t.T %.L.j.i.i.,.r.7.&.&.I..XW.P._.] : f.i...S.W.B.W.R.{.).x.B.Q.j.j.E.).)._.OXP.,.{ s.D.^.(.Y.Y.Q.(.Y.Q.(.Q.(.Q.(.^.(.XX(.(.",
"E V e.j.).3.T ` =.r.j.l.x.B.z.P.P.g.Q.' 1.i.B 5.n.b.l.W.N.l.u.5.t.e.h.~.*X*XY.l.f.P.1.' 1.D.G.Y.Q.^.(.Y.Y.Y.(.Y.Y.Q.Y.Y.I.Q.Q.Y.",
"$.i.i.3.| ` e.U.W.Q.).Q..X_.R.M.L.z.W.&.f.N  .A.}.+X}.A.oXm...%.t.!.>X1XE.z.l.P.f.$.{ { d.g.I.I.Q.Q.Q.I.Y.Y.(.Y.Y.Y.Y.I.Q.I.XX@X",
",.&.| } m.P.P.M.z.f.t.y.f.f.I.U.M.M.{.f.B k n.oX#XqXB.!.W.i.B.$X.X.XQ.j.i.j.i.t.e.$.b d ,.D.I.^.Q.).(.Y.Q.(.OX(.Y.Q.(.Q.(.Q.)._.",
"8.y.X.x.z.%.[ V B n [ Y v #.r.i.l.U.p.i.0 G [.#X%X[.W.&XS.B.W.N.h.3.} y.x.P.F.j.3.,.O.Y <.L.^.I.I.(.).)..X(.OXOXOX(.)..XOX(.(.(.",
"o.x | G N } G G ] ; h ..%.=.&.M.f.V.] S $ ` W.#X+Xt.B.!.h.y.B.!.R.h.P.'.&X_._.+X^.z.` [ L.I.I.I.Y.Q.Q.Y.(..X).{.(.(.@X(.XX).(.(.",
"%.&.3.n #.u.B.W..X< %.N.i.z.l.P.f.m.u.=.g l i.W.4.3.y.l.W.+X).+X.X].+X'._._.'.=X@X(.<.b d.I.I.I.|.eXOXY.(.OX.X(.Q.(._.!._.(.(.(.",
"7.%.f e.i.4.%.&.e.%.} S.R.P.-.3.z.%.4.f.[ k ] | G h.W.!..XW.z.i.t.t.y.7.&.,.y.D.R.^.d.K r.^.Y.!.6XeX{.).(.(.).Y.Y.(.(.(./.I.).R.",
"#.f > +.B %.7.l.e...t h I.m.k t.+.x N #...] [ %.+. XrX#X)././.E.P.W.R.P.j.l.l.s.s.H.a.' 1.I.^.(.oX4X).(.{.{.P.Y.Q.).OX^.Y.Y.(.M.",
"{ N %.V ` | G %.3.< n   %. .N B.7.%.n m [ p.4.X.9.eX4Xi.l..X%X9X9X#X$XXX_._._.^.E.z.{ o.d.s.^.Y.oX6XY.{.6X0XU.Y.Q.^.I.I.g.(.P.f.",
"$.V v ` &.N V m +.< n , h G ` +.&.+.h j x t.&.%.F.#X[.&.u.7XrXwX0X&X^.^./.).`.^.^.f.{ :.F.L.Y.Y.{.eX{.Y.yX(.Y.Y.I.Y.Q.OX1.XX1.$.",
"| h &.3.B ' } e.j.X.` 4.n &.n w h , f x 0 j #.e.h.oX4XS.7XzXaXyX X^.`.K.E.|.oX_.F.f.0.{ D.G.I.{.0XlXeX{.yXG.W./.(.XX@XB.M.-XE z.",
"%.+.e.T N &.%.P.r.e.[ | m B N z h x f v f : h X.G 3XkXyXkXzXrXtX Xh.G.I.z.[.0X@Xs.s.d.{ D.W.eXaXlXxXaX#X0X{.^.].*X-X*Xy.).E.o.&X",
"o.` j n %.` B.%.h $.` : B ' | ` ` G , V v } < n < D 5XtXrX7X7X7X0XC.f.L.}.|.uXC.O.L.a.{ U.eXxXlXzXaXuX$X0XyX~.+X@X&X+X$.E.j.l.P.",
"~ M B } } | %.j N o.x g %.y.m @.@.j h +.v ` ; h X., G 5XrX7XwXwXrX0X[.|.yXkXtXv.v.{.{ $.|.yXkXaXyXaXtXyXlXlX9X&X-X-X-XR j.j.l.e.",
"@.@.:.:.o.,.m m &.u : V 7.T > T o.i N T l m , f }.B.} V.tX7X8XwXyXlXpXwXtXpX3X2XC.f.9.p.eXeXwXkXlXlXlXxXxXlXuX1X;X;X;Xm P.x.!.+.",
"@.;.9._ 6.6.:.:.8.T { ` V N h g x , h V f f.Z. .A.uXi.h.|.%X%XeXzXaXpXpXwXtX5Xv.v.I.F.v.eX5X|. XpXxXxXlXlXtXqX&X&X$XB.m /..XXX&.",
"O.O.) ) >._ 0.0.0.d.s.7.~ ` V f , < h h l z.rXC.3X5X*.C.rXqX+X7XpXpXpXpXwXtXZ.| j.,XG.p.#XOX).5XpXtXtXzXzXoX@X].+X).+.@.).=Xd.s.",
"O.^ ( ) @./ >.;.>.0.>.q.w.@.@.R g < < : m X.v.C.zXC.G 3XlXeXA.+X4XwXpXwX0X{.+.7.,X'.y.R j.R.oXyXpX7X0XkX%X).&X!.~.).+.k.E.s.E ~ ",
"O.( ) ) / Q ;.:.6.6.;.9.0.6.0.6.>.T , , g V 4.5.5Xv.l n.tXrX}.~.S.S.wX%X/.y.3./.^.,.B B j.Q.|.7X4X[.[.0X).&X+X!.R.x.9.H.F.P ~ t.",
"O.6.6.^ O.E { <.0.>.>.0.6.0.6.<.<.0.^ N g 4.R.F.[.n.h v.0X%X&X!.~.!.!.].y.3./.x.~ x p c y.F.W.W.T.D.s.Q.).+X].j.y.&.F.F.3.3.F.R.",
"o./ @.O.^ Q o.;.>.<.:.6.6.<.<.;.:.:.0.Q Y P.+X'.oX XN v x.'.1X!.]./.~.j.T q.K.T R q.@.c o.,.j.P.P.K.j.R.]._.j.Q s.| k.@.3.k.q.9.",
"O.! ( / ^ ~ ;.;.;.>.:.:.6.;.:.:.:.O.{ Q o.r.'.].9XC.N > j x.&X~.].].~.2.3.9.V U 7.q.@.R k.x.j.F.E.G.s.(.].E.R +.K.T 9.T 9.9.0.y.",
"O./ ) ( ^ Q ;.:.:.>.;.:.:.^ ;._ ( ^ ^ R E 9.K.K.|.b.g | N +.x.K./.1X0.2.q.M V R x c u j 7.E./.~.E.K.s.x.G.&.R j.r.>.,.8.@.q.F.H.",
"Q ^ ^ ( ^ Q Q ( :.<.( O.:.^ ;.( ^ ^ ^ I Q :.&.0.P.M.V 7.x.&.+.k./.K.9.2.U U 2.2.~ q.>.Y @.s.F.K.K.x.H.z.s.M y.9.U O.O.Q / j.k.>.",
"{ K K E P c Y R I Q Q K I Q ! ! Q I a c R 9.>.@.q.F.k.9.G.8.7.s.K.q.q.~ M 2.U U 2.J.0.;.d.>.j.H.j.8.k.F.9.x q.P M P <.a.0.c.9.O.",
"' s c K c b c Y Y I I b K K b c K c p x P >.6.9.>.q.G.F.H.,.~ 9.2.W U m i s u M U W s Y O.:.k.O.:.s.k.w.R ~ >.U E ;.H.0.r.0.6.r.",
"o.U ~ W Q Q Q Q Q Q ^ ^ / / Q ! Q I I J U ;.:.) 6.~ :.w.a.^ L / L s s i s M L / ! u > $ a Q ^ ;.>.H.w.;.K <.K ! W ~ / Q Y o.w.a.",
"R U ) / ^ Q Q ~ Q ^ ! ^ ^ ( ^ Q / / ^ I U :.:.>.:./ ~ @.O.P P I i U W U ! M U ! a K y $ I ! ( <.! :.:.! c ^ K I J U L p c T :.;.",
"E R ;.O.~ U Q ~ Q ! Q { / ^ ^ / ^ ^ ^ I U 6.6.w.0.) / ) / ~ I I U U U a L U U L K Q K y I K ) J ! ;.J J J J J J J J J J s p u P ",
"R I ^ ~ Q W Q Q ! R W Q ~ Q Q ~ U W ~ L P 9.0.q.w.>.) 6.) ;.<.( / W W / W / / 2.;.;.Q E ;.:.( ! >.E J J J p p p p p p a a J u y ",
"R K a I K I I I K K U R I ! I I W U I p s :.0.q.0.0.6.6.>.>.>.>.0.2.>.<.2.6.>.) ( 6.>./ c.c.w.<.<.>.( ! I p y s p y y y p s J s ",
"| J a c s K I I I K I P K K I I P J J p a / 6.6.6.>.6.6.6.:.) >._ >.6.0.6.>.:.) ( >.^ ! >.>.<.>.>.<.<.:./ W s K J K p p a M L P ",
"$.o.o.R ' { { R { Q Q { o.{ o.o.o.o.o.o.{ o.O.O.O.o.O.O.O.o.O.{ / O.O.o.O.o.Q { { O.Q { <.$.1.$.1.,.,.,.,.1.r.$.O.,.O.$.,.%.$.$.",
"` B b B B B [ [ Y [ E [ ' ' ` ' ' ' ' #.' { { ' #.' o.#.' #.#.' { #...' ' #.{ ' #.#.' ` =.$.#.#.$.$.$.#.-.#.$.$.$.$.=.$.$.&.1.e."
};
