/* XPM */
static char *result[] = {
/* columns rows colors chars-per-pixel */
"64 64 235 2 ",
"   c #1A1C19",
".  c #23241D",
"X  c #2A281B",
"o  c #2D331E",
"O  c #31361F",
"+  c #373B1F",
"@  c #312A1F",
"#  c #252621",
"$  c #262A24",
"%  c #2B2C25",
"&  c #2B2E29",
"*  c #292620",
"=  c #332E25",
"-  c #342F28",
";  c #2D312B",
":  c #2E3027",
">  c #333225",
",  c #353A22",
"<  c #3A3D24",
"1  c #34342C",
"2  c #3A362B",
"3  c #36382E",
"4  c #3B3A2D",
"5  c #3A3224",
"6  c #363830",
"7  c #3D3B31",
"8  c #363730",
"9  c #433C2D",
"0  c #493D2D",
"q  c #433627",
"w  c #433E32",
"e  c #493F31",
"r  c #3D4128",
"t  c #3D4026",
"y  c #44442B",
"u  c #4B442D",
"i  c #454529",
"p  c #53432F",
"a  c #574A2D",
"s  c #434134",
"d  c #4B4332",
"f  c #4C4931",
"g  c #454830",
"h  c #534633",
"j  c #544B32",
"k  c #5C4C34",
"l  c #5C4A35",
"z  c #5C5134",
"x  c #5B5139",
"c  c #664E28",
"v  c #6A542C",
"b  c #77572C",
"n  c #634C34",
"m  c #654F39",
"M  c #645336",
"N  c #6C543A",
"B  c #6C5B3C",
"V  c #655638",
"C  c #7B5C32",
"Z  c #735B3D",
"A  c #7C5E3C",
"S  c #735936",
"D  c #7C613C",
"F  c #776237",
"G  c #766034",
"H  c #785E40",
"J  c #6A5944",
"K  c #766241",
"L  c #7D6443",
"P  c #7E6B44",
"I  c #7B6649",
"U  c #6D664E",
"Y  c #845B2E",
"T  c #835E31",
"R  c #856335",
"E  c #83643C",
"W  c #8A673A",
"Q  c #8D6B3C",
"!  c #8C6434",
"~  c #926D3C",
"^  c #986E38",
"/  c #9C743E",
"(  c #96723C",
")  c #8A612F",
"_  c #A2793E",
"`  c #A0773E",
"'  c #826542",
"]  c #846A45",
"[  c #8C6C43",
"{  c #8C6E4A",
"}  c #856D4A",
"|  c #926E43",
" . c #916E49",
".. c #8B724B",
"X. c #887349",
"o. c #957244",
"O. c #9B7444",
"+. c #9D7945",
"@. c #95744A",
"#. c #9A764A",
"$. c #957A4D",
"%. c #9D794A",
"&. c #9C7B52",
"*. c #957850",
"=. c #8B7052",
"-. c #A17742",
";. c #A37B44",
":. c #AA7E44",
">. c #A37C4B",
",. c #A97F4A",
"<. c #A07748",
"1. c #A27D52",
"2. c #AB7E52",
"3. c #9D8354",
"4. c #AB8246",
"5. c #A5814B",
"6. c #AC834B",
"7. c #AD864A",
"8. c #B2864D",
"9. c #B48B4D",
"0. c #B6894B",
"q. c #BC914E",
"w. c #A58152",
"e. c #AC8453",
"r. c #AD8B5B",
"t. c #A88658",
"y. c #B28653",
"u. c #B58B53",
"i. c #BA8E53",
"p. c #B48C5B",
"a. c #B98E5C",
"s. c #B2875A",
"d. c #BC9355",
"f. c #B6915A",
"g. c #BC935B",
"h. c #BF995A",
"j. c #9D896B",
"k. c #A68D66",
"l. c #B38E64",
"z. c #B59263",
"x. c #BD9462",
"c. c #BE9A6A",
"v. c #B99766",
"b. c #BB9A75",
"n. c #AF9461",
"m. c #C19555",
"M. c #C39955",
"N. c #C2955B",
"B. c #C49A5D",
"V. c #CA9D5D",
"C. c #CBA25D",
"Z. c #C7A05D",
"A. c #D0A65F",
"S. c #C29662",
"D. c #C49B64",
"F. c #CA9D63",
"G. c #C29C69",
"H. c #C99E69",
"J. c #D09F67",
"K. c #C29E71",
"L. c #C7A165",
"P. c #CCA364",
"I. c #CDA36A",
"U. c #CCA66C",
"Y. c #D2A465",
"T. c #D3A965",
"R. c #D2A66B",
"E. c #D4AA6C",
"W. c #D9AC6C",
"Q. c #D9A966",
"!. c #DAB16D",
"~. c #D6B06E",
"^. c #CCA472",
"/. c #CEA974",
"(. c #CCAA7E",
"). c #C8A579",
"_. c #D1A771",
"`. c #D5AC72",
"'. c #D9AE73",
"]. c #D3AD7B",
"[. c #D8AD78",
"{. c #D7B074",
"}. c #DBB275",
"|. c #D7B27C",
" X c #DDB47A",
".X c #DEB87C",
"XX c #DFB875",
"oX c #E0B675",
"OX c #E0B67A",
"+X c #E2BA7C",
"@X c #E3BA75",
"#X c #E7C07F",
"$X c #CDAE84",
"%X c #CCAE8A",
"&X c #C7AB83",
"*X c #D1AE82",
"=X c #D2AF88",
"-X c #CEB28D",
";X c #D5B284",
":X c #DAB683",
">X c #DDB984",
",X c #D3B38B",
"<X c #D9B78B",
"1X c #DBBA8C",
"2X c #D6B88E",
"3X c #CBB295",
"4X c #D3B693",
"5X c #D6B994",
"6X c #DABC95",
"7X c #D1B79A",
"8X c #D5BB9B",
"9X c #DABD9B",
"0X c #E4BD81",
"qX c #E0BE8B",
"wX c #D6BEA2",
"eX c #D9BEA1",
"rX c #DDC29C",
"tX c #DDC096",
"yX c #E6C183",
"uX c #EAC485",
"iX c #E3C18E",
"pX c #ECC689",
"aX c #EEC988",
"sX c #E0C398",
"dX c #F2C988",
"fX c #DBC3A4",
"gX c #DCC5AB",
"hX c #DFC8AD",
"jX c #D7C1A5",
"kX c #DFCAB3",
"lX c #DCC7B4",
"zX c #E2C9AC",
"xX c #E2C7A6",
"cX c #E3CDB7",
"vX c #E6D5C0",
/* pixels */
"u.s.u.8.7.y.u.y.8.u.e.u.y.y.u.p.y.7.p.g.p.f.h.g.x.a.g.S.B.g.g.g.a.g.g.g.x.g.p.S.S.x.f.x.x.f.f.a.i.p.p.u.7.e.e.5.,.5.>.>.,.O.;.,.",
"g.x.S.x.S.B.x.a.x.g.g.G.a.g.G.g.g.g.S.x.r.f.D.G.L.G.S.G.x.S.D.G.G.S.S.D.D.D.g.S.S.x.r.e.S.f.f.y.p.y.u.f.f.u.f.g.u.i.u.i.f.u.,.%.",
"G.OX0X X XOX[.`.[.[.U.[.`.}.E.}.`. X}.}.S.I.+XyXuX@X{.{.}.}..X#X+X+X+X#X+X@X X X.X}.U.g.}.~.}.E.E.U.}.}.E.}.XX!. XE.E.XX}.}.a.O.",
"H.:X9X<X X:X:X X X X XOX}.}.`.}. XXX X XG.D.XX@X X}.`.`.E.`.~.~.W.XXoX@XXX].]. X}.}.`.G.~.}. X~.E.E.Q.U.E.E.{.U.I.P.D.E.E.T.y.%.",
"].*XgXcXxX9XwX5X].[. X{.'.E.{.'.'. X{.`.D.U. X X'.E.W.~.}. XXX{.E.!.XX.X:X%X:X#X X.XU./.|..XXXXX X!.{.E.E.L.n.3.$.$.5.L.E.Y.y.+.",
"*XxXfXvXkXjX9XrX).(.$X,X;X[.{. X{. X X XU.`.}.[.{. X XXX+XyX+X}.E.E..X|.-X.X#X+X+X.XB.D.}.XX+XXX}.'.U.r.X.j + o O O i B r.U.N.%.",
"zXxX6XzXlXgX9X,X,X3X4X7X4X,X[._.`.{.`.{.L.`.0X{.+X+X+XuXaXpXuXuX.X@X>X-X;X#XuXuXyX.XU.L..XXXXXv.$.P z t o o t t , , > o + P w.%.",
"xXsXxXzXlXzX6X:X{.[.[.].].).^.`._.{.`.`.x.U.@X+XuX+XuXuXyXuXpXaX#XiX-X$X4XiXuXiXyX+XU.c./.3.V t + + + , t t t O , + + , o X + @.",
"4XxXxXeXfXlXrX X X X'.'.'.G.I.'.[. X X'.S.E.yXpXaXuXuXaXaXaXaXpX#X>X7X,X-X2X2X2X#XyXc.P f + + r t t t 4 < < , , , , , O > o X ;.",
"6XqX:X9XwXzXjX X X X X X0XI._.'. XOX X}.G./.+XyXuX0X0XyXyX+X0X0X#X.X2XjX4X7XjXyX#Xn.z < r i i t < < < < , < , , , , , , + o X %.",
"[.OX0X0X<X6XeX:X{. X XOX X[.^.^.,X].'.'.D._.@X:X0XyXuXyXyX+X|.5XtXyXiXjXjXhXrXf.P i < u g g y y < t < r t t 4 t r < 4 < , , + +.",
"[.OX0X+X}.'.:X<X X'.{.{.|.2X%X%X4X].R.[.S.U.+X+XyXpXaXyX0X X/.:XtXiXiX7XgXfXk.+ t i i u f y y y y y g g g i f f g i u u 9 i a ( ",
"[.'.0XOX[.'.}. X*X]. X:X9X6X;X,X9X5X,X0XS._.+X0XpXpX0X0X+X X+XaXpXrXrXjX8XrXj.+ j j j k V K K z x j f f j j k x l H r.p.[ >.f.+.",
"[.{. X X'. X+X+X;X&X4XrX4X5X8X4XgXfXwX1XG.I.+X0X0X+X+X+XuXyXuXaX1XjXgXrXtX5Xk.a } f.&.D z.@X[.t.M k N L B E c.L.3.^.}.}. XoXU.5.",
" XOX'.}.{.OX X;X,Xb.).,X;X5X8XwXgXhX9X1Xc.I.0X0XOX XOXuXpXpXuXv.V U 3XzX8X2X(.v./.uX{.g.0X'. X Xr.X.|..XU.b.6XwX1X X[.`.'.'.P.1.",
"'.}.W.'.+X X;X<X:X:XR.~. X X8XwXeXhX5X5Xc.I.0XuX0X0X0X0XaX|.X.i r j j.cX2X5XiXpXyXyX{.c.qX X X0XuX|.yXyX,X4X4X5X0X+X@X{.`.'.U.>.",
"}. X'.'.OX'. X+X XOX X X+XI.*X6XzXfX6X<Xv.D.'.OX+X+X0X+Xv.B u J $.&.k.:X5XfXsX0X0X+X_.H. X X+X X XoX:X9X-X7X[. X X X'.'.E.E.I.>.",
" XOXOXOXoXOX0X+XOXOXOXOX_.E.}.9XxXqX X;Xb.G.'.{.{.oX Xr.F B ] r.[.OX+X X:XfXkXtXOX+XU.S. X X:X X X:X8X7X%X8X X[. X X`.'.R.W.D.%.",
"'.}.OX+XOXOXOXOX X XOX}.'.OX@X:X:X X'.[.b.G.}.OX X{.OXG.} $.G.'. X0X0X X+X0X1X6X0X XH.x. X].8XjX5X9XwX7X3X4X|..X X X{.{.R.U.x.%.",
"'.'.'.'.'. X XOX X'._.R.}.'.W.'.W.{.W.I.z.G.I.'.E.I.1.L r.{.'. X+X0X0XOX0X@X+X:X0XOXI.x.qX5XwXjXwXjX4X3XwX8XOX X@X+X X}.R.E.D.>.",
"`.'.`.[.`.'.}. X'._.G.^.'.W.R.R.`.W.R.Y.l.1.H.I.f.{ K g.`._.}.+X0X+X0X0X X X.X0X X`.I.v.9X7XwX8X4X7X-X7X7X7X:XOX+X@X}.}.E.E.P.>.",
"R.`.W._.R.R._.[.6X1X_.[.`.R.J.R.`.W.R.oXw.t.H.r. .Z ..l.S.^.}.OX+X0X+X+X0X+X X0X0X XK.l.1X:X,X2X;X7X5X-X*X$X;XOX XoX}.{._._.G.w.",
"J.R.R.W.R.'.'.}.1X1X'.`.'.^.(.=X<X[.R.'.$.p.1.&.S.U.'. X`.'.}. X+X+X{.'.{. X`. X X[.K.v.@X`.^. X.X{.U.).+XoX}.OX0X X_. XE.R.U.>.",
"R.J.`.R.W.'.'.'.<X;X[.<X,X=X,X;X[.R.W.e.@.{ @.p.G.D.H.R.`.R.'.OX+X'. X X XXX[. X X[.I.x.}.D.}.Y.E.S.G.@XoXOX+X0X+X+X X X'. XOX>.",
"R.R.R.'.'.W.W.[.xX,X9XxX5X5X[.J.D.F.W.]  .' T  .2.l.S.J._.R.'.'.}.}.OX XOX'.I. X X XG.p.'._.'.I.D.v.}.}.E. X X{. X@X{. X`.{. X>.",
"Y.J.R.W.R.R._.<XzXlXcXcXzX9X].D.a.F.S.#.<.'  .H.^.H.H.R.R.H.J._.R.W.`.R.R.I.H._._.R.S.s._.R.R.I.H._.'.E.E.E.{.E. X{.}. XR.E._.>.",
"R.J.J.R.R.1XfXzXcXzXzXcXhX9X1Xc.p.H.e.1.' ' x.J.s.2.p.G.J.H.H.J.H.I.R.[.H.N.H.R.^.H.D.s.`.I.I.P.E.R.R.R.E.I.R.R.E.E.I.R.E.U.`.>.",
"R.R.Q.R.;X9XfXfXxX9X9X9X).U.[.x.t.D.p.' n  .1.' @.S.J.S.H.H.S.J.F.H._.`.S.D.D.S.H.H.S.s.E.I.R.I.I.S.S.D.S.D.H.F.H.I.G.S.].I._.%.",
"F.Y.I.,X9X9X<X5XsXeX6X(.H.D.E.S.%.D.#.[ S m ' J J &.1.J { R.H.S.H.J.J.J.S.S.S.H.H.H.H.2.R._.J.S.S.S.a.a.a.N.S.D.H.F.S.x.H.S.G.>.",
"Y.J./.,X*X`.R.[. X[.'.I.R.E.I.G.$.e.N.o.Z  .' e w w e - e t.'.H.S.S.H.S.p.S.D.H.H.H.S.>.D.H.J.l.p.p.a.p.a.a.a.p.a.p.a.p.S.p.a.%.",
"E.R.*XR.R.R.E.`.[.'.[.'.S.U.W.W.} %.@.A ' H l 7 8 8 2 8 8 j I &.S.J.F.S.F.1.#._._.R.s.,.S.S.J.S.N.l.a.s.a.a.a.a.a.p.a.y.a.g.a.#.",
"E._.^.'.'.'.`.R.`.'.{.`._.R.}.Q.] H  . .T m e w 8 w w 8 w 7 8 w =.[.[.J.1.e w { { { l.2.S.S.J.' N.N.S.a.e.s.e.e.s.y.e.s.x.x.x.O.",
"Y.R.J.R.Y.R.R.F.J.R.R.I.E.S.e.1.N H [ A n h w 6 1 7 w 2 6 4 1 ; w J I J 7 ; ; 8 1 d t.D.R.S.B q H [ ' N 1.y.e.2.y.s.2.l.a.S.x.O.",
"Y.R.R.R.Y.R.Y.F.F.R.R.J.F.N.' N n n m p 0 d w w w 9 9 4 2 8 6 8 ; 8 ; 8 ; ; ; & & 8 x =.' x > 4 4 9 q 5 m N.J.N.s.s.s.p.a.S.S.#.",
"F.Y.Q.R.Y.Y.F.J.R.Y.F.Q.e.Z p 9 q q q 2 0 0 w e 0 w e w 2 1 1 ; ; & ; 8 8 ; ; 8 1 1 7 h 2 2 2 4 1 8 7 > & l ' Z N a.a.a.i.2.1.O.",
"D.F.F.F.D.H.H.F.i.i.N.F.s.{ $.$.1.#.] S n 0 5 = = 5 9 w 8 6 6 ; ; 8 8 8 8 ; & & > & 6 w 8 w 7 1 6 7 s 1 % % 5 > = ' 2.N.2.0 5 [ ",
"F.F.H.S.I.E.F.>.s.S.N.N.U.T.~.~.'.W.E.N.>.%.[ M h 4 4 2 ; & & $ $ $ & > 8 7 g j x e d w 1 w 2 1 6 w d 3 $ $ $ & % - l n 0 * . Q ",
"R._.}.R.XXC.y.f.R.R.F.'.XX}.{.~.W.~.}.T.d.N.F.B.s.&...P H V x x J K ] @.&.r.x.x.a.s.&.' x > 1 1 1 3 7 ; $ & & % - * 5 X * = . [ ",
"}.XX'.oXB.i.Q.@X@X!.oXY.T.#X@X}.{.~.~.T.B.f.F.W.Q.V.F.N.g.N.N.F.L.P.R.J.Y.J.I.Y.W.W.N.y.G.P 1 1 6 1 : > ; % : : > > 2 & 1 5 * E ",
"~.F.W.I.u.A.A.B.Z.h.p.Q Q t.B.{. XE.E.Q.D.N.F.W.F.V.J.V.V.Y.W.W.W.W.W.Q.Y.F.D.Y.W.'.F.i.}.x.u 1 3 ; $ ; 3 > % : > > > > - - * E ",
"f.E.L.5.B.!.Z.q.9.9.r.7.o.#.t.g.T.Q.A.Q.Z.B.U.U.T.I.V.V.N.F.F.F.I.Q.R.I.E.R.W.Y.N.t.$.K K x 2 > : : $ % > % % : & & * % * - * ' ",
"x.T.q.h.~.T.E.T.T.T.L.L.h.U.U.h.L.~.!.!.Z.D.L.T.E.P.F.F.F.J._.^.I.T.Y.Y.Q.R.p.I k h s w > ; $ & & $ $ % % & $ % * * * X * 5 # T ",
"P.u.7.u.f.f.h.Z.T.~.!.~.E.{.XX{.E.T.!.XXP.B.P.E.E.I.F.F.].2X6X].I.Y.F.Y.R.%.4 = & 8 4 7 4 4 & % : & $ ; & & : % % X # . . *   Z ",
"..o.5.r.h.Z.P.U.T.!.XX}.T.T.T.E.~.~.T.T.g.B.P.R.I.V.G.$X8XeXeX=XI.F.F.E.E.1.l e 5 > & 9 2 4 & % $ $ # X # . . . . X = = 5 q * A ",
"$.r.h.U.~.XXXXXX XW.W.P.P.U.E.E.E.}.W.U.f.g.F.L.V.R.4XhXgX8X4X(.I.F.J.R.W.R.B.e...D z d 2 5 $ $ # . . . @ @ 0 p B D [ %.%.%.@.| ",
"e.h.L.E.~.U./.{.[.U.B.B.I.T.~.U.P.P.U.D.f.u.m.V.V.].gXkXfX5X*XF.F.I.F.F.R.Q.T.Q.Y.V.u.[ ..I ' E H L D ]  .>.7.i.N.V.V.V.F.B.V.O.",
"5.f.V.`.2X,X5X9X9X4Xc.N.B.Y.E.F.h.F.P.g.7.p.N.H.F.$X8X8XfX8X).V.F.F.V.F.F.F.F.V.Y.F.N.s.W.Y.T.V.V.V.Y.Y.Q.Q.Y.A.F.V.N.N.p.i.i.;.",
"P.T.W.fXlXjXhXkXjX-Xx.B.F.B.B.N.g.F.V.i.>.l.%X$X%X2X7X7X,X(.F.B.F.V.V.B.F.B.D.N.P.F.u.>.Q.P.Y.V.Y.V.B.M.N.B.V.I.N.B.N.g.i.i.u.O.",
"L.V.;XkXfXeXzXcX%Xl.N.F.F.i.i.N.N.N.N.i.-.p.,XwX7X8XgXjX).M.V.V.P.F.B.B.F.F.S.M.F.F.d.>.F.B.F.V.V.V.m.N.N.F.F.E.B.B.i.m.d.i.y.| ",
"7.i.(.hXfX5X7X9Xv.i.m.m.N.m.m.N.i.N.a.N.6.8.H.4X8X4X8XwX(.N.d.B.V.P.F.V.B.B.B.d.V.I.g.1.N.N.F.D.a.V.a.m.g.V.D.V.g.N.8.i.i.y.8.O.",
"8.i.I.5X<XH.G.B.a.a.i.m.8.i.N.N.d.N.g.N.u.i.m.^.4X4X%X7X-XB.f.K.I.P.V.F.F.g.h.h.F.L.B.w.V.g.V.B.N.F.N.m.g.N.d.d.g.d.y.u.u.8.8.o.",
"i.N.N.m.N.m.2.m.u.u.m.N.8.O.8.i.V.V.N.m.u.i.i.g.G.G.K.=X-X^.^.%X).V.N.L.L.h.Z.P.I.T.B.w.P.B.L.B.V.B.B.N.B.i.i.i.N.m.d.i.8.8.u.| ",
"y.m.i.i.m.0.2.N.u.u.N.m.i.E C y.B.V.B.m.8.8.u.u.m.i.m.I./.*X]./.S.d.B.Y.T.Z.Z.U.T.T.h.w.P.L.T.T.I.M.B.g.d.8.u.i.m.N.N.u.u.8.i.O.",
"y.y.N.0.m.,.0.m.y.i.i.N.i.;.v o.8.B.B.M.8.9.i.d.V.V.m.M.V.P.T.C.M.N.P.Y.T.T.L.~.E.~.P.5.P.L.~.W.E.F.h.B.d.d.d.g.N.g.d.u.u.8.8.| ",
"i.8.;.0.0.8.m.m.0.u.u.i.8.9.( A F +.M.C.8.9.9.i.d.M.m.f.m.C.T.T.Y.C.P.C.A.P.T.P.P.T.L.5.C.h.I.T.P.Z.D.Z.D.Z.d.d.d.i.i.8.9.5.:.~ ",
"0.:.c ,.2.0.^ ~ :.y.1.e.8.d.9.S k v 5.C.y.6.9.9.i.B.V.V.B.L.Y.C.C.P.T.P.A.C.Z.C.A.P.9.5.B.f.L.L.L.B.L.L.B.B.h.g.i.8.6.7.8.,.;.~ ",
":.4.S R O.,.Q v C 6.w.5.7.,.i.Q D F / d.u.5.4.0.M.C.Z.B.Z.L.A.T.Z.Z.C.A.T.Y.A.A.C.V.h.5.L.d.h.B.B.d.Z.B.h.h.B.h.u.i.,.,.,.:.;.Q ",
"/ 4.~ c S ~ 7.o.v R e.;.e.;._ ,./ 9.4.7.e.4.0.9.M.M.B.C.Z.Z.P.B.C.C.C.C.C.C.Z.V.B.B.d.e.I.F.B.M.B.h.h.M.h.h.B.h.d.f.9.6.6.;.:.~ ",
";./ Y b c G ,.6./ G R 4.y.:.,.i.q.d.d.d.9.7.q.q.q.0.q.Z.B.C.h.q.Z.C.C.Z.M.d.q.d.q.h.9.+.P.Z.L.Z.d.d.d.d.d.h.h.d.d.u.8.;.4.O.,.Q ",
"~ b T b C b -.i._ G b R :._ 0.m.d.q.9.9.7.7.9.m.0.7.d.h.d.h.d.q.M.d.M.B.M.q.9.d.4.f.7.O.C.B.B.B.h.d.d.d.h.d.d.9.9.7.:.;.;./ ;.! ",
"c T -.Y Y b ! 4.^ Y ^ b _ 0.4.4.8.9.9.9.;.7.7.7.4.q.q.0.9.9.d.d.m.q.m.M.q.9.4.8.8.d.5.( Z.h.B.h.d.q.9.q.d.d.h.8.8.7.:.:.;.` ` ! ",
"c b ! T Y T Y ! ) Y / C / 4.:._ ;.4.7.4.;.` _ -._ 7.7.4.:.4.9.9.9.4.7.0.9.4.+._ 4.4.;.Q 9.9.9.7.9.4.7.9.8.7.4._ ;./ ` ` / ^ ^ R ",
"o.O.<.<.O.O.o.o.O.+.>.O.+.+.+.-.>.O.O.>.O.%.<.<.O.( / +.>.%.>.+.;.>.>.<.O.O.O.( O./ ~ ~ o.+.o.( o.~ ( ~ Q ~ W W Q W W W E T T T ",
">.<.<.#.o.o.O.o.@.O.o.O.#.O.#.#.#.#.#.#.@.@.@.@.o.o.Q o.o.@.@.#.@.%.%.@.o.@.o.o.|  .| [ #...[ [ ..o.[ X.] W E E E R E A T C C b "
};
