/* XPM */
static char *result[] = {
/* columns rows colors chars-per-pixel */
"64 64 256 2 ",
"   c #15081E",
".  c #060728",
"X  c #170C25",
"o  c #1B142A",
"O  c #1A1A2D",
"+  c #171428",
"@  c #091737",
"#  c #1A1E31",
"$  c #151836",
"%  c #0B0C31",
"&  c #241B2C",
"*  c #2A1C2D",
"=  c #251929",
"-  c #231D32",
";  c #281C34",
":  c #33172F",
">  c #1C2235",
",  c #192338",
"<  c #12222E",
"1  c #2B222D",
"2  c #242335",
"3  c #2C2434",
"4  c #23253A",
"5  c #2A263A",
"6  c #252A3C",
"7  c #2B2A3B",
"8  c #292837",
"9  c #332534",
"0  c #322936",
"q  c #332B3C",
"w  c #382737",
"e  c #382F36",
"r  c #2C0519",
"t  c #4A1B32",
"y  c #50192B",
"u  c #6F1733",
"i  c #56212E",
"p  c #5C212E",
"a  c #452736",
"s  c #562230",
"d  c #592835",
"f  c #46383C",
"g  c #58373B",
"h  c #662637",
"j  c #782832",
"k  c #763036",
"l  c #730918",
"z  c #56513D",
"x  c #71463B",
"c  c #0E1B45",
"v  c #172546",
"b  c #152B51",
"n  c #252C42",
"m  c #2C2D43",
"M  c #272948",
"N  c #332D43",
"B  c #382D43",
"V  c #2D3248",
"C  c #333245",
"Z  c #3B3444",
"A  c #34364A",
"S  c #3A3649",
"D  c #36394D",
"F  c #3C3A4C",
"G  c #3D3A45",
"H  c #273556",
"J  c #343B52",
"K  c #3C3C51",
"L  c #242A52",
"P  c #1E3D67",
"I  c #433B45",
"U  c #4B3C44",
"Y  c #433C4C",
"T  c #4A3D4A",
"R  c #423645",
"E  c #563947",
"W  c #423E51",
"Q  c #4A3E51",
"!  c #4E344D",
"~  c #6C3747",
"^  c #721C40",
"/  c #3A4358",
"(  c #1B426C",
")  c #274E7A",
"_  c #294C74",
"`  c #2B537C",
"'  c #29537C",
"]  c #29456A",
"[  c #4C414E",
"{  c #47434B",
"}  c #584549",
"|  c #444253",
" . c #4B4554",
".. c #44495C",
"X. c #4A485A",
"o. c #524654",
"O. c #534B5C",
"+. c #584B56",
"@. c #57515C",
"#. c #5E5341",
"$. c #684849",
"%. c #75544E",
"&. c #634D54",
"*. c #675459",
"=. c #755857",
"-. c #6F4F4A",
";. c #7A675D",
":. c #796946",
">. c #595666",
",. c #4C5069",
"<. c #695B66",
"1. c #786865",
"2. c #7C7266",
"3. c #6D6873",
"4. c #5B6379",
"5. c #8C101A",
"6. c #881B2C",
"7. c #872832",
"8. c #952B33",
"9. c #9A3537",
"0. c #8C2C31",
"q. c #A52C33",
"w. c #A33335",
"e. c #A73636",
"r. c #B43735",
"t. c #A80923",
"y. c #CE3032",
"u. c #F4372A",
"i. c #B84D32",
"p. c #96583D",
"a. c #CC4B37",
"s. c #EE5338",
"d. c #CE6639",
"f. c #F26E37",
"g. c #FE5815",
"h. c #8A2F45",
"j. c #985C47",
"k. c #875D56",
"l. c #905146",
"z. c #BA5943",
"x. c #A95345",
"c. c #89645A",
"v. c #976759",
"b. c #9B7759",
"n. c #956E4C",
"m. c #A56B5A",
"M. c #B66C54",
"N. c #AA735C",
"B. c #B97554",
"V. c #B26845",
"C. c #886A63",
"Z. c #986C61",
"A. c #867869",
"S. c #997765",
"D. c #8C7377",
"F. c #A77564",
"G. c #B07362",
"H. c #C95244",
"J. c #CD7350",
"K. c #FB7A4A",
"L. c #EF714A",
"P. c #F2776C",
"I. c #DD645C",
"U. c #F19236",
"Y. c #FEA933",
"T. c #D1A03D",
"R. c #B38E55",
"E. c #94876D",
"W. c #B48D70",
"Q. c #A8A86D",
"!. c #A9A772",
"~. c #B8A873",
"^. c #948A50",
"/. c #CE8955",
"(. c #FE8847",
"). c #F69352",
"_. c #D0AE4F",
"`. c #FEAF4F",
"'. c #DD8D64",
"]. c #C5976C",
"[. c #DB9869",
"{. c #D79974",
"}. c #C98F70",
"|. c #E38C62",
" X c #E29164",
".X c #E99566",
"XX c #F59669",
"oX c #CBAC70",
"OX c #E6A87A",
"+X c #FEA972",
"@X c #FCB876",
"#X c #F4AF6B",
"$X c #FBCC52",
"%X c #FCE456",
"&X c #D8C970",
"*X c #FEC678",
"=X c #FAD370",
"-X c #FFF56A",
";X c #FDE677",
":X c #FFFB79",
">X c #FDE569",
",X c #FFD43F",
"<X c #2A5583",
"1X c #35648D",
"2X c #445482",
"3X c #566B8E",
"4X c #6C7186",
"5X c #887784",
"6X c #708BA4",
"7X c #7AA9DB",
"8X c #8C8C90",
"9X c #A99C98",
"0X c #8E99A9",
"qX c #8CA7B1",
"wX c #AFB2B3",
"eX c #ABA494",
"rX c #C4B194",
"tX c #F8BB86",
"yX c #F0B489",
"uX c #EDAFB2",
"iX c #D4A79C",
"pX c #FCC689",
"aX c #FDD987",
"sX c #FDD994",
"dX c #F6CE92",
"fX c #FFF889",
"gX c #FFEA98",
"hX c #FFFE9C",
"jX c #FFFC94",
"kX c #F4ED8C",
"lX c #F4D1AD",
"zX c #FFFEA8",
"xX c #FFFBB9",
"cX c #FDE9B1",
"vX c #C8C7B9",
"bX c #8CB0D1",
"nX c #8FB3F1",
"mX c #A1AED3",
"MX c #95C9D7",
"NX c #B0C7CE",
"BX c #98C7EE",
"VX c #B4D6F7",
"CX c #A9CFF1",
"ZX c #AFF1F6",
"AX c #FEFAC6",
"SX c #FEFCD7",
"DX c #F6EDD0",
"FX c #D8F9FC",
"GX c #CBF7F3",
"HX c #FEFEE6",
"JX c #E8FCFF",
"KX c #FEFFFE",
"LX c #F8FDF8",
"PX c #ECECEC",
"IX c #D4D4D2",
"UX c #CDBFC9",
/* pixels */
"O O > # # < O # # # # < O # # # O # # # # < # # # # # # # # # # # O # # # # # # # # # # # # # # < # # # # # # # # # O # # # # O ",
"> > > > > > > > > > > > > > > > > > > > > > > > > > > > > > > > > > > > > # > > > > # > > > > > > > > > # > > > > > > > > > > < ",
". . > # # > # # # > # > # > # # O > # > O # # > > < < # > < # < # > # > # > < # < O $ # > > > < # > # # < > # $ # , # > # < > O ",
"^.:., , m v n n 6 6 6 n 6 n 6 6 n n n n n m 6 6 n m 7 7 6 7 7 4 6 7 6 7 4 @ X + o o + X   . + > / 6 7 7 7 8 m S 6 7 6 4 7 8 4 4 ",
"kX$Xo L J H J J J V H J / D V J J J J J J J J A K J D A A A F S S F S N I <.O.>.3.D.1.<.o.o.@.f I Z S S R B ! O.N C 7 C | C N A ",
"kXdX9 v H V m m V m m m n m V m m m m m C m N m m C C C C C C F F Z F N G E.DXHXHXHXLXHXSXAX~.U 4 Z Z @.>.W Z Y Z F q S ..A A S ",
"&XfXf v J D J H J J J J V A J J V D K F D S A K Z S | |  .F Z o.Y [ T  .o.w &.E.OX;X;XaXoX2.; Z } [ U &.*.o.Q O.{  .F G | | | q ",
"kXkXe v J J A V V J J J m D J J V A J J F A S K F D / Y  .F S  .Y T T Y O.[ 0 o f $.x g ; @ N q I +.I o.o.R T  .Y W Z q Y F / q ",
"kXfXU v J A A A J V V A V A m A A S A A K A S S S S W S I [ [ o.R Z Y R q I [ } R B R T } } } } $.} U U U I Z I Z Z Z S S m N C ",
"kX:Xf L ..K ....,.K K ....K K ......K X.O...|  .X.O.>.o.o.1.<.*.[ o.>. .Z &.1.1.*.=.v.Z.N.v.c.S.Z.&.=.*.=.<.O.@.O.X.X.X.X.S F X.",
"kXfXf v J m A C S N A J S A S S F F S F K W Y Y Y Y Y Y I [ T T R R T R f R T [ } E } } -.$.} g } f U U } [ Y Y Z S Z C F C C A ",
"kX:Xe L ....F N W W W S S  . .X.Z Y O. .Y Q o.o.o.S R  .o.Z Z O. .o.R  .@.o.T =.%.=.%.$.l.k.k.z %.%.&.&.*.+.{ O.Y X.Y Z | F | S ",
"&X%X7 L ..O.X.S X.X. .F S X.X.O.Y { X. .W o.O.o.o.T  .O.O.R Y @.@.o.Y o.&.o.E =.%.=.%.-.k.k.c.$.%.$.} } *.+. .o.Q ,. .F X.Y  .A ",
"{ @.D K F F | K K S F K S S F W | | F  . . .Y T o. .Q R Q o.Q E U Q o.T R o.&.&.} } } f %.} } -.&.} [ } +.o.o.o.Y | S A / C C F ",
"v v | >.>.W ,.<.>.W X.>.O.X. .>.>.@...<.<.>. .>.3.<.>. .<.3.O.Q Z O.<.W m @.1.<.*.@.@.T F.%.-.C.;.=.*.@.<.<.>.>...../ / ,.W W ..",
"& = 0 F F F W W W S Y W W W o.X. .F | X.X. .S K X. . .Y  .~ E g g ~ $.E g ~ -.l.$.k $.k l.~ { &.~ E E g E E Q ! ! W F F | N A F ",
"+ O + X + +   + X o X X X e =.& o .   +         . . o 1 c 9.Y.$XcXcXsXkX;X$X>X;X;X:X>X%X`.r.~ s.f.s.f.d.f.U.f.f.d.s.s.s.7.4 J S ",
"q C C m m C 7 > 5 9 w q = f ;.. f R.R.R.oXoX&X~._._.f o } i.,XfXKXHXzXfXhXAX;XfXhXaXaXfX%Xq.h.K.#X(.U.;XgX$X#X>X;X*Xs.s.w.v J A ",
";.C.c.k.1.c.c.=.C.C.S.=.X R ;.. n.-XOX=XhXhXhXxXzX:X:.. c.r.Y.aXSX;X;X%X;XxX`.$X`.g.U.-X$X8.h.L.).(.f.lXAXU.*XdXsXSXP.u.9.O 4 2 ",
"=.v.F.S.c.C.F.c.Z.Z.S.-.+ R =.% :.zXxXaXcXxXxXxXxXzX%.. ^.a.Y.sXxX%X-X>X$X;X`.$XU.g.,X-X$X8.h.L.).).U.sXLXgXcXKXcXHX+Xu.w.5 / m ",
"k.c.c.v.c.v.v.k.m.v.m.=.X R =.. :.SXxX;XhXfXkXfXfXxX:.X ^.a.%XzXSX*XzXgXcXSX*XpXgXsXDXzX%X5.h.K.).).`.pXSXAXgXHXSXAX).u.r.- v 7 ",
"N.N.c.m.m.G.m.v.c.c.N.k.$ Z =.$ z &X&X_._._._.T._.&X#.% E.i.$XfXjXjXzXhXzXzXgXgXzXcXcXzX=X5.h s.f.L.(.(.f.K.f.(.@XXXs.s.y.5 v 7 ",
"k.Z.S.N.N.W.F.S.Z.S.v.=.O R &.7 R * = - & & O 2 * * q G R.h.y.i.d.i.i.i.i.i.i.i.i.i.i.i.h.8.e k 9.9.7.0.8.0.0.6.6.k h g d q V V ",
"&.o.OXdXpXyXyXyXyXsXOX$.o R %.-  .W F F S Z G / F / | e W.p.p t y t t y t y y i y a y w h r.a 6 4 7 n 6 6 6 < 6 , > , , O 2 6 4 ",
"&. .{.sXsXOXOXOXOXpX].E o z ;.o q 8 0 0 q q 0 0 q q 3 q !.z.h ! s d ~ d ! s d a a a d a g q.: e 0 0 3 0 5 3 5 ; 0 3 1 2 & - m # ",
"&.&.J.tXdXOXOXOXOXtXW.E o { ;.4  .Y | Y W W Y W { W F Y Q.z.s.K.K.K.K.K.L.L.L.L.L.L.L.J.a.r.= 5 w 9 9 9 * 9 * 9 9 3 ; & & # m , ",
"&.o.}.tXpXOXyXyXyXtX}.+.+ I ;.C >.@.O.O.O.O.,.O.O.O.O.X.Q.z.p.k.l.k.j.V.j.x.n.j.j.m.j.l.~ q.9 * * 0 3 ; = 1 * ; q C 3 ; - # n $ ",
"$.! }.sXsXyXP.|. XpXW.~ + { ;.3 | F { | W W ! W | Y W Y !.V.7.j j e.h.7.h.h.^ ~ h.h.h k k 8.: * 3 3 & = & * ; = 0 3 O 2 & 4 m 4 ",
"&.Y }.tXyXOXH.s.|.tXW.E & Y 1.o 0 0 5 w ; q ; ; 0 0 w 3 Q.j.a.f.U.$X`.).OXT.U.'./.U.).N.^ 8.a q 0 9 * 3 1 1 1 1 = & * 5 m $ 4 # ",
"$.S }.tX@XOX'.I.I.tX{.-.o Y 2.* * = 9 ; * * : ; 1 = w B Q.x.a.fXzX:XhXSXzXfXjXjXhX:XfXlXb.6.a K 4 % $ $ @ # n m A D N N S # M 4 ",
"E N iXaXdXpX'.y.H.pX{.$.o I 1.  ,.3X2X2X,.1X2X2X,.2X] 9 Q.e.d.xXKXzXxXKXSXKXKXSXKXSXxXLXoX5.a m 4X0X6X0X6X6X3X2X,.] V m D # n # ",
"T K OXpXpXtXOX@XyXpX{.=.= Y ;.  bXnX7X7XnX7XnX7XnXnX2X= Q.l.a.*XzX:XjXSXfXjXhXhXhX:XfXgXd.6.t % vXLXJXLXHXGXCX7X3XP H N A - , $ ",
"U N }.OX}.[.{.{.{.}.F.k.1 f ;.X bX7XCXVXVXVXVXVXVXJX3X  Q.x.r.(.#XU.+X#X(.Y..X{.).U.+X.Xh.8.a $ 0XFXZXZXPXZXMX6X6XP L N S > n 4 ",
"T N T U I R U Z R A k.v.& { ;.  7XnXCXCXBXnXnXCXVXFX4.  Q.z.h.F.S.P.P.{.'.P.I.5XI.P.W.D.%.e.a - qXLXDXGXPXUXNXvX6Xb H m D O 4 > ",
"%.W { o.[ [ o.S V  .F.m.& G ;.X mXnXnXCXnXVXVXnXCXFX4.X Q.J.j wXKXKXDXPXPXLXKXSXDXPXPXPX9X5.t - qXSXpXSXlXyXvXlXeXb L m S # n 4 ",
"v.v.c.=.=.c.=.=.=.k.G.v.* F C.X VXVXnXFXPXJXLXGXGXJX3X  !.i.x wXuXuX#X$XP.P.uX9XyXf.yXKXW.l a $ NXNX4.IXcXlXdXlX9Xb H M A # 4 2 ",
"v.N.m.v.v.v.v.j.m.m.v.v.* R 2.X NXFX7XbXCXCXCXCXbXnX2X: !.J.k wXXXP.tX$XK.s.uXrXyXL.uXKXF.l a $ wXPXrXDXGXDXzXDX0Xb L m A # 4 $ ",
"k.N.}.W.}.W.}.}.{.W.c.k.* Y A.X 9XUXNXnXVXFXFXLXVXUX,.X !.H.h rXSXHXHXSXHXHXHXSXHXKXHXSXN.l a o qXLXFXGXZXZXGXFXmXb M 7 A # n 4 ",
"c.C.A.S.E.C.E.D.E.A.v.v.- R 2.; 3.8XwXwXNX0X3X0X0XwX4X: !.z.6.9XuXvXvXwXuXlXlX9X}.yXDXSXm.l a o qXZXZXZXZXMX7XZXqXv L m A # 4 > ",
"%.@...v b $ $ $ H O.v.G.; Y 2.9 3.D.5X8X4XX.L @ . . 4.Q Q.z.7.G.x.F.0X9XiXP.uX4XiXP.AX8Xt 7.w X qXGXZXZXZXMXMXZXMXH M n S # , # ",
"E *.D...J 7 q A >.2.v.F.; I 2.= 8XvXvX9XH / 4.4X5X8X8XS !.z.j rXlXSXKXKXKXKXKXLXKXLXKXY r 9.q X 0XGXCXZXCXMXCXMXVX3X$ n S < n , ",
"C *.2.K J K / @.4.>.k.v.& I A.- 3.D.3.>.M H L 3.0X9X4X; !.z.k UXLXPXPXPXPXPXPXPXPXPXPXQ r 7.w o 0XZXZXZXBXbXbXMXMX3Xv 7 S O , # ",
"C +.S.b.b.%.X.X.3.c.k.m.; I A.= 5 $ % $ M ; , % . % % * !.z.x.m.v.b.v.Z.b.b.b.b.b.b.F.=.~ r.; & V ,./ / / / / ../ C 4 2 7 # n $ ",
"T Z U e & = + X ; =.m.v.* Z A.7 q C Z N N B Z S q N N R !.l.a.H.d.J.$X[.B./.B.J.J.J.V./.a.t.5 m 3 O 1 1 < 8 & O + 1 q 8 7 # , 2 ",
"U T 5 f -.T T ; M k.F.v.* G 2.7 q q 7 > 5 e ; $ $ q R q !.p.: * : : n._.R._.R.R.R.R.R.R./.p.: 4 7 C A V A m c < c , A 7 ; # # # ",
"Q Q Y E $.6 $.&XR.j.G.v.* G 2.7 7 e } j.$.@ n._.^.&X_.B !.9.g z ~ $.= &X-X:X-X-X:X-X:X:X:XH.. A 7 7 8 7 V m B.d./.#.J X.; > M , ",
"! A K ! X . g %X].N.G.v.* Z 2.2 6 { :.m.$.. R.-X_.:X>XB Q.k x n.-.c.q #X#X@XfXfX:X;X>X:XfXz.X N 7 o O - # m U.U.Y.z c K 4 # , # ",
"-.} $.S.#.z g f %.&.k.N.1 Z 2.2 0 7 4 $ # 5 B n d l.x Z !.l.: = : = e R.[./.=XhXfXkX;XaX=Xz.. ; 1 O ; 2 1 0 O 2 , , 7 m ; # 4 2 ",
"].oX}.}.].W.F.N.c.2.=.k.1 Z 2.O 0 q 7 q 3 9 & o + . . q ~.x : & o = O & < < $ R.*X@X@X@X*Xi.. 2 2 2 2 3 1 O + + + O O & 3 > n 4 ",
"q Y I C N m > O 4 T &.k.B I 1.+ & 2 ; # O o X = = O o & E.x n.n.b.^.b.b.n.b.n.n.OX*X*X*XaXx.X 4 < # o + . . O 8 5 5 8 2 2 2 4 # ",
"c c b ( ( ( ( ] P P c &.[ e ;.9 e 9 9 9 w w w 9 w w : a R.~ 9.i.i.H.a.a.z.H.s.a.e.i.r.r.9.k , 0 l a  .,.2.^.9 8 C m C 7 - 4 M , ",
"b _ ` <X` <X` ` ' 1X/ U 8 6 W.J.M.M.V.M.M.B.M.B.M.M.N.J./.d j w.9.w.q.8.8.8.0.6.q.8.8.7.6.7., y t.R D.aX;X-Xf % 2 3 8 2 - , n # ",
"H ) ` ` ` ` ` ` ` <X>.U - m oXJ./..X|. X.X.X.X.X.X.X.X|.].g 0.w.w.9.9.y.u.s.d.u.q.9.e.e.w.7.& 1 : 4 I p.x z 0 # 8 8 8 2 & 4 6 > ",
"V ( _ _ _ _ ] _ ] ` ,.R ; 7 W.'. X.X|. X.X X X.X X.X.X.XoXd 6.e.w.e.w.r.e.i.r.r.w.w.e.e.q.j # , 6 3 O % @ + 2 8 8 8 8 4 O 4 n n ",
"I b P ] ] _ _ _ ` ] T S - 4 oXXX X/. X X X X X X|. X X|.oXd 7.e.e.w.e.w.w.w.w.9.w.e.e.e.q.7.O 4 7 7 7 8 8 8 8 8 2 8 3 5 & $ > # ",
"} @ b ' ) ) ' ` ` _ +.T - 4 ].XX X X'.'. X X X X|. X X.XoXa 7.w.9.9.q.9.w.8.9.w.9.9.9.r.e.7.# 4 7 6 8 8 2 8 2 7 8 4 7 2 # 4 m # ",
"V < b ' ) ) _ _ ` _ &. .- 4 ]..X'. X|. X X X X X X X'.P.oXd 6.8.7.j j j j j j j 0.j u j 0.j O 4 6 8 8 8 8 8 2 A 2 2 7 2 & , n > ",
"V b H ) ) ) ) _ ` ] *. .O - ].XX X|.'. X|. X X X X X'.|.oXa y p p i i i i y i y i s i y p p O 8 7 6 4 8 8 8 8 2 # 4 8 2 & , > # ",
"e b H ' ) ) ) ) ) _ &.E - > ]..X|.'.'.'.'.|. X X'. X'./.oXa y p i d s d i i s s s s s s h p + > 7 7 7 7 6 7 2 7 8 8 8 4 - # 4 6 ",
"6 v b ) ) ) ) ' ) _ } Y $ O {.+X+X+X+X+X+X+XXXXX+X#XXX).oXa p d p p d p p d d s p d p p j p + & 2 2 - 2 2 2 2 2 8 2 2 2 O # # > ",
"C b P ' ' ' ' ' <X_ *.W - 0 B.j.n.j.j.n.j.n.x l.j.n.j.l./.d y i p p i i i i i p i i p i p p + + + X o + + X + + + X X + X # , # ",
", , v / H H H b H H Z 7 - q q . . . . . . . @ . . . . . z e : 3 * 3 3 3 1 9 1 1 3 2 : 3 : 9 O O # # # O O O O O O O O # O > , - ",
"< # < + + O O + O O < # > < @ , > > > > < , > , < , , , @ @ , , , < , , < , > < < , , < , , , 4 , > > , > 4 4 > , , > > , > 4 # ",
"O # > < # # # # # < # # > & < > # < > # # # > O > # # # # # # # # # # # # # # # # # $ # # # O # # # # # < # O < # # > O > # # O "
};
