/* XPM */
static char *result[] = {
/* columns rows colors chars-per-pixel */
"64 64 52 1 ",
"  c #4E3524",
". c #4F3927",
"X c #4E3D2B",
"o c #503625",
"O c #513927",
"+ c #543D2C",
"@ c #5C3F2D",
"# c #543F30",
"$ c #56422D",
"% c #5C442E",
"& c #5E482F",
"* c #564231",
"= c #5C4532",
"- c #5D4932",
"; c #5E4C39",
": c #63452E",
"> c #69462F",
", c #64492E",
"< c #6A4A2F",
"1 c #634632",
"2 c #694732",
"3 c #644A33",
"4 c #6B4C35",
"5 c #654C39",
"6 c #6C4E39",
"7 c #714E34",
"8 c #714E39",
"9 c #665135",
"0 c #6D5136",
"q c #66513B",
"w c #6D523A",
"e c #6F583C",
"r c #735236",
"t c #795536",
"y c #7B5837",
"u c #73543B",
"i c #79563B",
"p c #76593D",
"a c #7B5A3D",
"s c #6E5440",
"d c #745640",
"f c #795642",
"g c #765941",
"h c #7B5C42",
"j c #7F6042",
"k c #815C3C",
"l c #84623F",
"z c #815E41",
"x c #846243",
"c c #8A6543",
"v c #8C6845",
"b c #866348",
/* pixels */
"33;1$544;$+=5-35u=w40=iuuwp64h5--;=55q+w005=+==543u554>3w44a3624",
"3441+>4>-@:23%4rt+827$4163821e=-:-@533 3<21$:3:284u%447::>5d142r",
"38r1+4641@>43>4ui=u6p@52w48>2p$5,;$wt4.5741$14:68wu1u581114u144u",
"5iu5@4881%26510ui%86i122u48,2p-;11@du4o8r43@24:66uu386a4:3uu144r",
"4up4+7461@28610ua%u8i:24657>7r331=+uh4or44>%1u168uu5r4i6%u4t144i",
"3ui4+7441148u38iz%u8i34t6377>t3531#uf4o882::>p2wuui0tupu1i48>44r",
"3aa4+874112uw4wia3uua:<48:77<i3333=uh6.r82%34u3wudh5iuuu:48720<i",
"5ah6@772114dw3upz-aua3r441t77y2231@uauOr74%14r4uuuh2auuu<2444rry",
"5ih6%rr25@4iu5uph3apa3r5>@78ti6643*uhu+t461-4a4wupk0hpau7>:22rti",
"3uau%t4u118fd3uaz1xph1r2>:7ttt3r21#wiu+i8u1=4a4rupj4xpa074:>4rry",
"3pfg%76u1:4kg3upx:lha,t2::it7i5,13OdihOu7u110h00pfh4kah07<:19t7a",
"1gfg176u11ukp3ppx:xaz1<5::ytri46r=$uha+u4u1%rx0rgfk4xagu>>:40trk",
"1gfg=72811iku1ghx1lak2<<2:u7ia44u-=dffOr681@pz5wdhz4lxpi,4>83ura",
"3uhf=748@1pzg3uhx3vkh477>:ttiy8831=whh+r68==dzr6dfz4ljpa<4423rtl",
"5uff-766*5uhg3ghx,vhk0i2<%t7ia3i33*wgh+868=3dh0wfhz8ljatr<4:0rry",
"=6gf146816ihg1gix,vajwk27=uirk3t46@6ph#468=6uhrwdhzwvjhai44,9rtj",
"16fp=48815uip3ffc3vja0k4<3urra5y63%5ua$86814ui86fhzwvlppy0440rrj",
"24up1866168ip3iax1lpa0k5>>ktty3u36=4wa%u58=4wpu6ihx4lappy0<<7tyy",
"62wi:748168up3pzx3vakrz813katr-214:46a@468=5uuu5phz4xahai4>0rpyr",
"526f:756344ud3pfx3lpz<k4>4yrir3446%5qa-44815d685ghx4chapt7,r7rty",
"53wu3748100us1ghx,aez4y0>,kria345u=36a=r48=4u863hgx4kpaut4267trh",
"43wp-768-8ipw3pjx,kux,y52,ii8i664w=3qf=w3d=6up56hhl5luaet4>u<yry",
"q36a174u34iad3ghx-jpa4a454tiru286q=26h%83u16ip65hhh0aphwt<,p<pey",
"635h343436pau3ghx-pgawa22>ytiy$115=43h141u15uf62hhx9ppaut,4t0tpy",
"543a1434>5ias3ghx3ahx0a61,itit2155%54p1518%0uf45hgl0agzdt>,u4tpi",
"523h->2834aaw3ghx-iaz4i654puii5684-43p,424:6gf46ahj4hgfdi>5g5tpi",
"653h=45734piw3hfz-pia6y5r4rtra34u3-53u3226%6uh35xgz5ipput>0a3ura",
"411p=72732uiw3ggc=pga4t4044uui5uu3-33p,548-wwg65apz5upud7>ra3rii",
"465i=757324hu3hhv-ugf5r2000iui5u65-35g:52u=65a45jpbquugp7>8h3iri",
"645p1227144hd3hhc%uui8r3t5urui5384=44g1<1u=64f4dahx9usgg<:ri,ura",
"363p125832piq3ahc=upa0410,rrru336q-45p1428-6uh56hhx3rppp4<440rrp",
"033u=744:5giw3ahv@upa0<>7,ru8i3336:55u:428=4uh3whhx9rpau>:r06p0i",
"965u-24514puw1gjv&wph346u3ru7i34uw%4wu1328%4gg46hhb3wpaq348u4t0a",
"w54d1242%4uiw3jhx$wpu=22u0tr4i44w0:66u3214+qug45hhb3egp*168i2i0p",
"3q66=514%0ups3bhx-wh5=2404tr7i5336=5q434>3$0fh66hjx3qa4;>77i4p0r",
"35661412$5das3jjx*wp1=64u5tu8t5*35*36r34:1+08f6qjhj30p-;227i<prt",
",,3u-112$4upw3hhx&ea2:6205yt8u4-uq$33u1222+5up5wjhj99p43224g0rrp",
"3436-324%4upu3hhx%p0214443trtu333w$5381,14$6up46jhj90u5344480rri",
"333w%232%,tuw3hhx*ew3:62r3ru7i133q@3561331+60p,0hhj39u3-52000prp",
"%530%4>3-3uiw3hhj$p63:84r5ii8u53--#33w=343*0qh05hhh;eu1344ru<prp",
"3959%,33-3rpw3hzx%pw1@82t3urur46-4*93w%141+w5i5wphj;0u1322uu4uru",
"3305=,>3&6ufs3hhx$ww1:71p0yrr035&5=345$341$w8g0wghj306%6228p<uur",
"3333-31,-5uis1gha%wd1>61p3t6ru-4-5*6,0$251$9ug0qahh3rw1621tu<0pi",
"3333=14,=4uid-ghx%ud1>21i3ruit:413*335+343=wuue3pah3ue1522uu,rpi",
",53-=13:=6dpw%uah=dd2>41t4rr7u1433$6:3$163$qpu02uah3ue:u41tu2uei",
"33-3=%4:=6dpd=upg@882>62u300iu154w$q,3$321@6ud5;pip-0u152,ru,rwi",
"3,:%%:11-5dgd%wsg=dd2@41p3rru4=533=3%3+23:$wdg3%rue-wu112>uu,4wt",
"33%-=>&%-5ggw%ddh=8d4:42a3r4ru=143$313X33:$udd0;upp9uu2321up>u0u",
"%3&%=,-&:5upd-dfx%w65:4:a3t04i1333+1-3$3,%#wue93afh3uu312>iu<r9i",
"3:-%%33$:4upf=dfh$dw2:>>p67u7u113;+&%3+,,:$wddw;pph3u651%>up,r4i",
"%3-%%4:&&4pus%dgh%su7%:7a3r87u=3--X3-3X43:+uwdw-uha3u662%4ta,r4r",
"%3-%$,:&,5wup%upa=ud41:ta37<7w=30-$3%1.33%%u6sq3rpa;uu61:8iu,00r",
"&3%1$4%%3460w%wpa%uu2%,iuqr47r-133+&%3X3::$u6w93udf3wu41%uui<0rr",
"%-$-$33%&6wus&wpp$uw4@:au6r804-33;+-%;X3:%$w4u93uuf-uw4%%aup<<r0",
"&1$%*3%%=qq0d%9up$uu0$2i060484-3=3O3$3X1:,+uwq936dp%0w4&:urp,>ru",
"%-$%$,,1=660d%5pu$u44+2u43447t-,;-#-%;O1-,$qqq9366d-u64&:44p,40u",
"$%@1+>&,*6q0d&3ww$ww6+1u83848u--=;+%%=+1:3+0qq034wu%ww5=:6u6344a",
"$=@=#>%&*6q0w$9ww$wq4+34d1774u14=-+%==X=&,+05w9-56w-004@:48w:45i",
"&-+-+1&&*5w0w$3qe$q95@8t83<44t33=-O=#1X5%3$9004&63q,053%1d8u:44t",
"&$=-+,&&-5q0w$35wX095O47r5424u--=;X=*=X=&3$3qw--353%w33=:84p174u",
"%=#=*3-%=39ww$-39+q33+4>u38>4p=3-=+##=#;&&$3qw33343*q4-*:26u126u",
"$@#@X&-$=-99q$-,;$4-1+41u3u,3u=33=+#=*X%-&$133--&&3%93,*126p242u",
"#@#@$3%%$%3-0$&&3$3--+<2838>3w*-&-X#*=X%&:+--9--&&3*33%=2>4p14>r",
"@#=1$3&,%-3,q%&&3$&==+r45343>r;**=X*==X3&:%;33--&&9$3-%$415u251r"
};
