/* XPM */
static char *result[] = {
/* columns rows colors chars-per-pixel */
"64 64 29 1 ",
"  c black",
". c #202020",
"X c #2C2C2C",
"o c gray21",
"O c gray22",
"+ c #3A3A3A",
"@ c #3C3C3C",
"# c #3E3E3E",
"$ c #404000",
"% c #585400",
"& c gray26",
"* c #464646",
"= c #484848",
"- c #4C4C4C",
"; c gray32",
": c gray33",
"> c #646464",
", c #686868",
"< c gray44",
"1 c #7C7C7C",
"2 c #9B9C00",
"3 c #B4AC00",
"4 c #CCC300",
"5 c #E4D800",
"6 c gray55",
"7 c #989898",
"8 c gray62",
"9 c gray66",
"0 c #B4B4B4",
/* pixels */
"OOOOOOOOOOOOOOOOOOOOOOOOOOOOOOOOOOOOOOOOOOOOOOOOOOOOOOOOOOOOOOOO",
"OooooooooooooooooooooooooooooooooooooooooooooooooooooooooooooooO",
"O#++OoX#OOOOOoX#+OOOOoX#OOOOOoX#OOOOOoX#OOOOOoX#OOOOOoX#OOOOOOoO",
"O####o.X#####o.X#####o.X#####o.X&&**#o.X***##o.X#####o.X#+OO+OoO",
"O####ooO#####ooO#####ooO#####ooO&*-;#ooO**###ooO#####ooO+OOO+OoO",
"O####X....................................................O++OoO",
"O#####XXXXXXXXXXXXXXXXXXXXXXXXXXXXXXXXXXXXXXXXXXXXXXXXXXX.O++OoO",
"O+X,#*#OOOOOOOOOOOOOOOOOOOOOOOOOOOOOOOOOOOOOOOOOOOOOOOOOX.+X-OoO",
"Oo.X#*&@@@@@@@@@@@#@#@#@##&#&&&&&*&*&*&*&&&&###@@@@@+++OX.o.XOoO",
"OooO#**@@@@@@@@@@#@#@####&#&&&*&*&***&*&&&&###@@@@@++++OX.ooOOoO",
"O@@##*&@@@@@@@#@#@#@##&#&&&&&*&*&***&*&&&&###@@@@@+@+++OX.+@@OoO",
"O####-*@@@@#@#@#@####&#&&&*&*&*&***&*&&&&###@#@@@+@++++OX.+@@OoO",
"O####-&@@@#@#@#@##&#&#&&&*&*&*&***&*&&&&###@#@@@+@+++++OX.+@#OoO",
"O####-*#@#@#@####&#&&&&&*&*&*&***&*&&&&###@#@@@+@++++++OX.@@#OoO",
"O####-&@#@####&#&#&&&&&*&*&*****&*&&&&###@#@@@+@++++++OOX.@##OoO",
"O+X,#-*#@####&#&#&&&&&*&*&*****&*&&&&###@#@@@+@++++++O+OX.+X-OoO",
"Oo.X#-&###&#&#&&&&&*&*&*&*****&*&&&&#####@@@@@++++++O+OOX.o.XOoO",
"OooO#-*##&#&#&&&&&*&*&*&*****&*&&&&#&###@@@@@++++++O+OOOX.ooOOoO",
"O@@##-&#&#&#&&&&&*&*&*&*****&*&&&&#&###@@@@@+@++++++OOOoX.@@#OoO",
"O####-*&#&&&&&&&*&*&*&*****&*&&&&#&###@@@@@+@++++++O+OoOX.@##OoO",
"O####;&#&&&&&&&*&*&*******&*&*&&#&###@@@@@+@++++++O+OOo+X.@##OoO",
"O####;*&&&&&*&*&*&*******&*&*&&#&###@#@@@+@++++++O+OoooOX.###OoO",
"O####;&&&&&*&*&*********&*&*&&#&###@#@@@@@++++++O+OoOoO+X.###OoO",
"O+X,#;*&&&*&*&*****&***&*&*&&#&###@#@@@@@++++++O+OoOoOoOX.+X-OoO",
"Oo.X#;&&&*&*&*****&***&*&*&&#&###@#@@@@@++++++++OoOoooOOX.o.XOoO",
"OooO#;*&*&*&*****&***&*&*&&#&###@#@@@@@++++++++O+OoooO+OX.ooOOoO",
"O@@##;&*&*******&***&*&*&&#&#####@@@@@+@++++++O+OoooOOOOX.@@@OoO",
"O####,*&*******6000000099#&#####@@@@@+@++++++O+OoOoOoO+OX.#@@OoO",
"O##&&,&*******#>=::>><169&#####@@@@@+@++++++O+OoOoooO+OOX.@@+OoO",
"O#&&&,***245*#o.=.6:>O017#####@@@@@+@++++++O+OOOoooO+O+OX.@+oOoO",
"O&&&&,**@$%5&@o.===::>><7####@#@@@+@++++++++O+OoooOOO++OX.@OoOoO",
"O+X,&,*@o$%4*Oo.====::>>7###@#@@@@@++++++++O+OoooOoO+O+OX.OX&OoO",
"Oo.X&,&oO$%4&Oo.=====::>6##@#@@@@@++++++++O+OoOoooO+O++OX.o=XOoO",
"OooO*-#o;$%4*Oo.O.%335::6#@#@@@@@++++++++O+OoOoooO+O+++OX.ooOOoO",
"O@@*--+o-$%3&Oo...%  3=:6@#@@@@@+@++++++O+OOOoooOOO+O++OX.oo+OoO",
"O*--;&+o-$%3*Oo...%  3==6#@@@@@+@++++++O+OOOoooOOO+O+++OX.oO+OoO",
"O--;;&+o-$%3&Oo...$..3==6@@@@@+@++++++O+O+OoOoooO+O++++OX.oO@OoO",
"O-;;,#+o*$%2*Oo...$$%%==6@@@@+@++++++++O+OoOoooOOO+O+++OX.oO@OoO",
"O;,,,#+o*$%2&Oo.......==1@@@+@++++++++O+OoOoooOOO+O++++OX.O+#OoO",
"O-&8,#+o*$%%*Oo.......==1@@+@++++++++O+OOOoooOOO+O+++++OX.OX-OoO",
"O#.&,#+oOo$%&Oo.....O===1@@@++++++++O+OOOoooOoO+O+O++++OX.o.XOoO",
"O##-,&+oooo&&Oo...:O=.<=<@@+@++++++O+O+OoOoooOOO+O++++@OX.ooOOoO",
"O--,;&+ooo&&&Oo...OOO===<@+@++++++O+O+OoOooOOOO+O++++++OX.o+@OoO",
"O8,;;&+oO&&&#Oo.........=+@++++++++O+OoOoooOoO+O+O++++@OX.O+@OoO",
"O,;;-*++&&&&#Ooooooooooo+@++++++++O+OOOoooOoO+O+O++++@+OX.+@#OoO",
"O;;---+&&&&##OOOOOOOOOO@@++++++++O+OOOoooooOOO+O++++++@OX.+@#OoO",
"O;-**,+&&&#######@#@@@@@++++++++O+OOOoOoooOOO+O+O++++@+OX.@@#OoO",
"O+X,*,#&&#######@#@@@@@++++++++O+O+OoOoooOoO+O+O++++++@OX.+X-OoO",
"Oo.X*,*&#######@#@@@@@++++++++O+O+O+OoooOoOOO+O++++++@@OX.o.XOoO",
"OooO*,-#######@#@#@@@+@++++++++O+O+OoooooOOO+O+O++++@+@OX.ooOOoO",
"O@@**,-######@#@#@@@+@++++++++O+OOOoooooOOO+O+O++++++@@OX.@@#OoO",
"O***&,-#####@#@#@@@+@++++++++O+OOOoOoooOoO+O+O++++++@+@OX.@@#OoO",
"O**&&,-####@#@#@@@+@++++++++O+O+OoOoooOoOOO+O+O++++++@@OX.@@#OoO",
"O&&&&,-###@#@#@#@+@++++++++O+O+O+OoooooOOO+O+O++++++@@@OX.@@#OoO",
"O&&&&,-##@#@#@#@@@++++++++O+O+O+OoooooOOO+O+O++++++@+@@OX.@##OoO",
"O+X,&,-###@#@#@@@++++++++++O+OOOoOoooOoO+O+O+O++++++@@@OX.+X,OoO",
"Oo.X&,-##@#@#@@@++++++++++O+OOOoOoooOoOOO+O+O++++++@+@@@X.o.XOoO",
"OooO#,--------------***&&&###@@++@@@##&&&***********&&&&o.ooOOoO",
"O@@##,,,,,,,,,,,,,,,;;;;---**&&&&**--;;;;;;;;;;;-------*Oo@@#OoO",
"O#############@@@@++++++++OooooooooOO++++++@@################OoO",
"O####+X,#####+X,@+++++X&+OooooX+oooO++X&+++@#+X,#####+X,#####OoO",
"O####o.X#####o.X+++++o.XOooooo.XoooO+o.X++@@#o.X#####o.X#####OoO",
"=####ooO#####ooO+++++ooOOoooooooooO++ooO++@##ooO#####ooO#####Oo=",
"::::::::::::::::::::::::::::::::::::::::::::::::::::::::::::::::"
};
