/* XPM */
static char *result[] = {
/* columns rows colors chars-per-pixel */
"64 64 133 2 ",
"   c #151025",
".  c #1C1122",
"X  c #13112B",
"o  c #161C2D",
"O  c #191C2E",
"+  c #171734",
"@  c #161E34",
"#  c #1A1E31",
"$  c #1D1A39",
"%  c #211523",
"&  c #261B35",
"*  c #172034",
"=  c #1C2134",
"-  c #1F2339",
";  c #222436",
":  c #23263A",
">  c #28273F",
",  c #25283D",
"<  c #2A2A3E",
"1  c #3C2030",
"2  c #322D3D",
"3  c #33303F",
"4  c #43363E",
"5  c #533D3E",
"6  c #70433D",
"7  c #7A453F",
"8  c #7A483E",
"9  c #262A40",
"0  c #2C2D42",
"q  c #2A2F48",
"w  c #302F42",
"e  c #2E3045",
"r  c #2E3249",
"t  c #333245",
"y  c #3A3545",
"u  c #3D3846",
"i  c #34354A",
"p  c #393649",
"a  c #36394E",
"s  c #3C3A4C",
"d  c #363A51",
"f  c #3C3D51",
"g  c #413744",
"h  c #433A46",
"j  c #4B3D44",
"k  c #403748",
"l  c #433D4B",
"z  c #4A3E4A",
"x  c #513F43",
"c  c #503F49",
"v  c #413E51",
"b  c #603740",
"n  c #3F4054",
"m  c #4F4047",
"M  c #44404E",
"N  c #4C424D",
"B  c #544145",
"V  c #5C4647",
"C  c #53444C",
"Z  c #5A464B",
"A  c #54484F",
"S  c #5D494C",
"D  c #5F564E",
"F  c #434253",
"G  c #4A4553",
"H  c #4E4955",
"J  c #444559",
"K  c #494759",
"L  c #4C495A",
"P  c #524552",
"I  c #544A54",
"U  c #5C4D54",
"Y  c #544D5A",
"T  c #5B4F5B",
"R  c #5E5257",
"E  c #54515F",
"W  c #5C515C",
"Q  c #604546",
"!  c #664946",
"~  c #634A4B",
"^  c #6B4C49",
"/  c #734F49",
"(  c #73534F",
")  c #7B554E",
"_  c #624E53",
"`  c #635257",
"'  c #6A5253",
"]  c #61545F",
"[  c #6C565C",
"{  c #6D5A5D",
"}  c #765450",
"|  c #7B5757",
" . c #715857",
".. c #795856",
"X. c #7C5D5B",
"o. c #69625F",
"O. c #4E4D60",
"+. c #555262",
"@. c #6B5B60",
"#. c #6E5F69",
"$. c #7E5E60",
"%. c #776566",
"&. c #7B6162",
"*. c #726E65",
"=. c #7A656E",
"-. c #7C6B77",
";. c #845D54",
":. c #8A5F54",
">. c #825E5A",
",. c #826950",
"<. c #85635F",
"1. c #8C635B",
"2. c #936558",
"3. c #8C6761",
"4. c #916862",
"5. c #9A6F68",
"6. c #867063",
"7. c #9D716B",
"8. c #836F7A",
"9. c #A37261",
"0. c #AD7363",
"q. c #9C8867",
"w. c #BC9B72",
"e. c #FFBC6E",
"r. c #F6B573",
"t. c #FFC770",
"y. c #FFCC77",
"u. c #BEB08E",
"i. c #FBE48F",
"p. c #FFFFB6",
"a. c #FFFFD4",
"s. c #FFFFEE",
"d. c #FFFFF1",
/* pixels */
"O O O o o o o O O O o o O o o O O O o o o O # # = = * # * = = O = O # # O # * # # # O O o o O O O O O o o o O O O O o o o o o O ",
"O * O o o o o O O O O o o o O O O O o o o O # # # = = = = = = = = = = = = = = # # # O O o o O O # O o o O O O O O O o o o o # # ",
"o O o O o o o o O o o o o O o O O O O O o O O O * = = = * * # @ * # * * # = = = # # o o o o O O # O o o O o o o o o o o o o o o ",
"; : ; ; ; ; ; = ; ; ; , ; ; ; 2 < ; : : ; ; ; : , < < - X   . . % % . X + # : : > ; ; ; : < ; : 2 ; ; ; ; , ; = ; ; ; ; ; ; , ; ",
"e s i < t i t , 3 i 3 2 3 3 t 3 w w G k y p y y y 2 0 m o.@.=.8.8.-.#.{ *.D ; t w y y y u N y < 3 t t e 2 e i t ; 2 i 3 2 3 n < ",
"i n s < n F p < n 3 n 3 n m n < w y k h c z c ] N 2 p B u.a.s.s.s.s.a.p.i.,.& l l G c P h k y w 3 u M s t s u i < n n n 3 n n n ",
"n J s t n K s p n u M M H I G n P l w j =.@.@.@.C z ` P C 6.w.e.t.y.r.q.Q & y C U [ { %.z < M H M F I H M M M u u n G n 3 n n n ",
"s s s t y M s u n 3 n h n M M A I N w k ] _ U I z z N A C 2 1 6 7 7 b $ > y y k z I ` ` k t N I H N M M s u u n 3 n n i 3 3 n i ",
"y p t 3 i n p t u 3 n 3 3 3 n h u u k u j h g c c j l u m B B m m B B ^ ( V x ^ S k j j u g u u M u u 3 y t i u 3 n n t 3 i i t ",
"s L F s F H F u n G M M A A A N z N P C _ C c ' ' S Y N A X.X.;.X.1.;.2.9.) ^ 1.>.C c T C G z N N C H N M M G M 3 n H F p F L M ",
"s f p p n M u t u n 3 4 h M u n l j l z I c j S C j 5 ! V ! ^ ! ! ^ ! V Q B j C Z c z Z z l z h h u M h u y s y 3 3 M n i s n p ",
"s p n s K F u n n N u 3 M N 3 j I z y m _ ' _ _ S ' ;.! / 2.1./ ^ :.2.( ! ;.' Z _ ' _ ' m y z U m u M G 3 u G M n n G G s M p s ",
"l p F v M G n u M G h 3 A N u N A N y B ' '  ._ Z ~ ( ! ^ 1.) / ! ) :.^ ! ( ~ B _  .' ' m y z A N u N H 3 u G M s l F G l F s l ",
"p s p y n M u t y u h u u M N M g g h h m m C C x j B S V 5 ^ 5 4 ^ B V ~ B j B C B B m j g u u M N M u u M u y y l F s t s l p ",
"G E G l H +.L M G H Y H M R o.R C A R R U S ' ' ' ' X.3.<.( 0.) B 0.( <.3.X.' ' ' [ U R U R I C R o.R h H I H N M L +.L l G Y G ",
"s s y p u M n t u u u 3 3 u m M h M h m B N C C c j x Z B x ~ B 4 ^ x B B B j C m C N m j j z u l N h y 3 p p u y s l s p p s a ",
"p t s p y p y y 3 n 3 3 M n 3 n 3 4 h j I A z N N j Z ~ S ' ^ ~ ' ^ ' S ~ Z z N N z C I j h 3 u y y s s 3 y n 3 n 3 3 3 n 3 u u ",
"l p F l p u M s h n n 3 M h 3 h m h h N S A m N M z Z S B _ ~ S _ ~ ^ Z S Z h N N z C U C h g M h p M M 3 n n 3 M N n 3 M M 3 n ",
"p l s p u n s y y n n y h n u n M n 4 m A m N C m h c S Z B S 5 4 S j B S C h z A z m A N h h N u s l u i u M y 3 n n n 3 n M u ",
"H +.L l L E G l M H M N A H A A D I R { [ _ [ &.[ _ $.5.4.| 7...x 7.| 4.5.$._ [ $. ._ { [ ` I R I I I H G G H M M H I H M H E H ",
"s M n u M M s t y n n 4 n m M M N h z C I C A U C h x S S B _ B 4 ~ B Z S x j A U I C A C N h N N M M M h M n y 3 s M M u n l u ",
"u u u t u s u t u u 3 n 3 n M u u y t y z z l z z z P N C A z S ` C A N N P z z N z l l y t y p u l M u y i u u y t s p p u s p ",
"l F G M n n u u M n u n M N G N M z l k N G G C z C U U I _ U ` [ _ _ I I U C z G N C G h l z M N G N M M s M M u u s n l F M M ",
"u s 3 3 3 t t 3 3 y t u 3 u u u u t u l k h k l u y s z g h N m h m h h l h y k h h k k h u t u u u p t y t 3 t 3 t y y 3 y s u ",
"F F s s J F s w y s n F u n M G p 2 G I z l G Y F u C Y N z @.Y C +.N C Y G u l Y H h M I M 3 y M M n s n M n i e n M G a s F G ",
"s l a a v f s w t s s a u n M M t 2 M M u y l M p 2 u z u h z l l C u u z u 2 u M M p u M M 3 t M M s s s s u t 3 u n n i a s n ",
"p s s a s s a p i y 0 y 3 t p 3 y 3 3 3 u s u s t y s l l l z l h z l l l s p y s p u u 3 3 3 t s i t y t e t i i u s i a s s y ",
"s J F v a v v v L F t i n n n n s l 3 t F F M M l s G H G G G G N H F H G G l s M n M M y 3 n u p n n M i t F L n n n a f F J s ",
"y s p t t s p t s i t t t t p i t i 3 t u u s s t t w 2 k z l h l l l p 2 t t y u u p u 3 2 p t t s t t y e a s t p p t t p s y ",
"F K k s J K f s n J n s 3 u G G i s n M M s F F F F s y G W Y Y T T +.P y s F v G H n M n n n p G G a 2 s f J s p f K K s s G F ",
"s v w t v v s t i s i i < t n p t t u s s i l M s p y p l z l l G l z v y t p s n 3 y y u n t t t n i 2 p p a a t s v v t p s s ",
"w t p w t t w w t i 3 i a a t y t p p t s u u s p u G l G G G l k G N G l G u p n 3 n n 3 3 y y t p a i t w p t t w t p w t t w ",
"u n n n n n r n n n n n M n n n v F F v K G K K v v +.] +.] ] c l ] W +.T W v v K G K G v v n M n n n M n n 3 n n n n 3 n n n 3 ",
"i p 3 t 3 i i 3 < 3 3 3 i n 3 t y t t p s p k k y t k v v z v v l z z v v k w p v s y s p t e y y i p i 3 < 3 e < < n 3 3 i n i ",
"n F y 3 n n n 3 n n n 3 n n y i a e t s l p v v v v v c c O.L Y Y K G G z v v v v k p f f t t s y p n a n n n n n n n u t p n n ",
"F F i 3 n n n i 3 n n 3 3 n n n s t p f s s k v z k v v K c K c G z G G v l l z v k s l s s t s n n n p 3 3 n n 3 n n n 3 y F M ",
"t 3 t e < 3 3 3 3 e 3 < e e e e y t e e t p p v a t y p k t k k p s y p v y w p s p t t w t t t < 3 e 3 < e 3 i e t t t e 3 3 e ",
"n i n s n n n e n n < n a n a i s n i t v v v v v d v v v v L v p P s F K s a v J v v v t i v v t n n n i e n n i u n n n n p a ",
"y t t t e n n < e e , 3 t t e e t i t 3 t p t i i w w p p t p k y p t p p w w i i t p p w t t t < e e i < < e i < t i i t i e i ",
"r t i e q n e < 3 q < 3 e 2 t a e < < e p t i t w w 0 w i i i r p p p t 0 0 t w t p w t w 0 9 t n e < < e 3 e < 2 i a i t i t e ",
"s n F a J J J a y f a s t i n n n e a i n n n n k d q i k v v k s f v f i e i a v v v v a p t d J n i t s s f y i J K n a n n s ",
"t t i 0 i a p 0 0 r e e r e e a t e t t n e 3 t i w w w i r w k y w t t t 0 e i a t t a i e e i i e e e e < r r 2 a a i t a t t ",
"i i d p p d a p a s < e i a < t a i < i n t e i i q a f v i i K L t p f v i r i i 0 i v i 0 i a t e i a e 9 p a r a a a p d a i ",
"a a a i i i i t a s < 0 i t t i p t e e a i t t w > r v a r w v v 0 w s s t 9 0 i t i i e 0 t a t e i y 0 9 a a i i a t i a a i ",
"i i 0 < r i 0 9 0 0 < 9 0 9 r i i 0 0 0 t e t e > > i r p p i w t p s i t i 0 0 r e r t > 0 0 e t t e e 0 < 0 0 > 0 i i 9 9 i t ",
"J f t t n J f w t a a s i i f f a i p t n n a s a v J v J O.K k s O.O.J v v f a a v v v i i a d n d a e a a s i 0 d O.f t t f J ",
"i i 0 0 a a i 0 r t t 0 e e t t i 0 i 0 i i e e q i t t i p k r 0 s s t i t q e w 0 r r w w t t e e e e 0 t r t 0 r d s 0 0 i d ",
"i 0 0 0 0 0 r 9 0 e 9 < 0 e 0 0 0 9 0 w w 0 t t w w t t i r i a w i 0 i i i w e t t t t t r > 0 < e e < < 9 0 0 0 0 0 0 0 0 0 t ",
"0 0 i i e i a i a i w w t t t a t 0 a a i i k d i e k d k r k a a p w v d v w i f d i a a p 0 r a t t t < e a i i i i r i i t r ",
"0 i 0 0 e r e > e e 9 > 0 0 e i 0 0 0 t t 0 e t e w 0 0 r r r i r r w q 0 > w q w w w w r r 0 0 a e < e , < r e < e t e < 9 t 0 ",
"i v t 0 v v e 0 r w 0 0 r r i d i t 0 0 a p a a a v t w v n v v k v v v w e v d a a i d w 0 i i a i e r e e e e e e n n 0 t f p ",
"t i 0 0 d v e > 0 0 9 0 t 0 0 0 e 0 0 0 r i i r r r w > r p r i r r p w > w i r t i t w 0 0 0 0 r e e e < < < e < e s f 0 0 i r ",
"i 0 0 r e r e 0 0 i 0 0 0 e 0 r e 0 e e 0 t i q 0 0 p t t p p i i p p i t p 0 > t i t e 0 i 0 0 r < e e < e r e 0 q i e w 0 q t ",
"f i d f a a i r i d d i i f d f d r d i d s f s 0 t d i v v v k k v v v a d t w i f a a i a i i f a d a a r a a r i a i f d t J ",
"r 0 q r e q 0 0 0 q 0 0 0 i t e t 0 e 9 0 t w w > > 0 t 0 w t w w t > w r 0 0 0 0 e e r 9 t r r e t r < e e e e 0 0 e e e 0 0 i ",
"i v i 0 i v i 0 i i e 9 0 i e e d r 0 0 i d q i d t t J i r v a v v r i n t t i i e i a 9 0 i a e e a e < e r r 0 i d d 0 d f t ",
"0 s i 0 i d r 9 0 q 0 9 0 i 0 p d r 9 0 i i 0 w e e w f i 0 s i i i w i v w q t r r i p 0 9 r a a e e e : r r r 0 0 a i 9 i d 0 ",
"9 0 q , 0 0 0 : 9 0 9 , < 0 , < 0 , , 9 0 0 9 q 0 0 9 e 0 0 0 0 r > 0 t q > 0 > 0 0 0 9 9 , 0 9 < < < < : < 9 , & 0 e 9 9 0 0 0 ",
"a i r i i d i 0 i d i q r r r r r 0 q r r q i a i i t d d a i i v r a d d r i a i r r r q q 0 0 e e r r r t d r 0 d a d i i i a ",
"9 0 q 9 0 r 9 , q q : : 9 0 , < 9 : 9 0 q : : 9 9 > , 9 0 9 , , > > > > 0 > > > 9 , : q 0 9 9 9 9 < e 9 : , e q 9 9 q 0 9 9 0 0 ",
"9 0 q $ : r r , q e : : r e , q q - ; 9 q : : 0 9 9 9 q 9 r d r ; d i 9 0 9 > 9 9 , : 9 9 : - 9 q 9 e e , : e q : q q : & q q 9 ",
": 9 , $ ; 9 9 * < 9 : ; < : - - , - : q , - 9 , 9 : 9 : , 9 0 9 : 0 9 : > > 9 $ < , : 9 e , - , - - , , ; : 9 9 $ 9 q ; $ 9 9 $ ",
"o o o o O O O o O * # # # o # O # o # # # @ # # O = + # # O O # * @ # * # * @ $ O O * * * O O # o # * * O O # # o o o o # o # o ",
"; - ; : ; = ; = = = = - ; - - - - - = - - = = = # * # $ = = * # = # O # # # # # * = - - = - - ; - ; = = ; $ ; = = ; ; ; ; ; = $ "
};
