/* XPM */
static char *_d99bd984d114667a2a7fa2a80ec8671GTjwa3SzDRCL8kkt[] = {
/* columns rows colors chars-per-pixel */
"64 64 236 2 ",
"   c #030605",
".  c #0A0606",
"X  c #040807",
"o  c #040708",
"O  c #050909",
"+  c #0A0B0B",
"@  c #140E0D",
"#  c #1D0C0C",
"$  c #160607",
"%  c #0C0F10",
"&  c #0E1010",
"*  c #0A1213",
"=  c #131313",
"-  c #1A1112",
";  c #161A1B",
":  c #1B1B1B",
">  c #161818",
",  c #10100F",
"<  c #2C0B0C",
"1  c #27090A",
"2  c #3B0101",
"3  c #350B0C",
"4  c #360607",
"5  c #290E10",
"6  c #360F11",
"7  c #2C1414",
"8  c #2E1D1C",
"9  c #241615",
"0  c #321314",
"q  c #3C191B",
"w  c #3B1618",
"e  c #2E201E",
"r  c #1E1F20",
"t  c #291F22",
"y  c #3F1F20",
"u  c #1C2223",
"i  c #1E2628",
"p  c #1D2A29",
"a  c #1A3132",
"s  c #222223",
"d  c #242729",
"f  c #242A2C",
"g  c #2A2B2D",
"h  c #2E2625",
"j  c #342A29",
"k  c #2C2E32",
"l  c #242D32",
"z  c #2D3133",
"x  c #2B3438",
"c  c #343435",
"v  c #343639",
"b  c #35393B",
"n  c #3B3B3C",
"m  c #3C3437",
"M  c #37312D",
"N  c #440303",
"B  c #4D0305",
"V  c #48090B",
"C  c #530404",
"Z  c #5B0202",
"A  c #5B0A0B",
"S  c #540709",
"D  c #560E12",
"F  c #431315",
"G  c #4D1213",
"H  c #411A1B",
"J  c #49171A",
"K  c #541314",
"L  c #5C1314",
"P  c #56181A",
"I  c #4A0F11",
"U  c #640102",
"Y  c #6C0101",
"T  c #640B0C",
"R  c #6A0B0D",
"E  c #650708",
"W  c #750102",
"Q  c #7B0304",
"!  c #7B060D",
"~  c #7A090E",
"^  c #6A0C10",
"/  c #7D0D12",
"(  c #760B12",
")  c #621214",
"_  c #681619",
"`  c #77161A",
"'  c #481E21",
"]  c #591E22",
"[  c #6A1D21",
"{  c #7B1B21",
"}  c #4E2528",
"|  c #59252A",
" . c #443738",
".. c #5C3E3E",
"X. c #692227",
"o. c #793139",
"O. c #6C3034",
"+. c #373D44",
"@. c #523D40",
"#. c #723C41",
"$. c #3C4347",
"%. c #3E4B51",
"&. c #444444",
"*. c #4A4A4A",
"=. c #484548",
"-. c #524E4E",
";. c #5E4F4F",
":. c #495357",
">. c #535252",
",. c #5A5151",
"<. c #545559",
"1. c #494B52",
"2. c #6A484A",
"3. c #7B4B4E",
"4. c #754549",
"5. c #6C4D50",
"6. c #734E50",
"7. c #7A4D50",
"8. c #625153",
"9. c #6D5053",
"0. c #725154",
"q. c #555B62",
"w. c #576268",
"e. c #6A6B6C",
"r. c #707477",
"t. c #6E5B63",
"y. c #840102",
"u. c #8C0001",
"i. c #84070B",
"p. c #840A0D",
"a. c #89080C",
"s. c #930103",
"d. c #9C0202",
"f. c #97080B",
"g. c #840C13",
"h. c #8A0C12",
"j. c #8B0710",
"k. c #950C15",
"l. c #8A151B",
"z. c #93151B",
"x. c #98161B",
"c. c #A30103",
"v. c #A8060A",
"b. c #A30D14",
"n. c #AB0E12",
"m. c #AC0A16",
"M. c #B60A16",
"N. c #A51116",
"B. c #AD1015",
"V. c #A31419",
"C. c #AA161B",
"Z. c #B9121C",
"A. c #B3131C",
"S. c #B7040A",
"D. c #881D24",
"F. c #971C24",
"G. c #A31C23",
"H. c #B81B25",
"J. c #82282C",
"K. c #9C2229",
"L. c #89353D",
"P. c #9A2F35",
"I. c #AC2833",
"U. c #B92A36",
"Y. c #A4333C",
"T. c #AF222A",
"R. c #CD0917",
"E. c #CE0D1B",
"W. c #CC0511",
"Q. c #D90614",
"!. c #D50E1D",
"~. c #D70917",
"^. c #C6121D",
"/. c #D7101F",
"(. c #C91A24",
"). c #D31423",
"_. c #DB1424",
"`. c #D41C25",
"'. c #DC1827",
"]. c #D61D29",
"[. c #DD1C2A",
"{. c #DC1728",
"}. c #E11D2C",
"|. c #E11423",
" X c #C8232D",
".X c #DB222B",
"XX c #D5222C",
"oX c #C92A36",
"OX c #DC2532",
"+X c #D72A35",
"@X c #D5333B",
"#X c #E22533",
"$X c #E12C35",
"%X c #EB2B3B",
"&X c #E52A3A",
"*X c #E7333B",
"=X c #8E3D41",
"-X c #933B43",
";X c #D63844",
":X c #E63843",
">X c #F23947",
",X c #F53B49",
"<X c #83474B",
"1X c #824B51",
"2X c #8A4A52",
"3X c #954B53",
"4X c #965259",
"5X c #B7535B",
"6X c #AA4B52",
"7X c #D5414A",
"8X c #DD4651",
"9X c #CC5159",
"0X c #F2424E",
"qX c #EB4856",
"wX c #F64552",
"eX c #EA535D",
"rX c #DE5C64",
"tX c #F75966",
"yX c #EC5866",
"uX c #E3666D",
"iX c #E66C75",
"pX c #E96E78",
"aX c #FE6E7A",
"sX c #F86876",
"dX c #EB717B",
"fX c #FE717E",
"gX c #F9606B",
"hX c #D46A73",
"jX c #FC7884",
"kX c gray51",
"lX c #FF8691",
"zX c #F78B95",
"xX c #FF959F",
"cX c #EE868F",
"vX c #FE96A1",
"bX c #FDB3BC",
/* pixels */
"*.*.*.*.*.*.*.*.*.*.*.*.*.*.*.*.*.*.*.*.*.*.*.*.*.*.*.*.*.*.*.*.*.*.*.*.*.*.*.*.*.*.*.*.*.*.*.*.*.*.*.*.*.*.*.*.*.*.*.*.*.*.*.*.",
"*.*.*.*.*.*.*.*.*.*.*.*.*.*.*.*.*.*.*.*.*.*.*.*.*.*.*.*.*.*.*.*.*.*.*.*.*.*.*.*.*.*.*.*.*.*.*.*.*.*.*.*.*.*.*.*.*.*.*.*.*.*.*.*.",
"*.*.*.*.*.*.*.*.*.*.*.*.*.*.*.*.*.*.*.*.*.*.*.*.*.*.*.*.*.*.*.*.*.*.*.*.*.*.*.*.*.*.*.*.*.*.*.*.*.*.*.*.*.*.*.*.*.*.*.*.*.*.*.*.",
"*.*.*.*.*.*.*.*.*.*.*.*.*.*.*.*.*.*.*.*.*.*.*.*.*.*.*.*.*.*.*.*.*.*.*.*.*.*.*.*.*.*.*.*.*.*.*.*.*.*.*.*.*.*.*.*.*.*.*.*.*.*.*.*.",
"*.*.*.*.*.*.*.*.*.*.*.*.*.*.*.*.*.*.*.*.*.*.*.*.*.*.*.*.*.*.*.*.*.*.*.*.*.*.*.*.*.*.*.*.*.*.*.*.*.*.*.*.*.*.*.*.*.*.*.*.*.*.*.*.",
"*.*.*.*.*.*.*.*.*.*.*.*.*.*.*.*.*.*.*.*.*.*.*.*.*.*.*.*.*.*.*.*.*.*.*.*.*.*.*.*.*.*.*.*.*.*.*.*.*.*.*.*.*.*.*.*.*.*.*.*.*.*.*.*.",
"*.*.*.*.*.*.*.*.*.*.*.*.*.*.*.*.*.*.*.*.*.*.*.*.*.*.*.*.*.*.*.*.*.*.*.*.*.*.*.*.*.*.*.*.*.*.*.*.*.*.*.*.*.*.*.*.*.*.*.*.*.*.*.*.",
"*.*.*.*.*.*.*.*.*.*.*.*.*.*.*.*.*.*.*.*.*.*.*.*.*.*.*.*.*.*.*.*.*.*.*.*.*.*.*.*.*.*.*.*.*.*.*.*.*.*.*.*.*.*.*.*.*.*.*.*.*.*.*.*.",
"*.*.*.*.*.*.*.*.*.*.*.*.*.*.*.*.*.*.*.*.*.*.*.*.*.*.*.*.*.*.*.*.*.*.*.*.*.*.*.*.*.*.*.*.*.*.*.*.*.*.*.*.*.*.*.*.*.*.*.*.*.*.*.*.",
"*.*.*.*.*.*.*.*.*.*.*.*.*.*.*.*.*.*.*.*.*.*.*.*.*.*.*.*.*.*.*.*.*.*.*.*.*.*.*.*.*.*.*.*.*.*.*.*.*.*.*.*.*.*.*.*.*.*.*.*.*.*.*.*.",
"*.*.*.*.*.*.*.*.*.*.*.*.*.*.*.*.*.*.*.*.*.*.*.*.*.*.*.*.*.*.*.*.*.*.*.*.*.*.*.*.*.*.*.*.*.*.*.*.*.*.*.*.*.*.*.*.*.*.*.*.*.*.*.*.",
"*.*.*.*.*.*.*.*.*.*.*.*.*.*.*.*.*.*.*.*.*.*.*.*.*.*.*.*.*.*.*.*.*.*.*.*.*.*.*.*.*.*.*.*.*.*.*.*.*.*.*.*.*.*.*.*.*.*.*.*.*.*.*.*.",
"*.*.*.*.*.*.*.*.*.*.*.*.*.*.*.*.*.*.*.*.*.*.*.*.*.*.*.*.*.*.*.*.*.*.*.*.*.*.*.*.*.*.*.*.*.*.*.*.*.*.*.*.*.*.*.*.*.*.*.*.*.*.*.*.",
"*.*.*.*.*.*.*.*.*.*.*.*.*.*.*.*.*.*.*.*.*.*.*.*.*.*.*.*.*.*.*.*.*.*.*.*.*.*.*.*.*.*.*.*.*.*.*.*.*.*.*.*.*.*.*.*.*.*.*.*.*.*.*.*.",
"*.*.*.*.*.*.*.*.*.*.*.*.*.*.*.*.*.*.*.*.*.*.*.*.*.*.*.*.*.*.*.*.*.*.*.*.*.*.*.*.*.*.*.*.*.*.*.*.*.*.*.*.*.*.*.*.*.*.*.*.*.*.*.*.",
"*.*.*.*.*.*.*.*.*.*.*.*.*.*.*.*.*.*.*.*.*.*.*.*.*.*.*.*.*.*.*.*.*.*.*.*.*.*.*.*.*.*.*.*.*.*.*.*.*.*.*.*.*.*.*.*.*.*.*.*.*.*.*.*.",
"*.*.*.*.*.*.*.*.*.*.*.*.*.*.*.*.*.*.*.*.*.*.*.*.*.*.*.*.*.*.*.*.*.*.*.*.*.*.*.*.*.*.*.*.*.*.*.*.*.*.*.*.*.*.*.*.*.*.*.*.*.*.*.*.",
"*.*.*.*.*.*.*.*.*.*.*.*.*.*.*.*.*.*.*.*.*.*.*.*.*.*.*.*.*.*.*.*.*.*.*.*.*.*.*.*.*.*.*.*.*.*.*.*.*.*.*.*.*.*.*.*.*.*.*.*.*.*.*.*.",
"*.*.*.*.*.*.*.*.*.*.*.*.*.*.*.*.*.*.*.*.*.*.*.*.*.*.*.*.*.*.*.*.*.*.*.*.*.*.*.*.*.*.*.*.*.*.*.*.*.*.*.*.*.*.*.*.*.*.*.*.*.*.*.*.",
"*.*.*.*.*.*.*.*.*.*.*.*.*.*.*.*.*.*.*.*.*.*.*.*.*.*.*.*.*.*.*.*.*.*.*.*.*.*.*.*.*.*.*.*.*.*.*.*.*.*.*.*.*.*.*.*.*.*.*.*.*.*.*.*.",
"*.*.*.*.*.*.*.*.*.*.*.*.*.*.*.*.*.*.*.*.*.*.*.*.*.*.*.*.*.*.*.*.*.*.*.*.*.*.*.*.*.*.*.*.*.*.*.*.*.*.*.*.*.*.*.*.*.*.*.*.*.*.*.*.",
"*.*.*.*.*.*.*.*.*.*.*.*.*.*.*.*.*.*.*.*.*.*.*.*.*.*.*.*.*.*.*.*.*.*.*.*.*.*.*.*.*.*.*.*.*.*.*.*.*.*.*.*.*.*.*.*.*.*.*.*.*.*.*.*.",
"*.*.*.*.*.*.*.*.*.*.*.*.*.*.*.*.*.*.*.*.*.*.*.*.*.*.*.*.*.*.*.*.*.*.*.*.*.*.*.*.*.*.*.*.*.*.*.*.*.*.*.*.*.*.*.*.*.*.*.*.*.*.*.*.",
"*.*.*.*.*.*.*.*.*.*.*.*.*.*.*.*.*.*.*.*.-.,.9.9.0.6.6.7.7.3.3.3.3.3.3.3.3.3.3.6.6.9.8.,.-.*.*.*.*.*.*.*.*.*.*.*.*.*.*.*.*.*.*.*.",
"*.*.*.*.*.*.*.*.*.*.*.*.*.*.*.*.*.9.5.5X5X6X6X4X4X3X2X2X1X1X1X1X1X1X1X1X1X2X2X3X3X3X6X6X6X6X6.8.*.*.*.*.*.*.*.*.*.*.*.*.*.*.*.*.",
"*.*.*.*.*.*.*.*.*.*.*.*.*.*.*.*.#. .b v z g f f d d p d i i i i i d d d f f g g g l z x v b n @.9.*.*.*.*.*.*.*.*.*.*.*.*.*.*.*.",
"*.*.*.*.*.*.*.*.*.*.*.*.*.*.*.=Xs s u s s u s s s u : : r g g d d g k g s d d g g g g k z k z l O.8.*.*.*.*.*.*.*.*.*.*.*.*.*.*.",
"*.*.*.*.*.*.*.*.*.*.*.*.*.*.1XP u s c : s u e : r d n &.&.n d d d g n &.&.&.&.n g g g k g n k v l P.*.*.*.*.*.*.*.*.*.*.*.*.*.*.",
"*.*.*.*.*.*.*.*.*.*.*.*.*.>.l.g d : kX= d s s e : *.*.*.*.*.*.*.=.*.-.*.*.*.*.n g g g z g *.*.$.b | <X*.*.*.*.*.*.*.*.*.*.*.*.*.",
"*.*.*.*.*.*.*.*.*.*.*.*.*.I.' d d e.*.: s s s s s v *.*.*.>.*.*.*.*.>.*.*.*.*.n g g k k k n *.n c n D.,.*.*.*.*.*.*.*.*.*.*.*.*.",
"*.*.*.*.*.*.*.*.*.*.*.*.6.k.p g g <.> *.v : s s r v *.*.>.*.&.&.&.&.*.<.>.*.v g g k k d r.c *.&.b c } Y.*.*.*.*.*.*.*.*.*.*.*.*.",
"*.*.*.*.*.*.-.9.-X'.4.*.G.s d k d : s n b u u u u u g e.-.*.g ; ; ; v r.*.*.b c b b b b <.b g z v c a J.8.*.K.Y.1X,.*.*.*.*.*.*.",
"*.*.*.*.*.*.4.I.H.N...8.o.t c j h h M h e e e e 8 8 8 9 9 9 8 8 8 e 8 9 8 8 j  . . .@.=. .-.m j M m c P 9X;.[ A.T...*.*.*.*.*.*.",
"*.*.*.*.*.*.>.>.-.P.C.(.`.Z.H.H.N.b.b.f.C.n.n.n.n.n.n.n.B.n.B.n.B.B.B.B.n.n.n.n.n.B.B.A.N.N.b.b.b.A.Z.M.^.n.z.3.>.*.*.*.*.*.*.*.",
"*.*.*.*.*.*.*.*.>.@X:X X:X0X>X>X*X$X$X$X$X:X$X#XOXOX.X.X.X.X.X.X.X.X.X.XXX.X.X`.`.`.XX`.`.`.].XX.X.X+X+XH. X(.9X*.*.*.*.*.*.*.*.",
"*.*.*.*.*.*.*.<X=XeXdXzXyX`.;X7X8X8X8X8XrXcXdXiXiXiXiXiXiXiXiXiXiXiXiXiXiXiXuXuXuXuXpXrX7X;X;X;X@XoX^.+XjXpXqX+XL.,.*.*.*.*.*.*.",
"*.*.*.*.*.*.8.9.jXjXsXtX0X+XbXvXxXxXvXvXxXjXaXjXjXjXfXfXfXfXfXfXfXfXfXaXaXaXaXaXaXsXtXjXlXlXlXlXlXvXuX:XwXtXsXjXjX0.*.*.*.*.*.*.",
"*.*.*.*.*.,.0.tX:XOX'._.).`.yXtXwXwXwXwXwX,X%X#X%X%X%X%X%X%X%X%X%X%X%X%X%X%X%X%X#X#X%X>X>X>X>X>X,XgX:X].].[.[.&XqXsX3.*.*.*.*.*.",
"*.*.*.*.*.<X}._./.E.E.E.E.E.E..X}.}.}.}.}.}.}.).).'.'.'.'.'.'.'.'.'.'.'.{.{.{.{.`.[.[.}.}.}.[.}.#X].).).).).).)._.|.=X8.*.*.*.*.",
"*.*.*.*.4.#.X.z.A.E./.'.OXOX+XOX_.~.!.!.!.!.!.!.E.!.!././././././././._._._._._.'.'.{.{.'.'.'._.].XXOXOX[.{.).^.x.{ } 5.,.*.*.*.",
"*.*.*.6.4Xn :.:.<.2.L.U.+X&X:X:X:XXXR.W.W.R.R.E.R.E.E.E.E.E.E.E.E.E.E.E.E.E.).).).).).).).).).+X+XOXOXXXoXY.4.,.:.:.+.2.6.*.*.*.",
"*.*.*.7. .h f 1.<.w.w.e.t.2XY.U.oX;X;X).W.W.W.Q.Q.Q.!.Q.Q.Q.Q.Q.Q.Q.Q.~.~.~._.|._._._.).).].oX X XI.-X0.e.w.w.q.1.v k M hX8.*.*.",
"*.*.,.;X9 h =.k k k g z x x z t w D.+X#XE.M.v.f.j.j.p.i.! ! ! ! ! ! ! ! ! i.g.h.k.b.A.^.[.@XU.J 8 f x x z g k k c v +.9 Y.8.*.*.",
"*.*.6.v.3 d %.%.+.$.i l u ; %   4 b.^.z.3 @ + X                                   + + # _ XX X` . o > ; f f l $.$.:.l 8 k.3.*.*.",
"*.*.o.u.a.L.o.o.O.} q q 0 < 4 U c.S.~ + % + & X O O O O O X O . O + O + X X X X X + = & + I A.S.s.N < 0 q q ' | O.o.L.J.f.N.*.*.",
"*.*.^ y.f.qX:X(.v.c.d.u.u.u.s.s.u.Q + + = = + X X X X X X X X X X X X X X X X X X X = = = O D c.d.s.s.u.s.d.c.c.M.+XqX Xs.s.-.*.",
"*.*.) Q W I.8X@XA.v.s.u.u.u.u.u.i.# & = = = + + + + + + + + + + + + + + + + + + + + + = = = + R d.u.u.u.s.d.d.n.H.;X7Xp.y.u.>.*.",
"*.*.L Y U U p.F.G.G.V.V.k.k.f.C.< + = = = + . + + + + + + + + + + + + + + + + + + + + = = = = @ l.f.f.k.V.C.G.G.F.z.Q U Y y.>.*.",
"*.*.L Y U Y Y W Q p.h.h.z.z.z.F.+ + = = = + + + + + + + + + + + + + + + + + + + + + + = = = & O P z.z.z.h.g.p.i.Q Q W Y U W -.*.",
"*.*._ U U Y W Q i.j.p.g.h.g.g.g.` y - = & o o o o                             o o o O + + - 8 ] / ! ~ p.i.p.a.a.i.Q Q Y U U *.*.",
"*.*.O.U U S N S T / g.g./ g.g.g.h.x.z.l.` ` _ _ _ P K G J F F w w F F F G G P P _ _ _ ` ` l.K.h.~ / / ~ ~ g./ ^ A V V R U U *.*.",
"*.*.2.U T # + = @ 7 K ` 3 $ # 1 1 4 4 N V B C C S A A A T T T T R R R T T T A S S S B N 2 4 4 1 1 1 $ $ ) ) 6 # @ + + G U R *.*.",
"*.*.;.U D + = = = & , 6 _ 3   o o o o o o O O O O O X X . X . . . . . . X X O O O O O O O o o O O   $ D G # & & = = % 1 U ^ *.*.",
"*.*.,.U C + = = = = = % < _ P + O + + + + + + + + + + + + + + + + + + + + + + + + + + + + + + +   q _ V @ & = = = = = $ Z ) *.*.",
"*.*.>.U D.& = > : = = = + # _ o..     o X + + + + + + + + + + + + + + + + + + + + + X o O o   X ] J.3 + + = = = > + + J R L *.*.",
"*.*.>.Z l.F = g >.<.>.*.&.$. .) / V 1 @ + + O O O O O O O o o o o o o o O o o O O O O + + @ 3 R / H v n n &.&.=.b + + D.E } *.*.",
"*.*.*.J Y h.# * : d d g g g g : 4 S T T A ) L K K K G G G G G G G G G G G G G K K L L ) T T T N # d g g g d s r = * R ( Z  .*.*.",
"*.*.*.H Z ! i.F 9 @ + + + + + + O o + $ # 7 7 0 q q q q H H H H H H H H q q q q w 0 7 9 $ + O O * + + + + + @ - 6 R i.C C n *.*.",
"*.*.*.j C U i.H.U.I.K.F.l./ ( R E ^ B B N N 2 2 2 2 2 2 2 2 2 2 2 2 2 2 2 2 2 2 2 2 N N N B A E E R ( / l.z.F.G.H.j.Z C 4 $.*.*.",
"*.*.*.n - < V R 5XoXoX X(.Z.M.M.v.A.N.y.Q Y U Z Z C C C C C C C C C C C C C C C C Z U Y y.f.A.d.v.m.m.M.Z.H.H.9X` N 3 @ + *.*.*.",
"*.*.*.n + + + O > 9 7 w | X.X.X._ P w 5 @ @ % & & & & & + + & & & & & % + + & & & & + @ 1 6 G L _ [ X.| w 0 1 >           >.*.*.",
"*.*.*.*.s + X X X       u g i u ; ; ; ; ; : : : : ; ; ; > > > > > > > > > > > > ; ; ; ; ; ; ; ; u i f z +             X = *.*.*.",
"*.*.*.*.g       X X o X + & = = = > > > > > > > = = = = = = = = = = & = @ = = = = = = = = = = = = = , + +             > *.*.*.*.",
"*.*.*.*.*.&.c g d s s r : : : : : : : : : : : : : > > > > > > > > > = = = > > > > > > > > > : : : : : : : s s d g g n *.*.*.*.*."
};
