/* XPM */
static char *result[] = {
/* columns rows colors chars-per-pixel */
"64 64 151 2 ",
"   c #1E0303",
".  c #250404",
"X  c #2D0302",
"o  c #350203",
"O  c #3B0202",
"+  c #430102",
"@  c #4B0101",
"#  c #550101",
"$  c #5D0001",
"%  c #640000",
"&  c #6B0001",
"*  c #740001",
"=  c #7B0101",
"-  c #6B1C1C",
";  c #741C1C",
":  c #7D3D3A",
">  c #830101",
",  c #8B0101",
"<  c #940101",
"1  c #9B0101",
"2  c #A40101",
"3  c #AB0101",
"4  c #B40101",
"5  c #BB0102",
"6  c #861F20",
"7  c #822325",
"8  c #8A2626",
"9  c #8A2929",
"0  c #8B302F",
"q  c #803132",
"w  c #893032",
"e  c #803835",
"r  c #953C3D",
"t  c #C30101",
"y  c #CB0100",
"u  c #D40000",
"i  c #D90000",
"p  c #C41F1E",
"a  c #CD1F1F",
"s  c #D01F21",
"d  c #CC2120",
"f  c #C3282A",
"g  c #C8292A",
"h  c #D72F2F",
"j  c #CA3433",
"k  c #D43636",
"l  c #D03C3C",
"z  c #8B403F",
"x  c #D5403F",
"c  c #894446",
"v  c #844545",
"b  c #944345",
"n  c #9C4E52",
"m  c #8B5150",
"M  c #925251",
"N  c #9C5152",
"B  c #A25758",
"V  c #A45C5D",
"C  c #A95C5B",
"Z  c #A26365",
"A  c #A86769",
"S  c #AA6E6F",
"D  c #AD7274",
"F  c #A37E7C",
"G  c #CB4040",
"H  c #C44748",
"J  c #D64F51",
"K  c #C95E5E",
"L  c #D75859",
"P  c #C96567",
"I  c #CC6A6A",
"U  c #DD6161",
"Y  c #D56868",
"T  c #D9706F",
"R  c #D77271",
"E  c #DE7B7C",
"W  c #AC7F83",
"Q  c #AD8081",
"!  c #B08C8E",
"~  c #BB9192",
"^  c #BF9799",
"/  c #B09999",
"(  c #BCB1B2",
")  c #B6B6B9",
"_  c #B8B7BB",
"`  c #B6B9BC",
"'  c #BABBBD",
"]  c #D18C8F",
"[  c #DB8282",
"{  c #CF8E90",
"}  c #C09795",
"|  c #C99C9B",
" . c #DB9694",
".. c #D99E9C",
"X. c #C5A5A5",
"o. c #D5AAAD",
"O. c #DCA4A4",
"+. c #C4B1AE",
"@. c #CBBBBD",
"#. c #D3B2B3",
"$. c #DEB6B4",
"%. c #D7BBBB",
"&. c #E2A8A7",
"*. c #E2AEAD",
"=. c #E0B4B3",
"-. c #E4BDBC",
";. c #E6C0BE",
":. c #BDBDC1",
">. c #E5BEC0",
",. c #C2C3C5",
"<. c #C5C6C9",
"1. c #C8C5CA",
"2. c #C7C8CA",
"3. c #CBCBCD",
"4. c #D4CBCD",
"5. c #DECACA",
"6. c #D5C2C3",
"7. c #CECED1",
"8. c #D0CFD1",
"9. c #CED2D5",
"0. c #D2D2D4",
"q. c #D5D6D9",
"w. c #D8D7DD",
"e. c #D7DADC",
"r. c #DADBDD",
"t. c #E7C0C0",
"y. c #E9C5C7",
"u. c #EACED0",
"i. c #E2D4D4",
"p. c #EBD5D5",
"a. c #E9D9D7",
"s. c #E1D9DA",
"d. c #E9DBDC",
"f. c #DDDEE1",
"g. c #E0DFE4",
"h. c #DEE1E3",
"j. c #E2E2E5",
"k. c #EAE3E3",
"l. c #E9EAE7",
"z. c #E6E6E9",
"x. c #EAE6EA",
"c. c #E7E8EB",
"v. c #ECECED",
"b. c #F0EEEE",
"n. c #EFF0EF",
"m. c #F1F0EE",
"M. c #EEEEF1",
"N. c #F0EFF2",
"B. c #EFF1F2",
"V. c #F1F1F3",
"C. c #F9F8FC",
/* pixels */
"M.v.M.M.v.v.v.v.v.M.v.M.q.j.v.v.v.v.v.M.v.M.N.M.M.v.v.b.q.j.N.b.v.b.v.N.N.N.N.N.N.v.b.b.j.0.b.v.N.b.b.N.V.M.M.V.v.b.v.N.g.0.v.M.",
"~ r.v.x.l.v.v.l.v.v.v.b.0.j.v.c.v.v.v.v.v.v.v.v.v.v.x.v.0.g.v.b.v.b.N.N.b.b.b.v.b.b.v.b.j.8.b.v.v.m.b.v.V.N.M.v.b.v.M.M.g.4.v.x.",
"% ; r ^ s.c.c.v.v.c.c.c.0.r.z.z.c.c.c.c.x.x.c.c.c.c.v.v.0.f.z.z.z.x.c.c.v.v.c.v.v.c.x.v.j.7.x.c.l.l.k.l.v.c.c.v.c.c.x.x.f.,.! e ",
"= * & % ; b Q @.2.<.2.2.2.2.2.3.3.3.2.2.,.:.<.3.3.7.3.7.3.<.,.<.,.1.,.,._ :.:.:.:.:.:.:.:.:._ ` ` ` ' ' ' ' :.:.:.' ' / v - $ % ",
"1 , = = * * & * 0 ~ 6.v.m.b.b.b.m.m.v.V.0.g.N.M.v.M.v.v.M.V.B.M.V.v.B.V.' M.M.v.v.v.v.M.v.v.x.v.c.c.v.v.,.c.v.s.+.M ; # % % $ % ",
", 1 < , = = = = * & % 7 n X.i.v.v.v.v.m.3.v.v.M.v.M.v.M.v.M.M.M.M.M.V.M.' C.M.M.v.v.v.v.M.v.v.b.v.M.M.x.( F : - # # % $ $ % , 4 ",
"= > , < , > = = = = = * * * * 9 C } y.v.7.x.N.v.v.b.v.N.M.M.M.M.v.V.N.M.' V.c.v.v.v.v.v.v.M.x.z.@.W c - # $ $ $ $ $ % * < 5 t , ",
"< , = > , , > = = > > = = = * * * * & 7 9 V | #.i.x.N.V.N.N.B.M.V.V.V.V.' V.V.N.b.z.5.#.~ M : % $ $ $ $ $ $ $ % * , 3 t 5 < % @ ",
"& > , = = , , > = = = > > > > > > = = = * * & * * * 8 r N V A S D D D D Z Z B b 8 % % % $ % $ $ $ $ $ & * > , 2 4 t 4 < & # @ @ ",
"2 = * > > = > , , = * = = > > > , , , > > = = * * * & * * & * & & & & & % % % % % $ $ % $ $ % & = > 1 1 3 4 5 5 2 > % % @ @ * 3 ",
", 2 < & = > * = > , , = & & & * = > , < 1 1 < < < > > > = = * * * & * & * & & & * = = , , 1 1 2 3 3 4 4 3 2 , & % % # + & 1 5 < ",
", = 1 2 > & * = * * > < < = & & & % & * * > > < 1 1 1 1 1 2 1 1 1 1 1 1 1 1 2 3 3 3 3 3 3 3 3 3 2 1 < > * & % % % # % < t 2 * & ",
"3 2 = > 3 1 * & * * * * > , , > * % % % % % & * * = = > < < < 1 1 1 2 1 2 1 1 1 1 1 < , , , > = = & % % % $ $ # & 2 5 3 * & * * ",
"$ < 3 > = < 2 < * & * * & * = , , > = & & % % % % % % % % % & * & * * * * * * * * * * & & % % % % $ $ # # % > 4 5 2 = % & * * * ",
"= $ > 3 < * = 1 2 , * & & * & * = , , , , = * & % % % % % % % % % % % % % % % $ $ $ $ $ $ $ $ $ # # & * 1 t 5 1 = % % & * - * & ",
"2 < % - 1 3 , * = < 1 , * & & & & % * > , < , > = & * & % % % % % $ % $ $ $ $ $ $ # $ # $ $ % & < 2 5 5 3 = & $ % & & * & & & & ",
"= 1 1 * % = 2 2 > & = < 1 , = & & & & % & * > , < , , > > * * & & & & % % % % % & & * > , 2 5 t 5 1 = * % % % & % & * & & % & % ",
"= * < 1 , % % , 2 < = & * < < , > & & & & & & * = > , 1 1 1 1 1 < < < < 1 1 2 2 3 4 t 5 4 2 < = % % % % % % & & & & & % * * % # ",
"4 , * > 2 2 = $ & , < , = & & > , < < = * & & $ % % % & * > , < < 1 2 2 2 2 1 1 < , = * & $ $ $ % % % % % & & & & & * * & & * 1 ",
"< 3 < * * < 2 , & % * > < , > * & * = , , , > = * & % % % % % % & % & % % % % $ $ $ $ $ $ % $ % $ % % % % & * & & & % % % > 3 2 ",
"% = 3 2 = & = 1 1 > % $ & = > , > * % & & * = > , > > = * * & % & & % % % % % % % % $ % % $ % % % % % & & & & & % $ % = 1 3 < , ",
"* % & < 2 , & & , 2 2 > & % % * = = > * * & % % % & & * * * * * & & & & % % & % % $ $ % % % % % % & & & & & & % % = 1 2 1 , , , ",
", > & % > 1 2 = & * , 1 1 , % % % & * * * * & & % % % % % % % % $ $ $ $ % % % $ % % % % % & & & & & % % % $ % = < 2 1 < , > * & ",
"1 , > & % * , 1 < * % * , 2 3 , = % % $ & & * * * * & & % % % % % % % % % % % % % % % & % % % % % # $ % * = < 1 1 < , , = * & % ",
"5 3 < , * % % = , < , * % & > 1 2 1 > * % % $ % % & & & & & & & & % % & % % % & % % % % % $ $ $ % & = , 1 2 1 < < > * & & & # # ",
", 2 4 1 , = & % & = > < , * % * = 1 2 2 1 , * & $ $ % $ $ % % $ % % % $ % $ $ $ $ $ $ % % & * = , 1 2 1 < < , > * & & & % # # ; ",
"* = 1 4 3 1 , * & % & = , , > * & & * , 1 1 2 1 < , > = * & & % % % $ % % % % & & * = > , < 1 1 1 1 1 , > * * % % & & # # & 3 u ",
"& & & , 3 3 2 1 > * % % % * > > = * & % & * > < 1 1 2 1 1 < < , , , > , , , < < 1 1 1 1 < 1 < < , > * & % & & & & % # % < y t , ",
"> * & & = 1 3 3 2 < > * % % % * * > > = * & % % & = > , , < 1 1 1 1 1 1 1 1 1 1 < < , > > = = * & % % & & & % $ $ % < t y 1 % % ",
"t < * & & * > 1 3 2 1 < > = % % % % & * = * * * & % % % % & & & * = = = = * * * * & % & % % $ % % & & % $ # # * 1 y u 2 * % & & ",
"1 a 3 > & & & * > 2 3 2 2 1 , = * & % % % % & & & & & & % % % % % $ % $ % $ $ % % $ % % % % % & % $ # # % > 2 y y 1 * % % & * * ",
"$ > y t < = & & % = , 1 3 2 1 1 < , = * & & % % & % & % & % & & & & & % % % % % % % % % % $ $ $ $ % > 1 5 y t < = % % & & * * * ",
"% $ & 3 y 5 , = & % * * , , 1 1 1 1 1 < , > = * * % % $ $ $ $ % $ $ % $ $ % $ $ $ $ % $ % & * = 1 3 t t 3 , * % % % & * * * * = ",
"& % $ $ > 5 y 3 , * % % & * > , < 1 1 1 1 1 1 < , > > = = * * & & & % & & & & * = = > , 1 2 5 5 t 4 1 > & % % % % * * * = * & + ",
"& * & % % & , t t 2 , = & % & * * > < < 1 1 1 1 1 1 < < < < < < < , < < , < < < 1 2 3 5 5 5 2 < = & % $ % % & & * * = = * # X O ",
"$ $ & & & % % * 1 5 5 3 , = * & % % & * = > , 1 < 1 1 1 1 1 1 1 1 2 1 2 2 2 3 3 3 2 2 < > * % % % % % & & * * * * * & $ O O @ # ",
"2 = $ - & & % % % = < 3 3 2 < > > & % % % % & * * > > , , 1 < 1 1 1 1 1 < , , > * & % % $ % $ % & & * * & * * * * % # + # # > 5 ",
"5 t 1 & $ $ $ & % % & * < 1 2 1 1 , > = * * % & % % % % % % % % % % % % % % $ $ $ % % % % & & * = * * * * * - & $ # # $ > 4 u y ",
", 2 t t 1 * % $ $ % % % * * > < < 1 < , > > = = * & & & & % % % % % % % & % & & & & & & * * = * = * = * & % % $ # & < 5 u i y 5 ",
", > 1 5 y t 3 > * % % % % % & * = > , , , , > > = = = = * * * * * * & * * * * * * * = = * = = = = * % $ $ $ % = 2 t u u y t 3 1 ",
"% = , < 3 5 t t 4 < > * % $ $ % % % & * = = > > > = = = = = * = = * = * = * = * = * = = = * & % $ # $ & > 2 4 y u y t t 4 < * $ ",
"< * & * > < 3 5 t 5 5 3 1 , = & % % $ $ % % % % * * = * = = = = = = = = * = * * * % % $ $ # # % * , 2 4 t y u y t 5 2 < * & * & ",
"t 5 1 > & & = , 2 5 5 5 t 5 4 3 2 < > * & % % % $ % $ % $ $ % $ $ % $ $ $ $ $ $ % % & * = < 2 4 5 t y y t t 5 3 < * & * % - O . ",
"t y t t 3 < * & & > 1 3 5 5 5 5 5 4 4 3 3 1 1 < , > > = = * * * * * = = = > , < 1 2 3 4 5 t t t y y t 5 3 < > & & & % # X   o & ",
"* 1 5 t t t 5 2 < * & & = , 2 4 5 5 5 5 4 4 4 4 3 3 3 3 3 3 3 2 3 3 3 4 4 4 5 5 5 t t t t t y 5 2 < > * & & % % # o . . @ $ % + ",
"$ @ $ > 2 4 5 t 5 4 2 1 , * & * * > < 2 4 4 5 t t t t t t 5 t t 5 t t t t t t t t 5 5 2 1 , = * & & & & % # + X o + @ @ O X X O ",
"5 1 * $ # $ = 1 3 4 4 4 4 3 3 < , = * & * * = = , , < 1 1 2 2 2 2 2 1 1 1 < > > = * * % & % & & & % # @ + + O O O O o X + @ * , ",
"5 t t 5 1 = % @ # & > < 2 3 3 3 4 3 3 3 1 1 , > > = & * & & & & & & & & & * * * * = * * * & % # # + + O o o o O + @ $ * < 4 y u ",
"O.H p 5 t t 5 2 > & $ # $ % & > , 1 1 1 1 1 1 1 1 1 1 1 < < , , , , , > = = = * * % % $ $ @ + O O O + O + @ # % = 2 t y u y t 4 ",
"V.M.z.$.P g t t y t 5 3 , > % # @ # # $ % * = = > > > = = = = = = * * % % % $ $ # @ @ @ @ + @ + @ # % * > 3 4 y i u y t f Y =.g.",
"v.v.v.v.,.N.d.*.R l p y y y t 4 3 , > & % % # # # # # # $ $ # $ # # # # # @ @ # # # # $ % & * , 2 4 t u i i y a l R &.p.b.b.b.b.",
"7.3.3.3.,.w.0.0.8.0.4.#.{ Y G d y u i u y t 5 3 2 1 1 < > > > > > = = > , < < 1 3 3 5 t y u i i i y d l K ] o.4.7.0.9.7.1.3.3.8.",
"l.l.l.l.l.c.c.x.x.c.c.M.<.j.c.l.k.;.&.[ U J k i y u i u y u y i i u u u u i i i u i i h G L E  .y.d.c.v.v.l.z.z.c.c.c.c.r.q.c.c.",
"l.v.v.l.l.v.v.v.M.N.v.b.3.h.l.l.l.v.l.v.v.v.c.x.k.d.a.p.%.-.;.-.t.>.-.>.y.u.i.d.g.x.x.M.f.f.M.M.n.v.v.b.m.b.v.m.v.m.l.m.s.r.c.b.",
"v.v.v.v.v.v.v.v.v.v.v.N.3.j.v.v.v.v.v.v.v.v.M.M.v.M.v.b.7.f.v.v.v.v.c.v.M.c.M.c.v.z.M.c.z.f.M.M.N.b.M.b.N.v.M.v.v.v.v.v.h.r.b.v.",
"v.v.m.M.m.V.N.M.v.v.v.V.2.l.n.m.b.v.v.b.v.b.v.N.N.M.l.m.9.g.v.m.v.B.M.B.M.M.N.M.M.M.M.M.h.f.V.B.V.m.V.V.V.V.V.V.m.m.n.n.l.r.m.v.",
"r.f.r.f.s.f.f.j.f.f.r.r.,.0.q.q.r.r.r.r.g.s.f.j.h.f.e.r.,.3.7.9.9.9.9.9.9.9.9.9.9.9.9.q.9.3.w.e.r.w.r.r.q.q.q.q.q.q.0.9.9.7.r.e.",
"f.f.j.j.,.z.j.g.g.g.h.f.j.f.r.f.f.g.g.j.<.c.c.j.j.j.h.h.z.h.e.f.f.f.h.h.` h.f.f.f.r.e.r.f.h.e.f.w.w.r.r.@.q.r.r.r.e.r.e.f.f.f.f.",
"M.N.M.M.0.C.N.M.v.v.v.v.n.n.v.N.N.N.V.V.8.V.V.V.V.B.M.B.B.B.V.m.B.B.V.V.` C.B.N.V.N.V.V.B.M.M.M.v.b.n.V.,.v.v.n.v.n.v.n.n.v.M.M.",
"c.M.v.v.3.B.M.v.v.v.v.v.M.v.M.M.M.M.M.M.7.V.c.M.n.v.M.M.v.M.M.v.v.B.v.B.' V.M.M.v.v.b.v.M.M.M.c.b.v.v.v.,.c.v.c.v.v.v.l.v.v.v.c.",
"M.N.v.M.8.V.M.v.c.M.M.M.v.M.B.M.M.M.M.M.7.V.v.v.B.V.B.V.N.M.B.M.v.M.N.M._ V.B.V.v.n.n.m.B.V.v.n.v.v.m.V.,.M.v.v.v.v.v.v.l.v.v.M.",
"v.c.x.c.3.c.c.z.x.c.c.c.x.j.j.z.j.j.c.j.3.c.c.j.f.r.j.r.g.j.j.c.j.c.x.j._ c.j.j.h.s.r.r.r.h.r.f.r.r.r.h.:.c.v.c.l.l.c.l.v.v.v.c.",
"q.0.0.0.7.0.7.7.7.8.8.0.,.2.9.3.3.7.7.7.7.8.7.<.2.1.<.<._ :.2.7.3.3.3.3.2.0.3.,.,.,.,.,.:.' ,.,.,.,.,.,.3.7.9.8.0.0.0.q.0.3.q.q.",
"M.B.M.M.V.N.V.M.N.M.N.V.q.k.V.V.N.N.N.M.N.N.V.V.V.V.V.V.f.j.V.V.V.V.C.N.V.N.V.V.m.V.V.V.c.q.n.m.V.V.V.V.V.V.N.v.V.b.V.b.j.0.v.n."
};
