/* XPM */
static char *result[] = {
/* columns rows colors chars-per-pixel */
"64 64 138 2 ",
"   c #450301",
".  c #4C0101",
"X  c #540101",
"o  c #5C0101",
"O  c #640101",
"+  c #6C0101",
"@  c #740101",
"#  c #7B0101",
"$  c #7E0F10",
"%  c #7E1314",
"&  c #751C1C",
"*  c #7A1B1C",
"=  c #7C2322",
"-  c #7B302D",
";  c #840101",
":  c #8B0102",
">  c #930102",
",  c #9B0102",
"<  c #9B0708",
"1  c #92080A",
"2  c #8C0F10",
"3  c #841112",
"4  c #8B1112",
"5  c #84141A",
"6  c #841E1E",
"7  c #8C1C1C",
"8  c #941213",
"9  c #9A1212",
"0  c #931D1D",
"q  c #9B1E1E",
"w  c #A40102",
"e  c #AB0202",
"r  c #A00808",
"t  c #B30102",
"y  c #BB0203",
"u  c #A31314",
"i  c #AC1D1E",
"p  c #B11B1C",
"a  c #BD1E1F",
"s  c #8D1D20",
"d  c #842828",
"f  c #8E2D29",
"g  c #932324",
"h  c #843A36",
"j  c #8B3B37",
"k  c #9A3434",
"l  c #903A38",
"z  c #A42121",
"x  c #AA2C2D",
"c  c #AC3D3F",
"v  c #B43B3C",
"b  c #BD3E3F",
"n  c #C40202",
"m  c #CB0203",
"M  c #D40304",
"N  c #D80405",
"B  c #D1060C",
"V  c #8F4848",
"C  c #964C4D",
"Z  c #9C4F4F",
"A  c #915553",
"S  c #9A5956",
"D  c #A45252",
"F  c #AF5453",
"G  c #A45B5A",
"H  c #B55757",
"J  c #B16365",
"K  c #AB7E79",
"L  c #B37777",
"P  c #BE7171",
"I  c #A98483",
"U  c #B68281",
"Y  c #BE898A",
"T  c #B69191",
"R  c #BE9294",
"E  c #B4ADB0",
"W  c #B1B2B6",
"Q  c #B6B7B9",
"!  c #B8B7BB",
"~  c #B6B9BC",
"^  c #BBBBBD",
"/  c #CC8382",
"(  c #C18D8D",
")  c #CB8C8D",
"_  c #C68F90",
"`  c #C29293",
"'  c #C89796",
"]  c #C69A98",
"[  c #C2A4A3",
"{  c #CAAFAF",
"}  c #C7B7BA",
"|  c #CBB8B9",
" . c #D4B7B9",
".. c #D8B8B9",
"X. c #BEBEC1",
"o. c #C0BFC4",
"O. c #BFC0C4",
"+. c #C2C3C5",
"@. c #C6C5C9",
"#. c #C9C6CB",
"$. c #C7C8CB",
"%. c #CACACD",
"&. c #D4C5C7",
"*. c #DBC4C4",
"=. c #DBCDCF",
"-. c #CECED2",
";. c #D0CFD3",
":. c #CED2D5",
">. c #D2D2D5",
",. c #D5D6D9",
"<. c #D9D7DB",
"1. c #D6D9DB",
"2. c #DADBDD",
"3. c #E0D1D1",
"4. c #E5DCDE",
"5. c #EAD9D8",
"6. c #D5D8E0",
"7. c #DDDEE1",
"8. c #E0DFE4",
"9. c #DEE0E3",
"0. c #DFE2E9",
"q. c #E2E2E4",
"w. c #E9E3E2",
"e. c #E9EAE7",
"r. c #E6E6E9",
"t. c #E9E7EB",
"y. c #E7E8EB",
"u. c #ECECED",
"i. c #F0EFEE",
"p. c #EFF0EF",
"a. c #F1F0EF",
"s. c #EEEEF1",
"d. c #F0EFF2",
"f. c #EFF0F1",
"g. c #F1F1F3",
"h. c #F7F6F9",
"j. c #F7F8FA",
"k. c #F8F8FC",
/* pixels */
"s.u.s.s.u.3.- u 4 % u 9 8 3 3 4 4 3 3 % 2 4 4 4 4 4 8 4 2 2 4 4 3 3 4 3 3 3 4 4 4 4 3 3 3 $ 3 3 4 4 3 8 8 4 % 4 9 u * % 5 S 4.s.",
"u.u.u.u.e.u.A w : @ w < , ; @ ; ; ; # # # ; : : : ; : ; : ; ; ; ; # # # # ; # ; ; ; ; # # # @ # ; ; # # > : , # > > : > ; O & C ",
"u.t.r.u.u.u.t.q > @ O n < ; # # : ; # # # ; : : : ; ; ; ; ; ; ; ; # # # # # # ; ; ; ; # # @ @ # : ; ; # # , : , # ; , ; , , ; O ",
"+.+.+.+.^ %.#.R w # O 1 y ; ; @ # : # # @ # : > : : ; ; ; ; ; ; # # # # # # # # ; : ; ; # # @ # ; : ; ; # ; w : , ; # > ; > , > ",
"u.u.s.s.o.d.u.u.c : @ + n > # > + ; ; # + @ ; , > ; # ; : ; ; ; # # # @ # # @ # # : ; ; # # # # @ ; > # : @ # w ; , : # > ; ; , ",
"u.u.u.s.X.g.u.u.=.g @ @ < e # : # # ; # @ O # , w ; ; ; ; : ; ; # # # # # @ @ # ; ; : ; ; ; # # # @ > > ; : # # t ; > > + : : ; ",
"u.s.u.s.X.g.t.u.u.( # @ ; B : ; > # ; ; # @ + # e , ; # ; : : ; # # @ # # @ # # # # : > ; ; ; # # @ + , : # > # # t : : , @ # > ",
"d.s.s.s.! k.s.u.i.u.k @ @ y y # : : # # # @ @ O : t > ; # ; : : ; # # # @ # # @ # # ; > > ; # ; # # + # , : # > # + e : : w ; @ ",
">.>.-.-.~ %.%.%.%.%.T 7 # > m : # , # @ # @ @ + + e t ; # ; > > ; # # # # # # # # @ # : , : ; # ; ; # O ; w : # > # # w > ; w > ",
"2.2.2.2.q.9.2.9.9.q.q.Z # # e t # : > + ; # @ + O ; m > # # : , > # # # @ # # + @ # # # , w ; # # : : # O : e ; # > # O w w ; , ",
"d.d.s.s.p.p.u.g.g.s.s.i.f # 1 m > ; , ; + # @ @ # O e y ; # ; , , # # # # # # # + # # @ ; e , ; # ; : : # O : w ; # : # O > t # ",
"s.u.s.s.s.s.u.i.s.s.d.d.| s ; e y ; : , @ + # # # O + n w ; @ : e : # # # # # # @ @ # @ # > y > ; # ; : : @ + : e ; # > ; o + e ",
"i.i.i.i.a.a.a.a.a.a.a.a.,.S # , y w # , > + + # + # o : B , @ @ > e ; # # # # : @ + # @ + # t t : # # : > ; @ + > w ; # : > O @ ",
">.<.,.>.>.>.>.>.>.;.;.,.+.-.l ; e t : # w : O # # O @ O t n ; + ; t , # # @ @ ; : + O # @ O ; y w ; # # : > ; @ O : w : # > w O ",
"X.@.$.#.W +.O.+.+.+.@.$.:.>.#.g > e w # : , @ O # + @ O @ m < @ @ , t ; # @ # @ > : O # # @ O : n w ; # # > > ; + O : e : # : w ",
"f.g.a.h.~ h.g.g.a.a.a.g.g.g.g.] 0 > e > # > : O O # + @ o ; M ; @ # t e # # # @ # w ; O @ @ @ O w m , # # ; > > ; @ O # e w + ; ",
"u.u.u.s.Q g.u.u.u.u.u.u.g.u.s.s.L q w e ; # , ; O + # @ @ X e n ; + # m : # # # # ; , + O # # O @ e n : # # ; , > ; + O # e w + ",
"s.u.s.g.~ g.u.d.u.p.a.u.u.g.s.s.s.J > w , # ; w ; O @ # # @ o N r @ + e n # # # # # : > + + ; + O @ t n : # # ; , > ; # o O w e ",
"u.s.u.u.Q h.s.u.u.u.u.r.u.e.e.u.u.r.0 > w : @ : w # O # # ; o O N > @ @ n y # @ @ # # , : O @ # O + # M t ; # # > w > ; # o O , ",
"X.^ O.+.~ +.X.+.^ O.X.+.^ $.$.$.$.@.} g , w : @ > w # O # # # . @ n # @ # M > @ # @ # # w : O @ # O O # m w ; # # ; w > : : O O ",
"r.u.r.u.u.t.e.t.u.t.t.t.7.7.s.s.u.u.u.*.q , > # @ , w @ O # # # . r e @ @ < n ; # @ @ @ ; < + O @ # + O ; M t ; @ # : e : ; : + ",
"u.u.u.u.u.u.u.u.u.u.u.u.2.2.u.u.u.u.u.e.( q > : # # e > O + @ ; @ X t 1 + + y t @ # # @ @ : , + O @ @ + O > M t ; # @ ; e > ; : ",
"u.s.d.u.u.u.u.u.u.u.u.u.7.1.u.u.u.u.u.u.u.' q , : + ; w : + @ O ; O o e @ + # B < @ # @ @ @ , > O O @ @ O + : M w ; # # ; e e : ",
"g.g.g.g.g.g.g.g.g.g.u.s.q.7.g.s.s.s.u.u.u.d.( q > ; O : e , + O O ; o @ t @ O ; m : @ # @ @ @ < : O O ; @ + O ; M t ; # @ # , t ",
"$.#.#.#.+.+.+.+.$.+.@.%.X.@.-.$.%.%.-.%.-.%.#.G 0 : # + > t : O O @ ;   1 e + O 1 N ; # # @ @ # w : O O # + O o @ y > ; # @ + > ",
"7.8.q.q.+.2.<.,.<.<.<.7.7.7.<.<.<.2.2.7.,.^ 7.7.U 0 ; # @ : t > O O # #   1 < O o ; n # : ; O @ : < : X + ; @ @ X X , < ; # @ + ",
"u.p.p.p.#.h.g.g.f.d.s.g.s.s.f.u.u.u.u.u.q.%.h.g.p.Y 0 ; @ @ > t < + + # # . < > O o : e ; < # O # ; 1 # o + ; # O O o : w ; # O ",
"u.u.e.e.$.g.u.d.u.s.s.s.y.u.u.u.t.e.u.u.2.%.a.u.u.u.Y 0 # @ @ : t , @ O # @ X < ; O o < e @ e ; @ # @ < # X O > # O O o ; y , # ",
"a.u.u.a.#.g.d.u.s.s.s.g.u.u.e.e.e.u.u.e.7.%.a.a.p.u.p.` 7 # + @ : e , # + # + . r ; o O e w + , # + # @ : # o O > # O O o # n r ",
"7.q.2.2.+.q.8.8.8.7.8.7.7.7.7.9.9.4.9.7.,.o.r.q.q.r.q.q.[ = @ @ @ : e w ; # # + . e : O O w , # < ; + @ + , < o O 1 # O O o + y ",
"+.+.+.+.+.$.+.+.+.$.$.#.#.} $.@.$.#.$.#.#.+.$.+.+.+.+.+.O.E * @ + @ # e e : # ; O   1 ; + o t e # , : + @ @ > < O X # ; + O O O ",
"u.a.u.u.u.u.s.u.s.d.s.d.q.1.f.f.g.s.f.u.d.d.g.s.g.g.g.g.p.>.w.j + + @ ; w e < ; ; O . : 1 + O w r @ > : @ @ O : e # X + # @ O o ",
"u.u.r.u.u.u.u.u.e.u.u.u.4.,.u.i.u.u.e.u.e.u.u.y.s.u.u.u.u.,.u.u.K * @ + # , e w : : O . # , + O e t # : > @ + O : e : O O # @ O ",
"y.u.u.u.e.u.r.u.u.u.u.u.2.,.u.e.u.u.u.u.u.u.s.s.u.u.u.u.u.>.e.e.u.[ = + + # > e w , : @ X + r # + w n # # > ; + O @ e w @ X + @ ",
"u.u.u.u.s.u.u.y.t.u.u.u.2.,.e.e.y.u.u.u.u.y.p.u.u.s.u.d.u.>.u.e.u.u.w.h O @ # ; e e w > # X O > : # 1 M : @ : : @ + @ r t : O o ",
">.>.>.-.+.-.>.>.>.>.,.1.,.:.<.,.2.1.<.2.%.@.%.$.-.#.%.%.%.%.>.%.:.>.-.-.I & + # : , e w , ; X X : r ; # n e # # 1 ; + + : n e @ ",
"s.u.t.s.~ u.u.u.u.e.u.u.u.u.u.u.u.u.u.u.1.1.y.y.u.y.y.y.u.y.y.r.y.r.r.r.+.<.V # # # > e e w > O   + w , : n n > + ; : ; + # e y ",
"u.s.u.s.O.u.e.u.u.u.t.u.u.u.u.u.u.u.u.u.9.2.f.p.u.u.u.s.y.u.s.s.y.u.y.s.$.u.u.{ d + # : w e e , # X X w e 1 e m e # + # : # @ , ",
"s.s.u.s.} y.u.e.u.u.u.e.u.u.u.u.u.u.u.u.7.:.s.y.s.u.t.u.s.y.u.u.s.y.u.y.+.u.u.u.q.L 6 # : > e t w > +   @ e t < m M , @ @ : : ; ",
"u.s.s.g.~ d.u.u.u.u.u.u.u.i.u.u.p.u.u.s.7.1.f.s.s.s.s.s.f.u.s.s.s.y.s.s.$.p.u.u.u.y.4.G 6 ; > w t t < # X o : t e e m n : O + ; ",
"<.7.2.q.^ <.7.<.2.7.7.8.1.2.7.2.q.2.<.7.-.%.1.>.6.6.,.,.1.<.6.2.6.1.1.6.X.q.7.7.q.2.q.2.&.D 7 : , e e t , + X o > y t y m y > + ",
"q.7.q.q.q.8.q.q.8.q.r.u.^ q.q.q.q.q.r.9.0.q.9.0.7.6.6.6.:.1.7.7.9.7.9.q.q.2.q.q.q.r.r.u.#.6. .D 0 > , e t e > O   o , t n n n t ",
"s.g.s.s.u.u.u.u.u.a.u.s.+.u.i.u.p.f.s.f.s.f.s.s.s.s.s.s.6.q.s.s.u.i.u.i.i.f.s.f.s.g.u.g.-.r.s.d.*.F q , w t t t : O   O > y y m ",
"s.u.u.s.a.s.u.u.a.u.u.i.+.u.u.u.u.u.y.y.u.y.y.y.y.y.y.s.6.8.u.u.u.u.d.u.u.u.u.u.u.u.u.d.-.r.s.s.u.u.3.H z , e t y t > O . o ; t ",
"i.u.u.a.u.u.u.u.u.u.u.g.+.u.s.u.u.u.s.u.s.e.s.s.s.y.s.s.,.r.p.u.u.p.p.p.p.p.g.u.g.p.f.f.>.e.u.u.u.u.e.u.4.P x , t y y t , + X o ",
"r.r.r.r.r.r.r.r.r.q.r.u.^ q.q.q.9.9.9.9.0.0.9.9.7.7.7.0.:.1.9.0.9.9.7.2.2.7.4.2.7.<.1.2.$.2.r.r.r.q.q.q.r.r.q...v i e y y y e # ",
",.,.,.>.+.1.1.1.1.<.<.1.>.,.>.>.>.>.,.:.X.1.1.>.6.1.1.1.6.,.>.>.:.,.>.:.^ >.:.:.>.:.>.>.,.<.1.2.<.<.1.<.;.o.,.,.>.=.) v p t n y ",
"g.a.g.a.#.g.d.i.g.g.u.u.g.g.g.g.d.s.f.g.$.k.g.g.g.g.f.s.s.s.a.p.g.f.g.g.@.j.g.f.p.g.p.a.f.s.u.f.s.s.s.i.6.-.h.g.f.s.d.d.5./ b a ",
"u.u.u.e.@.s.s.u.u.u.u.u.u.s.u.d.u.u.u.d.$.g.u.s.u.u.s.s.u.s.u.p.p.u.u.f.X.g.s.s.u.a.u.u.u.u.u.u.u.u.u.r.6.;.g.u.u.u.i.u.u.e.u.5.",
"u.u.u.u.#.s.t.u.u.u.u.u.u.s.s.s.s.u.s.s.#.d.s.s.s.u.s.u.u.u.u.u.u.u.u.s.+.g.s.s.a.u.p.p.u.u.r.e.t.t.r.u.<.-.d.u.i.u.u.u.u.u.u.u.",
"p.u.i.u.+.g.u.s.u.u.u.u.d.u.u.u.u.s.s.i.#.f.u.u.d.u.s.u.u.u.u.u.u.p.s.f.X.k.y.s.u.u.p.u.u.u.u.u.u.u.u.r.<.;.g.u.i.u.a.u.i.u.e.i.",
"%.%.%.#.+.,.>.-.%.;.%.>.$.,.,.1.<.>.>.>.%.>.:.>.-.-.;.:.$.-.-.-.>.%.-.-.X.-.$.%.%.%.%.$.$.#.:.>.,.>.,.,.-.%.>.>.-.>.>.-.#.%.%.>.",
"e.e.e.e.u.u.t.u.y.y.u.g.+.q.e.u.u.u.u.u.u.t.u.u.u.u.u.u.%.7.u.u.u.u.y.y.y.y.y.y.u.r.y.r.9.1.s.s.u.u.u.u.u.u.e.r.y.e.r.e.2.,.e.u.",
"u.u.e.e.e.e.u.u.s.u.u.u.#.7.u.e.e.u.e.u.u.t.e.u.e.u.e.u.%.8.e.u.e.u.s.s.s.s.s.y.u.u.y.y.q.<.g.s.u.u.u.i.i.u.u.i.u.a.e.p.7.<.u.u.",
"e.u.u.u.i.u.i.u.u.u.u.i.#.q.i.e.u.u.u.u.u.u.d.u.u.s.u.i.;.7.u.u.u.u.y.y.s.y.y.s.y.y.s.y.0.6.f.g.d.i.i.d.i.u.s.u.u.u.p.p.7.2.u.u.",
"a.a.u.a.i.s.s.s.u.i.p.a.%.e.p.a.i.u.i.i.u.d.u.g.d.s.u.i.>.8.i.i.u.f.p.p.s.s.g.g.s.s.s.s.q.1.h.g.g.g.d.i.g.g.g.g.f.f.a.a.w.2.a.u.",
"2.2.2.7.q.7.7.q.7.7.2.7.+.>.,.,.<.2.2.2.7.8.2.q.q.7.2.2.O.$.:.:.:.:.:.:.:.:.:.,.:.:.>.:.:.-.6.2.6.<.<.1.1.,.,.1.,.>.>.:.:.-.1.2.",
"8.8.q.q.+.r.q.q.8.8.8.2.8.7.7.2.8.8.q.q.#.r.r.r.q.q.9.9.y.9.2.7.9.7.9.9.~ 9.7.7.2.2.1.9.9.9.<.6.2.<.2.7.^ ,.<.<.7.1.2.1.7.7.7.7.",
"s.d.s.d.-.h.g.s.u.u.i.u.u.p.u.g.d.d.g.g.-.g.g.g.p.f.f.g.f.f.g.a.f.g.g.g.^ k.f.s.g.d.g.a.f.s.s.s.i.i.a.g.+.u.u.e.p.p.e.p.u.u.f.s.",
"u.u.u.u.%.i.u.u.u.u.u.u.g.u.s.s.s.s.s.u.%.g.u.u.p.u.s.u.f.u.u.u.s.f.u.f.^ f.u.f.u.i.i.e.s.y.s.u.u.i.u.i.+.u.u.u.u.u.u.u.u.u.u.u.",
"s.s.u.s.;.g.s.u.u.s.u.u.u.u.f.s.s.s.s.s.-.g.u.u.f.g.d.g.d.s.d.s.s.s.s.s.Q g.s.s.p.p.p.a.p.p.p.p.i.i.i.d.+.f.u.u.u.u.u.u.u.u.p.s.",
"u.u.r.r.#.u.r.r.y.r.u.r.r.r.q.r.q.r.r.r.%.y.r.q.9.2.q.2.q.q.q.r.r.r.y.q.Q u.q.9.7.7.2.2.2.7.7.2.2.1.2.4.X.r.u.u.e.e.u.e.e.u.e.u.",
",.,.>.>.-.>.-.-.-.;.;.>.+.#.>.%.%.%.-.-.-.;.-.$.#.#.$.+.! +.%.%.%.%.-.-.#.>.-.@.+.+.X.+.O.~ @.+.O.@.O.@.%.-.>.%.-.>.>.,.:.%.,.,.",
"u.s.s.s.g.d.d.d.d.u.d.g.,.r.g.g.g.d.s.s.d.d.g.g.g.g.g.g.6.q.g.g.g.d.g.d.g.s.g.p.g.g.g.g.u.,.f.p.f.g.f.g.g.g.g.d.d.i.g.d.q.>.u.s."
};
