/* XPM */
static char *result[] = {
/* columns rows colors chars-per-pixel */
"64 64 149 2 ",
"   c #250404",
".  c #2C0404",
"X  c #240805",
"o  c #330304",
"O  c #3C0304",
"+  c #440203",
"@  c #4C0203",
"#  c #540203",
"$  c #5C0202",
"%  c #561313",
"&  c #640102",
"*  c #6C0101",
"=  c #730101",
"-  c #7B0001",
";  c #7F0F10",
":  c #601414",
">  c #6E1615",
",  c #6F1D1D",
"<  c #751314",
"1  c #7C1112",
"2  c #751D1D",
"3  c #7B1C1D",
"4  c #7B2524",
"5  c #830102",
"6  c #8B0102",
"7  c #930202",
"8  c #9C0202",
"9  c #810F10",
"0  c #831112",
"q  c #881212",
"w  c #831D1E",
"e  c #891C1C",
"r  c #941113",
"t  c #941C1D",
"y  c #9B1E1E",
"u  c #A30202",
"i  c #AC0202",
"p  c #B30202",
"a  c #BC0202",
"s  c #A21416",
"d  c #A11D1E",
"f  c #AB1D1D",
"g  c #B31B1B",
"h  c #901C24",
"j  c #802726",
"k  c #8C2526",
"l  c #8E2829",
"z  c #81312F",
"x  c #883635",
"c  c #953938",
"v  c #A62627",
"b  c #B43836",
"n  c #C30202",
"m  c #CC0202",
"M  c #D30202",
"N  c #DA0202",
"B  c #C02C2F",
"V  c #C53A37",
"C  c #8E4748",
"Z  c #8E4848",
"A  c #924747",
"S  c #955352",
"D  c #9C5D5D",
"F  c #A8484A",
"G  c #B74442",
"H  c #A25453",
"J  c #A25F5C",
"K  c #B35C5A",
"L  c #9B605E",
"P  c #956060",
"I  c #996262",
"U  c #A46665",
"Y  c #A5706E",
"T  c #AA7777",
"R  c #B87577",
"E  c #C16C6D",
"W  c #C0706E",
"Q  c #AB8385",
"!  c #A28D8C",
"~  c #B88180",
"^  c #B88C8C",
"/  c #B39393",
"(  c #BB9591",
")  c #BB9B9D",
"_  c #A6A6A8",
"`  c #ACACAE",
"'  c #BCA2A3",
"]  c #BAA6A8",
"[  c #AEAEB0",
"{  c #B2B2B6",
"}  c #BEB1B2",
"|  c #B6B6B8",
" . c #B8B7BB",
".. c #B6B9BC",
"X. c #BBBBBD",
"o. c #CF8F90",
"O. c #D49A99",
"+. c #C1A5A6",
"@. c #DAAFB0",
"#. c #CDB7B6",
"$. c #C6BCBE",
"%. c #D0BBBA",
"&. c #BEBEC2",
"*. c #C0BFC3",
"=. c #C2C2C5",
"-. c #C6C6CA",
";. c #C8C6CC",
":. c #C7C9CB",
">. c #CACACD",
",. c #DDC5C6",
"<. c #D9C7C9",
"1. c #CECED1",
"2. c #D0CFD3",
"3. c #CED2D4",
"4. c #D2D2D4",
"5. c #DED5D4",
"6. c #D5D6D9",
"7. c #D8D7DD",
"8. c #D6D8DB",
"9. c #DADBDD",
"0. c #EAD4D6",
"q. c #E2D7D9",
"w. c #E4DCDC",
"e. c #E9D9D9",
"r. c #DFE0DF",
"t. c #E3E0DE",
"y. c #D5D8E0",
"u. c #DDDEE1",
"i. c #E0DFE4",
"p. c #DEE0E3",
"a. c #DFE2E9",
"s. c #E2E2E4",
"d. c #E9E6E6",
"f. c #E7E8E7",
"g. c #E9EBE7",
"h. c #E6E6E9",
"j. c #E8E7ED",
"k. c #E7E8EB",
"l. c #ECECED",
"z. c #F0EFEE",
"x. c #EFF0EF",
"c. c #F0F0EF",
"v. c #EEEEF1",
"b. c #F0EFF2",
"n. c #EFF0F1",
"m. c #F1F1F3",
"M. c #F7F6FA",
"N. c #F7F8FA",
"B. c #F8F8FB",
/* pixels */
"v.v.j.^ h : % 0 d < % 1 s r 1 q e 1 < q 1 q q 1 1 1 0 0 9 1 0 0 1 1 1 1 1 1 0 9 0 9 0 0 9 9 1 0 0 1 1 1 0 0 0 0 0 q q #.i.2.l.v.",
"5.Y 4 $ O % 8 6 $ O 6 r = $ 6 5 * * 5 = - - - * - - - - - - - - = * = = = - - - - - - = - - - - = = = = - - - 5 5 - l v.i.2.l.d.",
"2 $ $ # 7 7 * o + p u * # - - & & 6 = - 5 6 = = - - - = - - 5 = * * = = = - - - - - - - - - - = = = = = - - - 5 5 w ) j.u.1.j.d.",
"$ $ 6 i 6 @ o & p 7 & # 9 5 @ # 7 = - 6 5 - * 6 5 - - - = - - = * = = - - - - - - - - - - - - = * = = - - 5 - 5 - C &.&.&.*.=.=.",
"5 p i = O o 6 p 6 & $ - - # # 6 6 = 6 - 5 * 6 5 - - = - - - = * = = = = = = - 5 5 - - - - - - = * = - - - 5 - - k q.l.j.v.j.j.v.",
"n - @ o # 8 p - & & - - # # 6 7 * 6 5 * & 6 7 - - - * = 5 5 = * = - - - - - - 5 - = = - 5 5 = * * - - - 5 - - - H l.l.l.v.v.v.j.",
"& O O * a u * * * = - # @ 9 8 * 6 - * * - 8 - - - - = - 6 = * = - = = - - - - 6 - = - 5 5 - * & - 6 = - 5 - - e t.z.l.l.l.l.j.l.",
"O $ 8 a 5 & & * = = $ @ - 8 = 5 - & & = u 5 - 5 = = - 5 - * * - = - - - = - 6 - = = 5 6 5 * * = 7 5 - 5 5 - - ( l.c.x.x.c.m.m.m.",
"5 p 8 - * * * = = # + - u - 5 5 & $ * i 7 * 6 - = * 6 5 * = 5 5 - - - = - 6 6 = * - 6 6 = * * 8 7 - - 5 - - x >.>.4.3.1.1.3.3.4.",
"a 5 = = = = * * $ @ ; u 5 - - * # & u 7 * 6 - = = 5 = = & 5 5 - - = = - 5 7 - * = 6 6 - * $ 6 u - = 5 - - - ' u.9.9.u.u.7.>.9.9.",
"* = = = * * * @ @ 6 i 5 5 5 & # & 7 u = 5 ; * = - = * & 5 6 5 - - = - - 6 6 = = 5 6 5 * $ = i 5 = - 5 - - 3 v.m.x.n.n.z.l.7.v.v.",
"= = = * * * + # 5 p 6 5 - = @ # 7 i = - 5 = * - & * & - 6 6 5 - = - = 6 5 - = - 6 - * & & i 8 = - 5 - - e +.l.l.v.j.j.l.d.4.l.v.",
"- * * * & + $ 7 u 6 5 - * @ # 9 p - - 5 - * = - $ & = 7 6 5 - = = = 9 = - * = 9 & = $ $ 6 a - = - 5 - = U l.z.l.l.l.l.l.d.4.z.z.",
"* = * & # $ u i 6 5 - * @ # 6 a 6 = 5 - = * - # & & 8 7 5 - = - = 5 & = * * 5 @ 6 & & - a 6 = - 6 5 - j 8.d.t.t.s.r.s.p.i.:.6.6.",
"* * $ # = i 8 - 5 - * @ # = n 6 = - - * * - @ $ & 7 8 6 - - = = = - & * * - $ * & # = n u = - 6 6 = 3 ] 1.{ >.:.=.:.;.;.;.;.=.=.",
"* $ & 5 p 7 - 6 5 & @ # - a 6 * 5 5 * * 5 @ # $ 6 u 6 5 - = - = 5 # & * - & + * # $ n a - = - 6 - = D m.B.[ m.c.l.l.l.v.b.m.m.m.",
"# & 8 p 6 - 6 - & + # - n 7 * - 5 = * - # @ $ - i 7 5 - - = = 5 # $ * * = o * # # u n 5 = - 5 - - A l.l.m.` m.g.l.d.l.l.l.l.l.l.",
"- i 8 - 6 6 = @ + # 5 a 6 * 5 5 = & - $ O $ - i u 6 - = = = * & # * * 9 O : & # 6 n - = = - - - 2 w.l.l.l.` m.l.l.f.l.l.g.l.l.b.",
"i 7 6 6 5 = O O @ 8 m 6 = - 5 = & - $ o $ = i u 7 5 = = = = 5 % & * 5 + @ $ @ * n 9 * = - - - 2 #.m.z.l.x._ m.l.l.l.g.l.l.l.l.l.",
"6 6 6 - & O + # 7 n 5 = - 5 = * = & o $ & i u 7 5 - = = = 5 + $ * = # . * # $ n 6 * = = - = 3 ' >.>.1.1.2. .=.=.=.=.:.=.=.*.=.=.",
"6 - = $ O + & i a - = 5 ; - & = & o # = i i 7 6 - = = * ; @ & * * * O * @ # 8 6 & * = = = w Q s.d.f.d.f.f.v.l.j.j.v.v.v.h.;.j.l.",
"= * # O # = n p = = 5 - = & = *   # & a p u 7 5 = = = - $ # & = < O & @ @ 8 i * = = = = w I l.l.v.l.l.l.v.j.l.l.l.l.j.l.d.:.l.v.",
"* @ @ # 7 m 8 * * - - = * = & X # & p p 8 7 6 - = = = & # $ = * o @ @ @ 6 p = = * = = = L >.l.g.l.l.l.l.l.l.l.j.l.l.l.l.d.>.l.l.",
"# @ * i m 6 * = - - * & = $ X # * p p 8 8 6 = = * = * # $ * * @ @ @ # 7 n - * * = = * C d.>.z.z.l.l.l.l.n.l.x.n.b.v.l.v.v.:.m.b.",
"# 7 N a = & = - = * & = # o @ $ a i 8 p 7 = * * = 9 @ & * = & # @ # u m 6 * * * = 3 P 6.4.*.4.4.4.4.4.4.1.2.>.1.2.>.4.4.4.| =.=.",
"a m 7 * * - - - * * = @ o + & a 6 5 n 6 = = * = = # # * * * $ @ # 7 m 5 * * * = * S 9.9.i.s.9.9.t.t.t.s.s.| 7.4.8.8.9.8.i.w.9.9.",
"a = & * = - = * * * # O O & a 5 6 n 7 * = * & ; # # = - & # @ # 8 m 6 * * * * 4 U l.l.l.l.l.z.l.l.x.l.l.m. .M.z.z.c.z.z.c.c.l.c.",
"& & = - - = * * & + + O = i = 7 n 6 = * * = = $ # = * $ # @ $ i m 7 * * * * 3 / j.g.l.l.l.l.l.l.l.l.l.l.n.| m.l.z.l.l.l.l.l.l.l.",
"* = - - = * * # o + + 6 i - p M - * * * * = $ # = = # @ @ $ i M 6 * * * * > ( v.l.l.l.l.l.j.l.l.l.l.l.l.v.{ m.l.l.l.x.x.c.l.c.l.",
"= = = * * & o . O $ u 8 6 n a - * & * * = $ $ = = @ @ + & a M 5 * * * * 2 ! j.i.s.d.d.k.g.l.f.k.s.d.s.s.h.{ j.d.s.s.p.s.s.s.9.s.",
"- = * * @   O @ = n r 8 m i * * * * * & + & & & @ @ @ = n n 6 & & * & 4 } ;.1.;.:.:.:.>.:.X.=.=.=.=.=.=.:.=.=.=.=.X.*.$.*.X.=.-.",
"= = $ o   O $ u n 7 i m 7 * * & = = & @ & * & @ + + 6 m m 5 * * * 2 D s.v.v.v.l.l.v.l.l.l.2.l.v.l.l.n.l.l.n.l.m.x.m.m.b.l.>.c.c.",
"* O   o # = a a u n n 5 & & * * * # # & = $ @ + $ 7 N p 5 * = * 2 T l.l.l.l.l.g.l.l.k.f.j.>.l.l.l.l.l.l.l.l.g.l.l.l.l.l.k.:.l.l.",
"  o @ $ u M p p m 8 = & & * * * # $ & & @ O @ $ p N u - * * * z #.j.l.l.l.j.l.l.l.l.d.l.l.>.l.l.d.l.d.l.l.l.l.j.l.l.l.l.d.:.l.l.",
"+ $ 6 m m a n p 6 * & * * = @ # $ & & o O # - a M 8 = * * 2 S g.l.l.l.l.x.l.l.j.l.l.j.l.g.>.v.l.l.z.b.b.n.l.l.l.v.l.l.l.d.=.l.l.",
"5 n N n n a 8 - & & * = & # $ $ & # o + # u N n 6 = * * 3 ) 4.>.1.4.>.2.>.1.>.>.4.4.>.3.3.=.;.:.-.:.:.:.=.>.4.4.4.4.4.4.4.:.4.2.",
"N m n a i 5 * & * - & # # $ & & + o + - a N i 6 = = 3 J 9.j.l.k.k.k.h.h.=.d.d.s.d.f.s.k.d.j.l.d.d.j.d.s.=.j.j.j.j.f.l.j.l.v.j.j.",
"n a i 6 - & & = * @ @ & & * + o + $ 8 M m 7 - - = k %.v.l.k.l.l.j.k.k.v.:.l.l.l.l.l.v.l.j.l.l.l.l.z.l.l.=.n.m.v.l.l.j.v.l.l.j.v.",
"i 7 - * * & & + + $ & * # O O + 5 n M i 6 5 - w ~ k.j.l.n.k.k.l.l.k.j.j.:.l.l.g.l.j.l.l.l.l.l.l.l.l.l.d.:.v.l.v.l.l.v.l.l.l.v.v.",
"- * & * & + O $ = & & o . @ * i m n 8 5 - e H q.v.n.v.v.n.l.n.n.l.v.v.v.:.x.l.l.l.l.l.l.l.l.l.z.l.z.l.l.*.n.v.l.n.n.m.m.v.b.l.b.",
"* * & O . $ = = $ o . O * u M m i 6 6 e c *.7.6.6.6.6.6.6.8.7.8.8.7.7.y.&.u.s.9.s.9.u.u.i.i.i.i.s.s.9.s.*.9.9.9.9.9.9.9.9.9.9.9.",
"# . o # - - @ o . + & 7 m M a 8 7 h F <.s.s.u.u.u.u.y.y.3.6.p.p.p.p.p.p.s.u.i.s.d.d.k.f.;.y.d.k.s.s.s.i.s.s.i.s.u.u.p.w.u.>.t.i.",
". $ - = + o . + & u m N n u 7 y K ,.v.v.l.v.v.v.v.v.v.v.y.h.v.x.l.c.x.l.z.b.v.b.m.v.l.m.1.h.v.v.l.l.l.l.l.l.l.v.l.v.v.l.d.7.m.c.",
"= $ o   o @ = u m N n u 7 d E ,.l.l.j.l.l.j.l.j.j.j.j.v.8.a.k.l.l.l.l.l.l.l.l.l.l.l.l.m.1.h.v.v.l.j.l.l.j.l.d.l.l.l.l.l.k.6.l.l.",
"  . O # 5 i M m n i u v R w.l.l.l.l.v.n.n.l.v.v.v.j.j.v.6.h.x.l.x.x.n.x.n.x.c.z.m.v.n.n.4.d.v.j.l.l.l.l.l.l.l.l.l.l.l.l.s.7.l.z.",
"# * 8 a M m n i f G @.d.X.s.s.s.s.p.p.p.s.p.p.p.p.p.a.a.3.8.p.p.p.p.9.9.9.r.9.u.9.u.9.9.>.9.d.k.d.d.s.r.s.s.s.s.s.d.s.s.i.4.p.d.",
"i m N n a g b o.,.8.8.8.6.6.6.4.3.4.3.3.&.7.6.8.6.y.8.8.y.6.4.6.3.8.4.3.X.6.3.3.4.3.4.3.6.9.8.9.7.9.8.6.2.*.6.4.4.6.6.7.9.6.6.6.",
"m n a B W 0.n.n.b.c.c.l.m.m.m.v.m.b.n.n.-.B.m.n.m.m.n.v.v.v.c.m.c.n.m.m.=.B.m.n.x.m.x.c.n.l.l.v.v.v.v.v.u.1.M.m.m.v.m.z.m.l.b.m.",
"V O.e.d.=.v.l.l.l.l.l.l.l.b.l.b.l.l.v.b.:.m.v.l.v.l.b.v.l.l.l.l.c.g.l.x.*.n.k.k.l.z.l.x.l.l.l.l.j.k.l.d.u.1.v.l.l.l.l.l.l.l.g.l.",
"l.l.l.l.;.v.l.l.l.l.l.l.l.l.m.l.v.l.l.b.:.b.v.l.l.l.v.l.l.v.x.l.x.l.l.x.=.M.n.v.l.x.l.c.l.l.f.l.l.l.k.l.9.1.v.l.z.l.z.l.l.l.l.l.",
"z.l.l.l.:.b.l.l.l.l.l.l.c.l.l.v.l.l.l.z.>.m.j.l.v.l.v.l.l.l.x.l.l.l.x.n.*.N.v.v.l.c.c.l.l.l.j.l.l.j.l.d.9.2.c.l.l.l.b.l.c.z.l.l.",
">.>.>.:.=.6.4.4.>.2.1.2.:.6.6.6.7.4.6.4.>.4.3.4.1.1.4.4.-.1.1.>.4.>.3.>.*.>.-.-.>.:.>.:.-.:.3.3.6.6.4.6.1.>.4.4.2.4.4.1.:.>.>.2.",
"g.g.g.g.l.d.j.j.l.j.j.v.=.s.l.l.l.l.l.l.j.k.l.l.l.l.l.l.1.u.l.f.l.l.k.k.j.k.j.k.l.f.k.k.p.8.v.v.l.j.l.j.l.j.d.k.f.f.d.l.9.6.l.l.",
"g.x.l.g.g.l.l.l.l.l.l.z.:.t.g.g.g.l.g.l.l.l.d.l.g.l.g.l.>.u.l.l.l.l.k.v.v.v.v.v.j.l.v.j.p.7.v.n.x.x.z.z.c.c.l.z.x.l.l.l.w.8.g.l.",
"l.l.l.l.l.l.z.l.l.l.l.b.>.s.l.l.l.l.l.l.l.l.l.v.l.v.l.z.2.u.l.l.l.l.l.k.l.j.v.v.k.k.k.j.s.u.n.n.z.z.l.z.z.l.v.l.l.l.l.x.s.8.l.l.",
"z.l.z.z.z.n.v.v.l.z.l.c.>.g.x.l.b.l.z.z.l.z.v.m.b.v.l.z.2.s.z.b.x.n.x.n.v.v.v.n.n.v.v.v.a.y.M.m.m.c.m.m.m.m.m.m.n.x.c.x.d.9.c.l.",
"9.9.9.u.u.p.u.s.u.9.9.u.=.4.6.6.9.9.9.9.i.w.p.s.s.r.8.9.=.>.1.3.3.3.3.3.8.3.3.3.3.3.3.8.3.>.8.9.9.7.9.8.5.6.6.8.6.6.4.3.3.1.8.8.",
"s.i.i.s.=.d.i.s.i.s.s.9.i.u.u.u.i.i.s.i.;.h.s.s.s.s.p.p.h.p.8.u.p.u.p.p...p.u.u.u.9.u.8.p.p.8.7.9.9.9.9.&.6.8.8.9.7.8.8.r.p.p.u.",
"v.b.v.b.4.M.m.b.l.z.l.l.x.x.l.v.b.b.m.m.1.m.m.m.n.n.n.n.n.n.m.c.n.n.m.m.X.B.n.n.m.b.m.m.n.v.v.v.z.z.c.m.=.l.j.x.x.x.l.x.l.x.x.v.",
"l.l.l.l.>.z.l.l.l.l.l.l.v.l.v.v.v.v.v.l.>.m.l.v.n.l.v.n.l.n.v.l.l.n.l.n...n.v.v.l.l.l.l.j.v.v.v.l.l.l.l.=.l.l.l.l.l.l.l.l.l.l.j.",
"v.b.l.v.4.m.l.v.j.v.l.v.l.l.v.v.j.v.m.l.1.b.v.l.v.m.v.m.b.v.v.v.v.l.v.v...M.l.n.x.x.l.c.m.n.l.x.z.l.z.b.=.v.v.l.l.l.l.l.l.l.x.l.",
"j.l.k.k.>.j.k.s.d.k.j.j.k.d.s.k.h.s.k.h.>.k.h.s.p.9.w.p.i.s.s.k.s.h.k.s.| j.d.p.9.t.t.9.9.9.p.r.9.9.9.i.&.k.l.f.d.g.l.g.g.l.l.l.",
"6.6.4.4.1.4.1.1.1.4.1.4.=.>.1.>.>.1.1.1.1.1.1.:.:.>.-.-.| *.>.>.>.>.>.1.:.4.>.=.=.=.X.=.*...=.=.=.=.=.=.>.1.4.>.2.4.4.6.2.>.6.6.",
"l.b.l.v.b.b.m.v.m.v.m.m.4.d.m.m.m.b.v.v.b.b.m.n.v.m.m.m.u.s.m.b.b.M.M.m.m.v.m.m.m.m.m.m.l.8.n.x.c.m.m.m.m.m.m.c.m.c.n.c.s.4.c.l."
};
