/* XPM */
static char *result[] = {
/* columns rows colors chars-per-pixel */
"64 64 19 1 ",
"  c black",
". c #202020",
"X c #2C2C2C",
"o c gray21",
"O c gray22",
"+ c #3A3A3A",
"@ c #3C3C3C",
"# c #3E3E3E",
"$ c gray26",
"% c #464646",
"& c #484848",
"* c #4C4C4C",
"= c gray32",
"- c gray33",
"; c #686868",
": c #6A6A6A",
"> c #848484",
", c gray62",
"< c #BCBCBC",
/* pixels */
"OOOOOOOOOOOOOOOOOOOOOOOOOOOOOOOOOOOOOOOOOOOOOOOOOOOOOOOOOOOOOOOO",
"OoOOOOOOOOOOOOOOOOOOOOOOOOOOO      oOOOOOOOOOOoooooooooooooOOOOO",
"Oo#$X;##################$O:@O      o+oX*@@+++++OOoOoooOOO@oX*@OO",
"Oo@+.X*******=====:::;;$+.O*O      o+o.X@@++++O+oooooOO++oo.X$OO",
"Oo@O+O****======;:::;;;$O+O=+      o+ooo@+@++++oOooooo+O+oooo$+O",
"Oo@$$%**======;::::;;;;$$$%=+      oOOOO+@++++OOoooooOO++oo++$+O",
"Oo@**===$OXXXXXX......======+      oO@@+@+XXX...........@@@#$%+O",
"Oo@=====>$OOXXXXXXXXX.==*==*@      oO@+@++OXXXXXXXXXXXX.@@##$%@O",
"Oo@=====>>;::::;;;;=X.=*=***@      oO+@+++OOOooooooo+OX.@@#$$$@O",
"Oo@===;;<,::>:;;;===X.*=***%@      oO@++++O+oooooooOO+X.@##$%%@O",
"Oo@=;;;;<,>>:;;;===*X.****%%@      oO++++O+oooooooOO++X.@##$%%@O",
"Oo@;;;::<,::;;;===*=X.***%%%@      oO+++O++OoooooOO+++X.##$$$%@O",
"Oo@;::>><,;;;====*=*X.*%%%%$@      oO++O+O+OooooooOO++X.##$$%%@O",
"Oo@:,>>:<,;;====*=**X.%%%$$$+      oO+O+OO+OoooooOO+++X.#$$%$%#O",
"Oo@,>>::<,;====*=***X.%$$$$#+      oO++OOo+OooooOO+++@X.#$$$%%#O",
"Oo@>:::;<,====******X.$%$$##+      oO+OOoo+OoooOO+O++@X.#$$%%%#O",
"Oo@::;;;<,=*=*****%%X.%$####+      oOOOooo+OooooOO++@@X.$$%$%%#O",
"Oo@:;;;=<>*=*****%%$X.$#$###+      oO+OOoo+OoooOO+++@@X.$$$%%*#O",
"Oo@;;==*<>=*****%%$%X.#$###@+      o+OOooo++oOOO+++@@@X.$$%%%*#O",
"Oo@;==*=<>****%%%$%$X.$###@@O      oOOoooo++oOO+O++@@#X.$%%%%*#O",
"Oo@====*<>***%%%$%$$X.###@@@O      oOooooo++OoOO++@@#@X.%$%%**#O",
"Oo@=*==*<>**%%%$%$$$X.##@@@@O      ooooooo++oOO+O+@@@#X.$%%%**#O",
"Oo@*==**<>*%%%$%$$$#X.#@@@@@O      ooooooo@@OO+O++@@##X.%%%%*=#O",
"Oo@=****<>%%%$%$$$##X.@#@@@@O      ooooooo@@O+O++@@#@$X.$%%%*=#O",
"Oo@*****<>%%$$$$$#$#X.#@@@@+o      ooooooo#@OO+++@#@##X.%%%*=*#O",
"Oo@****%<>%$$$$$#$##X.@@@@++o      ooooooo#@O+O+@@@##$X.%%%*=:#O",
"Oo@**%%%<>$%$$$#$###X.@@@+++o      ooooooO#@+O++@@##$#X.%%%*=;#O",
"Oo@*%%%%<>%$$$#$####X.@@++++o      ooooooO#@O++@@#@##$X.%%**=;#O",
"Oo@%%%%%<>$$$#$####@X.@+@+++o      oooooOo$@+++@@@##$$X.%%*=;:#O",
"Oo@%%%%$<>$$#$####@@X.+@++++o      ooooooO$@O+@@@##$$%X.%%*=;:#O",
"Oo@$O:$%<>$#$####@@@X.@+oX*Oo      oooX$OO$#++@@##$#$$X.%*$=<>#O",
"Oo@+.O%$<>#$$###@@@@X.+oo.XOo      ooo.XO+$#+@@#@##$$%X.%$+o=>#O",
"Oo@O+O$$<>$$###@#@@@X.+ooooOo      oooooOO%#+@@@##$$%$X.%$X+#>#O",
"Oo@$$%$$<>$###@#@@@@X.+ooooOo      oooooO+%#@@@##$#$$%X.%$$$:>#O",
"Oo@%$$$#<>###@#@@@@+X.+++OOoo      ooOOO++%$@@####$$%$X.**=;>>#O",
"Oo@$$$#$<>##@#@@@@++X.++OOooo      ooOO+O+%$@#@#$$$%$%X.*=;:>:#O",
"Oo@$$#$#<>#@#@@@@+++X.+OOoOoo      oooOO+@*$@@##$#$$%%X.*=;:>:#O",
"Oo@$#$##<>@#@@@@+@++X.OOOOooo      ooOO+O+*%@####$$%$%X.*=;:>:#O",
"Oo@#$#$#>>#@@@@+@+++X.OOOoooo      oOO++++*%####$$%$%%X.==;>>:#O",
"Oo@$#$##>:@@@@+@++++X.OOooooo      oO+O+++=%@##$$$$%%%X.=;:>>:#O",
"Oo@#$###>:@@@+@++++OX.Ooooooo      oOO+++@=%##$#$$%$%%X.=;:,>:#O",
"Oo@$####>:@@@@++++O+X.ooooooo      oO++++@=%###$$%$%$%X.=;>,:;#O",
"Oo@####@;:@@@++++O+OX.Ooooooo      oO+++@+=%##$$$$%$%%X.;:>,:;#O",
"Oo@###@#;;@@++++O+OOX.ooooooo      oO++++@;%#$#$$%$%%*X.;:>>:;#O",
"Oo@##@#@;;@++++++OOOX.ooooooo      oO+++@+:*##$$%$%%%*X.;:,>:;#O",
"Oo@#@#@@==+@++++OOOOX.ooooooo      oO++@+@:*#$$$$%$%%*X.;>,>:;#O",
"Oo@@#@@@==@++++OOOOoX.ooooooo      oO+@+@@:=$$$$%$%%%*X.:>,>:;#O",
"Oo@#@@@@=*++++OOOOooX.ooooooo      oO++@+@:=#$$%$%%%**X.:>,>:;#O",
"Oo@@@@@@**+++O+OOoOoX.ooooooo      oO+@+@#>;$$$$%$%%**X.:,,>:=#O",
"Oo@@@@@@*%++O+OOoOooX.ooooooo      oO@+@@#>;$$$%$%%%*=O.>,,>:=#O",
"Oo@@@@@+*%+O+OOOOoooX.ooooooo      oO+@+##>;$$%$%%%**=O.>,>::=#O",
"Oo@@@@+@%%++OOOOooooX.ooooooo      oO@+@##>;$%$%$%%**=OX>,>::=#O",
"Oo@@@+@+%$+OOOOoooooX.ooooooo      o++@@##<:$$%$%%%**=OX,,>:;=#O",
"Oo@@+@++$$OOOOooooooX.oooooOo      o+@@##$<:$%$%%%**=;OX,,>:;=#O",
"Oo@+@+++$$+OOoOoooooX.oooooOo      o+@@##$<:%$%%%%**=;OO,,>:;=#O",
"Oo@@++++$#OOoOooooooX.ooooOOo      o+@##$$<>$%$%%%**=;##,,>:;=#O",
"Oo@++++O##OoOoooooooXXooooOoo      o+@##$$<>%$%%%%*=;:%*,,>:==#O",
"Oo@+++O+####@@+++OOOOXoooOoOo      o+###$$<>>>>>,,,,,,=:<,>:==#O",
"Oo@oX$++##@@@+++OOOOOOoooX$Oo      o+$X;$$<<<<<<<<<<<<<<<>==,=#O",
"OoOo.X+OOOooooooooooooooo.X+o      o++.X$$$%%%%%%**=;:><,:#X@=#O",
"OoooooOOOoOoooooooooooooooo+o      o+O+O$$%%%%%%**=;:>,<,:#+O=#O",
"OoooooOOoOooooooooooooooooo+o      o+$$%$$%%%%%%*==;:>,<,=$$%=#O",
"&oooooooooooooooooooooooooooO      oooooooooooooooooooooooooooO&",
"----------------------------&OOOOOO&----------------------------"
};
