/* XPM */
static char *_d7bc53681d5485fb3dfe19010f325a4NCM9fIXEAmRIGiGK[] = {
/* columns rows colors chars-per-pixel */
"64 64 2 1 ",
"  c None",
". c black",
/* pixels */
"                                                                ",
"                                                                ",
"                                                                ",
"                                                                ",
"                              ....                              ",
"                         ..............                         ",
"                      ....................                      ",
"                   ..........................                   ",
"                  ............................                  ",
"                ................................                ",
"               ...............    ...............               ",
"              ...........              ...........              ",
"             ..........                  ..........             ",
"            .........                      .........            ",
"           ........                          ........           ",
"          ........                            ........          ",
"         ........                              ........         ",
"         .......                                .......         ",
"        .......                                  .......        ",
"       .......                                    .......       ",
"       .......                                    .......       ",
"       ......                                      ......       ",
"      .......                                      .......      ",
"      ......                                        ......      ",
"      ......                                        ......      ",
"     ......                                          ......     ",
"     ......                                          ......     ",
"     ......                                          ......     ",
"     ......                                          ......     ",
"     ......                                          ......     ",
"    ......                                            ......    ",
"    ......                                            ......    ",
"    ......                                            ......    ",
"    ......                                            ......    ",
"     ......                                          ......     ",
"     ......                                          ......     ",
"     ......                                          ......     ",
"     ......                                          ......     ",
"     ......                                          ......     ",
"      ......                                        ......      ",
"      ......                                        ......      ",
"      .......                                      .......      ",
"       ......                                      ......       ",
"       .......                                    .......       ",
"       .......                                    .......       ",
"        .......                                  .......        ",
"         .......                                .......         ",
"         ........                              ........         ",
"          ........                            ........          ",
"           ........                          ........           ",
"            .........                      .........            ",
"             ..........                  ..........             ",
"              ...........              ...........              ",
"               ...............    ...............               ",
"                ................................                ",
"                  ............................                  ",
"                   ..........................                   ",
"                      ....................                      ",
"                         ..............                         ",
"                              ....                              ",
"                                                                ",
"                                                                ",
"                                                                ",
"                                                                "
};
