/* XPM */
static char *_d4a20083aff4d67b7a49126fd2fdabbBEvEfSPbyTkwcJ7S[] = {
/* columns rows colors chars-per-pixel */
"64 64 193 2 ",
"   c #301505",
".  c #8B663A",
"X  c #90663D",
"o  c #906C3E",
"O  c #8D6B43",
"+  c #916E44",
"@  c #956D4C",
"#  c #927345",
"$  c #97744B",
"%  c #9A764D",
"&  c #9A784E",
"*  c #977651",
"=  c #9A7651",
"-  c #967952",
";  c #9B7A55",
":  c #9D7D5A",
">  c #A37F57",
",  c #A17E59",
"<  c #A3865F",
"1  c #9F8463",
"2  c #9C8C77",
"3  c #9D8E7D",
"4  c #A38563",
"5  c #A78B67",
"6  c #A88A66",
"7  c #A58B6C",
"8  c #AB8D6C",
"9  c #AD926F",
"0  c #AF9474",
"q  c #A6927E",
"w  c #AD957C",
"e  c #AE997D",
"r  c #B19574",
"t  c #B39976",
"y  c #B1977A",
"u  c #B39A7C",
"i  c #B99E7C",
"p  c #A69584",
"a  c #A89784",
"s  c #A49982",
"d  c #AD9B84",
"f  c #AD9D89",
"g  c #B29D84",
"h  c #B99E83",
"j  c #B29E8A",
"k  c #ADA18C",
"l  c #B4A286",
"z  c #BAA384",
"x  c #B9A987",
"c  c #B4A28C",
"v  c #BCA58C",
"b  c #B5A98E",
"n  c #BEAA8D",
"m  c #AEA190",
"M  c #B5A592",
"N  c #BBA693",
"B  c #B6AA95",
"V  c #BBAB95",
"C  c #B6AB9B",
"Z  c #BBAD9A",
"A  c #BFB095",
"S  c #BEB19B",
"D  c #BAAFA1",
"F  c #BEB2A1",
"G  c #C6AA86",
"H  c #C1A789",
"J  c #C2AB8D",
"K  c #C1B08B",
"L  c #C1AC94",
"P  c #C8AD92",
"I  c #C2AE9B",
"U  c #C5B295",
"Y  c #C9B197",
"T  c #C3B29C",
"R  c #C9B59D",
"E  c #C5BC9F",
"W  c #CAB99E",
"Q  c #D2BA99",
"!  c #C0AFA0",
"~  c #C4B4A3",
"^  c #C9B6A3",
"/  c #C5B9A5",
"(  c #CABAA4",
")  c #C6BAAA",
"_  c #CABDAB",
"`  c #D1BDAA",
"'  c #C3BBB0",
"]  c #CCBFB1",
"[  c #CBC0A6",
"{  c #CCC1AD",
"}  c #D2C0A4",
"|  c #DCC6A6",
" . c #D2C3AE",
".. c #D2C8AD",
"X. c #CDC3B2",
"o. c #CEC4B8",
"O. c #CFC8BB",
"+. c #D2C5B3",
"@. c #D9C6B4",
"#. c #D4C9B5",
"$. c #DBCBB5",
"%. c #D3C7BA",
"&. c #D5CABB",
"*. c #DACDBC",
"=. c #D7D1BF",
"-. c #DCD1BD",
";. c #D6CCC1",
":. c #DACEC2",
">. c #D9CEC8",
",. c #D6D1C3",
"<. c #DCD2C4",
"1. c #DFD9C7",
"2. c #DDD5CA",
"3. c #DED9CB",
"4. c #DFDBD2",
"5. c #E1D5C6",
"6. c #E3D9C6",
"7. c #E2D7C9",
"8. c #E2DBCD",
"9. c #E1D7D3",
"0. c #E3DDD3",
"q. c #E9DED3",
"w. c #E4DED9",
"e. c #E8DED8",
"r. c #E8E1CA",
"t. c #E6E1D5",
"y. c #EAE3D5",
"u. c #E5E1DA",
"i. c #EBE5DC",
"p. c #EDE9DE",
"a. c #F1E7DF",
"s. c #F1EBDE",
"d. c #EBE6E1",
"f. c #EDEAE3",
"g. c #EDEBE8",
"h. c #F2EDE4",
"j. c #F3EEEA",
"k. c #F7F4E5",
"l. c #F4F1E5",
"z. c #F8F3E1",
"x. c #F4F1EB",
"c. c #F4F2E8",
"v. c #F5F4EA",
"b. c #F6F1ED",
"n. c #F5F3ED",
"m. c #F6F2EC",
"M. c #F7F3ED",
"N. c #F4F2ED",
"B. c #F7F5EF",
"V. c #F5F2EC",
"C. c #F8F1EB",
"Z. c #FAF5EB",
"A. c #F8F4EA",
"S. c #F8F4ED",
"D. c #F9F5ED",
"F. c #FFF8EA",
"G. c #FAF8EF",
"H. c #FCF8EF",
"J. c #F6F5F1",
"K. c #F5F5F4",
"L. c #F7F5F4",
"P. c #F6F4F1",
"I. c #FAF7F1",
"U. c #FBF7F2",
"Y. c #F9F7F5",
"T. c #F9F6F2",
"R. c #FAF8F2",
"E. c #FCF9F3",
"W. c #FCFAF2",
"Q. c #FAF9F7",
"!. c #FAF9F6",
"~. c #FAFAF5",
"^. c #FDFBF5",
"/. c #FEFBF7",
"(. c #FDFCF5",
"). c #FEFDF6",
"_. c #FCFAF5",
"`. c #FBF7F8",
"'. c #FCFAF9",
"]. c #FDFDF9",
"[. c #FEFDF9",
"{. c #FFFFF9",
"}. c #FEFEF9",
"|. c #FDFCFB",
" X c #FFFEFB",
".X c #FEFCFB",
"XX c #FEFDFD",
"oX c #FFFFFC",
"OX c #FFFFFD",
"+X c #FFFEFC",
"@X c white",
"#X c #FEFFFF",
"$X c #FFFEFD",
/* pixels */
"                                                                                                                                ",
"                                                                                                                                ",
"    Z m.@XS s.    0.A.X.j.T @X    @X@Xi.l +.].    S q.@Xk ].C     <.0.<.&.@XX.    @XA.I U G.@X    g.!.V @X_ (.    @X) &.@X3.    ",
"    m.N h.@XC     i.#.p.d @X&.    L.2.t.h.p.2.    ].Z 8.m.C ;.    m F.N @X_ ;.    8.4.c.y.2.w.    V h.3.X.X./.    E.( @X<.)     ",
"    h.U.V :.3.    g.g <.q.-.X.    <.+.@Xp.L.].    i.@X~ y.&.8.    m <.s.{ <.].    Z @Xm.a.@X(     /.Z m.Z %.1.     .p.{ _ ].    ",
"    y._ k._ #.    8.h  .&._ f.    !._ @Xd.K.A.    f.~ h.T *.#.    $.T _ %.t.+.    2 ].m.d.!.X.    X.h.T q.` V     V ( %.p._     ",
"    :.#.w.q.(     z n n ( e.g.    (.{ !.i.K.8.    p.~ i.t.I v     G L +.q.p.f     ^ h.m.d.Y.{     #.0.8.N U u     ^ #.0.i.f     ",
"    S @X@Xh.v     = $ Y l p.@X    @XX.Y.p.!.)     T E.@X1.V v     = R c U.@X0.    <.p.x.g.0.<.    n.@X+._ r $     ^ T E.@Xm.    ",
"    3.@X8.V C.    O U E.v.N l.    /.&.h.p.].j     _ @Xt.Z ].m.    ( @Xp.C K.].    i.;.D.x.Z '.    @X8.~ @Xh.0     ].8.M h.@X    ",
"    @X*.F U.@X    _ 8.J.@Xh.N     N n.{ h.D.v     ].i.Z Y.@Xh.    0.n.@Xp.S '.    @XV E.v.w @X    <.~ ].@Xd.q.    U.@Xh.Z h.    ",
"    &._ @XY.;.    w.!.3.&.`.D.    +.i.e L.X.0.    i.S ].L.X.q.    L.,.2.'.p.V     y.c /.2.~ X.    / @XJ.( d.@X    <.5.(.L.B     ",
"                                                                                                                                ",
"    i.V p.@Xw.    8.@XX.L.@X~     I W ..( L L     i.{ ;.@Xi.2.    @X%.j.].S 8.    $.@.J J W {     M h.@X:.w.@X    T !.@Xo.*.    ",
"    g.h.I @Xx.    9.@X{ E.L.V     @.V t 8 r h     d./.Z ].g.*.    @X~ '.x._ E.    N y 9 t t L     x.B @XM.X.@X    g @XQ.~ !.    ",
"    ].@XT *.@X    9.E._ @X#.i.    c 8.1 o O U     L.@X:.0.!.(     ].Z @X( d.@X    y.e X . c <.    @X+.t.U.X.@X    { @XT 2.@X    ",
"    T ].@Xj ].    8.E._ ].N @X    ].@Xy.5 R @X    S n.'.c @XZ     8.>.s.S @X8.    @XC.w l E.@X    U.m.T @XX.].    D.:.C @Xh.    ",
"    8.Z ].L.S     t.2.t.M x.i.    @Xi.3.t.8.2.    h.B m.q.] o.    C E.c @X5.T     p.3.d.8.2.h.    V ].X.w.X./.    @XT @Xp.N     ",
"    Q.i.B s.&.    p.v 8.#.p.I     :.+.@Xf.L.E.    m.U.V D.~ 8.    s q.9.8.( @X    ~ ].J.f.Q.^     p.Z (.f %.i.    <.u.q.S /.    ",
"    8.8.h.I 1.    y.e ..t.~ x.    A._ @Xi.L.(.    9.<.h.V t.-.    { / :.) h.<.    3 @Xm.p.'.X.    w.i.T y.( T     v *.~ h.2.    ",
"    0.T 0.t.^     U K I U 0.t.    (._ /.p.L.i.    n.c i.8.S n     Q L ( t.8.f     V x.m.d.E.{     ) 9.2.S W i     } X.y.q.p     ",
"    Z @X@Xs.L     > : L V h.@X    @XX.Y.i.Y.]     _ j.@Xt.V i     , J Z D.@X+.    <.p.x.f.p.%.    x.@X:.^ 9 ,     J ( H.@Xy.    ",
"                                                                                                                                ",
"    ].a.M i.@X    v q.].@X0.~     _ f.&.g./.j     h.E.V f.@X/.    i.@X@X*._ @X    E.~ !.L.e @X    h.C m.@XY.<.    @X@X<.T /.    ",
"    p.V !.@Xt.    u.h.2.e.@Xq.    C x.j v.,.*.    U.N h.@X8.2.    g.<.p.@X<.~     E.j (.u.V *.    N /.].2.9.E.    2.h.@Xy.V     ",
"    T (.f.2._     8.@X0.+.3.L.    /.X.g A.g C.    V x.j.1.U j.    @X<.#.1.@X5.    f R t.T w.)     E.p.q.w @X@X    3.{ 2.J.f.    ",
"    h.~ y.!.8.    9.@XX.U.!.{     T { +.#.v /     y.#.<.].q.8.    @X*.j.D.~ y.    $.$.U v *. .    T p.@XX.d.].    ) L.L.%.8.    ",
"    u.8.+.@Xh.    9.].{ !.].b     #.L n t z z     8.s.S @Xf.-.    @X) Y.L.~ h.    v z u z u I     1._ @Xj.&.].    c @X@X~ h.    ",
"    @X@Xc t.@X    0./._ ].<.2.    l @.; + O z     ].@XX.p.L.{     @XZ @X@.8.@X    5.7 + + 0 _     @X~ h.U.{ @X    ~ @X-.+.@X    ",
"    X.@XJ.d @X    w./._ @XN Q.    h.@X<.= z U.    / ].j.Z @XS     s.o.(.c @Xc.    @Xi.1 6 h.@X    @Xh.{ @XX.(.    g.i.q ]./.    ",
"    +.{ @Xi.(     t.u.2.) 8./.    @Xj.w.<.1.u.    8.T @XX.1.'     / A.M D.h.N     D.e.8.-.u.!.    _ @XZ x.] (.    @XV @XY.V     ",
"    @X&.~ '.E     f.V y.S /.V     3.%.!.f.L.g.    @Xt.S @XM 8.    a p.#.j.Z /.    X.L.n.h.x.]     <.) !.j &.h.    y.<.Y.Z f.    ",
"                                                                                                                                ",
"    s.v i.8.T     ` U T T 1.t.    '._ ].p.L.h.    /.f y.<.U R     | U T t.-.B     f L.m.d.Y.X.    T q.+.( { i     _ ( i.q.a     ",
"    S D.v.i.T     5 8 v U p.].    .X{ !.p.U.&.    +.y.!.i.Z h     7 H ` f.@XS     &.p.m.g.x.X.    f.U.8.A u 4     v +.p.(.&.    ",
"    _ @X@X+. .    . : 7.+.&.@X    @XX.D.d.(.V     T ].].( *.@.    1 q.~ 2.@XU.    8.q.m.h.X.i.    @X!.T q.( @     q.R <.@X@X    ",
"    m.!.C %.@X    8 6.@X@X#.&.    7.w.2.h.].g     9.@X~ 2.@X@X    y.@X@X) -.@X    m._ U.n.g @X    ].S u.@X/.^     @X]./ X.@X    ",
"    '.C i.@Xx.    8.y.3.k.@XX.    d Y.N x.w.{     @X~ <.@Xh.2.    e.9.U.].^ <.    @Xj (.s.j w.    V i.@Xh.2.x.    0./.@X#.]     ",
"    Z x.n.w._     4.@X8._ w.@X    h.O.d D.N x.    ~ q.].0.S j.    @X2.+.u.@X_     C Z l.{ ,./     f.L.0.d @X@X    2._ w.].2.    ",
"    p.&.9.j.8.    0.@X%.c.g.*.    X. .( 5.g #.    5.8.<.J.8.0.    @X-.p.p.+.x.     .$.( v r.+.    <.8.(.~ m.@X    X.s.g.;.p.    ",
"    q.{ 2.@Xd.    0.].X.L.@Xc     { L R v J z     0.6._ @Xp.<.    @X[ L./.Z i.    T R i J z T     ( <.@Xp.*.@X    c @X@X) 8.    ",
"    @X@Xf c.@X    9.'.{ Q.0.%.    v ^ : ; $ u     @X@X( x.m.+.    @XZ @X8.<.@X     .< & & 8 T     @Xc K.U.X.].    V @Xs.) @X    ",
"                                                                                                                                ",
"    T 8.@X%.-.    u.s.&.2.X.@X    @XQ.y._ *.x.    +.&.@XZ k.F     { p./ y.].Z     @Xf.+.X.g.@X    <.@XB ]._ (.    @XZ f.@X)     ",
"    @XT <.@XS     p.( p.g @X~     i.;.h.h.c.w.    @X+.X.].M 2.    a z.^ ].Z i.    %.i.L.g.u.;.    / <.j.C &.U.    c.+.@X) <.    ",
"    0.].^ T t.    g.w %.h.( 9.    8.X.@Xp.L.].    3.].#.&.9.6.    C %.h.S p.m.    l @XJ.f.].(     ].( 8.X.{ ;.    U p.V <.!.    ",
"    s.V h.*.(     *.n _ R =.y.    '._ @Xi.L.x.    D.c s.{ X.[     $.S T 8.5.~     3 !.x.p.E._     T p.^ *.} l     ^ T 0.y.M     ",
"    _ y.p.t.(     r h z ^ u.n.    ].X.!.d.L.2.    2.*.j.t.T z     u J +.t.E.M     +.g.x.p.U.X.    8.p.q.J z 9     A -.q.v.T     ",
"    / @X@X0.I     o $  .V 0.@X    @XX.U.d.].T     T Q.@X%./ ~     ; +.B h.@Xh.    2.y.J.h.<.8.    '.@X) *.z +     @.Z h.@X].    ",
"    i.@X_ T @X    - #.@X@X~ 0.    j.2.y.f.@Xg     ;.@X&.X.@X@X    5.@X!.V p.@X    f.X.D.n.c @X    @XX.%.@X/.v     @Xh.N 2.@X    ",
"    @X/ #.].].    <.9.u.@X!.S     d E.T h.h.T     @X#._ @X].w.    8.d.@XL.C p.    @Xc (.x.e m.    _ *.@X!.9.p.    g.@X].~ 1.    ",
"    / 1.@Xg.{     w.@X8._ h.@X    8.<.e U.T p.    &.X.@Xg.~ p.    @X>.@.x.(.V     +.N D.;.X.)     <.@Xd.M U.@X    <.+.j.]./     ",
"                                                                                                                                ",
"    t.T i.@Xu.    9.@XX.U.@XV     R U } I U x     t.+.o.@Xp.<.    @X+.m.@XC 8.    { ` z P n ^     b i.@Xq.2.@X    V @X@X_ -.    ",
"    !.E.c !.U.    4.].{ Q.f.)     ~ L 5 4 < u     U.@X! U.j.$.    @XF @Xp.%.].    U 8 4 6 r v     @Xc @XU.X.].    c @XG.~ ].    ",
"    h.@X%.~ @X    9./._ @X( h.    ^ h.u . $ %.    0.@X8.:.@X~     (.F @XN n.@X    x.I + + ^ s.    @X<.2.!.X.].    ;.@Xw i.@X    ",
"    B c.@XS p.    0.D.X.h.~ @X    @X@Xf.z ..(.    ~ t.@Xc @XD     *.q.<.&.@X]     @Xn.U U U.@X    f.!.V @X_ (.    @X) *.@X<.    ",
"    m.B f.@XV     i.+.i.f @X&.    x.2.u.f.p.2.    ].Z 0.v.C :.    j H.B @X_ %.    3.8.x.y.4.0.    B g.3.X.+./.    !._ @X*./     ",
"    h.U.C <.2.    h.u <.w.*.+.    <.+.@Xd.L.@X    u.@X~ i.%.8.    k 2.h.] <.'.    V @Xm.f.@X/     ].Z h.V #.3.    X.p.X.{ @X    ",
"    i._ x._ +.    6.z { %.{ h.    /._ ].d.L.U.    h./ c.~ -.@.    $.T _ &.t.+.    2 '.x.f.!.X.    X.h.S 8.` V     V _ #.s._     ",
"    ;.#.0.t.(     z L H ^ t.p.    ].{ /.d.L.0.    p.T i.y.T v     G I ..w.p.d     ^ h.m.f.U.{     %.w.0.M U t     R @.7.p.k     ",
"    T @X@Xp.N     $ $ R c p.@X    @X .Y.d.Y./     ~ !.@X8.V v     * ^ v E.@X8.    <.p.m.h.0.<.    L.@XX.{ r #     ^ T H.@Xn.    ",
"                                                                                                                                ",
"                                                                                                                                ",
"                                                                                                                                "
};
