/* XPM */
static char *fb082a5cdda345d38f17283e76de4882qDx44bsRdpMgaak0[] = {
/* columns rows colors chars-per-pixel */
"64 64 249 2 ",
"   c #1B162A",
".  c #1D1A2C",
"X  c #15122A",
"o  c #131B34",
"O  c #1C1E33",
"+  c #161F39",
"@  c #181F39",
"#  c #221C2E",
"$  c #291D2D",
"%  c #241E31",
"&  c #291E31",
"*  c #1B2134",
"=  c #17203A",
"-  c #1A223C",
";  c #152137",
":  c #28212F",
">  c #232233",
",  c #2B2233",
"<  c #23263A",
"1  c #26293B",
"2  c #2B293B",
"3  c #2A263A",
"4  c #322634",
"5  c #342B3B",
"6  c #382938",
"7  c #35313E",
"8  c #3C333E",
"9  c #541C2F",
"0  c #472836",
"q  c #572A39",
"w  c #43333D",
"e  c #4A363E",
"r  c #573A3B",
"t  c #50202F",
"y  c #6A2D37",
"u  c #6A1E2F",
"i  c #4E443C",
"p  c #67483C",
"a  c #1C2542",
"s  c #1F2943",
"d  c #242A43",
"f  c #2B2E42",
"g  c #222742",
"h  c #342D41",
"j  c #2C3145",
"k  c #2C334A",
"l  c #333344",
"z  c #3B3543",
"x  c #32354B",
"c  c #363A4B",
"v  c #3A3B4B",
"b  c #3A3847",
"n  c #343B53",
"m  c #363C54",
"M  c #453542",
"N  c #433B46",
"B  c #433D4A",
"V  c #4B3946",
"C  c #533C45",
"Z  c #583B48",
"A  c #4E3448",
"S  c #663A49",
"D  c #773B47",
"F  c #3C4453",
"G  c #3F4857",
"H  c #3F4A59",
"J  c #37435A",
"K  c #3B4A62",
"L  c #42414A",
"P  c #4C444C",
"I  c #4D4144",
"U  c #53444C",
"Y  c #5C444C",
"T  c #574547",
"R  c #414C5B",
"E  c #464656",
"W  c #5B4D54",
"Q  c #554953",
"!  c #5D5155",
"~  c #5C545B",
"^  c #55535D",
"/  c #4E5152",
"(  c #634A4E",
")  c #66464A",
"_  c #754A4B",
"`  c #665547",
"'  c #785449",
"]  c #674B52",
"[  c #784B54",
"{  c #665558",
"}  c #775955",
"|  c #7C6348",
" . c #7A625A",
".. c #6E654D",
"X. c #445262",
"o. c #555261",
"O. c #675C63",
"+. c #6C666C",
"@. c #766868",
"#. c #7C7377",
"$. c #72726E",
"%. c #546473",
"&. c #922E39",
"*. c #AF2F2C",
"=. c #FF241E",
"-. c #FE3C26",
";. c #FD302C",
":. c #FE1016",
">. c #B1683D",
",. c #9B623A",
"<. c #FE4A2B",
"1. c #FE542C",
"2. c #FE5535",
"3. c #FE4D34",
"4. c #FD653C",
"5. c #DC433B",
"6. c #8E3647",
"7. c #AC3743",
"8. c #DF3C41",
"9. c #84594A",
"0. c #855B55",
"q. c #8B5C53",
"w. c #835C58",
"e. c #8F4752",
"r. c #B15251",
"t. c #8C6254",
"y. c #85625B",
"u. c #8B635C",
"i. c #89685A",
"p. c #936455",
"a. c #93665A",
"s. c #986958",
"d. c #9C785C",
"f. c #8C6E4B",
"g. c #B37642",
"h. c #A66B5B",
"j. c #A6775C",
"k. c #B47253",
"l. c #895E62",
"z. c #886963",
"x. c #966A62",
"c. c #967666",
"v. c #857879",
"b. c #92756D",
"n. c #A47B66",
"m. c #B57965",
"M. c #AD6A62",
"N. c #CD594F",
"B. c #FC4F4A",
"V. c #CD6F53",
"C. c #F66549",
"Z. c #C27765",
"A. c #FB776D",
"S. c #FC5C63",
"D. c #8C8659",
"F. c #B38B4A",
"G. c #B4954C",
"H. c #AF8852",
"J. c #B8A75B",
"K. c #948473",
"L. c #B98469",
"P. c #A98875",
"I. c #AF8F70",
"U. c #B7AC6B",
"Y. c #D78D5A",
"T. c #FD8B55",
"R. c #E7965B",
"E. c #FD995A",
"W. c #F68C50",
"Q. c #CEAF5D",
"!. c #FAA759",
"~. c #EDBD57",
"^. c #F2B454",
"/. c #CF916E",
"(. c #E99866",
"). c #F98D6C",
"_. c #C6B966",
"`. c #D0AF6E",
"'. c #EAA569",
"]. c #E9A875",
"[. c #F9B26E",
"{. c #EEC359",
"}. c #FCC758",
"|. c #DEC871",
" X c #E8C868",
".X c #FEC869",
"XX c #FFD766",
"oX c #FEC777",
"OX c #EDDB74",
"+X c #E8D675",
"@X c #FCD77A",
"#X c #E7CD73",
"$X c #FFEB78",
"%X c #FFF37E",
"&X c #FFF575",
"*X c #F8E66F",
"=X c #6E7889",
"-X c #537589",
";X c #867E85",
":X c #5F8A90",
">X c #8B8285",
",X c #968988",
"<X c #8B8793",
"1X c #949095",
"2X c #A6948B",
"3X c #B99786",
"4X c #A79B94",
"5X c #A8958A",
"6X c #A9A19D",
"7X c #B7A596",
"8X c #B9A784",
"9X c #95AAB2",
"0X c #A8A6A9",
"qX c #AFAFB1",
"wX c #99A19D",
"eX c #CB9B83",
"rX c #FD9988",
"tX c #D1AD8A",
"yX c #F1B893",
"uX c #C9B9AE",
"iX c #FEBBA8",
"pX c #8FCA86",
"aX c #A6DA9F",
"sX c #E7C58A",
"dX c #E8C49A",
"fX c #FAC998",
"gX c #FAD899",
"hX c #F5D28A",
"jX c #FDE987",
"kX c #FFF38C",
"lX c #FFFB8D",
"zX c #FFF784",
"xX c #FBEA97",
"cX c #FFFC93",
"vX c #FFFF9C",
"bX c #FEF694",
"nX c #EAEC90",
"mX c #D6CCAB",
"MX c #E9C5A3",
"NX c #EFD3AF",
"BX c #FCF9A7",
"VX c #D3E09A",
"CX c #ABBEC6",
"ZX c #B9C9C8",
"AX c #BDE2D2",
"SX c #CED3D3",
"DX c #F2EACD",
"FX c #F1F1ED",
"GX c #D0E7C3",
/* pixels */
"* * * * * * * * * * * * * * * * * * * * * * * * * * * * * * * * * * * * * * * * * * * * * * * * * * * * * * * * * O O * * * * * ",
"* * * * * * * * * * * * * * * * * * * * * * * * * * * * * * * * * * * * * * * * * * * * * * * * * * * * * * * * * * * * * * * * ",
"* * * * * * * * * * * * o o o ; ; ; ; ; o o o o o o o o o O * + o o + * * * * o o o o o o o o o o o o o o o o o o o o o o o o o ",
"O O O O O O - - - - O e g.g.g.>.>.>.>.>.g.g.F.J.U.U.U.J.J.d.f.G.J.J.D., j j < | F.F.G.G.G.G.G.G.G.G.G.F.F.F.F.F.F.F.F.G.G.G.G.G.",
"+ = - + @ @ @ @ = - O p ^.}.W.-.3.C.2.2.2.2.E.cXcXcXlXlXOX) T p.*XlXQ.4 n J 3 #X$X$X$X%X%X%X%X%X%X%X%X&X$X$X%X%X%X%X%X%X%X%X%XzX",
"+ + g + + = = = = - - p }.XXT.;.3.2.2.2.B.B.T.vXcXlXlXlX_.Z C C #XcXQ.6 m J 5 lXcXcXcXcXvXvXcXcXBX@X@X[.[.oXcXcXkXjXjXkXjXkXcXjX",
"+ + + + = - - - - a s p }.XXT.A.A.;.3.=.A.B.T.cXcXcXlX%X`.] ] Y |.cX~.6 J J 5 lXcXcXcXbXoXjXcXcXBXxXzXxXFXFXvXjX4.2.4.W.2.jX.X1.",
"+ + + + = - - - - s a p XXXX!.S.S.B.B.;.B.:.hXcXcXcXlX%X`.[ q.] |.lX|.6 J J 5 lXcXjXT.fXiXyX.XcXkX^.jX).rX).jXoX-.1.1.1.-.E.3.!.",
"+ + + + - - - - - s a ' XXXX.XfXfXgXiXrXrXrXBXcXcXlX%XXXQ.0.q.9./.jX|.z J J z lXlXhX1.rXFXDX<.kX@X4.E.A.rX).jXjXyX<.1.<.-.<.-.@X",
"= = = = - - - a - s a | XX$X$X@X$X$XkXkXbXvXcXlXlXlX$XY.N.r.m.3Xr./.+Xz K K z lXcX@X2.4.2.2.3.kXlXW.=.-.1.-.@XxXS.=.=.=.=.T.[.jX",
"+ = + + = - - a a s d | XXzXlXcXcXcXcXcXcXlXlXlXlXcX$X`.NXyXMXuXr.sX+XN K K h lXcXkX4.<.1.<.T.bXcXjXE.E.!.E.jXkXC.;.=.!.E.jXvXcX",
"- g d = - - - - s s d | XX$XlXlXzX%XzXzXzXlXlXlXlXzX$X@XMXdXtXeX/.kX XN K K 5 lXcXcXbXkXkXkXcXcXcXcXvXvXvXvXcXcXbXkXkXvXvXvXcXcX",
"- s d - - - - - - s s | {.~.{.{.~.~.~.{.~.~.~.{.{.~.{.{.^.^.^.^.~.{.F.5 K K 5 $XOXOXOXOXOXOXOXOXOXOXOXOXOXOXOXOXOXOXOXOXOXOXOX+X",
"- - - - - s s s s d k l B B B B L L B B B B L L B B B B N N N N N z l x K K x P L B B B B L L L L L L L L L L L L L L L L B B B ",
"- - - * O O * > > < f f f j f j f f f f f f f f j j j j k k j j f j j j j j j j j j j j j j j j j j j j j j j j j j k k k j j j ",
"O . . .                                                                             # # # # . # # # # % > > > # & > # : > # : : ",
"O O O O #             #     X           X     #     # # # # # # . # . . . . # # # # # . . # # # # # # #   # # # . #   . .   # # ",
"< O % > > 3 3 2 2 3 3 l N B ! z z b z B 9.V M 5 M 8 3 5 b b b b l b z b b b b b b b z z b v b b b z , 2 N 3 2 2 2 , q D 6.V z B ",
"< v +.$.+.E +.#.#.+.^ m 2Xv.2Xv.#.#.O.#.P.z.{ 5 W P 5 N Q ! ! ! W W W Q / Q Q Q ! Q ! ! ! W ! ! ! U 3 f v h h z _ 3 y &.7.( U y.",
"g B v.>X>X/ 7X,Xv.,X$.E 7X>X;X>X,Xv.{ v.+.@.c.8 z M 4 V ! ! { { ! } C S S D [ S W { { { ! { { { { Q 2 h M S A 7 } & S w.[ Q U x.",
"d E v.>X,X~ 4X>X>X2Xv.E 7X4X>X>X2Xv.{ K.#.@.b.w 5 z , V { { { { ] z.Z e.6.6.r.S M W { ] ] ] } { { ] 2 z e.e.e.M V & D P } Q V s.",
"d ^ ;X>X2X~ 4X,X,X2XK.^ 7X2X,X2X7X>X! v.#.O.@.w 4 4 , ( y.w.w.}  .b.b.S A S S D Z C 0.w.u.u.x.y.u.} 2 b l.x.m.A e & _ [ x.W ) m.",
"d o.v.K.,X~ ,X2X2X4X5X+.3Xv.v.,X3Xv.Q K.v.+.{ 6 4 4 6 ) w.y.w.w.z.3XtXc.] Z ( e.Z.e.h.w.t.y.u.w.y.} 2 b P.P.I.Z q & _ &.r.Z Y M.",
"g E +.#.>X~ v.v.v.,X3X@.5X+.+.#.#.@.C I.n.O.W e 4 6 C Y y.y.y.y.z.P.P.tX3Xl.b.r.r.6.h.y.u.u.a.u.y.w.2 B /./.tXY q , V 4 V B Y s.",
"f o.v.v.,X! v.O.O.@.@.b.5X{ O.{ @.K.M T M z } V 4 z M Y u.y.y.w.z.3XeXtXeX6.7.y 7.6.h.u.u.u.y.u.y.w.< B I./.`.Z q , L v v v Y x.",
"< c L L P l { Q P W P P W Q ] W  . .M V U P T 5 4 C V ' s.j.j.c.P.tXtXtXeXM.r.e.N.Z.L.j.n.P.P.n.n.d.T ..` { { T q , P { @.N Y x.",
"* 2 N B 7 ! } } }  . . .}  .} ] }  .y. .} y.4 , 6 ) ) ' m.R.'.[.oXxXhXhX[.].].].(.'.].R.'.].'.R.Y.R.R.~. X|.+XI.q 4 $ , , # } h.",
"d f l l f v L 8 7 7 7 7 7 7 7 5 8 8 8 8 8 T , 4 6 M M ) Y.E.!..X[.[.].].(.(.(.(.(.(.[.(.(.R.R.R.Y.Y.h.W F E E P.0 4 4 4 4 : w.x.",
"n n x l f x ~ @.1X1X<X<X<X<X<X1X<X<X1X<X<X1X} , 4 w w ) tXyXyXdXdXdXdXyXdXMXMXMXMXMXNXdXMXyXdXdXsXsXtX7X4XP.! K.0 4 4 4 4 , q.h.",
"n n n x f v v N b.o.J._._.J.Q.H.J._.@.~ b L P.& 5 C w C x.z. .s.x.z.x.x.c.n.L.L././.`.z.L.(.E.[.'./.n.z.$. .j.n.q 4 4 4 4 & s.m.",
"n n n x f m j } n.x BXcXBXjXcXhXBXcXI.v > z n.& 5 Z w M a.I.`.#XhXsXsX#XgXdXgXgXgXhXm.} h.k.k.(.XXT.q.V E c k.h.q 4 4 4 4 & t.h.",
"n m n x f c f { @.k tX`.sX`.OXsXxXU.D.v , N n., 5 Y w M a..X[..XXXXXXX.X[.@XjXoXoX@Xk.} s.s.j.Y.Y.k.Y { z C p.q.0 4 4 4 4 & p.h.",
"n n x x j c f z.U.L ,.9.g.| h.g.g.` ` P 3 B n., 6 ) M M [ ^.!.R.R.R.W.Y.Z.R.[.(.(.Y.q.w.h.h.Z.Y.z.} B Q C S q.q.0 4 4 4 4 & p.s.",
"x x x x j l 2 r.V.w i r ) w p e i i i Y f V s.& 5 ) M V I.hXhXdXgXMXNXsXmXm.k.m.Z.m.0.q.t.s.s.s.q.} V B e S h.t.& 4 4 4 4 & s.h.",
"n m m n x R j 6 5 # 0X0X0XqXqX0X0XqX9XwX{ { K.# 6 S M M uX(.@X[.dXfXfX@XtXL.h.Y.Y.h.h.h.t.t.a.q.s.0.V Q 5 S y.t.& 4 4 4 4 & p.j.",
"n n m n x F l l c < SXCX9XSXZX9XqXZXCXGXU } 7X# 4 Z A Z 0X5.T.N.b.K.R.^.~.t._ 9.} Y Y ) ( ( ( ( ] ] b W 5 Z z.a.& 4 4 4 4 & s.k.",
"n n m n c j j l v f CX-XX.9X:X%.#.=XuXNXM ( 6X$ 4 Z M M 4XC.E.N.n.U./.'.R.A 3 h h l z l 7 7 7 h l z z N 5 V i.i.& 4 4 4 4 & p.h.",
"n m m n v j j l c 1 SXqXwXZXCX9XCXqXSXDXV x.6X# 4 ) M 5 0XyXgXfXeXyX[.hX].h.J.`.J.f.Z p.s.s.p.s.s.s.s.q.p.p.x.s.& 4 4 4 4 & t.h.",
"n n J n x j j l c 1 FXFXFXFXFXFXFXFXZXpX#.Y 6X$ 4 _ N 8 qXmX/.)./.mXZXGXZX4XmX(.hX{ L.i.p.p.t.q.s.s.s.u.a.t.i.c.& 4 4 4 4 & p.j.",
"n m m n x x j l c 1 SX;X=X9X1X-X<X1X=X%.>X3 6X$ 4 ' C e v.P.v.7.r.sXAXGXmX8X].D M.] `.} k.Z.j.J._._._._._.] z.c.# 4 4 4 4 & q.h.",
"m J m c x x j l c f uX#.+.1Xv.#.>X>Xv.O.;X: 4X# 4 0.) Z ) P O.W Z i.i.c.y.{ ) ( ] z /.} k.Y.j.|.&X*X&X&X&XA z.c.# 4 4 4 4 , 0.a.",
"J J m x l x j l v 1 FXDXNXDXDXDXDXDXDXDX<X~ 6X# , 9.) Z i.U.8X8X8XP.8X8X8XI.7X7X7Xv./.' L.H.s.nXW.N.N.'.&XA z.c.# 4 4 4 4 , q.t.",
"m m m k x x 2 l v f DXmX|.].A.A.).A.).A.$.>X0X# 4 q.} [ } d.n.n.n.x.c.n.n.a.n.n.n.z.u.} ] ] _ D.r._ Z 0.j.} c.c.# 4 4 4 4 & p.a.",
"n m n f j c j l v k tXr.&.[ N.r.r.k.k.r.5 4 6X# 4 e ) ] ( ( } ] Y ] ] ] { ( ( ) ( ] ( } Y Y ) ) _ ) ) ) _ } } T , 4 4 4 4 & t.a.",
"f d d d j x j l v x b.6.6.$.pXaXaXpXpXVX! { <X# 4 , , 3 , 3 b M f.z 5 7 h 5 5 5 8 7 5 > 3 , , , > > , , , , 5 & , & , 4 4 & t.a.",
"- - s - j x j l v c ! ^ ^ ! $.$.$.$.$.$.$.v.6 , 4 , 5 y.t.3 B I _.6 , , 4 5 6 4 4 4 , > , 4 & & , 4 4 , 4 4 | w C C 8 , , & p.s.",
"= + = - f j j l v v c c c c q q M S S D V b , , , & N x./.s.i.} Q.4 0 q t 4 4 9 *.r 6 *.*.6 Q.J.f.6 w ` 6 0 D.C ( ( } 0 0 & p.a.",
"= = = - f j j l v v v v v v ^.^. X~. X^.h v 3 & & # 4 w w e e T Q.4 q y u 4 6 4 y ` 4 &.y 4 *X XH.4 V d.6 8 s.% > > T y y & q.s.",
"= = = = 1 f 2 f 1 f j j c l D.D.D.D.D.D.l v , # # # # # # #   6 G.9.9.9.9.' ' 9.t.p.9.) 9.' 9.9.9.' ' t.9.' r 8 N V C 3 , & 0.w.",
"= = = = < f 1 0 u u u 9 , 3 j j f j j j v c w } } }  .' y.i.y.s.d.d.d.d.j.j.j.j.j.j.d.d.d.d.d.d.d.j.d.j.j.} ( }  .y. . . .6 t.0.",
"- - - - - 2 O j..XT.!.T.r 2 v c c c c l l l l P P P P P P U P P P P P P P P P P P P P P P P P P P P P P P P P P P P P U P , 0.0.",
"- a - - - 2 O D.nX`. X~.p < c l 5 3 2 2 j f %   . . . . > > > > > > > > > % % % > > > > > > > > > > > > > > > > > > > # >   } Y ",
"- - - - - 2 < 3 l 8 z 8 4 < , 2 2 2 2 8 A 8 # % % # % > > , , , 3 1 1 1 1 1 1 1 1 1 1 1 1 1 1 1 3 , 1 1 1 1 1 1 3 1 1 , l O ( l ",
"+ + = = * 1 3 2 2 f j j l l 2 # % # # R..XH.X . . # 3 3 > > > > c v v v v v c v v v v v v v v v v v v v c v v c c v c v v O Y z ",
"+ + = = - 1 > 2 f f f 2 f l l , # # & f.| `   . . % 3 , . . % > 7 c c b c c c c c c c c c c c c l c c c c c c c c c c c c % T P ",
"= = = = - 1 < 2 2 2 2 2 2 2 2 l l l l d g 1 # . . . # . . . . # c F E E R R R G R R G G H R F F F G H R H H R F F F F F R < Q Q ",
"- = - = = 1 > < 3 2 2 2 1 1 2 l l l l l l f O .   % > > > > : : v F R R R R R R R G G G F R F F F R R R H H R F F R R G R < P B ",
"+ + @ = O < > < < 2 1 2 1 1 3 2 2 f f l 2 1 . . # % > > > > , , c F F F F F F F F F F F F F F F F F F F F F F F F F G F R < B B ",
"+ + + = * < > 1 1 1 2 2 1 1 1 1 1 1 2 1 1 > . # , % > > > > , < v R R R H H H H H H G H R H R H H R R H R R H H R R H H X.< P L ",
"= = + = * > > 1 1 1 1 1 1 1 1 1 1 1 1 1 1 >   # : % > > > > < , F X.X.X.X.X.R X.X.X.R R R R R R R R R R R R R R R R R R X.< B B ",
"= + + = O O > 1 1 1 1 1 1 1 1 1 1 1 1 1 1 >     # % > > < > , > v F F F F F F F F F F F F F F F F F F F F F F F F F F F c > B v ",
"* * * * * O * < < < < < < < < < < < < < < * O O O * > > > > > O 1 1 1 1 1 1 1 1 1 1 1 1 1 1 1 1 1 1 1 1 1 1 1 1 1 1 1 1 > O 2 2 ",
"* * * * * * * * * * * * * * * * * * * * * * * * * * * * * * * * * * * * * * * * * * * * * * * * * * * * * * * * * * * * * * * * ",
"* * * * * * * * * * * * * * * * * * * * * * * * * * * * * * * * * * * * * * * * * * * * * * * * * * * * * * * * * * * * * * * * "
};
