/* XPM */
static char *_aa92c682ac945299e94978d310fc610Hu2nwzbtSUBrwEcl[] = {
/* columns rows colors chars-per-pixel */
"64 64 256 2 ",
"   c #15081E",
".  c #060728",
"X  c #170C25",
"o  c #1B142A",
"O  c #1A1A2D",
"+  c #171428",
"@  c #091737",
"#  c #1A1E31",
"$  c #151836",
"%  c #0B0C31",
"&  c #241B2C",
"*  c #2A1C2D",
"=  c #251929",
"-  c #231D32",
";  c #281C34",
":  c #33172F",
">  c #1C2235",
",  c #192338",
"<  c #12222E",
"1  c #2B222D",
"2  c #242335",
"3  c #2C2434",
"4  c #23253A",
"5  c #2A263A",
"6  c #252A3C",
"7  c #2B2A3B",
"8  c #292837",
"9  c #332534",
"0  c #322936",
"q  c #332B3C",
"w  c #382737",
"e  c #382F36",
"r  c #2C0519",
"t  c #4A1B32",
"y  c #50192B",
"u  c #6F1733",
"i  c #56212E",
"p  c #5C212E",
"a  c #452736",
"s  c #562230",
"d  c #592835",
"f  c #46383C",
"g  c #58373B",
"h  c #662637",
"j  c #782832",
"k  c #763036",
"l  c #730918",
"z  c #56513D",
"x  c #71463B",
"c  c #0E1B45",
"v  c #172546",
"b  c #152B51",
"n  c #252C42",
"m  c #2C2D43",
"M  c #272948",
"N  c #332D43",
"B  c #382D43",
"V  c #2D3248",
"C  c #333245",
"Z  c #3B3444",
"A  c #34364A",
"S  c #3A3649",
"D  c #36394D",
"F  c #3C3A4C",
"G  c #3D3A45",
"H  c #273556",
"J  c #343B52",
"K  c #3C3C51",
"L  c #242A52",
"P  c #1E3D67",
"I  c #433B45",
"U  c #4B3C44",
"Y  c #433C4C",
"T  c #4A3D4A",
"R  c #423645",
"E  c #563947",
"W  c #423E51",
"Q  c #4A3E51",
"!  c #4E344D",
"~  c #6C3747",
"^  c #721C40",
"/  c #3A4358",
"(  c #1B426C",
")  c #274E7A",
"_  c #294C74",
"`  c #2B537C",
"'  c #29537C",
"]  c #29456A",
"[  c #4C414E",
"{  c #47434B",
"}  c #584549",
"|  c #444253",
" . c #4B4554",
".. c #44495C",
"X. c #4A485A",
"o. c #524654",
"O. c #534B5C",
"+. c #584B56",
"@. c #57515C",
"#. c #5E5341",
"$. c #684849",
"%. c #75544E",
"&. c #634D54",
"*. c #675459",
"=. c #755857",
"-. c #6F4F4A",
";. c #7A675D",
":. c #796946",
">. c #595666",
",. c #4C5069",
"<. c #695B66",
"1. c #786865",
"2. c #7C7266",
"3. c #6D6873",
"4. c #5B6379",
"5. c #8C101A",
"6. c #881B2C",
"7. c #872832",
"8. c #952B33",
"9. c #9A3537",
"0. c #8C2C31",
"q. c #A52C33",
"w. c #A33335",
"e. c #A73636",
"r. c #B43735",
"t. c #A80923",
"y. c #CE3032",
"u. c #F4372A",
"i. c #B84D32",
"p. c #96583D",
"a. c #CC4B37",
"s. c #EE5338",
"d. c #CE6639",
"f. c #F26E37",
"g. c #FE5815",
"h. c #8A2F45",
"j. c #985C47",
"k. c #875D56",
"l. c #905146",
"z. c #BA5943",
"x. c #A95345",
"c. c #89645A",
"v. c #976759",
"b. c #9B7759",
"n. c #956E4C",
"m. c #A56B5A",
"M. c #B66C54",
"N. c #AA735C",
"B. c #B97554",
"V. c #B26845",
"C. c #886A63",
"Z. c #986C61",
"A. c #867869",
"S. c #997765",
"D. c #8C7377",
"F. c #A77564",
"G. c #B07362",
"H. c #C95244",
"J. c #CD7350",
"K. c #FB7A4A",
"L. c #EF714A",
"P. c #F2776C",
"I. c #DD645C",
"U. c #F19236",
"Y. c #FEA933",
"T. c #D1A03D",
"R. c #B38E55",
"E. c #94876D",
"W. c #B48D70",
"Q. c #A8A86D",
"!. c #A9A772",
"~. c #B8A873",
"^. c #948A50",
"/. c #CE8955",
"(. c #FE8847",
"). c #F69352",
"_. c #D0AE4F",
"`. c #FEAF4F",
"'. c #DD8D64",
"]. c #C5976C",
"[. c #DB9869",
"{. c #D79974",
"}. c #C98F70",
"|. c #E38C62",
" X c #E29164",
".X c #E99566",
"XX c #F59669",
"oX c #CBAC70",
"OX c #E6A87A",
"+X c #FEA972",
"@X c #FCB876",
"#X c #F4AF6B",
"$X c #FBCC52",
"%X c #FCE456",
"&X c #D8C970",
"*X c #FEC678",
"=X c #FAD370",
"-X c #FFF56A",
";X c #FDE677",
":X c #FFFB79",
">X c #FDE569",
",X c #FFD43F",
"<X c #2A5583",
"1X c #35648D",
"2X c #445482",
"3X c #566B8E",
"4X c #6C7186",
"5X c #887784",
"6X c #708BA4",
"7X c #7AA9DB",
"8X c #8C8C90",
"9X c #A99C98",
"0X c #8E99A9",
"qX c #8CA7B1",
"wX c #AFB2B3",
"eX c #ABA494",
"rX c #C4B194",
"tX c #F8BB86",
"yX c #F0B489",
"uX c #EDAFB2",
"iX c #D4A79C",
"pX c #FCC689",
"aX c #FDD987",
"sX c #FDD994",
"dX c #F6CE92",
"fX c #FFF889",
"gX c #FFEA98",
"hX c #FFFE9C",
"jX c #FFFC94",
"kX c #F4ED8C",
"lX c #F4D1AD",
"zX c #FFFEA8",
"xX c #FFFBB9",
"cX c #FDE9B1",
"vX c #C8C7B9",
"bX c #8CB0D1",
"nX c #8FB3F1",
"mX c #A1AED3",
"MX c #95C9D7",
"NX c #B0C7CE",
"BX c #98C7EE",
"VX c #B4D6F7",
"CX c #A9CFF1",
"ZX c #AFF1F6",
"AX c #FEFAC6",
"SX c #FEFCD7",
"DX c #F6EDD0",
"FX c #D8F9FC",
"GX c #CBF7F3",
"HX c #FEFEE6",
"JX c #E8FCFF",
"KX c #FEFFFE",
"LX c #F8FDF8",
"PX c #ECECEC",
"IX c #D4D4D2",
"UX c #CDBFC9",
/* pixels */
"O # # # # # O O # # # # # # # # # # # # # # # # # # # # # # # # # # # # # # # # # # # O O # # # # # # # # # # # # # # # # # # O ",
"> > > > > > > > > > > > > > > > > > > > > > > > > > > > > > > > > > > > > > > > > > > > > > > > > > > > > > > > > > > > > > > > ",
". . > > O > # # # # # # # # > # # # # # # # # # # # # # > # # > # # # # # > > > # # # , > > > > $ # # # # > # O > # > > # > > O ",
"^.:.$ 6 n 6 n n n 6 6 n n 6 6 n n n n n n m n n m m m 6 6 7 7 6 7 7 7 7 4 $ X + o o + X X X % 4 Y 8 7 7 7 8 C A 7 7 6 4 7 4 4 4 ",
"kX=Xo L J V J J J A A J J A A J J J A J J J J A J J J A C D D A F S S N I *.@.*.1.D.1.<. . .@.f Y S S Z S C W O.B C 7 C | C N A ",
"kXaX; v A V m m V V m V m m m m m V V m m C C m m C C C C C C F S S F C R E.DXHXHXHXHXHXSXAX~.U 4 Z Z @.>.Y Z Y C S q S X.A A A ",
"*XjXf v J J J A J J J J m A J J C A / D A S S F A S | |  .F Z o.Y  .T  .o.e &.A.OX;X=X=XoX2.; B } [ T &.*.o.[ O.|  .F Z | Y | C ",
"kXfXf v J J A A A J J D m A J J A A J D D S S K D S K | | F Z  .Y Y I I o.[ 9 & f -.x g ; @ m C I +.R o.o.I Y  .Y W Z C Y F Y 7 ",
"kX:Xf v J A A A D V V A C C C A A A A D D F S S S S Y S R [ [ o.Z Z I Z q I [ } R e I I } } } } } } U I U I G F G Z Z S S N N C ",
"kX:Xf L ..K ....,.F K ..../ K ......W ..O.X. . .O.O.>.o.+.1.<.<.[ o.>.X.Z +.1.1.*.=.v.Z.F.v.c.Z.Z.&.=.*.=.<.O.O.O.O.X.X...S F ..",
"kXfXf v D C A A A C C A A A S D D D S F F F Y Y Y F Y Y I [ T T R R I Z Z I [ } U E } } $.$.} } } U U U } [ Y Y Z Z Z Z S N C C ",
"kX:Xe L ..| D C | | W S S  . .X.S Y O. .Y  .o.o. .S S  .O.Z Z O.o.o.R  .@.o.U =.%.=.%.$.k.k.k.} %.%.$.} *.+.[ o.Y X.Y Z  .W  .S ",
"=X=Xq L ..O. .A X.X. .F S X.X.O.Y W O. .W o.O.o.o.T  .@.O.S Y @.@.O.Y o.@.o.} =.=.=.%.$.=.k.k.} %.-.} +.*.+. .o.| O.| F ..K  .Z ",
"{ { D D F F | K K S F F S F F | | Y F  .o. .Y W  . .T R [ o.T U I [ o.T R [ &.&.} } } f %.$.} -.&.} } } +.o. . .Y | F A | S A F ",
"v v | >.>.| @.>.>.| O.>.O.X.| >.>.O.O.<.<.>. .>.3.<.>. .*.3.O.Q Z o.<.W m @.1.1.&.&.@.T F.%.$.C.1.*.*.*.<.>.>.>...../ / ,.W W ..",
"& = 0 F F F | | W S Y Y Y Y o. . .Y Y  . .| F W X. . .Y  .&.~ g g ~ $.E g $.%.%.$.x $.g l.$.{ $.~ E E E E E E ! R W F F W C A F ",
"+ o + X X + X X X X X X X 0 =.& o . X X X       X . o 1 c 9.Y.`.cXcXgXkX;X$X>X>X;X:X>X%X$Xr.~ s.f.f.f.f.f.L.f.f.f.s.s.s.7.> J C ",
"N C C C C C 7 2 5 5 q 0 o f ;.X e R.R./.oXoXoXoXoX_.f o } i.,XfXKXHXzXfXhXAXfXfXhX;XaXfX%Xe.h.(.`.(.(.=XjX$X$X>XaX*XL.s.9.> J A ",
"=.C.C.;.;.C.c.=.C.C.S.=.o R ;.. :.:X#X=XhXhXzXxXzX:X:.. c.r.Y.aXAX:X>X%X;XxX`.$X`.g.(.-X`.8.h.K.).K.f.lXSXU.*XdXdXSX).u.w.O 6 2 ",
"c.v.F.S.C.v.m.k.v.Z.Z.*.+ R ;.. :.zXAXaXcXAXxXxXxXzX:.. ^.a.Y.sXxX%X:X>X$X;X`.$XY.g.$X:X$X8.h.L.).).U.lXLXgXcXLXcXSX+Xu.w.5 / m ",
"k.c.c.v.c.c.v.c.m.v.F.=.+ R =.. :.AXAX;XzXfXjXfXfXxX;.. E.a.%XzXSX*XcXgXcXSXpXpXgXlXDXzX%X5.h.K.(.(.`.pXHXxXsXHXSXDXXXu.r.- n 4 ",
"N.N.c.m.m.N.m.v.v.v.N.k.O Z =.$ z &X&X_._._._.T._.&Xz % E.i.$X:XhXjXhXjXzXxXgXgXzXcXcXhX#X5.h L.f.f.(.(.U.(.f.K.@XXXs.s.y.; v 7 ",
"c.C.F.N.F.F.F.S.S.S.m.=.# Z -.7 D 1 = - & & = ; ; = q Z R.l.y.a.a.i.i.i.i.i.i.i.i.i.i.i.9.8.a k 9.0.0.0.8.0.0.5.7.k h d d B V C ",
"&.o.OXsXpXyXyXyXyXsX{.$.O I %.2  .F F D F S F Y F F | Z Q.p.p t t t t t t t a a t a a t h r.a , 6 6 7 6 6 4 > 6 4 > , , # # m 2 ",
"&.Q {.sXsXOXOXOXOXpX{.E o { 1.o q 0 3 0 0 q 0 0 0 0 3 q !.z.h d d h h d d d d d a d d a g q.: q 0 0 3 0 8 8 3 3 0 3 ; 8 * - n # ",
"&.&.}.@XtXOXOXOXOXtXW.E o { ;.q  .Y Y Y Y Y Y W | | F Y Q.z.s.K.K.K.K.K.K.L.L.L.L.L.L.J.H.r.= 3 9 9 9 3 * * * 3 9 3 3 = & - n > ",
"*.o.}.tXtXOXyXyXOXtXW.} o I ;.S >.@.@.@.@.@.O.O.O.O.O. .Q.z.l.k.l.l.j.j.j.j.j.j.x.j.j.l.0.q.9 & 3 0 3 * & * * * q C 5 ; - - n > ",
"&.Y }.sXsXyXP.|..XtXW.$.o I ;.3 | Y Y | | | Y Y Y | W Y Q.V.k u j e.h.7.h.~ u ~ h.^ ^ 7.~ 8.: & 3 3 * = * * ; = 5 5 O 2 o 2 n > ",
"&.Y }.tXpXOXH.s.|.pXW.E o Y 1.o 0 9 9 0 3 3 3 5 0 0 0 0 Q.j.a.f.U.$X`.)..XU.U.'.'.U.).M.^ 8.a q 9 1 1 1 3 3 3 1 & & 1 5 m # 4 > ",
"$.S }.pXtXOX'.I.I.tX{.-.o Y 1.- * = 1 * * * * * * = 0 q Q.x.a.fXzX:XhXSXzXfXjXjXhX:XfXlXn.6.a W n % $ $ $ ; n m A A m C S # n 4 ",
"} V {.sXpXpX|.y.H.pX{.$.o I 2.X ,.3X2X2X2X2X2X,.2X2XH 9 Q.x.d.xXKXzXxXKXSXKXKXSXKXSXxXKXoX5.a m 4X0X6X0X6X6X3X3X,.] H m A # 4 > ",
"U K OXpXpXtXtX@X+XpX{.%.= Y ;.  bXnX7XnXnXnXnX7XnXBX2X= Q.x.a.=XzX:XfXSXjXjXhXhXhX:XfXgXd.6.a o wXKXFXKXLXGXCX7X3XH H m A # > > ",
"U N }.OX{.{.{.{.{.}.F.k.* Y ;.  bXnXCXVXVXVXVXVXVXJX4XX Q.x.r.K.#X(.XX#X(.Y.).{.).Y.+X[.h.8.a - 0XFXZXZXGXZXMX6X3XH H m A # n 4 ",
"E m T T I R R Z Z B =.v.* I ;.  bXnXCXCXBXnXnXCXCXFX3XX Q.z.9.F.W.P.}.{.P.P.P.5XI.P.G.D.%.e.a - qXJXDXFXPXIXvXvX8Xb H m A # 4 > ",
"%.W T [ [ [ [ S V  .F.m.* I ;.X MXnXnXnXnXCXVXnXCXFX2XX Q.z.j wXKXLXDXHXPXJXLXSXHXHXPXPX9X5.a $ mXSXtXHXlXyXvXlXeXb H m A # 6 4 ",
"v.v.c.=.c.k.c.=.=.c.N.m.* F A.X CXZXBXFXJXFXLXGXZXJX3X  !.z.k wXuXuX#X$XP.P.uXW.{.f.yXKXW.l a # NXNX4.IXcXsXlXlX9Xb H m A # 4 2 ",
"v.N.m.k.v.v.v.v.m.m.v.v.* F A.  NXFX7XbXCXVXCXVXbXnX,.= !.z.k wXXXP.@X$XK.s.uXrXyXK.lXKXF.l a $ wXPXrXDXGXDXAXDXqXb L m A O 4 > ",
"k.F.}.W.}.W.}.].].W.c.k.* R A.X 9XUXNXnXVXFXFXJXIXIX>.X !.z.h rXSXHXHXSXHXHXHXHXHXKXLXSXm.l a o qXJXHXFXZXZXGXJXmXb L m A # n 4 ",
"k.C.A.E.A.C.A.A.E.A.v.v.* R 2.0 3.8XwXwXNX0X4X8XqXwX3.; !.z.j 9XuXvXvXvXlXlXlXeXrXtXDXSXv.l a o qXZXZXZXZXMX7XGXqXv H m A # > > ",
"%.@...v v $ $ $ H ..v.G.* G 2.q 3.5X8X8X4X..V $ . . 4. .!.z.7.G.x.D.8XeXyXP.UX4XiXP.AX9Xt 0.w X 0XGXZXZXZXMXbXZXMXH L m A O > # ",
"U *.D.X.D 8 7 A >.2.m.F.; G A.& 8XvXvX8XH / 4.4X4X8X8XS !.z.j rXlXSXLXKXKXKXKXKXKXKXKXI r 9.9 X 0XZXCXZXCXMXCXMXVX3X$ 7 C # n > ",
"q *.1./ / D | >.4.>.k.v.* I A.& 3.8X3.>.L H M 3.0X9X3.3 !.i.k NXJXPXPXPXPXPXPXPXPXPXPXQ r 7.w o 0XZXVXZXBXbXbXbXBX2Xv m A O > # ",
"N +.S.S.b.=.X...1.;.k.m.* I A.= 5 $ . $ n - - % . . % * !.z.x.v.v.v.v.Z.b.b.b.b.b.b.N.%.k q.3 & D ,./ / ..........C 4 2 7 # , > ",
"T Z U w * = + X 2 %.F.v.* Z A.q q C Z N Z B B Z q C N R !.x.a.d.d.J.=X_.B./.B.J.J.J.V./.a.t.4 m 3 = & = & 1 & +   1 q 5 7 O , > ",
"T T 5 f -.} U ; m k.m.v.* Z 2.5 q q 7 # 3 e - % $ q f B ~.l.t * w : n._.R./.B.R./.R.R./.R.p.= 8 7 A A C C m v c @ 4 A m - # # # ",
"[ [ F g $.7 $.&XE.v.N.v.* Z 2.5 7 e } j.x c n._.b.&X_.N !.l.d #.E +.- $X:X:X-X-X:X-X:X:XfXH.. A 8 8 4 7 V V B.d./.z J ..- > n > ",
"R S D ! X . g %X].G.G.v.* Z 2.5 5 f :.b.#.% R.-X_.:X>XB !.k x n.l.c.q [.+X@XfXfXfX;X;XfXfXz.. C 5 o O - > m U.f.`.z c F 2 # > # ",
"-.} $.E.#.z g g =.&.%.m.* G 2.- q q ; # - q N B ! l.x Z !.l.: & 3 = w R.[./.=XhXfXkX;X;X=Xi.. 2 2 & 2 2 2 7 # # 4 2 8 m 2 # 4 > ",
"].{.}.].oXW.N.b.c.A.=.k.* G 2.& q q q q 3 3 - o o . . w !.x : o & & o O > < O R.*X@X@X@X*Xi.% 2 ; 3 2 2 & & o + o & & ; 8 > n 4 ",
"B Y Y C m M # o 2 U &.k.q G 1.X - 4 2 # O o o o o O o o W.x n.b.b.b.b.n.n.b.n.n.#X*X*X*XpXx.X > < # o + . . O 5 8 5 8 2 2 2 4 > ",
"@ c b ( ( ( ( ( ( P v $.T C ;.9 w 9 9 9 w w w w w w 9 a R.k 9.x.z.H.H.H.z.H.s.H.e.r.r.e.9.j 4 9 l a  .,.2.^.9 4 C m m 7 2 4 n # ",
"H _ ` <X<X` ` ` ` 1X/ U 0 6 W.J.M.M.M.M.M.B.M.M.M.B.B.J.R.d 6.e.w.w.e.8.8.8.0.8.q.9.8.7.7.0., y t.R D.aX=X-Xf % 8 8 8 2 - > n # ",
"H ` ` ' ' ' ` ` _ <X>.U - m ]././..X|.|..X.X.X.X.X.X.X|.~.d 7.e.w.w.9.y.u.s.f.u.q.9.e.e.w.7.> 2 * 8 I p.x g 0 # 8 8 8 2 - 4 6 > ",
"A ( _ _ _ _ _ _ _ ` ,.R - 7 W.|. X.X'. X.X X.X.X.X.X.X.XoXd 7.e.w.w.w.e.r.r.r.r.w.w.w.e.w.7.- 4 6 8 O % @ @ 2 8 8 8 8 2 O 4 m 6 ",
"I v H ] ] _ _ _ ` ] Y S & 6 ].XX X'. X X|. X X X X X X.XoXd 6.e.e.e.w.9.9.w.w.9.w.e.e.e.w.7.# 4 8 8 5 8 8 8 8 2 2 2 8 2 # # > # ",
"E @ H <X) ' ' ` <X_ +.[ - 6 ]..X X'.'.|.|. X X X X X X.XoXd 6.w.9.9.9.9.8.8.9.9.w.q.8.e.e.7.# 4 8 8 8 8 8 8 8 7 2 2 8 4 O 4 n # ",
"B c H ) ) ) ) _ ) _ &. .- 4 ]..X X X|.|. X X X X X X X'.oXd 6.8.7.j j j j j j j 0.j j j 0.j O 4 8 6 6 8 8 5 2 A 2 4 8 2 & 4 n # ",
"N v H ) ) ) ) ) ) _ *.[ # 2 ].XX X X X|. X X X X X X|.|.oXa y p p i s i i i s i i i i t p p O 2 8 6 8 6 6 5 8 2 > 2 8 2 - # # # ",
"Z c H ) ) ) ) ) ) _ &.[ # > ].XX'.'. X|.'.'. X X'. X'.'.oXa y i s s s i i s s s s s s s h i o 2 7 7 8 8 8 8 8 8 8 8 8 2 O # 4 6 ",
"N c H ) ) ) ) _ ) _ +.Y - # {.+X+X+X+X+X+X+XXXXX+X+XXX|.oXa p d d p d d p p d p p d p p h p + - 4 2 2 2 2 2 4 2 2 2 2 2 O # # # ",
"C v P <X<X<X<X' <X` *.W # 9 B.j.j.j.j.j.j.n.x l.j.j.j.l./.d y i p i i i i i i i i i p i p p + + o + o + X X o + + + + X X # > # ",
"4 , v H H H H H H H Z m # 0 e . . . . . . . . % . . . . } e * 3 3 9 3 3 3 3 3 * 3 3 3 * 3 9 O O O # # O O O O O O O O O O > > > ",
"# > O O O O O O O O < O > # @ > > > > > > > , > > > > , % $ , , , , , , , , , , , , , , , , > > > > > > > > > > > > > > > > > > ",
"O # # # # # # # # # O O # # # # # # # # # # # # O O # # > # # # # # # # O O # O # # # # # # # # # # # # # # # # # # # # # # # O "
};
