/* XPM */
static char *fcf24c92b74c4db4fb26d46d867628d9a7xAywv8CSmnGJA9[] = {
/* columns rows colors chars-per-pixel */
"64 64 190 2 ",
"   c black",
".  c #010101",
"X  c #070707",
"o  c gray9",
"O  c #191919",
"+  c gray10",
"@  c #1B1B1B",
"#  c gray11",
"$  c #1D1D1D",
"%  c #1E1E1E",
"&  c gray12",
"*  c #202020",
"=  c gray13",
"-  c #222222",
";  c #232323",
":  c gray14",
">  c #252525",
",  c gray15",
"<  c #272727",
"1  c #282828",
"2  c gray16",
"3  c #2A2A2A",
"4  c gray17",
"5  c #2C2C2C",
"6  c #2D2D2D",
"7  c gray18",
"8  c #2F2F2F",
"9  c gray19",
"0  c #313131",
"q  c #323232",
"w  c gray20",
"e  c #343434",
"r  c #353535",
"t  c gray21",
"y  c #373737",
"u  c gray22",
"i  c #393939",
"p  c #3A3A3A",
"a  c gray23",
"s  c #3C3C3C",
"d  c gray24",
"f  c #3E3E3E",
"g  c #3F3F3F",
"h  c gray25",
"j  c #414141",
"k  c gray26",
"l  c #434343",
"z  c #444444",
"x  c gray27",
"c  c #464646",
"v  c gray28",
"b  c #484848",
"n  c #494949",
"m  c gray29",
"M  c #4B4B4B",
"N  c #4C4C4C",
"B  c gray30",
"V  c #4E4E4E",
"C  c gray31",
"Z  c #505050",
"A  c #515151",
"S  c gray32",
"D  c #535353",
"F  c gray33",
"G  c #555555",
"H  c #565656",
"J  c gray34",
"K  c #585858",
"L  c gray35",
"P  c #5A5A5A",
"I  c #5B5B5B",
"U  c gray36",
"Y  c #5D5D5D",
"T  c gray37",
"R  c #5F5F5F",
"E  c #606060",
"W  c gray38",
"Q  c #626262",
"!  c gray39",
"~  c #646464",
"^  c #656565",
"/  c gray40",
"(  c #676767",
")  c #686868",
"_  c DimGray",
"`  c #6A6A6A",
"'  c gray42",
"]  c #6C6C6C",
"[  c #6D6D6D",
"{  c gray43",
"}  c #6F6F6F",
"|  c gray44",
" . c #717171",
".. c #727272",
"X. c gray45",
"o. c #747474",
"O. c gray46",
"+. c #767676",
"@. c #777777",
"#. c gray47",
"$. c #797979",
"%. c gray48",
"&. c #7B7B7B",
"*. c #7C7C7C",
"=. c gray49",
"-. c #7E7E7E",
";. c gray50",
":. c #808080",
">. c #818181",
",. c gray51",
"<. c #838383",
"1. c #848484",
"2. c gray52",
"3. c #868686",
"4. c gray53",
"5. c #888888",
"6. c #898989",
"7. c gray54",
"8. c #8B8B8B",
"9. c gray55",
"0. c #8D8D8D",
"q. c #8E8E8E",
"w. c gray56",
"e. c #909090",
"r. c gray57",
"t. c #929292",
"y. c #939393",
"u. c gray58",
"i. c #959595",
"p. c gray59",
"a. c #979797",
"s. c #989898",
"d. c gray60",
"f. c #9A9A9A",
"g. c #9B9B9B",
"h. c gray61",
"j. c #9D9D9D",
"k. c gray62",
"l. c #9F9F9F",
"z. c #A0A0A0",
"x. c gray63",
"c. c #A2A2A2",
"v. c gray64",
"b. c #A4A4A4",
"n. c #A5A5A5",
"m. c gray65",
"M. c #A7A7A7",
"N. c gray66",
"B. c #A9A9A9",
"V. c #AAAAAA",
"C. c gray67",
"Z. c #ACACAC",
"A. c gray68",
"S. c #AEAEAE",
"D. c #AFAFAF",
"F. c gray69",
"G. c #B1B1B1",
"H. c #B2B2B2",
"J. c gray70",
"K. c #B4B4B4",
"L. c gray71",
"P. c #B6B6B6",
"I. c #B7B7B7",
"U. c gray72",
"Y. c #B9B9B9",
"T. c gray73",
"R. c #BBBBBB",
"E. c #BCBCBC",
"W. c gray74",
"Q. c gray",
"!. c gray75",
"~. c #C0C0C0",
"^. c #C1C1C1",
"/. c gray76",
"(. c #C3C3C3",
"). c gray77",
"_. c #C5C5C5",
"`. c #C6C6C6",
"'. c gray78",
"]. c #C8C8C8",
"[. c gray79",
"{. c #CACACA",
"}. c #CBCBCB",
"|. c #CDCDCD",
" X c gray81",
".X c #D0D0D0",
"XX c gray82",
"oX c LightGray",
"OX c gray83",
"+X c #D7D7D7",
/* pixels */
"D d m v D p l r C F D v m l d K r F D m m d l F d v l d D F C D v v C r v m D l D l l l v F d C l F C r v l d m m l 0 l C m D m ",
"D C D m C d l v v v d m m d v d d p l p d l D v m K l K d D d m d K l l l D d m l C d l r C F D v m l d K r K D m m d l F d v l ",
"D v v m d C d m p D D D v p d l m r p C m l m m v m F F l 0 C p l l v 6 C C p C v F v d p C C d v m D m l l D D Y C m r C v C d ",
"C m r d p l v C Y C m v F d v v l v F D v r F K K l v l p l d C Y C D C l K m 0 v D m d v Y l l F d d p F m m d l C F l m D d C ",
"v l l l l d d F F C v C D C D m m C F v l F C d v l l l v v d m C C l v v l 0 v v l m l l Y D l D F C m D m 6 C ! C r m m F p d ",
"K C F v d L.S.G.z.^.!.#.!.n.!.j.n.N.j.U.S.>.f.N.2.L.z.e.z.S.N.n.f.S.N.j.N.|.p.e.p.e.j.G.f.z.n.!.] U.!.N.XXj.^.^.S.>.F l r C r K ",
"p l d D C N.L.L.L.q.p.!.OXn.j.G.p.p.}.n.N.N.j.2.f.5.G.^.q.z.e.`.f.n.p.j.N.L.f.G.S.S.q.S.n.j.5.n.e.^.n.n.n.S.j.}.q.p.F l D 0 D F ",
"d F v d C z.n.j.n.p.S.G.5.L.j.2.5.q.}.XXL.G.j.f.j.!.U.N.f.e.N.q.j.n.S.n.!.G.z.f.z.z.n.G.f.*.j.L.G.S.G.OXj.!.n.j.N.n.v C l d l d ",
"l D m 0 l N.2.L.z.e.z.N.n.z.f.S.n.j.n.|.e.e.e.q.j.S.f.z.z.U.] L.!.N.XXj.^.!.S.*.U.p.2.S.*.`.q.z.|.n.G.}.G.n.5.f.e.!.r D v l v D ",
"v C F l p n.p.z.!.f.p.G.G.n.p.n.p.z.2.q.e.f.N.p.j.*.^.e.j.e.N.U.N.G.z.N.q.L.G.f.e.N.p.f.j.f.S.e.f.G.f.S.`.j.e.n.n.f.v l p l C d ",
"m m v l v U.q.j.j.z.L.2.S.U.S.n.f.p.U.q.z.p.q.G.z.G.S.n.f.p.G.z.n.j.N.L.e.f.n.j.G.L.N.2.e.N.e.f.N.f.G.j.S.n.G.L.] !.p l m l d D ",
"K m D m l `.n.*.z.L.n.p.z.}.j.f.!.q.p.2.U.n.n.p.f.S.U.f.N.G.p.S.q.S.e.!.U.j.n.j.n.N.S.n.G.e.N.z.G.G.L.S.n.n.z.j.n.q.C v l d l d ",
"d d l p C p.!.OXf.L.XXN.n.U.5.S.S.f.5.p.G.U.f.j.q.f.}.f.j.p.G.n.S.f.e.>.f.U.G.z.n.N.q.N.2.f.n.z.j.N.n.z.^.j.j.q.*.!.C v d m p m ",
"m v v r r 5.U.z.j.S.z.z.N.z.z.f.N.q.S.e.!.S.N.L.5.^.S.p.z.!.L.N.j.L.G.!.G.f.G.f.f.2.e.j.p.z.n.L.e.S.5.G.2.e.U.q.U.S.C C C v r D ",
"l p m l l N.p.^.5.e.S.L.N.L.L.U.#.p.n.n.z.z.p.S.>.2.>.!.p.5.z.z.#.e.| 2.S.j.j.n.U.n.j.n.z.N.!.| n.p.e.*.f.G.e.2.G.L.r m D v F C ",
"l C m 0 d n.>.S.j.q.j.n.z.j.p.N.z.p.z.`.e.q.e.5.f.N.e.j.z.L.) G.U.n.}.f.U.U.N.#.L.e.>.N.*.!.5.j.}.z.S.`.S.z.2.e.q.U.r C l l l D ",
"m m l C v f.p.`.z.2.L.!.N.p.n.p.f.n.j.>.G.N.p.z.S.f.f.n.p.j.e.^.2.q.q.f.N.2.N.p.n.U.f.p.e.j.j.z.^.|.n.n.n.q.q.j.f.5.C 4 d v l m ",
"l v K m l n.p.>.U.5.5.j.5.j.>.e.L.f.n.p.z.j.n.z.j.z.e.e.N.G.S.q.j.q.N.j.q.f.S.N.#.5.e.n.f.5.j.z.q.L.5.e.e.L.N.e.U.G.D d r C d r ",
"Y Y l D C e.*.f.z.G.L.j.}.q.!.L.!.f.S.q.z.U.#.z.n.G.z.n.L.5.z.5.N.5.@.j.n.z.p.n.z.f.L.j.5.e.2.q.2.L.q.n.L.n.j.e.q.j.l r l C v D ",
"l 0 m l d z.G.5.p.p.5.f.U.f.5.n.@.N.5.S.!.N.5.L.j.S.S.e.#.5.f.N.j.e.n.j.j.p.z.p.e.j.N.G.f.j.U.j.*.2.5.N.f.G.!.f.>.^.v l C l v l ",
"v d l m l >.p.z.2.q.G.#.n.n.L.S.*.@.j.z.n.q.j.@.G.q.L.e.z.>.n.5.j.j.>.5.*.f.*.S.j.S.z.f.p.S.U.f.f.^.S.j.p.p.e.n.q.q.d v C C v r ",
"v v l p p q.j.*.G.@.N.2.n.L.5.f.q.N.f.f.S.e.j.N.S.f.f.q.f.f.j.q.S.f.!.f.@.e.e.n.j.!.j.e.e.N.n.j.5.S.z.p.e.5.j.2.^.e.C m p d v v ",
"D C d v d j.z.n.f.n.5.n.f.N.n.S.n.j.j.j.p.j.2.n.f.e.q.p.q.p.| 2.e.5.2.G.n.q.@.z.z.N.f.n.N.z.n.N.*.N.G.p.q.z.G.j.z.j.C F l F v v ",
"l C m C m q.n.q.e.>.5.p.q.f.j.S.5.z.>.n.*.>.>.^ 2.#.e.n.N.f.] 2.#.| ] 2.N.z.!.] >.5.) 5.G.*.p.@.z.5.p.N.q.e.e.>.p.#.F 6 d 0 D v ",
"m l v l m n.^ S.>.e.j.e.q.N.e.N.n.n.p.z.N.*.        v S.N.5.F         | >.2.z.        , | j.p.5.p.5.q.G.n.q.q.U.f.n.l v m v D 6 ",
"F d 0 p C e.@.p.j.p.>.S.S.f.N.2.f.#.>.z.#.>.        r e.L.f.v         >.p.f.N.        4 n.*.5.p.p.S.5.2.5.f.*.f.j.q.v v v l p r ",
"l v d D 0 U.S.>.U.n.j.f.z.S.q.5.p.p.#.e.q.^         p e.2.f.C         #.e.e.j.        - G.2.N.5.S.q.j.#.q.#.z.j.e.j.l 6 v d p l ",
"p p v m v z.e.e.j.@.e.p.n.q.z.5.5.5.p.N.>.@.        m 5.2.f.C         | N.p.z.        % z.*.f.#.>.5.N.2.e.>.n.] >.2.v r l v p p ",
"v v l l v q.p.2.N.@.!.N.*.e.j.p.q.j.L.z.e.*.        F e.5.j.m         ] j.n.#.        , f.j.p.q.e.5.q.U.n.G.2.>.z.n.F v p Y d C ",
"r l 4 m p N.5.p.#.j.>.e.e.#.*.@.q.@.z.e.z.|         v e.L.z.m         ! 2.2.e.        , e.e.5.e.| f.@.e.>.z.q.f.G.q.0 l l r m m ",
"m m d D r S.N.N.q.j.2.p.N.] p.f.z.p.f.n.*.]         m p.p.5.C         Y 2.#.>.        4 p.q.2.>.e.q.@.5.j.q.N.e.e.e.d r d l p d ",
"l l p d r z.| U.n.#.e.f.e.5.f.G.j.q.n.2.e.|         C q.>.z.d         K f.S.p.        , 5.q.5.5.L.z.S.>.*.z.z.G.f.2.K p C d 0 r ",
"d r l v 0 j.2.| @.#.S.G.f.p.2.>.2.z.j.e.>.Y         m q.z.p.v         | >.) 2.        6 5.z.q.2.e.q.5.p.2.*.2.>.@.5.r r l d p l ",
"r p l 4 v *.e.q.p.f.@.#.#.] 2.j.f.>.e.f.q.D         d @.N.#.r         ^ | 2.2.        , p.>.e.5.e.j.2.>.2.f.n.q.e.2.d 0 r v 0 p ",
"d m r p p >.2.z.f.5.| z.n.n.5.2.>.@.2.*.p.>.        F q.) q.C         ! 2.z.#.        , >.>.p.z.>.q.f.>.p.#.p.*.n.j.p d p d d l ",
"p d l v m p.q.q.q.N.>.| @.2.@.) 2.2.z.q.@.|         F e.f.q.l         ^ f.q.#.        % >.@.*.L.f.f.2.2.2.j.@.5.2.q.l p p d d l ",
"r v r d 0 5.5.q.5.2.5.*.*.p.p.p.#.2.#.e.2.K         d #.q.2.p         K *.*.j.        , >.@.f.>.| *.2.e.^ p.*.q.5.e.l 6 0 6 4 r ",
"p r d 6 , f.@.q.#.>.e.5.| z.e.e.>.2.#.>.f.@.- +     d #.| e.l         ] #.>.2.    X - d #.2.@.#.@.*.@.#.>.p.>.q.j.>.v 0 l 0 d 0 ",
"r r d d 0 ] *.5.e.N.2.*.5.2.>.5.) q.>.5.2.>.2.#.    v e.p.] v         ] f.>.#.    - 2.f.f.! f.2.p.*.2.5.>.p.5.) #.5.4 l r 0 p d ",
"p p p 0 p 5.q.#.>.*.*.@.#.@.@.p.f.q.>.q.q.q.q.^     p ! Y | r         v ! ! K     - *.>.*.*.^ >.2.*.2.*.*.n.p.#.q.p.d p l p , d ",
"4 0 r p 4 ] q.2.#.5.5.*.2.p.e.#.! q.| #.#.>.! q.5.|           ] 5.q.K         d *.e.q.z.q.2.) 5.*.5.| 2.*.] | q.e.q.0 r p p d r ",
"0 d p , p >.] >.>.! e.N.5.^ ) #.>.5.q.*.e.n.#.>.z.|           >.2.e.Y         r @.*.f.#.2.| 5.>.] #.#.>.*.e.2.z.@.5.r v p r d r ",
"p d r 6 d f.q.#.#.2.| >.e.! 2.q.^ *.5.*.] ) e.#.@.| ! K ! ! F p.#.^ ^ ) Y ^ ! @.5.] 5.2.*.| #.p.>.>.5.*.2.>.>.>.#.| 0 r r r 4 0 ",
"0 p d r l f.5.>.5.^ >.2.5.p.) | q.| ] @.2.j.@.e.@.@.q.q.>.@.5.) Y 5.#.#.2.*.5.*.| 2.2.) q.| #.*.q.2.>.p.| *.f.2.2.| 6 0 4 p 6 l ",
"0 r p 6 r *.@.) >.@.@.>.@.e.) ] 2.5.>.5.5.q.Y | *.*.*.#.| >.^ ^ ! e.| ) #.#.Y ] F ^ >.@.@.*.e.*.#.*.#.>.q.F *.| ] ! 0 p 6 4 d d ",
"d 0 l 0 r >.] *.@.| ] *.@.#.>.5.e.2.*.#.*.p.] ^ ) #.^ K @.@.q.*.) 2.] #.| *.p.>.2.*.| p.! ! e.#.2.*.] 5.) ] q.^ | ) 6 m d d 0 0 ",
"6 - 6 4 0 | ) #.) | #.@.2.#.p.) #.) | *.@.#.q.e.>.| 5.#.] *.F ] ^ >.#.#.5.@.*.) >.] 2.#.5.f.*.^ ] >.#.5.*.q.#.) 5.#.p 4 0 + r 0 ",
"0 6 p 0 0 >.] @.>.2.@.@.) | @.#.) >.@.q.@.K | | *.@.e.@.] ] >.*.@.) >.*.| | ) @.^ p.] 2.>.^ ] *.*.| | *.] | @.Y *.) 6 6 d p 6 0 ",
"r 0 r 6 , 2.! ! @.^ | Y ) 2.] #.) @.@.#.@.| @.) ) *.>.*.^ ] ^ *.| ^ ] *.*.K ^ ) #.| ! | @.) 2.^ ) ) 2.*.) 5.>.2.] ! r 6 , 6 0 r ",
"6 v 4 0 , *.K *.] #.@.! *.| *.] ] ] ) ] @.| ^ *.#.] *.@.] ] q.| ! >.5.#.] @.] ] @.| Y *.#.) @.#.] ] @.) | ) 5.Y ^ ! 0 r , r 6 r ",
"4 p , p 6 ) ] >.] ^ ! ] | >.) ! #.^ >.) #.#.] ] ] *.] D @.| F *.F ^ @.>.>.Y >.Y @.5.) #.] | | *.2.| 5.*.^ | 2.^ ^ ) r , 0 0 6 r ",
"p 0 + r 6 ) | ) @.) ) ! >.! *.^ *.^ | K ) K @.@.) @.] F @.) ^ ] *.! ) ) ! ] 2.] ! | D #.Y #.2.#.! *.] #.#.^ F Y ] @.6 4 r 6 0 4 ",
"0 6 6 0 6 *.] #.) ^ | ! 5.! ] Y ^ ] ) ) ) ) ! Y *.) | ] #.) 2.) ] 2.| ^ | ^ K *.Y Y ] Y ) F ! *.^ | ! ] ] | ] ) ] ! 4 0 r 0 , 6 ",
", 6 0 4 0 | | ) ! Y ! ] F *.D @.K | *.Y ) ! @.) ) @.! ) @.#.) ) ! ) ) ] ! @.) >.) D ^ ^ | ] >.) ^ ! @.| ) ! @.| ) ^ , 6 , d 4 r ",
"6 , , r , ^ ! ] ] ! ) ^ ^ #.) F D ^ Y Y ^ C K ] ] ^ ] ) ^ | F ) ) F @.) Y *.Y @.] >.^ ^ #.| ) ! #.) Y ^ ^ ^ ! ) ) ^ r , , d r , ",
"0 4 r 6 4 ) C Y F | ^ ) @.^ ) K ] ! | ) @.>.] F Y ] ) #.] @.^ K #.) | K ^ l ) ! F K ) #.Y F F ] | ] ! ! F ) K ! *.] 4 6 4 4 0 , ",
"r , p , 6 D ^ D ^ ) K | ! Y ^ D m | F ) Y ! ] ^ F @.) ] Y ! K ! | ] ! ^ ) ) Y K D ] ! | ] ] ^ ] K ! ! ! ! K ^ ^ Y ! , , , , , , ",
", 0 6 6 6 F @.) K ! | ] ^ ! ] ] | ] Y ] Y Y D K ! K ^ ! ] F ) F ] D K | F | ) ] ) ] ! D | ^ ! Y K ] ^ #.Y ] @.K ] | - 4 % 6 , 4 ",
"4 6 - % 4 Y ! ^ K 2.C Y ) ^ ^ ^ ^ Y ! F ] C #.] D ! ) ! Y ) @.) ! ] K ! ^ ) | ! K ) Y K ] C Y ! ) ] D ) @.! F Y ^ ^ 4 4 4 , , r ",
"4 , 6 - - 0 4 4 4 , % - % 6 0 - 4 - r , , , , 4 6 - 6 4 4 - 6 , , % 4 - 0 4 4 4 4 , 0 - , 0 , 6 % 6 0 6 0 0 4 - 6 , , 6 - r - 4 ",
", 4 , , r 6 , 6 6 6 4 6 4 + 6 r 4 % 4 4 0 % - 6 6 4 - - , - 6 6 4 6 6 6 - - 6 r 4 , 6 - - 0 4 4 4 , % - % 6 0 - , - 0 , , , , 4 ",
"- - 4 6 4 o , 4 - - - - 4 6 4 , 6 4 6 , - , 4 , 4 % 4 % 6 - 4 , , 4 - 6 4 , 4 , 4 4 , 0 4 6 6 0 6 4 4 4 4 - 4 r 6 , , 0 0 - 4 4 ",
", , + 6 r 4 + % - , 4 4 , 6 r , , 0 - - - % 4 , , 4 4 , - , % 4 - - , 6 - 4 - 4 , % - - , , 6 4 0 - 4 , 0 4 , 4 , 4 % % - 4 , % ",
", 0 - 4 - , - 0 , - - 6 - 4 , 4 % - % 4 6 6 , 4 , - 0 % 6 6 , , - , 6 - , - - 6 6 4 4 , , 4 % , , 6 , 4 - - - , 6 - 4 - 6 4 % , "
};
