/* XPM */
static char *_cd723b865954823b2ca04eda8c8db2dNyhMZDSAFHc0p2At[] = {
/* columns rows colors chars-per-pixel */
"64 64 172 2 ",
"   c #000001",
".  c #191917",
"X  c #1D1D1D",
"o  c #201E1E",
"O  c #0C260D",
"+  c #0B2610",
"@  c #0E2C16",
"#  c #102E14",
"$  c #112E18",
"%  c #0F3217",
"&  c #0F3219",
"*  c #0F381A",
"=  c #113316",
"-  c #12341A",
";  c #133C1B",
":  c #21201E",
">  c #1E1E20",
",  c #211F22",
"<  c #1F2121",
"1  c #163E23",
"2  c #242424",
"3  c #282625",
"4  c #262826",
"5  c #292926",
"6  c #262629",
"7  c #292729",
"8  c #27292A",
"9  c #2B2C2C",
"0  c #312E2E",
"q  c #2C302F",
"w  c #32312E",
"e  c #2E2E30",
"r  c #312F31",
"t  c #2E3130",
"y  c #343434",
"u  c #383736",
"i  c #363837",
"p  c #393937",
"a  c #363739",
"s  c #393739",
"d  c #373938",
"f  c #3C3C3C",
"g  c #403E3F",
"h  c #16421D",
"j  c #1A411F",
"k  c #164321",
"l  c #1B4423",
"z  c #1D4B26",
"x  c #1E4E28",
"c  c #1D5127",
"v  c #1E532C",
"b  c #1F5D2E",
"n  c #204A27",
"m  c #214F2A",
"M  c #205327",
"N  c #21542C",
"B  c #235B2E",
"V  c #3E403F",
"C  c #245D31",
"Z  c #295E32",
"A  c #1F662A",
"S  c #25622E",
"D  c #266C2E",
"F  c #23742E",
"G  c #266333",
"H  c #296534",
"J  c #266A35",
"K  c #2A6A36",
"L  c #276639",
"P  c #296739",
"I  c #276D39",
"U  c #2B6D39",
"Y  c #2B7236",
"T  c #257932",
"R  c #2A7A35",
"E  c #2D743C",
"W  c #2E7B3D",
"Q  c #30763D",
"!  c #317C3E",
"~  c #41413F",
"^  c #3D3E40",
"/  c #413F41",
"(  c #3F4140",
")  c #2E7B41",
"_  c #317640",
"`  c #317D42",
"'  c #434344",
"]  c #484647",
"[  c #454847",
"{  c #4B4C47",
"}  c #464648",
"|  c #494748",
" . c #474948",
".. c #4B4B4B",
"X. c #504E4F",
"o. c #4E504F",
"O. c #51514F",
"+. c #4E4E50",
"@. c #514F50",
"#. c #4F5150",
"$. c #535353",
"%. c #585657",
"&. c #565856",
"*. c #595758",
"=. c #5B5B5B",
"-. c #606062",
";. c #2D843C",
":. c #2E893F",
">. c #31833E",
",. c #31893F",
"<. c #2F8443",
"1. c #2F8A41",
"2. c #338444",
"3. c #348B45",
"4. c #398C47",
"5. c #358649",
"6. c #368C49",
"7. c #398D4A",
"8. c #2F9043",
"9. c #349246",
"0. c #3A9447",
"q. c #36934A",
"w. c #3A944C",
"e. c #37994B",
"r. c #3B9A4E",
"t. c #3C9651",
"y. c #3D9C52",
"u. c #3FA254",
"i. c #3FA856",
"p. c #3FA258",
"a. c #409B4E",
"s. c #409750",
"d. c #419E54",
"f. c #429F58",
"g. c #41A255",
"h. c #41A255",
"j. c #42A457",
"k. c #41A256",
"l. c #42A659",
"z. c #45A75B",
"x. c #43A55A",
"c. c #48A65A",
"v. c #46A85B",
"b. c #45AA5A",
"n. c #45AB5C",
"m. c #47AA5D",
"M. c #46AD5F",
"N. c #45AA5C",
"B. c #49A95C",
"V. c #48AB5E",
"C. c #47B25E",
"Z. c #48B15E",
"A. c #46AE61",
"S. c #47AC61",
"D. c #49AF61",
"F. c #49AE61",
"G. c #4CB364",
"H. c #4DB566",
"J. c #4EB566",
"K. c #4BB364",
"L. c #4BB966",
"P. c #4DB768",
"I. c #4EBA6A",
"U. c #50B567",
"Y. c #50B768",
"T. c #52BC6C",
"R. c #58BD6F",
"E. c #55BD70",
"W. c #53C16F",
"Q. c #57C372",
"!. c #56C171",
"~. c #59C575",
/* pixels */
"$.f ..' o.f ' y $.%.$.' ..' f *.u %.$.....f ' %.f } ' ' $.%...#.} } ..u } ..$.' o.' ' ' ..%.f ..f &...y } / f ....' w f ....%...",
"#...$...+.f ' } } } f ..../ } f f f ( f f ' $.' ..*.} %.f @.f ..f *.' ' ' %.f ..' o.f ' u ..%.$.} ..} f *.i %.$... .f ' &.V } ' ",
"$.} } { f ..f ..s $.$.$.| u f ' | u u ....' ....} ..$.%.( q o.f ' ' ..9 $...f ..} %.} f f ....f ' | $...' ' $.$.=.o...a ..} ..f ",
"....u f f ( ' ..=..... .%.f } } ' ' &.$.} u %.*.%.' ' ' f ' f ..=...$...' *...y ..$...f } =.' ' &.f f f %.....g ' ..%.' ..$.f ..",
"' ' ' V ' f f %.%...} X.$...@.......%.} ' %...' ' / ' V } } f | ....' } } ' y } ..' ..' ' =.$.g #.$.o...$.| q ..-...u ....$.s f ",
"*...%.} f A.b.b.g.J.J.;.J.i.G.y.j.l.d.K.v.:.e.l.3.A.y.w.y.b.i.g.e.v.l.r.i.R.e.q.w.9.y.b.e.u.u.K.T G.J.b.Q.y.Y.J.b.1.$./ u ..y *.",
"s ' f O...j.A.F.M.9.w.G.~.g.r.v.w.e.T.g.g.l.r.1.e.3.M.P.9.g.q.I.r.u.e.e.l.F.e.V.n.V.8.b.g.r.3.g.9.J.g.u.u.b.r.T.9.0.%.' X.y $.$.",
"f $.] f #.r.g.y.g.q.b.M.3.F.r.:.1.9.T.Q.M.v.y.e.r.J.K.l.e.w.j.9.r.i.l.u.J.v.y.e.u.y.g.M.e.;.r.F.M.b.M.~.y.J.j.r.l.g.} ..' f ' g ",
"' $...y ' l.1.M.y.q.y.l.g.u.e.v.j.e.j.W.w.9.w.3.y.v.e.y.u.K.T K.G.b.Q.r.J.K.b.;.K.e.3.n.:.I.9.u.W.l.M.T.M.i.3.e.9.K.u $.' ' } $.",
"} ..%.( f g.q.y.J.e.w.M.M.g.e.g.q.g.:.9.q.e.l.e.y.;.I.9.y.q.i.K.l.v.y.l.9.M.M.r.q.j.w.r.r.w.v.q.r.M.r.z.T.r.w.i.g.r.} ( f ' ..f ",
"....} g } K.9.r.y.d.M.3.v.F.b.g.r.e.K.3.y.e.3.M.y.M.l.g.e.w.M.y.g.y.l.F.q.e.g.y.v.K.g.:.9.j.3.e.l.e.M.y.b.g.v.F.F K.f ' ..' g o.",
"*...$...' T.u.;.u.M.j.q.u.W.r.r.J.9.w.3.K.g.j.w.r.n.J.e.j.V.q.b.9.v.q.U.K.e.u.y.j.l.b.g.n.0.l.y.M.v.F.l.g.l.u.r.g.9...} ' f ' f ",
"f f ' f ..w.J.~.w.F.Q.l.g.K.3.n.b.e.3.w.M.K.r.y.3.e.T.e.r.w.v.j.V.e.q.;.w.K.V.y.g.j.9.l.3.e.u.d.y.l.u.d.J.e.r.3.;.J...} f ..f ..",
" .} } f u 3.K.u.r.l.y.g.j.u.g.e.l.9.n.0.J.v.l.M.3.J.n.w.u.J.K.l.y.M.M.K.v.e.V.e.e.3.9.y.q.u.g.A.9.l.3.v.,.w.K.9.K.n...X...} u %.",
"' f ..' ' l.w.J.3.q.v.F.l.F.A.K.W w.g.u.g.y.w.z.:.,.;.J.q.3.u.y.W q.T ,.l.e.y.j.G.g.y.y.y.j.K.R j.e.9.;.w.b.q.1.V.K.y  .$.} %...",
"f ..| y f g.;.n.r.3.r.g.u.y.w.l.d.w.y.T.9.3.9.3.r.l.w.y.y.F.F A.K.g.W.w.G.K.l.;.K.0.:.l.;.J.3.y.E.g.n.T.b.u.,.0.9.F.u ..' ' ' $.",
"..[ / ..} e.e.T.y.1.F.P.l.w.j.w.e.u.y.2.M.j.w.d.n.y.e.u.q.y.0.I.1.9.6.e.l.1.n.w.l.K.e.w.q.r.y.y.I.Q.g.j.g.3.3.y.e.3...9 f ..' ..",
"' } *. .' j.0.2.K.3.2.y.3.y.:.q.K.w.j.9.y.y.g.y.r.y.q.w.j.v.n.3.r.3.l.y.6.w.b.l.R 3.3.j.e.3.y.y.3.F.3.q.0.K.j.0.K.v.$.f a o.f u ",
"=.=.' @...q.W w.y.v.K.y.T.4.P.K.K.w.l.q.g.K.W y.j.A.y.x.K.3.y.3.l.3.T y.g.u.w.j.y.w.K.r.3.0.2.3.3.F.3.g.F.g.y.q.4.y.' u ( ..' $.",
"' t ..' f d.S.3.q.w.3.w.K.e.3.u.R l.3.n.G.z.3.A.y.z.b.6.R 2.y.j.y.q.g.r.y.w.g.e.0.e.l.M.w.r.K.y.;.:.3.l.w.A.P.r.>.I.' ' ..' } ~ ",
"} f } ..' :.w.y.,.3.v.R d.g.F.z.W Y y.y.g.3.r.R V.3.Z.9.y.>.g.3.y.y.:.3.;.w.W z.y.v.y.w.w.v.G.w.t.T.z.y.0.0.q.g.3.3.f ' @...' u ",
"..] ' f f 3.y.W A.R z.,.g.F.3.r.E q.! r.l.6.y.l.B.t.t.6.w.5.2.Y l.t.J.t.R q.2.3.! j.2.E E g.g.s.3.z.g.w.q.3.y.>.I.7.....u f ] ' ",
"#.X.f ' f y.y.g.r.j.3.y.w.l.p.l.h     t.q.y.,.f.w.q.3.w.3.;     9.5.,.v.g.6.h             5.u.z.W l.F.0.3.y.v.y.y.y...$.' %.} } ",
"' ....o...7.j.3.3.! 3.w.3.w.y.z.=     j.W 3.v.2.v.g.g.g.j.;     y.t.w.3.l.d.W             G w.R y.3.w.z.3.7.6.;.w.W %.9 f w $.} ",
" ./ } ' } l.A B.2.0.y.7.3.j.7.v.h         l.t.w.w.w.3.M.l.-     y.3.2.w.@         5.` E l     v q.3.3.A.x.6.6.K.y.j.~ } ..} $.0 ",
"%.( 0 f @.6.E w.y.0.>.z.l.e.x.<.;         z.l.0.y.g.J 7.F.;     g.;.w.c.;         K.2.v.3.    B w.z.5.>.2.w.! t.y.3...} } ' f i ",
"' ' g $.y J.z.;.J.x.y.r.d.v.7.5.;         & j 6.j.d.E 4.5.;     b.w.S d.;         4.6.2.i.x J K S.3.y.E 6.W y.d.7.y.f 9 } g f ' ",
"f f  ...} u.9.q.y.Y 7.w.j.3.d.3.=             w.y.E 7.<.2.;     K 2.d.t.k         y.w.Y d.W y.E ) 3.l.2.6.! z.K >.2.} i ' } f d ",
"} } ' ' } 3.w.2.l.E I.l.W 0.y.0.-             z G w.v.9.2.;     l.W 6.w.;         B z 2.t.y.w.4.7.3.3.L.j.Z.2.>.p.x.$.} f =.f ..",
"u ^ 9 [ f v.2.w.E t.W w.w.E W Y *                 w.7.6.K.;     5.2.t.2.=             2.0.w.2.6.J t.E 7.` y.3.t.F.3.y ' ( u ....",
"....f %.u M.z.b.3.y.2.w.b.D t.r.;                 1 E 5.w.-     6.l.7.W %             E ! 3.2.2.0.3.E 3.d.6.z.7.7.7.f u f ' d f ",
"~ ' f f u g.Y L.j.E 6.y.6.5.t.Z.;     2.B             v >.;     7.y.d.E y.M.b             E 2.5.K.g.M.2.W y.u.K.y.2.=.f ..f y u ",
"f a ~ ' t y.2.K Y E F.K.y.w.2.) &     0.x             N j.;     3.5.3.y.W G c             3.7.2.0.6.5.t.2.W 2.` Y 2.u u ( f f ~ ",
"u f ' 9 } ` 7.3.w.t.Y E E J 2.t.;     y.` v N                   g.3.) 2.U 2.J B ;         + ; S 7.y.2.` 2.t.l.6.t.` f y y } y f ",
"f ..y f f ! 2.j.y.3.K g.l.l.2.2.$     Q w.n.Q                   ` 5.Z.2.2.x.E ! k             J 2.7.r.! w.Q w.Q j.d.f f d f ' ' ",
"f f ' } ..t.6.3.7.b.` I E 2.E G =     6.E y.P - +               P U n.2.y.6.E d.M # -         W y.r.2.2.5.y.E 5.2.7.( f f f f ' ",
"u } u f y 3.2.7.5.5.4.W ` w.t.w.@     t.5.E 2.t.Q               4.Q y.E Q Q d.w.Q j.`         x U W 2.w.B w.E 6.5.w.' 9 y e 9 s ",
"u u f 9 6 t.U 6.` 2.0.3.K j.7.7.&     ) y.7.` 5.E               w.w.4.7.G G U 2.2.Y Y         l E E E E ` t.` 4.p.! } y ' y f y ",
"u u ( f y J W 3.q.Z.2.) 5.5.` 2.O     3.2.2.2.u.p.B 2.          U 0.g.w.;     w.6.7.P         v y.! 5.3.) e.5.G E 5.9 / u t f f ",
"f f f y d 5.5.E ` ! ) E E U E y.;     7.0.7.7.2.4.5.e.          W Q E E %     2.7.4.G         c 2.W 2.` W n.w.E q.t.f f ( f 6 f ",
"9 y u u 9 H 6.5.E 5.5.` 5.y.t.E +     E E 2.N 6.3.I 4.H 2.+     5.5.Y ) E W k             B m ) ` 5.U 5.W P J 5.w.4.y a u f f u ",
"w f f 3 ^ ` P 2.` N w.C.6.B G E =     W r.b.Q 2.i.U U U C ;     2.w.! U ) H N             v 3.` P E Y 2.) w.2.j.U 5.u } f a f u ",
"f f y y f u.7.E E 2.K 2.t.C 2.7.k z v ` P G w.Q E U ` W 2.B l G W B G 6.Q 5.I v N k N v x H ` r.2.2.5.` 5.2.` ` Q K y u y y 9 y ",
"9 f ^ u ' u.5.` 6.C 2.3.3.w.G U w.P U E 2.u.E w.E E 0.q.5.E 6.H N 5.W E 5.) 4.` U 5.5.G w.U E ` 7.5.` y.U ` y.5.5.K e y 5 f 0 ' ",
"w y f e u ` E G 2.E E 2.E e.H I 5.q.5.6.6.0.N U ) ` ` W U 2.C C B t.K H W W v G z C 2.E E ` w.` E ! ) 2.w.z ` Y P N y f 9 9 f f ",
"f y ~ y u 5.H ` E U P 2.E Q 2.4.w.5.W ) ! a.K C G E G N E Y w.W G 5.U ) U ! y.2.5.! U r.B C e.E 3.` L 7.G P 0.Z U G 9 ..f f y y ",
"9 2 9 9 y U G ) G P W E 4.) y.G ) G U ` Q ) 6.w.5.U 5.Q P ` z I C 2.E ` 7.Q ) G 2.P 5.) 6.u.` Z G >.W w.` 6.E G 6.` f 9 y X u t ",
"y 9 u y y 2.P E 2.5.E E P E E E G 2.E w.E x K P ` E w.E I P 2.` E H 2.) Y U H E B y.I 5.2.G I ! ` K U ` P U E N 2.G w 9 f f 9 y ",
"y 9 y 9 2 5.C C E C U N H 5.K ) H E E W E E E G G ` 2.` G U G ) Y G P ` ` x G G ) U C Y E G 2.C H G 5.` H 6.2.5.I C f 9 3 9 y y ",
"e } 9 y 6 ) N ! P W W B ! E ` I U P H H W K G ) Q I ` E I I w.Q B 2.7.` J W H U E U N ` ! G E ! U P E G U G 7.N G C y u 3 u 9 u ",
"9 f 3 u r J P 2.U G C H E 2.K C ` G 2.J E ` P K I ` U l Q E m ! z C E 5.2.B 3.B E 4.G W P Y E 2.3.U 7.) G U 4.G S P u 3 y y 9 y ",
"u t X y 9 H E P W H G C 2.C ` H 2.G E v H v Q E H E K m E P G Y 2.C G G C J 5.P C E l Q C ` 3.` C 2.U ` Q G x B P _ 9 9 y 9 9 9 ",
"w 9 9 y 9 ` U ` H H E B q.Z U B G U H P H G G B 2.I E U W H 3.H P 6.E G E S N 2.N N I B H M G 2.G E C U P E P I U G 9 y u y 4 9 ",
"3 9 y 9 y E U J C B B P m ` z Q N E ` B J B E G H Q B I E Q H G C H P K B W P 5.P z G G U P 3.I G C E E I B ) E H G 4 9 3 f 9 y ",
"9 7 7 y 6 G B U P C J G G ! U N z S B C H l N Y U G Y K G Y N P I x W I B 2.C E I 5.H G ` E P B ! G C H G G C P P G u 6 4 f y 3 ",
"y 8 y 9 9 P l B m Y H I W G P N U C E G E 5.U m N U I W U ) G N ` J E v G - J C v v H ) B N v U E U G B N H N C 2.U 5 9 9 9 t 3 ",
"u 2 d 3 9 z S z H P N Q C C G n j E N P N G U H x ` P U C S B C E U C H I I C N z P G E I U P U N B G G G v H G B G 6 3 3 4 2 6 ",
"2 y e 9 t x Q P B G Q U J C Y U E K B U B C x N C N G H U N P z U z N E c E P U I U G z W H G C B U P 2.C Y Q N U E , 9 X 9 2 9 ",
"9 9 2 X 3 C S H N 7.l C K H G G H C G v Y l 2.E x C J G C K ! U C E v G G P E B B H B N U z C G U U n J W G N B G I 9 3 9 7 3 s ",
"9 3 9 2 2 w 8 9 9 6 X 3 o 9 w 2 3 : u 3 6 2 2 4 9 2 9 5 9 X 9 5 2 X 9 2 y 5 8 9 9 3 y 2 3 t 6 9 X 9 e 9 y y 5 > e 4 6 9 < u < 9 ",
"3 9 6 3 u 9 6 9 e 9 9 9 9 . 9 u 9 o 5 9 q 2 2 9 9 5 2 , 3 3 9 9 5 9 9 9 , 2 w a 9 2 9 2 2 w 8 9 9 3 X 2 o 9 y 2 4 2 y 3 9 3 2 5 ",
"2 2 9 9 9 . 3 9 2 2 < 2 9 9 8 3 9 4 9 2 : 6 9 6 8 X 9 X 0 2 5 4 6 9 2 9 5 2 9 3 9 9 2 y 9 9 q w 9 9 9 9 9 6 8 y 9 3 6 y y 2 9 8 ",
"3 3 . 9 u 9 . > 2 9 9 9 2 9 u 2 3 y 2 2 2 X 9 3 3 8 e 3 2 2 X 9 , 2 2 e 2 6 2 9 3 X 2 2 6 3 9 9 y 2 9 2 y 3 6 5 3 9 > . 2 3 2 X ",
"6 0 : 9 < 4 : 9 3 2 2 9 2 3 3 9 X 2 X 9 e 9 3 5 6 , r X 9 9 3 3 X 2 9 2 4 2 2 9 9 9 9 3 3 9 X 3 3 9 2 9 2 2 2 2 9 : 5 2 9 9 X 3 "
};
