/* XPM */
static char *_84fce003f664740dbe5f3fcffc3103bPqTHiQx3fqF2GNky[] = {
/* columns rows colors chars-per-pixel */
"64 64 256 2 ",
"   c black",
".  c #004040",
"X  c gray22",
"o  c #005858",
"O  c #484848",
"+  c #006C6C",
"@  c #007070",
"#  c #007474",
"$  c #007878",
"%  c gray33",
"&  c #007C7C",
"*  c #008484",
"=  c #008C8C",
"-  c #009898",
";  c #00A4A4",
":  c #20B0B0",
">  c #20B4B4",
",  c #48C0C0",
"<  c #74C8C8",
"1  c #9CDCDC",
"2  c black",
"3  c #000101",
"4  c #000202",
"5  c #000303",
"6  c #000404",
"7  c #000505",
"8  c #000606",
"9  c #000606",
"0  c #000707",
"q  c #000808",
"w  c #000909",
"e  c #010B0B",
"r  c #010C0C",
"t  c #010D0D",
"y  c #010D0D",
"u  c #010E0E",
"i  c #010F0F",
"p  c #011010",
"a  c #011111",
"s  c #011212",
"d  c #011313",
"f  c #011313",
"g  c #011414",
"h  c #021616",
"j  c #021717",
"k  c #021818",
"l  c #021919",
"z  c #021A1A",
"x  c #021A1A",
"c  c #021B1B",
"v  c #021C1C",
"b  c #021D1D",
"n  c #021E1E",
"m  c #021F1F",
"M  c #022020",
"N  c #032121",
"B  c #032222",
"V  c #032323",
"C  c #032424",
"Z  c #032525",
"A  c #032626",
"S  c #032727",
"D  c #032727",
"F  c #032828",
"G  c #032929",
"H  c #032A2A",
"J  c #032B2B",
"K  c #042D2D",
"L  c #042D2D",
"P  c #042E2E",
"I  c #042F2F",
"U  c #043030",
"Y  c #043131",
"T  c #043232",
"R  c #043333",
"E  c #043434",
"W  c #043434",
"Q  c #043535",
"!  c #043636",
"~  c #053838",
"^  c #053939",
"/  c #053A3A",
"(  c #053A3A",
")  c #053B3B",
"_  c #053C3C",
"`  c #053D3D",
"'  c #053E3E",
"]  c #053F3F",
"[  c #054040",
"{  c #054141",
"}  c #064242",
"|  c #064343",
" . c #064444",
".. c #064545",
"X. c #064646",
"o. c #064747",
"O. c #064747",
"+. c #064848",
"@. c #064949",
"#. c #064A4A",
"$. c #064B4B",
"%. c #064C4C",
"&. c #074E4E",
"*. c #074E4E",
"=. c #074F4F",
"-. c #075050",
";. c #075151",
":. c #075252",
">. c #075353",
",. c #075454",
"<. c #075454",
"1. c #075555",
"2. c #075656",
"3. c #075757",
"4. c #085959",
"5. c #085A5A",
"6. c #085B5B",
"7. c #085B5B",
"8. c #085C5C",
"9. c #085D5D",
"0. c #085E5E",
"q. c #085F5F",
"w. c #086060",
"e. c #086161",
"r. c #086161",
"t. c #086262",
"y. c #096464",
"u. c #096565",
"i. c #096666",
"p. c #096767",
"a. c #096868",
"s. c #096868",
"d. c #096969",
"f. c #096A6A",
"g. c #096B6B",
"h. c #096C6C",
"j. c #096D6D",
"k. c #096E6E",
"l. c #0B7070",
"z. c #0D7171",
"x. c #0F7272",
"c. c #117373",
"v. c #137474",
"b. c #157575",
"n. c #177676",
"m. c #197777",
"M. c #1B7979",
"N. c #1C7A7A",
"B. c #1E7B7B",
"V. c #227D7D",
"C. c #247E7E",
"Z. c #267F7F",
"A. c #288080",
"S. c #2A8181",
"D. c #2C8383",
"F. c #2E8484",
"G. c #2F8585",
"H. c #318686",
"J. c #338787",
"K. c #358888",
"L. c #378989",
"P. c #3B8C8C",
"I. c #3D8D8D",
"U. c #3F8E8E",
"Y. c #418F8F",
"T. c #429090",
"R. c #449191",
"E. c #469292",
"W. c #489393",
"Q. c #4A9494",
"!. c #4C9696",
"~. c #4E9797",
"^. c #509898",
"/. c #549A9A",
"(. c #559B9B",
"). c #579C9C",
"_. c #599D9D",
"`. c #5B9F9F",
"'. c #5DA0A0",
"]. c #5FA1A1",
"[. c #61A2A2",
"{. c #63A3A3",
"}. c #65A4A4",
"|. c #67A5A5",
" X c #68A6A6",
".X c #6CA9A9",
"XX c #6EAAAA",
"oX c #70ABAB",
"OX c #72ACAC",
"+X c #74ADAD",
"@X c #76AEAE",
"#X c #78AFAF",
"$X c #7AB0B0",
"%X c #7BB1B1",
"&X c #7DB3B3",
"*X c #7FB4B4",
"=X c #81B5B5",
"-X c #85B7B7",
";X c #87B8B8",
":X c #89B9B9",
">X c #8BBABA",
",X c #8DBCBC",
"<X c #8EBDBD",
"1X c #90BEBE",
"2X c #92BFBF",
"3X c #94C0C0",
"4X c #96C1C1",
"5X c #98C2C2",
"6X c #9CC4C4",
"7X c #9EC6C6",
"8X c #A0C7C7",
"9X c #A1C8C8",
"0X c #A3C9C9",
"qX c #A5CACA",
"wX c #A7CBCB",
"eX c #A9CCCC",
"rX c #ABCDCD",
"tX c #ADCFCF",
"yX c #AFD0D0",
"uX c #B1D1D1",
"iX c #B4D3D3",
"pX c #B6D4D4",
"aX c #B8D5D5",
"sX c #BAD6D6",
"dX c #BCD7D7",
"fX c #BED9D9",
"gX c #C0DADA",
"hX c #C2DBDB",
"jX c #C4DCDC",
"kX c #C6DDDD",
"lX c #C7DEDE",
"zX c #C9DFDF",
"xX c #CDE1E1",
"cX c #CFE3E3",
"vX c #D1E4E4",
"bX c #D3E5E5",
"nX c #D5E6E6",
"mX c #D7E7E7",
"MX c #D9E8E8",
"NX c #DAE9E9",
"BX c #DCEAEA",
"VX c #DEECEC",
"CX c #E0EDED",
"ZX c #E2EEEE",
"AX c #E6F0F0",
"SX c #E8F1F1",
"DX c #EAF2F2",
"FX c #ECF3F3",
"GX c #EDF4F4",
"HX c #EFF6F6",
"JX c #F1F7F7",
"KX c #F3F8F8",
"LX c #F5F9F9",
"PX c #F7FAFA",
"IX c #F9FBFB",
"UX c #FBFCFC",
/* pixels */
"X X X X X X X X X X X X X X X X X X X X X X X X X X X X X X X X X X X X X X X X X X X X X X X X X X X X X X X X X X X X X X X X ",
"X + @ @ @ @ @ @ @ @ @ @ @ @ @ @ @ @ @ @ @ @ @ @ @ @ @ @ @             + @ @ @ @ @ @ @ @ @ @ + + + + + + + + + + + + + @ @ @ @ X ",
"X + & * o : & & & & & & & & & & & & & & & & & & * @ > $ @             + # + o - $ $ # # # # # @ @ + @ + + + @ @ @ $ + o - $ @ X ",
"X + $ # . o - - - - - - - ; ; ; ; ; > > > : : * # . @ - @             + # + . o $ $ # # # # @ # + + + + + @ @ # # + + . o * @ X ",
"X + $ @ # @ - - - - ; ; ; ; ; ; : > > > : : : * @ # @ ; #             + # + + + $ # $ # # # # + @ + + + + + # @ # + + + + * # X ",
"X + $ * * = - - ; ; ; ; ; ; : > > > > : : : : * * * = ; #             + @ @ @ @ # $ # # # # @ @ + + + + + @ @ # # + + # # * # X ",
"X + $ - - ; ; ; * @ o o o o o o . . . . . . ; ; ; ; ; ; #             + @ $ $ # $ # o o o . . . . . . . . . . . $ $ $ & * = # X ",
"X + $ ; ; ; ; ; , * @ @ o o o o o o o o o . ; ; - ; ; - $             + @ $ # $ # # @ o o o o o o o o o o o o . $ $ & & * = $ X ",
"X + $ ; ; ; ; ; , , : > > > > : : : : ; o . ; - ; - - - $             + @ # $ # # # @ @ @ + + + + + + + # @ o . $ $ & * * * $ X ",
"X + $ ; ; ; : : 1 < > > , > : : : ; ; ; o . - ; - - - = $             + @ $ # # # # @ # + + + + + + + @ @ # o . $ & & * = = $ X ",
"X + $ ; : : : : 1 < , , > : : : ; ; ; - o . - - - - = = $             + @ # # # # @ # + + + + + + + @ @ # # o . $ & & * = = $ X ",
"X + $ : : : > > 1 < > > : : : ; ; ; - ; o . - - - = = = $             + @ # # # @ # # @ + + + + + @ @ # # # o . & & * * * = $ X ",
"X + $ : > > , , 1 < : : : ; ; ; ; - ; - o . - = = = = * $             + @ # # @ # @ # @ + + + + + + @ @ # # o . & & * * = = $ X ",
"X + $ > < , , > 1 < : : ; ; ; ; - ; - - o . = = = * * * #             + @ # @ # @ @ # @ + + + + + @ @ # # # o . & * * = * = & X ",
"X + $ < , , > > 1 < : ; ; ; ; - ; - - - o . = * * * * & #             + @ # # @ @ + # @ + + + + @ @ # # # $ o . & * * * = = & X ",
"X + $ , > > > : 1 < ; ; ; ; - - - - - - o . * = * * & & #             + @ # @ @ + + # @ + + + @ @ # @ # # $ o . & * * = = = & X ",
"X + $ > > : : : 1 < ; - ; - - - - - = = o . = * & & & & #             + @ @ @ + + + # @ + + + + @ @ # # $ $ o . * * = * = = & X ",
"X + $ > : : : ; 1 , - ; - - - - - = = * o . * & * & & & #             + @ # @ @ + + # @ + + + @ @ # # # $ $ o . * * * = = - & X ",
"X + $ : : ; ; - 1 , ; - - - - - = = * = o . & * & & & $ #             + # @ @ + + + # # + @ @ @ # # # $ $ $ o . * * = = = - & X ",
"X + $ : ; ; - ; 1 , - - - - = = = * = * o . * & & & $ $ @             + @ @ + + + + # # + @ @ # @ # # $ $ & o . * = = = = - & X ",
"X + $ ; ; ; ; - 1 , - - - = = = * = * * o . & & & $ $ $ @             + @ + + + + + # # @ + @ @ # # $ $ & $ o . = * = = - - & X ",
"X + $ ; - ; ; - 1 , - - = = = * = * * * o . & & $ $ $ $ @             + + + + + + + # # + @ @ # @ # $ $ $ & o . * = = = - - & X ",
"X + $ - ; ; - - 1 , - = = = * = * * * & o . & $ $ $ $ $ @             + + + + + + + $ $ @ @ # @ # # $ $ & & o . = = = = - ; & X ",
"X + $ ; - - - - 1 , = = = * = * * * & & o . $ & $ $ $ $ @             + + + + + + + $ $ @ # @ # # $ $ & $ * o . * = = = - ; & X ",
"X + $ - - - - - 1 , = = * * * * * & * & o . & $ $ $ $ # +             + + + + + + + & $ @ @ # # # $ & $ & & o . = = = - ; - & X ",
"X + $ - - - - = 1 , = * * * * * & * & & o . $ $ $ $ # # +             + + + + + + + & $ @ # @ # $ $ $ & & * o . = = = - ; > & X ",
"X + $ - - = = = 1 , * = * * * & * & & & o . $ $ $ # # # +             + + + + + + @ & $ # @ # # $ $ & & * & o . = = = - ; : & X ",
"X + $ - = = = = 1 , = * * * & * & & & & o . $ $ # # # # +             + + + + + + @ & $ @ # # $ $ & $ & & * o . = = - - ; : & X ",
"X + $ = = = = = 1 , * * * & * & & & & $ o . $ # $ # # # +             + + + + + @ + * $ # # # $ $ $ & & * * o . = = - ; : > & X ",
"X + $ = = = = * 1 , * * & * & & & & $ $ o . # $ # # # # +             + + + + + + @ * $ @ # $ $ $ & & * * = o . = = - ; : > & X ",
"X + $ * @ > * = 1 , * & * & & & & $ $ $ o . $ # + o - @ +             + + + o * @ @ * & # # $ $ & & * & * * o . = - * ; 1 , & X ",
"X + $ # . @ = * 1 , & * * & & & $ $ $ $ o . # + + . o @ +             + + + . o @ # * & # $ $ & $ & & * * = o . = * # + ; , & X ",
"X + $ @ # @ * * 1 , * * & & & $ & $ $ $ o . # + + + + @ +             + + + + + @ @ = & # $ $ $ & & * * = * o . = * o # & , & X ",
"X + $ * * = * * 1 , * & & & $ & $ $ $ $ o . # + + + + @ +             + + + + + @ # = & $ $ $ & & * & * * = o . = * * * > , & X ",
"X + $ = * * * & 1 , & & & $ & $ $ $ $ # o . # # # @ @ + +             + + @ @ @ # # = * $ $ & & & & * * = * o . - - ; : , , & X ",
"X + $ * * * & * 1 , & & $ & $ $ $ $ # # o . # # @ @ + + +             + + @ @ # @ # = * $ & $ & * * * = * = o . - ; : > , > & X ",
"X + $ * * & * & 1 , & $ & $ $ $ $ # # # o . # @ @ + @ + +             + + + @ @ # $ - * $ $ & & * & * * = = o . - ; : > , > & X ",
"X + $ * & * & & 1 , $ & $ $ $ $ # $ # # o . @ @ @ @ + + +             + + @ @ # @ # - = $ & & & & * * = * = o . - ; : > , > & X ",
"X + $ & * & * & , , & $ $ $ $ # $ # # # o . @ @ @ + + + +             + @ @ # # # # - = & & & & * * = * = = o . ; ; : , , > & X ",
"X + $ * & * & & , > $ $ $ $ # $ # # # # o . @ @ + + + + +             + @ # @ # # # ; = $ & & * * * * = = = o . ; : > , , > & X ",
"X + $ & * & & & , > $ $ $ # $ # # # # @ o . @ + + + + + +             + @ @ # # # $ ; = & & * & * * = * = = o . ; : > < , > & X ",
"X + $ * & & & & , > $ $ $ $ # # # # @ # o . + + + + + + +             + @ # # # # $ ; = & & & * * = * = * = o . ; : , < > : & X ",
"X + $ & & & & $ : > $ $ $ # # # # @ # @ o . @ + + + + + +             + @ # # # $ # ; = & & * * * * = * = = o . : > , < > : & X ",
"X + $ & & & $ & : : $ $ # # # # @ # @ @ o . + + + + + + +             + @ # # # # $ : = & * & * * = * = = - o . : > , , > : & X ",
"X + $ & & $ & $ : : $ # # # # # # @ @ @ o . + + + + + + +             + @ # # # $ # > - & & * * = * = = = - o . : > < , > : & X ",
"X + $ & $ & $ $ ; ; # $ # # # # @ @ @ @ o . + + + + + + +             + @ # # $ # $ > - & * * * * = * = = - o . : , < , > : & X ",
"X + $ $ & $ $ $ ; ; $ # # # # @ @ @ @ + o . + + + + + + +             + @ # $ # $ $ > ; * * * * = * = = = - o . > , < , > : & X ",
"X + $ & $ $ $ $ ; - # # # # @ @ @ @ + + o . + + + + + + +             + @ # # $ # $ > ; & * * = * = = = - - o . > , < , > : & X ",
"X + $ $ $ $ $ $ - - # # # @ # @ @ + @ + o . + + + + + + +             + @ # $ # $ & , : * * * * = * = = - - o . > < < , > ; & X ",
"X + $ $ $ $ $ $ - = # # @ # @ @ + @ + + o . + + + + + + +             + @ $ # $ $ & , : * * * = * = = = - ; @ . , < < , > ; & X ",
"X + $ $ $ $ $ # - = # @ # @ @ @ @ + + + o . + + + + + + +             + @ # $ # & & , : * * = * = = = - - ; @ . , < , > > ; & X ",
"X + $ $ $ $ # $ = = # # @ @ @ @ + + + + o . + + + + + + +             + @ $ # $ & & , : * = * = * = = - - ; @ o , < , > > ; & X ",
"X + $ $ $ # $ # = * # @ @ @ @ + + + + + o . + + + + + + +             + # # $ $ & & 1 > * * = * = = = - - ; @ o < < , > : ; & X ",
"X + $ $ # $ # # * * @ @ @ @ + + + + + + o . + + + + + @ +             + # $ $ & & * 1 > * = * = = = - - ; : @ o < < , > : ; & X ",
"X + $ # $ # # # * * # @ @ + @ + + + + + o . + + + + + @ +             + # $ $ & & * 1 > = * = = = = - - ; : @ @ < < , > : ; & X ",
"X + $ $ # # # # * & @ @ + @ + + + + + + o . + + + + @ @ +             + # $ & & * * 1 , * = * = = = - - ; : & & < < , > : ; & X ",
"X + $ # # # # @ & & @ + @ + + + + + + + o o + + + + @ + +             + # $ & & * * 1 , = * = = = = - ; : > = - < < , > ; ; & X ",
"X + $ # # # @ # & & & & $ $ # # # @ @ @ @ o + + + @ + @ +             + # & & & * * 1 , , , , , < < < < < < ; > 1 < , > ; ; & X ",
"X + $ + o * # # & & $ $ $ # # # @ @ @ @ @ @ + + + o * @ +             + # * o : * * 1 1 1 1 1 1 1 1 1 1 1 1 1 1 1 , ; ; < ; & X ",
"X + @ + . o # @ @ @ + + + + + + + + + + + + + + + . o # +             + # # . o * * * = = = = = = - - ; : > , 1 < > & o $ ; & X ",
"X + + + + + @ @ @ + @ + + + + + + + + + + + + + + + + # +             + # @ # @ * * = = = = = = - - ; : > , < 1 < > & # @ ; & X ",
"X + + + + + @ @ + @ + + + + + + + + + + + + + + + + + # +             + # * * = * * = = = = = = - ; ; : > , < 1 < ; * * = ; & X ",
"O + + + + + + + + + + + + + + + + + + + + + + + + + + + @             + + + + + + + + + + + + + + + + + + + + + + + + + + + @ O ",
"% % % % % % % % % % % % % % % % % % % % % % % % % % % % O X X X X X X O % % % % % % % % % % % % % % % % % % % % % % % % % % % % "
};
