/* XPM */
static char *_b316998a512471d848a2500a6bab5caNgKedEkVs6JeCNpR[] = {
/* columns rows colors chars-per-pixel */
"64 64 248 2 ",
"   c None",
".  c #49A733",
"X  c #43A62D",
"o  c #2F5A1A",
"O  c #3A8024",
"+  c #387922",
"@  c #44A62E",
"#  c None",
"$  c #5A9649",
"%  c #44A52E",
"&  c #44A52E",
"*  c #44A52E",
"=  c #44A62E",
"-  c #44A52E",
";  c #44A52E",
":  c #305C1B",
">  c #305C1B",
",  c #305B1A",
"<  c #44A52E",
"1  c #44A62E",
"2  c #305C1B",
"3  c #305B1A",
"4  c #305C1B",
"5  c #2F5B1A",
"6  c #305C1A",
"7  c #305C1B",
"8  c #42A52C",
"9  c #44A52E",
"0  c #44A52E",
"q  c #44A52E",
"w  c #44A62E",
"e  c #44A52E",
"r  c #44A62E",
"t  c #305C1B",
"y  c #305C1B",
"u  c #315F1B",
"i  c #305C1B",
"p  c #315F1C",
"a  c #305C1B",
"s  c #44A52E",
"d  c #44A52E",
"f  c #31601C",
"g  c #44A52E",
"h  c #44A62E",
"j  c #305D1B",
"k  c #43A22D",
"l  c #305D1B",
"z  c #44A52E",
"x  c #356E20",
"c  c #305C1B",
"v  c white",
"b  c white",
"n  c #305C1B",
"m  c #305C1B",
"M  c #305C1B",
"N  c #44A52E",
"B  c #305C1B",
"V  c #305C1B",
"C  c #44A52E",
"Z  c #305C1B",
"A  c #305C1B",
"S  c #44A52E",
"D  c #2F591A",
"F  c #3F9E29",
"G  c #346B1E",
"H  c white",
"J  c #305C1B",
"K  c #305C1B",
"L  c #305C1B",
"P  c white",
"I  c #305C1B",
"U  c #305C1B",
"Y  c #305C1B",
"T  c #44A52E",
"R  c #305C1B",
"E  c #419A2B",
"W  c white",
"Q  c white",
"!  c #377421",
"~  c white",
"^  c #305B1B",
"/  c #387A22",
"(  c #31621C",
")  c #33681E",
"_  c white",
"`  c white",
"'  c white",
"]  c white",
"[  c white",
"{  c white",
"}  c #44A72E",
"|  c #305C1B",
" . c #377621",
".. c white",
"X. c #44A52E",
"o. c #A3D398",
"O. c white",
"+. c #3E8F28",
"@. c white",
"#. c #40952A",
"$. c #419B2B",
"%. c #32631D",
"&. c #3D8927",
"*. c #315E1C",
"=. c #3A7E24",
"-. c white",
";. c white",
":. c white",
">. c #41992B",
",. c #3A8225",
"<. c #356F20",
"1. c #6DB95C",
"2. c #397D24",
"3. c white",
"4. c white",
"5. c white",
"6. c #BEDFB7",
"7. c #84C475",
"8. c #7EC36E",
"9. c #41982B",
"0. c #305A1B",
"q. c #72FF2F",
"w. c #7FACFF",
"e. c #30FF50",
"r. c #44A52E",
"t. c #305C1B",
"y. c white",
"u. c #AD5050",
"i. c #44A62E",
"p. c #45A72F",
"a. c #9C1F1F",
"s. c #43A62E",
"d. c #43A32D",
"f. c #45A82F",
"g. c #419C2B",
"h. c #43A12C",
"j. c #429E2C",
"k. c #44A42E",
"l. c #45AB2F",
"z. c #40982B",
"x. c #2F591A",
"c. c #40952A",
"v. c #3FA82C",
"b. c #AA4949",
"n. c #3B8626",
"m. c #AE5151",
"M. c #3AA023",
"N. c #40A42A",
"B. c #305B1B",
"V. c #B44A52",
"C. c #A84545",
"Z. c #3F9229",
"A. c #3A8124",
"S. c #45A42E",
"D. c #42A52C",
"F. c #50AB3C",
"G. c #3DA327",
"H. c #346C1F",
"J. c #367220",
"K. c #3C8A27",
"L. c #F8F8F7",
"P. c #B04D51",
"I. c #688939",
"U. c #9E2525",
"Y. c #991919",
"T. c #77BE67",
"R. c #39A424",
"E. c #3E9028",
"W. c #8A6D44",
"Q. c #40962A",
"!. c #49A130",
"~. c #509C32",
"^. c #FBFBFB",
"/. c #A73D3D",
"(. c #E2F1DF",
"). c #F8EAED",
"_. c #31601C",
"`. c #32651D",
"'. c #387A23",
"]. c #827342",
"[. c #70813C",
"{. c #AF5353",
"}. c #AD4D4D",
"|. c #EFF8ED",
" X c #93CB86",
".X c #9D5E4B",
"XX c #CBE6C4",
"oX c #4D922A",
"OX c #FFF9FD",
"+X c #E2BFBF",
"@X c #BF7474",
"#X c #DBB5B4",
"$X c #EDD1D4",
"%X c #479829",
"&X c #2F581A",
"*X c #5F9036",
"=X c #6D6D6D",
"-X c #3CAC2B",
";X c #555555",
":X c #33681E",
">X c #64B653",
",X c #9F5848",
"<X c #956247",
"1X c #3F9A23",
"2X c #929463",
"3X c #981616",
"4X c #DDBCBA",
"5X c #E5C5C5",
"6X c #579634",
"7X c #F0D6D9",
"8X c #D6AEAC",
"9X c #C37E7E",
"0X c #CA8B8B",
"qX c #EBCCD0",
"wX c #F3E5E5",
"eX c #E4B7BC",
"rX c #895F3B",
"tX c #44A82E",
"yX c #E2E2E2",
"uX c gray88",
"iX c #ACACAC",
"pX c gray82",
"aX c gray2",
"sX c #5B5B5B",
"dX c #83C374",
"fX c #D9ECD5",
"gX c #87C578",
"hX c #53A439",
"jX c #A24C45",
"kX c #7B7840",
"lX c #E2E1D5",
"zX c #B76363",
"xX c #AAA280",
"cX c #64A447",
"vX c #6FBA5E",
"bX c #57882C",
"nX c #BAAC93",
"mX c #B1454D",
"MX c #BC6868",
"NX c #CCC2B0",
"BX c #879158",
"VX c #A88E72",
"CX c #AF8974",
"ZX c #D4BFB4",
"AX c #49A733",
"SX c #9A7557",
"DX c #B2786C",
"FX c #BF988C",
/* pixels */
"                                                                                                                                ",
"                                                            4 J $                                                               ",
"                                                        $ 6 : t.6 , :                                                           ",
"                                          v H H @.        3 D t.n t o                                                           ",
"                                      v ` W y.y.:.] P      .| x.0.>     P 5.b 3.4._ v                                           ",
"                                    Q ;.yX^.y.y.y.y.{ . X } K.J.:X9.X 8.b y.y.y.y.y.[ H                             + 4         ",
"    $ % &.2 :                       { uXaXiXy.y.y.y.y.7.G.r.l.p.k.i.D.6.y.y.y.y.L.L.y.[ v                         o 6 l   O +   ",
"  % z * $.x ! (                   P y.L.=XpXy.y.y.y.y.XXr.r.c.r.p.r.>XL.y.y.y.y.;XsX^.y.]                       . ,.<.*.F ) 4   ",
"  q r.r.r.E.J.n.X .               -.y.y.y.y.y.y.y.y.y.(.F.r.h.i.g.D.dXy.y.y.y.y.;X=Xy.y.`                   0 q ; - z.n.Q.>.    ",
"  * r.r.r.p.j.k.r.= O             Q y.y.y.y.y.y.y.y.y.(.F.r.h.h.z.D. Xy.y.y.y.y.^.^.y.y.b               % z s r.r.r.tXf.i.p.1   ",
"  X.r.r.r.r.f.r.r.r.=             $ W y.y.y.y.y.y.y.y.XXN.r.g.g.f.r.T.y.y.y.y.y.y.y.y.y.~             % r r.r.r.r.r.r.r.r.r.X   ",
"  & ; r.r.i.z.i.r.r.- N           $ _ y.y.y.y.y.y.y.y.>XN.r.p.i.r.r.F.(.y.y.y.y.y.y.y.' O.          O = r.r.r.r.r.r.r.r.r.r.8   ",
"    % S ; i.z.i.r.r.r.= +           ..b y.y.y.y.y.y. XM.r.s.v.v.s.r.G.T.y.y.y.y.y.y.y.~             0 r.r.r.r.r.r.r.r.- g N     ",
"        & * p.r.k.k.r.; .             1. XfX|.|.XXT.G.v.v.%XoXoX%XN.v.M.T.(.y.y.y.|.o.            % s r.r.r.r.r.r.- < & $       ",
"          h r.r.h.z.r.r.0             F M.r.F.F.G.R.D.I.rXFX8X#XZXSXI.g.R.AXvXgXT.F.M.8         O < r.r.r.r.r.r.r.e $           ",
"            s r.r.r.r.r.} +           z r.D.N.N.v.%XrX$XqXy.y.y.y.).7XCX6Xv.M.M.M.N.r.S         d r.r.r.r.r.r.r.q               ",
"            X r.r.r.r.r.r.9 k         r r.h.h.v.~.DXeXy.y.#X+X8X5X^.y.y.4XbXs.r.r.r.r.<   $ k = r.r.r.r.r.r.r.g O               ",
"            k - r.r.i.p.r.r.- e %     ; i.g.g.r.,XeXy.wX0XC.b.C.C.9X+Xy.#XjX!.r.r.r.r.; X g - p.r.r.r.r.r.r.r.w                 ",
"            . r r.r.h.z.r.r.r.r.; e w ; r.i.s.kXP.9X$X@XC.m.u.u.u.b.u.@X}.V.W.-Xr.r.r.r.r.r.i.c.p.r.r.r.r.r.9                   ",
"              ! p.r.d.j.r.r.r.i.r.r.* - r.r.!..Xu.b.b.b.u.u.u.u.u.u.u.b.u.u.P.~.r.r.r.r.p.r.i.Z.p.r.r.r.r.r.1                   ",
"            , G n.p.r.p.r.r.i.j.k.r.r.r.r.r.~.P.u.u.u.u.u.u.u.u.u.u.u.u.u.u.u.[.s.r.r.d.g.r.r.f.r.r.r.r.r.r.w                   ",
"            4 o %.j.r.r.r.r.i.c.d.r.r.r.i.s.*XV.u.u.u.u.u.u.u.u.u.u.u.u.u.u.u.].s.r.r.k.j.r.h.c.i.r.i.p.f.= +                   ",
"              4 l E r.r.r.r.r.p.r.i.r.i.c.D.I.V.u.u.u.u.u.u.m.m.u.u.u.u.u.u.u.W.r.r.r.r.p.r.k.j.i.i.j.g.c.2.j                   ",
"                f 0 * r.r.r.p.E.k.h.i.r.h.D.I.V.u.u.u.u.{.u.b.b.}.m.u.u.u.u.u.W.S.r.r.r.r.r.r.i.r.f.'.H.x 5 ^                   ",
"                    & * r.r.r.d.f.K.i.r.r.s.I.V.u.u.u.m.C.U.a.a.U./.m.u.u.u.u.W.S.r.r.r.r.r.r.r.r.p.K.x ( A 2                   ",
"                      8 9 r.r.r.r.i.r.r.r.s.*XV.u.u.u.C.a.a.a.a.a.a./.m.u.u.u.].s.r.r.r.r.r.r.r.r.r.d p : + +                   ",
"                        O X @ r.r.r.r.r.r.r.~.u.u.u.{.U.a.a.a.a.a.a.U.b.u.u.u.[.s.p.r.r.r.i.r.s = 0                             ",
"                            % d @ i.f.r.r.r.!..Xu.m.}.Y.a.a.a.a.a.a.a./.u.u.P.!.h.Q.i.k.@ < 1 8                                 ",
"                                % S #.A.f.r.s.[.P.u.C.a.3Xa.a.a.a.Y.Y.zX{.V.].-Xd.h.E./ ) u                                     ",
"                                  f 7 / f.r.r.v.<XmX4X7XMXY.Y.3XU./.0Xy.$X,Xr.r.r.d.H.X 2 o                                     ",
"                                  2 D +.i.r.r.s.S.<X).y.y.+X5X@XwXL.y.y.lXoXs.r.r.p.n.G                                         ",
"                                      ; r.r.r.r.r.h.2XqXOXOXy.).y.OX).xXhXv.r.r.r.r.l.(                                         ",
"                                      T r.r.r.r.r.s.G.6XBXVXNX.XnX2XcXG.N.r.r.r.r.r.;                                           ",
"                                      9 r.r.r.r.r.r.r.v.G.G.1Xh.1XG.G.r.r.r.r.r.r.r.z                                           ",
"                                      g r.r.r.r.r.r.r.r.r.r.s.s.s.r.r.r.r.f.K.f.r.r.1                                           ",
"                                      C r.r.d.z.r.r.r.g.j.r.r.r.r.r.r.r.r.r.d.r.r.r.0                                           ",
"                                      q r.r.r.k.r.r.r.r.i.r.r.r.r.r.r.r.r.r.r.r.r.@ 8                                           ",
"                                      h r.r.r.r.r.r.r.d.g.i.r.r.r.r.r.r.r.r.r.r.r.r .                                           ",
"                                      N r.r.r.r.r.r.f.H.'.k.r.r.r.r.r.r.r.p.r.r.r.<                                             ",
"                                      w r.r.r.r.r.r.i.A.K.J.f.r.r.r.g.g.r.Z.r.r.r.d                                             ",
"                                        r.r.r.r.f.r.r.z.z.A.d.r.r.r.r.r.r.h.r.r.r.F                                             ",
"                                        @ r.r.p.E.p.r.r.r.f.r.r.i.r.r.r.r.i.r.r.r.&                                             ",
"                                        C r.r.i.g.i.r.r.r.p.r.r.d.d.r.r.r.r.r.r.r.                                              ",
"                                        1 r.r.r.p.r.r.i.i.Q.i.r.g.g.i.r.r.r.r.r.-                                               ",
"                                        & s r.r.r.r.r.j.p.Z.i.r.r.i.r.r.r.r.r.r.r                                               ",
"                                        % T r.r.r.r.i.Z.k.f.r.r.r.r.r.r.r.r.i.r.q                                               ",
"                                          < r.r.r.r.r.p.r.r.r.r.r.r.r.r.r.r.d.k.h                                               ",
"                                          1 r.r.r.r.r.r.r.r.i.i.r.r.r.r.r.f.A.A.=.                                              ",
"                                          w r.r.r.r.r.r.r.r.h.r.i.r.r.r.r.f.'.Q.G                                               ",
"                                            @ r.r.r.r.r.r.p.g.J.i.r.r.r.r.i.j.@ %                                               ",
"                                            d r.r.r.r.r.f.n.c.c.k.r.r.r.r.r.p.g O                                               ",
"                                            k p.i.r.r.r.l.H.A.c.i.r.r.r.r.r.r.C $                                               ",
"                                            % E k.l.f.f.r.j.h.z.f.i.i.p.f.f.i.h                                                 ",
"                                            Y t.:Xn.Z.n.H.`.J.K.g.d.d.j.c.Z.j.e                                                 ",
"                                  $ f 6 p i t B.x.&Xx.x.x.B.x.&X_.`.`._.B.x._.x U                                               ",
"                      + 2 o 5 i 7 M c # t.t.t.t.t.t.t.t.t.t.t.t.B.x.x.B.B.t.B.x.t y u : Z $                                     ",
"    O V : , 5 a I 7 B M 3 t.t.t.t.t.t.t.t.t.t.t.t.t.t.t.t.t.t.t.t.t.t.t.t.t.t.t.t.t.t.# L M B R y l A n a p U Z                 ",
"  Y > 3 # t.t.t.t.t.t.t.t.t.t.t.t.t.t.t.t.t.t.t.t.t.t.t.t.t.t.t.t.t.t.t.t.t.t.t.t.t.t.t.t.t.t.t.t.t.t.t.t.t.t.L 7               ",
"  c t.t.t.t.t.t.t.t.t.t.t.t.t.t.t.t.t.t.t.t.t.t.t.t.t.t.t.t.t.t.t.t.t.t.t.t.t.t.t.# # t.t.t.t.t.t.t.t.t.t.t.t.t.K               ",
"  R t.t.t.t.t.t.t.t.t.t.t.t.t.t.t.t.t.t.# # t.t.t.t.t.t.t.t.t.t.t.t.t.t.t.t.t.t.t.# D u A B > 3 t.t.t.t.t.t > l ^               ",
"  Z I K 3 | t t 3 m K J y n a i J t.# t.t.t.t.t.t.t.t.t.t.t.t.t # t.t.t.t.t.t.t.t.t.a       O V 6 o , , o : 4                   ",
"      O 2 j j j V f O $         6 t.t.t.t.t.t.t.t.t.t.t.t.t.t.t.t.t.t.t.t.t.t.t.t.t.5                                           ",
"                                  5 > m m m K y i p , o Y n > m m L 7 5 , p i 7 y u O                                           ",
"                                                                                                                                "
};
