/* XPM */
static char *bf7d05cfb9c24ae2da9f28c644548038MJHg2WVtZ2nC9UsV[] = {
/* columns rows colors chars-per-pixel */
"64 64 81 1 ",
"  c None",
". c #6C6C6C",
"X c #6D6D6D",
"o c gray43",
"O c #6F6F6F",
"+ c gray44",
"@ c #717171",
"# c #727272",
"$ c gray45",
"% c #747474",
"& c gray46",
"* c #767676",
"= c #777777",
"- c gray47",
"; c #797979",
": c gray48",
"> c #7B7B7B",
", c #7C7C7C",
"< c gray49",
"1 c #7E7E7E",
"2 c gray50",
"3 c #808080",
"4 c gray51",
"5 c #838383",
"6 c #848484",
"7 c gray52",
"8 c #868686",
"9 c gray53",
"0 c #888888",
"q c #898989",
"w c gray54",
"e c #8B8B8B",
"r c gray55",
"t c #8D8D8D",
"y c #8E8E8E",
"u c gray56",
"i c #909090",
"p c gray57",
"a c #929292",
"s c #939393",
"d c gray58",
"f c #959595",
"g c gray59",
"h c #979797",
"j c #989898",
"k c gray60",
"l c #9A9A9A",
"z c #9B9B9B",
"x c gray61",
"c c #9D9D9D",
"v c gray62",
"b c #9F9F9F",
"n c #A0A0A0",
"m c gray63",
"M c #A2A2A2",
"N c gray64",
"B c #A4A4A4",
"V c #A5A5A5",
"C c gray65",
"Z c #A7A7A7",
"A c gray66",
"S c #A9A9A9",
"D c #AAAAAA",
"F c gray67",
"G c #ACACAC",
"H c gray68",
"J c #AEAEAE",
"K c #AFAFAF",
"L c gray69",
"P c #B1B1B1",
"I c #B2B2B2",
"U c gray70",
"Y c #B4B4B4",
"T c gray71",
"R c #B7B7B7",
"E c gray72",
"W c #B9B9B9",
"Q c gray73",
"! c #BBBBBB",
"~ c #BCBCBC",
"^ c gray74",
/* pixels */
"      $            $           Be           uk           >      ",
"     kGb          kFF          bBY          mm          GBk     ",
"    g   k        a   B        g  BY        m  k        FI  a    ",
"   g     k      a    IB      g    m       m    k      FG    a   ",
"  g       k    a      IB    g      m     b      g    FG      a  ",
" k         b  k         F  k        F   B        b  FI        k ",
".F         m..          e.$          >$>          $.9          .",
" b         B  b        GG  k        m   m        k   G        k ",
"  g       b    a      GF    g      b     k      a    GF      a  ",
"   k     b      a    FF      a    k       k    g      GB    a   ",
"    k   b        g  GG        g  b         b  g        IF  a    ",
"     bmB          bmG          bb           bk          Imk     ",
"      .            &           b9           am           >      ",
"      .            $           k3           ab           &F     ",
"     k m          m m          F B         GYG~         b m     ",
"    a   g        k   b        b  IB       IY  FW       m   b    ",
"   a     g      k     k     Wm    IB     FW    BI     k     k   ",
"  a       k    g       k   Wm      IB   FI      mY   k       k  ",
" k         k  m         b FF         m BY        FB b         m ",
"$F         m$$          u&&          1&1          >&9          $",
" F        GG  b        b   g        k   g        g   b        k ",
"  B      GG    k      b     g      g     g      a     b      k  ",
"   B    GF      g    b       a    g       g    a       k    g   ",
"    B  GF        g  b         a  g         g  a         b  g    ",
"     FuI          mu           ku           aa           uk     ",
"      .            &           me           ub           1      ",
"      $           G&           g3           9a           >B     ",
"     k k          B g         F  k         b  B         g FY    ",
"    g   g        m   g       FI   k       k    B       g   BY   ",
"   k     a      m     a     IY     k     b     YB     g     FW  ",
"  b       g    b       a   FY       b   b       IB   g       BW ",
"Bm         kkgF         bFb          gFk          abg         Im",
"3m         b33          gge          999          39e          a",
" YB       b   F        g   b        g   g        k   g        B ",
"  Im     k     BY     g     g      a     a      g     a      m  ",
"   Ym   b       BY   g       k    a       a    k       a    m   ",
"    YB m         B  g         k  g         g  k         g  m    ",
"      >           B1           a9           eu           3b     ",
"      .            &           Be           ab           1      ",
"      >           B3           a9           ea           3m     ",
"     B b         FY g         b  g         g  k         g  B    ",
"    b   k       FI   a       k    a       a    k       a   IB   ",
"   m     k     FI     g     k      a     a      g     a     IB  ",
"  m       m   FI       g   b        g   g        k   g       IF ",
"9m         beeY         ue9          9ue          eeu          9",
"gb         mkkG         kmk          uku          kmg         Ik",
"  k       b   YB       g   BW       k   k        B   k       GI ",
"   k     k      B     g     B      g     g      m     g     FI  ",
"    k   k       IB   a       B    g       g    m       a   FI   ",
"     b k         IF a         B  g         k  m         g GI    ",
"      &           F>           g9           9a           1m     ",
"      .            &           Be           ub           1      ",
"     F9           be           gu           ea           eb     ",
"    FI FI        k  k         a  g         a  a         k  k    ",
"   FG   BI      k    k       g    a       a    g       k    k   ",
"  FG     BI    b      k     g      a     a      a     k      k  ",
" GI       BI  m        k   g        g   a        g   k        b ",
"&F         b>&          u>>          1>3          >>e          &",
" k         k Bm         b FI         b b         Im k         FG",
"  a       a    k       g   WI       m   B       FI   g       B  ",
"   g     g      k     g     ~F    Wm     FW    FI     k     m   ",
"    g   k        k   k       YB  ~B       BY  FG       k   m    ",
"     k k          m k         II m         FWYI         k m     ",
"      .            &           k9           ek           >F     "
};
