/* XPM */
static char *_d997029c0bd4b599eae64eda5e7d4d4zINj366Sry6qoqX5[] = {
/* columns rows colors chars-per-pixel */
"64 64 251 2 ",
"   c None",
".  c #BD7357",
"X  c #C6C4C9",
"o  c None",
"O  c #663737",
"+  c #3A3649",
"@  c #3E3A4C",
"#  c #C47A5C",
"$  c #4E495B",
"%  c #6C5157",
"&  c #DCBFB5",
"*  c #9D8F94",
"=  c #D4C9CB",
"-  c #D6D0D1",
";  c #643837",
":  c #505060",
">  c #484555",
",  c #BE826C",
"<  c #755961",
"1  c #7B6067",
"2  c #7F7B87",
"3  c #C09384",
"4  c #888692",
"5  c #8C8893",
"6  c #97888F",
"7  c #988085",
"8  c #8F8C98",
"9  c #DDB6A9",
"0  c #775D62",
"q  c #B4A7AC",
"w  c #D7D5DB",
"e  c #874D40",
"r  c #A35C48",
"t  c #5F2F32",
"y  c #413B4E",
"u  c #6E3D38",
"i  c #B26B54",
"p  c #4D303A",
"a  c #5C5F6F",
"s  c #3A3548",
"d  c #383448",
"f  c #605E6D",
"g  c #58545F",
"h  c #565262",
"j  c #524D5E",
"k  c #5E5868",
"l  c #7B656C",
"z  c #CF8E74",
"x  c #AF7969",
"c  c #5E5A6A",
"v  c #D4967C",
"b  c #6D6978",
"n  c #76565E",
"m  c #D29E89",
"M  c #A2A1A9",
"N  c #DFAB99",
"B  c #5E5E71",
"V  c #9C9BA4",
"C  c #DBB09F",
"Z  c #A9A8B1",
"A  c #A29EA8",
"S  c #B7B5BD",
"D  c #94939D",
"F  c #9A9096",
"G  c #BAB8BE",
"H  c #A76246",
"J  c #763F37",
"K  c #626B79",
"L  c #414054",
"P  c #612F2F",
"I  c #A96348",
"U  c #683635",
"Y  c #4E5061",
"T  c #925140",
"R  c #64302F",
"E  c #411A25",
"W  c #515363",
"Q  c #494A5C",
"!  c #A35F47",
"~  c #9D5B47",
"^  c #713C38",
"/  c #693531",
"(  c #471E26",
")  c #FFEA7E",
"_  c #666E7B",
"`  c #FFF06F",
"'  c #5A5F6D",
"]  c #4C4C5D",
"[  c #3B394D",
"{  c #363346",
"}  c #9B5A45",
"|  c #975642",
" . c #904F3F",
".. c #924E3C",
"X. c #894B3C",
"o. c #4B2C37",
"O. c #7D4236",
"+. c #6C3834",
"@. c #4B2831",
"#. c #41202B",
"$. c #7A3027",
"%. c #522427",
"&. c #4D2026",
"*. c #3D1A25",
"=. c #FFEF80",
"-. c #D18F63",
";. c #4C4E5F",
":. c #4A4859",
">. c #474859",
",. c #BD7756",
"<. c #55424F",
"1. c #443D4D",
"2. c #4B3D4B",
"3. c #AA6549",
"4. c #A05D47",
"5. c #955241",
"6. c #4B313D",
"7. c #7C453A",
"8. c #54323A",
"9. c #BB8239",
"0. c #743C35",
"q. c #512D35",
"w. c #462733",
"e. c #6C3731",
"r. c #663430",
"t. c #5A292B",
"y. c #81372A",
"u. c #4E242A",
"i. c #947E7E",
"p. c #89777A",
"a. c #817379",
"s. c #7D7078",
"d. c #606976",
"f. c #5E6774",
"g. c #696674",
"h. c #616272",
"j. c #5B6370",
"k. c #FFED6D",
"l. c #78676D",
"z. c #5A5B6C",
"x. c #6E565F",
"c. c #524F5F",
"v. c #FFDE5A",
"b. c #4B4656",
"n. c #494354",
"m. c #4C4253",
"M. c #624950",
"N. c #AB664A",
"B. c #A35F4A",
"V. c #9C5B46",
"C. c #9A5745",
"Z. c #483745",
"A. c #9C5641",
"S. c #81483C",
"D. c #B87B39",
"F. c #844437",
"G. c #6D3A37",
"H. c #793E36",
"J. c #814335",
"K. c #7D3E35",
"L. c #673734",
"P. c #522A31",
"I. c #49222B",
"U. c #572829",
"Y. c #FFFCB1",
"T. c #FFF599",
"R. c #77808C",
"E. c #787B87",
"W. c #6D7684",
"Q. c #807B82",
"!. c #6B7382",
"~. c #877C81",
"^. c #FFF27B",
"/. c #F9DB77",
"(. c #776C75",
"). c #636675",
"_. c #ECC071",
"`. c #6B616D",
"'. c #545462",
"]. c #82615F",
"[. c #FFE35C",
"{. c #DAA05C",
"}. c #C5895A",
"|. c #564756",
" X c #434556",
".X c #7C5855",
"XX c #B66D54",
"oX c #A2614F",
"OX c #B3694D",
"+X c #A6604B",
"@X c #A05C43",
"#X c #9F5743",
"$X c #8D4F40",
"%X c #8C4E40",
"&X c #47313D",
"*X c #86473C",
"=X c #3E2936",
"-X c #9B5433",
";X c #633533",
":X c #90412F",
">X c #341B29",
",X c #5E2827",
"<X c #592427",
"1X c #562227",
"2X c #864226",
"3X c #6A2822",
"4X c #3A151D",
"5X c #55161A",
"6X c #FFF8A8",
"7X c #80848E",
"8X c #F5D98C",
"9X c #FFEF87",
"0X c #6E7785",
"qX c #FAE07F",
"wX c #FCE47B",
"eX c #867476",
"rX c #6F6773",
"tX c #FFE069",
"yX c #CB8660",
"uX c #EBAD57",
"iX c #DE9955",
"pX c #FAC752",
"aX c #F9C552",
"sX c #464252",
"dX c #6E4D50",
"fX c #7C524C",
"gX c #704C4C",
"hX c #EAAE4A",
"jX c #6C4548",
"kX c #E0A547",
"lX c #433543",
"zX c #352F43",
"xX c #332F43",
"cX c #483442",
"vX c #694241",
"bX c #5E3C41",
"nX c #C4833D",
"mX c #A5563D",
"MX c #8F4937",
"NX c #B27234",
"BX c #743A34",
"VX c #B37533",
"CX c #A06031",
"ZX c #6B302E",
"AX c #873B2C",
"SX c #7C3329",
"DX c #722E28",
"FX c #572023",
"GX c #7B3921",
"HX c #702A1F",
"JX c #310F1A",
/* pixels */
"                                                                                                                                ",
"                                                                                                                                ",
"                                                                                                                                ",
"                                                                                                                                ",
"                                                                                                                                ",
"                                                                                                                                ",
"                                                                                                                                ",
"                                                                                                                                ",
"                                                                                                                                ",
"                                                                                                                                ",
"                                                                                                                                ",
"                                                                                                                                ",
"                                                                                                                                ",
"                                                                                                                                ",
"                                                                                                                                ",
"                                                                                                                                ",
"                                                                                                                                ",
"                                                                                                                                ",
"                                                                                                                                ",
"                                                                                                                                ",
"                                                                                                                                ",
"                                                                                                                                ",
"                                                                                                                                ",
"                                                                                                                                ",
"                                                                                                                                ",
"                                                                                                                                ",
"                                                                                                                                ",
"                                                                                                                                ",
"                                                                                                                                ",
"                                                                                                                                ",
"                                                = C 3 , # . . . . . . # , 3 N &                                                 ",
"                                            & v r mX:XDXy.SX$.$.$.$.$.y.3X:X-X#Xz 9                                             ",
"                                          9 # AX5X3Xy.-XNXD.9.9.9.9.D.VXCX2XHX5Xy.OXm -                                         ",
"                                          x A.GXD.kXaXv.k.k.k.` ` ` ` 9XtXpXhXnX2XMXi &                                         ",
"                                          u XXiXv.[.^.Y.6X^.=.=.=.=.T.Y.T.` [.v.uX,.e q                                         ",
"                                        M ,XH.oX,.{._.8XqXwX) ) ) ) ) /./._.{.}.oXS./ l                                         ",
"                                        a .Xe.R J C.B.OX,.yX-.-.}.-.-.,.XX+X~ *X%.e.gX'.-                                       ",
"                                        : ).l.vXe.J.J.X.T 5.5.T 7.5.5.T %XF.J.O.8.l.g. XX                                       ",
"                                      * : Q h.7Xa.].fX%XT ......O.....T $X.X].eXE.).] L V                                       ",
"                                        p  Xo _ !.0XE.Q.~.p.i.i.p.i.p.~.Q.R.W.!._ W >.>XX                                       ",
"                                      * t q.2.' K K K K K K _ W.R._ K K d._ K d.o 2.@.FX7                                       ",
"                                      0 O ^ &.w.Z.b.'.' j.f.f.j.' d.f.j.' W b.Z.w.&.+./ n                                       ",
"                                      % O ^ ( X.BXP u.@.@.6.6.&X&X6.6.o.@.I.P 0.X.%.^ / <                                       ",
"                                      % O G.E +XV.| P O.F.K.H.ZX,XK.K.F.*X&.~ ~ ! U.^ R <                                       ",
"                                      % O U E B.V.} r.| @XI I  .J N.H I ! &.B.V.4.U.G.P 1                                       ",
"                                      0 O L.E ! ~ C.R | A.I H  .J 3.H H ! u.4.} ~ %.U P 1                                       ",
"                                      * ; U E S.~ } P | #XI H  .J 3.H H ! u.4.} S.( U t.7                                       ",
"                                      F ; U E G.7.| P A.4.I H  .J 3.H I N.u.} 7.L.( U U.6                                       ",
"                                      B M.r.E +.+.^ t.T C.I 3.T J N.H @X! ( J +.L.I.r.bXf                                       ",
"                                      D o M.#.;X/ e.&.0.7.X.$XO./  .X.O.0.*.+./ ;XI.M.c.4                                       ",
"                                      X > ;.c.`.x.dXP.U ^ J 0.r.t.H.J J U @.jXx.`.c.Y [ Z                                       ",
"                                        2 1.W Y z.h.g.rXs.s.s.l.x.a.(.a.(.g.h.z.W Q >.g                                         ",
"                                        X JXlXn.Q Q o Y Y Y W o ' W Y Y ] z.Q >.sX1.#.6                                         ",
"                                        = >X4X*.w.cX1.:.Q ] ;.] ;.;.] :.:.1.Z.o.*.4X#.5                                         ",
"                                          $ =X*.%.<X%.#.P.q.o.o.w.o.q.P.#.( 1X<X*.=X> S                                         ",
"                                          4 { b.2.8.8.E R P R t.1XR R P ( q.8.2.n.@ $ w                                         ",
"                                          = h { [ L >.n.m.|.<.<.<.<.|.m.m.:.L [ { @ q                                           ",
"                                            w 8 k y zX{ [ L L L L L L [ { xX@ j 5 X                                             ",
"                                                  X A 2 c + s + + + d $ b 8 G -                                                 ",
"                                                                                                                                ",
"                                                                                                                                ",
"                                                                                                                                ",
"                                                                                                                                ",
"                                                                                                                                "
};
