/* XPM */
static char *dacde79a6fcf453dcd7cc93c33c49cb070Lw3sWIunutTH1U[] = {
/* columns rows colors chars-per-pixel */
"64 64 157 2 ",
"   c None",
".  c #756C66",
"X  c #7E7673",
"o  c #AE5F4F",
"O  c #BA7062",
"+  c #6380B6",
"@  c #6C89B6",
"#  c #6F8DBD",
"$  c #7692C3",
"%  c #7B95C3",
"&  c #7D99C7",
"*  c #7E9ACA",
"=  c #868181",
"-  c #8B8584",
";  c #8D898C",
":  c #9C8F8A",
">  c #9C908C",
",  c #928E96",
"<  c #9C9392",
"1  c #959199",
"2  c #99979F",
"3  c #A19594",
"4  c #A19798",
"5  c #A39B9C",
"6  c #A89F9F",
"7  c #9B99A1",
"8  c #A59EA1",
"9  c #90A1BE",
"0  c #A6A1A4",
"q  c #ABA4A5",
"w  c #A2A2AD",
"e  c #ABA6AA",
"r  c #ADA8AC",
"t  c #B0A7A4",
"y  c #B2A9A6",
"u  c #B4ACAB",
"i  c #B9AFAB",
"p  c #BBB0AB",
"a  c #ABACB5",
"s  c #A9ACB8",
"d  c #B5AEB3",
"f  c #ADB0BB",
"g  c #B7B2B6",
"h  c #BAB3B3",
"j  c #B6B4BA",
"k  c #BBB6BA",
"l  c #BDB9BD",
"z  c #C5B5B4",
"x  c #C9C1BE",
"c  c #849BC7",
"v  c #839EC9",
"b  c #8AA1C6",
"n  c #86A1CD",
"m  c #8BA3CC",
"M  c #92A3C0",
"N  c #94AACE",
"B  c #9BADCC",
"V  c #81A1D0",
"C  c #8EA9D3",
"Z  c #95AED4",
"A  c #99ADD3",
"S  c #93AFD8",
"D  c #95B0D7",
"F  c #9DB2D4",
"G  c #9CB4D9",
"H  c #9FB8DD",
"J  c #ACB4C6",
"K  c #A2B3CC",
"L  c #B5B7C0",
"P  c #BCBBC3",
"I  c #A1B4D5",
"U  c #AFB8D7",
"Y  c #A4B7D9",
"T  c #A4BBDD",
"R  c #AABEDE",
"E  c #99B7E1",
"W  c #A4BDE1",
"Q  c #A9BFE1",
"!  c #C2BEC5",
"~  c #AEC1DF",
"^  c #B1C2DD",
"/  c #ADC2E3",
"(  c #ACC5E8",
")  c #B3C6E3",
"_  c #B5C9E7",
"`  c #BBCBE5",
"'  c #B5C9E8",
"]  c #BBCDE9",
"[  c #BED0EC",
"{  c #C4C1C6",
"}  c #C4C3CA",
"|  c #CCC9CE",
" . c #CECCD1",
".. c #D1CDD3",
"X. c #D3D1D6",
"o. c #D6D3D9",
"O. c #D9D6DB",
"+. c #DBD9DD",
"@. c #C3D0E4",
"#. c #CAD5E6",
"$. c #C5D4EB",
"%. c #CBD6E9",
"&. c #CDD9ED",
"*. c #D2D4E4",
"=. c #D7D8E3",
"-. c #DFDDE1",
";. c #D1DDED",
":. c #CDDCF1",
">. c #D2DEF1",
",. c #E1DEE2",
"<. c #DFE0E6",
"1. c #DFE3ED",
"2. c #D4E5F7",
"3. c #D4E1F4",
"4. c #DAE4F3",
"5. c #D9E5F5",
"6. c #DAE5F5",
"7. c #D8E8F7",
"8. c #DDE8F7",
"9. c #E3E0E4",
"0. c #E5E2E6",
"q. c #E3E1E5",
"w. c #E8E1E1",
"e. c #E7E5E9",
"r. c #E5E4E9",
"t. c #E9E7EA",
"y. c #E9E6EA",
"u. c #EBE8EA",
"i. c #EDEBED",
"p. c #EEEBED",
"a. c #EFECED",
"s. c #EBE9ED",
"d. c #F2EEEF",
"f. c #E2E9F6",
"g. c #EFEDF0",
"h. c #F1EFF2",
"j. c #E9F0F9",
"k. c #EDF1FA",
"l. c #EDF3FA",
"z. c #F4F1F1",
"x. c #F5F1F2",
"c. c #F5F2F2",
"v. c #F5F3F4",
"b. c #F7F4F5",
"n. c #F5F3F6",
"m. c #F8F3F1",
"M. c #F8F2F2",
"N. c #F9F6F4",
"B. c #F8F6F7",
"V. c #F6F6F9",
"C. c #F8F7F9",
"Z. c #F5F8FC",
"A. c #F7F8FE",
"S. c #F8FAFD",
"D. c #F9FCFF",
"F. c white",
"G. c #FBF9FC",
/* pixels */
"                                                      W W S C n n m m n m B                                                     ",
"                                                    n Z V * & % & & m F v +                                                     ",
"                                                    m C v $ # # @ @ m I % $                                                     ",
"                                                    @.>.$.Q D D D Z $.f.F A                                                     ",
"                                                    %.5.3._ T T T T &.l.T Y                                                     ",
"                                                    #.3.>.` Q / / / >.A.T I                                                     ",
"                                                    #.3.:.] / ) ) / 4.D.T T                                                     ",
"                                                    ;.8.5.$._ _ _ _ f.F.~ R                                                     ",
"                                                    ` 3.&.] ) _ _ ) ;.f.A A                                                     ",
"                                                    G ] _ / T T Q R ` %.I %                                                     ",
"                                                    Z T / / W T Q R ` &.I c                                                     ",
"                                                    %.:.:.$.' _ ' ) f.D.G T                                                     ",
"                                                    ;.7.3.:.] ] ] ] j.F.H R                                                     ",
"                                                    ;.2.3.>.[ [ [ ] l.F.H /                                                     ",
"                                                    ^ ` ` ) R ) _ ) ;.1.b A                                                     ",
"                                                    C R / T T R ~ ) ` %.F *                                                     ",
"                                                    N W _ / ) ) _ ` $.;.N b                                                     ",
"                                                      N E W ( / ( ( T v %                                                       ",
"                                                    O.L M B F B I K K 9 J s.                                                    ",
"                                                  x t q l  .+.9.u.z.B.m.m.d.a.                                                  ",
"                                                  p 3 q P ..+.0.u.s.s.z.z.z.z.                                                  ",
"                                                  p : 5 k  .+.0.e.t.e.n.n.n.z.                                                  ",
"                                                  p > 5 k ..+.0.t.t.t.n.n.n.n.                                                  ",
"                                                  p > 8 k ..+.0.t.t.t.n.B.n.n.                                                  ",
"                                                  p : 8 k ..+.0.t.t.t.n.C.n.n.                                                  ",
"                                                  i : 8 l ..+.0.t.t.t.C.C.n.n.                                                  ",
"                                                  i : 8 l | O.,.r.e.e.n.V.V.V.                                                  ",
"                                                  u q ,.o.O.O.+.-.,.9.t.o.C.V.                                                  ",
"                                                  y u D.e.0.e.t.t.t.t.n. .C.n.                                                  ",
"                                                  y u n.,.O u.t.u.*.U n. .C.V.                                                  ",
"                                                  y q X.z o h.0.X.| =.n.X.V.V.                                                  ",
"                                                  y q l 3 w.s.-.g 6 C.n.X.V.n.                                                  ",
"                                                  y q r.-.t.t.9.o.9.s.g. .V.n.                                                  ",
"                                                  y q V.e.e.e.e.e.t.t.g.} V.n.                                                  ",
"                                                  y q V.e.e.e.e.t.t.t.g.} V.n.                                                  ",
"                                                  t q V.r.r.r.e.e.e.t.g.{ n.n.                                                  ",
"                                                  t q V.r.0.0.r.e.e.t.t.! n.x.                                                  ",
"                                                  t q V.9.9.9.9.0.e.e.t.! n.h.                                                  ",
"                                                  y q n.9.9.9.9.0.0.e.t.P n.h.                                                  ",
"                                                  y q n.9.<.9.9.9.r.e.t.P n.h.                                                  ",
"                                                  q q A.r.r.e.e.r.e.e.t.P x.g.                                                  ",
"                                                  q 4 q 0 e a j L P P P } h.a.                                                  ",
"                                                  y < . X = ; 1 7 w s f } h.a.                                                  ",
"                                                  y 4 - = = ; , 2 w s L X.h.s.                                                  ",
"                                                  t < q j l l P }  .O.-.t.a.s.                                                  ",
"                                                  y > 8 l  .O.-.e.u.0.9.0.a.t.                                                  ",
"                                                  u < 8 k | X.+.9.r.9.,.0.s.s.                                                  ",
"                                                  t < 8 k | o.+.,.0.9.,.0.i.u.                                                  ",
"                                                  y < 0 l | X.+.,.0.,.,.0.i.t.                                                  ",
"                                                  u < q l | o.+.,.0.,.,.9.i.t.                                                  ",
"                                                  u < q l | o.+.,.0.,.,.9.i.t.                                                  ",
"                                                  u < q l | X.+.-.0.,.-.9.i.t.                                                  ",
"                                                  u 3 e l | X.O.-.9.,.-.9.u.t.                                                  ",
"                                                  u 4 e l  .o.O.-.9.-.-.9.t.t.                                                  ",
"                                                  u 4 r P  .o.O.-.9.,.-.,.t.t.                                                  ",
"                                                  u 5 u !  .o.+.-.9.-.-.,.t.r.                                                  ",
"                                                  h 8 d !  .o.+.-.9.-.-.,.t.e.                                                  ",
"                                                  h q d !  .o.+.-.9.-.-.,.t.t.                                                  ",
"                                                  l e g { ..o.O.-.9.,.-.,.t.0.                                                  ",
"                                                  k u k { ..o.O.-.9.,.-.,.t.0.                                                  ",
"                                                  k d k } ..o.+.-.9.,.,.,.t.0.                                                  ",
"                                                  l d l } ..o.+.,.0.,.,.9.i.0.                                                  ",
"                                                    k l } ..O.+.,.0.,.,.,.t.|                                                   ",
"                                                      |  . .X.o.O.+.O.o.{                                                       "
};
