/* XPM */
static char *_777b18e3e254b00ced601194033c982HqSpdmxBTOWbh2jv[] = {
/* columns rows colors chars-per-pixel */
"64 64 188 2 ",
"   c None",
".  c black",
"X  c #010000",
"o  c #000001",
"O  c #020000",
"+  c gray1",
"@  c #040300",
"#  c #050300",
"$  c #050400",
"%  c #060400",
"&  c #070400",
"*  c #070500",
"=  c #050402",
"-  c #070603",
";  c #090700",
":  c #0A0600",
">  c #080703",
",  c #090703",
"<  c #0B0800",
"1  c #0B0801",
"2  c #090803",
"3  c #0B0902",
"4  c #0C0902",
"5  c #0E0B02",
"6  c #0C0A05",
"7  c #0D0B05",
"8  c #0E0A04",
"9  c #0E0B04",
"0  c #0F0C05",
"q  c #060709",
"w  c #01040D",
"e  c #04070D",
"r  c #07080A",
"t  c #08090B",
"y  c #09090C",
"u  c #090A0C",
"i  c #0A0A0C",
"p  c #0A0A0D",
"a  c #0A0B0D",
"s  c #0B0B0E",
"d  c #0B0C0D",
"f  c #0B0C0E",
"g  c #0C0D0E",
"h  c #0D0D0F",
"j  c #0F0F0E",
"k  c #100D04",
"l  c #100D05",
"z  c #120F09",
"x  c #191406",
"c  c #12110E",
"v  c #12110F",
"b  c #1B1609",
"n  c #1B1709",
"m  c #1C170A",
"M  c #1E190A",
"N  c #0C0E11",
"B  c #101010",
"V  c #121113",
"C  c gray7",
"Z  c #131313",
"A  c #151517",
"S  c #1E1A11",
"D  c #161618",
"F  c #161718",
"G  c #171819",
"H  c #18191B",
"J  c #191A1B",
"K  c #1B1B1B",
"L  c gray11",
"P  c #201A08",
"I  c #251E0B",
"U  c #211E15",
"Y  c #201F1D",
"T  c #272214",
"R  c #2C2615",
"E  c #20201C",
"W  c #21201E",
"Q  c #2F2918",
"!  c #352C12",
"~  c #362D12",
"^  c #3D3212",
"/  c #3B321C",
"(  c #3D351E",
")  c gray13",
"_  c #252321",
"`  c #2A2927",
"'  c #2C2C2C",
"]  c #2D2D2D",
"[  c #302C20",
"{  c #32302A",
"}  c #34312A",
"|  c #35332D",
" . c #34322F",
".. c #353637",
"X. c #3C3A32",
"o. c #3D3E3F",
"O. c #453815",
"+. c #3E3E40",
"@. c #444444",
"#. c #454546",
"$. c #826C2E",
"%. c #8F7733",
"&. c #998037",
"*. c #9C8134",
"=. c #9E8338",
"-. c #A3883A",
";. c #A58939",
":. c #A68938",
">. c #A4883A",
",. c #A4893A",
"<. c #A58A3B",
"1. c #A98B39",
"2. c #AA8D38",
"3. c #A88C3A",
"4. c #A98C3A",
"5. c #A98D3A",
"6. c #AC8E39",
"7. c #AE913A",
"8. c #B0913B",
"9. c #B0933D",
"0. c #B3943D",
"q. c #B4953D",
"w. c #B6963D",
"e. c #B9993E",
"r. c #BA9A3E",
"t. c #BB9B3E",
"y. c #BC9B3E",
"u. c #BD9C3F",
"i. c #B29540",
"p. c #B39540",
"a. c #B39640",
"s. c #BC9B40",
"d. c #BC9C41",
"f. c #BF9D40",
"g. c #BE9E42",
"h. c #C09F40",
"j. c #C19F41",
"k. c #C09F42",
"l. c #C2A140",
"z. c #C3A141",
"x. c #C0A043",
"c. c #C3A243",
"v. c #C4A241",
"b. c #C5A341",
"n. c #C4A142",
"m. c #C5A242",
"M. c #C4A342",
"N. c #C5A343",
"B. c #C6A342",
"V. c #C6A441",
"C. c #C6A442",
"Z. c #C6A443",
"A. c #C7A443",
"S. c #C7A543",
"D. c #C1A145",
"F. c #C3A245",
"G. c #C4A245",
"H. c #C8A643",
"J. c #CBA744",
"K. c #CDA944",
"L. c #CCA945",
"P. c #CEA945",
"I. c #CDAA44",
"U. c #CDAA45",
"Y. c #CEAA45",
"T. c #CEAB45",
"R. c #CFAB45",
"E. c #CFAB46",
"W. c #CFAC45",
"Q. c #CFAC46",
"!. c #D0AB45",
"~. c #D0AC44",
"^. c #D0AC45",
"/. c #D1AD45",
"(. c #D0AC46",
"). c #D1AC46",
"_. c #D1AD46",
"`. c #D2AD46",
"'. c #D2AE46",
"]. c #D3AE46",
"[. c #D2AE47",
"{. c #D3AE47",
"}. c #D4AF47",
"|. c #D2AE49",
" X c #D6B147",
".X c #D7B248",
"XX c #D8B349",
"oX c #E6BE4D",
/* pixels */
"                                                                                                                                ",
"                                                                                                                                ",
"                                                                                                                                ",
"                                                                                                                                ",
"                                                                                                                                ",
"                                                                                                                                ",
"                                                                                                                                ",
"                                                                                                                                ",
"                                                                                                                                ",
"                                                                                                                                ",
"                                                                                                                                ",
"                                                                                                                                ",
"                                                                                                                                ",
"                                                                . .                                                             ",
"                                                                Q R                                                             ",
"                                                            . . {.{.. .                                                         ",
"                                                            d 4 B.C.4 i                                                         ",
"                                                        K . . 0 B.C.4 i                                                         ",
"                                                        L . . 0 B.C.4 i                                                         ",
"                                                        L . . 0 B.C.4 i                                                         ",
"                                                        @.' . 9 B.C.4 i                                                         ",
"                                                            g 1 B.C.4 i                                                         ",
"                                                            g 1 B.C.4 i                                                         ",
"                                                        g . . 0 B.C.4 i                                                         ",
"                                                        W = . 0 B.C.4 i                                                         ",
"                                                            N = B.C.4 i                                                         ",
"                                                            U P C.C.4 i                                                         ",
"                                                        q . 9.D.{.B.4 i                                                         ",
"                                                        K = >.a.W.B.4 i                                                         ",
"                                                        K = >.a.{.B.4 d                                                         ",
"                                                        K = >.a.I.B.4 i                                                         ",
"                                                        K = -.a.I.B.4 d                                                         ",
"                                                        K = $.%.>.*.1 i                                                         ",
"                                                        L . = ; 1 ; . C                                                         ",
"                                                        [ m n n M M M T                                                         ",
"                                                    C . 3.x.d.j.{.}..XH.; q                                                     ",
"                                                    _ z 3.j.s.d.I.I.{.B.I S                                                     ",
"                                                . . q.|.{.{.{.{.I.I.I.{.oXXX. .                                                 ",
"                                                G # 3.x.I.I.G.D.I.!.I.I.{.B.l r                                                 ",
"                                                A # y. X Xx.. . x. XI.I.{.B.l i                                                 ",
"                                                F # e.{.q.>.| { >.0.I.W.{.B.l t                                                 ",
"                                                F # u.J.; w     e . d.{.{.B.l t                                                 ",
"                                                F = u.I.O./     ( ^ B.{.{.B.l t                                                 ",
"                                                F # e.}.{.j.9 9 j.{.I.I.{.B.l t                                                 ",
"                                                @.| &.1.I.B.~ ~ B.{.{.I.3.=.X.o.                                                ",
"                                                    W 9 e.{.C.C.I.I.{.B.x c                                                     ",
"                                                    +.` =.8.6.6.6.6.7.>.} ..                                                    ",
"                                                        Y = = = = = = c                                                         ",
"                                                        ' C C C C C C )                                                         ",
"                                                                                                                                ",
"                                                                                                                                ",
"                                                                                                                                ",
"                                                                                                                                ",
"                                                                                                                                ",
"                                                                                                                                ",
"                                                                                                                                ",
"                                                                                                                                ",
"                                                                                                                                ",
"                                                                                                                                ",
"                                                                                                                                ",
"                                                                                                                                ",
"                                                                                                                                ",
"                                                                                                                                ",
"                                                                                                                                "
};
