/* XPM */
static char *_4a72b4ccef44f138a50bfa39397ec5e2Jg0tyv0uzs75gR1[] = {
/* columns rows colors chars-per-pixel */
"64 64 253 2 ",
"   c None",
".  c None",
"X  c #492989",
"o  c #492989",
"O  c #482887",
"+  c #492989",
"@  c #40237B",
"#  c #492989",
"$  c #492989",
"%  c #482888",
"&  c #492989",
"*  c #492989",
"=  c #492989",
"-  c #49298A",
";  c #492989",
":  c #4A298B",
">  c #482888",
",  c #482888",
"<  c #492989",
"1  c #492989",
"2  c #492989",
"3  c #49298A",
"4  c #492989",
"5  c #482888",
"6  c #492989",
"7  c #482889",
"8  c #482889",
"9  c #482888",
"0  c #442581",
"q  c #472786",
"w  c #49298A",
"e  c #492989",
"r  c #492989",
"t  c #492989",
"y  c #492989",
"u  c #492989",
"i  c #492989",
"p  c #492989",
"a  c #492989",
"s  c #120334",
"d  c #482888",
"f  c #4A298A",
"g  c #492989",
"h  c #482888",
"j  c #492989",
"k  c #492989",
"l  c #4A298A",
"z  c #17063C",
"x  c #49298A",
"c  c #482888",
"v  c #492989",
"b  c #4A298B",
"n  c #371D6E",
"m  c #492989",
"M  c #492989",
"N  c #4A2A8A",
"B  c #492989",
"V  c #160539",
"C  c #1E0B47",
"Z  c #17063A",
"A  c #17063C",
"S  c #1D0A44",
"D  c #492989",
"F  c #492989",
"G  c #2A135A",
"H  c #150438",
"J  c #1D0A45",
"K  c #140436",
"L  c #341B69",
"P  c #43257F",
"I  c #2C155C",
"U  c #2D165E",
"Y  c #4B2A8D",
"T  c #391E70",
"R  c #492989",
"E  c #2C155C",
"W  c #271154",
"Q  c #1D0A46",
"!  c #200C49",
"~  c #492989",
"^  c #210D4C",
"/  c #3D2177",
"(  c #492989",
")  c #492989",
"_  c #492989",
"`  c #301762",
"'  c #2A1358",
"]  c #2F1761",
"[  c #19073E",
"{  c #4F2D92",
"}  c #3E2177",
"|  c #4A298A",
" . c #331A67",
".. c #371C6C",
"X. c #452784",
"o. c #4D2B8F",
"O. c #321965",
"+. c #200D4A",
"@. c #391E70",
"#. c #3B1F74",
"$. c #331965",
"%. c #2F1661",
"&. c #442581",
"*. c #512F96",
"=. c #2B145B",
"-. c #1F0A45",
";. c #3F2279",
":. c #492989",
">. c #41247C",
",. c #160539",
"<. c #3E2177",
"1. c #1C0943",
"2. c #492989",
"3. c white",
"4. c #4A298A",
"5. c #4B2B8D",
"6. c #4A2A8B",
"7. c #482888",
"8. c #472886",
"9. c #482988",
"0. c #432580",
"q. c #452683",
"w. c #40227A",
"e. c #442681",
"r. c #462684",
"t. c #42247F",
"y. c #3E2178",
"u. c #4C2B8F",
"i. c #3B1F74",
"p. c #08002D",
"a. c #462785",
"s. c #432285",
"d. c #3F1D83",
"f. c #371C6E",
"g. c #1A0741",
"h. c #17053C",
"j. c #40237C",
"k. c #391D71",
"l. c #2C155D",
"z. c #C560B1",
"x. c #462687",
"c. c #41237D",
"v. c #351B6A",
"b. c #331A68",
"n. c #301764",
"m. c #0A0030",
"M. c #50318E",
"N. c #250F50",
"B. c #200C48",
"V. c #120236",
"C. c #0D0032",
"Z. c #DED8EA",
"A. c #FBFBFD",
"S. c #FAE3F4",
"D. c #7157A3",
"F. c #6B1836",
"G. c #640D2D",
"H. c #E6E1EF",
"J. c #C05CAB",
"K. c #988FA8",
"L. c #291258",
"P. c #1D074B",
"I. c black",
"U. c #FEEDFA",
"Y. c #D1C9E2",
"T. c #B5A6D3",
"R. c #CF81BF",
"E. c #9684BC",
"W. c #C872B5",
"Q. c #C767B5",
"!. c #836DAE",
"~. c #BB8F9E",
"^. c #563891",
"/. c #716989",
"(. c #91376C",
"). c #50436B",
"_. c #2F1760",
"`. c #281A4A",
"'. c #2F104A",
"]. c #762246",
"[. c #F6F4FA",
"{. c #F8F7F8",
"}. c #EDECF0",
"|. c #EDE8ED",
" X c #E3DDED",
".X c #EEE2E7",
"XX c #E1D3E2",
"oX c #ECBFE1",
"OX c #CBC2DD",
"+X c #CFCFCE",
"@X c #D4AACA",
"#X c #D5C0C9",
"$X c #A99BC7",
"%X c #AEA1C4",
"&X c #A494C4",
"*X c #A192C2",
"=X c #B5B6B3",
"-X c #8A75B3",
";X c #7D65AC",
":X c #BF58A6",
">X c #674C9E",
",X c #604497",
"<X c #817A96",
"1X c #B04E95",
"2X c #533490",
"3X c #786F8E",
"4X c #A94A8C",
"5X c #898989",
"6X c #A24482",
"7X c #5A4170",
"8X c #88445E",
"9X c #382A57",
"0X c #33154E",
"qX c #271447",
"wX c #772C46",
"eX c #3E3E3E",
"rX c gray17",
"tX c #FFF7FE",
"yX c #F3F3F3",
"uX c #F6D5EC",
"iX c #F0D8EB",
"pX c #E0E0E1",
"aX c #E6D5DA",
"sX c gray85",
"dX c #BEB0D9",
"fX c #C4C5C3",
"gX c #BAB2C3",
"hX c #C5B3C0",
"jX c #9F9AAE",
"kX c #A096AE",
"lX c #C5A0AD",
"zX c #C57AA6",
"xX c #8270A6",
"cX c #A5A5A5",
"vX c #AE58A1",
"bX c #8E88A0",
"nX c #93759C",
"mX c #705A9B",
"MX c #6F618C",
"NX c #AC798B",
"BX c #65528A",
"VX c #785886",
"CX c #7C4C84",
"ZX c #686082",
"AX c #833882",
"SX c #4C327F",
"DX c #68577D",
"FX c #733678",
"GX c #40296D",
"HX c #8F5068",
"JX c #4D235F",
"KX c #535353",
"LX c #701F3D",
/* pixels */
"                                                                                                                                ",
"                                                                                                                                ",
"                                                                            H s                                                 ",
"                                                                        z H V ] G C 0 Z C 0 > ' O                               ",
"                      z     S J                                     [ s ,.! @.Y f.q.y.v.9.w.n.b.X y : ] s                       ",
"                      C ! 7 #.E 5 =.9 z                             z ^ n y.u.2.7.4.8.u.k.n.t.N 6.k.n.U W *                     ",
"                A -.&.< w.n.u.8.9.2.f.T %                             O.5.6.2.2.4.2.2.4.r.6.6.2.4.y.0.7.u.f >   @               ",
"              , h q.9.4.5.r.2.4.2.6.j.6.n.y ` @                   K 8 6.2.2.2.2.2.2.2.2.4.2.2.2.2.6.4.2.2.2.P W A               ",
"            O r 6.6.2.2.2.4.2.2.2.2.6.6.f.5.L n J                 1. .5.2.2.2.2.2.2.2.2.2.2.2.2.2.2.2.2.2.2.2.N ;.              ",
"          O - 7.s.d.d.d.s.2.2.2.2.2.2.2.5.4.b.u.U   @             l I 7.2.2.2.2.2.2.2.2.2.2.2.2.2.x.d.d.d.d.x.4.w (             ",
"        @ y x.x.D.&X%XE.,Xs.4.2.2.2.2.2.2.2.4.q.n.3 Z           J % . 7.2.2.2.2.2.2.2.2.2.2.2.2.s.M.!.$XT.-XM.s.2.2.9           ",
"        7 x.M.OXA.3.3.3.[.E.d.2.2.2.2.2.2.2.2.q.y.q.$.z @       Z E 4.2.2.2.2.2.2.2.2.2.2.2.2.s.>X X3.{.=XfXH.D.s.2.1           ",
"      q 2.s.Y.3.3.3.3.3.3.3.;Xx.2.2.2.2.2.2.2.2.6.e.t.+.  S       T 7.2.2.2.2.2.2.2.2.2.2.2.2.^.H.3.3.5XI.I.+X[.2X7.w %         ",
"      % 2.;XpXcXyX3.3.3.3.3.Z.^.2.2.2.2.2.2.2.2.2.4.5.l.` V   H S { 2.2.2.2.2.2.2.2.2.2.2.2.2.&X3.3.3.+XrXeX}.3.T.s.2.&         ",
"      g 2.T.eXI.KX3.3.3.3.3.3.D.7.2.2.2.2.2.2.2.2.2.2.4...A   0 l.5.2.2.2.2.2.2.2.2.2.2.2.2.5.H.3.3.3.3.A.3.3.3.Z.M.2.;         ",
"      ; 4.dX5XI.rX3.3.3.3.3.3.!.7.2.2.2.2.2.2.2.2.2.2.8.e.X.h - e.9.2.2.2.2.2.2.2.2.2.2.2.7.M.{.3.3.3.3.3.3.3.3.H.^.2.3         ",
"      b 2.*X3.=XsX3.3.3.3.3.3.D.7.2.2.2.2.2.2.2.2.2.2.w.r.7.2.6.0.8.2.8.2.2.2.2.2.2.2.2.2.2.6.Z.3.3.3.3.3.3.3.3.Z.5.2.t         ",
"      & 4.D.A.3.3.3.3.3.3.3.Y.M.2.2.2.2.2.2.2.2.2.2.0.7.q.8.8.y.2.r.r.c.4.8.2.2.2.2.2.2.2.2.2.E.3.3.3.3.3.3.3.3.*Xs.2.u         ",
"      7 e.P.%X3.3.3.3.3.3.A.>Xx.2.2.2.2.2.2.2.2.2.2.7.2.j.4.7.y.7.a.8.2.6.y.4.2.2.2.2.2.2.2.2.M.Z.3.3.3.3.3.3.Z.h.k.. %         ",
"      = 0.g.y.$X}.3.3.3. XmXP.c.v 1 w 2.2.2.2.2.2.2.2.2.7.6.6.4.w.5.0.q.2.2.2.2.2.2.2.2.2.2.7.P.GXY.A.3.3.|.OX,XN.w.R @         ",
"        t 2.i.C.SX!.MXBX2Xf.h.}     8 X 2.2.2.2.2.2.2.2.4.q.0.4.4.5.2.2.2.2.2.2.2.2.$ 7 < 2.7.N.n.y.9XxX-X`.l.x.5.6.9           ",
"        a Y 0.L.w.d.g.P.2.2.a.i       3 2.2.2.2.2.2.2.2.8.N.B.8.n.w.2.2.2.2.2.2.2.2.6   O y 2.6.6.i.g.k.d.L.f.2.. i             ",
"          p # 5.4.2.e.7.2.2.; +       4 2.2.2.2.2.2.2.2.w.h.B.w.V.N.7.2.2.2.2.2.2.2.0       : e 2.4.4.6.2.5.N - :               ",
"            _ r 2.2.4.4.$ j           & 2.2.2.2.2.2.2.2.f.V.L.4.h.g.r.2.2.2.2.2.2.2.h         , % 5 b < < 4 8 q                 ",
"              q k 6 m k ,             u 2.2.2.2.2.2.2.2.t.L.t.u.l.N.8.2.2.2.2.2.2.2.# ; k *           @ @                       ",
"                                      3 2.2.2.6.5.5.5.5.u.u.u.5.u.u.5.5.5.6.2.2.2.2.2.2.. < 4 6 k =                             ",
"                        , a           3 2.2.6.0.f.v.v.v.b.b.b.v.v.v.f.k.y.e.5.2.2.2.2.2.2.2.2.2.2.X o g % *                     ",
"                x : & o e $ v 3 p O   t 2.4.r.h.m.p.m.p.p.p.p.p.p.p.p.p.m.h._.4.4.2.2.2.2.2.2.2.2.2.2.2.2.v i =                 ",
"          * M 2 X r.t.2.2.2.2.2.2.$ 1 . 2.5.l.h.7XVXCXK.nXkXK.jXK.K.bX<XDXqXC.l.u.2.2.2.2.2.2.2.2.2.2.2.2.2.q.X D               ",
"        + B 2.4.6.w.r.2.2.2.2.2.2.2.2.2.2.8.B.qXXX3.S.tXoXU.uXU.S.S.U.S.3.@X'.h.y.4.2.2.2.2.2.2.2.2.2.2.2.2.i.w.d i             ",
"      a o 8.7.0.8.j.6.2.2.2.2.2.2.2.2.2.2.0.g.'.R.R.iXW.z.Q.z.Q.z.z.z.Q.S.oXAXh.N.7.2.2.2.2.2.2.2.2.2.2.2.2.r.t.e.9.u           ",
"    , o 9.j.7.e.8.a.2.2.2.2.2.2.2.2.2.2.2.t.g.0Xz.J.R.z.1X6X6X4X:X4X(.(..XW.z.g.h.e.2.2.2.2.2.2.2.2.2.2.2.2.q.t.a.0.# )         ",
"    h 9.9.r.j.e.a.4.2.2.2.2.2.2.2.2.2.2.2.e.g.'.J.J.J.(.8XF.F.F.].F.wXG.8X].:XJXC.i.4.2.2.2.2.2.2.2.2.2.2.2.r.4.t.e.e.- q       ",
"  x 2.j.4.8.8.4.2.2.2.2.2.2.2.2.2.2.2.2.2.2.B.B.vXW.1XG..XHXG.G.G.].|.LXF.wXzXFXm.b.5.2.2.2.2.2.2.2.2.2.2.2.2.4.t.9.y.4.M       ",
"  & 2.9.2.0.9.2.2.2.2.2.2.2.2.2.2.2.2.2.2.5.b.V.7XXX@X~.3.aX~.NX~.lX3.#X#XhXgX0XC.k.6.2.X 6 & 2 $ 2.2.2.2.2.2.2.7.q.2.2.o       ",
"  < 2.2.2.4.2.2.2.2.2.2.2.2.2.2.2.2.2.2.2.2.4.B.C.`.)././.3X<X3X/.ZX).).9X`.C.V.N.a.2.2.e       a p r 2.2.2.2.2.2.4.2.2..       ",
"  r 2.2.2.2.2.2.2.2.2.2.2.2.2.2.2.2.2.2.2.2.4.8._.g.V.m.m.p.p.m.m.C.V.V.g.B.l.i.2.2.2.2.$           , X 2.2.2.2.2.2.2.2.2.      ",
"  t 2.2.2.2.2.2.2.2.2.2.2.2.e o 2 f o d 2.2.2.4.5.8.t.y.i.i.i.i.y.j.0.q.8.4.5.5.4.2.2.2.$ +           ~ 2.2.2.2.2.2.2.2.2.      ",
"  u 2.6.2.2.2.2.4.2.2.. ; % ,         M . 2.2.2.2.4.6.5.5.5.5.5.5.5.6.6.4.4.2.2.2.2.2.2.c a           % 2.2.2.2.2.2.2.2.2.      ",
"  m 4.i.9.2.2.2.8.5.2.D               D # 2.2.2.2.2.2.2.2.2.2.2.2.2.2.2.2.2.2.2.2.2.2.2.X l           j 2.2.2.2.2.2.2.2.2.      ",
"  + 7._.4.4.2.6.v.i.b                 % . 2.2.2.2.2.2.2.2.2.2.2.2.2.2.2.2.2.2.2.2.2.2.2.# F           o 2.2.2.2.2.2.2.2.2.      ",
"    / f.4.9.2.4.4.I G                 j 2.2.2.2.2.2.2.2.2.2.2.2.2.2.2.2.2.2.2.2.2.2.2.2.2.7           . 2.2.2.2.2.2.2.2..       ",
"    [ n - k.2.b.o <.s                 2 2.2.2.2.2.2.2.2.2.2.2.2.2.2.2.2.2.2.2.2.2.2.2.2.2.;         = 4.2.2.2.2.2.2.2.2.1       ",
"        + ^ >.G q                   a 2.2.2.2.2.2.2.2.2.2.2.2.2.2.2.2.2.2.2.2.2.2.2.2.2.2.$         : r.9.2.2.2.2.2.2.2.m       ",
"          s                         ; 2.2.2.2.2.2.2.2.2.2.2.2.2.2.2.2.2.2.2.2.2.2.2.2.2.2.2.>       / l.6.2.4.2.2.2.2.c +       ",
"                                  8 2.2.2.2.2.2.2.2.2.2.2.2.2.2.2.2.2.2.2.2.2.2.2.2.2.2.2.2.u     K V P i.7.7.2.5.2.2.~         ",
"                                + o 2.2.2.2.2.2.2.2.2.2.2.2.2.2.2.2.2.2.2.2.2.2.2.2.2.2.2.2.# x       %.w.f.k.4.w.4.$ x         ",
"          F 5 & i 8 *           & 2.2.2.2.2.2.2.2.2.2.2.2.2.2.2.2.2.2.2.2.2.2.2.2.2.2.2.2.2.2.u       K *.L k.u.l.o.9           ",
"      O B 2.2.2.2.2.R 8     O 5 2.2.2.2.2.2.2.2.2.2.2.2.2.2.2.2.2.2.2.2.2.2.2.2.2.2.2.2.2.2.2.. >         Q n 4 Q q             ",
"    * t 2.2.2.2.2.2.2.# & 1 X 2.2.2.2.2.2.2.2.2.2.2.2.2.2.B 5 v 2.2.2.2.2.2.2.2.2.2.2.2.2.2.2.2.r         '     s               ",
"    > . 4.2.2.2.2.2.2.2.2.2.2.2.2.2.2.2.2.2.2.2.2.2.2.2.- 0     i 2.2.2.2.2.2.2.2.2.2.2.2.2.2.2.2.b 8 O k : : 9                 ",
"    ( 8.w.6.2.2.2.2.2.2.2.2.2.2.2.2.2.2.2.2.2.2.2.2.2.2.%         g 2.2.2.2.2.2.2.2.2.2.2.2.2.2.2.2.2.X w 2.2.. ; x             ",
"    4 0.0.a.2.2.2.2.2.2.2.2.2.2.2.2.2.2.2.2.2.2.2.2.2.o           = X 2.2.2.2.2.2.2.2.2.2.2.2.2.2.2.2.2.2.2.2.2.2.$ l           ",
"    6 7.9.e.8.7.2.2.2.2.2.2.2.2.2.2.2.2.2.2.2.2.2.2.$ O             g 2.2.2.2.2.2.2.2.2.2.2.2.2.2.2.2.2.2.2.2.2.2.2.< @         ",
"    > w 9.e.q.0.2.2.2.2.2.2.2.2.2.2.2.2.2.2.2.2.2.. 7               @ 2.2.2.2.2.2.2.2.2.2.2.2.2.2.2.2.2.2.2.2.2.2.2.# _         ",
"    + 1 9.e.0.t.2.2.2.2.2.2.2.2.2.2.2.2.2.2.2.2.d :                   j 2.2.2.2.2.2.2.2.2.2.2.2.2.2.2.2.2.2.2.4.2.6.2.6         ",
"      5 9.t.j.9.q.2.2.2.2.2.2.2.2.2.2.2.2.2.2.# p                     + 2 2.2.2.2.2.2.2.2.2.2.2.2.2.2.2.2.2.2.q.4.w.9.6         ",
"      * y 2.0.q.a.9.r.2.4.2.2.2.2.2.2.2.2.2.c :.                        O e 2.2.2.2.2.2.2.2.2.2.2.2.2.2.9.2.2.c.8.0.# )         ",
"          4 6.c.c.7.e.2.a.2.2.2.2.2.2.2.2.f =                             = o 2.2.2.2.2.4.4.2.2.2.7.9.7.0.2.c.4.w.8.r *         ",
"          * & 2.r.2.t.2.0.9.2.2.2.2.2.2.1 +                                 q y 2.2.q.a.r.q.q.t.w.q.7.q.8.2.c.9.0.| >           ",
"              9 g # 8.2.4.y.6.2.2.2.o m +                                       F 4 d 2.c.0.9.t.a.j.4.w.0.2.8.- j O             ",
"                  > 7 5 2 - 2 t 3 p                                                 0 M h f e X X c X w d f p +                 ",
"                        * ,                                                               @ O 0 l = = 9 l @                     ",
"                                                                                                                                "
};
