/* XPM */
static char *_9d71b64ab7346c98f303c117c466f75veoQkeT8dW7NcZ1P[] = {
/* columns rows colors chars-per-pixel */
"64 64 253 2 ",
"   c None",
".  c #492989",
"X  c #492989",
"o  c #492989",
"O  c #492989",
"+  c #492989",
"@  c #492989",
"#  c #41237D",
"$  c #492989",
"%  c #472887",
"&  c #492989",
"*  c #482887",
"=  c #482887",
"-  c #492989",
";  c #492989",
":  c #49298A",
">  c #492989",
",  c #492989",
"<  c #492989",
"1  c #492989",
"2  c #492989",
"3  c #492989",
"4  c #492989",
"5  c #49298A",
"6  c #492989",
"7  c #492989",
"8  c #492989",
"9  c #492989",
"0  c #492989",
"q  c None",
"w  c #492989",
"e  c #492989",
"r  c #492989",
"t  c #492989",
"y  c #492989",
"u  c #492989",
"i  c #492989",
"p  c #492989",
"a  c #482888",
"s  c #492989",
"d  c #492989",
"f  c #49298A",
"g  c #4A298A",
"h  c #49298A",
"j  c #492989",
"k  c #472786",
"l  c #472787",
"z  c #492989",
"x  c #492989",
"c  c #492989",
"v  c #4A298A",
"b  c #472787",
"n  c #281257",
"m  c #150539",
"M  c #17063C",
"N  c #230F4E",
"B  c #492989",
"V  c #492989",
"C  c #492989",
"Z  c #19073E",
"A  c #1A073F",
"S  c #4A2A8B",
"D  c #4B2A8D",
"F  c #492989",
"G  c #492989",
"H  c #4A298A",
"J  c #482887",
"K  c #2A1359",
"L  c #160539",
"P  c #1D0B45",
"I  c #311964",
"U  c #472886",
"Y  c #3C2075",
"T  c #432580",
"R  c #482888",
"E  c #311863",
"W  c #442682",
"Q  c #4E2C92",
"!  c #1B0A42",
"~  c #301862",
"^  c #351B6B",
"/  c #240F4F",
"(  c #472786",
")  c #2D155D",
"_  c #16053A",
"`  c #49298A",
"'  c #2A1459",
"]  c #251050",
"[  c #140436",
"{  c #492989",
"}  c #331A67",
"|  c #210E49",
" . c #230E4D",
".. c #261053",
"X. c #2F1760",
"o. c #4A2A8B",
"O. c #4C2C8D",
"+. c #462683",
"@. c #462683",
"#. c #2F1760",
"$. c #2D155E",
"%. c #2D155D",
"&. c #261052",
"*. c #4B2B8C",
"=. c #2B145A",
"-. c #331A67",
";. c #331A67",
":. c #40247B",
">. c #1E0B47",
",. c #150537",
"<. c #43247F",
"1. c #2B145A",
"2. c #230F4F",
"3. c #462784",
"4. c #4F2E93",
"5. c #3A1E72",
"6. c #1A083F",
"7. c #311864",
"8. c #42257F",
"9. c #2F1761",
"0. c #140436",
"q. c #2D155C",
"w. c #17063B",
"e. c #41237C",
"r. c #492989",
"t. c white",
"y. c #4A2A8B",
"u. c #472886",
"i. c #4B2A8C",
"p. c #462785",
"a. c #452682",
"s. c #432580",
"d. c #482988",
"f. c #4C2B8D",
"g. c #482788",
"h. c #482987",
"j. c #40227B",
"k. c #442581",
"l. c #42247E",
"z. c #341A68",
"x. c #401E83",
"c. c #3E2178",
"v. c #40237C",
"b. c #3A1F72",
"n. c #452587",
"m. c #432285",
"M. c #0F0037",
"N. c #472686",
"B. c #452684",
"V. c #371C6E",
"C. c #3C1F75",
"Z. c #311767",
"A. c #14043A",
"S. c #140436",
"D. c #9481A2",
"F. c #5F4397",
"G. c #42247F",
"H. c #351B6C",
"J. c #2F1661",
"K. c #2D165E",
"L. c #250F53",
"P. c #210C4D",
"I. c #241545",
"U. c #16063E",
"Y. c #FEFEFE",
"T. c #FBFBFC",
"R. c #DED9E8",
"E. c #9684BC",
"W. c #8F7B9D",
"Q. c #563992",
"!. c #2A125B",
"~. c #160343",
"^. c black",
"/. c #F9F8FA",
"(. c #F4F2FA",
"). c #EAE7F2",
"_. c #CBC2DF",
"`. c #A696C6",
"'. c #806AAD",
"]. c #BC629B",
"[. c #654A9A",
"{. c #1C0A44",
"}. c #1C0D42",
"|. c #E6E2F0",
" X c #D0C8E0",
".X c #C0B4D8",
"XX c #B9ACD2",
"oX c #9380B9",
"OX c #8A75B3",
"+X c #8670B1",
"@X c #8370A9",
"#X c #A8A9A6",
"$X c #6B519F",
"%X c #B65C93",
"&X c #4F308D",
"*X c #645484",
"=X c #391A76",
"-X c #351770",
";X c #341E60",
":X c #1D064B",
">X c #6F2948",
",X c #2F1146",
"<X c #682240",
"1X c #13013E",
"2X c #232323",
"3X c #E1DCEC",
"4X c #EAEAEA",
"5X c #F9C5E9",
"6X c #E2E1E4",
"7X c #DDDFDA",
"8X c #B1A3CF",
"9X c #AA99CC",
"0X c #E18DCC",
"qX c #CACACA",
"wX c #AD9EC9",
"eX c #E2A8C8",
"rX c #DC86C4",
"tX c #C3C3C3",
"yX c #9D8CC0",
"uX c #D5A0BB",
"iX c #B8B8B6",
"pX c #AFAFAF",
"aX c #C96CAC",
"sX c #7B64AA",
"dX c #9A88A8",
"fX c #9A84A7",
"gX c #C367A6",
"hX c #B193A2",
"jX c #6B50A1",
"kX c #80749A",
"lX c #8F6F9A",
"zX c #9B7991",
"xX c #8B8B8B",
"cX c #93438B",
"vX c #AE5389",
"bX c #6E5780",
"nX c #7E7E7E",
"mX c #7E367D",
"MX c #895971",
"NX c #52436F",
"BX c #834E67",
"VX c #361D66",
"CX c #4B1D5B",
"ZX c #3F2257",
"AX c #3A2955",
"SX c #2C2150",
"DX c #651C50",
"FX c #271A4B",
"GX c #662747",
"HX c #464645",
"JX c #561A40",
"KX c #110132",
"LX c gray11",
/* pixels */
"                                                                                                                                ",
"                                                                                                                                ",
"                                              [                                                                                 ",
"                          % n l l | 6. .K A X._ m w.                                                                            ",
"                    P v g z C.J.V.d.l.I y.z.+.:.9.,.  m                                       [ N   M P                         ",
"                  ' %.J.z.p.y.u.V.J.y.u.r.r.g.y.y.E } 0.                            N K k ^ 5.=.y q.! X.                        ",
"              N S f.y.p.c.p.r.y.i.p.r.y.r.r.r.r.r.f.j.n                           = , q y.u.h.i.c.z.R 5 ) A M                   ",
"          L A -.r.r.r.y.i.r.r.r.r.y.r.r.r.r.r.r.r.r.y.4.P                     M D #.r.v.r.y.r.y.p.y.r.r.p.<.b                   ",
"          = W y.r.r.r.r.r.r.r.r.r.r.r.r.r.r.r.r.r.r.y.p.Z                 M e.&.f.c.a.i.r.r.r.r.r.r.r.r.y.y.o.h                 ",
"        - 3 y.r.m.x.x.x.m.r.r.r.r.r.r.r.r.r.r.r.r.r.i.J.(                 / U H.s.y.r.r.r.r.r.r.r.N.x.x.x.x.n.r.j               ",
"        @ r.g.m.jX9X8XE.[.m.r.r.r.r.r.r.r.r.r.r.r.r.r.p.Q ..          m ) T V.y.r.r.r.r.r.r.r.r.m.&X'.`.wXOXQ.m.+ 1             ",
"      F r.g.d..X6X#X7Xt./.yXx.r.r.r.r.r.r.r.r.r.r.r.r.r.T !         m } I g.c.r.r.r.r.r.r.r.r.m.F.R.t.t.t.t.).'.x.>             ",
"    0 z r.x.XXt.HX^.LXt.t.t.OXn.r.r.r.r.r.r.r.r.r.r.r.r.j.]     L  .Z W H.i.r.r.r.r.r.r.r.r.r.&XR.t.t.t.t.t.t.t.F.n.`           ",
"    l r.r.$X/.t.xX2XnXt.t.t.).F.r.r.r.r.r.r.r.r.r.r.r.r.i.8._   L Z ~ l.i.r.r.r.r.r.r.r.r.r.r.oXY.t.t.t.t.t.qXiX_.n.@           ",
"    b r.r.E.Y.t.t./.t.t.t.t.t.+Xn.r.r.r.r.r.r.r.r.r.r.r.y.b.7.    2.U d.r.r.r.r.r.r.r.r.r.r.r. Xt.t.t.t.t.tX^.^.R.Q.. %         ",
"    * r.r.`.t.t.t.t.t.t.t.t.t.E.n.r.r.r.r.r.r.r.r.r.r.r.r.G.O.6 , s.h.d.r.r.r.r.r.r.r.r.r.r.r.|.t.t.t.t.t.#X^.2X(.F.+ 2         ",
"    J r.r.oXY.t.t.t.t.t.t.t.t.'.g.r.r.r.r.r.r.r.r.r.r.h.i.l.y.r.r.p.s.a.r.r.r.r.r.r.r.r.r.r.r._.t.t.t.t.t.T.pX4X|.Q.+ p         ",
"    * r.r.F.(.t.t.t.t.t.t.t.3XQ.r.r.r.r.r.r.r.r.g.d.u.G.s.i.v.G.r.a.r.v.d.r.r.r.r.r.r.r.r.r.r.+XT.t.t.t.t.t.t.t.XXn.+ 0         ",
"    ; & h.~.kXt.t.t.t.t.t.t.sXn.r.r.r.r.r.r.r.r.s.p.r.r.k.y.v.k.r.p.a.g.r.r.r.r.r.r.r.r.r.r.r.y._.t.t.t.t.t.t.(.;XZ.&           ",
"      c g.!.-X`.R.Y.t.t.).@X1Xb.y.r.r.r.r.r.r.r.r.r.r.c.i.B.k.y.i.g.d.r.r.r.r.r.r.r.r.r.3 t a J.VX.XT.t.t.T. X[.:XK.g           ",
"        4 y.y.=X}.*XE.NX;Xj.{.b.y.X o , r.r.r.r.r.r.r.d.y.i.y.u.j.y.r.r.r.r.r.r.r.r.r.x %   o L.L.g.[.*X@X$XP.P.f.r.-           ",
"        - > r.a.q -Xx.P.!.g.y.y.> u   - + r.r.r.r.r.r.r.u.z.j.z.U.b.r.r.r.r.r.r.r.r.. 8     9 a h.r.=XM.Z.m.Z.z.i.<             ",
"          = 5 : i.y.r.i.r.r.X , 0       & r.r.r.r.r.r.r.b.S.q V.A.q d.r.r.r.r.r.r.r.r 2       u : r.y.s.d.r.i.i., #             ",
"              p h s z t 7 < *         * : r.r.r.r.r.r.y.!.KXz.G.S.P.u.r.r.r.r.r.r.r.$ 2         i @ X y.r.r.e g                 ",
"                    #             2 < > r.r.r.r.r.r.r.y.z.P.N.y.K.H.d.r.r.r.r.r.r.r.. p           # = G < k 2                   ",
"                        ; * j o V e r.r.r.r.r.r.r.r.r.r.y.y.y.r.i.i.r.r.r.r.r.r.r.r.. 8                                         ",
"                  1 y , $ X r.r.r.r.r.r.r.r.r.r.r.r.r.r.r.r.r.r.r.r.r.r.r.r.r.r.r.r.. 8         O ;                             ",
"              j d w r.r.r.r.r.r.r.r.r.r.r.r.r.r.r.y.y.y.y.y.y.y.y.r.r.r.r.r.r.r.r.r.e * % 1 o V > . 4 5 S 1 #                   ",
"          0 C u.N.r.r.r.r.r.r.r.r.r.r.r.r.r.y.f.y.u.a.a.k.k.a.a.h.r.y.i.f.f.y.r.r.r.r.> z X r.r.r.r.r.a.a.w & 7 8               ",
"        1 @ s.c.s.r.r.r.r.r.r.r.r.r.r.r.r.y.s.!.~.A.M.M.M.M.M.M.1X~.~.:XL.H.a.i.r.r.r.r.r.r.r.r.r.r.r.u.l.u.y.r.. u             ",
"      J X s.u.v.h.r.r.r.r.r.r.r.r.r.r.r.y.z.U.AXD.W.W.lXfXD.dXD.D.D.W.W.bX,XU.V.f.r.r.r.r.r.r.r.r.r.r.r.p.a.a.d.k.y.H           ",
"    O @ s.k.u.j.d.r.r.r.r.r.r.r.r.r.r.r.i.{.S.ZX0X5XrXaX].%X].gX].%XvXuXeXcXM.A.C.r.r.r.r.r.r.r.r.r.r.r.h.u.a.d.l.k.a u         ",
"    y r.c.B.u.a.h.r.r.r.r.r.r.r.r.r.r.r.y.K.A.S.CXmXDXzXMX<X<X>X>XhXBXGXJX,XS.S.L.g.r.r.r.r.r.r.r.r.r.r.r.r.s.p.l.a.r.r %       ",
"    r.l.u.G.u.y.r.r.r.r.r.r.r.r.r.r.r.r.r.r.C.L.U.A.A.}.I.I.I.I.I.SXFX}.U.{.q z.a.r.r.r.r.r.r.r.r.r.r.r.r.r.r.r.a.y.j.g.o       ",
"  { r.r.d.k.r.r.r.r.r.r.r.: 4 , o 5 r.r.r.r.f.f.u.s.j.C.V.H.z.Z.Z.Z.z.V.c.B.i.f.y.r.r.r.r.r.r.r.r.r.r.r.r.r.r.r.s.h.d.r.X       ",
"  6 r.r.r.y.r.r.r.r.r.w y 8 #     y r.r.r.r.r.r.y.y.i.i.f.f.f.f.f.f.f.f.i.y.r.r.r.r.r.r.r.r.r.r.r.r.r.r.r.r.r.r.r.r.r.r.r.      ",
"0 > r.r.r.r.r.r.r.r.r.c           o r.r.r.r.r.r.r.r.r.r.r.r.r.r.r.r.r.r.r.r.r.r.r.r.r.r.r.r.r.r.r.r.r.r.r.r.r.r.r.r.r.r.r.      ",
"p . r.r.r.r.r.r.r.r..             g r.r.r.r.r.r.r.r.r.r.r.r.r.r.r.r.r.r.r.r.r.r.r.r.w & t t s 4 X r.r.r.r.r.r.r.r.r.r.r.r.      ",
"; r r.r.r.r.r.r.r.r.@             7 r.r.r.r.r.r.r.r.r.r.r.r.r.r.r.r.r.r.r.r.r.r.r.r.B O         v o r r.r.r.r.r.r.r.y.r.r.      ",
"9 r r.r.r.r.r.r.r.r.+             , r.r.r.r.r.r.r.r.r.r.r.r.r.r.r.r.r.r.r.r.r.r.r.r.5               % @ y.d.g.r.r.y.b.u.$       ",
"O 3 r.r.r.r.r.r.r.r.r.;         % B r.r.r.r.r.r.r.r.r.r.r.r.r.r.r.r.r.r.r.r.r.r.r.r.s                 v h.K.N.r.r.y.b.C.D       ",
"  6 r.r.r.r.r.r.r.r.r.j         9 $ r.r.r.r.r.r.r.r.r.r.r.r.r.r.r.r.r.r.r.r.r.r.r.r.3 ;               % 1.j.i.r.r.r.p.;.#       ",
"  u r.r.r.r.r.r.r.r.y.5         b r.r.r.r.r.r.r.r.r.r.r.r.r.r.r.r.r.r.r.r.r.r.r.r.r.X 1                 ..g Y s.b.@.3.]         ",
"  % r.r.r.r.r.r.r.r.a.*.        o r.r.r.r.r.r.r.r.r.r.r.r.r.r.r.r.r.r.r.r.r.r.r.r.r.r.7                     n J / *             ",
"    7 r.r.r.r.r.y.y.b.E         $ r.r.r.r.r.r.r.r.r.r.r.r.r.r.r.r.r.r.r.r.r.r.r.r.r.r.r.0                       N               ",
"    p e r.r.y.r.u.k.c.~ |     = r.r.r.r.r.r.r.r.r.r.r.r.r.r.r.r.r.r.r.r.r.r.r.r.r.r.r.r.d                                       ",
"      f r.a.k.r.K.y.$.  #     6 r.r.r.r.r.r.r.r.r.r.r.r.r.r.r.r.r.r.r.r.r.r.r.r.r.r.r.r.: i                                     ",
"      # f Y c.y.q Q K       1 + r.r.r.r.r.r.r.r.r.r.r.r.r.r.r.r.r.r.r.r.r.r.r.r.r.r.r.r.r.r 9           p G x f h ;             ",
"          ' ^ o >.          s r.r.r.r.r.r.r.r.r.r.r.r.r.r.r.r.r.r.r.r.r.r.r.r.r.r.r.r.r.r.r.& b %     7 X r.r.r.r.. k           ",
"          #     n         c r.r.r.r.r.r.r.r.r.r.r.r.r.r.r.r.. d o r.r.r.r.r.r.r.r.r.r.r.r.r.r.X 3 d B r.r.r.r.r.r.r.e *         ",
"            9 k h H 2 = F a r.r.r.r.r.r.r.r.r.r.r.r.r.r.r.@ ;     o w r.r.r.r.r.r.r.r.r.r.r.r.r.r.r.r.r.r.r.r.r.r.r.y.7         ",
"          ` $ r.r.r.+ X r.r.r.r.r.r.r.r.r.r.r.r.r.r.r.r.$ =       O $ r.r.r.r.r.r.r.r.r.r.r.r.r.r.r.r.r.r.r.r.r.r.g.v.3         ",
"        6 r.r.r.r.r.r.r.r.r.r.r.r.r.r.r.r.r.r.r.r.r.r.r.y           j r.r.r.r.r.r.r.r.r.r.r.r.r.r.r.r.r.r.r.r.y.u.d.C.: #       ",
"      D r.r.r.r.r.r.r.r.r.r.r.r.r.r.r.r.r.r.r.r.r.r.r.e               f r.r.r.r.r.r.r.r.r.r.r.r.r.r.r.r.r.r.r.p.p.u.p.&         ",
"    O @ r.r.r.r.r.r.r.r.r.r.r.r.r.r.r.r.r.r.r.r.r.r.r.F               - 3 r.r.r.r.r.r.r.r.r.r.r.r.r.r.r.r.r.h.j.g.B.r.x         ",
"    - . y.r.y.r.r.r.r.r.r.r.r.r.r.r.r.r.r.r.r.r.r.r.& O                 2 t r.r.r.r.r.r.r.r.r.r.r.r.r.r.r.r.p.N.v.p.X {         ",
"    - . l.u.a.r.r.r.r.r.r.r.r.r.r.r.r.r.r.r.r.r.r.w i                     ; @ r.r.r.r.r.r.r.r.r.r.r.r.r.y.d.s.u.j.k.$ 0         ",
"    O @ p.a.j.r.r.r.r.r.r.r.r.r.r.r.r.r.r.r.r.r.r.<                         9 C r.r.r.r.r.r.r.r.r.r.r.h.p.r.l.u.a.+ i           ",
"      < r.v.u.s.B.u.k.r.h.r.r.r.r.r.r.r.r.r.r.+ G                               c X r.r.r.r.r.r.r.h.u.u.B.j.a.u.> =             ",
"        6 N.u.s.p.u.p.g.k.s.a.j.h.s.r.s.d.r.. v                                   < r.r.r.r.r.r.r.p.p.l.d.a.r.& *               ",
"          H V a r.l.l.p.s.u.v.p.N.j.r.u.t h 9                                       i 6 : r.r.r.s.B.y.u.d.s k O                 ",
"              l x $ X : . + R . 4 f S i                                                 = ( 5 C 4 4 d < u #                     ",
"                  - 1 l - 8 8 2 O                                                               O O                             ",
"                                                                                                                                "
};
