/* XPM */
static char *_5341ea2313845ecd04208fd83ead4c4g6De47pyYrEmP09v[] = {
/* columns rows colors chars-per-pixel */
"64 64 50 1 ",
"  c black",
". c #00001C",
"X c #00002C",
"o c #000034",
"O c #202020",
"+ c #2C2C2C",
"@ c gray22",
"# c #700000",
"$ c #543C1C",
"% c #5C4020",
"& c #6C4824",
"* c #000058",
"= c #484848",
"- c gray33",
"; c #646464",
": c #63747D",
"> c gray44",
", c #7C7C7C",
"< c #A80000",
"1 c #E00000",
"2 c #FC0000",
"3 c #A85400",
"4 c #80502C",
"5 c #905C34",
"6 c #A0643C",
"7 c #FC7800",
"8 c #B47044",
"9 c #BC7848",
"0 c #FC5C5C",
"q c #D08050",
"w c #DC8854",
"e c #E88C58",
"r c #F0945C",
"t c #FCA85C",
"y c #FCA470",
"u c #FCFC54",
"i c #0000A4",
"p c #0000A8",
"a c #0000B0",
"s c gray55",
"d c #989898",
"f c gray66",
"g c #B4B4B4",
"h c #FCB080",
"j c #FCB890",
"k c #C0C0C0",
"l c #D0D0D0",
"z c gainsboro",
"x c #ECECEC",
"c c gray99",
/* pixels */
"::::::::::::::::::::::::::::::::::::::::::::::::::::::::::::::::",
"::::::::::::::::::::::::::::::::::::::::::::::::::::::::::::::::",
"::::::::::::::::::::::::::::::::::::::::::::::::::::::::::::::::",
"::::::::::::::::::::::::::::::::::::::::::::::::::::::::::::::::",
"::::::::::::::::::::::::::::::::::::::::::::::::::::::::::::::::",
"::::::::::::::::::::::::::::::::::::::::::::::::::::::::::::::::",
"::::::::::::::::::::::::::::::::::::::::::::::::::::::::::::::::",
"::::::::::::::::::::::::::::::::::::::::::::::::::::::::::::::::",
"::::::::::::::::::::::::::::::::::::::::::::::::::::::::::::::::",
"::::::::::::::::::::::::::::::::::::::::::::::::::::::::::::::::",
"::::::::::::::::::::::::::::::::::::::::::::::::::::::::::::::::",
"::::::::::::::::::::::::::::::::::::::::::::::::::::::::::::::::",
"::::::::::::::::::::::::::::::::::::::::::::::::::::::::::::::::",
":::::::::::::::::::::::::::p202111<<-:::::::::::::::::::::::::::",
"::::::::::::::::::::::::::i1--fccf-@<#::::::::::::::::::::::::::",
"::::::::::::::::::::::::::@ p       O@::::::::::::::::::::::::::",
"::::::::::::::::::::::::::@p>kf,--@@ @::::::::::::::::::::::::::",
":::::::::::::::::::::::::::@----==@@@:::::::::::::::::::::::::::",
":::::::::::::::::::::::::::%&8a89a8&%:::::::::::::::::::::::::::",
":::::::::::::::::::::::::::59yj6qjy95:::::::::::::::::::::::::::",
"::::::::::::::::::::::::::::5qyyyyq5::::::::::::::::::::::::::::",
"::::::::::::::::::::::::::::4rywwyr4::::::::::::::::::::::::::::",
"::::::::::::::::::::::::::: 4eyyyye4 :::::::::::::::::::::::::::",
":::::::::::::::::::::::::::O@59996%$ :::::::::::::::::::::::::::",
":::::::::::::::::::::::::,=Ox@5e66$ , ;:::::::::::::::::::::::::",
"::::::::::::::::::::::::lc,O@gO    f ddd;:::::::::::::::::::::::",
":::::::::::::::::::::::gccgOOO kk   xzzlg;::::::::::::::::::::::",
"::::::::::::::::::::::sczzc,O gckccccxzllg;:::::::::::::::::::::",
"::::::::::::::::::::::gczgcc;OOcsckkkklsdl,:::::::::::::::::::::",
"::::::::::::::::::::::lcdglll;O=>lxxxxg,dg,:::::::::::::::::::::",
"::::::::::::::::::::::lxddllllOO=lffffg;dg,:::::::::::::::::::::",
"::::::::::::::::::::::lxd-dlll,OO=fccdg;dld:::::::::::::::::::::",
"::::::::::::::::::::::lxd;sfggf,OO>kkgd;dld:::::::::::::::::::::",
"::::::::::::::::::::::lf>;@sggs,-OOfd,-;-g,:::::::::::::::::::::",
"::::::::::::::::::::::lxs-@-,ds,-OOO>-@;sxd:::::::::::::::::::::",
"::::::::::::::::::::::lf->  OOOuttOOO  ;-s,:::::::::::::::::::::",
"::::::::::::::::::::::lxd>  OOO73&OOO  ;dg,:::::::::::::::::::::",
"::::::::::::::::::::::lxd;=;sd,,=,,,,;=;dg,:::::::::::::::::::::",
"::::::::::::::::::::::lxd;;sxxlkdgffs,-;dg,:::::::::::::::::::::",
"::::::::::::::::::::::lxd;>glllkdgffs,-;dg,:::::::::::::::::::::",
"::::::::::::::::::::::lxd;>llllkdgffs,-;dg,:::::::::::::::::::::",
":::::::::::::::::::::::&&+>llllkdgffs,-;&&::::::::::::::::::::::",
":::::::::::::::::::::::qh+-,,;;;+;;;-+ Ohq::::::::::::::::::::::",
":::::::::::::::::::::::9h-kkdd,;--,dd,=+h9::::::::::::::::::::::",
":::::::::::::::::::::::96dlzkf,;->glgs-=69::::::::::::::::::::::",
"::::::::::::::::::::::::9dlzkf,;->glgs-=9:::::::::::::::::::::::",
":::::::::::::::::::::::::dlzlf,;->glgs;=::::::::::::::::::::::::",
":::::::::::::::::::::::::dlzlf,;->glgs;=::::::::::::::::::::::::",
":::::::::::::::::::::::::dlzlf,;->gxkd;=::::::::::::::::::::::::",
":::::::::::::::::::::::::dlzll;=->zszf;=::::::::::::::::::::::::",
"::::::::::::::::::::::::::gxzl,;-=sgcf;:::::::::::::::::::::::::",
":::::::::::::::::::::::::,xzcxd;@>szcxf=::::::::::::::::::::::::",
":::::::::::::::::::::::::fxcgd-=->gxfss=::::::::::::::::::::::::",
":::::::::::::::::::::::::,gzcf,;-=sgxf>@::::::::::::::::::::::::",
":::::::::::::::::::::::::,,dd,-@O>>;-=@+::::::::::::::::::::::::",
"::::::::::::::::::::::::::*o    :ooX . :::::::::::::::::::::::::",
"::::::::::::::::::::::::::ooX.. :ooX.. :::::::::::::::::::::::::",
"::::::::::::::::::::::::::ooX.. :ooX.. :::::::::::::::::::::::::",
"::::::::::::::::::::::::::ooX.. :  XX. :::::::::::::::::::::::::",
"::::::::::::::::::::::::::     :::     :::::::::::::::::::::::::",
":::::::::::::::::::::::::::oX..:::oo. ::::::::::::::::::::::::::",
"::::::::::::::::::::::::::*ooX. :oooo. :::::::::::::::::::::::::",
":::::::::::::::::::::::::*oXXX. :ooooX. ::::::::::::::::::::::::",
":::::::::::::::::::::::::ooXXXO : XX... ::::::::::::::::::::::::"
};
