/* XPM */
static char *_9ce941e6278460cfca91d48f5db3298DTt2laCtUgIV3ti2[] = {
/* columns rows colors chars-per-pixel */
"64 64 32 1 ",
"  c black",
". c #00001C",
"X c #00002C",
"o c #000034",
"O c gray22",
"+ c #4C0000",
"@ c #580000",
"# c #640000",
"$ c #7C0000",
"% c #000040",
"& c #00004C",
"* c gray33",
"= c #646464",
"- c #63747D",
"; c gray44",
": c #7C7C7C",
"> c #880000",
", c #980000",
"< c #B00000",
"1 c #C80000",
"2 c #D40000",
"3 c #BC7848",
"4 c #FC4040",
"5 c #FC9C60",
"6 c gray55",
"7 c #989898",
"8 c gray66",
"9 c #FCB8B8",
"0 c #D0D0D0",
"q c gainsboro",
"w c #ECECEC",
"e c gray99",
/* pixels */
"----------------------------------------------------------------",
"----------------------------------------------------------------",
"----------------------------------------------------------------",
"----------------------------------------------------------------",
"----------------------------------------------------------------",
"----------------------------------------------------------------",
"----------------------------------------------------------------",
"----------------------------------------------------------------",
"----------------------------------------------------------------",
"----------------------------------------------------------------",
"----------------------------------------------------------------",
"----------------------------------------------------------------",
"----------------------------------------------------------------",
"----------------------------------------------------------------",
"----------------------------------------------------------------",
"----------------------------------------------------------------",
"----------------------------------------------------------------",
"----------------------------------------------------------------",
"----------------------------------------------------------------",
"----------------------------------------------------------------",
"----------------------------------------------------------------",
"----------------------------------------------------------------",
"----------------------------------------------------------------",
"----------------------------------------------------------------",
"----------------------------------------------------------------",
"----------------------------------------------------------------",
"----------------------------------------------------------------",
"----------------------------------------------------------------",
"----------------------------------------------------------------",
"----------------------------------------------------------------",
"----------------------------------------------------------------",
"----------------------------------------------------------------",
"----------------------------------------------------------------",
"----------------------------------------------------------------",
"----------------------------------------------------------------",
"----------------------------------------------------------------",
"----------------------------------------------------------------",
"----------------------------------------------------------------",
"----------------------------------------------------------------",
"----------------------------------------------------------------",
"----------------------------------------------------------------",
"----------------------------------------------------------------",
"----------------------------------------------------------------",
"----------------------------------------------------------------",
"----------------------------------------------------------------",
"----------------------------------------------------------------",
"----------------------------------------------------------------",
"----------------------------------------------------------------",
"----------------------------------------------------------------",
"---------------     --------------------------------------------",
"--------------       -------------------------------------------",
"-------------         ------------------------------------------",
"------------- @2222>@ ------------------------------------------",
"------------44$,>>>>>2886---------------------------------------",
"--------;4eeee977eqeeeeewq466-----------------------------------",
"----35q778eeeeeee7qeeeeeee6&&o  - o   --------------------------",
"---3335ooo*qqq0088=000:w46 &o.oXoo     -------------------------",
"--oooo  oo.O78888;*:77==66%%..oo       -------------------------",
"-oo   oo  o O88;***=:::==6  . o.      --------------------------",
"-o      o   O;;*++>>>>***6           ---------------------------",
"-           ;++#$><1111>>#*         2$--------------------------",
"---         ---++####>>1<>#---    ------------------------------",
"------     -----------##>>>>##----------------------------------",
"----------------------------------------------------------------"
};
