/* XPM */
static char *ffe73e6de4354dd5b406780ab0c759berROVU7jTj9jjuoB8[] = {
/* columns rows colors chars-per-pixel */
"64 64 242 2 ",
"   c None",
".  c #020A1F",
"X  c #000B29",
"o  c #001631",
"O  c #001E3B",
"+  c #0B3A26",
"@  c #004C1F",
"#  c #005A29",
"$  c #005630",
"%  c #185F3D",
"&  c #006633",
"*  c #037039",
"=  c #017E3A",
"-  c #002341",
";  c #092F42",
":  c #012E4B",
">  c #162949",
",  c #032E5B",
"<  c #192B51",
"1  c #1B2D5B",
"2  c #043C6F",
"3  c #1C3063",
"4  c #1C306B",
"5  c #1E3173",
"6  c #15357E",
"7  c #005A42",
"8  c #1E4E5C",
"9  c #364646",
"0  c #026549",
"q  c #007142",
"w  c #087242",
"e  c #007B42",
"r  c #087B42",
"t  c #037949",
"y  c #167344",
"u  c #026E56",
"i  c #13705B",
"p  c #1B456F",
"a  c #025462",
"s  c #334364",
"d  c #3A4A6E",
"f  c #304A7D",
"g  c #006666",
"h  c #1C656E",
"j  c #486553",
"k  c #42626F",
"l  c gray40",
"z  c #7A7361",
"x  c #797A74",
"c  c #76777C",
"v  c #008442",
"b  c #088742",
"n  c #008D42",
"m  c #03844B",
"M  c #018C4B",
"N  c #108848",
"B  c #00944A",
"V  c #038054",
"C  c #188E5C",
"Z  c #029952",
"A  c #109351",
"S  c #11925C",
"D  c #258D4E",
"F  c #258C5D",
"G  c #3C845E",
"H  c #349E5C",
"J  c #00A04A",
"K  c #07BA45",
"L  c #00A552",
"P  c #00AD52",
"I  c #01A85A",
"U  c #038169",
"Y  c #009966",
"T  c #02926E",
"R  c #15936E",
"E  c #06967F",
"W  c #259871",
"Q  c #03A866",
"!  c #3EAB71",
"~  c #3DA37C",
"^  c #4CAC52",
"/  c #60BA56",
"(  c #42866F",
")  c #46976E",
"_  c #608671",
"`  c #7A847C",
"'  c #5FA370",
"]  c #57A17E",
"[  c #BFAD2D",
"{  c #AC9E46",
"}  c #BEB54C",
"|  c #BEBD51",
" . c #B7B35D",
".. c #B6B96A",
"X. c #81C16A",
"o. c #9ACC75",
"O. c #CACB4F",
"+. c #C5C751",
"@. c #C5C752",
"#. c #C5C853",
"$. c #C6CA54",
"%. c #C7CA54",
"&. c #C6CA55",
"*. c #C9CA72",
"=. c #1F398D",
"-. c #223280",
";. c #233A80",
":. c #0A4388",
">. c #104B8D",
",. c #004A90",
"<. c #074A90",
"1. c #194196",
"2. c #174D93",
"3. c #045290",
"4. c #005C94",
"5. c #03529F",
"6. c #095A9B",
"7. c #1C5D95",
"8. c #214293",
"9. c #2C5E91",
"0. c #086A91",
"q. c #0A639F",
"w. c #007B95",
"e. c #18709E",
"r. c #2C6E90",
"t. c #005CA5",
"y. c #0061AD",
"u. c #056BAD",
"i. c #0873A7",
"p. c #0F7AA6",
"a. c #0072AB",
"s. c #046BB6",
"d. c #087BB2",
"f. c #0073BD",
"g. c #0973BD",
"h. c #007BBD",
"j. c #1078BF",
"k. c #217DAE",
"l. c #43658A",
"z. c #566F8E",
"x. c #467591",
"c. c #697794",
"v. c #007BC5",
"b. c #097BC4",
"n. c #009999",
"m. c #119C95",
"M. c #209B89",
"N. c #0B94A6",
"B. c #1F9AA1",
"V. c #0C96B0",
"C. c #1F98B5",
"Z. c #3E9CA6",
"A. c #429E93",
"S. c #6F8F9A",
"D. c #53A080",
"F. c #67A282",
"G. c #7BA496",
"H. c #4587B9",
"J. c #718EAC",
"K. c #4BA1BA",
"L. c #71A0B4",
"P. c #72BFB9",
"I. c #6EC495",
"U. c #7CCC97",
"Y. c #6ED699",
"T. c #0683C5",
"R. c #1C90C3",
"E. c #0690D1",
"W. c #059FD3",
"Q. c #1F98D1",
"!. c #3399CC",
"~. c #07A1DF",
"^. c #1FA1DF",
"/. c #0AB1E8",
"(. c #3DA6E0",
"). c #20B7EC",
"_. c #49A1D3",
"`. c #7DCBDF",
"'. c #46C0F1",
"]. c #858C84",
"[. c #8C8F86",
"{. c #989189",
"}. c #A99B90",
"|. c #88A994",
" X c #87B19B",
".X c #B7B580",
"XX c #B8B884",
"oX c #A9A29C",
"OX c #B0AF9D",
"+X c #879EB0",
"@X c #A8A6A7",
"#X c #AEADA8",
"$X c #BEACA8",
"%X c #ADB4A4",
"&X c #A6BCA7",
"*X c #B9B6AD",
"=X c #BCBDAD",
"-X c #BEB5B6",
";X c #BABDB4",
":X c #C0B590",
">X c #C6BDB6",
",X c #C3BDBD",
"<X c #ACC583",
"1X c #A8C58A",
"2X c #87CCAD",
"3X c #B0C5B2",
"4X c #A3D7B0",
"5X c #BDD5B3",
"6X c #CBCA8A",
"7X c #C6C0A2",
"8X c #CDC6B0",
"9X c #C8C5B4",
"0X c #C4C5BD",
"qX c #98ACC5",
"wX c #AEB3C6",
"eX c #B6BDCD",
"rX c #B6D9C3",
"tX c #B8C5D6",
"yX c #BECEDB",
"uX c #B3F0C4",
"iX c #B2E2F8",
"pX c #C2C6C5",
"aX c #CEC5C0",
"sX c #C1CDC1",
"dX c gray80",
"fX c #D2CEC3",
"gX c #CAD6CC",
"hX c #DFD6CD",
"jX c #D5DBCD",
"kX c #E2DED2",
"lX c #CAE7CB",
"zX c #E8EBD0",
"xX c #EAE3DA",
"cX c #EBE4DE",
"vX c #CEDBE1",
"bX c #DBE1E1",
"nX c #D9EAEF",
"mX c #CAE3F7",
"MX c #DAECF8",
"NX c #EEE9ED",
"BX c #EEF8EF",
"VX c #F2FDFF",
/* pixels */
"                                        cXjX    cXcXkXhXfX*X}.x z z }.{.{.oX$X>X$XoX$X#X                                        ",
"                                    *X-XoXfX  hXfXfX>X*X>X*X>X>XaX>X{.` {.{.oXoX$XoX$XcXNXhX                                    ",
"                                      +X@X$X$X$X>X$X$X}.}.{.{.].{.oX-XaXaXfXhXhXhXaXaXhXx.MX                                    ",
"                                    c.>.5.5.5.5.5.>.:.:.6 6 2 2 6 6 =.<.y.s.T.(.~.^.Q.!.s.H.                                    ",
"                                    d %X..s 3XtX`.l.; > 1 4 2 6 :.:.<.5.y.s.h.E.^.(.^._.R.g.                                    ",
"                                  z.=X{.{ gX8 } 6X,.z ; 8 l i.T.f.y.y.y.y.b.b.T.E.W.Q.(.Q.f.L.                                  ",
"                                  qXG.qXwX2 >.>.:.<.:.,.p 4.T.^.^.W.v.s.s.g.h.^.T.W.E.(._.R.j.                                  ",
"                                z.:.J.tX2 S.;X5.MX2 yX+X9 k y.s.s.t.t.t.y.s.T.E.~./.~.).K.!.s.J.                                ",
"                                c.iXs 3 +X8 t.t.t.5.3.3.,.5.s.v.f.t.t.t.y.y.T.W.~./././.L !.b.k.                                ",
"                              S.4.s.s.p >.wXt.t.y.t.t.6.q.t.t.u.t.5.t.t.y.s.E.^.~./.)./.iX`.!.h.eX                              ",
"                              S.6.y.s.s.j.b.T.f.t.5.3.:.2 >.2 , 2 :.2 2 6.s.h.E./.'././.~.VXQ.d.qX                              ",
"                              c.e.q.j.u.g.R.h.^.y.t.6., 5.o O . X O : - c kXxXxXBXK.BXnXW.L a.R.qX                              ",
"                              S.0.p.0.a.d.a.T.T.i.3.4.3.3.:.2 ,.,.2 =X} +.&.&.&.&.&.&.iXW.cXi.p.wX                              ",
"                              G.h U w.w.w.N.V.V.4.4.0.0.e.0.a 2 ;X .#.[ +.&.&.&.&.&.L `.W.`.h B.eX                              ",
"                               Xh U U E E n.m.n.0.0.g h h a a oX#.&.#.+.+.&.&.&.&.&.<Xw.C.n.hXm.eX                              ",
"                              +Xh R U U T E E m.g U g g a 7 $X&.&.&.&.+.+.&.&.&.O.VXX.C.7.m.u hXdX                              ",
"                              3Xi U U T T T T T U g i 0 7 5X&.&.&.&.&.+.+.&.&.&.L o.X.m.1.m.U M.gX                              ",
"                              dXi U U U T Y Y V U U u u 7 .X&.&.&.&.#.+.+.&.&.L 1Xo.X.,.6.Z.U M.vX                              ",
"                              jXF.t V V Y Y Q R V U 0 i |.| &.#.&.#.+.[ +.&.kXzX/ o.uX7.5.m.a M.bX                              ",
"                              cX-X@ V M Z Y Q V V U 0 0 $X&.&.&.&.&.#.[ +.9XzX^ / X.M.vX2.7.r.l.                                ",
"                                F.=XjXB Z Z I m V V u y :X&.&.&.&.#.#.OX$XF L K / 4X5.kXbXkX, cX                                ",
"                                i 3XfXfXlXZ Z m V q w 8X&.&.&.&. .$X$X$Xe B J K ^ `.jXkXhX6 cXbX                                ",
"                                F t b fXhXhXfXsXj + % 7X*.XXXXXXOXOXe v v J J P M.H.hXhX1.8.kXbX                                ",
"                                F = B B B N lXfX0X0X-X;X>XOX&Xy v v v M M L H R 8.L hXhX1.hXz.bX                                ",
"                                F e ;.;.;.-.6 V v * m * # 5Xv m v v v M r $ 2 5 8.jXhXkX1.kX;.3                                 ",
"                                F 4 >X>X>X>X-.A.M m e e m = & & % y & y 3 4 jXJ.8.kXhXjXf kX< x.                                ",
"                                F 9X9XfX$X>X=.M M m v * , 5 -.5 5 3 < pXyXaXfX;.8.fXhXMXvXkX;.J.                                ",
"                                G aXs -.=.aX6 v V a , i 6 >X>XpX< ,XaXdXaXaXfX1.=.hXhXJ.hXhX;.VX                                ",
"                                8 ,X> -.=.=.=.-.4 yXpX-.-.tX>X>X-X>XwX-.aXaXfX1.1.fXhX;.jXkXcX9.                                ",
"                                d 9X-X=.=.J.0X>X>X>X-X,X5 < >X>X>X5 =.=.aXaXfX1.1.fXhX8.gXhXkXW                                 ",
"                                k 0X>Xs =.vX>X>X6 5 *X-X;XJ.>X>XpX=.=.-.0XaXfX1.;.hXhX1.1.MX;.W                                 ",
"                                ( ,X>X>X=.+X=X>X;.-.*X-X,XpX>X,X4 =.=.1 aXaXvX1.mXjXdX1.`.L.L W                                 ",
"                                G k >X>X1 yX>X>X-.-.-X=XqX;X>X>X6 =.=.vXaXaX5 1.MX1.1.iXL L J I.                                ",
"                                F ;.>X>XtXsX>XpX=.-.-X-X5 #X>X>X-.=.=.sXaXaX1.1.1.C P J L P fXgX                                ",
"                                ) p tX>X,X0X>XJ.-.vX-XaX5 ;X>X>X-.=.=.yX;.;.x.L P P P L kXkXjXlX                                ",
"                                ( h c.>X+X>X>X;.-.>X>X;.-.;X>X0X-.=.=.5 t Z L L P uXcXkXkXN I W                                 ",
"                                wX5 =X>X5 -X>X5 d >X, -.3 >XtX=.-., n Z Z J L kXkXcX) P L L I W                                 ",
"                                ,X;X,X>X-.>X>X5 9X5 ;.=.iX-.-.P.M B B B ] fXjX4XI P P P L L I W                                 ",
"                                0X,X>X4 4 >X>X6 -.P.b -.5 w M B M N sXpX4XL L L P P P P L L L W                                 ",
"                                ;X0Xl.5 c.>X>X-.B n M ~ M n n y aXsXM n B L L L L P P P L I I W                                 ",
"                                z.5 3 S yX>X,X-.B M M M n U.0XrXM B B B Z J L L L P P P L I I W                                 ",
"                                _ M B U 0XaX6 4 B B M rXaXy M B B B B B B L L L L P P P I L I W                                 ",
"                                &Xm M a yX6 p Z B G 0X% v M M M M B B B Z J L L P P P I I I I W                                 ",
"                                ] v M 2 -.C B A >XrXN M M M M M B B B B Z J L L L P P P L L I W                                 ",
"                                ] 3XM 5 M B 4X0XM B B M M M M M M B B B B L L L P P I P L L I W                                 ",
"                                F.F M M B 0XsXB B M B M M M B M M B B B Z J L L L P P P L L I W                                 ",
"                                F.m ;Xn 0X) B B B B B B M M M B B B B B Z J L L L P P P L L I W                                 ",
"                                F.m r sXr M B B B B B M M M M B B B B B Z L L L L P P P L L I W                                 ",
"                                F.v v ) B B B B B B B B B B B B B B B B Z L L L L P P P L L I W                                 ",
"                                F.v M M M B B B B B B B B B M B B B B B Z L L L L P P L L L L kX                                ",
"                                ] v M M M B B B B B B B B B B B B B B B J J L L L P P L L L uX&X                                ",
"                                ] v M M B B B B B B B B B B B B B B B B B J L L L P L L L L uXF.                                ",
"                                ) m n M M B B B B B B B B B B B B B B B Z L J L L P L L L L lXsX                                ",
"                                _ e n n M B B B B B B B B B B B B B B B Z J J L L L L L L L uXkX                                ",
"                                ( t v n M B B B B B B B B B B B B B B B Z J J L L L L L L L lXjX                                ",
"                                G = v n M B B B B B B B B B B B B B B B Z J Z L I J L L L L Y.D.                                ",
"                                ( e v n M M B B B B B B B B H ) M ) Z N 4XrXQ N uXlXL D ' L L W                                 ",
"                                _ e v n M B B B B B B B B M 4XrXC I.M 4X4XF 2X5XlXH P J L L L !                                 ",
"                                  * e v n M B B B B B B B B B A B M Z B Z J J L L L L L L J J                                   ",
"                                    {.* v v M B B B M M B B B B B B B B Z J J L L L L L B sX                                    ",
"                                        oXOXy v v M M M M M M M M B B B B Z J J Z I.sXsXbX                                      ",
"                                          ].` {.#X*X;X0X3X&X&X X&X&X5XsXfXsXdX;X;X,X0XpX                                        ",
"                                            ,X].].x l l l l c c ` ].` [.{.oX;X,X0X;X                                            ",
"                                                    l x ` ` ].].oXoXoX@X#X#X                                                    "
};
