/* XPM */
static char *_ea1ce66f8cc4de68e0e9def6a1e50baprrHlX0R98ikPCUZ[] = {
/* columns rows colors chars-per-pixel */
"64 64 236 2 ",
"   c None",
".  c #010101",
"X  c #0B0B0B",
"o  c #040806",
"O  c #110F0E",
"+  c #0A0E11",
"@  c #091216",
"#  c #151515",
"$  c #1C1C1C",
"%  c #161718",
"&  c #001705",
"*  c #211E1B",
"=  c #00271C",
"-  c #003315",
";  c #24211E",
":  c #191E21",
">  c #052E22",
",  c #1C2125",
"<  c #003928",
"1  c #023838",
"2  c #232323",
"3  c #2C2C2C",
"4  c #262829",
"5  c #302B26",
"6  c #34312E",
"7  c #2B2F32",
"8  c #343434",
"9  c #3B3B3B",
"0  c #2D352D",
"q  c #423F3D",
"w  c #6F3F2B",
"e  c #006C15",
"r  c #004129",
"t  c #0C492A",
"y  c #045227",
"u  c #03493B",
"i  c #045734",
"p  c #135E3E",
"a  c #04782A",
"s  c #047A37",
"d  c #167836",
"f  c #0B6933",
"g  c #315936",
"h  c #45423F",
"j  c #564A3A",
"k  c #6E4836",
"l  c #0E5749",
"z  c #324D47",
"x  c #026342",
"c  c #266F4D",
"v  c #3D665A",
"b  c #247649",
"n  c #444444",
"m  c #4B4B4C",
"M  c #474849",
"N  c #534D49",
"B  c #4B4F52",
"V  c #4D5052",
"C  c #535353",
"Z  c #5C5C5C",
"A  c #585859",
"S  c #5E584D",
"D  c #6A5A4C",
"F  c #6B5E54",
"G  c #40695B",
"H  c #556250",
"J  c #74655B",
"K  c #6F6154",
"L  c #5B5E60",
"P  c #5C6D64",
"I  c #646464",
"U  c #6C6C6C",
"Y  c #766D65",
"T  c #7D7369",
"R  c #737373",
"E  c #7C7B7B",
"W  c #7B7978",
"Q  c #696D71",
"!  c #E80700",
"~  c #EB1B06",
"^  c #FD1E05",
"/  c #C63F17",
"(  c #EC280D",
")  c #EC2E17",
"_  c #FF2D16",
"`  c #EE341C",
"'  c #ED3A25",
"]  c #EE3A2C",
"[  c #F53926",
"{  c #F13C34",
"}  c #9E402D",
"|  c #8C683B",
" . c #B24C2C",
".. c #EE4129",
"X. c #F7442B",
"o. c #EE4534",
"O. c #F14A32",
"+. c #FE4A33",
"@. c #FC4E39",
"#. c #F7523B",
"$. c #827569",
"%. c #887C74",
"&. c #A37672",
"*. c #F55945",
"=. c #F65B4A",
"-. c #F67544",
";. c #F36755",
":. c #FF775F",
">. c #F67869",
",. c #F66C64",
"<. c #1B8A3C",
"1. c #088531",
"2. c #238B3C",
"3. c #28943E",
"4. c #109243",
"5. c #258C47",
"6. c #37884C",
"7. c #399C58",
"8. c #289450",
"9. c #1AA553",
"0. c #27A158",
"q. c #1DAB67",
"w. c #3DA164",
"e. c #559D5D",
"r. c #4A9559",
"t. c #659155",
"y. c #54A45B",
"u. c #46A653",
"i. c #54896F",
"p. c #6D8C7A",
"a. c #51AF63",
"s. c #71A75D",
"d. c #C2B32E",
"f. c #98BB56",
"g. c #8FB052",
"h. c #928479",
"j. c #8B8A6F",
"k. c #9F9C54",
"l. c #D1BC56",
"z. c #D2BD43",
"x. c #F8826B",
"c. c #F98978",
"v. c #FD957D",
"b. c #B5CA5C",
"n. c #D7C758",
"m. c #DED05B",
"M. c #FDCE5D",
"N. c #EED057",
"B. c #F6D963",
"V. c #E2CF63",
"C. c #FEE366",
"Z. c #FFF769",
"A. c #FFF27A",
"S. c #718B85",
"D. c #7AB491",
"F. c #838383",
"G. c #8B8B8B",
"H. c #83878B",
"J. c #998C83",
"K. c #949494",
"L. c #9C9C9C",
"P. c #929B9C",
"I. c #849A89",
"U. c #A39489",
"Y. c #B59A8D",
"T. c #98A79A",
"R. c #B9A99D",
"E. c #AEAC90",
"W. c #92A9A3",
"Q. c #A5A5A5",
"!. c #ACACAC",
"~. c #BCBCBC",
"^. c #B3B3B3",
"/. c #B3B6AA",
"(. c #F99587",
"). c #FE8C8C",
"_. c #C3AB98",
"`. c #CAB29D",
"'. c #F9A69B",
"]. c #FDB39E",
"[. c #C6B3A3",
"{. c #D4BAA7",
"}. c #CCBCB4",
"|. c #FBB7A7",
" X c #FDB3B0",
".X c #B9CDB4",
"XX c #E5D387",
"oX c #D5C5B5",
"OX c #FAC3AA",
"+X c #E2C7B0",
"@X c #F4CAB3",
"#X c #EBD2B9",
"$X c #F5D6BD",
"%X c #F7D6BD",
"&X c #F2D4A6",
"*X c #FBE5B0",
"=X c #C5C6C6",
"-X c #DCD4C6",
";X c #D6D9D6",
":X c #FCCAC5",
">X c #F5DBC2",
",X c #FDDCCB",
"<X c #FADDC7",
"1X c #FCD8D7",
"2X c #DBE4DC",
"3X c #E7E4CB",
"4X c #FCE3CC",
"5X c #FFECCD",
"6X c #F6E3CA",
"7X c #F7E4D5",
"8X c #FEEBD4",
"9X c #F6E6D9",
"0X c #F5E9DC",
"qX c #FAEBDC",
"wX c #F7E7D5",
"eX c #FEF2D5",
"rX c #F6F5DC",
"tX c #FFF4DA",
"yX c #FFF9DC",
"uX c #F7F8DF",
"iX c #EAE4DC",
"pX c #E5E7E9",
"aX c #F6ECE4",
"sX c #FCEDE1",
"dX c #F8EAE6",
"fX c #FDF4E5",
"gX c #FEFCE2",
"hX c #F7F2ED",
"jX c #F9F3EB",
"kX c #FFFEEC",
"lX c #F7F8E8",
"zX c #F5F4F4",
"xX c #FEFDF4",
"cX c #FFFEFE",
"vX c #FCF3F5",
"bX c #EBF0F3",
/* pixels */
"                                                                                                                                ",
"                                                                                                                                ",
"                                                                                                                                ",
"                                                                                                                                ",
"                                                                                                                                ",
"                                                                                                                                ",
"                                                                                                                                ",
"                                                                                                                                ",
"                                                                                                                                ",
"                                                                                                                                ",
"                                                                                                                                ",
"                                                                                                                                ",
"                                        M m m m C Z C Z Z m A U Z A m A C m m B m , # .                                         ",
"                                        ; 6 6 5 9 N U W W U M q C %.U m 8 3 6 6 6 X . .                                         ",
"                          M . . . . , J.5X>X>X%X6XgX6X6XuXuXuXlXrX>XwXgXuXuXgXwX>X>X$XyXY . , # . . X                           ",
"                    $     h.T D D K $.R.gX4X4XtXOXx.OX%Xc.c.v.c.(.,X|.x.v.v.c.].,X8XeXkXR.J %.$.D D J     $                     ",
"                    . . @ #XkXgXgXgXeX8XaX6X$XxX(.! (. X! ! ~ ! ' 1X,.! ~ ~ ! ;.:X7XlXhXlXeXtXyXgXkXyXm @ .                     ",
"                7 8 _._.`.>XqXdXaXaXlXlXrX,X X*.' ) o.;.:Xc.( ` ] *.(.:X#.) ) O.;.:X X) '.cXwXwXaXqX7X{._.`.M :                 ",
"                N T kXgXtX0XaXjXhXjX:X@XOX'.).o.' ..( ' 1X'.*.O.' ( x.dXx.*.' ' ..(.c.~ c.7X|.@XzXaX7X8XtXxXh.M                 ",
"            V $ +XyX9X7X7XhXjX5XxXkX@.[ O.' #.cX].~ O.#.~ ,.vX;.) #.O...1X1X+.+.@._ =.cX).^ _ :.cXwX@X9X0X9XeX>X8 9             ",
"            C 4 +XeX7XaXaXxXoXP p.S.j } +.X.@.c.(.'.;.' ` *.>.c.x.O.+.+.h.p.k k k | j.D.j.| w D i..XfX<X6X9X8X%X9 9             ",
"            C 4 +X8X7XaXzXxXE.& = > u j @.@.+.^ >.cX>.` *.' ! '.:Xo.+.@.0 < u u u q.9.e 4.q.x < o W.cX%X$X0X8X#X9 9             ",
"            2 . {.eXqX<X>XjXiX=XXXN.C.b.g t.t.9 z l Y.'.{ ] ] [ =. X&.> 6.7.8.g.M.B.B.N.B.C.B.N.d.&XvXaXaX9X8X#Xh M             ",
"            % . {.eX0X<X%XdXjXcXXXz.M.g.1.9.0.x i - E.&X-.-.-./  .@Xp.i 7.y.8.f.C.n.n.m.n.l.l.V.A.*X1XjXaX9X8X#X3 7             ",
"            % . 3XcX9X9XqXzXsX5XH . @ t 5.2.3.5.3.s b.Z.Z.Z.Z.u.s 7.u.a.a.u.d 8.w.<.1.4.y @ o z xX<X$X9X0X9XkXeXX .             ",
"            $ . N U.yX8X8XaXaXsX/.S.P.i.1.f i i d <.s.f.g.f.b.y.5.8.5.c c b 2.5.5.f i y i.T.p.T.xX9X<X8X8XgX[.T o X             ",
"            2 . . 5 4X>X$X4XqXzXcXcXcX.Xa p 1 1 p 3.s s a 4.8.u.u.2.p 1 1 u 2.2.<.u 1 = W.cXtXtXzXaX9X>X$XeXS . . %             ",
"            2 . . o # 8 C 3XkXyXtXtXyXrX2X2X;XfXI.- r r r r < f 1.a a a a a e s.,X-X;X;X0XyXtXtXeXkXyX5 o * O . . %             ",
"            2 . X X . o % U.[._._.`.Y.oXcXxXxXcX/.z v G v v v r.y.e.e.y.y.e.6./.sXtXfXcX-XY._._.`.`.Y.O . . . . . %             ",
"            2 . 9 9 . . . . . o , 7 . S kXeXyXeXtXgXyXtXeXyXkXeX8X8XyXkX<X<XgXyXeX5X5XxXY . . @ 8 O . 2 % . . . . %             ",
"            2 . % % . . . o X % $ : . h [.$.F Y %.J.U.Y.R.J.J R.}.R.J.J hXjXh.%.T U.U.h.M % # # 4 % o X X . . . . %             ",
"            2 . . . . . . $ 2 % % % # 7 I % . @ , 8 M A H.B . Q P.S.z . bXbX7 : + B m + 4 9 $ % % $ $ . . . . . . %             ",
"            2 . . . . # 2 8 3 # 3 9 8 8 9 4 3 R Z 2 M E cX;XI E F.G.W Z C A R M 2 8 8 8 8 8 9 3 $ X . . . . . . . %             ",
"            2 . . . . X % 3 4 % 4 8 8 8 4 9 M I N 3 m E pX~.R E G.=XL.Z M M U C 9 8 3 8 8 8 8 4 $ X . # X . . . . %             ",
"            2 . . . . . . % $ $ % % 8 8 4 I E 4 8 A U U 4 M R F.^.cX~.M I Z n I E 9 3 8 9 8 % # % % $ n 6 . . . . %             ",
"            2 . . . . . . X X o # $ $ 4 8 9 M 9 M C n M Z L.zX!.G.G.F.E G.E M M M 8 4 $ 2 2 3 4 % % % 4 $ . . . . %             ",
"            2 . . . . . . . . . # $ # 2 9 4 3 C C C 3 8 R =XcX=XR $ C G.Q.K.m 9 4 8 3 % % % 8 8 % % % % X . . . . %             ",
"            2 . . . . . . . o $ % % 3 8 8 3 8 U I m C Z E K.!.G.E F.I 9 F.K.R M 4 U I 8 2 # % % % $ $ o . . . . . %             ",
"            2 . . . . . . o # $ 2 4 8 8 8 8 8 Z C 9 U F.R F.K.G.F.G.R A I I I M 4 Z A 8 4 ; 2 $ % % # . . . . . . %             ",
"            2 . . . . . . % $ % 3 n 8 8 8 3 4 3 4 % G.~.Z R Q.L.K.U E K.3 $ m 9 3 3 4 4 8 9 9 8 2 X . . . . . . . %             ",
"            2 . . . . X % 3 4 % 2 4 2 4 6 V Z 3 8 M m A Z R K.G.Q.zX!.Z C m I C n 8 9 I M 8 4 % . X # . . . . . . %             ",
"            2 . . . . # 2 8 3 % % % # 2 8 Z R 8 9 Z 3 4 I R E F.!.cX~.M R R U Z m 8 9 E m 4 $ X . # 2 o . . . o . %             ",
"            2 . . X M % . % $ $ $ % # 2 9 8 8 C 9 % M U K.U 8 U G.^.K.R Q.K.M m C 3 4 n 4 # % 2 9 4 % 2 % . 4 n . #             ",
"            2 . . X 4 % o % % X % $ 2 4 4 4 8 M A A U E R I C E G.U E F.F.R M M n M n 4 2 2 % $ 8 2 % % X . % 4 . %             ",
"            2 . . . . % 4 * # . X $ 9 3 X 4 9 9 R =XL.E 8 A E L.G.4 Z L.M 8 C 9 4 R I o 4 9 % % % % % . . . . . . %             ",
"                X . . o X % % X 2 8 8 8 4 3 9 I U I U R Z Q.cX^.F.R A 8 E G.I M 4 M n 4 8 8 8 4 % $ $ o . . . X                 ",
"                # . . . . % * 2 3 8 8 8 9 3 8 U A 8 C I R ~.cX^.F.L.Z $ G.L.U M 4 4 3 9 8 8 9 3 % % % . . . . X                 ",
"                    . . . % 3 M 4 % 8 8 8 % X 8 8 4 9 m A F.~.F.E Q.G.I I Z C 9 4 4 3 8 8 9 $ % % X . . . .                     ",
"                    4 $ 4 % o $ # # $ 4 8 9 9 3 8 9 m Z R U Z E K.G.Q.=XF.I m n 9 m M 8 4 2 # % 4 o o 4 $ 4                     ",
"                          4 . . X % X % 8 U E 4 9 A Z U L.Z . E !.U ~.cXQ.U m m m R U 8 % X # $ 9 o X                           ",
"                                        . % 4 I m % I F.C Z U K.G.2 U =XF.A 2 M U 9 4 . U                                       ",
"                                        % 2 4 R I 8 R G.n Z K.L.G.3 Z K.U Z 9 Z R M 9 X                                         ",
"                                                                                                                                ",
"                                                                                                                                ",
"                                                                                                                                ",
"                                                                                                                                ",
"                                                                                                                                ",
"                                                                                                                                ",
"                                                                                                                                ",
"                                                                                                                                ",
"                                                                                                                                ",
"                                                                                                                                ",
"                                                                                                                                ",
"                                                                                                                                "
};
