/* XPM */
static char *_a1bf0ab63384d1388d1027c9df429f8ORMQ0gpeAptz3BJk[] = {
/* columns rows colors chars-per-pixel */
"64 64 23 1 ",
"  c None",
". c #030093",
"X c #0223A6",
"o c #0229A9",
"O c #022AAA",
"+ c #022BAB",
"@ c #022CAB",
"# c #022EAC",
"$ c #0166CB",
"% c #0169CC",
"& c #0174D3",
"* c #0175D3",
"= c #0179D5",
"- c #017BD6",
"; c #017DD7",
": c #017ED8",
"> c #017FD8",
", c #00AFF2",
"< c #00AFF3",
"1 c #00BAF9",
"2 c #00C2FD",
"3 c #00C3FD",
"4 c #00C6FF",
/* pixels */
"                                                                ",
"                                                                ",
"                                                                ",
"                                                                ",
"                                                                ",
"                                                                ",
"                           ..........                           ",
"                         ..............                         ",
"                      ....................                      ",
"                    ........................                    ",
"                  ...........+;,,;+...........                  ",
"                 .......X&,1244444421,&X.......                 ",
"               .......#>4444444444444444>#.......               ",
"              ......+-44444444444444444444-+......              ",
"             ......$444444444444444444444444$......             ",
"            ......&44444444444444444444444444&......            ",
"            .....-4444444444444444444444444444-.....            ",
"           .....-444444444444444444444444444444-.....           ",
"          .....&44444444444444444444444444444444&.....          ",
"          ....%4444444444444444444444444444444444%....          ",
"         ....+444444444444444444444444444444444444+....         ",
"         ....-444444444444444444444444444444444444-....         ",
"        ....+44444444444444444444444444444444444444+....        ",
"        ....;44444444444444444444444444444444444444;....        ",
"        ...X4444444444444444444444444444444444444444X...        ",
"       ....&4444444444444444444444444444444444444444&....       ",
"       ....,4444444444444444444444444444444444444444,....       ",
"      .....144444444444444444444444444444444444444441.....      ",
"      .....244444444444444444444444444444444444444442.....      ",
"      ....@444444444444444444444444444444444444444444@....      ",
"      ....>444444444444444444444444444444444444444444>....      ",
"      ....,444444444444444444444444444444444444444444,....      ",
"      ....,444444444444444444444444444444444444444444,....      ",
"      ....>444444444444444444444444444444444444444444>....      ",
"      ....@444444444444444444444444444444444444444444@....      ",
"      .....244444444444444444444444444444444444444442.....      ",
"      .....144444444444444444444444444444444444444441.....      ",
"       ....,4444444444444444444444444444444444444444,....       ",
"       ....&4444444444444444444444444444444444444444&....       ",
"        ...X4444444444444444444444444444444444444444X...        ",
"        ....;44444444444444444444444444444444444444;....        ",
"        ....+44444444444444444444444444444444444444+....        ",
"         ....-444444444444444444444444444444444444-....         ",
"         ....+444444444444444444444444444444444444+....         ",
"          ....%4444444444444444444444444444444444%....          ",
"          .....&44444444444444444444444444444444&.....          ",
"           .....-444444444444444444444444444444-.....           ",
"            .....-4444444444444444444444444444-.....            ",
"            ......&44444444444444444444444444&......            ",
"             ......$444444444444444444444444$......             ",
"              ......+-44444444444444444444-+......              ",
"               .......#>4444444444444444>#.......               ",
"                 .......X&,1244444421,&X.......                 ",
"                  ...........+;,,;+...........                  ",
"                    ........................                    ",
"                      ....................                      ",
"                         ..............                         ",
"                           ..........                           ",
"                                                                ",
"                                                                ",
"                                                                ",
"                                                                ",
"                                                                ",
"                                                                "
};
