/* XPM */
static char *f324fceb258a40f5dba902750adffe52Beic0JY0W2wzTpa2[] = {
/* columns rows colors chars-per-pixel */
"64 64 15 1 ",
"  c None",
". c #030093",
"X c #022BAA",
"o c #022DAC",
"O c #022EAC",
"+ c #016ECF",
"@ c #0172D1",
"# c #0173D2",
"$ c #0174D2",
"% c #0174D3",
"& c #017CD7",
"* c #017FD8",
"= c #00C3FD",
"- c #00C4FE",
"; c #00C6FF",
/* pixels */
"                          ............                          ",
"                      ....................                      ",
"                    ........................                    ",
"                  ............................                  ",
"                ..............o**o..............                ",
"              ..........o*;;;;;;;;;;;;*o..........              ",
"             ........o*;;;;;;;;;;;;;;;;;;*o........             ",
"           ........o*;;;;;;;;;;;;;;;;;;;;;;*o........           ",
"          .......o*;;;;;;;;;;;;;;;;;;;;;;;;;;*o.......          ",
"         ......X&;;;;;;;;;;;;;;;;;;;;;;;;;;;;;;&X......         ",
"        ......+;;;;;;;;;;;;;;;;;;;;;;;;;;;;;;;;;;+......        ",
"       ......#;;;;;;;;;;;;;;;;;;;;;;;;;;;;;;;;;;;;#......       ",
"       .....%;;;;;;;;;;;;;;;;;;;;;;;;;;;;;;;;;;;;;;%.....       ",
"      .....#;;;;;;;;;;;;;;;;;;;;;;;;;;;;;;;;;;;;;;;;#.....      ",
"     .....+;;;;;;;;;;;;;;;;;;;;;;;;;;;;;;;;;;;;;;;;;;+.....     ",
"     ....o;;;;;;;;;;;;;;;;;;;;;;;;;;;;;;;;;;;;;;;;;;;;o....     ",
"    .....*;;;;;;;;;;;;;;;;;;;;;;;;;;;;;;;;;;;;;;;;;;;;*.....    ",
"    ....%;;;;;;;;;;;;;;;;;;;;;;;;;;;;;;;;;;;;;;;;;;;;;;%....    ",
"   .....;;;;;;;;;;;;;;;;;;;;;;;;;;;;;;;;;;;;;;;;;;;;;;;;.....   ",
"   ....o;;;;;;;;;;;;;;;;;;;;;;;;;;;;;;;;;;;;;;;;;;;;;;;;o....   ",
"  .....*;;;;;;;;;;;;;;;;;;;;;;;;;;;;;;;;;;;;;;;;;;;;;;;;*.....  ",
"  ....o;;;;;;;;;;;;;;;;;;;;;;;;;;;;;;;;;;;;;;;;;;;;;;;;;;o....  ",
" .....*;;;;;;;;;;;;;;;;;;;;;;;;;;;;;;;;;;;;;;;;;;;;;;;;;;*..... ",
" .....;;;;;;;;;;;;;;;;;;;;;;;;;;;;;;;;;;;;;;;;;;;;;;;;;;;;..... ",
" ....o;;;;;;;;;;;;;;;;;;;;;;;;;;;;;;;;;;;;;;;;;;;;;;;;;;;;o.... ",
" ....*;;;;;;;;;;;;;;;;;;;;;;;;;;;;;;;;;;;;;;;;;;;;;;;;;;;;*.... ",
".....=;;;;;;;;;;;;;;;;;;;;;;;;;;;;;;;;;;;;;;;;;;;;;;;;;;;;=.....",
".....;;;;;;;;;;;;;;;;;;;;;;;;;;;;;;;;;;;;;;;;;;;;;;;;;;;;;;.....",
".....;;;;;;;;;;;;;;;;;;;;;;;;;;;;;;;;;;;;;;;;;;;;;;;;;;;;;;.....",
"....o;;;;;;;;;;;;;;;;;;;;;;;;;;;;;;;;;;;;;;;;;;;;;;;;;;;;;;o....",
"....*;;;;;;;;;;;;;;;;;;;;;;;;;;;;;;;;;;;;;;;;;;;;;;;;;;;;;;*....",
"....;;;;;;;;;;;;;;;;;;;;;;;;;;;;;;;;;;;;;;;;;;;;;;;;;;;;;;;;....",
"....;;;;;;;;;;;;;;;;;;;;;;;;;;;;;;;;;;;;;;;;;;;;;;;;;;;;;;;;....",
"....*;;;;;;;;;;;;;;;;;;;;;;;;;;;;;;;;;;;;;;;;;;;;;;;;;;;;;;*....",
"....o;;;;;;;;;;;;;;;;;;;;;;;;;;;;;;;;;;;;;;;;;;;;;;;;;;;;;;o....",
".....;;;;;;;;;;;;;;;;;;;;;;;;;;;;;;;;;;;;;;;;;;;;;;;;;;;;;;.....",
".....;;;;;;;;;;;;;;;;;;;;;;;;;;;;;;;;;;;;;;;;;;;;;;;;;;;;;;.....",
".....=;;;;;;;;;;;;;;;;;;;;;;;;;;;;;;;;;;;;;;;;;;;;;;;;;;;;=.....",
" ....*;;;;;;;;;;;;;;;;;;;;;;;;;;;;;;;;;;;;;;;;;;;;;;;;;;;;*.... ",
" ....o;;;;;;;;;;;;;;;;;;;;;;;;;;;;;;;;;;;;;;;;;;;;;;;;;;;;o.... ",
" .....;;;;;;;;;;;;;;;;;;;;;;;;;;;;;;;;;;;;;;;;;;;;;;;;;;;;..... ",
" .....*;;;;;;;;;;;;;;;;;;;;;;;;;;;;;;;;;;;;;;;;;;;;;;;;;;*..... ",
"  ....o;;;;;;;;;;;;;;;;;;;;;;;;;;;;;;;;;;;;;;;;;;;;;;;;;;o....  ",
"  .....*;;;;;;;;;;;;;;;;;;;;;;;;;;;;;;;;;;;;;;;;;;;;;;;;*.....  ",
"   ....o;;;;;;;;;;;;;;;;;;;;;;;;;;;;;;;;;;;;;;;;;;;;;;;;o....   ",
"   .....;;;;;;;;;;;;;;;;;;;;;;;;;;;;;;;;;;;;;;;;;;;;;;;;.....   ",
"    ....%;;;;;;;;;;;;;;;;;;;;;;;;;;;;;;;;;;;;;;;;;;;;;;%....    ",
"    .....*;;;;;;;;;;;;;;;;;;;;;;;;;;;;;;;;;;;;;;;;;;;;*.....    ",
"     ....o;;;;;;;;;;;;;;;;;;;;;;;;;;;;;;;;;;;;;;;;;;;;o....     ",
"     .....+;;;;;;;;;;;;;;;;;;;;;;;;;;;;;;;;;;;;;;;;;;+.....     ",
"      .....#;;;;;;;;;;;;;;;;;;;;;;;;;;;;;;;;;;;;;;;;#.....      ",
"       .....%;;;;;;;;;;;;;;;;;;;;;;;;;;;;;;;;;;;;;;%.....       ",
"       ......#;;;;;;;;;;;;;;;;;;;;;;;;;;;;;;;;;;;;#......       ",
"        ......+;;;;;;;;;;;;;;;;;;;;;;;;;;;;;;;;;;+......        ",
"         ......X&;;;;;;;;;;;;;;;;;;;;;;;;;;;;;;&X......         ",
"          .......o*;;;;;;;;;;;;;;;;;;;;;;;;;;*o.......          ",
"           ........o*;;;;;;;;;;;;;;;;;;;;;;*o........           ",
"             ........o*;;;;;;;;;;;;;;;;;;*o........             ",
"              ..........o*;;;;;;;;;;;;*o..........              ",
"                ..............o**o..............                ",
"                  ............................                  ",
"                    ........................                    ",
"                      ....................                      ",
"                          ............                          "
};
