/* XPM */
static char *_62797c08625424a80009f165be6c404gU6uPvmC1hfbIgja[] = {
/* columns rows colors chars-per-pixel */
"64 64 252 2 ",
"   c None",
".  c #40902B",
"X  c None",
"o  c #FEFFFE",
"O  c #44A52E",
"+  c #44A52E",
"@  c #305F1B",
"#  c #2D5A18",
"$  c #305C1B",
"%  c #44A52E",
"&  c #2F5B1A",
"*  c #305D1B",
"=  c #44A62E",
"-  c #305F1B",
";  c #31611C",
":  c #43A62C",
">  c #2F5A1A",
",  c #305C1B",
"<  c #44A72E",
"1  c #44A52E",
"2  c #305C1B",
"3  c #44A72E",
"4  c #305B1A",
"5  c #43A52D",
"6  c #44A52E",
"7  c #44A62E",
"8  c #305C1B",
"9  c #44A52E",
"0  c #305C1B",
"q  c #44A62E",
"w  c #305C1B",
"e  c #43A52D",
"r  c #2F5B1A",
"t  c #44A62E",
"y  c #305C1B",
"u  c #44A52E",
"i  c #2F591A",
"p  c #31611C",
"a  c #44A72E",
"s  c #2F5A1A",
"d  c #2F5B1A",
"f  c #44A52E",
"g  c #44A52E",
"h  c #305C1B",
"j  c #305C1B",
"k  c #43A12D",
"l  c #305C1B",
"z  c #46A730",
"x  c #44A52D",
"c  c #44A52E",
"v  c #305D1B",
"b  c #305D1B",
"n  c #44A62E",
"m  c #44A62E",
"M  c #305B1B",
"N  c #43A62D",
"B  c #44A62E",
"V  c white",
"C  c #43A12D",
"Z  c #429F2C",
"A  c #43A42D",
"S  c #305B1B",
"D  c #44A52E",
"F  c white",
"G  c #305C1B",
"H  c #44A52E",
"J  c #305B1A",
"K  c #305C1B",
"L  c #305C1B",
"P  c #44A52E",
"I  c #305C1B",
"U  c #315F1C",
"Y  c #305B1B",
"T  c #44A52E",
"R  c white",
"E  c #44A72E",
"W  c #44A62E",
"Q  c #315F1C",
"!  c white",
"~  c #45A72E",
"^  c #44A52E",
"/  c white",
"(  c #377221",
")  c white",
"_  c #3BA524",
"`  c white",
"'  c #2F561A",
"]  c #45AB2F",
"[  c #305C1B",
"{  c #3A8325",
"}  c white",
"|  c #32621D",
" . c #3D8C28",
".. c #41A42B",
"X. c #3E9029",
"o. c #387822",
"O. c #397F24",
"+. c white",
"@. c #305C1B",
"#. c white",
"$. c #316B1C",
"%. c white",
"&. c #31621C",
"*. c white",
"=. c #357020",
"-. c #44A52E",
";. c #40A42A",
":. c #44A52E",
">. c white",
",. c #3C9C25",
"<. c white",
"1. c white",
"2. c #33711E",
"3. c #44A52E",
"4. c white",
"5. c #C9E7C2",
"6. c #33661E",
"7. c #2B5716",
"8. c white",
"9. c #F6FBF5",
"0. c #45A82E",
"q. c #377222",
"w. c #2E5519",
"e. c #46AD30",
"r. c #3F9129",
"t. c #3D8A28",
"y. c #40952A",
"u. c #305C1B",
"i. c #367421",
"p. c #305C1B",
"a. c #377922",
"s. c #D8EDD4",
"d. c #CFE8C9",
"f. c white",
"g. c #64B552",
"h. c #305C1B",
"j. c #3F9329",
"k. c white",
"l. c #389522",
"z. c #9ACF8E",
"x. c #8FC981",
"c. c #305C1B",
"v. c white",
"b. c white",
"n. c #3B8325",
"m. c #356D20",
"M. c #387923",
"N. c white",
"B. c #44A52E",
"V. c #305C1B",
"C. c #42A62E",
"Z. c white",
"A. c #44A62E",
"S. c #44A42E",
"D. c #43A72E",
"F. c #45A82F",
"G. c #429F2C",
"H. c #43A52E",
"J. c #42A12C",
"K. c #42A82E",
"L. c #419C2B",
"P. c #44A22D",
"I. c #45A92F",
"U. c #43A32D",
"Y. c #30591A",
"T. c #45A52F",
"R. c #43A62E",
"E. c #42A52D",
"W. c #45AA2F",
"Q. c #3F9129",
"!. c #33591B",
"~. c #41A32D",
"^. c #3F952A",
"/. c #41982B",
"(. c #409A2A",
"). c #3E8E28",
"_. c #3CA226",
"`. c #46AD30",
"'. c #2E5519",
"]. c #429A2C",
"[. c #40A52B",
"{. c #3DA528",
"}. c #3C8A27",
"|. c #3C8726",
" X c #385D1E",
".X c #3FA028",
"XX c #3A7D23",
"oX c #3F9329",
"OX c #3A8225",
"+X c #3BA124",
"@X c #387923",
"#X c #34641E",
"$X c #55AE41",
"%X c #4AA534",
"&X c #47A631",
"*X c #43AA2E",
"=X c #4B7D2C",
"-X c #47872B",
";X c #3A6E21",
":X c #3F6121",
">X c #356E1F",
",X c #35681E",
"<X c #355B1D",
"1X c #DCEFD8",
"2X c #C3C3C3",
"3X c #AED8A4",
"4X c #74BC64",
"5X c #5EB34B",
"6X c #47A02F",
"7X c #499A2F",
"8X c #41A22B",
"9X c #3F7224",
"0X c #3F6823",
"qX c #3B5F1F",
"wX c #349E1D",
"eX c #F5F8F4",
"rX c #E9F5E6",
"tX c #DADADA",
"yX c #CFE7C9",
"uX c #C4E3BE",
"iX c #A3D399",
"pX c #97CD8B",
"aX c #868686",
"sX c #8EC981",
"dX c #81C270",
"fX c #67B655",
"gX c #53682D",
"hX c #45902C",
"jX c #477429",
"kX c #39A121",
"lX c gray94",
"zX c #ECECEC",
"xX c #E4E4E4",
"cX c gray83",
"vX c #D6ECD1",
"bX c #CDCDCD",
"nX c gray72",
"mX c gray71",
"MX c #B0DAA7",
"NX c #83C474",
"BX c #626262",
"VX c #46AF30",
"CX c #4A912E",
"ZX c #4F862E",
"AX c #536F2E",
"SX c #4E782C",
"DX c #282828",
"FX c #495F26",
"GX c #3B9824",
"HX c #232323",
"JX c #36A321",
"KX c #2E5719",
/* pixels */
"                                                                                                                                ",
"                                                                                                                                ",
"                                                              r h.  > #                                                         ",
"                                              9.          - Y * & v r 7.                                                        ",
"                                        8.>.%.+.%.b.!     2.J ' 8 w.$.    / 1.>.v.R 8.                                          ",
"                                      ! +.o Z.Z.Z.) #.5.. N  .,XY.#Xl.  5.k.F o o ` f.4.                                        ",
"              #                     / *.2XBXxXZ.Z.Z.o d.z _ I.].}./._ g.s.Z.Z.Z.Z.Z.Z.} V                         Q > M .       ",
"      t e j.U =.p                   V Z.mXDXtXZ.Z.Z.Z.rXdXwXP.S.`.I._.pXZ.Z.Z.Z.2XaXtXZ.*./                       2.b ' C b d   ",
"    = + B.P.OX( a.B                 R Z.lXbXeXZ.Z.Z.Z.Z.iXkXG.G.B..X$XuXZ.Z.Z.Z.aXHX2XZ.} V                 f u x k t.>X .{ .   ",
"    % B.B.A.P.).L.% n               <.Z.Z.Z.Z.Z.Z.Z.Z.Z.3X_.~.U.L.GX5XyXZ.Z.Z.Z.cXnXzXZ.` 4.              u 1 9 A.I.A.G.G.6 3   ",
"    D B.B.B.F.W.F.B.+ n             1.Z.Z.Z.Z.Z.Z.Z.Z.o iXwXJ.L.G..X$XuXZ.Z.Z.Z.Z.Z.Z.Z.F V             :.9 B.B.B.B.D.I.D.F.e   ",
"    m O B.B.A.G.A.B.B.9 A           N.F Z.Z.Z.Z.Z.Z.Z.1X5XkXS.P.S.E.E.3XZ.Z.Z.Z.Z.Z.Z.Z.#.!           N + B.B.B.B.B.B.B.B.B.N   ",
"      t P B.A.^.A.B.B.O T             <.o Z.Z.Z.Z.Z.eXsXwXH.D.K.D.H.+XfX1XZ.Z.Z.Z.Z.Z.) R             H B.B.B.B.B.B.B.B.O z f   ",
"        ^ ;.B.S.B.B.B.B.H             9.z.yXo Z.o vXNX[.{.R.U.E.U.~.{.JX4X1XZ.Z.Z.Z.rXx.            e O B.B.B.B.B.B.7 T 3 5     ",
"            1 T.B.G./.A.+ 5           . ;.$X4XdX4X$X{.{.T.C.E.H.B.S.T..X+X5XsX3XMXpXfX,.          t + B.B.B.B.B.B.q 3 .         ",
"            : B.B.S.J.B.6 z           : ..+X_._.+X_.[.B.H.C.C.C.C.C.H.T.P._.{.&X&X.X+Xe 5       B % B.B.B.B.B.B.% W             ",
"              k B.B.A.B.B.g T .       C 7 S.8X8XC.C.H.C.C.K.K.E.K.K.C.C.A.S.[._._.[.H.% a   . t % B.B.B.B.B.B.O 3               ",
"              = B.B.B.A.F.B.O < u     a A.U.L.E.C.C.C.D.~.Q.^.*XL.^.~.D.C.H.H.A.B.B.B.O c c < 7 A.B.B.B.B.B.B.:..               ",
"              : e.B.B.J.].A.B.T.9 1 3 a B.B.H.E.C.C.C.D.~.Q.oX*X^.}.J.D.C.C.C.C.C.R.B.B.7 g D.(.S.A.B.B.B.B.6 :                 ",
"                { W.B.J.L.A.B.B.D.T.9 q B.A.D.R.C.C.C.C.C.~.~.D.~.J.E.C.C.C.C.C.C.C.C.E.F.A.F.oXJ.A.B.B.B.B.1 5                 ",
"              i $.Q.F.B.T.B.B.B.G.B.B.B.B.B.H.R.D.C.C.C.C.C.D.C.D.D.C.C.C.C.C.C.C.C.C.C.G.P.A.D.A.B.B.B.B.B.N                   ",
"              ; y >XS.B.B.B.B.H.^.H.B.B.B.D.H.6XE.C.C.C.C.C.C.C.C.C.C.C.C.C.C.C.C.C.C.D.J.S.S./.U.A.A.F.I.] A                   ",
"                7.| G.A.B.B.B.B.T.B.A.A.P./.].=X=X7XF.K.K.K.K.K.K.K.D.C.C.C.C.C.C.C.C.C.H.B.S.L.U.D.P.P.L.X.@                   ",
"                  p ,.A.B.B.A.S.oXB.S.A.S.G.).:XqXgXAXSX=X-X-X-XhX/.G.E.C.K.K.C.C.C.C.C.H.B.B.B.B.`.|.>X( v s                   ",
"                    . m B.B.B.S.J.S.).F.B.U.|.<XV.<X X X X X X XqX:X0X0X9XXX).8XD.C.C.H.B.B.B.B.B.W.Q.q.* K p                   ",
"                      . = 7 B.B.B.B.U.B.B.H.Q.:X!.!.!.!.!.!.!.!.Y.Y.!.X X <XqX=X7XK.H.B.B.B.B.B.B.B.< =.i ; #                   ",
"                          Z 1 B.B.B.B.B.B.B.P.ZXgXjXjX9X9X;X;X;X;X,X,X#X X<X!.:XhX*XA.B.B.A.B.B.D -.~ . .                       ",
"                            f B ..B.D.I.B.B.H.6X6XP.~.~.J.J.J.J.J.J.G.(.|.0X!.#X).(.J.F.0.] z = ~                               ",
"                                f E x r.}.W.R.C.C.C.C.C.C.C.C.C.C.C.C.C.[.-XFX@X.XS.].OXi.&.Z                                   ",
"                                    @ | }.`.C.C.C.C.C.C.C.C.C.C.C.C.C.C.K.7XCXL.S.W.XXX.M.4 >                                   ",
"                                    s * (.*XC.C.C.C.C.C.C.C.C.C.C.C.C.C.D.P.P.R.B.W.oXo.Q                                       ",
"                                      p `.B.R.C.C.C.C.C.C.C.C.C.C.C.C.C.R.C.C.B.B.S.VXO.;                                       ",
"                                      a B.B.H.R.C.C.C.C.B.&X%X%X%X%X&XH.[.H.B.B.B.B.`.-                                         ",
"                                      C g B.B.B.H.H.H.C.[.{..XG.G._.{.E.B.B.S.B.B.B.D E                                         ",
"                                      C + B.B.B.S.B.B.B.S.B.B.R.R.R.B.B.B.W.^.(.F.B.k :                                         ",
"                                      A q B.B.G.].D.A.P.].G.A.B.B.B.B.B.B.B.U.B.B.B.x .                                         ",
"                                      : < B.B.B.S.B.B.B.A.A.B.B.B.B.B.B.B.B.B.B.B.B.-.                                          ",
"                                      ^ P B.B.B.B.B.B.U./.L.F.B.B.B.B.B.B.B.B.B.B.O =                                           ",
"                                      f c B.B.B.B.B.W.Q.#X|.S.A.B.B.B.S.B.S.S.B.B.+ B                                           ",
"                                        = B.B.B.B.A.D.L.|.XXOX`.B.A.J.].S.(.L.A.B.H a                                           ",
"                                        3.B.B.B.B.B.A.J.L.Q.).A.B.B.B.A.A.U.U.B.B.P ^                                           ",
"                                        W B.B.F.G.oXI.B.A.F.I.S.A.A.B.B.B.A.A.B.B.c                                             ",
"                                        : < B.A.U.G.D.B.B.B.S.B.S.G.P.B.B.B.B.B.B.n                                             ",
"                                        5 e B.B.A.F.B.B.D.G./.F.J.L.J.A.B.B.B.B.B.m                                             ",
"                                          n B.B.B.B.A.J.G.G.(.F.T.F.A.B.B.B.B.B.g u                                             ",
"                                          3 6 B.B.B.A.G./.F.F.B.B.B.B.B.B.B.A.A.q W                                             ",
"                                          Z % B.B.B.B.D.F.B.B.B.B.B.B.B.B.D.G.(.k A                                             ",
"                                          5 x B.B.B.B.B.B.B.B.F.F.B.B.B.B.`.).XXo.6.                                            ",
"                                            = B.B.B.B.B.B.T.B./.L.D.B.B.B.W.Q.^.O.;                                             ",
"                                            3.6 B.B.B.B.A.S.G.|.}.I.B.B.B.B.S.A.t                                               ",
"                                            ~ 1 T.B.B.B.W.^.@XQ.G.A.B.B.B.B.T.+ u                                               ",
"                                              m F.I.F.F.`.L.XXQ.G.I.A.A.F.F.D.q E                                               ",
"                                              n.|.^.H.B.(.).Q.^.G.W.I.I.D.B.A.< Z                                               ",
"                                        . > i & KX#X@X@X,XY.V.>XXX}.).}.OX@XOXy.m.                                              ",
"                            # ; p 4 y 2 r w , V.V.Y.'.'.'.Y.Y.'.'.Y.V.Y.'.'.'.V.j y 6.#                                         ",
"            d ; s @ 4 - M v I J G h X V.V.V.V.V.V.V.V.V.V.V.V.V.V.Y.Y.V.V.V.V.Y.Y.S & * 2 M - - i 4 @ @ s ; #                   ",
"    d b v r L J & , 0 S V.V.V.V.V.V.V.V.V.V.V.V.V.V.V.V.V.V.V.V.V.V.V.V.V.V.V.V.V.V.V.V.V.X $ 8 h 0 , G & l I 2 - .             ",
"    * $ V.V.V.V.V.V.V.V.V.V.V.V.V.V.V.V.V.V.V.V.V.V.V.V.V.V.V.V.V.V.V.V.V.V.V.V.V.V.V.V.V.V.V.V.V.V.V.V.V.V.V.V.$ >             ",
"    h V.V.V.V.V.V.V.V.V.V.V.V.V.V.V.V.V.V.X X V.V.V.V.V.V.V.V.V.V.V.V.V.V.V.V.V.V.V.u.j , S X V.V.V.V.V.V.V.V.8 K #             ",
"    M , X V.V.V.V.V.V.V.$ h , p.[ $ V.X V.X X V.V.V.V.V.V.V.V.X X V.V.V.V.V.V.V.V.V.@.@ @ y 2 U L w l l w L Y y .               ",
"      4 2 U &.* * r Y 2 b - 4 @ i I V.V.V.V.V.V.V.V.V.V.V.V.V.X X V.V.V.V.V.V.V.V.V.j Q         . d > > d                       ",
"                                  s [ V.V.V.V.$ 0 & l @.K j 8 V.V.V.$ G w w & 0 8 0 c.#                                         ",
"                                                                                                                                ",
"                                                                                                                                "
};
