/* XPM */
static char *_1d059de5a384c09d8d61214d75055daFRMpHGCqwXYZCKX2[] = {
/* columns rows colors chars-per-pixel */
"64 64 250 2 ",
"   c None",
".  c #305F1B",
"X  c #44A62E",
"o  c #3E9129",
"O  c #44A52E",
"+  c #305C1B",
"@  c #2F5A1A",
"#  c #305C1B",
"$  c #305C1B",
"%  c #5A9649",
"&  c #44A62E",
"*  c #44A52E",
"=  c #44A62D",
"-  c #305C1B",
";  c #305B1B",
":  c #305C1B",
">  c #305C1B",
",  c #44A52E",
"<  c #305E1B",
"1  c #44A52E",
"2  c #43A12D",
"3  c #33691E",
"4  c #305B1A",
"5  c #305C1B",
"6  c #305C1A",
"7  c #305C1B",
"8  c #44A52E",
"9  c #42A52C",
"0  c #44A62E",
"q  c #44A72E",
"w  c #44A52E",
"e  c None",
"r  c #305E1B",
"t  c #305C1B",
"y  c #2F5A1A",
"u  c #305C1B",
"i  c #44A52E",
"p  c #43A12D",
"a  c #44A52E",
"s  c #44A52E",
"d  c #44A52E",
"f  c #305C1B",
"g  c #44A52E",
"h  c #305D1B",
"j  c #44A52E",
"k  c #356E20",
"l  c #305C1B",
"z  c #305C1B",
"x  c white",
"c  c #44A62E",
"v  c #44A52E",
"b  c #305C1B",
"n  c #305C1B",
"m  c #3F942A",
"M  c #44A52E",
"N  c #305D1B",
"B  c #44A52E",
"V  c #44A62E",
"C  c white",
"Z  c #41A32B",
"A  c #305C1B",
"S  c #44A52E",
"D  c #31621C",
"F  c white",
"G  c #4FAD3B",
"H  c #43A62D",
"J  c #305C1B",
"K  c #41992B",
"L  c #305C1B",
"P  c white",
"I  c #305C1B",
"U  c #305C1B",
"Y  c white",
"T  c #44A52E",
"R  c #44A52E",
"E  c #44A52E",
"W  c #305C1B",
"Q  c #44A52E",
"!  c white",
"~  c #44A52E",
"^  c #43A32D",
"/  c #44A82E",
"(  c #44A52E",
")  c #377421",
"_  c #33681E",
"`  c #42A12D",
"'  c #3C8A27",
"]  c white",
"[  c white",
"{  c white",
"}  c white",
"|  c white",
" . c #FEFEFE",
".. c #44A72E",
"X. c #75BE65",
"o. c #305C1B",
"O. c white",
"+. c #44A52E",
"@. c white",
"#. c white",
"$. c #40952A",
"%. c #32631D",
"&. c #397C23",
"*. c #45A92F",
"=. c #419B2B",
"-. c white",
";. c #A3D398",
":. c #3A7E24",
">. c #356F20",
",. c white",
"<. c #41992B",
"1. c #377722",
"2. c #367020",
"3. c white",
"4. c #356F20",
"5. c #346B1F",
"6. c white",
"7. c #397D24",
"8. c white",
"9. c white",
"0. c white",
"q. c #84C475",
"w. c white",
"e. c #BEDFB7",
"r. c #44A52E",
"t. c #305C1B",
"y. c white",
"u. c #AD5050",
"i. c #44A62E",
"p. c #45A72F",
"a. c #44A72E",
"s. c #9C2020",
"d. c #41A72D",
"f. c #43A32D",
"g. c #45A82F",
"h. c #429C2B",
"j. c #43A12D",
"k. c #45AB2F",
"l. c #3F9329",
"z. c #429F2C",
"x. c #40A429",
"c. c #40982B",
"v. c #40962A",
"b. c #AA4949",
"n. c #3BA024",
"m. c #3A8224",
"M. c #AE5151",
"N. c #3B8726",
"B. c #2F591A",
"V. c #B44A52",
"C. c #419B2A",
"Z. c #42A52C",
"A. c #991818",
"S. c #3EA72A",
"D. c #2F5A1A",
"F. c #50AB3C",
"G. c #3BA425",
"H. c #367220",
"J. c #F9FAF9",
"K. c #B04D51",
"L. c #9E2525",
"P. c #9B1D1D",
"I. c #77BE67",
"U. c #346C1F",
"Y. c #847243",
"T. c #3D8A27",
"R. c #688A3A",
"E. c #49A130",
"W. c #509C32",
"Q. c #8A6A43",
"!. c #A73D3D",
"~. c #9F5A4A",
"^. c #40A92C",
"/. c #A94646",
"(. c #F8EAED",
"). c #31601C",
"_. c #32651D",
"`. c #387A23",
"'. c #70813C",
"]. c gray34",
"[. c #33691E",
"{. c #AF5353",
"}. c #EFF8ED",
"|. c #AD4D4D",
" X c #93CB86",
".X c #A84343",
"XX c #E3F2E0",
"oX c #4D922A",
"OX c #FDF8F8",
"+X c #EBCDD1",
"@X c #E2BFBF",
"#X c #479829",
"$X c #5F9036",
"%X c #F6F6F6",
"&X c #6D6D6D",
"*X c #3CAC2B",
"=X c #975F48",
"-X c #C8E5C1",
";X c #64B653",
":X c #BA6565",
">X c #929463",
",X c #3F9A23",
"<X c #C37E7E",
"1X c #FFF9FF",
"2X c #E5C5C5",
"3X c #579634",
"4X c #DDBCBA",
"5X c #F0D6D9",
"6X c #AC8C73",
"7X c #CA8B8B",
"8X c #C17676",
"9X c #E1B6B9",
"0X c #EED2D5",
"qX c #D6AEAC",
"wX c #ACACAC",
"eX c gray88",
"rX c gray2",
"tX c gray82",
"yX c #E2E2E2",
"uX c #D9ECD5",
"iX c #D0E8CA",
"pX c #E0F0DC",
"aX c #83C374",
"sX c #7B7840",
"dX c #946548",
"fX c #B1454D",
"gX c #53A439",
"hX c #AAA280",
"jX c #87C578",
"kX c #E2E1D5",
"lX c #A24C45",
"zX c #64A447",
"xX c #F3E5E5",
"cX c #879158",
"vX c #BAAC93",
"bX c #CCC2B0",
"nX c #57882C",
"mX c #BC7171",
"MX c #E4B8BD",
"NX c #49A733",
"BX c #6FBA5E",
"VX c #D4BFB4",
"CX c #9A7557",
"ZX c #D7B6B1",
"AX c #668635",
"SX c #B2786C",
"DX c #F2E4E4",
"FX c #BF988C",
"GX c #8A5A3A",
"HX c #DBB3B3",
/* pixels */
"                                                                                                                                ",
"                                                              % l $                                                             ",
"                                                          - . 6 t.- 6 %                                                         ",
"                                                          @ ; J t.y 4         ! F F x                                           ",
"                                          x 0.9.6.8.w.Y     : ; B.4 .     Y ] -.y.y.| } x                                       ",
"        $ 3                             F | y.y.y.y.y.P X.= K [.H.T...H G [ y.y.y.y.J.yX{ C                                     ",
"  3 $   > 6 @                         x { y.%XJ.y.y.y.y.e.Z.a.r.p.k.r.x.q.y.y.y.y.y.wXrXeX[                       - # 2 8 %     ",
"  $ > ' + >.' 0                       ] y. .].].y.y.y.y.J.;Xr.p.r.v.r.r.iXy.y.y.y.y.tX&X%Xy.Y                   D ) k =.d w p   ",
"    <.v.m.c.O * s +.                  } y.y.&X].y.y.y.y.y.aXZ.h.i.j.r.F.XXy.y.y.y.y.y.y.y.y.C               0 = N.H.e r.r.r.s   ",
"  V p.i.g.a.r.r.r.O w p               P y.y.J.J.y.y.y.y.y. XZ.c.j.j.r.F.pXy.y.y.y.y.y.y.y.y.C             o X r.r.z.p.r.r.r.d   ",
"  = r.r.r.r.r.r.r.r.r.j 8             3.y.y.y.y.y.y.y.y.y.BXr.g.h.C.r.x.-Xy.y.y.y.y.y.y.y.@.%             X r.r.r.g.r.r.r.r.(   ",
"  9 r.r.r.r.r.r.r.r.r.r.X o           ,. .y.y.y.y.y.y.y.XXF.r.r.i.p.r.x.;Xy.y.y.y.y.y.y.y.O.            v O r.r.i.c.i.r.r.* Q   ",
"    v i O r.r.r.r.r.r.r.r.T             #.y.y.y.y.y.y.y.I.x.r.Z.d.d.i.r.n. Xy.y.y.y.y.y.P !           3 X r.r.r.i.c.i.* ~ 8     ",
"      % R , r.r.r.r.r.r.i.1 8             ;.}.y.y.y.XXI.n.S.x.#XoXoX#X^.^.G.I.-X}.}.uX XX.            G & r.f.r.r.p.d c         ",
"          % B r.r.r.r.r.r.r., o         9 n.F.I.jXBXNXG.C.R.CXVXZXqXFXQ.AXZ.G.x.F.F.r.n.Z             T r.r.c.j.r.r.H           ",
"              s r.r.r.r.r.r.r.a         ~ r.x.n.n.n.S.3X6X5X(.y.y.y.y.+X0XGX#Xd.x.x.Z.r.w           ` ..r.r.r.r.r.1             ",
"              0 ( r.r.r.r.r.r.r.X M %   , r.r.r.r.i.nX4Xy.y.OX2XqX@XHXy.y.9XSXW.d.j.z.r.j         M g r.r.r.r.r.r.=             ",
"                2 r.r.r.r.r.r.r.p.r.i = * r.r.r.r.E.lX9Xy.@X<X/./.b./.7XDXy.MX~.r.h.C.i.*     8 = r.r.r.p.i.r.r.O M             ",
"                  g r.r.r.r.r.p.l.i.r.r.r.r.r.r.*XQ.V.|.mXu.b.u.u.u.M..X8X0X<XK.sXi.a.r.& 2 = * r.r.r.r.c.j.r.r.*.G             ",
"                  V r.r.r.r.r.p.l.i.r.p.r.r.r.r.W.K.u.u.b.u.u.u.u.u.u.u.b.b.b.u.~.E.r.r.O 1 r.r.i.r.r.r.h.f.r.p.)               ",
"                  2 r.r.r.r.r.r.g.r.r.C.f.r.r.i.'.u.u.u.u.u.u.u.u.u.u.u.u.u.u.u.K.W.r.r.r.r.r.r.z.i.r.r.p.r.p.N._ .             ",
"                  ` X g.p.i.r.a.l.j.r.z.r.r.r.i.Y.u.u.u.u.u.u.u.u.u.u.u.u.u.u.u.V.$Xd.i.r.r.r.f.v.a.r.r.r.r.z.%.@ $             ",
"                  h 7.l.h.h.i.i.z.r.r.p.r.r.r.r.Y.u.u.u.u.u.u.u.M.M.u.u.u.u.u.u.V.R.Z.l.i.r.i.r.p.r.r.r.r.r.K N $               ",
"                  # r k [.`.g.r.i.r.r.r.r.r.r.r.Q.u.u.u.u.u.M.|.b.b.u.{.u.u.u.u.V.R.d.j.r.i.j.r.e p.r.r.r.d m <                 ",
"                  # A D k T.p.r.r.r.r.r.r.r.r.r.Q.u.u.u.u.M.!.L.s.s.L..XM.u.u.u.V.R.d.r.r.i.T.g.f.r.r.r.1 R                     ",
"                  3 3 - r B r.r.r.r.r.r.r.r.r.i.Y.u.u.u.M.!.P.P.s.s.P.s..Xu.u.u.V.$Xi.r.r.r.a.r.r.r.r.g 9                       ",
"                            T X O r.i.r.r.r.p.a.'.u.u.u.b.L.s.s.s.s.s.s.L.{.u.u.u.W.r.r.r.r.r.r.r.d ^ o                         ",
"                                9 q , & r.a.v.z.E.K.u.u.!.P.s.s.s.s.s.s.A.|.M.u.=XE.r.r.r.g.i.d a /                             ",
"                                    5.4.1.e j.f.*XY.V.{.:XA.A.P.s.s.s.A.s./.u.K.'.i.r.g.m.$.Z /                                 ",
"                                    @ # ^ U.f.r.r.r.~.+Xy.7X!.L.A.A.A.:X5X4XfXdX^.r.r.g.&.> <                                   ",
"                                        2.N.p.r.r.i.oXkXy.y.OXxX8X2X@Xy.y.(.=Xr.d.r.r.a.e y #                                   ",
"                                        D k.r.r.r.r.S.gXhX(.1Xy.(.y.OX1X+X>Xz.i.r.r.r.r.*                                       ",
"                                          & r.r.r.r.r.x.n.zX>XvX~.bX6XcX3XG.a.r.r.r.r.r.E                                       ",
"                                          w r.r.r.r.r.r.r.x.G.,Xj.,Xn.G.S.r.r.r.r.r.r.r.g                                       ",
"                                          q r.r.g.T.g.r.r.r.r.i.i.i.r.r.r.r.r.r.r.r.r.r.i                                       ",
"                                          T r.r.r.f.r.r.r.r.r.r.r.r.r.h.h.r.r.r.c.f.r.r.w                                       ",
"                                          9 d r.r.r.r.r.r.r.r.r.r.r.r.i.r.r.r.r.f.r.r.r.s                                       ",
"                                          0 j r.r.r.r.r.r.r.r.r.r.r.i.h.j.r.r.r.r.r.r.r.q                                       ",
"                                            , r.r.r.p.r.r.r.r.r.r.r.f.`.U.g.r.r.r.r.r.r.v                                       ",
"                                            a r.r.r.l.r.h.h.r.r.r.g.H.N.m.i.r.r.r.r.r.r.2                                       ",
"                                            Z r.r.r.j.r.r.r.r.r.r.j.m.c.c.r.r.g.r.r.r.r.                                        ",
"                                            Q r.r.r.i.r.r.r.r.i.r.r.g.r.r.r.p.e p.r.r.&                                         ",
"                                              r.r.r.r.r.r.r.j.f.r.r.p.r.r.r.i.C.i.r.r.S                                         ",
"                                              O r.r.r.r.r.i.C.h.r.i.v.a.i.r.r.p.r.r.r.V                                         ",
"                                              j r.r.r.r.r.r.i.r.r.a.l.p.z.r.r.r.r.r.O c                                         ",
"                                              S r.i.r.r.r.r.r.r.r.r.g.r.l.i.r.r.r.r.E 8                                         ",
"                                              q r.f.r.r.r.r.r.r.r.r.r.r.p.r.r.r.r.r.,                                           ",
"                                              :.m.m.g.r.r.r.r.r.i.i.r.r.r.r.r.r.r.r.q                                           ",
"                                              _ v.`.g.r.r.r.r.i.r.j.r.r.r.r.r.r.r.r.2                                           ",
"                                              p & h.i.r.r.r.r.i.H.h.p.r.r.r.r.r.r.&                                             ",
"                                              o ( p.r.r.r.r.r.f.v.l.N.g.r.r.r.r.r.a                                             ",
"                                              % S r.r.r.r.r.r.a.v.m.U.k.r.r.r.i.p.c                                             ",
"                                                H a.g.g.p.i.i.g.c.j.h.r.g.g.k.r.K p                                             ",
"                                                = z.l.v.z.j.j.h.T.H._.U.m.l.N.[.t.L                                             ",
"                                              W k ).D.t.)._._.).B.B.D.B.B.D.B.D.t.7 u L 6 < %                                   ",
"                                    % < - t 5 ; B.t.t.t.t.D.D.t.t.t.t.t.t.t.t.t.t.t.t.t.t.+ b 5 u r @ # 3                       ",
"                < W r f J A N 5 n l b U ; t.t.t.t.t.t.t.t.t.t.t.t.t.t.t.t.t.t.t.t.t.t.t.t.t.t.t.t.t.t.4 b n > I f t . - # $     ",
"              > U t.t.t.t.t.t.t.t.t.t.t.t.t.t.t.t.t.t.t.t.t.t.t.t.t.t.t.t.t.t.t.t.t.t.t.t.t.t.t.t.t.t.t.t.t.t.t.t.t.t.; 4 : o.  ",
"              z t.t.t.t.t.t.t.t.t.t.t.t.t.t.t.t.t.t.t.t.t.t.t.t.t.t.t.t.t.t.t.t.t.t.t.t.t.t.t.t.t.t.t.t.t.t.t.t.t.t.t.t.t.t.+   ",
"              # N : 7 t.t.t.t.t.4 : l A y y ; t.t.t.t.t.t.t.t.t.t.t.t.t.t.t.t.t.t.t.t.t.t.t.t.t.t.t.t.t.t.t.t.t.t.t.t.t.t.t.n   ",
"                  $ - @ . . @ 6 # $       f t.t.t.t.t.t.t.t.t.t.7 t.t.t.t.t.t.t.t.t.t.t.t.t.t.b u f J 5 l z + 4 7 7 7 4 z I <   ",
"                                          t t.t.t.t.t.t.t.t.t.t.t.t.t.t.t.t.t.t.t.t.t.t.t.t.t.6         % $ < # h h h # o       ",
"                                          o y 5 > u L . t > U + + : I o.@ . r u 5 z + + + : t                                   ",
"                                                                                                                                "
};
