/* XPM */
static char *c54f00bf1faf4417cd839c4d09ba681cB00za8TaFmKirlTU[] = {
/* columns rows colors chars-per-pixel */
"64 64 85 1 ",
"  c None",
". c #FF281A",
"X c #FF281A",
"o c #FF281A",
"O c #A70E07",
"+ c #EF1409",
"@ c #FF281A",
"# c #EE1409",
"$ c #FF281A",
"% c #FF281A",
"& c #A70E07",
"* c #A70E07",
"= c #A90E07",
"- c #EE1409",
"; c #F81E11",
": c #FF281A",
"> c #CF1108",
", c #A70E07",
"< c #E31309",
"1 c #FF281A",
"2 c #FF281A",
"3 c #F61B0F",
"4 c #EF1409",
"5 c #EE1409",
"6 c #B50F07",
"7 c #D61208",
"8 c #A70E07",
"9 c #FA2215",
"0 c #A80E07",
"q c #EE1409",
"w c #A70E07",
"e c #F91F12",
"r c #F1150A",
"t c #AB0E07",
"y c #D71208",
"u c #AB0E07",
"i c #AC0E07",
"p c #AB0E07",
"a c #A70E07",
"s c #A70E07",
"d c #A70E07",
"f c None",
"g c #FD2517",
"h c #FF4636",
"j c #A80E07",
"k c #AC0E07",
"l c #AC0E07",
"z c #C91108",
"x c #A70E07",
"c c #AC0E07",
"v c #A70E07",
"b c #A70E07",
"n c #E41309",
"m c #FCB1A9",
"M c #DC1209",
"N c #EAB2AB",
"B c #EA2115",
"V c #A70E07",
"C c #FF4333",
"Z c #F21A0E",
"A c #B30F07",
"S c #A70E07",
"D c #A70E07",
"F c #FD2517",
"G c #F22417",
"H c #E01309",
"J c #F2C9C3",
"K c #FDFBFB",
"L c #EA1309",
"P c #DE1309",
"I c #B00F07",
"U c #FFE0DA",
"Y c #FF2719",
"T c #FB2416",
"R c #F02D1F",
"E c #E01309",
"W c #FFD1CB",
"Q c #FBBEB7",
"! c #FF4232",
"~ c #E42B1D",
"^ c #C31008",
"/ c #B8251A",
"( c #C51008",
") c #AA0E07",
"_ c #EE1409",
/* pixels */
"                                                                ",
"                                                                ",
"                                                                ",
"                                                                ",
"                                                                ",
"                                                                ",
"                                                                ",
"                                                                ",
"                                                                ",
"                                                                ",
"                                                                ",
"                                                                ",
"                                                                ",
"                                                                ",
"                                                                ",
"                                                                ",
"                                                                ",
"                                                                ",
"                                                                ",
"                                                                ",
"                                                                ",
"                                                                ",
"                                                                ",
"                                                                ",
"                                                                ",
"                                                                ",
"                                                                ",
"                       D&&&V        V&&&D                       ",
"                     a&00<<n,,    ,,fM<<Ia                      ",
"                    a&j<<ggFGn,  ,ffH9gmJR_                     ",
"                    b&kqq@@$$mNjj0MP9Y@CUQ/a                    ",
"                   OwkEqT@@$$hKNB0L9$@@@CW~6O                   ",
"                   O&k5q@@@$$$hh$B9$$@@@@!Z6O                   ",
"                   Owl+5...oooo11oooo....X+6O                   ",
"                   Owl+5Z..oooo11oooo....X+6O                   ",
"                   Owl+55..oooo11oooo....X+6O                   ",
"                   O==(++3X....22....XXXX;rAO                   ",
"                   dp=t+++X....22....XXXXrzpd                   ",
"                    b==^++3....22....XXX3rAb                    ",
"                    *i8t##r3XXX%%XXXX::;->i*                    ",
"                     *itz##+3XX%%XXXX:;->i*                     ",
"                      *ptz#++3X%%XXXX;->p*                      ",
"                       su8>###;::%%%e4>us                       ",
"                        su8>###;:%%e#>us                        ",
"                         *v=7--4;:e-yc*                         ",
"                          *v=7-44e-yc*                          ",
"                           Ov=744#ycO                           ",
"                            Ox=77y)O                            ",
"                             Ox88xO                             ",
"                              dSSd                              ",
"                                                                ",
"                                                                ",
"                                                                ",
"                                                                ",
"                                                                ",
"                                                                ",
"                                                                ",
"                                                                ",
"                                                                ",
"                                                                ",
"                                                                ",
"                                                                ",
"                                                                ",
"                                                                "
};
