/* XPM */
static char *_95c37e178924bd3ab69c48381fed049s3to4qZrIxvbHyYj[] = {
/* columns rows colors chars-per-pixel */
"64 64 210 2 ",
"   c None",
".  c #282623",
"X  c #372D25",
"o  c #3D3024",
"O  c #592A06",
"+  c #492D1A",
"@  c #4F341E",
"#  c #51341E",
"$  c #5B3315",
"%  c #692E02",
"&  c #672803",
"*  c #7B2C00",
"=  c #712B02",
"-  c #62330F",
";  c #6C340D",
":  c #6E3103",
">  c #753306",
",  c #7A3501",
"<  c #7C3802",
"1  c #78320A",
"2  c #6B2F12",
"3  c #753A12",
"4  c #683813",
"5  c #402F23",
"6  c #453324",
"7  c #533925",
"8  c #5B3B23",
"9  c #503128",
"0  c #613D24",
"q  c #613631",
"w  c #2C4200",
"e  c #3B4908",
"r  c #2D5000",
"t  c #375302",
"y  c #365B01",
"u  c #3C5B02",
"i  c #3C5604",
"p  c #3C6200",
"a  c #484A06",
"s  c #405304",
"d  c #505310",
"f  c #4D501B",
"g  c #7C5201",
"h  c #7C421D",
"j  c #436500",
"k  c #486604",
"l  c #466A01",
"z  c #4A6C02",
"x  c #48600D",
"c  c #4D6D0A",
"v  c #4A7202",
"b  c #4E710E",
"n  c #477100",
"m  c #527502",
"M  c #547C01",
"N  c #597D02",
"B  c #52730D",
"V  c #5A7D0B",
"C  c #4E6B13",
"Z  c #526F14",
"A  c #547314",
"S  c #597617",
"D  c #5B7D13",
"F  c #55741A",
"G  c #58761A",
"H  c #5C7A1C",
"J  c #61422D",
"K  c #674125",
"L  c #774A2A",
"P  c #7B4B2B",
"I  c #70422A",
"U  c #4F6721",
"Y  c #506323",
"T  c #5F7E23",
"R  c #567228",
"E  c #467331",
"W  c #637E23",
"Q  c #842A00",
"!  c #8B3400",
"~  c #8A3C03",
"^  c #853A04",
"/  c #9A3900",
"(  c #A43900",
")  c #8B4209",
"_  c #83400D",
"`  c #9C4501",
"'  c #994906",
"]  c #884716",
"[  c #9E4C13",
"{  c #9D4611",
"}  c #AB4703",
"|  c #A44D01",
" . c #A04E0B",
".. c #B54500",
"X. c #B34C01",
"o. c #BC4C00",
"O. c #A35001",
"+. c #AA5201",
"@. c #B35503",
"#. c #B65901",
"$. c #BB5C03",
"%. c #B45708",
"&. c #A24D16",
"*. c #A7541A",
"=. c #B95812",
"-. c #80512E",
";. c #9F5423",
":. c #864D32",
">. c #8A5432",
",. c #8F5933",
"<. c #925A33",
"1. c #9B4A22",
"2. c #A75D2A",
"3. c #A95E2E",
"4. c #B96F36",
"5. c #C24A00",
"6. c #D34D02",
"7. c #C75908",
"8. c #C56502",
"9. c #CD6604",
"0. c #CF6807",
"q. c #D26400",
"w. c #D96600",
"e. c #D56B01",
"r. c #DA6C01",
"t. c #DF7303",
"y. c #D8720E",
"u. c #C06116",
"i. c #E56B03",
"p. c #E47401",
"a. c #EA7500",
"s. c #EC7801",
"d. c #E57802",
"f. c #F17700",
"g. c #F37C00",
"h. c #F87E00",
"j. c #E77C1A",
"k. c #E27716",
"l. c #D87A23",
"z. c #5B8303",
"x. c #5C8A00",
"c. c #5F810C",
"v. c #5B8505",
"b. c #5F8214",
"n. c #618D02",
"m. c #61890C",
"M. c #688F0B",
"N. c #649202",
"B. c #689702",
"V. c #6C9C01",
"C. c #659906",
"Z. c #61811B",
"A. c #668A1A",
"S. c #678C18",
"D. c #6D9711",
"F. c #6FA000",
"G. c #74A503",
"H. c #74AA01",
"J. c #7BAD02",
"K. c #79AE0B",
"L. c #7DB202",
"P. c #7FB800",
"I. c #7EAC13",
"U. c #658126",
"Y. c #688726",
"T. c #6B8B22",
"R. c #658429",
"E. c #6A852A",
"W. c #6B8A2B",
"Q. c #70922C",
"!. c #769A2B",
"~. c #779827",
"^. c #6B8631",
"/. c #748E3A",
"(. c #7B9C37",
"). c #789632",
"_. c #81B503",
"`. c #84BD01",
"'. c #82B608",
"]. c #FD8302",
"[. c #FF8A00",
"{. c #F38009",
"}. c #FF9000",
"|. c #F58412",
" X c #F58816",
".X c #FF931A",
"XX c #FD9717",
"oX c #E88318",
"OX c #FFA31C",
"+X c #FF992B",
"@X c #F4952F",
"#X c #FF9E37",
"$X c #E68834",
"%X c #FFA122",
"&X c #FDA32D",
"*X c #FFA23B",
"=X c #FFAD3B",
"-X c #FFB732",
";X c #86C201",
":X c #8BC502",
">X c #8DC800",
",X c #92CE02",
"<X c #94D101",
"1X c #A3E201",
"2X c #889F4C",
"3X c #F19F49",
"4X c #FFA946",
"5X c #FFB549",
"6X c #FFAE58",
"7X c #FFB664",
/* pixels */
"                                                u x x t                                                                         ",
"                                              Y.x.F.V.V.S.                                                                      ",
"                                          z p M L.>X,X1XL.j                                                                     ",
"                                              N M M N.x.P.H.C               c.M M M M M                                         ",
"                                                    Q.M v.M S.          M m.B k k k z k V v.m.                                  ",
"                                                              R.      F l j M L.,X`.N.:Xn.y v (.                                ",
"                                                              j     Z b n j N.`.:X`.H.H.M p l                                   ",
"                                                              z   A ^.  !.(.D.x.z.n.N.Y.).!.                                    ",
"                                        v.x.x.x.n.            c l j           N c.N V                                           ",
"                                    M M N.:XJ.H.;XM M           W p                                                             ",
"                                  M l z k l z l l z z B B j T   W.p                                                             ",
"                              A.n n M M _.;XV.V.J.m M v D     Z l         ~.z.V l H                                             ",
"                              ).z B   v.L.`.V.V.'.    N       ^.B     b B m j n.`.K.                                            ",
"                                        W.D A.T.                W.c   A S c v G.,XL.n.N.                                        ",
"                                                                E.y       V ;XG.i m B.<XC./.                                    ",
"                                              y l z c B B l T   R.y       A.B.B.L.:Xz B.x.2X                                    ",
"                                        U f I.L.z V.l H       A j           m.M N.L.V.m j D !.                                  ",
"                                      m G.x.x.L.J.M.            B               T.x.x.n z p z                                   ",
"                                      z ,XJ.z.L.`.c             ^.j               R.W.Q.!.R.R                                   ",
"                                      M n.z._.:XM D             U.j                           c                                 ",
"                                    v V.N ;X;Xz.c               R.j                                                             ",
"                                    l x.V.J.N.S                 W j                                                             ",
"                                    l M z.M Z.                  A j                                                             ",
"                                    p N V m                     Z.m                                                             ",
"                                    G                           A.z.                                                            ",
"                                                                G l                                                             ",
"                                                                A l                                                             ",
"                                                                Z.M                                                             ",
"                                                                S.x.                                                            ",
"                                                                b.M                                                             ",
"                                                                G j                                                             ",
"                                                                S l                                                             ",
"                                                                S l                                                             ",
"                                                                A z                                                             ",
"                                                                H l                                                             ",
"                                                                R.j                                                             ",
"                                                                U.j                                                             ",
"                                                                U.j                                                             ",
"                                                                Y.l                                                             ",
"                                                                R t                                                             ",
"                                                                Y w                                                             ",
"                                                                R                                                               ",
"                                                                E s                                                             ",
"                                                        } X.X.5.s g 6.X.X.X.                                                    ",
"                                                  u.7.^ $ - - ; t a 2 - 4 O ` 7.                                                ",
"                                                3.< ! $ X 7 J 9 r e q J 6 o ; ^ ~                                               ",
"                                                Q X . K L L <.I d f :.,.K P 7 . O =.                                            ",
"                                                ! # + P -.8 8 8 >.L 7 8 0 >.K + % =.                                            ",
"                                                / | X.3 5 @ @ @ # 7 @ @ # 6 ) X./ *.                                            ",
"                                                ( 9.g.@.1 ~ ~ ) ! ! ! ! ! , 5.XXy.&.                                            ",
"                                                ( d.}.f.q.w.w.w.k.j.$X$Xj.k.*X-Xi.{                                             ",
"                                                } $.$.s.}.[.[.[.XX%X=X5X%XOX3Xl.o.2.                                            ",
"                                                  > & %.d.e.r.r.e.e.q.q.e.r.o./  .                                              ",
"                                                  < #.' : < < < < < < < < % r.w.&.                                              ",
"                                                  < @.#.O.O.O.| $.$.9.p.r.oX&X0.[                                               ",
"                                                  < +.8.e.d.p.p.a.s.f.]..X4X5X0.[                                               ",
"                                                  < +.8.d.].h.h.g.g.a.s.+X7X*X7.[                                               ",
"                                                  * +.8.t.g.s.s.s.a.a.|.#X6X.X5.{                                               ",
"                                                  _ | $.t.g.s.s.s.a.|.4X6X+X{.7.2.                                              ",
"                                                    ] ! e.].s.s.s.i.@X7X+X]...                                                  ",
"                                                    3 / 8.r.].h.g.g.{. X].[...                                                  ",
"                                                      ] * ` t.e.d.s.s.r.o.o.4.                                                  ",
"                                                        h ] ` ' +.#.#.+.;.1.                                                    ",
"                                                            1 , > > = h                                                         "
};
