/* XPM */
static char *_53aa78ebd1442d2d89b44be7439a294cH54BsFdm4Nw2JTc[] = {
/* columns rows colors chars-per-pixel */
"64 64 251 2 ",
"   c #47704C",
".  c #9CB4CE",
"X  c #D27C41",
"o  c #285472",
"O  c #294A62",
"+  c #DC0001",
"@  c #696E7E",
"#  c #D97F3F",
"$  c #F0B9AE",
"%  c #E28648",
"&  c #D3221C",
"*  c #42272B",
"=  c #26587A",
"-  c #D9DEE3",
";  c #DEA7A9",
":  c #91AEC4",
">  c gray89",
",  c #98B0CA",
"<  c #CAD0D2",
"1  c #EC6868",
"2  c #D67E41",
"3  c #CE4843",
"4  c #8197B0",
"5  c #1A2223",
"6  c #D76D46",
"7  c #CCB4BC",
"8  c #BCB1AE",
"9  c #9AB2C4",
"0  c #717F87",
"q  c #D97443",
"w  c #831513",
"e  c #D60F10",
"r  c #DF171F",
"t  c #8DAEC0",
"y  c #B96E47",
"u  c #C80303",
"i  c #2E5C76",
"p  c #E8998A",
"a  c #E2595B",
"s  c #D7E2E7",
"d  c #E88284",
"f  c #5E7C8C",
"g  c #600F0E",
"h  c #9A1212",
"j  c #630C09",
"k  c #E4454A",
"l  c #AE090A",
"z  c #26597C",
"x  c #B50707",
"c  c #3D5D76",
"v  c #53758E",
"b  c #A08D7B",
"n  c #A5B5C4",
"m  c #382C30",
"M  c #A7BAD0",
"N  c #7F5A4C",
"B  c #C2C7CD",
"V  c #6492A6",
"C  c #8D5B61",
"Z  c #AE272F",
"A  c #B74F38",
"S  c #F3C1C9",
"D  c #610806",
"F  c #DC3944",
"G  c #8C586A",
"H  c #D1171D",
"J  c #899CA5",
"K  c #205E83",
"L  c #3C384E",
"P  c #B39289",
"I  c #211F1E",
"U  c #9D6964",
"Y  c #94ACBA",
"T  c #AC7575",
"R  c #ADD4DF",
"E  c #A9BBD4",
"W  c #507B94",
"Q  c #923D4B",
"!  c #7B3843",
"~  c #D50000",
"^  c #27597A",
"/  c #7398AD",
"(  c #050C10",
")  c #DA0102",
"_  c #507B97",
"`  c #030406",
"'  c #5790AC",
"]  c #540A00",
"[  c #16262E",
"{  c #2B0A02",
"}  c #72A7BD",
"|  c #21587F",
" . c #072D39",
".. c #347DA3",
"X. c #679FB6",
"o. c #1E0705",
"O. c #70AAC4",
"+. c #621604",
"@. c #7FA4B5",
"#. c #58352B",
"$. c #426376",
"%. c #6B0F04",
"&. c #427D9B",
"*. c #599AB5",
"=. c #081822",
"-. c #774B41",
";. c #5E8DA5",
":. c #4C88A7",
">. c #815448",
",. c #436B7F",
"<. c #5A1609",
"1. c #B9D7E6",
"2. c #471004",
"3. c #78B0C8",
"4. c #4E616C",
"5. c #82B0C3",
"6. c #385C6E",
"7. c #8899A6",
"8. c None",
"9. c #72574C",
"0. c #437590",
"q. c #AEC7D6",
"w. c #2C6076",
"e. c #986653",
"r. c #567E9B",
"t. c #163446",
"y. c #70463A",
"u. c #81949B",
"i. c #82B4CD",
"p. c #96A7B0",
"a. c #63829A",
"s. c #BE0808",
"d. c #83A6BE",
"f. c #2D4E63",
"g. c #7AAAC2",
"h. c #5789A6",
"j. c #68A3BD",
"k. c #8DB0C0",
"l. c #376175",
"z. c #5D798D",
"x. c #42414E",
"c. c #130303",
"v. c #736157",
"b. c #57A3BD",
"n. c #4190AE",
"m. c #6C4E58",
"M. c #1A5376",
"N. c #134364",
"B. c #435C65",
"V. c #3694B7",
"C. c #398AAF",
"Z. c #626A70",
"A. c #975E52",
"S. c #6292AC",
"D. c #8DABBA",
"F. c #70A2B8",
"G. c #456371",
"H. c #84BDD5",
"J. c #6F8C9E",
"K. c #2E4557",
"L. c #813340",
"P. c #2F7197",
"I. c #962D34",
"U. c #4B829E",
"Y. c #563C33",
"T. c #75303C",
"R. c #BECCDA",
"E. c #6E1B15",
"W. c #5F2638",
"Q. c #7E3A28",
"!. c #182A35",
"~. c #20323C",
"^. c #1F8CB5",
"/. c #463F33",
"(. c #122D3C",
"). c #8F0405",
"_. c #D3BED1",
"`. c #5D5350",
"'. c #9BBFCF",
"]. c #748592",
"[. c #432E20",
"{. c #94B7C8",
"}. c #495359",
"|. c #30526C",
" X c #80220A",
".X c #942005",
"XX c #63414A",
"oX c #A0080C",
"OX c #53595D",
"+X c #832029",
"@X c #932D14",
"#X c #252228",
"$X c #379CC4",
"%X c #534641",
"&X c #CECFE8",
"*X c #5F4238",
"=X c #243C46",
"-X c #DBE4F9",
";X c #326F85",
":X c #392028",
">X c #537085",
",X c #89161C",
"<X c #A17874",
"1X c #252F37",
"2X c #255D7F",
"3X c #AACFE2",
"4X c #96C2D4",
"5X c #45798B",
"6X c #903B3E",
"7X c #6B404A",
"8X c #A43B3B",
"9X c #0F3B53",
"0X c #C4B3C0",
"qX c #3B5165",
"wX c #C1A6B1",
"eX c #FE0000",
"rX c #B2B5CB",
"tX c #408CA7",
"yX c #70CEE6",
"uX c #97ABB5",
"iX c #836E67",
"pX c #1F2F1F",
"aX c #A1BFD0",
"sX c #A53514",
"dX c #323423",
"fX c #07212A",
"gX c #B57A69",
"hX c #207C9B",
"jX c #155F87",
"kX c #40130F",
"lX c #7CD2E4",
"zX c #733228",
"xX c #2B120D",
"cX c #2D5738",
"vX c #A48792",
"bX c #AFA1B5",
"nX c #A06966",
"mX c #205136",
"MX c #661D28",
"NX c #516442",
"BX c #48131D",
"VX c #4C4847",
"CX c #0C63A5",
"ZX c #42A2BF",
"AX c #52D3EC",
"SX c #CE090D",
"DX c #A3D9EF",
"FX c #71B3CF",
"GX c #565718",
"HX c #1895D5",
"JX c #D3515D",
/* pixels */
"                                                      @ 8 4 . . . . . . . 4 7                                                   ",
"                                                    - M , , , : t : t t : : 9 4 @                                               ",
"                                                > 9 E , d.@./ / / / / / / / @.: c O                                             ",
"                                                - q.d.h.h.r.r.r.r.r._ _ _ _ _ d.f 5                                             ",
"                                              $ < '.S.*._ _ :._ _ _ U.:._ :.&.X.f 5                                             ",
"                                              $ B H.X.-.A.-.}.U._ :._ -.>.XX>Xj.W b                                             ",
"                                              p C yXv.<X_.bXy.,.&...Q.vX_.<X`.' &.C 3                                           ",
"                                            $ a :XyX*XR.qXrXvXqX:.|.e.7.>XrXm.' ..oXa                                           ",
"                                            $ 1 ,XAX%XwX, &XA.z./ ;XzXrXq.0Xm.' &.oX1                                           ",
"                                            $ 1 Z AX0.y.A.>.VXk.D.X.x.-.nX>.G.b.z.s.1                                           ",
"                                            $ d MXyXC.;X6.w.P.;.;.z...6.qXl...b.>Xs.d                                           ",
"                                              ; ! lXtXZXC.V.n.5X&.5Xn.V.n.ZXC.b.G.Z 6                                           ",
"                                              7 Q lXtXT.m.m.m.XXXXXX7X7Xm.7X$.*.V B 7                                           ",
"                                                8 H.tX).8XI.I.+XI.I.+XI.8X,Xx.' 5.s                                             ",
"                                                - 5.*.E.6XL.L.T.T.L.T.L.6X+X4.X.@.s                                             ",
"                                                > 9 U.l.K.f.f.f.f.K.K.K.K.x.l.V M >                                             ",
"                                                  - f t. . . . . . . . . . .fX0 >   $                                           ",
"                                            8 < < < 0 ~.!.[ [ [ [ [ [ [ !.~.~.0 . R T P                                         ",
"                                            0 D.aX7.J./ a.z.a.a.z.a.J.a.J./ / / @.H.Z.[.                                        ",
"                                            J.3X4Xi.i.H.3.g.i.i.d.d.k.g.O.O.O.} / {.DX}.                                        ",
"                                            1.'.X.;.S.S.h.;.;.;.' S.*.h.4.OXOXU.:.k.1.@.                                        ",
"                                            4X@.`.#.#.#.Y.#.#.#.`.n.n.*XQ.6XQ.Y.0.3.q.uX                                        ",
"                                            H.u. X{ { { { { o.{ @XV.VX8X0X-X_.@X/.} R.p.                                        ",
"                                            i.u.%.` ( [ ( ( ` ` sX^.%.0X-X_.&XbX#.].1.u.                                        ",
"                                            3.u.E.` ( #XOX` ( ( @X^.+.R.-XJX_.R.#.].1.u.                                        ",
"                                            3.7.%.` ` ` &X( ` ` @X^.[.<XwX&X-XgXY./ 1.7.                                        ",
"                                            O./ E.o.c.o.[.o.c.{  X^...E.nXwXgXQ.,.FX1.p.                                        ",
"                                            X.} B.Y.%XY./.*X%X%X4.V.$XP./.Y./...$X3.R.p.                                        ",
"                                            S.5.$XhXw.w.w.w.w.l.B.OX}.B.G.B.6.}.4.F.1.p.                                        ",
"                                            h.O.J..X%.] ] ] ] ] 2.2.2.2.] ] 2.2.%.<X3XD.                                        ",
"                                            ' 5.e.+.( =.=.( ` ( 0.BXoXs.E.N.9X( o.e.q.5.                                        ",
"                                            ' g.>.] =.0.w.!.c.c.[ kX).).x.V.@.|.{ A.q.{.                                        ",
"                                            ' F.9.] =.5X6.[ oX%.=.,.hX[ ~.tX/ $XxXA.q.4X                                        ",
"                                            ' } 9.] =.,.l.[ =X#X&.uX@.7.#X1XB.!.{ e.aX5.                                        ",
"                                            ' } 9.] =.U.;X(.).,X*.p.p.u.;.B.Z.=.{ e.'.g.                                        ",
"                                            ' } 9.] ( 9X .fXo.c.4./ n 7._ >XaX~.o.A.{.}                                         ",
"                                            :.} v.] c.:Xo.:X` ` ` dXx.pX( ( 1X( o.e.{.F.                                        ",
"                                            ..} v.%.).) ~ 8.2.cX9X[.N.GX[ xX<.<.{ >.k.X.                                        ",
"                                            ..} v.%.s.eXeXeX] mX(.dXt./.=.kX.XsX{ y.k.F.                                        ",
"                                            P.j.v.%.BXMX,X+X#Xt.!.1X=X1Xt.:XT.L.{ *XD.F.                                        ",
"                                            P.X.9. XCX^.NXV.CXcXNXf.C.t.C.=X;XHXo.zX@.j.                                        ",
"                                            P.X.v. XN.mX=XM.N.(.t.t.N.(.N.(.pXjX2.Q.d.}                                         ",
"                                            0.j.u..X+.+.<.<.<.<.<.+.<.+.+.+.+.+..XiXi.k.                                        ",
"                                            0.X.F.Z.y.y.y.y.-.-.-.-.-.>.>.>.9.>.iXF.5.D.                                        ",
"                                            S.@.S.b.*.*.*.*.b.b.j.O.O.O.3.O.O.g.3.g.'.3X                                        ",
"                                            9 Y ].].z._ 0.&.&.&...jX..C...:.S.;.h.a.n J                                         ",
"                                            - s < v |.|.f.e.N * * i * * m N y 6.^ ^ v o                                         ",
"                                                  o ^ ^ 6.X p           @ # % 6.M.^ =                                           ",
"                                                @ o ^ ^ $.X 8             # % $.| ^ = @                                         ",
"                                                @ i ^ ^ $.X b             # % ,.| ^ =                                           ",
"                                                O = ^ ^ G.X $             6 % ,.| ^ =                                           ",
"                                                O = ^ ^ G.X               # % ,.| ^ i                                           ",
"                                                O c ^ ^ 4.X               # % $.| ^ o                                           ",
"                                                O z ^ ^ 4.X               # % G.| ^ o                                           ",
"                                                O z 2X2XZ.2               # % G.| ^ o                                           ",
"                                              @ O K 2X^ Z.2               # % G.| | o                                           ",
"                                          @ 3 3 H L W.W.`.2               # % l.| M.4                                           ",
"                                        @ p F & e ) 8.8.s.2               # y x.W.W.G ; - $                                     ",
"                                        > k ~ ~ ~ ) ~ ~ e q               # y s.) 8.~ SXr a $                                   ",
"                                      $ d ~ ~ ~ ~ ~ ~ ~ e q               # & ) ~ ~ ~ ~ + & ; $                                 ",
"                                      ; r ~ ~ ) ) ~ ) ) + q               # & ~ ~ ~ ~ ~ ~ ~ k S                                 ",
"                                    $ 1 8.u u u x x l l h A               6 & ~ ~ ~ ~ ~ ~ ~ ) r                                 ",
"                                    7 ; U * * m I 5 5 O @                 3 & + + + + + + + ) )                                 ",
"                                    @ @                                   O * g g j j D w w h w                                 "
};
