/* XPM */
static char *_ca74b18569c4b3adb5cc85725ef4a814VRCZ49MvLEThZRY[] = {
/* columns rows colors chars-per-pixel */
"64 64 248 2 ",
"   c None",
".  c #245271",
"X  c #EFA49D",
"o  c #D77E40",
"O  c None",
"+  c #C8BAC7",
"@  c #8FBACC",
"#  c #DB0000",
"$  c #D58249",
"%  c #254C64",
"&  c #304859",
"*  c #DDA1A5",
"=  c #92AEC6",
"-  c #E48C90",
";  c #386880",
":  c #D77C3F",
">  c #B10A0C",
",  c #E7E2E3",
"<  c #D70B0A",
"1  c #553933",
"2  c #E23C44",
"3  c #223B4F",
"4  c #D87F41",
"5  c #D98143",
"6  c #8EAEBE",
"7  c #9FB7CB",
"8  c #A0B4CB",
"9  c #9CB4CD",
"0  c #99AFC2",
"q  c #34637F",
"w  c #DF5D60",
"e  c #302C33",
"r  c #BBD1D7",
"t  c #560F0F",
"y  c #640B09",
"u  c #E7151E",
"i  c #3A6280",
"p  c #27597B",
"a  c #EF8B42",
"s  c #8E96A6",
"d  c #E7B1B6",
"f  c #C70303",
"g  c #AAB1CB",
"h  c #4B657A",
"j  c #EB6866",
"k  c #EDE8EA",
"l  c #976761",
"z  c #91ACBD",
"x  c #CED6D7",
"c  c #DDE4E8",
"v  c #5F7079",
"b  c #502C31",
"n  c #DB6163",
"m  c #E85052",
"M  c #9AA9B6",
"N  c #595865",
"B  c #DA6D45",
"V  c #C83A27",
"C  c #B9342B",
"Z  c #DB2027",
"A  c #C21914",
"S  c #CC8949",
"D  c #81100D",
"F  c #285A7B",
"G  c #E00F0E",
"H  c #A87277",
"J  c #EDE3E5",
"K  c #F33335",
"L  c #231F1C",
"P  c #9AB2CE",
"I  c #BF5A5A",
"U  c #9E6D50",
"Y  c #778C95",
"T  c #A56F4B",
"R  c #AD1312",
"E  c #74100F",
"W  c #C45F36",
"Q  c #BB7747",
"!  c #413D52",
"~  c #C5CACB",
"^  c #E08040",
"/  c #D5894C",
"(  c #8998A5",
")  c #D58043",
"_  c #717E92",
"`  c #BF3842",
"'  c #775F4C",
"]  c #709CB1",
"[  c #D5043C",
"{  c #265A7C",
"}  c #D50000",
"|  c #040405",
" . c #774A3C",
".. c #6DAAC4",
"X. c #16252F",
"o. c #4F6368",
"O. c #082D39",
"+. c #5C8BA5",
"@. c #450C02",
"#. c #D20202",
"$. c #7FADC0",
"%. c #7397AE",
"&. c #510F02",
"*. c #380500",
"=. c #280903",
"-. c #436777",
";. c #4E88A7",
":. c #5B1607",
">. c #5F9CB5",
",. c #76A8BE",
"<. c #1F2F39",
"1. c #190604",
"2. c #81574B",
"3. c #567F98",
"4. c #396478",
"5. c #82B4CD",
"6. c #0E1A21",
"7. c #4A7E97",
"8. c #050B0F",
"9. c #2F4355",
"0. c #93A6AD",
"q. c #061219",
"w. c #653C30",
"e. c #7BA2B9",
"r. c #2F7BA1",
"t. c #63473C",
"y. c #2E637A",
"u. c #631705",
"i. c #0D2330",
"p. c #74B6CE",
"a. c #50332B",
"s. c #89A8BD",
"d. c #517996",
"f. c #6E0F05",
"g. c #425A65",
"h. c #544845",
"j. c #5697B8",
"k. c #A0333B",
"l. c #323C43",
"z. c #3D91AF",
"x. c #60A5BF",
"c. c #849BA2",
"v. c #688192",
"b. c #163644",
"n. c #89B4C4",
"m. c #7B3340",
"M. c #284A63",
"N. c #88A8B4",
"B. c #77ABC4",
"V. c #4F82A0",
"C. c #5A7487",
"Z. c #377092",
"A. c #5492AF",
"S. c #447085",
"D. c #105178",
"F. c #A57867",
"G. c #7B2714",
"H. c #694D59",
"J. c #493E39",
"K. c #592535",
"L. c #225776",
"P. c #3A9FC4",
"I. c #3588A4",
"U. c #84BBD4",
"Y. c #6F94A8",
"T. c #C4E0ED",
"R. c #98B8C7",
"E. c #91BFD5",
"W. c #C5D6E4",
"Q. c #77222E",
"!. c #70A2B8",
"~. c #C50306",
"^. c #8A2C36",
"/. c #515358",
"(. c #6FA0B1",
"). c #A2D1E7",
"_. c #355B72",
"`. c #823C27",
"'. c #3395BB",
"]. c #3088B7",
"[. c #247896",
"{. c #D6CDE5",
"}. c #BEA1AB",
"|. c #590903",
" X c #7B171D",
".X c #133E55",
"XX c #43563A",
"oX c #5E92AB",
"OX c #4A7797",
"+X c #453F47",
"@X c #7C8E99",
"#X c #39596A",
"$X c #AED3E6",
"%X c #664049",
"&X c #8E0B01",
"*X c #79504B",
"=X c #417A93",
"-X c #D8E3FA",
";X c #C7BDCF",
":X c #975C5D",
">X c #1E1F20",
",X c #51B2CC",
"<X c #3C6367",
"1X c #3C1D25",
"2X c #EC0000",
"3X c #2E5472",
"4X c #9EC7D7",
"5X c #ACC3D5",
"6X c #7B95AF",
"7X c #67414C",
"8X c #468CB5",
"9X c #9B2206",
"0X c #7D7F80",
"qX c #437E9E",
"wX c #723328",
"eX c #485356",
"rX c #636469",
"tX c #904132",
"yX c #AB8372",
"uX c #D3B4C1",
"iX c #A50909",
"pX c #244454",
"aX c #621826",
"sX c #FE0000",
"dX c #8A736A",
"fX c #73889E",
"gX c #35120D",
"hX c #B8CCDB",
"jX c #8C533F",
"kX c #B60C0F",
"lX c #AAB6C1",
"zX c #A85644",
"xX c #A48C8B",
"cX c #3C5165",
"vX c #B07B78",
"bX c #B29395",
"nX c #6FC5DD",
"mX c #6DD4EC",
"MX c #4CCFE9",
"NX c #551F10",
"BX c #1E4328",
"VX c #41713D",
"CX c #0A6FB5",
"ZX c #A190A5",
"AX c #852A18",
"SX c #D76571",
"DX c #585B20",
"FX c #0583D4",
/* pixels */
"                                                      + s 8 g 7 7 7 g 8 8 0 +                                                   ",
"                                                    0 P 9 9 = = 6 = 6 6 = = P i                                                 ",
"                                                J z 9 = s.e.%.%.%.%.Y.Y.%.%.e.= e 3                                             ",
"                                              + c 5Xe.+.;.V.3.3.3.3.3.d.d.d.3.@ h &                                             ",
"                                              X r @ A.j.d.V.;.OXd.d.V.V.7.;.OX,.q %                                             ",
"                                              X r p.(. .:X%Xg.7.7.;.C.*X2.h.d...q w                                             ",
"                                              j N nX2.xX;XZXt.=XqXr.`.bX;X:XrXx.; I K                                           ",
"                                            X n <.nXwX$X9.{.2.Z.8X9.vXC.v.}.H.x.y.> j                                           ",
"                                            w m Q.MXw.uXs.{. .%.(._.tXM hX}.N ,Xg.kX-                                           ",
"                                            w m k.MXS. .:X*XeXlXN.x.J.*X:X .; ,XH.~.-                                           ",
"                                            X n a.mXI.y._.y.[.+.+.3.r._.cX; r.,X/.~.-                                           ",
"                                            + d K.mXI.P.z.'.z.7.7.S.z.z.z.P.I.,X+X` *                                           ",
"                                              , g p.I.wXH.H.H.%X7X7X7X7XH.%X; x.O - X                                           ",
"                                                k ..I.iXk.k.k.Q.^.k.^.^.k. XcX>.@ *                                             ",
"                                                c B.A. X^.m.m.m.m.m.m.m.k.Q.S...N.0                                             ",
"                                                k z 7.#XM.M.M.M.M.9.9.9.9.9.; ] r ,                                             ",
"                                                  ~ v b.O.O.O.O.O.O.O.O.O.O.i.Y ,   X                                           ",
"                                            * x x 8 v <.<.X.X.X.X.X.X.X.<.<.<.Y 7 r l -                                         ",
"                                            v = R.c.fXY.O C.v.O v.v.O O O Y.6X%.e.U.N 1                                         ",
"                                            O $XE.5.$.U.5.B.5.5.e.s.s.B.......,.%.E.)./.                                        ",
"                                            $XR.>.+.oXoX+.+.+.+.A.oX>.3.o./.o.;.;.R.T.N.                                        ",
"                                            E.(.t.a.1 a.1 a.a.w.o.z.qXw.`.tXwXh.=Xn.hX0.                                        ",
"                                            U.v.&X=.=.=.=.=.1.*.`.'.1 zX;X-XuXAX+X$.W.0.                                        ",
"                                            p.v.f.| 8.X.| q.| | tX].G.;X-XuX-XvXJ.c.T.c.                                        ",
"                                            p.@Xf.8.| l.l.| 8.8.`.r.G.W.{.SX{.}.h.c.T.c.                                        ",
"                                            p.@Xf.| | >XW.| | | `.'.NXbX}.{.-XzXh.$.T.c.                                        ",
"                                            p.Y.f.1.1.1.a.1.1.gXwX].4.wXyX}.F.wXS.5.W.0.                                        ",
"                                            ..!.eX1 J.J.a.t.h.h.-.'.P.y.J.1 +Xz.'.5.W.0.                                        ",
"                                            >.B.P.[.L.y.y.y.y._.g./.eX<X<Xg.<X/.-.$.T.0.                                        ",
"                                            A.,.0X9Xu.&.|.|.&.&.@.@.@.&.&.&.@.&.f.xX).N.                                        ",
"                                            j.n.jX@.q.6.6.8.| q.Z.f.iX~.aXD.b.8.@.yX).s.                                        ",
"                                            j.$.w.*.i.=X; 6.1.| X.|.&X&X4.P.N..X@.F.$XR.                                        ",
"                                            A.,.w.*.i.S.4.6.kX@.X.-.[.6.pXA.(.[.&.F.).4X                                        ",
"                                            j.,.w.*.i.S.4.i.9.>X;.0.N.@X>Xl.#Xi.@.yX).n.                                        ",
"                                            j.$.w.*.i.V.=X6.iX X>.M 0.@X+.g.rXq.@.F.4X@                                         ",
"                                            j.,.w.*.q..XO.q.=.| C.6XlXfX7.C.5XX.*.F.E.@                                         ",
"                                            8X,.t.*.1.1X1.1X| | 8.J.l.>X8.q.<.| *.F.E.n.                                        ",
"                                            8X$.t.|.~.# #.} =.VXi.DXb.VX6.gX:.gX&.dXU.n.                                        ",
"                                            ].$.t.|.2XsXsXsX*.<X6.XXX.XXq.NX9XG.&.2.@ @                                         ",
"                                            ].,.t.&.aXaX X X>XpXX.l.<.l.O.1XQ.K.@.*X5.e.                                        ",
"                                            r.!. .NXFXI.XXP.D.XXXX; Z.pX].l.[.CXgX .$.!.                                        ",
"                                            Z.!. .u.D.BXb.D..Xb.b..X.Xb.M.<.BXD.u.jX5.e.                                        ",
"                                            Z...0X&X:.u.:.:.:.:.:.:.u.u.:.u.u.f.9X0XU.s.                                        ",
"                                            OX!.(.rX .t. . . . . . . .2.2.2.*X2.dXe.n.6                                         ",
"                                            oX$.>.x.>.>.j.>.x.x.............B.B.p.,.@ 4X                                        ",
"                                            z ( _ C.d.OXV.qXZ.r.r.{ r.;.;.+.+.O O 6X5XM                                         ",
"                                            0 s h 3X3X#XU ' . b e . e b l U g._.3Xh x ~                                         ",
"                                                . L.L.#X$ :             X ) g.L.L..                                             ",
"                                              3 . { { 4.$ 4             + / o.{ { .                                             ",
"                                                . { { 4.$ 4               5 o.{ { F                                             ",
"                                                i { { 4.$ o               5 o.{ { F 3                                           ",
"                                                i { { -.$ o               5 o.{ { p &                                           ",
"                                                % { { -.$ :               5 o.{ { p &                                           ",
"                                                % { { -.$ :               ^ o.{ { p &                                           ",
"                                                % { { -.$ :               a o.{ { q %                                           ",
"                                              + % { { -.$ o               a o.{ { q %                                           ",
"                                                s D.{ 4.$ o               a h.K.K.! C K w +                                     ",
"                                          + k d H K.Q.+XQ o               S A # 2X# < Z 2 d                                     ",
"                                        + j u #.#.2X# ~.W 4               S G } } # } #.#.2 J                                   ",
"                                        * Z } #.} } } # V 4               B < } } } } } } #.n ,                                 ",
"                                      , m #.#.} } } } } V :               B < # # } # } } } u 2                                 ",
"                                    + - } } } } } } } } A o               C R > > > > f f f G u                                 ",
"                                    * 2 } # # # # # # # < T                 3 & % % L L e b l H                                 ",
"                                    * I E D D y y y t t t &                                                                     "
};
