/* XPM */
static char *_fdd27d8e2014f58eed856472b217c4cscnfF78xHI4HDo61[] = {
/* columns rows colors chars-per-pixel */
"64 64 255 2 ",
"   c None",
".  c #011533",
"X  c #014E32",
"o  c #026737",
"O  c #017A39",
"+  c #117C3F",
"@  c #004917",
"#  c #41483B",
"$  c #041A4B",
"%  c #021958",
"&  c #0C2F52",
"*  c #061669",
"=  c #052965",
"-  c #063369",
";  c #09287A",
":  c #172979",
">  c #043A74",
",  c #153070",
"<  c #253579",
"1  c #28375A",
"2  c #045758",
"3  c #0B4C53",
"4  c #315155",
"5  c #006648",
"6  c #017B48",
"7  c #036C58",
"8  c #047858",
"9  c #177553",
"0  c #277A50",
"q  c #064865",
"w  c #0B4E75",
"e  c #384878",
"r  c #2C526F",
"t  c #086668",
"y  c #027966",
"u  c #136972",
"i  c #2D6C6F",
"p  c #4F5B78",
"a  c #466375",
"s  c #6D706D",
"d  c #445A5F",
"f  c #00843D",
"g  c #008B3B",
"h  c #009430",
"j  c #00B63E",
"k  c #008343",
"l  c #008C43",
"z  c #018C4B",
"x  c #06854B",
"c  c #009244",
"v  c #009D44",
"b  c #00944A",
"n  c #009D4B",
"m  c #0C914C",
"M  c #068357",
"N  c #029B52",
"B  c #069655",
"V  c #169858",
"C  c #1A884E",
"Z  c #288A5A",
"A  c #2B9058",
"S  c #00A24C",
"D  c #00A548",
"F  c #00A552",
"G  c #00AC52",
"H  c #04A759",
"J  c #15A958",
"K  c #0BB651",
"L  c #24AB59",
"P  c #048669",
"I  c #029669",
"U  c #1A9A67",
"Y  c #068E79",
"T  c #279969",
"R  c #349762",
"E  c #318B6D",
"W  c #08A463",
"Q  c #16A565",
"!  c #27A965",
"~  c #37A669",
"^  c #3DA776",
"/  c #31B476",
"(  c #448C5D",
")  c #46B049",
"_  c #479D72",
"`  c #5A9A75",
"'  c #4F876F",
"]  c #6D8D78",
"[  c #54A57A",
"{  c #47B879",
"}  c #47A971",
"|  c #6DB670",
" . c #70BC55",
".. c #5CC37A",
"X. c #C2B432",
"o. c #B5B252",
"O. c #898778",
"+. c #B9B573",
"@. c #94A875",
"#. c #C1B652",
"$. c #CFBC75",
"%. c #BBC854",
"&. c #A0CC75",
"*. c #C4C552",
"=. c #C6CA54",
"-. c #CBCB5A",
";. c #C4C24A",
":. c #D2C96B",
">. c #001982",
",. c #042689",
"<. c #132A83",
"1. c #1B358C",
"2. c #07358E",
"3. c #213783",
"4. c #25348B",
"5. c #084A8C",
"6. c #034C96",
"7. c #194596",
"8. c #04569A",
"9. c #17508F",
"0. c #344784",
"q. c #365785",
"w. c #2F4C92",
"e. c #046789",
"r. c #04659B",
"t. c #11708E",
"y. c #37678C",
"u. c #337591",
"i. c #015BA5",
"p. c #005DAB",
"a. c #0656A3",
"s. c #0464A9",
"d. c #0774A8",
"f. c #036AB5",
"g. c #0576BB",
"h. c #186AA3",
"j. c #346FA8",
"k. c #3057A4",
"l. c #485491",
"z. c #49669B",
"x. c #586897",
"c. c #536E92",
"v. c #727999",
"b. c #6A7191",
"n. c #546CA5",
"m. c #6776A8",
"M. c #535DA9",
"N. c #057AC3",
"B. c #707FCB",
"V. c #857F9D",
"C. c #0A928F",
"Z. c #309192",
"A. c #2DA196",
"S. c #098FAB",
"D. c #318EBD",
"F. c #2AB1AE",
"G. c #51968C",
"H. c #748691",
"J. c #59A786",
"K. c #52B384",
"L. c #69A685",
"P. c #7AAB8C",
"I. c #76B194",
"U. c #4E8FB5",
"Y. c #7794B7",
"T. c #748FAB",
"R. c #73B1B5",
"E. c #5DA2A0",
"W. c #3AC884",
"Q. c #58C183",
"!. c #70C591",
"~. c #62CDAC",
"^. c #0688C8",
"/. c #1487C6",
"(. c #0599D7",
"). c #1698D8",
"_. c #0894CF",
"`. c #3393C9",
"'. c #12A2D9",
"]. c #33A5DC",
"[. c #119EE2",
"{. c #07ADE7",
"}. c #2CB5E8",
"|. c #53AADA",
" X c #68AACC",
".X c #60A0CE",
"XX c #6BCBEF",
"oX c #958E8A",
"OX c #94938A",
"+X c #8F9090",
"@X c #A79D94",
"#X c #87A994",
"$X c #83B598",
"%X c #94B49A",
"&X c #8EA690",
"*X c #A7A49B",
"=X c #B5B399",
"-X c #8887A6",
";X c #8897AC",
":X c #9798A8",
">X c #8A91B8",
",X c #A19AAA",
"<X c #88BAA4",
"1X c #99A8B8",
"2X c #95B2AD",
"3X c #A9A9A6",
"4X c #B7AAA7",
"5X c #A9B8A8",
"6X c #BBB6A8",
"7X c #B9B8B5",
"8X c #ABACB5",
"9X c #C5B5AB",
"0X c #C3BBB4",
"qX c #C7BEB9",
"wX c #CDB2AA",
"eX c #C3B48B",
"rX c #8AC594",
"tX c #98C5A8",
"yX c #8BCAAD",
"uX c #B7C6B6",
"iX c #B5D7B8",
"pX c #ACCCB0",
"aX c #ADE19D",
"sX c #E6E389",
"dX c #CBC4BC",
"fX c #C8C5BB",
"gX c #D5C8BA",
"hX c #CCD4BD",
"jX c #E4D1BE",
"kX c #E2D69A",
"lX c #88AFC7",
"zX c #B8BBC2",
"xX c #A8B7CE",
"cX c #8CCCCD",
"vX c #BAC2C7",
"bX c #AFD4CA",
"nX c #B9E7C3",
"mX c #AACEE8",
"MX c #86D5FD",
"NX c #C9C8C5",
"BX c #D6CBC4",
"VX c #CBD6C9",
"CX c #DBD5CB",
"ZX c #D5D5C9",
"AX c #D3D5D5",
"SX c #E5D8C8",
"DX c #E3DBD3",
"FX c #F3DFDA",
"GX c #D7EAD3",
"HX c #E8E6D7",
"JX c #F7E7D5",
"KX c #EAEED0",
"LX c #CEEEFA",
"PX c #E7EBE7",
"IX c #F5F5EC",
/* pixels */
"                                                  G.8X9X5X#XCXCXCXBXZXfX&X] (                                                   ",
"                                                c.w.a.j.m.:X0XgXgX6X6X0X0X4XoXs O.&X`                                           ",
"                                              E p 3X@.- j.a.8.y.n.v.oX@X*X4XdXBX@XO.oXOX4X5X%XL.                                ",
"                                              T.uXO.#.:X&XVXXXq.= > ; 3.r a s @X0X9X4X@X*X*X4X*X4X*X                            ",
"                                          E i Y.<XxX+Xz.3 #.%X9.# & 1 , - - ; : w.n.lXvXCXSXjX9X4XDXGXtX                        ",
"                                          ' lXq.xXc.y.b.9.7.5.2.r & 4 a r.8.6.5.5.6.p.f./.|. XxXvXSXT.IX                        ",
"                                        H.t.|.u.$ T.4 T.h.mXy.Y.U.r w d.).).N.p.p.i.f.g.^.).[.[.).`.h.lX                        ",
"                                        H.8.p.f.w 9.,X6.i.i.8.j.Y.4 d s.N.).(.^.f.f.g.N.N._.).].].`.g.Z.                        ",
"                                      ' c.r.s.f.g.g.`.f.p.s.i.8.6.6.8.f.g.f.i.i.s.f.f.g.).^.(._.].].N.Z.                        ",
"                                      G.u.d.h.g.f./.^._.g.i.8.8.5.r.i.f.N.f.i.i.i.p.f.^._.(.{._.].|./.D.                        ",
"                                      I.i y t.r.d.d.g._./.i.i.> > > 5.> 5.6.8.p.p.s.f.^.(.{.{.{.}.U.`.g.                        ",
"                                      $Xi y Y C.t.S.S.^.d.8.8.w 5.= . . . - > > 6.p.g.).[.{.{.{.F./ /.f.T.                      ",
"                                      T.u I P Y Y C.S.S.8.8.r.r.8.5.- > % . & $ r .X`.^.(.}.{.{.XXcX`.g.G.                      ",
"                                    !.P.7 P P P I C.C.C.e.e.t t.t.e.q 2.U.i 6Xo.o.:.kXHXLX].XX}.(.LX|.g. XI.                    ",
"                                    pXG.8 P P I I Y Y Y 7 y t u 2 2 u OX:.*.*.X.=.=.=.=.-.%.sXPX(.! `.S.lX                      ",
"                                    VX$XM M y I I I M P y t 7 2 9 ] +.*.=.=.*.;.=.=.=.=.=.=.%.MX'.tXs.`.1X                      ",
"                                    AX7X@ 6 x I I W P 8 P 7 7 X 2X*.=.=.=.=.=.*.=.=.=.=.=.%./ ].}.R.e.U.2X                      ",
"                                      L.*XJ.g N I W P M P 5 7 i +.=.=.=.=.=.*.*.=.=.=.=.sX:.Z.S.S.cXC.R.<X                      ",
"                                    6 G.FXVX~ B H H 6 M y 5 0 =X*.=.=.=.=.*.=.*.=.=.=.L aX&.F.h.C.E tX2X                        ",
"                                    A 9 R dXIX!.c l x M 8 o ' $.=.=.=.=.=.;.X.=.=.-.H rX&.| C.7.C.7 2XZX                        ",
"                                    Z O h } pXCXuX$X0 o o I.o.*.=.=.=.=.=.o.X.*.sXPXaX .aXI.2.h.A.P A.VX                        ",
"                                    Z O q 2 6 x KXFX@X4 X 6X-.*.*.=.#.o.#.+.wX@.yX| )  ...cX6.d.Y y R.bX                        ",
"                                  V 9 e :Xb.l.3.y.[ $XuX7XdXkX=X=X+.eX9X&X9XZ V c j ) aXe.bXY.5.t.w R.yX                        ",
"                                  m P.qXJXjXjXV.9.B O o x 0 &X5X#X9 R ` O f k v D K ) cXY.ZXPXHX= ;X                            ",
"                                  0 uXH.b.-XgXm.t V z k 6 O C | O k f f k z b K J W Z..XJXCX7X0.7XHX                            ",
"                                  3 qX& : >.8Xw.6 c 6 6 O 2 3 X o o + O k x O 5 i w Z.K.JX1X,.z.IXbX                            ",
"                                  p gX-X1.4.1.1.- 2 u.- 9 - b.l.< , & X 0 3 $ H.l.<.;XiXJXm.Y.,XvXiX                            ",
"                                Z H.CX+X; k.1X7X:XV.PXzX; w.DXgXvX$ -Xp NXvX:XCX;X7.vXDXKXw.vXm.e G.                            ",
"                                A #XBX9X0.m.DXgX:XH.4XqXv.* 1XqX0X3XDXNXzXNXBXNX; w.BXDXPXc.DX1 r                               ",
"                                A r 3XBXe m.5XgXx.* v.qX7Xl.s gXgX+Xx.M.l.SXBX1X,.z.JXZXmXPXNX, G.                              ",
"                                Z 3.0XdXb.vXdXgX0.: ,X0XqXzX7XqXCXx.; ,.-XBXSXT.,.T.JX;XT.JX:Xz.bX                              ",
"                                E q.AXqXAXfXqXNX<.: 0X6XxXfXqXNXe w.1.* 8XBXSXz.,.1XJXx.;XHXJXY.E.                              ",
"                              J.i i :XfX7XdX7Xm.w.m.gX,Xq.7XqX7X; 1.w.p dXBXPX7.w.NXJXw.m.DXJXJ.                                ",
"                              2Xx.H.gXv.;XgXv.; v.IX0X-Xe fXgX:X; 1.l.IXgX7Xz.k.IXCXNX2.j.LX0.T                                 ",
"                              7XfXqXSX< :XBXl.% 4X3Xx.: v.dXjXv.<.<.Y.NXBX;X>.M.xX,.B..X~.G.N U                                 ",
"                              hXqX0Xe , qXdX< 3Xb., : % 6XZX8Xl.1.1.m.c.: M.u w t B U W.h S J {                                 ",
"                            G.:X:X0.: c.gX8X; m.y.w 4.mXl.>Xw.3.= t q 5 B B S j K D h { { tXVX!.                                ",
"                            E r = 2 G.zXjX-Xq 8 / 6 4.q.2 q ~.l 6 h D V v D rX{ nXHXiXJXNXZXGX                                  ",
"                            P.C v 8 <XJX8Xx.2 v f U T O h g m f _ <X[ $XCXiXVXhXVX_ Q.rXf H A.                                  ",
"                            I.x z 2 VX-X0., 8 v f V f { $X` #XDXJ.P.tX{ J { / D G G D v G W U                                   ",
"                            J.A x > n.q q N g Z [ tXBXZ L.pXV m V g g n F S S G G G G F G Q U                                   ",
"                          ^ L.I.5 , 5 J L R fX$X%XX x x k g b b b b N n F F F G G G F H F U U                                   ",
"                          [ Z Z z O } tXVXP.R { O z z z z z z b b b b F F F F G G G F H H T                                     ",
"                          L.x #XV %X#XpX~ c l l b z z z z z b b b b N S F F G G G G H H H T                                     ",
"                          L.x O NXZ R g c b b b b z z b z z b b b b n S F F G G G H H F W T                                     ",
"                          ` f x _ l l b b b b b b z z b b z b b b b S F F G G G G H H H Q U                                     ",
"                        ^ R k z z b b b b b b b z z z z b b b b b N n F F G G H G F F G U                                       ",
"                        [ C k z z b b b b b b b b b b b b b b b b N S F F F G G G F H H T                                       ",
"                        _ x z z b b b b b b b b b b z b b b b b b N F F F F G G G F F H T                                       ",
"                        ' k l z z b b b b b b b b b b b b b b b N F F F F G G G G F G W U                                       ",
"                      T E O l l z b b b b b b b b b b b b b b b n F F F F G G G G F G U U                                       ",
"                      A C O l l b b b b b b b b b b b b b b b b n S F F F G G F F F D ^                                         ",
"                      E 9 f l z b b b b b b b b b b b b b b b b n S F F F G G F F H { HX                                        ",
"                      ' 6 k l z z b b b b b b b b b b b b b b b N S S F G G F F S / GXP.                                        ",
"                      R O k l z b b b b b b b b b b c b b b b N n S S F F G F F v !.iX_                                         ",
"                        C Z f l b b b b b b b b b A Z z m b b c v n F F F F F F v yXDXI.                                        ",
"                          ( + f z b b b b b b c T nXI.V _ b C !./ N F n v F F F S nXHX                                          ",
"                            ` 6XC f l b z z b b b ! ^ U ^ ~ iXpXyXV R nX{ S F S J nXpX                                          ",
"                              OXs ( Z z k f l b b c c l b b ~ ! T pXGXiXQ.c ( ~ H { T                                           ",
"                                3XoX4X6X5X$X} V z l l c c b b v D S Q ! v F S H S V U                                           ",
"                                I.` ] s s oX3X5X5XL.J.~ V c g v v F F v S S F v S !                                             ",
"                                      ( s s s s v.H.*X5XhXuXtXK.! S N K.K.! b tXS                                               ",
"                                          ' ` ] +XoXOXoX] OX4XNXBX7X5XuXCXVXbX                                                  ",
"                                                  ` P.&X3X3X*X#X5XfXfX%X<XyX                                                    "
};
