/* XPM */
static char *_e2a576a3d374058d0c66850b90fef0azKUSp5nO54oKDQKq[] = {
/* columns rows colors chars-per-pixel */
"64 64 253 2 ",
"   c None",
".  c #43A52D",
"X  c #43A62D",
"o  c #305C1B",
"O  c #45A82E",
"+  c #44A52E",
"@  c #44A52E",
"#  c #43A52D",
"$  c #44A52E",
"%  c #305C1B",
"&  c #44A72E",
"*  c #31601C",
"=  c #305F1B",
"-  c #2E5C19",
";  c None",
":  c #305C1B",
">  c #305C1B",
",  c #305F1B",
"<  c #2F5A1A",
"1  c #2E5E1A",
"2  c #48A732",
"3  c #305C1B",
"4  c #305B1B",
"5  c #44A52E",
"6  c #44A52E",
"7  c #44A72E",
"8  c #2F5B1A",
"9  c #44A52E",
"0  c #44A52E",
"q  c #43A52D",
"w  c #44A62E",
"e  c #305F1B",
"r  c #305C1B",
"t  c #44A62E",
"y  c #2F5B1A",
"u  c white",
"i  c #305B1B",
"p  c #44A62E",
"a  c #305C1B",
"s  c #44A52E",
"d  c #305C1B",
"f  c #2F5B1A",
"g  c #43A42D",
"h  c #44A62E",
"j  c #305C1B",
"k  c #44A62E",
"l  c #31621C",
"z  c #44A62E",
"x  c #43A22D",
"c  c #305C1B",
"v  c #305C1B",
"b  c #305C1B",
"n  c #305B1A",
"m  c #45A62F",
"M  c white",
"N  c #305C1B",
"B  c #40A22A",
"V  c #305C1B",
"C  c #41A42B",
"Z  c white",
"A  c #2F5A1A",
"S  c #43A22D",
"D  c white",
"F  c #F6FBF4",
"G  c #44A52E",
"H  c #44A62E",
"J  c #367121",
"K  c #397D23",
"L  c #305C1B",
"P  c white",
"I  c white",
"U  c #2E5719",
"Y  c #44A52E",
"T  c #305C1B",
"R  c #44A52E",
"E  c #F0F9ED",
"W  c white",
"Q  c gray99",
"!  c #46AB30",
"~  c #44A52E",
"^  c #2F591A",
"/  c #44A52E",
"(  c #33661D",
")  c #3A8225",
"_  c white",
"`  c #40982B",
"'  c white",
"]  c #346C1F",
"[  c #43A22D",
"{  c white",
"}  c #44A52E",
"|  c #3C8726",
" . c #33701E",
".. c #336F1D",
"X. c white",
"o. c white",
"O. c #32671E",
"+. c #305C1B",
"@. c #E8F4E5",
"#. c #3E8E29",
"$. c #3D8A27",
"%. c #37A120",
"&. c #3C8627",
"*. c #40962A",
"=. c #E2F1DF",
"-. c white",
";. c #367421",
":. c #397E24",
">. c white",
",. c #BEE0B7",
"<. c #6EBA5D",
"1. c #367120",
"2. c #9CCF90",
"3. c #305C1B",
"4. c #33671E",
"5. c white",
"6. c #3B8225",
"7. c #40A529",
"8. c #87C578",
"9. c white",
"0. c white",
"q. c white",
"w. c #359D1C",
"e. c #409429",
"r. c #44A52E",
"t. c #305C1B",
"y. c white",
"u. c #44A62E",
"i. c #AD5050",
"p. c #44A42D",
"a. c #45A82F",
"s. c #43A22D",
"d. c #43A02C",
"f. c #9C1F1F",
"g. c #41A82D",
"h. c #419B2B",
"j. c #AD5151",
"k. c #45A92F",
"l. c #3DA226",
"z. c #AB4A4A",
"x. c #429D2B",
"c. c #B94654",
"v. c #AD4F4F",
"b. c #429E2B",
"n. c #40982A",
"m. c #40962A",
"M. c #3AA023",
"N. c #46AC30",
"B. c #3E8E28",
"V. c #2E5519",
"C. c #3E9129",
"Z. c #2F5A1A",
"A. c #B05656",
"S. c #3FAA2D",
"D. c #41A62C",
"F. c #3CA628",
"G. c #B14D51",
"H. c #A33131",
"J. c #4AA130",
"K. c #45AA2F",
"L. c #3D8B27",
"P. c #9A1A1A",
"I. c #FEF6F8",
"U. c #F1DADC",
"Y. c #ECD5D5",
"T. c #AC4E4D",
"R. c #956348",
"E. c #57AF43",
"W. c #8A6B43",
"Q. c #41A42B",
"!. c #3A8124",
"~. c #397E24",
"^. c #377822",
"/. c #FFFAFD",
"(. c #FAF0F2",
"). c #E4F2E0",
"_. c #E6C5C7",
"`. c #7FC16F",
"'. c #74BC64",
"]. c #B45B5B",
"[. c #A94343",
"{. c #648C39",
"}. c #539933",
"|. c #46AE30",
" X c #3C8827",
".X c #37AB26",
"XX c #9F2626",
"oX c #3D9B25",
"OX c #34A420",
"+X c #357020",
"@X c #38961B",
"#X c #2E5719",
"$X c #961212",
"%X c #D7EBD2",
"&X c #D0E9CA",
"*X c #DBC4BD",
"=X c #B7B7B7",
"-X c #D7A9A7",
";X c #C98E8D",
":X c #90CA83",
">X c #C27E7E",
",X c #978A61",
"<X c #B64A53",
"1X c #62B44F",
"2X c #729D4F",
"3X c #9D5D4A",
"4X c #847242",
"5X c #A53A3A",
"6X c #4D9C31",
"7X c #568A2B",
"8X c #32661E",
"9X c #F0F5EF",
"0X c #FCE8EF",
"qX c #F7ECED",
"wX c #EAEAEA",
"eX c gray89",
"rX c #D2D2D2",
"tX c #C0B09B",
"yX c #99CD8D",
"uX c #ABA280",
"iX c #C37076",
"pX c #A79575",
"aX c #B18773",
"sX c #6C6C6C",
"dX c #B3736B",
"fX c #BC6368",
"gX c #679541",
"hX c #777C3E",
"jX c #6B873B",
"kX c #579634",
"lX c #46A631",
"zX c #46A32E",
"xX c #5F812D",
"cX c #5D7626",
"vX c #34681F",
"bX c #359F1E",
"nX c #CBCBCB",
"mX c #C0E1B9",
"MX c #CFBEAF",
"NX c #B0D9A6",
"BX c #AED9A5",
"VX c #ABD6A2",
"CX c gray60",
"ZX c #AEAE8B",
"AX c gray54",
"SX c #B67B72",
"DX c #83A764",
"FX c #B64652",
"GX c #807945",
"HX c #373737",
"JX c #48B232",
"KX c gray17",
"LX c #487C19",
/* pixels */
"                                                                                                                                ",
"                                                                                                                                ",
"                                                        - =   3.o                                                               ",
"                                                        1 f , o n % U         W F W                                             ",
"                                          F X.I I X.D      .V.4 ^ n ..    D 0.M ' M P @.                                        ",
"                                        E ' u ; ; u { E   B vXZ.8X) 7.. @.M Q y.y.y.; >.E                                       ",
"        V = A                         Z _ y.y.y.y.y.y.=.<.%.h. Xn.a.X m ,.; y.y.y.wXsX=X{ D                     y               ",
"  - U x i % e                       F 5.y.eXAX=Xy.y.y.y.VXl.g.N.r.s.M.'.).y.y.y.y.eXHXCXy.q.                  l 4., | } @       ",
"    ) ` +X&.` s h t                 Z _ y.rXKXsXy.y.y.y.&XE.l.p.d.b.M.yXy.y.y.y.y.Q rXwXy.I                 O :.J ~.d.r.+ @     ",
"  O X d.b.r.k.u.5 9 Y               Z u y.9X=XnXy.y.y.y.%X1XoXh.p.Q.l.yXy.y.y.y.y.y.y.y.y.P               h # x.B.d.u.r.r./     ",
"  q H u.k.u.r.r.r.r./ B             Z -.y.y.y.y.y.y.y.y.%XE.l.d.h.d.M.:X; y.y.y.y.y.y.y.y.9.            h 6 r.a.K.a.r.r.r.+     ",
"  w + r.r.r.r.r.r.r.r.+ @           D M y.y.y.y.y.y.y.y.mXD.D.r.s.r.M.E.&Xy.y.y.y.y.y.y.u o.          t # r.r.u.b.r.r.r.r.$     ",
"    q X r.r.r.r.r.r.r.r.6 2           o.u y.y.y.y.y.y.).'.M.u.g.S.g.r.bX`.9Xy.y.y.y.y.y.P W           $ X r.r.u.m.p.r.0 @ .     ",
"    . k g 5 r.r.r.r.r.r.G [             8.).y.y.y.y.).`.OX.XOX@X@X@XF..XF.`.&X; y.y.%X2.F             0 r.r.r.r.p.r.B x         ",
"          O p r.r.r.r.r.r.+ $           w.1X:XBXNX:X1XOX@XxX,XZXuXpXGXcXM..XE.'.`.'.E.q 2             7 u.h.d.r.u.9 t           ",
"            z # r.r.r.r.r.r.5 &       . B M.l.lXlXF.bX7XpX*XU./.I.I._.-X,XLXOXM.l.l.l.# C           q + r.s.p.r.r.O             ",
"              O X r.r.r.r.r.r.6 @ 2   x # r.Q.l.l.M.2X*X(.y.I.Y.Y.U.qXy._.dX{..XQ.d.p.+ R         $ X r.r.u.r.r.p .             ",
"                h r.r.r.r.r.r.r.X # q $ + r.r.r.S.7XdX0X/._.>XA.].A.>XU.y.U.SX7XF.n.s.u.&     k 9 ~ r.a.u.r.r.r.@ 2             ",
"                2 X r.r.r.r.r.r.n.u.~ X r.r.r.S.J.R.c.>X;XA.z.z.z.z.[.fXY._.fXW.6XD.r.r.& O m 5 G r.u.x.d.r.p.! O               ",
"                  s r.r.r.r.u.p.C.a.u.a.r.r.r.g.{.c.v.z.z.z.T.i.i.j.T.z.].].G.T.{.S.u.r.7 6 G u.u.r.u.h.d.p.N.$.1               ",
"                  w r.r.r.r.r.r.u.u.p.x.p.r.g.J.4X<Xi.v.v.i.i.i.i.i.i.v.z.z.v.c.hXg.u.r.r.r.r.d.p.r.r.r.r.k.m.] <               ",
"                  . 7 k.a.u.r.r.m.s.p.x.r.r.g.}.R.G.i.i.i.i.i.i.i.i.i.i.i.i.i.c.4XzXg.u.r.r.r.m.s.u.r.r.r.u.+XU A               ",
"                  l K h.s.s.u.r.h.p.r.r.r.r.g.}.R.G.i.i.i.i.i.j.j.j.i.i.i.i.i.c.W.J.oXd.u.u.r.u.r.r.r.r.u.s.( +.                ",
"                  l % J +X!.N.r.r.r.r.r.r.r.g.kX3XG.i.i.i.j.j.v.z.v.A.j.i.i.i.c.W.J.Q.s.u.p.r.m.s.u.r.r.u.g *                   ",
"                  l > , J L.k.r.r.r.r.r.r.r.g.kX3XG.i.i.j.v.5XXXXXXX5Xv.j.i.i.c.W.J.g.r.k.C.d.s.s.r.r.r.g .                     ",
"                  - = e  .0 r.r.r.r.r.r.r.r.g.}.R.G.i.j.T.H.P.f.f.f.f.H.v.j.i.c.4XzXg.r.r.p.r.r.r.r.H @ .                       ",
"                        - t @ 7 r.r.u.r.r.u.K.6XW.<Xi.j.5Xf.f.f.f.f.f.f.[.A.i.c.hXg.u.r.r.r.r.r.r.9 O                           ",
"                              t & s 7 ! a.p.n.Q.jXc.j.z.H.P.f.f.f.f.f.P.H.A.i.i.jXg.r.r.a.u.r.p & .                             ",
"                                  S , ;.~.n.s.S.6X3XFXA.[.$XP.f.f.f.P.$XH.T.<XR.}.g.N.B.#.s k .                                 ",
"                                  y e O.0 ^.K.r.g.xXiX(.Y.].XXP.$X$XH.-XY.iX[.{.S.p.N.B.( j                                     ",
"                                      1 K B.K.r.u.oXDXI.y.I.(.-X;X*XU.y.y.;XcXS.u.r.k.x.] *                                     ",
"                                      1 1.JXp.r.r.D.D.2XMX/.y.(.qX; /.0XtXgXl.u.r.r.r.|...                                      ",
"                                        * |.r.r.r.r.r.l.J.2XuXaXaXtX,XgXb.F.u.r.r.r.r.r.&                                       ",
"                                        z 7 r.r.r.p.r.r.D.F.M.x.x.oXl.F.D.r.r.r.r.r.r.H w                                       ",
"                                        t } r.a.b.C.K.r.r.r.r.u.u.u.r.p.p.r.r.p.r.r.r.X R                                       ",
"                                        2 $ r.r.r.p.r.r.r.r.r.r.r.u.s.h.s.u.u.x.x.r.r.6 O                                       ",
"                                          Y r.r.r.r.r.r.r.r.r.r.r.r.r.u.r.r.r.p.r.r.r.# C                                       ",
"                                          R + r.r.r.r.r.r.r.r.r.r.a.b.n.s.u.r.r.r.r.r.0 x                                       ",
"                                          C 6 r.r.r.p.r.p.p.r.r.u.p.L.vXL.N.r.r.r.r.r.s .                                       ",
"                                          x 9 r.u.b.m.p.h.d.u.r.N.L.^. Xm.a.u.r.r.r.r.$                                         ",
"                                          . q r.r.p.s.u.u.u.r.r.u.C.B.h.d.u.r.r.r.r.r.h                                         ",
"                                            @ r.r.r.u.r.r.r.r.u.p.a.k.u.r.k.m.h.a.r.r.&                                         ",
"                                            w r.r.r.r.r.r.s.d.p.r.p.p.r.r.u.d.s.u.r.# C                                         ",
"                                            w r.r.r.r.r.u.s.h.d.a.h.h.a.r.r.a.u.r.r.m S                                         ",
"                                            O X r.r.r.r.r.u.u.r.u.b.x.s.d.u.r.r.r.r.g                                           ",
"                                            z p u.u.r.r.r.r.r.r.r.a.a.h.x.u.r.r.r.r.Y                                           ",
"                                            S [ h.b.u.r.r.r.r.r.r.r.r.a.a.r.r.r.r.5 k                                           ",
"                                            = K ~. X|.p.r.r.r.a.a.r.r.r.r.r.r.r.r.m S                                           ",
"                                            1 | n.B.N.r.r.r.u.b.n.p.a.r.r.r.r.r.r.$                                             ",
"                                              w u.p.r.r.r.r.a.B.!.d.p.u.r.r.r.r.r.&                                             ",
"                                              k 5 a.r.r.r.r.u.d.C.~.C.N.r.r.r.u.9 z                                             ",
"                                              z p u.a.a.u.u.k.s.C.!.m.|.a.a.k.a.g                                               ",
"                                              e.0 u.r.u.k.k.K.s.m.C.B.n.p.r.n. X6.                                              ",
"                                              * *.!.^.!.L.B.L.~.+Xt.Z.8X^.^.8X#X8 < = -                                         ",
"                                        - l < a t.V.V.V.#Xt.Z.V.V.Z.Z.V.V.V.#XZ.t.i o d L T e * A y                             ",
"                  - = +.* r r e j < T % N : 3 t.#Xt.t.t.t.Z.Z.t.t.t.t.t.t.t.t.t.t.t.t.t.t.t.^ 8 n > f V < e r O.A y             ",
"              j % N a : 8 b v 4 3 c t.t.t.t.t.t.t.t.t.t.t.t.t.t.t.t.t.t.t.t.t.t.t.t.t.t.t.t.t.t.t.t.t.t.3 v b : n > d f % =     ",
"              4 t.t.t.t.t.t.t.t.t.t.t.t.t.t.t.t.t.t.t.t.t.t.t.t.t.t.t.t.t.t.t.t.t.t.t.t.t.t.t.t.t.t.t.t.t.t.t.t.t.t.t.t.t.o     ",
"              d 4 t.t.t.t.t.t.t.t.t.3 b : 8 t.t.t.t.t.t.t.t.t.t.t.t.t.t.t.t.t.t.t.t.t.t.t.t.t.t.t.t.t.t.t.t.t.t.t.t.t.t.t.t.    ",
"                < f > o a a o > , L T r * N t.t.t.t.t.t.t.t.t.t.t.t.t.t.t.t.t.t.t.t.t.t.t.t.t.i 8 b 4 c t.t.t.t.t.t.t.t.v %     ",
"                      y 1 1 y 2         = o t.t.t.t.t.t.t.t.t.t.t.t.t.t.t.t.t.t.t.t.t.t.t.t.o j * r < V % f , d N d , L j       ",
"                                        - V i 3 v : o o 8 c t.t.t.3 : > > a : i c t.t.t.t.4 r                                   ",
"                                                                                                                                ",
"                                                                                                                                "
};
